%TF.GenerationSoftware,KiCad,Pcbnew,5.1.6*%
%TF.CreationDate,2020-06-18T23:16:12-07:00*%
%TF.ProjectId,draft,64726166-742e-46b6-9963-61645f706362,rev?*%
%TF.SameCoordinates,Original*%
%TF.FileFunction,Legend,Bot*%
%TF.FilePolarity,Positive*%
%FSLAX46Y46*%
G04 Gerber Fmt 4.6, Leading zero omitted, Abs format (unit mm)*
G04 Created by KiCad (PCBNEW 5.1.6) date 2020-06-18 23:16:12*
%MOMM*%
%LPD*%
G01*
G04 APERTURE LIST*
%ADD10C,0.120000*%
%ADD11C,0.100000*%
%ADD12C,0.200000*%
%ADD13C,0.150000*%
%ADD14C,0.254000*%
G04 APERTURE END LIST*
D10*
%TO.C,C2*%
X58452936Y-63140000D02*
X59657064Y-63140000D01*
X58452936Y-61320000D02*
X59657064Y-61320000D01*
%TO.C,C1*%
X58452936Y-72665000D02*
X59657064Y-72665000D01*
X58452936Y-70845000D02*
X59657064Y-70845000D01*
%TO.C,R2*%
X109580000Y-65020436D02*
X109580000Y-66224564D01*
X111400000Y-65020436D02*
X111400000Y-66224564D01*
%TO.C,R1*%
X109580000Y-71570436D02*
X109580000Y-72774564D01*
X111400000Y-71570436D02*
X111400000Y-72774564D01*
%TO.C,J2*%
X93300000Y-100900000D02*
X93000000Y-101500000D01*
X92700000Y-100900000D02*
X93300000Y-100900000D01*
X93000000Y-101500000D02*
X92700000Y-100900000D01*
X95820000Y-104590000D02*
X95500000Y-104590000D01*
X95820000Y-108010000D02*
X95820000Y-104590000D01*
X95500000Y-108090000D02*
X95820000Y-108010000D01*
X95180000Y-108010000D02*
X95500000Y-108090000D01*
X95180000Y-104590000D02*
X95180000Y-108010000D01*
X95500000Y-104590000D02*
X95180000Y-104590000D01*
X94170000Y-103590000D02*
X94330000Y-103590000D01*
X93320000Y-104590000D02*
X93000000Y-104590000D01*
X93320000Y-108010000D02*
X93320000Y-104590000D01*
X93000000Y-108090000D02*
X93320000Y-108010000D01*
X92680000Y-108010000D02*
X93000000Y-108090000D01*
X92680000Y-104590000D02*
X92680000Y-108010000D01*
X93000000Y-104590000D02*
X92680000Y-104590000D01*
X91610000Y-104590000D02*
X96890000Y-104590000D01*
X96890000Y-103590000D02*
X98110000Y-103590000D01*
X96890000Y-108590000D02*
X96890000Y-103590000D01*
X98110000Y-108590000D02*
X96890000Y-108590000D01*
X91610000Y-103590000D02*
X90390000Y-103590000D01*
X91610000Y-108590000D02*
X91610000Y-103590000D01*
X90390000Y-108590000D02*
X91610000Y-108590000D01*
X96890000Y-101390000D02*
X96890000Y-103590000D01*
X98110000Y-101390000D02*
X96890000Y-101390000D01*
X98110000Y-109810000D02*
X98110000Y-101390000D01*
X90390000Y-109810000D02*
X98110000Y-109810000D01*
X90390000Y-101390000D02*
X90390000Y-109810000D01*
X91610000Y-101390000D02*
X90390000Y-101390000D01*
X91610000Y-103590000D02*
X91610000Y-101390000D01*
%TO.C,RV1*%
X78525000Y-72240000D02*
X78525000Y-62300000D01*
X66285000Y-63900000D02*
X66285000Y-62300000D01*
X66285000Y-66399000D02*
X66285000Y-65640000D01*
X66285000Y-68899000D02*
X66285000Y-68140000D01*
X66285000Y-72240000D02*
X66285000Y-70641000D01*
X74660000Y-62300000D02*
X78525000Y-62300000D01*
X66285000Y-62300000D02*
X70150000Y-62300000D01*
X74660000Y-72240000D02*
X78525000Y-72240000D01*
X66285000Y-72240000D02*
X70150000Y-72240000D01*
%TO.C,R27*%
X68382936Y-53090000D02*
X69587064Y-53090000D01*
X68382936Y-54910000D02*
X69587064Y-54910000D01*
%TO.C,R26*%
X68382936Y-49090000D02*
X69587064Y-49090000D01*
X68382936Y-50910000D02*
X69587064Y-50910000D01*
%TO.C,R25*%
X68382936Y-79090000D02*
X69587064Y-79090000D01*
X68382936Y-80910000D02*
X69587064Y-80910000D01*
%TO.C,R24*%
X68382936Y-45090000D02*
X69587064Y-45090000D01*
X68382936Y-46910000D02*
X69587064Y-46910000D01*
%TO.C,R23*%
X68382936Y-83090000D02*
X69587064Y-83090000D01*
X68382936Y-84910000D02*
X69587064Y-84910000D01*
%TO.C,R22*%
X68382936Y-87090000D02*
X69587064Y-87090000D01*
X68382936Y-88910000D02*
X69587064Y-88910000D01*
%TO.C,R21*%
X68382936Y-41090000D02*
X69587064Y-41090000D01*
X68382936Y-42910000D02*
X69587064Y-42910000D01*
%TO.C,R20*%
X68382936Y-37090000D02*
X69587064Y-37090000D01*
X68382936Y-38910000D02*
X69587064Y-38910000D01*
%TO.C,R19*%
X68382936Y-91090000D02*
X69587064Y-91090000D01*
X68382936Y-92910000D02*
X69587064Y-92910000D01*
%TO.C,R18*%
X68382936Y-33090000D02*
X69587064Y-33090000D01*
X68382936Y-34910000D02*
X69587064Y-34910000D01*
%TO.C,R17*%
X68382936Y-95090000D02*
X69587064Y-95090000D01*
X68382936Y-96910000D02*
X69587064Y-96910000D01*
%TO.C,R16*%
X68382936Y-99090000D02*
X69587064Y-99090000D01*
X68382936Y-100910000D02*
X69587064Y-100910000D01*
%TO.C,R15*%
X40587064Y-46910000D02*
X39382936Y-46910000D01*
X40587064Y-45090000D02*
X39382936Y-45090000D01*
%TO.C,R14*%
X40587064Y-50910000D02*
X39382936Y-50910000D01*
X40587064Y-49090000D02*
X39382936Y-49090000D01*
%TO.C,R13*%
X40587064Y-100910000D02*
X39382936Y-100910000D01*
X40587064Y-99090000D02*
X39382936Y-99090000D01*
%TO.C,R12*%
X40587064Y-54910000D02*
X39382936Y-54910000D01*
X40587064Y-53090000D02*
X39382936Y-53090000D01*
%TO.C,R11*%
X40587064Y-96910000D02*
X39382936Y-96910000D01*
X40587064Y-95090000D02*
X39382936Y-95090000D01*
%TO.C,R10*%
X40587064Y-92910000D02*
X39382936Y-92910000D01*
X40587064Y-91090000D02*
X39382936Y-91090000D01*
%TO.C,R9*%
X40587064Y-34910000D02*
X39382936Y-34910000D01*
X40587064Y-33090000D02*
X39382936Y-33090000D01*
%TO.C,R8*%
X40587064Y-38910000D02*
X39382936Y-38910000D01*
X40587064Y-37090000D02*
X39382936Y-37090000D01*
%TO.C,R7*%
X40587064Y-88910000D02*
X39382936Y-88910000D01*
X40587064Y-87090000D02*
X39382936Y-87090000D01*
%TO.C,R6*%
X40587064Y-42910000D02*
X39382936Y-42910000D01*
X40587064Y-41090000D02*
X39382936Y-41090000D01*
%TO.C,R5*%
X40587064Y-84910000D02*
X39382936Y-84910000D01*
X40587064Y-83090000D02*
X39382936Y-83090000D01*
%TO.C,R4*%
X40587064Y-80910000D02*
X39382936Y-80910000D01*
X40587064Y-79090000D02*
X39382936Y-79090000D01*
D11*
%TO.C,LED8*%
X63845000Y-85100000D02*
X63845000Y-85100000D01*
X63745000Y-85100000D02*
X63745000Y-85100000D01*
X62895000Y-85650000D02*
X59870000Y-85650000D01*
X62895000Y-82350000D02*
X59870000Y-82350000D01*
X63745000Y-85100000D02*
G75*
G03*
X63845000Y-85100000I50000J0D01*
G01*
X63845000Y-85100000D02*
G75*
G03*
X63745000Y-85100000I-50000J0D01*
G01*
%TO.C,LED7*%
X63845000Y-51100000D02*
X63845000Y-51100000D01*
X63745000Y-51100000D02*
X63745000Y-51100000D01*
X62895000Y-51650000D02*
X59870000Y-51650000D01*
X62895000Y-48350000D02*
X59870000Y-48350000D01*
X63745000Y-51100000D02*
G75*
G03*
X63845000Y-51100000I50000J0D01*
G01*
X63845000Y-51100000D02*
G75*
G03*
X63745000Y-51100000I-50000J0D01*
G01*
%TO.C,LED6*%
X63845000Y-97100000D02*
X63845000Y-97100000D01*
X63745000Y-97100000D02*
X63745000Y-97100000D01*
X62895000Y-97650000D02*
X59870000Y-97650000D01*
X62895000Y-94350000D02*
X59870000Y-94350000D01*
X63745000Y-97100000D02*
G75*
G03*
X63845000Y-97100000I50000J0D01*
G01*
X63845000Y-97100000D02*
G75*
G03*
X63745000Y-97100000I-50000J0D01*
G01*
%TO.C,LED5*%
X63845000Y-39100000D02*
X63845000Y-39100000D01*
X63745000Y-39100000D02*
X63745000Y-39100000D01*
X62895000Y-39650000D02*
X59870000Y-39650000D01*
X62895000Y-36350000D02*
X59870000Y-36350000D01*
X63745000Y-39100000D02*
G75*
G03*
X63845000Y-39100000I50000J0D01*
G01*
X63845000Y-39100000D02*
G75*
G03*
X63745000Y-39100000I-50000J0D01*
G01*
%TO.C,LED4*%
X45125000Y-94900000D02*
X45125000Y-94900000D01*
X45225000Y-94900000D02*
X45225000Y-94900000D01*
X46075000Y-94350000D02*
X49100000Y-94350000D01*
X46075000Y-97650000D02*
X49100000Y-97650000D01*
X45225000Y-94900000D02*
G75*
G03*
X45125000Y-94900000I-50000J0D01*
G01*
X45125000Y-94900000D02*
G75*
G03*
X45225000Y-94900000I50000J0D01*
G01*
%TO.C,LED3*%
X45125000Y-48900000D02*
X45125000Y-48900000D01*
X45225000Y-48900000D02*
X45225000Y-48900000D01*
X46075000Y-48350000D02*
X49100000Y-48350000D01*
X46075000Y-51650000D02*
X49100000Y-51650000D01*
X45225000Y-48900000D02*
G75*
G03*
X45125000Y-48900000I-50000J0D01*
G01*
X45125000Y-48900000D02*
G75*
G03*
X45225000Y-48900000I50000J0D01*
G01*
%TO.C,LED2*%
X45125000Y-82900000D02*
X45125000Y-82900000D01*
X45225000Y-82900000D02*
X45225000Y-82900000D01*
X46075000Y-82350000D02*
X49100000Y-82350000D01*
X46075000Y-85650000D02*
X49100000Y-85650000D01*
X45225000Y-82900000D02*
G75*
G03*
X45125000Y-82900000I-50000J0D01*
G01*
X45125000Y-82900000D02*
G75*
G03*
X45225000Y-82900000I50000J0D01*
G01*
%TO.C,LED1*%
X45125000Y-36900000D02*
X45125000Y-36900000D01*
X45225000Y-36900000D02*
X45225000Y-36900000D01*
X46075000Y-36350000D02*
X49100000Y-36350000D01*
X46075000Y-39650000D02*
X49100000Y-39650000D01*
X45225000Y-36900000D02*
G75*
G03*
X45125000Y-36900000I-50000J0D01*
G01*
X45125000Y-36900000D02*
G75*
G03*
X45225000Y-36900000I50000J0D01*
G01*
D12*
%TO.C,IC1*%
X56585000Y-69400000D02*
G75*
G03*
X56585000Y-69400000I-100000J0D01*
G01*
D10*
%TO.C,ADC1*%
X125730000Y-43120000D02*
X124400000Y-43120000D01*
X124400000Y-43120000D02*
X124400000Y-44450000D01*
X124400000Y-45720000D02*
X124400000Y-68640000D01*
X127060000Y-68640000D02*
X124400000Y-68640000D01*
X127060000Y-45720000D02*
X127060000Y-68640000D01*
X127060000Y-45720000D02*
X124400000Y-45720000D01*
%TO.C,BME1*%
X121285000Y-90330000D02*
X122615000Y-90330000D01*
X122615000Y-90330000D02*
X122615000Y-89000000D01*
X122615000Y-87730000D02*
X122615000Y-74970000D01*
X119955000Y-74970000D02*
X122615000Y-74970000D01*
X119955000Y-87730000D02*
X119955000Y-74970000D01*
X119955000Y-87730000D02*
X122615000Y-87730000D01*
%TO.C,J1*%
X87670000Y-70000000D02*
X87670000Y-71330000D01*
X87670000Y-71330000D02*
X89000000Y-71330000D01*
X87670000Y-68730000D02*
X90270000Y-68730000D01*
X90270000Y-68730000D02*
X90270000Y-71330000D01*
X90270000Y-71330000D02*
X100490000Y-71330000D01*
X100490000Y-66130000D02*
X100490000Y-71330000D01*
X87670000Y-66130000D02*
X100490000Y-66130000D01*
X87670000Y-66130000D02*
X87670000Y-68730000D01*
%TO.C,LCD_SPI1*%
X102930000Y-40640000D02*
X102930000Y-39310000D01*
X102930000Y-39310000D02*
X101600000Y-39310000D01*
X100330000Y-39310000D02*
X85030000Y-39310000D01*
X85030000Y-41970000D02*
X85030000Y-39310000D01*
X100330000Y-41970000D02*
X85030000Y-41970000D01*
X100330000Y-41970000D02*
X100330000Y-39310000D01*
%TO.C,MOIST1*%
X89670000Y-85330000D02*
X91000000Y-85330000D01*
X89670000Y-84000000D02*
X89670000Y-85330000D01*
X89670000Y-82730000D02*
X92330000Y-82730000D01*
X92330000Y-82730000D02*
X92330000Y-77590000D01*
X89670000Y-82730000D02*
X89670000Y-77590000D01*
X89670000Y-77590000D02*
X92330000Y-77590000D01*
%TO.C,PHOTO1*%
X97000000Y-85330000D02*
X98330000Y-85330000D01*
X98330000Y-85330000D02*
X98330000Y-84000000D01*
X98330000Y-82730000D02*
X98330000Y-80130000D01*
X95670000Y-80130000D02*
X98330000Y-80130000D01*
X95670000Y-82730000D02*
X95670000Y-80130000D01*
X95670000Y-82730000D02*
X98330000Y-82730000D01*
%TO.C,C2*%
D13*
X59221666Y-64407142D02*
X59269285Y-64454761D01*
X59412142Y-64502380D01*
X59507380Y-64502380D01*
X59650238Y-64454761D01*
X59745476Y-64359523D01*
X59793095Y-64264285D01*
X59840714Y-64073809D01*
X59840714Y-63930952D01*
X59793095Y-63740476D01*
X59745476Y-63645238D01*
X59650238Y-63550000D01*
X59507380Y-63502380D01*
X59412142Y-63502380D01*
X59269285Y-63550000D01*
X59221666Y-63597619D01*
X58840714Y-63597619D02*
X58793095Y-63550000D01*
X58697857Y-63502380D01*
X58459761Y-63502380D01*
X58364523Y-63550000D01*
X58316904Y-63597619D01*
X58269285Y-63692857D01*
X58269285Y-63788095D01*
X58316904Y-63930952D01*
X58888333Y-64502380D01*
X58269285Y-64502380D01*
%TO.C,C1*%
X59221666Y-73932142D02*
X59269285Y-73979761D01*
X59412142Y-74027380D01*
X59507380Y-74027380D01*
X59650238Y-73979761D01*
X59745476Y-73884523D01*
X59793095Y-73789285D01*
X59840714Y-73598809D01*
X59840714Y-73455952D01*
X59793095Y-73265476D01*
X59745476Y-73170238D01*
X59650238Y-73075000D01*
X59507380Y-73027380D01*
X59412142Y-73027380D01*
X59269285Y-73075000D01*
X59221666Y-73122619D01*
X58269285Y-74027380D02*
X58840714Y-74027380D01*
X58555000Y-74027380D02*
X58555000Y-73027380D01*
X58650238Y-73170238D01*
X58745476Y-73265476D01*
X58840714Y-73313095D01*
%TO.C,R2*%
X109122380Y-65455833D02*
X108646190Y-65122500D01*
X109122380Y-64884404D02*
X108122380Y-64884404D01*
X108122380Y-65265357D01*
X108170000Y-65360595D01*
X108217619Y-65408214D01*
X108312857Y-65455833D01*
X108455714Y-65455833D01*
X108550952Y-65408214D01*
X108598571Y-65360595D01*
X108646190Y-65265357D01*
X108646190Y-64884404D01*
X108217619Y-65836785D02*
X108170000Y-65884404D01*
X108122380Y-65979642D01*
X108122380Y-66217738D01*
X108170000Y-66312976D01*
X108217619Y-66360595D01*
X108312857Y-66408214D01*
X108408095Y-66408214D01*
X108550952Y-66360595D01*
X109122380Y-65789166D01*
X109122380Y-66408214D01*
%TO.C,R1*%
X109122380Y-72005833D02*
X108646190Y-71672500D01*
X109122380Y-71434404D02*
X108122380Y-71434404D01*
X108122380Y-71815357D01*
X108170000Y-71910595D01*
X108217619Y-71958214D01*
X108312857Y-72005833D01*
X108455714Y-72005833D01*
X108550952Y-71958214D01*
X108598571Y-71910595D01*
X108646190Y-71815357D01*
X108646190Y-71434404D01*
X109122380Y-72958214D02*
X109122380Y-72386785D01*
X109122380Y-72672500D02*
X108122380Y-72672500D01*
X108265238Y-72577261D01*
X108360476Y-72482023D01*
X108408095Y-72386785D01*
%TO.C,J2*%
X94583333Y-110352380D02*
X94583333Y-111066666D01*
X94630952Y-111209523D01*
X94726190Y-111304761D01*
X94869047Y-111352380D01*
X94964285Y-111352380D01*
X94154761Y-110447619D02*
X94107142Y-110400000D01*
X94011904Y-110352380D01*
X93773809Y-110352380D01*
X93678571Y-110400000D01*
X93630952Y-110447619D01*
X93583333Y-110542857D01*
X93583333Y-110638095D01*
X93630952Y-110780952D01*
X94202380Y-111352380D01*
X93583333Y-111352380D01*
%TO.C,RV1*%
X72050238Y-75372380D02*
X72383571Y-74896190D01*
X72621666Y-75372380D02*
X72621666Y-74372380D01*
X72240714Y-74372380D01*
X72145476Y-74420000D01*
X72097857Y-74467619D01*
X72050238Y-74562857D01*
X72050238Y-74705714D01*
X72097857Y-74800952D01*
X72145476Y-74848571D01*
X72240714Y-74896190D01*
X72621666Y-74896190D01*
X71764523Y-74372380D02*
X71431190Y-75372380D01*
X71097857Y-74372380D01*
X70240714Y-75372380D02*
X70812142Y-75372380D01*
X70526428Y-75372380D02*
X70526428Y-74372380D01*
X70621666Y-74515238D01*
X70716904Y-74610476D01*
X70812142Y-74658095D01*
%TO.C,R27*%
X69627857Y-52452380D02*
X69961190Y-51976190D01*
X70199285Y-52452380D02*
X70199285Y-51452380D01*
X69818333Y-51452380D01*
X69723095Y-51500000D01*
X69675476Y-51547619D01*
X69627857Y-51642857D01*
X69627857Y-51785714D01*
X69675476Y-51880952D01*
X69723095Y-51928571D01*
X69818333Y-51976190D01*
X70199285Y-51976190D01*
X69246904Y-51547619D02*
X69199285Y-51500000D01*
X69104047Y-51452380D01*
X68865952Y-51452380D01*
X68770714Y-51500000D01*
X68723095Y-51547619D01*
X68675476Y-51642857D01*
X68675476Y-51738095D01*
X68723095Y-51880952D01*
X69294523Y-52452380D01*
X68675476Y-52452380D01*
X68342142Y-51452380D02*
X67675476Y-51452380D01*
X68104047Y-52452380D01*
%TO.C,R26*%
X69627857Y-48452380D02*
X69961190Y-47976190D01*
X70199285Y-48452380D02*
X70199285Y-47452380D01*
X69818333Y-47452380D01*
X69723095Y-47500000D01*
X69675476Y-47547619D01*
X69627857Y-47642857D01*
X69627857Y-47785714D01*
X69675476Y-47880952D01*
X69723095Y-47928571D01*
X69818333Y-47976190D01*
X70199285Y-47976190D01*
X69246904Y-47547619D02*
X69199285Y-47500000D01*
X69104047Y-47452380D01*
X68865952Y-47452380D01*
X68770714Y-47500000D01*
X68723095Y-47547619D01*
X68675476Y-47642857D01*
X68675476Y-47738095D01*
X68723095Y-47880952D01*
X69294523Y-48452380D01*
X68675476Y-48452380D01*
X67818333Y-47452380D02*
X68008809Y-47452380D01*
X68104047Y-47500000D01*
X68151666Y-47547619D01*
X68246904Y-47690476D01*
X68294523Y-47880952D01*
X68294523Y-48261904D01*
X68246904Y-48357142D01*
X68199285Y-48404761D01*
X68104047Y-48452380D01*
X67913571Y-48452380D01*
X67818333Y-48404761D01*
X67770714Y-48357142D01*
X67723095Y-48261904D01*
X67723095Y-48023809D01*
X67770714Y-47928571D01*
X67818333Y-47880952D01*
X67913571Y-47833333D01*
X68104047Y-47833333D01*
X68199285Y-47880952D01*
X68246904Y-47928571D01*
X68294523Y-48023809D01*
%TO.C,R25*%
X69627857Y-78452380D02*
X69961190Y-77976190D01*
X70199285Y-78452380D02*
X70199285Y-77452380D01*
X69818333Y-77452380D01*
X69723095Y-77500000D01*
X69675476Y-77547619D01*
X69627857Y-77642857D01*
X69627857Y-77785714D01*
X69675476Y-77880952D01*
X69723095Y-77928571D01*
X69818333Y-77976190D01*
X70199285Y-77976190D01*
X69246904Y-77547619D02*
X69199285Y-77500000D01*
X69104047Y-77452380D01*
X68865952Y-77452380D01*
X68770714Y-77500000D01*
X68723095Y-77547619D01*
X68675476Y-77642857D01*
X68675476Y-77738095D01*
X68723095Y-77880952D01*
X69294523Y-78452380D01*
X68675476Y-78452380D01*
X67770714Y-77452380D02*
X68246904Y-77452380D01*
X68294523Y-77928571D01*
X68246904Y-77880952D01*
X68151666Y-77833333D01*
X67913571Y-77833333D01*
X67818333Y-77880952D01*
X67770714Y-77928571D01*
X67723095Y-78023809D01*
X67723095Y-78261904D01*
X67770714Y-78357142D01*
X67818333Y-78404761D01*
X67913571Y-78452380D01*
X68151666Y-78452380D01*
X68246904Y-78404761D01*
X68294523Y-78357142D01*
%TO.C,R24*%
X69627857Y-44452380D02*
X69961190Y-43976190D01*
X70199285Y-44452380D02*
X70199285Y-43452380D01*
X69818333Y-43452380D01*
X69723095Y-43500000D01*
X69675476Y-43547619D01*
X69627857Y-43642857D01*
X69627857Y-43785714D01*
X69675476Y-43880952D01*
X69723095Y-43928571D01*
X69818333Y-43976190D01*
X70199285Y-43976190D01*
X69246904Y-43547619D02*
X69199285Y-43500000D01*
X69104047Y-43452380D01*
X68865952Y-43452380D01*
X68770714Y-43500000D01*
X68723095Y-43547619D01*
X68675476Y-43642857D01*
X68675476Y-43738095D01*
X68723095Y-43880952D01*
X69294523Y-44452380D01*
X68675476Y-44452380D01*
X67818333Y-43785714D02*
X67818333Y-44452380D01*
X68056428Y-43404761D02*
X68294523Y-44119047D01*
X67675476Y-44119047D01*
%TO.C,R23*%
X69627857Y-82452380D02*
X69961190Y-81976190D01*
X70199285Y-82452380D02*
X70199285Y-81452380D01*
X69818333Y-81452380D01*
X69723095Y-81500000D01*
X69675476Y-81547619D01*
X69627857Y-81642857D01*
X69627857Y-81785714D01*
X69675476Y-81880952D01*
X69723095Y-81928571D01*
X69818333Y-81976190D01*
X70199285Y-81976190D01*
X69246904Y-81547619D02*
X69199285Y-81500000D01*
X69104047Y-81452380D01*
X68865952Y-81452380D01*
X68770714Y-81500000D01*
X68723095Y-81547619D01*
X68675476Y-81642857D01*
X68675476Y-81738095D01*
X68723095Y-81880952D01*
X69294523Y-82452380D01*
X68675476Y-82452380D01*
X68342142Y-81452380D02*
X67723095Y-81452380D01*
X68056428Y-81833333D01*
X67913571Y-81833333D01*
X67818333Y-81880952D01*
X67770714Y-81928571D01*
X67723095Y-82023809D01*
X67723095Y-82261904D01*
X67770714Y-82357142D01*
X67818333Y-82404761D01*
X67913571Y-82452380D01*
X68199285Y-82452380D01*
X68294523Y-82404761D01*
X68342142Y-82357142D01*
%TO.C,R22*%
X69627857Y-86452380D02*
X69961190Y-85976190D01*
X70199285Y-86452380D02*
X70199285Y-85452380D01*
X69818333Y-85452380D01*
X69723095Y-85500000D01*
X69675476Y-85547619D01*
X69627857Y-85642857D01*
X69627857Y-85785714D01*
X69675476Y-85880952D01*
X69723095Y-85928571D01*
X69818333Y-85976190D01*
X70199285Y-85976190D01*
X69246904Y-85547619D02*
X69199285Y-85500000D01*
X69104047Y-85452380D01*
X68865952Y-85452380D01*
X68770714Y-85500000D01*
X68723095Y-85547619D01*
X68675476Y-85642857D01*
X68675476Y-85738095D01*
X68723095Y-85880952D01*
X69294523Y-86452380D01*
X68675476Y-86452380D01*
X68294523Y-85547619D02*
X68246904Y-85500000D01*
X68151666Y-85452380D01*
X67913571Y-85452380D01*
X67818333Y-85500000D01*
X67770714Y-85547619D01*
X67723095Y-85642857D01*
X67723095Y-85738095D01*
X67770714Y-85880952D01*
X68342142Y-86452380D01*
X67723095Y-86452380D01*
%TO.C,R21*%
X69627857Y-40452380D02*
X69961190Y-39976190D01*
X70199285Y-40452380D02*
X70199285Y-39452380D01*
X69818333Y-39452380D01*
X69723095Y-39500000D01*
X69675476Y-39547619D01*
X69627857Y-39642857D01*
X69627857Y-39785714D01*
X69675476Y-39880952D01*
X69723095Y-39928571D01*
X69818333Y-39976190D01*
X70199285Y-39976190D01*
X69246904Y-39547619D02*
X69199285Y-39500000D01*
X69104047Y-39452380D01*
X68865952Y-39452380D01*
X68770714Y-39500000D01*
X68723095Y-39547619D01*
X68675476Y-39642857D01*
X68675476Y-39738095D01*
X68723095Y-39880952D01*
X69294523Y-40452380D01*
X68675476Y-40452380D01*
X67723095Y-40452380D02*
X68294523Y-40452380D01*
X68008809Y-40452380D02*
X68008809Y-39452380D01*
X68104047Y-39595238D01*
X68199285Y-39690476D01*
X68294523Y-39738095D01*
%TO.C,R20*%
X69627857Y-36452380D02*
X69961190Y-35976190D01*
X70199285Y-36452380D02*
X70199285Y-35452380D01*
X69818333Y-35452380D01*
X69723095Y-35500000D01*
X69675476Y-35547619D01*
X69627857Y-35642857D01*
X69627857Y-35785714D01*
X69675476Y-35880952D01*
X69723095Y-35928571D01*
X69818333Y-35976190D01*
X70199285Y-35976190D01*
X69246904Y-35547619D02*
X69199285Y-35500000D01*
X69104047Y-35452380D01*
X68865952Y-35452380D01*
X68770714Y-35500000D01*
X68723095Y-35547619D01*
X68675476Y-35642857D01*
X68675476Y-35738095D01*
X68723095Y-35880952D01*
X69294523Y-36452380D01*
X68675476Y-36452380D01*
X68056428Y-35452380D02*
X67961190Y-35452380D01*
X67865952Y-35500000D01*
X67818333Y-35547619D01*
X67770714Y-35642857D01*
X67723095Y-35833333D01*
X67723095Y-36071428D01*
X67770714Y-36261904D01*
X67818333Y-36357142D01*
X67865952Y-36404761D01*
X67961190Y-36452380D01*
X68056428Y-36452380D01*
X68151666Y-36404761D01*
X68199285Y-36357142D01*
X68246904Y-36261904D01*
X68294523Y-36071428D01*
X68294523Y-35833333D01*
X68246904Y-35642857D01*
X68199285Y-35547619D01*
X68151666Y-35500000D01*
X68056428Y-35452380D01*
%TO.C,R19*%
X69627857Y-90452380D02*
X69961190Y-89976190D01*
X70199285Y-90452380D02*
X70199285Y-89452380D01*
X69818333Y-89452380D01*
X69723095Y-89500000D01*
X69675476Y-89547619D01*
X69627857Y-89642857D01*
X69627857Y-89785714D01*
X69675476Y-89880952D01*
X69723095Y-89928571D01*
X69818333Y-89976190D01*
X70199285Y-89976190D01*
X68675476Y-90452380D02*
X69246904Y-90452380D01*
X68961190Y-90452380D02*
X68961190Y-89452380D01*
X69056428Y-89595238D01*
X69151666Y-89690476D01*
X69246904Y-89738095D01*
X68199285Y-90452380D02*
X68008809Y-90452380D01*
X67913571Y-90404761D01*
X67865952Y-90357142D01*
X67770714Y-90214285D01*
X67723095Y-90023809D01*
X67723095Y-89642857D01*
X67770714Y-89547619D01*
X67818333Y-89500000D01*
X67913571Y-89452380D01*
X68104047Y-89452380D01*
X68199285Y-89500000D01*
X68246904Y-89547619D01*
X68294523Y-89642857D01*
X68294523Y-89880952D01*
X68246904Y-89976190D01*
X68199285Y-90023809D01*
X68104047Y-90071428D01*
X67913571Y-90071428D01*
X67818333Y-90023809D01*
X67770714Y-89976190D01*
X67723095Y-89880952D01*
%TO.C,R18*%
X69627857Y-32452380D02*
X69961190Y-31976190D01*
X70199285Y-32452380D02*
X70199285Y-31452380D01*
X69818333Y-31452380D01*
X69723095Y-31500000D01*
X69675476Y-31547619D01*
X69627857Y-31642857D01*
X69627857Y-31785714D01*
X69675476Y-31880952D01*
X69723095Y-31928571D01*
X69818333Y-31976190D01*
X70199285Y-31976190D01*
X68675476Y-32452380D02*
X69246904Y-32452380D01*
X68961190Y-32452380D02*
X68961190Y-31452380D01*
X69056428Y-31595238D01*
X69151666Y-31690476D01*
X69246904Y-31738095D01*
X68104047Y-31880952D02*
X68199285Y-31833333D01*
X68246904Y-31785714D01*
X68294523Y-31690476D01*
X68294523Y-31642857D01*
X68246904Y-31547619D01*
X68199285Y-31500000D01*
X68104047Y-31452380D01*
X67913571Y-31452380D01*
X67818333Y-31500000D01*
X67770714Y-31547619D01*
X67723095Y-31642857D01*
X67723095Y-31690476D01*
X67770714Y-31785714D01*
X67818333Y-31833333D01*
X67913571Y-31880952D01*
X68104047Y-31880952D01*
X68199285Y-31928571D01*
X68246904Y-31976190D01*
X68294523Y-32071428D01*
X68294523Y-32261904D01*
X68246904Y-32357142D01*
X68199285Y-32404761D01*
X68104047Y-32452380D01*
X67913571Y-32452380D01*
X67818333Y-32404761D01*
X67770714Y-32357142D01*
X67723095Y-32261904D01*
X67723095Y-32071428D01*
X67770714Y-31976190D01*
X67818333Y-31928571D01*
X67913571Y-31880952D01*
%TO.C,R17*%
X69627857Y-94452380D02*
X69961190Y-93976190D01*
X70199285Y-94452380D02*
X70199285Y-93452380D01*
X69818333Y-93452380D01*
X69723095Y-93500000D01*
X69675476Y-93547619D01*
X69627857Y-93642857D01*
X69627857Y-93785714D01*
X69675476Y-93880952D01*
X69723095Y-93928571D01*
X69818333Y-93976190D01*
X70199285Y-93976190D01*
X68675476Y-94452380D02*
X69246904Y-94452380D01*
X68961190Y-94452380D02*
X68961190Y-93452380D01*
X69056428Y-93595238D01*
X69151666Y-93690476D01*
X69246904Y-93738095D01*
X68342142Y-93452380D02*
X67675476Y-93452380D01*
X68104047Y-94452380D01*
%TO.C,R16*%
X69627857Y-98452380D02*
X69961190Y-97976190D01*
X70199285Y-98452380D02*
X70199285Y-97452380D01*
X69818333Y-97452380D01*
X69723095Y-97500000D01*
X69675476Y-97547619D01*
X69627857Y-97642857D01*
X69627857Y-97785714D01*
X69675476Y-97880952D01*
X69723095Y-97928571D01*
X69818333Y-97976190D01*
X70199285Y-97976190D01*
X68675476Y-98452380D02*
X69246904Y-98452380D01*
X68961190Y-98452380D02*
X68961190Y-97452380D01*
X69056428Y-97595238D01*
X69151666Y-97690476D01*
X69246904Y-97738095D01*
X67818333Y-97452380D02*
X68008809Y-97452380D01*
X68104047Y-97500000D01*
X68151666Y-97547619D01*
X68246904Y-97690476D01*
X68294523Y-97880952D01*
X68294523Y-98261904D01*
X68246904Y-98357142D01*
X68199285Y-98404761D01*
X68104047Y-98452380D01*
X67913571Y-98452380D01*
X67818333Y-98404761D01*
X67770714Y-98357142D01*
X67723095Y-98261904D01*
X67723095Y-98023809D01*
X67770714Y-97928571D01*
X67818333Y-97880952D01*
X67913571Y-97833333D01*
X68104047Y-97833333D01*
X68199285Y-97880952D01*
X68246904Y-97928571D01*
X68294523Y-98023809D01*
%TO.C,R15*%
X40627857Y-44632380D02*
X40961190Y-44156190D01*
X41199285Y-44632380D02*
X41199285Y-43632380D01*
X40818333Y-43632380D01*
X40723095Y-43680000D01*
X40675476Y-43727619D01*
X40627857Y-43822857D01*
X40627857Y-43965714D01*
X40675476Y-44060952D01*
X40723095Y-44108571D01*
X40818333Y-44156190D01*
X41199285Y-44156190D01*
X39675476Y-44632380D02*
X40246904Y-44632380D01*
X39961190Y-44632380D02*
X39961190Y-43632380D01*
X40056428Y-43775238D01*
X40151666Y-43870476D01*
X40246904Y-43918095D01*
X38770714Y-43632380D02*
X39246904Y-43632380D01*
X39294523Y-44108571D01*
X39246904Y-44060952D01*
X39151666Y-44013333D01*
X38913571Y-44013333D01*
X38818333Y-44060952D01*
X38770714Y-44108571D01*
X38723095Y-44203809D01*
X38723095Y-44441904D01*
X38770714Y-44537142D01*
X38818333Y-44584761D01*
X38913571Y-44632380D01*
X39151666Y-44632380D01*
X39246904Y-44584761D01*
X39294523Y-44537142D01*
%TO.C,R14*%
X40627857Y-48632380D02*
X40961190Y-48156190D01*
X41199285Y-48632380D02*
X41199285Y-47632380D01*
X40818333Y-47632380D01*
X40723095Y-47680000D01*
X40675476Y-47727619D01*
X40627857Y-47822857D01*
X40627857Y-47965714D01*
X40675476Y-48060952D01*
X40723095Y-48108571D01*
X40818333Y-48156190D01*
X41199285Y-48156190D01*
X39675476Y-48632380D02*
X40246904Y-48632380D01*
X39961190Y-48632380D02*
X39961190Y-47632380D01*
X40056428Y-47775238D01*
X40151666Y-47870476D01*
X40246904Y-47918095D01*
X38818333Y-47965714D02*
X38818333Y-48632380D01*
X39056428Y-47584761D02*
X39294523Y-48299047D01*
X38675476Y-48299047D01*
%TO.C,R13*%
X40627857Y-98632380D02*
X40961190Y-98156190D01*
X41199285Y-98632380D02*
X41199285Y-97632380D01*
X40818333Y-97632380D01*
X40723095Y-97680000D01*
X40675476Y-97727619D01*
X40627857Y-97822857D01*
X40627857Y-97965714D01*
X40675476Y-98060952D01*
X40723095Y-98108571D01*
X40818333Y-98156190D01*
X41199285Y-98156190D01*
X39675476Y-98632380D02*
X40246904Y-98632380D01*
X39961190Y-98632380D02*
X39961190Y-97632380D01*
X40056428Y-97775238D01*
X40151666Y-97870476D01*
X40246904Y-97918095D01*
X39342142Y-97632380D02*
X38723095Y-97632380D01*
X39056428Y-98013333D01*
X38913571Y-98013333D01*
X38818333Y-98060952D01*
X38770714Y-98108571D01*
X38723095Y-98203809D01*
X38723095Y-98441904D01*
X38770714Y-98537142D01*
X38818333Y-98584761D01*
X38913571Y-98632380D01*
X39199285Y-98632380D01*
X39294523Y-98584761D01*
X39342142Y-98537142D01*
%TO.C,R12*%
X40627857Y-52632380D02*
X40961190Y-52156190D01*
X41199285Y-52632380D02*
X41199285Y-51632380D01*
X40818333Y-51632380D01*
X40723095Y-51680000D01*
X40675476Y-51727619D01*
X40627857Y-51822857D01*
X40627857Y-51965714D01*
X40675476Y-52060952D01*
X40723095Y-52108571D01*
X40818333Y-52156190D01*
X41199285Y-52156190D01*
X39675476Y-52632380D02*
X40246904Y-52632380D01*
X39961190Y-52632380D02*
X39961190Y-51632380D01*
X40056428Y-51775238D01*
X40151666Y-51870476D01*
X40246904Y-51918095D01*
X39294523Y-51727619D02*
X39246904Y-51680000D01*
X39151666Y-51632380D01*
X38913571Y-51632380D01*
X38818333Y-51680000D01*
X38770714Y-51727619D01*
X38723095Y-51822857D01*
X38723095Y-51918095D01*
X38770714Y-52060952D01*
X39342142Y-52632380D01*
X38723095Y-52632380D01*
%TO.C,R11*%
X40627857Y-94632380D02*
X40961190Y-94156190D01*
X41199285Y-94632380D02*
X41199285Y-93632380D01*
X40818333Y-93632380D01*
X40723095Y-93680000D01*
X40675476Y-93727619D01*
X40627857Y-93822857D01*
X40627857Y-93965714D01*
X40675476Y-94060952D01*
X40723095Y-94108571D01*
X40818333Y-94156190D01*
X41199285Y-94156190D01*
X39675476Y-94632380D02*
X40246904Y-94632380D01*
X39961190Y-94632380D02*
X39961190Y-93632380D01*
X40056428Y-93775238D01*
X40151666Y-93870476D01*
X40246904Y-93918095D01*
X38723095Y-94632380D02*
X39294523Y-94632380D01*
X39008809Y-94632380D02*
X39008809Y-93632380D01*
X39104047Y-93775238D01*
X39199285Y-93870476D01*
X39294523Y-93918095D01*
%TO.C,R10*%
X40627857Y-90632380D02*
X40961190Y-90156190D01*
X41199285Y-90632380D02*
X41199285Y-89632380D01*
X40818333Y-89632380D01*
X40723095Y-89680000D01*
X40675476Y-89727619D01*
X40627857Y-89822857D01*
X40627857Y-89965714D01*
X40675476Y-90060952D01*
X40723095Y-90108571D01*
X40818333Y-90156190D01*
X41199285Y-90156190D01*
X39675476Y-90632380D02*
X40246904Y-90632380D01*
X39961190Y-90632380D02*
X39961190Y-89632380D01*
X40056428Y-89775238D01*
X40151666Y-89870476D01*
X40246904Y-89918095D01*
X39056428Y-89632380D02*
X38961190Y-89632380D01*
X38865952Y-89680000D01*
X38818333Y-89727619D01*
X38770714Y-89822857D01*
X38723095Y-90013333D01*
X38723095Y-90251428D01*
X38770714Y-90441904D01*
X38818333Y-90537142D01*
X38865952Y-90584761D01*
X38961190Y-90632380D01*
X39056428Y-90632380D01*
X39151666Y-90584761D01*
X39199285Y-90537142D01*
X39246904Y-90441904D01*
X39294523Y-90251428D01*
X39294523Y-90013333D01*
X39246904Y-89822857D01*
X39199285Y-89727619D01*
X39151666Y-89680000D01*
X39056428Y-89632380D01*
%TO.C,R9*%
X40151666Y-32632380D02*
X40485000Y-32156190D01*
X40723095Y-32632380D02*
X40723095Y-31632380D01*
X40342142Y-31632380D01*
X40246904Y-31680000D01*
X40199285Y-31727619D01*
X40151666Y-31822857D01*
X40151666Y-31965714D01*
X40199285Y-32060952D01*
X40246904Y-32108571D01*
X40342142Y-32156190D01*
X40723095Y-32156190D01*
X39675476Y-32632380D02*
X39485000Y-32632380D01*
X39389761Y-32584761D01*
X39342142Y-32537142D01*
X39246904Y-32394285D01*
X39199285Y-32203809D01*
X39199285Y-31822857D01*
X39246904Y-31727619D01*
X39294523Y-31680000D01*
X39389761Y-31632380D01*
X39580238Y-31632380D01*
X39675476Y-31680000D01*
X39723095Y-31727619D01*
X39770714Y-31822857D01*
X39770714Y-32060952D01*
X39723095Y-32156190D01*
X39675476Y-32203809D01*
X39580238Y-32251428D01*
X39389761Y-32251428D01*
X39294523Y-32203809D01*
X39246904Y-32156190D01*
X39199285Y-32060952D01*
%TO.C,R8*%
X40151666Y-36632380D02*
X40485000Y-36156190D01*
X40723095Y-36632380D02*
X40723095Y-35632380D01*
X40342142Y-35632380D01*
X40246904Y-35680000D01*
X40199285Y-35727619D01*
X40151666Y-35822857D01*
X40151666Y-35965714D01*
X40199285Y-36060952D01*
X40246904Y-36108571D01*
X40342142Y-36156190D01*
X40723095Y-36156190D01*
X39580238Y-36060952D02*
X39675476Y-36013333D01*
X39723095Y-35965714D01*
X39770714Y-35870476D01*
X39770714Y-35822857D01*
X39723095Y-35727619D01*
X39675476Y-35680000D01*
X39580238Y-35632380D01*
X39389761Y-35632380D01*
X39294523Y-35680000D01*
X39246904Y-35727619D01*
X39199285Y-35822857D01*
X39199285Y-35870476D01*
X39246904Y-35965714D01*
X39294523Y-36013333D01*
X39389761Y-36060952D01*
X39580238Y-36060952D01*
X39675476Y-36108571D01*
X39723095Y-36156190D01*
X39770714Y-36251428D01*
X39770714Y-36441904D01*
X39723095Y-36537142D01*
X39675476Y-36584761D01*
X39580238Y-36632380D01*
X39389761Y-36632380D01*
X39294523Y-36584761D01*
X39246904Y-36537142D01*
X39199285Y-36441904D01*
X39199285Y-36251428D01*
X39246904Y-36156190D01*
X39294523Y-36108571D01*
X39389761Y-36060952D01*
%TO.C,R7*%
X40151666Y-86632380D02*
X40485000Y-86156190D01*
X40723095Y-86632380D02*
X40723095Y-85632380D01*
X40342142Y-85632380D01*
X40246904Y-85680000D01*
X40199285Y-85727619D01*
X40151666Y-85822857D01*
X40151666Y-85965714D01*
X40199285Y-86060952D01*
X40246904Y-86108571D01*
X40342142Y-86156190D01*
X40723095Y-86156190D01*
X39818333Y-85632380D02*
X39151666Y-85632380D01*
X39580238Y-86632380D01*
%TO.C,R6*%
X40151666Y-40632380D02*
X40485000Y-40156190D01*
X40723095Y-40632380D02*
X40723095Y-39632380D01*
X40342142Y-39632380D01*
X40246904Y-39680000D01*
X40199285Y-39727619D01*
X40151666Y-39822857D01*
X40151666Y-39965714D01*
X40199285Y-40060952D01*
X40246904Y-40108571D01*
X40342142Y-40156190D01*
X40723095Y-40156190D01*
X39294523Y-39632380D02*
X39485000Y-39632380D01*
X39580238Y-39680000D01*
X39627857Y-39727619D01*
X39723095Y-39870476D01*
X39770714Y-40060952D01*
X39770714Y-40441904D01*
X39723095Y-40537142D01*
X39675476Y-40584761D01*
X39580238Y-40632380D01*
X39389761Y-40632380D01*
X39294523Y-40584761D01*
X39246904Y-40537142D01*
X39199285Y-40441904D01*
X39199285Y-40203809D01*
X39246904Y-40108571D01*
X39294523Y-40060952D01*
X39389761Y-40013333D01*
X39580238Y-40013333D01*
X39675476Y-40060952D01*
X39723095Y-40108571D01*
X39770714Y-40203809D01*
%TO.C,R5*%
X40151666Y-82632380D02*
X40485000Y-82156190D01*
X40723095Y-82632380D02*
X40723095Y-81632380D01*
X40342142Y-81632380D01*
X40246904Y-81680000D01*
X40199285Y-81727619D01*
X40151666Y-81822857D01*
X40151666Y-81965714D01*
X40199285Y-82060952D01*
X40246904Y-82108571D01*
X40342142Y-82156190D01*
X40723095Y-82156190D01*
X39246904Y-81632380D02*
X39723095Y-81632380D01*
X39770714Y-82108571D01*
X39723095Y-82060952D01*
X39627857Y-82013333D01*
X39389761Y-82013333D01*
X39294523Y-82060952D01*
X39246904Y-82108571D01*
X39199285Y-82203809D01*
X39199285Y-82441904D01*
X39246904Y-82537142D01*
X39294523Y-82584761D01*
X39389761Y-82632380D01*
X39627857Y-82632380D01*
X39723095Y-82584761D01*
X39770714Y-82537142D01*
%TO.C,R4*%
X40151666Y-78632380D02*
X40485000Y-78156190D01*
X40723095Y-78632380D02*
X40723095Y-77632380D01*
X40342142Y-77632380D01*
X40246904Y-77680000D01*
X40199285Y-77727619D01*
X40151666Y-77822857D01*
X40151666Y-77965714D01*
X40199285Y-78060952D01*
X40246904Y-78108571D01*
X40342142Y-78156190D01*
X40723095Y-78156190D01*
X39294523Y-77965714D02*
X39294523Y-78632380D01*
X39532619Y-77584761D02*
X39770714Y-78299047D01*
X39151666Y-78299047D01*
%TO.C,LED8*%
D14*
X62954190Y-84574523D02*
X63558952Y-84574523D01*
X63558952Y-83304523D01*
X62530857Y-83909285D02*
X62107523Y-83909285D01*
X61926095Y-84574523D02*
X62530857Y-84574523D01*
X62530857Y-83304523D01*
X61926095Y-83304523D01*
X61381809Y-84574523D02*
X61381809Y-83304523D01*
X61079428Y-83304523D01*
X60898000Y-83365000D01*
X60777047Y-83485952D01*
X60716571Y-83606904D01*
X60656095Y-83848809D01*
X60656095Y-84030238D01*
X60716571Y-84272142D01*
X60777047Y-84393095D01*
X60898000Y-84514047D01*
X61079428Y-84574523D01*
X61381809Y-84574523D01*
X59930380Y-83848809D02*
X60051333Y-83788333D01*
X60111809Y-83727857D01*
X60172285Y-83606904D01*
X60172285Y-83546428D01*
X60111809Y-83425476D01*
X60051333Y-83365000D01*
X59930380Y-83304523D01*
X59688476Y-83304523D01*
X59567523Y-83365000D01*
X59507047Y-83425476D01*
X59446571Y-83546428D01*
X59446571Y-83606904D01*
X59507047Y-83727857D01*
X59567523Y-83788333D01*
X59688476Y-83848809D01*
X59930380Y-83848809D01*
X60051333Y-83909285D01*
X60111809Y-83969761D01*
X60172285Y-84090714D01*
X60172285Y-84332619D01*
X60111809Y-84453571D01*
X60051333Y-84514047D01*
X59930380Y-84574523D01*
X59688476Y-84574523D01*
X59567523Y-84514047D01*
X59507047Y-84453571D01*
X59446571Y-84332619D01*
X59446571Y-84090714D01*
X59507047Y-83969761D01*
X59567523Y-83909285D01*
X59688476Y-83848809D01*
%TO.C,LED7*%
X62954190Y-50574523D02*
X63558952Y-50574523D01*
X63558952Y-49304523D01*
X62530857Y-49909285D02*
X62107523Y-49909285D01*
X61926095Y-50574523D02*
X62530857Y-50574523D01*
X62530857Y-49304523D01*
X61926095Y-49304523D01*
X61381809Y-50574523D02*
X61381809Y-49304523D01*
X61079428Y-49304523D01*
X60898000Y-49365000D01*
X60777047Y-49485952D01*
X60716571Y-49606904D01*
X60656095Y-49848809D01*
X60656095Y-50030238D01*
X60716571Y-50272142D01*
X60777047Y-50393095D01*
X60898000Y-50514047D01*
X61079428Y-50574523D01*
X61381809Y-50574523D01*
X60232761Y-49304523D02*
X59386095Y-49304523D01*
X59930380Y-50574523D01*
%TO.C,LED6*%
X62954190Y-96574523D02*
X63558952Y-96574523D01*
X63558952Y-95304523D01*
X62530857Y-95909285D02*
X62107523Y-95909285D01*
X61926095Y-96574523D02*
X62530857Y-96574523D01*
X62530857Y-95304523D01*
X61926095Y-95304523D01*
X61381809Y-96574523D02*
X61381809Y-95304523D01*
X61079428Y-95304523D01*
X60898000Y-95365000D01*
X60777047Y-95485952D01*
X60716571Y-95606904D01*
X60656095Y-95848809D01*
X60656095Y-96030238D01*
X60716571Y-96272142D01*
X60777047Y-96393095D01*
X60898000Y-96514047D01*
X61079428Y-96574523D01*
X61381809Y-96574523D01*
X59567523Y-95304523D02*
X59809428Y-95304523D01*
X59930380Y-95365000D01*
X59990857Y-95425476D01*
X60111809Y-95606904D01*
X60172285Y-95848809D01*
X60172285Y-96332619D01*
X60111809Y-96453571D01*
X60051333Y-96514047D01*
X59930380Y-96574523D01*
X59688476Y-96574523D01*
X59567523Y-96514047D01*
X59507047Y-96453571D01*
X59446571Y-96332619D01*
X59446571Y-96030238D01*
X59507047Y-95909285D01*
X59567523Y-95848809D01*
X59688476Y-95788333D01*
X59930380Y-95788333D01*
X60051333Y-95848809D01*
X60111809Y-95909285D01*
X60172285Y-96030238D01*
%TO.C,LED5*%
X62954190Y-38574523D02*
X63558952Y-38574523D01*
X63558952Y-37304523D01*
X62530857Y-37909285D02*
X62107523Y-37909285D01*
X61926095Y-38574523D02*
X62530857Y-38574523D01*
X62530857Y-37304523D01*
X61926095Y-37304523D01*
X61381809Y-38574523D02*
X61381809Y-37304523D01*
X61079428Y-37304523D01*
X60898000Y-37365000D01*
X60777047Y-37485952D01*
X60716571Y-37606904D01*
X60656095Y-37848809D01*
X60656095Y-38030238D01*
X60716571Y-38272142D01*
X60777047Y-38393095D01*
X60898000Y-38514047D01*
X61079428Y-38574523D01*
X61381809Y-38574523D01*
X59507047Y-37304523D02*
X60111809Y-37304523D01*
X60172285Y-37909285D01*
X60111809Y-37848809D01*
X59990857Y-37788333D01*
X59688476Y-37788333D01*
X59567523Y-37848809D01*
X59507047Y-37909285D01*
X59446571Y-38030238D01*
X59446571Y-38332619D01*
X59507047Y-38453571D01*
X59567523Y-38514047D01*
X59688476Y-38574523D01*
X59990857Y-38574523D01*
X60111809Y-38514047D01*
X60172285Y-38453571D01*
%TO.C,LED4*%
X48858190Y-96574523D02*
X49462952Y-96574523D01*
X49462952Y-95304523D01*
X48434857Y-95909285D02*
X48011523Y-95909285D01*
X47830095Y-96574523D02*
X48434857Y-96574523D01*
X48434857Y-95304523D01*
X47830095Y-95304523D01*
X47285809Y-96574523D02*
X47285809Y-95304523D01*
X46983428Y-95304523D01*
X46802000Y-95365000D01*
X46681047Y-95485952D01*
X46620571Y-95606904D01*
X46560095Y-95848809D01*
X46560095Y-96030238D01*
X46620571Y-96272142D01*
X46681047Y-96393095D01*
X46802000Y-96514047D01*
X46983428Y-96574523D01*
X47285809Y-96574523D01*
X45471523Y-95727857D02*
X45471523Y-96574523D01*
X45773904Y-95244047D02*
X46076285Y-96151190D01*
X45290095Y-96151190D01*
%TO.C,LED3*%
X48858190Y-50574523D02*
X49462952Y-50574523D01*
X49462952Y-49304523D01*
X48434857Y-49909285D02*
X48011523Y-49909285D01*
X47830095Y-50574523D02*
X48434857Y-50574523D01*
X48434857Y-49304523D01*
X47830095Y-49304523D01*
X47285809Y-50574523D02*
X47285809Y-49304523D01*
X46983428Y-49304523D01*
X46802000Y-49365000D01*
X46681047Y-49485952D01*
X46620571Y-49606904D01*
X46560095Y-49848809D01*
X46560095Y-50030238D01*
X46620571Y-50272142D01*
X46681047Y-50393095D01*
X46802000Y-50514047D01*
X46983428Y-50574523D01*
X47285809Y-50574523D01*
X46136761Y-49304523D02*
X45350571Y-49304523D01*
X45773904Y-49788333D01*
X45592476Y-49788333D01*
X45471523Y-49848809D01*
X45411047Y-49909285D01*
X45350571Y-50030238D01*
X45350571Y-50332619D01*
X45411047Y-50453571D01*
X45471523Y-50514047D01*
X45592476Y-50574523D01*
X45955333Y-50574523D01*
X46076285Y-50514047D01*
X46136761Y-50453571D01*
%TO.C,LED2*%
X48858190Y-84574523D02*
X49462952Y-84574523D01*
X49462952Y-83304523D01*
X48434857Y-83909285D02*
X48011523Y-83909285D01*
X47830095Y-84574523D02*
X48434857Y-84574523D01*
X48434857Y-83304523D01*
X47830095Y-83304523D01*
X47285809Y-84574523D02*
X47285809Y-83304523D01*
X46983428Y-83304523D01*
X46802000Y-83365000D01*
X46681047Y-83485952D01*
X46620571Y-83606904D01*
X46560095Y-83848809D01*
X46560095Y-84030238D01*
X46620571Y-84272142D01*
X46681047Y-84393095D01*
X46802000Y-84514047D01*
X46983428Y-84574523D01*
X47285809Y-84574523D01*
X46076285Y-83425476D02*
X46015809Y-83365000D01*
X45894857Y-83304523D01*
X45592476Y-83304523D01*
X45471523Y-83365000D01*
X45411047Y-83425476D01*
X45350571Y-83546428D01*
X45350571Y-83667380D01*
X45411047Y-83848809D01*
X46136761Y-84574523D01*
X45350571Y-84574523D01*
%TO.C,LED1*%
X48858190Y-38574523D02*
X49462952Y-38574523D01*
X49462952Y-37304523D01*
X48434857Y-37909285D02*
X48011523Y-37909285D01*
X47830095Y-38574523D02*
X48434857Y-38574523D01*
X48434857Y-37304523D01*
X47830095Y-37304523D01*
X47285809Y-38574523D02*
X47285809Y-37304523D01*
X46983428Y-37304523D01*
X46802000Y-37365000D01*
X46681047Y-37485952D01*
X46620571Y-37606904D01*
X46560095Y-37848809D01*
X46560095Y-38030238D01*
X46620571Y-38272142D01*
X46681047Y-38393095D01*
X46802000Y-38514047D01*
X46983428Y-38574523D01*
X47285809Y-38574523D01*
X45350571Y-38574523D02*
X46076285Y-38574523D01*
X45713428Y-38574523D02*
X45713428Y-37304523D01*
X45834380Y-37485952D01*
X45955333Y-37606904D01*
X46076285Y-37667380D01*
%TO.C,IC1*%
X53910476Y-68239761D02*
X55180476Y-68239761D01*
X54031428Y-66909285D02*
X53970952Y-66969761D01*
X53910476Y-67151190D01*
X53910476Y-67272142D01*
X53970952Y-67453571D01*
X54091904Y-67574523D01*
X54212857Y-67635000D01*
X54454761Y-67695476D01*
X54636190Y-67695476D01*
X54878095Y-67635000D01*
X54999047Y-67574523D01*
X55120000Y-67453571D01*
X55180476Y-67272142D01*
X55180476Y-67151190D01*
X55120000Y-66969761D01*
X55059523Y-66909285D01*
X53910476Y-65699761D02*
X53910476Y-66425476D01*
X53910476Y-66062619D02*
X55180476Y-66062619D01*
X54999047Y-66183571D01*
X54878095Y-66304523D01*
X54817619Y-66425476D01*
%TO.C,ADC1*%
D13*
X127444285Y-41846666D02*
X126968095Y-41846666D01*
X127539523Y-42132380D02*
X127206190Y-41132380D01*
X126872857Y-42132380D01*
X126539523Y-42132380D02*
X126539523Y-41132380D01*
X126301428Y-41132380D01*
X126158571Y-41180000D01*
X126063333Y-41275238D01*
X126015714Y-41370476D01*
X125968095Y-41560952D01*
X125968095Y-41703809D01*
X126015714Y-41894285D01*
X126063333Y-41989523D01*
X126158571Y-42084761D01*
X126301428Y-42132380D01*
X126539523Y-42132380D01*
X124968095Y-42037142D02*
X125015714Y-42084761D01*
X125158571Y-42132380D01*
X125253809Y-42132380D01*
X125396666Y-42084761D01*
X125491904Y-41989523D01*
X125539523Y-41894285D01*
X125587142Y-41703809D01*
X125587142Y-41560952D01*
X125539523Y-41370476D01*
X125491904Y-41275238D01*
X125396666Y-41180000D01*
X125253809Y-41132380D01*
X125158571Y-41132380D01*
X125015714Y-41180000D01*
X124968095Y-41227619D01*
X124015714Y-42132380D02*
X124587142Y-42132380D01*
X124301428Y-42132380D02*
X124301428Y-41132380D01*
X124396666Y-41275238D01*
X124491904Y-41370476D01*
X124587142Y-41418095D01*
%TO.C,BME1*%
X122713571Y-91698571D02*
X122570714Y-91746190D01*
X122523095Y-91793809D01*
X122475476Y-91889047D01*
X122475476Y-92031904D01*
X122523095Y-92127142D01*
X122570714Y-92174761D01*
X122665952Y-92222380D01*
X123046904Y-92222380D01*
X123046904Y-91222380D01*
X122713571Y-91222380D01*
X122618333Y-91270000D01*
X122570714Y-91317619D01*
X122523095Y-91412857D01*
X122523095Y-91508095D01*
X122570714Y-91603333D01*
X122618333Y-91650952D01*
X122713571Y-91698571D01*
X123046904Y-91698571D01*
X122046904Y-92222380D02*
X122046904Y-91222380D01*
X121713571Y-91936666D01*
X121380238Y-91222380D01*
X121380238Y-92222380D01*
X120904047Y-91698571D02*
X120570714Y-91698571D01*
X120427857Y-92222380D02*
X120904047Y-92222380D01*
X120904047Y-91222380D01*
X120427857Y-91222380D01*
X119475476Y-92222380D02*
X120046904Y-92222380D01*
X119761190Y-92222380D02*
X119761190Y-91222380D01*
X119856428Y-91365238D01*
X119951666Y-91460476D01*
X120046904Y-91508095D01*
%TO.C,J1*%
X85682380Y-68396666D02*
X86396666Y-68396666D01*
X86539523Y-68349047D01*
X86634761Y-68253809D01*
X86682380Y-68110952D01*
X86682380Y-68015714D01*
X86682380Y-69396666D02*
X86682380Y-68825238D01*
X86682380Y-69110952D02*
X85682380Y-69110952D01*
X85825238Y-69015714D01*
X85920476Y-68920476D01*
X85968095Y-68825238D01*
%TO.C,LCD_SPI1*%
X96741904Y-43632380D02*
X97218095Y-43632380D01*
X97218095Y-42632380D01*
X95837142Y-43537142D02*
X95884761Y-43584761D01*
X96027619Y-43632380D01*
X96122857Y-43632380D01*
X96265714Y-43584761D01*
X96360952Y-43489523D01*
X96408571Y-43394285D01*
X96456190Y-43203809D01*
X96456190Y-43060952D01*
X96408571Y-42870476D01*
X96360952Y-42775238D01*
X96265714Y-42680000D01*
X96122857Y-42632380D01*
X96027619Y-42632380D01*
X95884761Y-42680000D01*
X95837142Y-42727619D01*
X95408571Y-43632380D02*
X95408571Y-42632380D01*
X95170476Y-42632380D01*
X95027619Y-42680000D01*
X94932380Y-42775238D01*
X94884761Y-42870476D01*
X94837142Y-43060952D01*
X94837142Y-43203809D01*
X94884761Y-43394285D01*
X94932380Y-43489523D01*
X95027619Y-43584761D01*
X95170476Y-43632380D01*
X95408571Y-43632380D01*
X94646666Y-43727619D02*
X93884761Y-43727619D01*
X93694285Y-43584761D02*
X93551428Y-43632380D01*
X93313333Y-43632380D01*
X93218095Y-43584761D01*
X93170476Y-43537142D01*
X93122857Y-43441904D01*
X93122857Y-43346666D01*
X93170476Y-43251428D01*
X93218095Y-43203809D01*
X93313333Y-43156190D01*
X93503809Y-43108571D01*
X93599047Y-43060952D01*
X93646666Y-43013333D01*
X93694285Y-42918095D01*
X93694285Y-42822857D01*
X93646666Y-42727619D01*
X93599047Y-42680000D01*
X93503809Y-42632380D01*
X93265714Y-42632380D01*
X93122857Y-42680000D01*
X92694285Y-43632380D02*
X92694285Y-42632380D01*
X92313333Y-42632380D01*
X92218095Y-42680000D01*
X92170476Y-42727619D01*
X92122857Y-42822857D01*
X92122857Y-42965714D01*
X92170476Y-43060952D01*
X92218095Y-43108571D01*
X92313333Y-43156190D01*
X92694285Y-43156190D01*
X91694285Y-43632380D02*
X91694285Y-42632380D01*
X90694285Y-43632380D02*
X91265714Y-43632380D01*
X90980000Y-43632380D02*
X90980000Y-42632380D01*
X91075238Y-42775238D01*
X91170476Y-42870476D01*
X91265714Y-42918095D01*
%TO.C,MOIST1*%
X93428571Y-86992380D02*
X93428571Y-85992380D01*
X93095238Y-86706666D01*
X92761904Y-85992380D01*
X92761904Y-86992380D01*
X92095238Y-85992380D02*
X91904761Y-85992380D01*
X91809523Y-86040000D01*
X91714285Y-86135238D01*
X91666666Y-86325714D01*
X91666666Y-86659047D01*
X91714285Y-86849523D01*
X91809523Y-86944761D01*
X91904761Y-86992380D01*
X92095238Y-86992380D01*
X92190476Y-86944761D01*
X92285714Y-86849523D01*
X92333333Y-86659047D01*
X92333333Y-86325714D01*
X92285714Y-86135238D01*
X92190476Y-86040000D01*
X92095238Y-85992380D01*
X91238095Y-86992380D02*
X91238095Y-85992380D01*
X90809523Y-86944761D02*
X90666666Y-86992380D01*
X90428571Y-86992380D01*
X90333333Y-86944761D01*
X90285714Y-86897142D01*
X90238095Y-86801904D01*
X90238095Y-86706666D01*
X90285714Y-86611428D01*
X90333333Y-86563809D01*
X90428571Y-86516190D01*
X90619047Y-86468571D01*
X90714285Y-86420952D01*
X90761904Y-86373333D01*
X90809523Y-86278095D01*
X90809523Y-86182857D01*
X90761904Y-86087619D01*
X90714285Y-86040000D01*
X90619047Y-85992380D01*
X90380952Y-85992380D01*
X90238095Y-86040000D01*
X89952380Y-85992380D02*
X89380952Y-85992380D01*
X89666666Y-86992380D02*
X89666666Y-85992380D01*
X88523809Y-86992380D02*
X89095238Y-86992380D01*
X88809523Y-86992380D02*
X88809523Y-85992380D01*
X88904761Y-86135238D01*
X89000000Y-86230476D01*
X89095238Y-86278095D01*
%TO.C,PHOTO1*%
X99690476Y-86992380D02*
X99690476Y-85992380D01*
X99309523Y-85992380D01*
X99214285Y-86040000D01*
X99166666Y-86087619D01*
X99119047Y-86182857D01*
X99119047Y-86325714D01*
X99166666Y-86420952D01*
X99214285Y-86468571D01*
X99309523Y-86516190D01*
X99690476Y-86516190D01*
X98690476Y-86992380D02*
X98690476Y-85992380D01*
X98690476Y-86468571D02*
X98119047Y-86468571D01*
X98119047Y-86992380D02*
X98119047Y-85992380D01*
X97452380Y-85992380D02*
X97261904Y-85992380D01*
X97166666Y-86040000D01*
X97071428Y-86135238D01*
X97023809Y-86325714D01*
X97023809Y-86659047D01*
X97071428Y-86849523D01*
X97166666Y-86944761D01*
X97261904Y-86992380D01*
X97452380Y-86992380D01*
X97547619Y-86944761D01*
X97642857Y-86849523D01*
X97690476Y-86659047D01*
X97690476Y-86325714D01*
X97642857Y-86135238D01*
X97547619Y-86040000D01*
X97452380Y-85992380D01*
X96738095Y-85992380D02*
X96166666Y-85992380D01*
X96452380Y-86992380D02*
X96452380Y-85992380D01*
X95642857Y-85992380D02*
X95452380Y-85992380D01*
X95357142Y-86040000D01*
X95261904Y-86135238D01*
X95214285Y-86325714D01*
X95214285Y-86659047D01*
X95261904Y-86849523D01*
X95357142Y-86944761D01*
X95452380Y-86992380D01*
X95642857Y-86992380D01*
X95738095Y-86944761D01*
X95833333Y-86849523D01*
X95880952Y-86659047D01*
X95880952Y-86325714D01*
X95833333Y-86135238D01*
X95738095Y-86040000D01*
X95642857Y-85992380D01*
X94261904Y-86992380D02*
X94833333Y-86992380D01*
X94547619Y-86992380D02*
X94547619Y-85992380D01*
X94642857Y-86135238D01*
X94738095Y-86230476D01*
X94833333Y-86278095D01*
%TD*%
M02*
