M48
; DRILL file {KiCad 5.1.6} date Thu Jun 18 23:17:17 2020
; FORMAT={-:-/ absolute / inch / decimal}
; #@! TF.CreationDate,2020-06-18T23:17:17-07:00
; #@! TF.GenerationSoftware,Kicad,Pcbnew,5.1.6
; #@! TF.FileFunction,Plated,1,2,PTH
FMAT,2
INCH
T1C0.0157
T2C0.0350
T3C0.0394
%
G90
G05
T1
X2.1746Y-2.6083
X2.375Y-2.825
X4.3Y-2.1
X4.35Y-2.65
X4.35Y-2.775
X4.55Y-2.65
T2
X3.2516Y-1.9108
X3.2516Y-2.0108
X3.2516Y-2.1108
X3.2516Y-2.2108
X3.2516Y-2.3108
X3.2516Y-2.4108
X3.2516Y-2.5108
X3.2516Y-2.6108
X3.2516Y-2.7108
X3.2516Y-2.8108
X3.2516Y-2.9108
X3.2516Y-3.0108
X3.2516Y-3.1108
X3.2516Y-3.2108
X3.2516Y-3.3108
X4.1516Y-1.9108
X4.1516Y-2.0108
X4.1516Y-2.1108
X4.1516Y-2.2108
X4.1516Y-2.3108
X4.1516Y-2.4108
X4.1516Y-2.5108
X4.1516Y-2.6108
X4.1516Y-2.7108
X4.1516Y-2.8108
X4.1516Y-2.9108
X4.1516Y-3.0108
X4.1516Y-3.1108
X4.1516Y-3.2108
X4.1516Y-3.3108
T3
X3.5039Y-2.6559
X3.5039Y-2.7559
X3.6039Y-2.6559
X3.6039Y-2.7559
X3.7039Y-2.6559
X3.7039Y-2.7559
X3.8039Y-2.6559
X3.8039Y-2.7559
X3.9039Y-2.6559
X3.9039Y-2.7559
X4.775Y-3.0039
X4.775Y-3.1039
X4.775Y-3.2039
X4.775Y-3.3039
X4.775Y-3.4039
X4.775Y-3.5039
X3.6614Y-4.0551
X3.7598Y-4.0551
X3.4Y-1.6
X3.5Y-1.6
X3.6Y-1.6
X3.7Y-1.6
X3.8Y-1.6
X3.9Y-1.6
X4.0Y-1.6
X3.5827Y-3.1071
X3.5827Y-3.2071
X3.5827Y-3.3071
X3.8189Y-3.2071
X3.8189Y-3.3071
X2.575Y-2.55
X2.575Y-2.6484
X2.575Y-2.7469
X4.95Y-1.75
X4.95Y-1.85
X4.95Y-1.95
X4.95Y-2.05
X4.95Y-2.15
X4.95Y-2.25
X4.95Y-2.35
X4.95Y-2.45
X4.95Y-2.55
X4.95Y-2.65
T0
M30
