%TF.GenerationSoftware,KiCad,Pcbnew,5.1.6*%
%TF.CreationDate,2020-06-18T23:16:12-07:00*%
%TF.ProjectId,draft,64726166-742e-46b6-9963-61645f706362,rev?*%
%TF.SameCoordinates,Original*%
%TF.FileFunction,Copper,L1,Top*%
%TF.FilePolarity,Positive*%
%FSLAX46Y46*%
G04 Gerber Fmt 4.6, Leading zero omitted, Abs format (unit mm)*
G04 Created by KiCad (PCBNEW 5.1.6) date 2020-06-18 23:16:12*
%MOMM*%
%LPD*%
G01*
G04 APERTURE LIST*
%TA.AperFunction,ComponentPad*%
%ADD10R,1.930000X1.930000*%
%TD*%
%TA.AperFunction,ComponentPad*%
%ADD11C,1.930000*%
%TD*%
%TA.AperFunction,ComponentPad*%
%ADD12O,1.700000X2.000000*%
%TD*%
%TA.AperFunction,WasherPad*%
%ADD13C,4.000000*%
%TD*%
%TA.AperFunction,ComponentPad*%
%ADD14C,1.800000*%
%TD*%
%TA.AperFunction,ComponentPad*%
%ADD15R,1.700000X1.700000*%
%TD*%
%TA.AperFunction,ComponentPad*%
%ADD16O,1.700000X1.700000*%
%TD*%
%TA.AperFunction,ViaPad*%
%ADD17C,0.800000*%
%TD*%
%TA.AperFunction,Conductor*%
%ADD18C,0.250000*%
%TD*%
%TA.AperFunction,Conductor*%
%ADD19C,0.200000*%
%TD*%
%TA.AperFunction,Conductor*%
%ADD20C,0.254000*%
%TD*%
G04 APERTURE END LIST*
D10*
%TO.P,U1,3V3*%
%TO.N,+3V3*%
X105450001Y-84095001D03*
D11*
%TO.P,U1,GND*%
%TO.N,GND*%
X105450001Y-81555001D03*
%TO.P,U1,D10*%
%TO.N,Net-(J1-Pad9)*%
X105450001Y-79015001D03*
%TO.P,U1,D9*%
%TO.N,Net-(J1-Pad10)*%
X105450001Y-76475001D03*
%TO.P,U1,D8*%
%TO.N,Net-(LCD_SPI1-Pad7)*%
X105450001Y-73935001D03*
%TO.P,U1,D7*%
%TO.N,Net-(LCD_SPI1-Pad4)*%
X105450001Y-71395001D03*
%TO.P,U1,D6*%
%TO.N,Net-(LCD_SPI1-Pad5)*%
X105450001Y-68855001D03*
%TO.P,U1,D5*%
%TO.N,Net-(LCD_SPI1-Pad3)*%
X105450001Y-66315001D03*
%TO.P,U1,GND*%
%TO.N,GND*%
X105450001Y-63775001D03*
%TO.P,U1,3V3*%
%TO.N,+3V3*%
X105450001Y-61235001D03*
%TO.P,U1,D4*%
%TO.N,Net-(LCD_SPI1-Pad6)*%
X105450001Y-58695001D03*
%TO.P,U1,D3*%
%TO.N,Net-(ADC1-Pad4)*%
X105450001Y-56155001D03*
%TO.P,U1,D2*%
%TO.N,Net-(ADC1-Pad6)*%
X105450001Y-53615001D03*
%TO.P,U1,D1*%
%TO.N,Net-(ADC1-Pad3)*%
X105450001Y-51075001D03*
%TO.P,U1,D0*%
%TO.N,Net-(IC1-Pad30)*%
X105450001Y-48535001D03*
D10*
%TO.P,U1,Vin*%
%TO.N,+5V*%
X82590001Y-84095001D03*
D11*
%TO.P,U1,GND*%
%TO.N,GND*%
X82590001Y-81555001D03*
%TO.P,U1,RST*%
%TO.N,Net-(U1-PadRST)*%
X82590001Y-79015001D03*
%TO.P,U1,EN*%
%TO.N,Net-(U1-PadEN)*%
X82590001Y-76475001D03*
%TO.P,U1,3V3*%
%TO.N,+3V3*%
X82590001Y-73935001D03*
%TO.P,U1,GND*%
%TO.N,GND*%
X82590001Y-71395001D03*
%TO.P,U1,CLK*%
%TO.N,Net-(U1-PadCLK)*%
X82590001Y-68855001D03*
%TO.P,U1,SD0*%
%TO.N,Net-(U1-PadSD0)*%
X82590001Y-66315001D03*
%TO.P,U1,CMD*%
%TO.N,Net-(U1-PadCMD)*%
X82590001Y-63775001D03*
%TO.P,U1,SD1*%
%TO.N,Net-(U1-PadSD1)*%
X82590001Y-61235001D03*
%TO.P,U1,SD2*%
%TO.N,Net-(J1-Pad2)*%
X82590001Y-58695001D03*
%TO.P,U1,SD3*%
%TO.N,Net-(J1-Pad4)*%
X82590001Y-56155001D03*
%TO.P,U1,RSV*%
%TO.N,Net-(U1-PadRSV)*%
X82590001Y-53615001D03*
X82590001Y-51075001D03*
%TO.P,U1,A0*%
%TO.N,Net-(J1-Pad6)*%
X82590001Y-48535001D03*
%TD*%
%TO.P,J2,1*%
%TO.N,+5V*%
%TA.AperFunction,ComponentPad*%
G36*
G01*
X92150000Y-103750000D02*
X92150000Y-102250000D01*
G75*
G02*
X92400000Y-102000000I250000J0D01*
G01*
X93600000Y-102000000D01*
G75*
G02*
X93850000Y-102250000I0J-250000D01*
G01*
X93850000Y-103750000D01*
G75*
G02*
X93600000Y-104000000I-250000J0D01*
G01*
X92400000Y-104000000D01*
G75*
G02*
X92150000Y-103750000I0J250000D01*
G01*
G37*
%TD.AperFunction*%
D12*
%TO.P,J2,2*%
%TO.N,GND*%
X95500000Y-103000000D03*
%TD*%
D13*
%TO.P,RV1,*%
%TO.N,*%
X72405000Y-62870000D03*
X72405000Y-71670000D03*
D14*
%TO.P,RV1,1*%
%TO.N,GND*%
X65405000Y-64770000D03*
%TO.P,RV1,2*%
%TO.N,Net-(IC1-Pad31)*%
X65405000Y-67270000D03*
%TO.P,RV1,3*%
%TO.N,+3V3*%
X65405000Y-69770000D03*
%TD*%
D15*
%TO.P,ADC1,1*%
%TO.N,+3V3*%
X125730000Y-44450000D03*
D16*
%TO.P,ADC1,2*%
%TO.N,GND*%
X125730000Y-46990000D03*
%TO.P,ADC1,3*%
%TO.N,Net-(ADC1-Pad3)*%
X125730000Y-49530000D03*
%TO.P,ADC1,4*%
%TO.N,Net-(ADC1-Pad4)*%
X125730000Y-52070000D03*
%TO.P,ADC1,5*%
%TO.N,GND*%
X125730000Y-54610000D03*
%TO.P,ADC1,6*%
%TO.N,Net-(ADC1-Pad6)*%
X125730000Y-57150000D03*
%TO.P,ADC1,7*%
%TO.N,Net-(ADC1-Pad7)*%
X125730000Y-59690000D03*
%TO.P,ADC1,8*%
%TO.N,Net-(ADC1-Pad8)*%
X125730000Y-62230000D03*
%TO.P,ADC1,9*%
%TO.N,Net-(ADC1-Pad9)*%
X125730000Y-64770000D03*
%TO.P,ADC1,10*%
%TO.N,Net-(ADC1-Pad10)*%
X125730000Y-67310000D03*
%TD*%
D15*
%TO.P,BME1,1*%
%TO.N,+3V3*%
X121285000Y-89000000D03*
D16*
%TO.P,BME1,2*%
%TO.N,GND*%
X121285000Y-86460000D03*
%TO.P,BME1,3*%
%TO.N,Net-(ADC1-Pad3)*%
X121285000Y-83920000D03*
%TO.P,BME1,4*%
%TO.N,Net-(ADC1-Pad4)*%
X121285000Y-81380000D03*
%TO.P,BME1,5*%
%TO.N,Net-(BME1-Pad5)*%
X121285000Y-78840000D03*
%TO.P,BME1,6*%
%TO.N,Net-(BME1-Pad6)*%
X121285000Y-76300000D03*
%TD*%
D15*
%TO.P,J1,1*%
%TO.N,+3V3*%
X89000000Y-70000000D03*
D16*
%TO.P,J1,2*%
%TO.N,Net-(J1-Pad2)*%
X89000000Y-67460000D03*
%TO.P,J1,3*%
%TO.N,GND*%
X91540000Y-70000000D03*
%TO.P,J1,4*%
%TO.N,Net-(J1-Pad4)*%
X91540000Y-67460000D03*
%TO.P,J1,5*%
%TO.N,Net-(ADC1-Pad8)*%
X94080000Y-70000000D03*
%TO.P,J1,6*%
%TO.N,Net-(J1-Pad6)*%
X94080000Y-67460000D03*
%TO.P,J1,7*%
%TO.N,Net-(ADC1-Pad7)*%
X96620000Y-70000000D03*
%TO.P,J1,8*%
%TO.N,Net-(J1-Pad8)*%
X96620000Y-67460000D03*
%TO.P,J1,9*%
%TO.N,Net-(J1-Pad9)*%
X99160000Y-70000000D03*
%TO.P,J1,10*%
%TO.N,Net-(J1-Pad10)*%
X99160000Y-67460000D03*
%TD*%
D15*
%TO.P,LCD_SPI1,1*%
%TO.N,GND*%
X101600000Y-40640000D03*
D16*
%TO.P,LCD_SPI1,2*%
%TO.N,+3V3*%
X99060000Y-40640000D03*
%TO.P,LCD_SPI1,3*%
%TO.N,Net-(LCD_SPI1-Pad3)*%
X96520000Y-40640000D03*
%TO.P,LCD_SPI1,4*%
%TO.N,Net-(LCD_SPI1-Pad4)*%
X93980000Y-40640000D03*
%TO.P,LCD_SPI1,5*%
%TO.N,Net-(LCD_SPI1-Pad5)*%
X91440000Y-40640000D03*
%TO.P,LCD_SPI1,6*%
%TO.N,Net-(LCD_SPI1-Pad6)*%
X88900000Y-40640000D03*
%TO.P,LCD_SPI1,7*%
%TO.N,Net-(LCD_SPI1-Pad7)*%
X86360000Y-40640000D03*
%TD*%
D15*
%TO.P,MOIST1,1*%
%TO.N,GND*%
X91000000Y-84000000D03*
D16*
%TO.P,MOIST1,2*%
%TO.N,+3V3*%
X91000000Y-81460000D03*
%TO.P,MOIST1,3*%
%TO.N,Net-(ADC1-Pad10)*%
X91000000Y-78920000D03*
%TD*%
D15*
%TO.P,PHOTO1,1*%
%TO.N,+3V3*%
X97000000Y-84000000D03*
D16*
%TO.P,PHOTO1,2*%
%TO.N,Net-(ADC1-Pad9)*%
X97000000Y-81460000D03*
%TD*%
D17*
%TO.N,GND*%
X60325000Y-71755000D03*
X110490000Y-67310000D03*
X110490000Y-70485000D03*
X55235000Y-66250000D03*
%TO.N,Net-(ADC1-Pad4)*%
X109220000Y-53340000D03*
%TO.N,Net-(ADC1-Pad9)*%
X115570000Y-67310000D03*
%TD*%
D18*
%TO.N,Net-(J1-Pad4)*%
X91540000Y-65105000D02*
X91540000Y-67460000D01*
X82590001Y-56155001D02*
X91540000Y-65105000D01*
%TO.N,Net-(J1-Pad9)*%
X99160000Y-72725000D02*
X105450001Y-79015001D01*
X99160000Y-70000000D02*
X99160000Y-72725000D01*
%TO.N,Net-(J1-Pad6)*%
X94080000Y-60025000D02*
X94080000Y-67460000D01*
X82590001Y-48535001D02*
X94080000Y-60025000D01*
%TO.N,Net-(ADC1-Pad3)*%
X125630000Y-83920000D02*
X121285000Y-83920000D01*
X128905000Y-52705000D02*
X128905000Y-80645000D01*
X128905000Y-80645000D02*
X125630000Y-83920000D01*
X125730000Y-49530000D02*
X128905000Y-52705000D01*
X105450001Y-51075001D02*
X106924999Y-51075001D01*
X106924999Y-51075001D02*
X108470000Y-49530000D01*
X108470000Y-49530000D02*
X125730000Y-49530000D01*
%TO.N,Net-(ADC1-Pad4)*%
X105450001Y-56155001D02*
X106404999Y-56155001D01*
X106404999Y-56155001D02*
X110490000Y-52070000D01*
X110490000Y-52070000D02*
X125730000Y-52070000D01*
X121285000Y-81380000D02*
X125630000Y-81380000D01*
X125630000Y-81380000D02*
X128270000Y-78740000D01*
X128270000Y-54610000D02*
X125730000Y-52070000D01*
X128270000Y-78740000D02*
X128270000Y-54610000D01*
D19*
%TO.N,Net-(ADC1-Pad7)*%
X96620000Y-70000000D02*
X96620000Y-73125000D01*
X96620000Y-73125000D02*
X102870000Y-79375000D01*
X102870000Y-79375000D02*
X102870000Y-85090000D01*
X102870000Y-85090000D02*
X104775000Y-86995000D01*
X104775000Y-86995000D02*
X106680000Y-86995000D01*
X106680000Y-86995000D02*
X108585000Y-85090000D01*
X108585000Y-85090000D02*
X108585000Y-80010000D01*
X108585000Y-80010000D02*
X113030000Y-75565000D01*
X113030000Y-75565000D02*
X113030000Y-64770000D01*
X118110000Y-59690000D02*
X125730000Y-59690000D01*
X113030000Y-64770000D02*
X118110000Y-59690000D01*
%TO.N,Net-(ADC1-Pad8)*%
X118110000Y-62230000D02*
X125730000Y-62230000D01*
X114300000Y-66040000D02*
X118110000Y-62230000D01*
X114300000Y-76200000D02*
X114300000Y-66040000D01*
X109855000Y-80645000D02*
X114300000Y-76200000D01*
X107315000Y-88265000D02*
X109855000Y-85725000D01*
X104140000Y-88265000D02*
X107315000Y-88265000D01*
X101600000Y-80010000D02*
X101600000Y-85725000D01*
X101600000Y-85725000D02*
X104140000Y-88265000D01*
X94080000Y-72490000D02*
X101600000Y-80010000D01*
X109855000Y-85725000D02*
X109855000Y-80645000D01*
X94080000Y-70000000D02*
X94080000Y-72490000D01*
%TO.N,Net-(ADC1-Pad9)*%
X115570000Y-67310000D02*
X118110000Y-64770000D01*
X111125000Y-81280000D02*
X115570000Y-76835000D01*
X103505000Y-89535000D02*
X107950000Y-89535000D01*
X118110000Y-64770000D02*
X125730000Y-64770000D01*
X111125000Y-86360000D02*
X111125000Y-81280000D01*
X100330000Y-86360000D02*
X103505000Y-89535000D01*
X115570000Y-76835000D02*
X115570000Y-67310000D01*
X107950000Y-89535000D02*
X111125000Y-86360000D01*
X100330000Y-82550000D02*
X100330000Y-86360000D01*
X99240000Y-81460000D02*
X100330000Y-82550000D01*
X97000000Y-81460000D02*
X99240000Y-81460000D01*
D18*
%TO.N,Net-(LCD_SPI1-Pad3)*%
X96520000Y-57385000D02*
X96520000Y-40640000D01*
X105450001Y-66315001D02*
X96520000Y-57385000D01*
%TO.N,Net-(LCD_SPI1-Pad4)*%
X105450001Y-71395001D02*
X103055000Y-69000000D01*
X103055000Y-69000000D02*
X103055000Y-65055000D01*
X93980000Y-55980000D02*
X93980000Y-40640000D01*
X103055000Y-65055000D02*
X93980000Y-55980000D01*
%TO.N,Net-(LCD_SPI1-Pad6)*%
X105450001Y-58695001D02*
X103000000Y-56245000D01*
X103000000Y-56245000D02*
X103000000Y-46000000D01*
X103000000Y-46000000D02*
X105000000Y-44000000D01*
X105000000Y-44000000D02*
X105000000Y-39000000D01*
X105000000Y-39000000D02*
X103000000Y-37000000D01*
X103000000Y-37000000D02*
X91000000Y-37000000D01*
X88900000Y-39100000D02*
X88900000Y-40640000D01*
X91000000Y-37000000D02*
X88900000Y-39100000D01*
%TO.N,Net-(LCD_SPI1-Pad7)*%
X105450001Y-73935001D02*
X102000000Y-70485000D01*
X102000000Y-70485000D02*
X102000000Y-66000000D01*
X86360000Y-50360000D02*
X86360000Y-40640000D01*
X102000000Y-66000000D02*
X86360000Y-50360000D01*
D19*
%TO.N,Net-(ADC1-Pad10)*%
X118110000Y-67310000D02*
X125730000Y-67310000D01*
X116840000Y-68580000D02*
X118110000Y-67310000D01*
X116840000Y-77470000D02*
X116840000Y-68580000D01*
X112395000Y-86995000D02*
X112395000Y-81915000D01*
X108585000Y-90805000D02*
X112395000Y-86995000D01*
X102870000Y-90805000D02*
X108585000Y-90805000D01*
X99695000Y-87630000D02*
X102870000Y-90805000D01*
X93980000Y-86360000D02*
X95250000Y-87630000D01*
X95250000Y-87630000D02*
X99695000Y-87630000D01*
X93980000Y-80645000D02*
X93980000Y-86360000D01*
X112395000Y-81915000D02*
X116840000Y-77470000D01*
X92255000Y-78920000D02*
X93980000Y-80645000D01*
X91000000Y-78920000D02*
X92255000Y-78920000D01*
D18*
%TO.N,Net-(J1-Pad2)*%
X89000000Y-65105000D02*
X89000000Y-67460000D01*
X82590001Y-58695001D02*
X89000000Y-65105000D01*
%TO.N,Net-(J1-Pad10)*%
X102549990Y-73574990D02*
X102549990Y-73549990D01*
X105450001Y-76475001D02*
X102549990Y-73574990D01*
X102549990Y-73549990D02*
X101000000Y-72000000D01*
X101000000Y-69300000D02*
X99160000Y-67460000D01*
X101000000Y-72000000D02*
X101000000Y-69300000D01*
%TD*%
D20*
%TO.N,GND*%
G36*
X126424692Y-30145664D02*
G01*
X126846168Y-30201151D01*
X127261198Y-30293162D01*
X127666620Y-30420991D01*
X128059375Y-30583675D01*
X128436434Y-30779960D01*
X128794968Y-31008371D01*
X129132230Y-31267161D01*
X129445646Y-31554354D01*
X129732839Y-31867770D01*
X129991629Y-32205032D01*
X130220040Y-32563566D01*
X130416325Y-32940625D01*
X130579009Y-33333380D01*
X130706838Y-33738802D01*
X130798849Y-34153832D01*
X130854336Y-34575308D01*
X130873000Y-35002769D01*
X130873000Y-98997231D01*
X130854336Y-99424692D01*
X130798849Y-99846168D01*
X130706838Y-100261198D01*
X130579009Y-100666620D01*
X130416325Y-101059375D01*
X130220040Y-101436434D01*
X129991629Y-101794968D01*
X129732839Y-102132230D01*
X129445646Y-102445646D01*
X129132230Y-102732839D01*
X128794968Y-102991629D01*
X128436434Y-103220040D01*
X128059375Y-103416325D01*
X127666620Y-103579009D01*
X127261198Y-103706838D01*
X126846168Y-103798849D01*
X126424692Y-103854336D01*
X125997231Y-103873000D01*
X96794783Y-103873000D01*
X96902096Y-103642745D01*
X96971285Y-103359742D01*
X96827232Y-103127000D01*
X95627000Y-103127000D01*
X95627000Y-103147000D01*
X95373000Y-103147000D01*
X95373000Y-103127000D01*
X95353000Y-103127000D01*
X95353000Y-102873000D01*
X95373000Y-102873000D01*
X95373000Y-101529845D01*
X95627000Y-101529845D01*
X95627000Y-102873000D01*
X96827232Y-102873000D01*
X96971285Y-102640258D01*
X96902096Y-102357255D01*
X96779025Y-102093188D01*
X96606802Y-101858205D01*
X96392046Y-101661336D01*
X96143009Y-101510146D01*
X95869261Y-101410446D01*
X95856890Y-101408524D01*
X95627000Y-101529845D01*
X95373000Y-101529845D01*
X95143110Y-101408524D01*
X95130739Y-101410446D01*
X94856991Y-101510146D01*
X94607954Y-101661336D01*
X94393198Y-101858205D01*
X94392914Y-101858593D01*
X94338405Y-101756614D01*
X94227962Y-101622038D01*
X94093386Y-101511595D01*
X93939850Y-101429528D01*
X93773254Y-101378992D01*
X93600000Y-101361928D01*
X92400000Y-101361928D01*
X92226746Y-101378992D01*
X92060150Y-101429528D01*
X91906614Y-101511595D01*
X91772038Y-101622038D01*
X91661595Y-101756614D01*
X91579528Y-101910150D01*
X91528992Y-102076746D01*
X91511928Y-102250000D01*
X91511928Y-103750000D01*
X91524042Y-103873000D01*
X32002769Y-103873000D01*
X31575308Y-103854336D01*
X31153832Y-103798849D01*
X30738802Y-103706838D01*
X30333380Y-103579009D01*
X29940625Y-103416325D01*
X29563566Y-103220040D01*
X29205032Y-102991629D01*
X28867770Y-102732839D01*
X28554354Y-102445646D01*
X28267161Y-102132230D01*
X28008371Y-101794968D01*
X27779960Y-101436434D01*
X27583675Y-101059375D01*
X27420991Y-100666620D01*
X27293162Y-100261198D01*
X27201151Y-99846168D01*
X27145664Y-99424692D01*
X27127000Y-98997231D01*
X27127000Y-81618981D01*
X80983531Y-81618981D01*
X81026881Y-81931158D01*
X81130301Y-82228880D01*
X81218726Y-82394310D01*
X81479547Y-82485847D01*
X81444086Y-82521308D01*
X81380821Y-82540499D01*
X81270507Y-82599464D01*
X81173816Y-82678816D01*
X81094464Y-82775507D01*
X81035499Y-82885821D01*
X80999189Y-83005519D01*
X80986929Y-83130001D01*
X80986929Y-85060001D01*
X80999189Y-85184483D01*
X81035499Y-85304181D01*
X81094464Y-85414495D01*
X81173816Y-85511186D01*
X81270507Y-85590538D01*
X81380821Y-85649503D01*
X81500519Y-85685813D01*
X81625001Y-85698073D01*
X83555001Y-85698073D01*
X83679483Y-85685813D01*
X83799181Y-85649503D01*
X83909495Y-85590538D01*
X84006186Y-85511186D01*
X84085538Y-85414495D01*
X84144503Y-85304181D01*
X84180813Y-85184483D01*
X84193073Y-85060001D01*
X84193073Y-84850000D01*
X89511928Y-84850000D01*
X89524188Y-84974482D01*
X89560498Y-85094180D01*
X89619463Y-85204494D01*
X89698815Y-85301185D01*
X89795506Y-85380537D01*
X89905820Y-85439502D01*
X90025518Y-85475812D01*
X90150000Y-85488072D01*
X90714250Y-85485000D01*
X90873000Y-85326250D01*
X90873000Y-84127000D01*
X91127000Y-84127000D01*
X91127000Y-85326250D01*
X91285750Y-85485000D01*
X91850000Y-85488072D01*
X91974482Y-85475812D01*
X92094180Y-85439502D01*
X92204494Y-85380537D01*
X92301185Y-85301185D01*
X92380537Y-85204494D01*
X92439502Y-85094180D01*
X92475812Y-84974482D01*
X92488072Y-84850000D01*
X92485000Y-84285750D01*
X92326250Y-84127000D01*
X91127000Y-84127000D01*
X90873000Y-84127000D01*
X89673750Y-84127000D01*
X89515000Y-84285750D01*
X89511928Y-84850000D01*
X84193073Y-84850000D01*
X84193073Y-83130001D01*
X84180813Y-83005519D01*
X84144503Y-82885821D01*
X84085538Y-82775507D01*
X84006186Y-82678816D01*
X83909495Y-82599464D01*
X83799181Y-82540499D01*
X83735916Y-82521308D01*
X83700455Y-82485847D01*
X83961276Y-82394310D01*
X84098669Y-82110660D01*
X84178084Y-81805657D01*
X84196471Y-81491021D01*
X84153121Y-81178844D01*
X84049701Y-80881122D01*
X83961276Y-80715692D01*
X83700453Y-80624154D01*
X82769606Y-81555001D01*
X82783749Y-81569144D01*
X82604144Y-81748749D01*
X82590001Y-81734606D01*
X82575859Y-81748749D01*
X82396254Y-81569144D01*
X82410396Y-81555001D01*
X81479549Y-80624154D01*
X81218726Y-80715692D01*
X81081333Y-80999342D01*
X81001918Y-81304345D01*
X80983531Y-81618981D01*
X27127000Y-81618981D01*
X27127000Y-71410475D01*
X69770000Y-71410475D01*
X69770000Y-71929525D01*
X69871261Y-72438601D01*
X70069893Y-72918141D01*
X70358262Y-73349715D01*
X70725285Y-73716738D01*
X71156859Y-74005107D01*
X71636399Y-74203739D01*
X72145475Y-74305000D01*
X72664525Y-74305000D01*
X73173601Y-74203739D01*
X73653141Y-74005107D01*
X73993905Y-73777415D01*
X80990001Y-73777415D01*
X80990001Y-74092587D01*
X81051488Y-74401704D01*
X81172099Y-74692885D01*
X81347200Y-74954942D01*
X81570060Y-75177802D01*
X81610766Y-75205001D01*
X81570060Y-75232200D01*
X81347200Y-75455060D01*
X81172099Y-75717117D01*
X81051488Y-76008298D01*
X80990001Y-76317415D01*
X80990001Y-76632587D01*
X81051488Y-76941704D01*
X81172099Y-77232885D01*
X81347200Y-77494942D01*
X81570060Y-77717802D01*
X81610766Y-77745001D01*
X81570060Y-77772200D01*
X81347200Y-77995060D01*
X81172099Y-78257117D01*
X81051488Y-78548298D01*
X80990001Y-78857415D01*
X80990001Y-79172587D01*
X81051488Y-79481704D01*
X81172099Y-79772885D01*
X81347200Y-80034942D01*
X81570060Y-80257802D01*
X81695320Y-80341498D01*
X81659154Y-80444549D01*
X82590001Y-81375396D01*
X83520848Y-80444549D01*
X83484682Y-80341498D01*
X83609942Y-80257802D01*
X83832802Y-80034942D01*
X84007903Y-79772885D01*
X84128514Y-79481704D01*
X84190001Y-79172587D01*
X84190001Y-78857415D01*
X84128514Y-78548298D01*
X84007903Y-78257117D01*
X83832802Y-77995060D01*
X83609942Y-77772200D01*
X83569236Y-77745001D01*
X83609942Y-77717802D01*
X83832802Y-77494942D01*
X84007903Y-77232885D01*
X84128514Y-76941704D01*
X84190001Y-76632587D01*
X84190001Y-76317415D01*
X84128514Y-76008298D01*
X84007903Y-75717117D01*
X83832802Y-75455060D01*
X83609942Y-75232200D01*
X83569236Y-75205001D01*
X83609942Y-75177802D01*
X83832802Y-74954942D01*
X84007903Y-74692885D01*
X84128514Y-74401704D01*
X84190001Y-74092587D01*
X84190001Y-73777415D01*
X84128514Y-73468298D01*
X84007903Y-73177117D01*
X83832802Y-72915060D01*
X83609942Y-72692200D01*
X83484682Y-72608504D01*
X83520848Y-72505453D01*
X82590001Y-71574606D01*
X81659154Y-72505453D01*
X81695320Y-72608504D01*
X81570060Y-72692200D01*
X81347200Y-72915060D01*
X81172099Y-73177117D01*
X81051488Y-73468298D01*
X80990001Y-73777415D01*
X73993905Y-73777415D01*
X74084715Y-73716738D01*
X74451738Y-73349715D01*
X74740107Y-72918141D01*
X74938739Y-72438601D01*
X75040000Y-71929525D01*
X75040000Y-71458981D01*
X80983531Y-71458981D01*
X81026881Y-71771158D01*
X81130301Y-72068880D01*
X81218726Y-72234310D01*
X81479549Y-72325848D01*
X82410396Y-71395001D01*
X82769606Y-71395001D01*
X83700453Y-72325848D01*
X83961276Y-72234310D01*
X84098669Y-71950660D01*
X84178084Y-71645657D01*
X84196471Y-71331021D01*
X84153121Y-71018844D01*
X84049701Y-70721122D01*
X83961276Y-70555692D01*
X83700453Y-70464154D01*
X82769606Y-71395001D01*
X82410396Y-71395001D01*
X81479549Y-70464154D01*
X81218726Y-70555692D01*
X81081333Y-70839342D01*
X81001918Y-71144345D01*
X80983531Y-71458981D01*
X75040000Y-71458981D01*
X75040000Y-71410475D01*
X74938739Y-70901399D01*
X74740107Y-70421859D01*
X74451738Y-69990285D01*
X74084715Y-69623262D01*
X73653141Y-69334893D01*
X73173601Y-69136261D01*
X72664525Y-69035000D01*
X72145475Y-69035000D01*
X71636399Y-69136261D01*
X71156859Y-69334893D01*
X70725285Y-69623262D01*
X70358262Y-69990285D01*
X70069893Y-70421859D01*
X69871261Y-70901399D01*
X69770000Y-71410475D01*
X27127000Y-71410475D01*
X27127000Y-67118816D01*
X63870000Y-67118816D01*
X63870000Y-67421184D01*
X63928989Y-67717743D01*
X64044701Y-67997095D01*
X64212688Y-68248505D01*
X64426495Y-68462312D01*
X64512831Y-68520000D01*
X64426495Y-68577688D01*
X64212688Y-68791495D01*
X64044701Y-69042905D01*
X63928989Y-69322257D01*
X63870000Y-69618816D01*
X63870000Y-69921184D01*
X63928989Y-70217743D01*
X64044701Y-70497095D01*
X64212688Y-70748505D01*
X64426495Y-70962312D01*
X64677905Y-71130299D01*
X64957257Y-71246011D01*
X65253816Y-71305000D01*
X65556184Y-71305000D01*
X65852743Y-71246011D01*
X66132095Y-71130299D01*
X66383505Y-70962312D01*
X66597312Y-70748505D01*
X66765299Y-70497095D01*
X66881011Y-70217743D01*
X66940000Y-69921184D01*
X66940000Y-69618816D01*
X66881011Y-69322257D01*
X66765299Y-69042905D01*
X66597312Y-68791495D01*
X66383505Y-68577688D01*
X66297169Y-68520000D01*
X66383505Y-68462312D01*
X66597312Y-68248505D01*
X66765299Y-67997095D01*
X66881011Y-67717743D01*
X66940000Y-67421184D01*
X66940000Y-67118816D01*
X66881011Y-66822257D01*
X66765299Y-66542905D01*
X66597312Y-66291495D01*
X66383505Y-66077688D01*
X66240690Y-65982262D01*
X66289475Y-65834080D01*
X65405000Y-64949605D01*
X64520525Y-65834080D01*
X64569310Y-65982262D01*
X64426495Y-66077688D01*
X64212688Y-66291495D01*
X64044701Y-66542905D01*
X63928989Y-66822257D01*
X63870000Y-67118816D01*
X27127000Y-67118816D01*
X27127000Y-64836553D01*
X63864009Y-64836553D01*
X63906603Y-65135907D01*
X64006778Y-65421199D01*
X64086739Y-65570792D01*
X64340920Y-65654475D01*
X65225395Y-64770000D01*
X65584605Y-64770000D01*
X66469080Y-65654475D01*
X66723261Y-65570792D01*
X66854158Y-65298225D01*
X66929365Y-65005358D01*
X66945991Y-64703447D01*
X66903397Y-64404093D01*
X66803222Y-64118801D01*
X66723261Y-63969208D01*
X66469080Y-63885525D01*
X65584605Y-64770000D01*
X65225395Y-64770000D01*
X64340920Y-63885525D01*
X64086739Y-63969208D01*
X63955842Y-64241775D01*
X63880635Y-64534642D01*
X63864009Y-64836553D01*
X27127000Y-64836553D01*
X27127000Y-63705920D01*
X64520525Y-63705920D01*
X65405000Y-64590395D01*
X66289475Y-63705920D01*
X66205792Y-63451739D01*
X65933225Y-63320842D01*
X65640358Y-63245635D01*
X65338447Y-63229009D01*
X65039093Y-63271603D01*
X64753801Y-63371778D01*
X64604208Y-63451739D01*
X64520525Y-63705920D01*
X27127000Y-63705920D01*
X27127000Y-62610475D01*
X69770000Y-62610475D01*
X69770000Y-63129525D01*
X69871261Y-63638601D01*
X70069893Y-64118141D01*
X70358262Y-64549715D01*
X70725285Y-64916738D01*
X71156859Y-65205107D01*
X71636399Y-65403739D01*
X72145475Y-65505000D01*
X72664525Y-65505000D01*
X73173601Y-65403739D01*
X73653141Y-65205107D01*
X74084715Y-64916738D01*
X74451738Y-64549715D01*
X74740107Y-64118141D01*
X74938739Y-63638601D01*
X75040000Y-63129525D01*
X75040000Y-62610475D01*
X74938739Y-62101399D01*
X74740107Y-61621859D01*
X74451738Y-61190285D01*
X74084715Y-60823262D01*
X73653141Y-60534893D01*
X73173601Y-60336261D01*
X72664525Y-60235000D01*
X72145475Y-60235000D01*
X71636399Y-60336261D01*
X71156859Y-60534893D01*
X70725285Y-60823262D01*
X70358262Y-61190285D01*
X70069893Y-61621859D01*
X69871261Y-62101399D01*
X69770000Y-62610475D01*
X27127000Y-62610475D01*
X27127000Y-48377415D01*
X80990001Y-48377415D01*
X80990001Y-48692587D01*
X81051488Y-49001704D01*
X81172099Y-49292885D01*
X81347200Y-49554942D01*
X81570060Y-49777802D01*
X81610766Y-49805001D01*
X81570060Y-49832200D01*
X81347200Y-50055060D01*
X81172099Y-50317117D01*
X81051488Y-50608298D01*
X80990001Y-50917415D01*
X80990001Y-51232587D01*
X81051488Y-51541704D01*
X81172099Y-51832885D01*
X81347200Y-52094942D01*
X81570060Y-52317802D01*
X81610766Y-52345001D01*
X81570060Y-52372200D01*
X81347200Y-52595060D01*
X81172099Y-52857117D01*
X81051488Y-53148298D01*
X80990001Y-53457415D01*
X80990001Y-53772587D01*
X81051488Y-54081704D01*
X81172099Y-54372885D01*
X81347200Y-54634942D01*
X81570060Y-54857802D01*
X81610766Y-54885001D01*
X81570060Y-54912200D01*
X81347200Y-55135060D01*
X81172099Y-55397117D01*
X81051488Y-55688298D01*
X80990001Y-55997415D01*
X80990001Y-56312587D01*
X81051488Y-56621704D01*
X81172099Y-56912885D01*
X81347200Y-57174942D01*
X81570060Y-57397802D01*
X81610766Y-57425001D01*
X81570060Y-57452200D01*
X81347200Y-57675060D01*
X81172099Y-57937117D01*
X81051488Y-58228298D01*
X80990001Y-58537415D01*
X80990001Y-58852587D01*
X81051488Y-59161704D01*
X81172099Y-59452885D01*
X81347200Y-59714942D01*
X81570060Y-59937802D01*
X81610766Y-59965001D01*
X81570060Y-59992200D01*
X81347200Y-60215060D01*
X81172099Y-60477117D01*
X81051488Y-60768298D01*
X80990001Y-61077415D01*
X80990001Y-61392587D01*
X81051488Y-61701704D01*
X81172099Y-61992885D01*
X81347200Y-62254942D01*
X81570060Y-62477802D01*
X81610766Y-62505001D01*
X81570060Y-62532200D01*
X81347200Y-62755060D01*
X81172099Y-63017117D01*
X81051488Y-63308298D01*
X80990001Y-63617415D01*
X80990001Y-63932587D01*
X81051488Y-64241704D01*
X81172099Y-64532885D01*
X81347200Y-64794942D01*
X81570060Y-65017802D01*
X81610766Y-65045001D01*
X81570060Y-65072200D01*
X81347200Y-65295060D01*
X81172099Y-65557117D01*
X81051488Y-65848298D01*
X80990001Y-66157415D01*
X80990001Y-66472587D01*
X81051488Y-66781704D01*
X81172099Y-67072885D01*
X81347200Y-67334942D01*
X81570060Y-67557802D01*
X81610766Y-67585001D01*
X81570060Y-67612200D01*
X81347200Y-67835060D01*
X81172099Y-68097117D01*
X81051488Y-68388298D01*
X80990001Y-68697415D01*
X80990001Y-69012587D01*
X81051488Y-69321704D01*
X81172099Y-69612885D01*
X81347200Y-69874942D01*
X81570060Y-70097802D01*
X81695320Y-70181498D01*
X81659154Y-70284549D01*
X82590001Y-71215396D01*
X83520848Y-70284549D01*
X83484682Y-70181498D01*
X83609942Y-70097802D01*
X83832802Y-69874942D01*
X84007903Y-69612885D01*
X84128514Y-69321704D01*
X84190001Y-69012587D01*
X84190001Y-68697415D01*
X84128514Y-68388298D01*
X84007903Y-68097117D01*
X83832802Y-67835060D01*
X83609942Y-67612200D01*
X83569236Y-67585001D01*
X83609942Y-67557802D01*
X83832802Y-67334942D01*
X84007903Y-67072885D01*
X84128514Y-66781704D01*
X84190001Y-66472587D01*
X84190001Y-66157415D01*
X84128514Y-65848298D01*
X84007903Y-65557117D01*
X83832802Y-65295060D01*
X83609942Y-65072200D01*
X83569236Y-65045001D01*
X83609942Y-65017802D01*
X83832802Y-64794942D01*
X84007903Y-64532885D01*
X84128514Y-64241704D01*
X84190001Y-63932587D01*
X84190001Y-63617415D01*
X84128514Y-63308298D01*
X84007903Y-63017117D01*
X83832802Y-62755060D01*
X83609942Y-62532200D01*
X83569236Y-62505001D01*
X83609942Y-62477802D01*
X83832802Y-62254942D01*
X84007903Y-61992885D01*
X84128514Y-61701704D01*
X84190001Y-61392587D01*
X84190001Y-61369802D01*
X88240000Y-65419802D01*
X88240000Y-66181821D01*
X88053368Y-66306525D01*
X87846525Y-66513368D01*
X87684010Y-66756589D01*
X87572068Y-67026842D01*
X87515000Y-67313740D01*
X87515000Y-67606260D01*
X87572068Y-67893158D01*
X87684010Y-68163411D01*
X87846525Y-68406632D01*
X87978380Y-68538487D01*
X87905820Y-68560498D01*
X87795506Y-68619463D01*
X87698815Y-68698815D01*
X87619463Y-68795506D01*
X87560498Y-68905820D01*
X87524188Y-69025518D01*
X87511928Y-69150000D01*
X87511928Y-70850000D01*
X87524188Y-70974482D01*
X87560498Y-71094180D01*
X87619463Y-71204494D01*
X87698815Y-71301185D01*
X87795506Y-71380537D01*
X87905820Y-71439502D01*
X88025518Y-71475812D01*
X88150000Y-71488072D01*
X89850000Y-71488072D01*
X89974482Y-71475812D01*
X90094180Y-71439502D01*
X90204494Y-71380537D01*
X90301185Y-71301185D01*
X90380537Y-71204494D01*
X90439502Y-71094180D01*
X90463966Y-71013534D01*
X90539731Y-71097588D01*
X90773080Y-71271641D01*
X91035901Y-71396825D01*
X91183110Y-71441476D01*
X91413000Y-71320155D01*
X91413000Y-70127000D01*
X91393000Y-70127000D01*
X91393000Y-69873000D01*
X91413000Y-69873000D01*
X91413000Y-69853000D01*
X91667000Y-69853000D01*
X91667000Y-69873000D01*
X91687000Y-69873000D01*
X91687000Y-70127000D01*
X91667000Y-70127000D01*
X91667000Y-71320155D01*
X91896890Y-71441476D01*
X92044099Y-71396825D01*
X92306920Y-71271641D01*
X92540269Y-71097588D01*
X92735178Y-70881355D01*
X92804805Y-70764466D01*
X92926525Y-70946632D01*
X93133368Y-71153475D01*
X93345001Y-71294883D01*
X93345001Y-72453885D01*
X93341444Y-72490000D01*
X93355635Y-72634085D01*
X93394947Y-72763677D01*
X93397664Y-72772633D01*
X93465914Y-72900320D01*
X93557763Y-73012238D01*
X93585808Y-73035254D01*
X100865000Y-80314447D01*
X100865000Y-82043314D01*
X100852237Y-82027762D01*
X100824197Y-82004750D01*
X99785258Y-80965812D01*
X99762238Y-80937762D01*
X99650320Y-80845913D01*
X99522633Y-80777663D01*
X99384085Y-80735635D01*
X99276105Y-80725000D01*
X99240000Y-80721444D01*
X99203895Y-80725000D01*
X98294883Y-80725000D01*
X98153475Y-80513368D01*
X97946632Y-80306525D01*
X97703411Y-80144010D01*
X97433158Y-80032068D01*
X97146260Y-79975000D01*
X96853740Y-79975000D01*
X96566842Y-80032068D01*
X96296589Y-80144010D01*
X96053368Y-80306525D01*
X95846525Y-80513368D01*
X95684010Y-80756589D01*
X95572068Y-81026842D01*
X95515000Y-81313740D01*
X95515000Y-81606260D01*
X95572068Y-81893158D01*
X95684010Y-82163411D01*
X95846525Y-82406632D01*
X95978380Y-82538487D01*
X95905820Y-82560498D01*
X95795506Y-82619463D01*
X95698815Y-82698815D01*
X95619463Y-82795506D01*
X95560498Y-82905820D01*
X95524188Y-83025518D01*
X95511928Y-83150000D01*
X95511928Y-84850000D01*
X95524188Y-84974482D01*
X95560498Y-85094180D01*
X95619463Y-85204494D01*
X95698815Y-85301185D01*
X95795506Y-85380537D01*
X95905820Y-85439502D01*
X96025518Y-85475812D01*
X96150000Y-85488072D01*
X97850000Y-85488072D01*
X97974482Y-85475812D01*
X98094180Y-85439502D01*
X98204494Y-85380537D01*
X98301185Y-85301185D01*
X98380537Y-85204494D01*
X98439502Y-85094180D01*
X98475812Y-84974482D01*
X98488072Y-84850000D01*
X98488072Y-83150000D01*
X98475812Y-83025518D01*
X98439502Y-82905820D01*
X98380537Y-82795506D01*
X98301185Y-82698815D01*
X98204494Y-82619463D01*
X98094180Y-82560498D01*
X98021620Y-82538487D01*
X98153475Y-82406632D01*
X98294883Y-82195000D01*
X98935554Y-82195000D01*
X99595000Y-82854447D01*
X99595001Y-86323885D01*
X99591444Y-86360000D01*
X99605635Y-86504085D01*
X99630084Y-86584680D01*
X99647664Y-86642633D01*
X99715914Y-86770320D01*
X99807763Y-86882238D01*
X99835808Y-86905254D01*
X99835873Y-86905319D01*
X99731105Y-86895000D01*
X99695000Y-86891444D01*
X99658895Y-86895000D01*
X95554447Y-86895000D01*
X94715000Y-86055554D01*
X94715000Y-80681094D01*
X94718555Y-80644999D01*
X94715000Y-80608904D01*
X94715000Y-80608895D01*
X94704365Y-80500915D01*
X94662337Y-80362367D01*
X94594087Y-80234680D01*
X94529507Y-80155990D01*
X94525253Y-80150806D01*
X94525250Y-80150803D01*
X94502237Y-80122762D01*
X94474197Y-80099750D01*
X92800258Y-78425812D01*
X92777238Y-78397762D01*
X92665320Y-78305913D01*
X92537633Y-78237663D01*
X92399085Y-78195635D01*
X92295149Y-78185398D01*
X92153475Y-77973368D01*
X91946632Y-77766525D01*
X91703411Y-77604010D01*
X91433158Y-77492068D01*
X91146260Y-77435000D01*
X90853740Y-77435000D01*
X90566842Y-77492068D01*
X90296589Y-77604010D01*
X90053368Y-77766525D01*
X89846525Y-77973368D01*
X89684010Y-78216589D01*
X89572068Y-78486842D01*
X89515000Y-78773740D01*
X89515000Y-79066260D01*
X89572068Y-79353158D01*
X89684010Y-79623411D01*
X89846525Y-79866632D01*
X90053368Y-80073475D01*
X90227760Y-80190000D01*
X90053368Y-80306525D01*
X89846525Y-80513368D01*
X89684010Y-80756589D01*
X89572068Y-81026842D01*
X89515000Y-81313740D01*
X89515000Y-81606260D01*
X89572068Y-81893158D01*
X89684010Y-82163411D01*
X89846525Y-82406632D01*
X89978380Y-82538487D01*
X89905820Y-82560498D01*
X89795506Y-82619463D01*
X89698815Y-82698815D01*
X89619463Y-82795506D01*
X89560498Y-82905820D01*
X89524188Y-83025518D01*
X89511928Y-83150000D01*
X89515000Y-83714250D01*
X89673750Y-83873000D01*
X90873000Y-83873000D01*
X90873000Y-83853000D01*
X91127000Y-83853000D01*
X91127000Y-83873000D01*
X92326250Y-83873000D01*
X92485000Y-83714250D01*
X92488072Y-83150000D01*
X92475812Y-83025518D01*
X92439502Y-82905820D01*
X92380537Y-82795506D01*
X92301185Y-82698815D01*
X92204494Y-82619463D01*
X92094180Y-82560498D01*
X92021620Y-82538487D01*
X92153475Y-82406632D01*
X92315990Y-82163411D01*
X92427932Y-81893158D01*
X92485000Y-81606260D01*
X92485000Y-81313740D01*
X92427932Y-81026842D01*
X92315990Y-80756589D01*
X92153475Y-80513368D01*
X91946632Y-80306525D01*
X91772240Y-80190000D01*
X91946632Y-80073475D01*
X92153475Y-79866632D01*
X92156964Y-79861410D01*
X93245000Y-80949447D01*
X93245001Y-86323885D01*
X93241444Y-86360000D01*
X93255635Y-86504085D01*
X93280084Y-86584680D01*
X93297664Y-86642633D01*
X93365914Y-86770320D01*
X93457763Y-86882238D01*
X93485808Y-86905254D01*
X94704746Y-88124193D01*
X94727762Y-88152238D01*
X94839680Y-88244087D01*
X94967367Y-88312337D01*
X95105915Y-88354365D01*
X95213895Y-88365000D01*
X95213904Y-88365000D01*
X95249999Y-88368555D01*
X95286094Y-88365000D01*
X99390554Y-88365000D01*
X102324746Y-91299193D01*
X102347762Y-91327238D01*
X102459680Y-91419087D01*
X102587367Y-91487337D01*
X102683886Y-91516616D01*
X102725914Y-91529365D01*
X102869999Y-91543556D01*
X102906104Y-91540000D01*
X108548895Y-91540000D01*
X108585000Y-91543556D01*
X108621105Y-91540000D01*
X108729085Y-91529365D01*
X108867633Y-91487337D01*
X108995320Y-91419087D01*
X109107238Y-91327238D01*
X109130259Y-91299187D01*
X112279446Y-88150000D01*
X119796928Y-88150000D01*
X119796928Y-89850000D01*
X119809188Y-89974482D01*
X119845498Y-90094180D01*
X119904463Y-90204494D01*
X119983815Y-90301185D01*
X120080506Y-90380537D01*
X120190820Y-90439502D01*
X120310518Y-90475812D01*
X120435000Y-90488072D01*
X122135000Y-90488072D01*
X122259482Y-90475812D01*
X122379180Y-90439502D01*
X122489494Y-90380537D01*
X122586185Y-90301185D01*
X122665537Y-90204494D01*
X122724502Y-90094180D01*
X122760812Y-89974482D01*
X122773072Y-89850000D01*
X122773072Y-88150000D01*
X122760812Y-88025518D01*
X122724502Y-87905820D01*
X122665537Y-87795506D01*
X122586185Y-87698815D01*
X122489494Y-87619463D01*
X122379180Y-87560498D01*
X122298534Y-87536034D01*
X122382588Y-87460269D01*
X122556641Y-87226920D01*
X122681825Y-86964099D01*
X122726476Y-86816890D01*
X122605155Y-86587000D01*
X121412000Y-86587000D01*
X121412000Y-86607000D01*
X121158000Y-86607000D01*
X121158000Y-86587000D01*
X119964845Y-86587000D01*
X119843524Y-86816890D01*
X119888175Y-86964099D01*
X120013359Y-87226920D01*
X120187412Y-87460269D01*
X120271466Y-87536034D01*
X120190820Y-87560498D01*
X120080506Y-87619463D01*
X119983815Y-87698815D01*
X119904463Y-87795506D01*
X119845498Y-87905820D01*
X119809188Y-88025518D01*
X119796928Y-88150000D01*
X112279446Y-88150000D01*
X112889197Y-87540250D01*
X112917237Y-87517238D01*
X112940250Y-87489197D01*
X112940253Y-87489194D01*
X113009087Y-87405320D01*
X113077337Y-87277634D01*
X113119365Y-87139085D01*
X113133556Y-86995000D01*
X113130000Y-86958895D01*
X113130000Y-82219446D01*
X117334197Y-78015250D01*
X117362237Y-77992238D01*
X117385250Y-77964197D01*
X117385253Y-77964194D01*
X117454086Y-77880321D01*
X117454087Y-77880320D01*
X117522337Y-77752633D01*
X117564365Y-77614085D01*
X117575000Y-77506105D01*
X117575000Y-77506096D01*
X117578555Y-77470001D01*
X117575000Y-77433906D01*
X117575000Y-68884446D01*
X118414447Y-68045000D01*
X124435117Y-68045000D01*
X124576525Y-68256632D01*
X124783368Y-68463475D01*
X125026589Y-68625990D01*
X125296842Y-68737932D01*
X125583740Y-68795000D01*
X125876260Y-68795000D01*
X126163158Y-68737932D01*
X126433411Y-68625990D01*
X126676632Y-68463475D01*
X126883475Y-68256632D01*
X127045990Y-68013411D01*
X127157932Y-67743158D01*
X127215000Y-67456260D01*
X127215000Y-67163740D01*
X127157932Y-66876842D01*
X127045990Y-66606589D01*
X126883475Y-66363368D01*
X126676632Y-66156525D01*
X126502240Y-66040000D01*
X126676632Y-65923475D01*
X126883475Y-65716632D01*
X127045990Y-65473411D01*
X127157932Y-65203158D01*
X127215000Y-64916260D01*
X127215000Y-64623740D01*
X127157932Y-64336842D01*
X127045990Y-64066589D01*
X126883475Y-63823368D01*
X126676632Y-63616525D01*
X126502240Y-63500000D01*
X126676632Y-63383475D01*
X126883475Y-63176632D01*
X127045990Y-62933411D01*
X127157932Y-62663158D01*
X127215000Y-62376260D01*
X127215000Y-62083740D01*
X127157932Y-61796842D01*
X127045990Y-61526589D01*
X126883475Y-61283368D01*
X126676632Y-61076525D01*
X126502240Y-60960000D01*
X126676632Y-60843475D01*
X126883475Y-60636632D01*
X127045990Y-60393411D01*
X127157932Y-60123158D01*
X127215000Y-59836260D01*
X127215000Y-59543740D01*
X127157932Y-59256842D01*
X127045990Y-58986589D01*
X126883475Y-58743368D01*
X126676632Y-58536525D01*
X126502240Y-58420000D01*
X126676632Y-58303475D01*
X126883475Y-58096632D01*
X127045990Y-57853411D01*
X127157932Y-57583158D01*
X127215000Y-57296260D01*
X127215000Y-57003740D01*
X127157932Y-56716842D01*
X127045990Y-56446589D01*
X126883475Y-56203368D01*
X126676632Y-55996525D01*
X126494466Y-55874805D01*
X126611355Y-55805178D01*
X126827588Y-55610269D01*
X127001641Y-55376920D01*
X127126825Y-55114099D01*
X127171476Y-54966890D01*
X127050156Y-54737002D01*
X127215000Y-54737002D01*
X127215000Y-54629802D01*
X127510001Y-54924804D01*
X127510000Y-78425198D01*
X125315199Y-80620000D01*
X122563178Y-80620000D01*
X122438475Y-80433368D01*
X122231632Y-80226525D01*
X122057240Y-80110000D01*
X122231632Y-79993475D01*
X122438475Y-79786632D01*
X122600990Y-79543411D01*
X122712932Y-79273158D01*
X122770000Y-78986260D01*
X122770000Y-78693740D01*
X122712932Y-78406842D01*
X122600990Y-78136589D01*
X122438475Y-77893368D01*
X122231632Y-77686525D01*
X122057240Y-77570000D01*
X122231632Y-77453475D01*
X122438475Y-77246632D01*
X122600990Y-77003411D01*
X122712932Y-76733158D01*
X122770000Y-76446260D01*
X122770000Y-76153740D01*
X122712932Y-75866842D01*
X122600990Y-75596589D01*
X122438475Y-75353368D01*
X122231632Y-75146525D01*
X121988411Y-74984010D01*
X121718158Y-74872068D01*
X121431260Y-74815000D01*
X121138740Y-74815000D01*
X120851842Y-74872068D01*
X120581589Y-74984010D01*
X120338368Y-75146525D01*
X120131525Y-75353368D01*
X119969010Y-75596589D01*
X119857068Y-75866842D01*
X119800000Y-76153740D01*
X119800000Y-76446260D01*
X119857068Y-76733158D01*
X119969010Y-77003411D01*
X120131525Y-77246632D01*
X120338368Y-77453475D01*
X120512760Y-77570000D01*
X120338368Y-77686525D01*
X120131525Y-77893368D01*
X119969010Y-78136589D01*
X119857068Y-78406842D01*
X119800000Y-78693740D01*
X119800000Y-78986260D01*
X119857068Y-79273158D01*
X119969010Y-79543411D01*
X120131525Y-79786632D01*
X120338368Y-79993475D01*
X120512760Y-80110000D01*
X120338368Y-80226525D01*
X120131525Y-80433368D01*
X119969010Y-80676589D01*
X119857068Y-80946842D01*
X119800000Y-81233740D01*
X119800000Y-81526260D01*
X119857068Y-81813158D01*
X119969010Y-82083411D01*
X120131525Y-82326632D01*
X120338368Y-82533475D01*
X120512760Y-82650000D01*
X120338368Y-82766525D01*
X120131525Y-82973368D01*
X119969010Y-83216589D01*
X119857068Y-83486842D01*
X119800000Y-83773740D01*
X119800000Y-84066260D01*
X119857068Y-84353158D01*
X119969010Y-84623411D01*
X120131525Y-84866632D01*
X120338368Y-85073475D01*
X120520534Y-85195195D01*
X120403645Y-85264822D01*
X120187412Y-85459731D01*
X120013359Y-85693080D01*
X119888175Y-85955901D01*
X119843524Y-86103110D01*
X119964845Y-86333000D01*
X121158000Y-86333000D01*
X121158000Y-86313000D01*
X121412000Y-86313000D01*
X121412000Y-86333000D01*
X122605155Y-86333000D01*
X122726476Y-86103110D01*
X122681825Y-85955901D01*
X122556641Y-85693080D01*
X122382588Y-85459731D01*
X122166355Y-85264822D01*
X122049466Y-85195195D01*
X122231632Y-85073475D01*
X122438475Y-84866632D01*
X122563178Y-84680000D01*
X125592678Y-84680000D01*
X125630000Y-84683676D01*
X125667322Y-84680000D01*
X125667333Y-84680000D01*
X125778986Y-84669003D01*
X125922247Y-84625546D01*
X126054276Y-84554974D01*
X126170001Y-84460001D01*
X126193804Y-84430997D01*
X129416008Y-81208795D01*
X129445001Y-81185001D01*
X129468795Y-81156008D01*
X129468799Y-81156004D01*
X129539973Y-81069277D01*
X129547434Y-81055319D01*
X129610546Y-80937247D01*
X129654003Y-80793986D01*
X129665000Y-80682333D01*
X129665000Y-80682324D01*
X129668676Y-80645001D01*
X129665000Y-80607678D01*
X129665000Y-52742322D01*
X129668676Y-52704999D01*
X129665000Y-52667676D01*
X129665000Y-52667667D01*
X129654003Y-52556014D01*
X129610546Y-52412753D01*
X129539975Y-52280725D01*
X129539974Y-52280723D01*
X129468799Y-52193997D01*
X129445001Y-52164999D01*
X129416004Y-52141202D01*
X127171209Y-49896408D01*
X127215000Y-49676260D01*
X127215000Y-49383740D01*
X127157932Y-49096842D01*
X127045990Y-48826589D01*
X126883475Y-48583368D01*
X126676632Y-48376525D01*
X126494466Y-48254805D01*
X126611355Y-48185178D01*
X126827588Y-47990269D01*
X127001641Y-47756920D01*
X127126825Y-47494099D01*
X127171476Y-47346890D01*
X127050155Y-47117000D01*
X125857000Y-47117000D01*
X125857000Y-47137000D01*
X125603000Y-47137000D01*
X125603000Y-47117000D01*
X124409845Y-47117000D01*
X124288524Y-47346890D01*
X124333175Y-47494099D01*
X124458359Y-47756920D01*
X124632412Y-47990269D01*
X124848645Y-48185178D01*
X124965534Y-48254805D01*
X124783368Y-48376525D01*
X124576525Y-48583368D01*
X124451822Y-48770000D01*
X108507322Y-48770000D01*
X108469999Y-48766324D01*
X108432676Y-48770000D01*
X108432667Y-48770000D01*
X108321014Y-48780997D01*
X108177753Y-48824454D01*
X108045724Y-48895026D01*
X107929999Y-48989999D01*
X107906201Y-49018997D01*
X106763833Y-50161366D01*
X106692802Y-50055060D01*
X106469942Y-49832200D01*
X106429236Y-49805001D01*
X106469942Y-49777802D01*
X106692802Y-49554942D01*
X106867903Y-49292885D01*
X106988514Y-49001704D01*
X107050001Y-48692587D01*
X107050001Y-48377415D01*
X106988514Y-48068298D01*
X106867903Y-47777117D01*
X106692802Y-47515060D01*
X106469942Y-47292200D01*
X106207885Y-47117099D01*
X105916704Y-46996488D01*
X105607587Y-46935001D01*
X105292415Y-46935001D01*
X104983298Y-46996488D01*
X104692117Y-47117099D01*
X104430060Y-47292200D01*
X104207200Y-47515060D01*
X104032099Y-47777117D01*
X103911488Y-48068298D01*
X103850001Y-48377415D01*
X103850001Y-48692587D01*
X103911488Y-49001704D01*
X104032099Y-49292885D01*
X104207200Y-49554942D01*
X104430060Y-49777802D01*
X104470766Y-49805001D01*
X104430060Y-49832200D01*
X104207200Y-50055060D01*
X104032099Y-50317117D01*
X103911488Y-50608298D01*
X103850001Y-50917415D01*
X103850001Y-51232587D01*
X103911488Y-51541704D01*
X104032099Y-51832885D01*
X104207200Y-52094942D01*
X104430060Y-52317802D01*
X104470766Y-52345001D01*
X104430060Y-52372200D01*
X104207200Y-52595060D01*
X104032099Y-52857117D01*
X103911488Y-53148298D01*
X103850001Y-53457415D01*
X103850001Y-53772587D01*
X103911488Y-54081704D01*
X104032099Y-54372885D01*
X104207200Y-54634942D01*
X104430060Y-54857802D01*
X104470766Y-54885001D01*
X104430060Y-54912200D01*
X104207200Y-55135060D01*
X104032099Y-55397117D01*
X103911488Y-55688298D01*
X103850001Y-55997415D01*
X103850001Y-56020200D01*
X103760000Y-55930199D01*
X103760000Y-46314801D01*
X105511004Y-44563798D01*
X105540001Y-44540001D01*
X105566332Y-44507917D01*
X105634974Y-44424277D01*
X105705546Y-44292247D01*
X105705546Y-44292246D01*
X105749003Y-44148986D01*
X105760000Y-44037333D01*
X105760000Y-44037324D01*
X105763676Y-44000001D01*
X105760000Y-43962678D01*
X105760000Y-43600000D01*
X124241928Y-43600000D01*
X124241928Y-45300000D01*
X124254188Y-45424482D01*
X124290498Y-45544180D01*
X124349463Y-45654494D01*
X124428815Y-45751185D01*
X124525506Y-45830537D01*
X124635820Y-45889502D01*
X124716466Y-45913966D01*
X124632412Y-45989731D01*
X124458359Y-46223080D01*
X124333175Y-46485901D01*
X124288524Y-46633110D01*
X124409845Y-46863000D01*
X125603000Y-46863000D01*
X125603000Y-46843000D01*
X125857000Y-46843000D01*
X125857000Y-46863000D01*
X127050155Y-46863000D01*
X127171476Y-46633110D01*
X127126825Y-46485901D01*
X127001641Y-46223080D01*
X126827588Y-45989731D01*
X126743534Y-45913966D01*
X126824180Y-45889502D01*
X126934494Y-45830537D01*
X127031185Y-45751185D01*
X127110537Y-45654494D01*
X127169502Y-45544180D01*
X127205812Y-45424482D01*
X127218072Y-45300000D01*
X127218072Y-43600000D01*
X127205812Y-43475518D01*
X127169502Y-43355820D01*
X127110537Y-43245506D01*
X127031185Y-43148815D01*
X126934494Y-43069463D01*
X126824180Y-43010498D01*
X126704482Y-42974188D01*
X126580000Y-42961928D01*
X124880000Y-42961928D01*
X124755518Y-42974188D01*
X124635820Y-43010498D01*
X124525506Y-43069463D01*
X124428815Y-43148815D01*
X124349463Y-43245506D01*
X124290498Y-43355820D01*
X124254188Y-43475518D01*
X124241928Y-43600000D01*
X105760000Y-43600000D01*
X105760000Y-39037322D01*
X105763676Y-38999999D01*
X105760000Y-38962676D01*
X105760000Y-38962667D01*
X105749003Y-38851014D01*
X105705546Y-38707753D01*
X105634974Y-38575723D01*
X105563799Y-38488997D01*
X105540001Y-38459999D01*
X105511003Y-38436201D01*
X103563804Y-36489003D01*
X103540001Y-36459999D01*
X103424276Y-36365026D01*
X103292247Y-36294454D01*
X103148986Y-36250997D01*
X103037333Y-36240000D01*
X103037322Y-36240000D01*
X103000000Y-36236324D01*
X102962678Y-36240000D01*
X91037322Y-36240000D01*
X90999999Y-36236324D01*
X90962676Y-36240000D01*
X90962667Y-36240000D01*
X90851014Y-36250997D01*
X90707753Y-36294454D01*
X90575724Y-36365026D01*
X90575722Y-36365027D01*
X90575723Y-36365027D01*
X90488996Y-36436201D01*
X90488992Y-36436205D01*
X90459999Y-36459999D01*
X90436205Y-36488992D01*
X88389002Y-38536196D01*
X88359999Y-38559999D01*
X88304871Y-38627174D01*
X88265026Y-38675724D01*
X88247906Y-38707753D01*
X88194454Y-38807754D01*
X88150997Y-38951015D01*
X88140000Y-39062668D01*
X88140000Y-39062678D01*
X88136324Y-39100000D01*
X88140000Y-39137323D01*
X88140000Y-39361821D01*
X87953368Y-39486525D01*
X87746525Y-39693368D01*
X87630000Y-39867760D01*
X87513475Y-39693368D01*
X87306632Y-39486525D01*
X87063411Y-39324010D01*
X86793158Y-39212068D01*
X86506260Y-39155000D01*
X86213740Y-39155000D01*
X85926842Y-39212068D01*
X85656589Y-39324010D01*
X85413368Y-39486525D01*
X85206525Y-39693368D01*
X85044010Y-39936589D01*
X84932068Y-40206842D01*
X84875000Y-40493740D01*
X84875000Y-40786260D01*
X84932068Y-41073158D01*
X85044010Y-41343411D01*
X85206525Y-41586632D01*
X85413368Y-41793475D01*
X85600001Y-41918179D01*
X85600000Y-50322678D01*
X85596324Y-50360000D01*
X85600000Y-50397322D01*
X85600000Y-50397332D01*
X85607961Y-50478159D01*
X84129010Y-48999209D01*
X84190001Y-48692587D01*
X84190001Y-48377415D01*
X84128514Y-48068298D01*
X84007903Y-47777117D01*
X83832802Y-47515060D01*
X83609942Y-47292200D01*
X83347885Y-47117099D01*
X83056704Y-46996488D01*
X82747587Y-46935001D01*
X82432415Y-46935001D01*
X82123298Y-46996488D01*
X81832117Y-47117099D01*
X81570060Y-47292200D01*
X81347200Y-47515060D01*
X81172099Y-47777117D01*
X81051488Y-48068298D01*
X80990001Y-48377415D01*
X27127000Y-48377415D01*
X27127000Y-35002769D01*
X27145664Y-34575308D01*
X27201151Y-34153832D01*
X27293162Y-33738802D01*
X27420991Y-33333380D01*
X27583675Y-32940625D01*
X27779960Y-32563566D01*
X28008371Y-32205032D01*
X28267161Y-31867770D01*
X28554354Y-31554354D01*
X28867770Y-31267161D01*
X29205032Y-31008371D01*
X29563566Y-30779960D01*
X29940625Y-30583675D01*
X30333380Y-30420991D01*
X30738802Y-30293162D01*
X31153832Y-30201151D01*
X31575308Y-30145664D01*
X32002769Y-30127000D01*
X125997231Y-30127000D01*
X126424692Y-30145664D01*
G37*
X126424692Y-30145664D02*
X126846168Y-30201151D01*
X127261198Y-30293162D01*
X127666620Y-30420991D01*
X128059375Y-30583675D01*
X128436434Y-30779960D01*
X128794968Y-31008371D01*
X129132230Y-31267161D01*
X129445646Y-31554354D01*
X129732839Y-31867770D01*
X129991629Y-32205032D01*
X130220040Y-32563566D01*
X130416325Y-32940625D01*
X130579009Y-33333380D01*
X130706838Y-33738802D01*
X130798849Y-34153832D01*
X130854336Y-34575308D01*
X130873000Y-35002769D01*
X130873000Y-98997231D01*
X130854336Y-99424692D01*
X130798849Y-99846168D01*
X130706838Y-100261198D01*
X130579009Y-100666620D01*
X130416325Y-101059375D01*
X130220040Y-101436434D01*
X129991629Y-101794968D01*
X129732839Y-102132230D01*
X129445646Y-102445646D01*
X129132230Y-102732839D01*
X128794968Y-102991629D01*
X128436434Y-103220040D01*
X128059375Y-103416325D01*
X127666620Y-103579009D01*
X127261198Y-103706838D01*
X126846168Y-103798849D01*
X126424692Y-103854336D01*
X125997231Y-103873000D01*
X96794783Y-103873000D01*
X96902096Y-103642745D01*
X96971285Y-103359742D01*
X96827232Y-103127000D01*
X95627000Y-103127000D01*
X95627000Y-103147000D01*
X95373000Y-103147000D01*
X95373000Y-103127000D01*
X95353000Y-103127000D01*
X95353000Y-102873000D01*
X95373000Y-102873000D01*
X95373000Y-101529845D01*
X95627000Y-101529845D01*
X95627000Y-102873000D01*
X96827232Y-102873000D01*
X96971285Y-102640258D01*
X96902096Y-102357255D01*
X96779025Y-102093188D01*
X96606802Y-101858205D01*
X96392046Y-101661336D01*
X96143009Y-101510146D01*
X95869261Y-101410446D01*
X95856890Y-101408524D01*
X95627000Y-101529845D01*
X95373000Y-101529845D01*
X95143110Y-101408524D01*
X95130739Y-101410446D01*
X94856991Y-101510146D01*
X94607954Y-101661336D01*
X94393198Y-101858205D01*
X94392914Y-101858593D01*
X94338405Y-101756614D01*
X94227962Y-101622038D01*
X94093386Y-101511595D01*
X93939850Y-101429528D01*
X93773254Y-101378992D01*
X93600000Y-101361928D01*
X92400000Y-101361928D01*
X92226746Y-101378992D01*
X92060150Y-101429528D01*
X91906614Y-101511595D01*
X91772038Y-101622038D01*
X91661595Y-101756614D01*
X91579528Y-101910150D01*
X91528992Y-102076746D01*
X91511928Y-102250000D01*
X91511928Y-103750000D01*
X91524042Y-103873000D01*
X32002769Y-103873000D01*
X31575308Y-103854336D01*
X31153832Y-103798849D01*
X30738802Y-103706838D01*
X30333380Y-103579009D01*
X29940625Y-103416325D01*
X29563566Y-103220040D01*
X29205032Y-102991629D01*
X28867770Y-102732839D01*
X28554354Y-102445646D01*
X28267161Y-102132230D01*
X28008371Y-101794968D01*
X27779960Y-101436434D01*
X27583675Y-101059375D01*
X27420991Y-100666620D01*
X27293162Y-100261198D01*
X27201151Y-99846168D01*
X27145664Y-99424692D01*
X27127000Y-98997231D01*
X27127000Y-81618981D01*
X80983531Y-81618981D01*
X81026881Y-81931158D01*
X81130301Y-82228880D01*
X81218726Y-82394310D01*
X81479547Y-82485847D01*
X81444086Y-82521308D01*
X81380821Y-82540499D01*
X81270507Y-82599464D01*
X81173816Y-82678816D01*
X81094464Y-82775507D01*
X81035499Y-82885821D01*
X80999189Y-83005519D01*
X80986929Y-83130001D01*
X80986929Y-85060001D01*
X80999189Y-85184483D01*
X81035499Y-85304181D01*
X81094464Y-85414495D01*
X81173816Y-85511186D01*
X81270507Y-85590538D01*
X81380821Y-85649503D01*
X81500519Y-85685813D01*
X81625001Y-85698073D01*
X83555001Y-85698073D01*
X83679483Y-85685813D01*
X83799181Y-85649503D01*
X83909495Y-85590538D01*
X84006186Y-85511186D01*
X84085538Y-85414495D01*
X84144503Y-85304181D01*
X84180813Y-85184483D01*
X84193073Y-85060001D01*
X84193073Y-84850000D01*
X89511928Y-84850000D01*
X89524188Y-84974482D01*
X89560498Y-85094180D01*
X89619463Y-85204494D01*
X89698815Y-85301185D01*
X89795506Y-85380537D01*
X89905820Y-85439502D01*
X90025518Y-85475812D01*
X90150000Y-85488072D01*
X90714250Y-85485000D01*
X90873000Y-85326250D01*
X90873000Y-84127000D01*
X91127000Y-84127000D01*
X91127000Y-85326250D01*
X91285750Y-85485000D01*
X91850000Y-85488072D01*
X91974482Y-85475812D01*
X92094180Y-85439502D01*
X92204494Y-85380537D01*
X92301185Y-85301185D01*
X92380537Y-85204494D01*
X92439502Y-85094180D01*
X92475812Y-84974482D01*
X92488072Y-84850000D01*
X92485000Y-84285750D01*
X92326250Y-84127000D01*
X91127000Y-84127000D01*
X90873000Y-84127000D01*
X89673750Y-84127000D01*
X89515000Y-84285750D01*
X89511928Y-84850000D01*
X84193073Y-84850000D01*
X84193073Y-83130001D01*
X84180813Y-83005519D01*
X84144503Y-82885821D01*
X84085538Y-82775507D01*
X84006186Y-82678816D01*
X83909495Y-82599464D01*
X83799181Y-82540499D01*
X83735916Y-82521308D01*
X83700455Y-82485847D01*
X83961276Y-82394310D01*
X84098669Y-82110660D01*
X84178084Y-81805657D01*
X84196471Y-81491021D01*
X84153121Y-81178844D01*
X84049701Y-80881122D01*
X83961276Y-80715692D01*
X83700453Y-80624154D01*
X82769606Y-81555001D01*
X82783749Y-81569144D01*
X82604144Y-81748749D01*
X82590001Y-81734606D01*
X82575859Y-81748749D01*
X82396254Y-81569144D01*
X82410396Y-81555001D01*
X81479549Y-80624154D01*
X81218726Y-80715692D01*
X81081333Y-80999342D01*
X81001918Y-81304345D01*
X80983531Y-81618981D01*
X27127000Y-81618981D01*
X27127000Y-71410475D01*
X69770000Y-71410475D01*
X69770000Y-71929525D01*
X69871261Y-72438601D01*
X70069893Y-72918141D01*
X70358262Y-73349715D01*
X70725285Y-73716738D01*
X71156859Y-74005107D01*
X71636399Y-74203739D01*
X72145475Y-74305000D01*
X72664525Y-74305000D01*
X73173601Y-74203739D01*
X73653141Y-74005107D01*
X73993905Y-73777415D01*
X80990001Y-73777415D01*
X80990001Y-74092587D01*
X81051488Y-74401704D01*
X81172099Y-74692885D01*
X81347200Y-74954942D01*
X81570060Y-75177802D01*
X81610766Y-75205001D01*
X81570060Y-75232200D01*
X81347200Y-75455060D01*
X81172099Y-75717117D01*
X81051488Y-76008298D01*
X80990001Y-76317415D01*
X80990001Y-76632587D01*
X81051488Y-76941704D01*
X81172099Y-77232885D01*
X81347200Y-77494942D01*
X81570060Y-77717802D01*
X81610766Y-77745001D01*
X81570060Y-77772200D01*
X81347200Y-77995060D01*
X81172099Y-78257117D01*
X81051488Y-78548298D01*
X80990001Y-78857415D01*
X80990001Y-79172587D01*
X81051488Y-79481704D01*
X81172099Y-79772885D01*
X81347200Y-80034942D01*
X81570060Y-80257802D01*
X81695320Y-80341498D01*
X81659154Y-80444549D01*
X82590001Y-81375396D01*
X83520848Y-80444549D01*
X83484682Y-80341498D01*
X83609942Y-80257802D01*
X83832802Y-80034942D01*
X84007903Y-79772885D01*
X84128514Y-79481704D01*
X84190001Y-79172587D01*
X84190001Y-78857415D01*
X84128514Y-78548298D01*
X84007903Y-78257117D01*
X83832802Y-77995060D01*
X83609942Y-77772200D01*
X83569236Y-77745001D01*
X83609942Y-77717802D01*
X83832802Y-77494942D01*
X84007903Y-77232885D01*
X84128514Y-76941704D01*
X84190001Y-76632587D01*
X84190001Y-76317415D01*
X84128514Y-76008298D01*
X84007903Y-75717117D01*
X83832802Y-75455060D01*
X83609942Y-75232200D01*
X83569236Y-75205001D01*
X83609942Y-75177802D01*
X83832802Y-74954942D01*
X84007903Y-74692885D01*
X84128514Y-74401704D01*
X84190001Y-74092587D01*
X84190001Y-73777415D01*
X84128514Y-73468298D01*
X84007903Y-73177117D01*
X83832802Y-72915060D01*
X83609942Y-72692200D01*
X83484682Y-72608504D01*
X83520848Y-72505453D01*
X82590001Y-71574606D01*
X81659154Y-72505453D01*
X81695320Y-72608504D01*
X81570060Y-72692200D01*
X81347200Y-72915060D01*
X81172099Y-73177117D01*
X81051488Y-73468298D01*
X80990001Y-73777415D01*
X73993905Y-73777415D01*
X74084715Y-73716738D01*
X74451738Y-73349715D01*
X74740107Y-72918141D01*
X74938739Y-72438601D01*
X75040000Y-71929525D01*
X75040000Y-71458981D01*
X80983531Y-71458981D01*
X81026881Y-71771158D01*
X81130301Y-72068880D01*
X81218726Y-72234310D01*
X81479549Y-72325848D01*
X82410396Y-71395001D01*
X82769606Y-71395001D01*
X83700453Y-72325848D01*
X83961276Y-72234310D01*
X84098669Y-71950660D01*
X84178084Y-71645657D01*
X84196471Y-71331021D01*
X84153121Y-71018844D01*
X84049701Y-70721122D01*
X83961276Y-70555692D01*
X83700453Y-70464154D01*
X82769606Y-71395001D01*
X82410396Y-71395001D01*
X81479549Y-70464154D01*
X81218726Y-70555692D01*
X81081333Y-70839342D01*
X81001918Y-71144345D01*
X80983531Y-71458981D01*
X75040000Y-71458981D01*
X75040000Y-71410475D01*
X74938739Y-70901399D01*
X74740107Y-70421859D01*
X74451738Y-69990285D01*
X74084715Y-69623262D01*
X73653141Y-69334893D01*
X73173601Y-69136261D01*
X72664525Y-69035000D01*
X72145475Y-69035000D01*
X71636399Y-69136261D01*
X71156859Y-69334893D01*
X70725285Y-69623262D01*
X70358262Y-69990285D01*
X70069893Y-70421859D01*
X69871261Y-70901399D01*
X69770000Y-71410475D01*
X27127000Y-71410475D01*
X27127000Y-67118816D01*
X63870000Y-67118816D01*
X63870000Y-67421184D01*
X63928989Y-67717743D01*
X64044701Y-67997095D01*
X64212688Y-68248505D01*
X64426495Y-68462312D01*
X64512831Y-68520000D01*
X64426495Y-68577688D01*
X64212688Y-68791495D01*
X64044701Y-69042905D01*
X63928989Y-69322257D01*
X63870000Y-69618816D01*
X63870000Y-69921184D01*
X63928989Y-70217743D01*
X64044701Y-70497095D01*
X64212688Y-70748505D01*
X64426495Y-70962312D01*
X64677905Y-71130299D01*
X64957257Y-71246011D01*
X65253816Y-71305000D01*
X65556184Y-71305000D01*
X65852743Y-71246011D01*
X66132095Y-71130299D01*
X66383505Y-70962312D01*
X66597312Y-70748505D01*
X66765299Y-70497095D01*
X66881011Y-70217743D01*
X66940000Y-69921184D01*
X66940000Y-69618816D01*
X66881011Y-69322257D01*
X66765299Y-69042905D01*
X66597312Y-68791495D01*
X66383505Y-68577688D01*
X66297169Y-68520000D01*
X66383505Y-68462312D01*
X66597312Y-68248505D01*
X66765299Y-67997095D01*
X66881011Y-67717743D01*
X66940000Y-67421184D01*
X66940000Y-67118816D01*
X66881011Y-66822257D01*
X66765299Y-66542905D01*
X66597312Y-66291495D01*
X66383505Y-66077688D01*
X66240690Y-65982262D01*
X66289475Y-65834080D01*
X65405000Y-64949605D01*
X64520525Y-65834080D01*
X64569310Y-65982262D01*
X64426495Y-66077688D01*
X64212688Y-66291495D01*
X64044701Y-66542905D01*
X63928989Y-66822257D01*
X63870000Y-67118816D01*
X27127000Y-67118816D01*
X27127000Y-64836553D01*
X63864009Y-64836553D01*
X63906603Y-65135907D01*
X64006778Y-65421199D01*
X64086739Y-65570792D01*
X64340920Y-65654475D01*
X65225395Y-64770000D01*
X65584605Y-64770000D01*
X66469080Y-65654475D01*
X66723261Y-65570792D01*
X66854158Y-65298225D01*
X66929365Y-65005358D01*
X66945991Y-64703447D01*
X66903397Y-64404093D01*
X66803222Y-64118801D01*
X66723261Y-63969208D01*
X66469080Y-63885525D01*
X65584605Y-64770000D01*
X65225395Y-64770000D01*
X64340920Y-63885525D01*
X64086739Y-63969208D01*
X63955842Y-64241775D01*
X63880635Y-64534642D01*
X63864009Y-64836553D01*
X27127000Y-64836553D01*
X27127000Y-63705920D01*
X64520525Y-63705920D01*
X65405000Y-64590395D01*
X66289475Y-63705920D01*
X66205792Y-63451739D01*
X65933225Y-63320842D01*
X65640358Y-63245635D01*
X65338447Y-63229009D01*
X65039093Y-63271603D01*
X64753801Y-63371778D01*
X64604208Y-63451739D01*
X64520525Y-63705920D01*
X27127000Y-63705920D01*
X27127000Y-62610475D01*
X69770000Y-62610475D01*
X69770000Y-63129525D01*
X69871261Y-63638601D01*
X70069893Y-64118141D01*
X70358262Y-64549715D01*
X70725285Y-64916738D01*
X71156859Y-65205107D01*
X71636399Y-65403739D01*
X72145475Y-65505000D01*
X72664525Y-65505000D01*
X73173601Y-65403739D01*
X73653141Y-65205107D01*
X74084715Y-64916738D01*
X74451738Y-64549715D01*
X74740107Y-64118141D01*
X74938739Y-63638601D01*
X75040000Y-63129525D01*
X75040000Y-62610475D01*
X74938739Y-62101399D01*
X74740107Y-61621859D01*
X74451738Y-61190285D01*
X74084715Y-60823262D01*
X73653141Y-60534893D01*
X73173601Y-60336261D01*
X72664525Y-60235000D01*
X72145475Y-60235000D01*
X71636399Y-60336261D01*
X71156859Y-60534893D01*
X70725285Y-60823262D01*
X70358262Y-61190285D01*
X70069893Y-61621859D01*
X69871261Y-62101399D01*
X69770000Y-62610475D01*
X27127000Y-62610475D01*
X27127000Y-48377415D01*
X80990001Y-48377415D01*
X80990001Y-48692587D01*
X81051488Y-49001704D01*
X81172099Y-49292885D01*
X81347200Y-49554942D01*
X81570060Y-49777802D01*
X81610766Y-49805001D01*
X81570060Y-49832200D01*
X81347200Y-50055060D01*
X81172099Y-50317117D01*
X81051488Y-50608298D01*
X80990001Y-50917415D01*
X80990001Y-51232587D01*
X81051488Y-51541704D01*
X81172099Y-51832885D01*
X81347200Y-52094942D01*
X81570060Y-52317802D01*
X81610766Y-52345001D01*
X81570060Y-52372200D01*
X81347200Y-52595060D01*
X81172099Y-52857117D01*
X81051488Y-53148298D01*
X80990001Y-53457415D01*
X80990001Y-53772587D01*
X81051488Y-54081704D01*
X81172099Y-54372885D01*
X81347200Y-54634942D01*
X81570060Y-54857802D01*
X81610766Y-54885001D01*
X81570060Y-54912200D01*
X81347200Y-55135060D01*
X81172099Y-55397117D01*
X81051488Y-55688298D01*
X80990001Y-55997415D01*
X80990001Y-56312587D01*
X81051488Y-56621704D01*
X81172099Y-56912885D01*
X81347200Y-57174942D01*
X81570060Y-57397802D01*
X81610766Y-57425001D01*
X81570060Y-57452200D01*
X81347200Y-57675060D01*
X81172099Y-57937117D01*
X81051488Y-58228298D01*
X80990001Y-58537415D01*
X80990001Y-58852587D01*
X81051488Y-59161704D01*
X81172099Y-59452885D01*
X81347200Y-59714942D01*
X81570060Y-59937802D01*
X81610766Y-59965001D01*
X81570060Y-59992200D01*
X81347200Y-60215060D01*
X81172099Y-60477117D01*
X81051488Y-60768298D01*
X80990001Y-61077415D01*
X80990001Y-61392587D01*
X81051488Y-61701704D01*
X81172099Y-61992885D01*
X81347200Y-62254942D01*
X81570060Y-62477802D01*
X81610766Y-62505001D01*
X81570060Y-62532200D01*
X81347200Y-62755060D01*
X81172099Y-63017117D01*
X81051488Y-63308298D01*
X80990001Y-63617415D01*
X80990001Y-63932587D01*
X81051488Y-64241704D01*
X81172099Y-64532885D01*
X81347200Y-64794942D01*
X81570060Y-65017802D01*
X81610766Y-65045001D01*
X81570060Y-65072200D01*
X81347200Y-65295060D01*
X81172099Y-65557117D01*
X81051488Y-65848298D01*
X80990001Y-66157415D01*
X80990001Y-66472587D01*
X81051488Y-66781704D01*
X81172099Y-67072885D01*
X81347200Y-67334942D01*
X81570060Y-67557802D01*
X81610766Y-67585001D01*
X81570060Y-67612200D01*
X81347200Y-67835060D01*
X81172099Y-68097117D01*
X81051488Y-68388298D01*
X80990001Y-68697415D01*
X80990001Y-69012587D01*
X81051488Y-69321704D01*
X81172099Y-69612885D01*
X81347200Y-69874942D01*
X81570060Y-70097802D01*
X81695320Y-70181498D01*
X81659154Y-70284549D01*
X82590001Y-71215396D01*
X83520848Y-70284549D01*
X83484682Y-70181498D01*
X83609942Y-70097802D01*
X83832802Y-69874942D01*
X84007903Y-69612885D01*
X84128514Y-69321704D01*
X84190001Y-69012587D01*
X84190001Y-68697415D01*
X84128514Y-68388298D01*
X84007903Y-68097117D01*
X83832802Y-67835060D01*
X83609942Y-67612200D01*
X83569236Y-67585001D01*
X83609942Y-67557802D01*
X83832802Y-67334942D01*
X84007903Y-67072885D01*
X84128514Y-66781704D01*
X84190001Y-66472587D01*
X84190001Y-66157415D01*
X84128514Y-65848298D01*
X84007903Y-65557117D01*
X83832802Y-65295060D01*
X83609942Y-65072200D01*
X83569236Y-65045001D01*
X83609942Y-65017802D01*
X83832802Y-64794942D01*
X84007903Y-64532885D01*
X84128514Y-64241704D01*
X84190001Y-63932587D01*
X84190001Y-63617415D01*
X84128514Y-63308298D01*
X84007903Y-63017117D01*
X83832802Y-62755060D01*
X83609942Y-62532200D01*
X83569236Y-62505001D01*
X83609942Y-62477802D01*
X83832802Y-62254942D01*
X84007903Y-61992885D01*
X84128514Y-61701704D01*
X84190001Y-61392587D01*
X84190001Y-61369802D01*
X88240000Y-65419802D01*
X88240000Y-66181821D01*
X88053368Y-66306525D01*
X87846525Y-66513368D01*
X87684010Y-66756589D01*
X87572068Y-67026842D01*
X87515000Y-67313740D01*
X87515000Y-67606260D01*
X87572068Y-67893158D01*
X87684010Y-68163411D01*
X87846525Y-68406632D01*
X87978380Y-68538487D01*
X87905820Y-68560498D01*
X87795506Y-68619463D01*
X87698815Y-68698815D01*
X87619463Y-68795506D01*
X87560498Y-68905820D01*
X87524188Y-69025518D01*
X87511928Y-69150000D01*
X87511928Y-70850000D01*
X87524188Y-70974482D01*
X87560498Y-71094180D01*
X87619463Y-71204494D01*
X87698815Y-71301185D01*
X87795506Y-71380537D01*
X87905820Y-71439502D01*
X88025518Y-71475812D01*
X88150000Y-71488072D01*
X89850000Y-71488072D01*
X89974482Y-71475812D01*
X90094180Y-71439502D01*
X90204494Y-71380537D01*
X90301185Y-71301185D01*
X90380537Y-71204494D01*
X90439502Y-71094180D01*
X90463966Y-71013534D01*
X90539731Y-71097588D01*
X90773080Y-71271641D01*
X91035901Y-71396825D01*
X91183110Y-71441476D01*
X91413000Y-71320155D01*
X91413000Y-70127000D01*
X91393000Y-70127000D01*
X91393000Y-69873000D01*
X91413000Y-69873000D01*
X91413000Y-69853000D01*
X91667000Y-69853000D01*
X91667000Y-69873000D01*
X91687000Y-69873000D01*
X91687000Y-70127000D01*
X91667000Y-70127000D01*
X91667000Y-71320155D01*
X91896890Y-71441476D01*
X92044099Y-71396825D01*
X92306920Y-71271641D01*
X92540269Y-71097588D01*
X92735178Y-70881355D01*
X92804805Y-70764466D01*
X92926525Y-70946632D01*
X93133368Y-71153475D01*
X93345001Y-71294883D01*
X93345001Y-72453885D01*
X93341444Y-72490000D01*
X93355635Y-72634085D01*
X93394947Y-72763677D01*
X93397664Y-72772633D01*
X93465914Y-72900320D01*
X93557763Y-73012238D01*
X93585808Y-73035254D01*
X100865000Y-80314447D01*
X100865000Y-82043314D01*
X100852237Y-82027762D01*
X100824197Y-82004750D01*
X99785258Y-80965812D01*
X99762238Y-80937762D01*
X99650320Y-80845913D01*
X99522633Y-80777663D01*
X99384085Y-80735635D01*
X99276105Y-80725000D01*
X99240000Y-80721444D01*
X99203895Y-80725000D01*
X98294883Y-80725000D01*
X98153475Y-80513368D01*
X97946632Y-80306525D01*
X97703411Y-80144010D01*
X97433158Y-80032068D01*
X97146260Y-79975000D01*
X96853740Y-79975000D01*
X96566842Y-80032068D01*
X96296589Y-80144010D01*
X96053368Y-80306525D01*
X95846525Y-80513368D01*
X95684010Y-80756589D01*
X95572068Y-81026842D01*
X95515000Y-81313740D01*
X95515000Y-81606260D01*
X95572068Y-81893158D01*
X95684010Y-82163411D01*
X95846525Y-82406632D01*
X95978380Y-82538487D01*
X95905820Y-82560498D01*
X95795506Y-82619463D01*
X95698815Y-82698815D01*
X95619463Y-82795506D01*
X95560498Y-82905820D01*
X95524188Y-83025518D01*
X95511928Y-83150000D01*
X95511928Y-84850000D01*
X95524188Y-84974482D01*
X95560498Y-85094180D01*
X95619463Y-85204494D01*
X95698815Y-85301185D01*
X95795506Y-85380537D01*
X95905820Y-85439502D01*
X96025518Y-85475812D01*
X96150000Y-85488072D01*
X97850000Y-85488072D01*
X97974482Y-85475812D01*
X98094180Y-85439502D01*
X98204494Y-85380537D01*
X98301185Y-85301185D01*
X98380537Y-85204494D01*
X98439502Y-85094180D01*
X98475812Y-84974482D01*
X98488072Y-84850000D01*
X98488072Y-83150000D01*
X98475812Y-83025518D01*
X98439502Y-82905820D01*
X98380537Y-82795506D01*
X98301185Y-82698815D01*
X98204494Y-82619463D01*
X98094180Y-82560498D01*
X98021620Y-82538487D01*
X98153475Y-82406632D01*
X98294883Y-82195000D01*
X98935554Y-82195000D01*
X99595000Y-82854447D01*
X99595001Y-86323885D01*
X99591444Y-86360000D01*
X99605635Y-86504085D01*
X99630084Y-86584680D01*
X99647664Y-86642633D01*
X99715914Y-86770320D01*
X99807763Y-86882238D01*
X99835808Y-86905254D01*
X99835873Y-86905319D01*
X99731105Y-86895000D01*
X99695000Y-86891444D01*
X99658895Y-86895000D01*
X95554447Y-86895000D01*
X94715000Y-86055554D01*
X94715000Y-80681094D01*
X94718555Y-80644999D01*
X94715000Y-80608904D01*
X94715000Y-80608895D01*
X94704365Y-80500915D01*
X94662337Y-80362367D01*
X94594087Y-80234680D01*
X94529507Y-80155990D01*
X94525253Y-80150806D01*
X94525250Y-80150803D01*
X94502237Y-80122762D01*
X94474197Y-80099750D01*
X92800258Y-78425812D01*
X92777238Y-78397762D01*
X92665320Y-78305913D01*
X92537633Y-78237663D01*
X92399085Y-78195635D01*
X92295149Y-78185398D01*
X92153475Y-77973368D01*
X91946632Y-77766525D01*
X91703411Y-77604010D01*
X91433158Y-77492068D01*
X91146260Y-77435000D01*
X90853740Y-77435000D01*
X90566842Y-77492068D01*
X90296589Y-77604010D01*
X90053368Y-77766525D01*
X89846525Y-77973368D01*
X89684010Y-78216589D01*
X89572068Y-78486842D01*
X89515000Y-78773740D01*
X89515000Y-79066260D01*
X89572068Y-79353158D01*
X89684010Y-79623411D01*
X89846525Y-79866632D01*
X90053368Y-80073475D01*
X90227760Y-80190000D01*
X90053368Y-80306525D01*
X89846525Y-80513368D01*
X89684010Y-80756589D01*
X89572068Y-81026842D01*
X89515000Y-81313740D01*
X89515000Y-81606260D01*
X89572068Y-81893158D01*
X89684010Y-82163411D01*
X89846525Y-82406632D01*
X89978380Y-82538487D01*
X89905820Y-82560498D01*
X89795506Y-82619463D01*
X89698815Y-82698815D01*
X89619463Y-82795506D01*
X89560498Y-82905820D01*
X89524188Y-83025518D01*
X89511928Y-83150000D01*
X89515000Y-83714250D01*
X89673750Y-83873000D01*
X90873000Y-83873000D01*
X90873000Y-83853000D01*
X91127000Y-83853000D01*
X91127000Y-83873000D01*
X92326250Y-83873000D01*
X92485000Y-83714250D01*
X92488072Y-83150000D01*
X92475812Y-83025518D01*
X92439502Y-82905820D01*
X92380537Y-82795506D01*
X92301185Y-82698815D01*
X92204494Y-82619463D01*
X92094180Y-82560498D01*
X92021620Y-82538487D01*
X92153475Y-82406632D01*
X92315990Y-82163411D01*
X92427932Y-81893158D01*
X92485000Y-81606260D01*
X92485000Y-81313740D01*
X92427932Y-81026842D01*
X92315990Y-80756589D01*
X92153475Y-80513368D01*
X91946632Y-80306525D01*
X91772240Y-80190000D01*
X91946632Y-80073475D01*
X92153475Y-79866632D01*
X92156964Y-79861410D01*
X93245000Y-80949447D01*
X93245001Y-86323885D01*
X93241444Y-86360000D01*
X93255635Y-86504085D01*
X93280084Y-86584680D01*
X93297664Y-86642633D01*
X93365914Y-86770320D01*
X93457763Y-86882238D01*
X93485808Y-86905254D01*
X94704746Y-88124193D01*
X94727762Y-88152238D01*
X94839680Y-88244087D01*
X94967367Y-88312337D01*
X95105915Y-88354365D01*
X95213895Y-88365000D01*
X95213904Y-88365000D01*
X95249999Y-88368555D01*
X95286094Y-88365000D01*
X99390554Y-88365000D01*
X102324746Y-91299193D01*
X102347762Y-91327238D01*
X102459680Y-91419087D01*
X102587367Y-91487337D01*
X102683886Y-91516616D01*
X102725914Y-91529365D01*
X102869999Y-91543556D01*
X102906104Y-91540000D01*
X108548895Y-91540000D01*
X108585000Y-91543556D01*
X108621105Y-91540000D01*
X108729085Y-91529365D01*
X108867633Y-91487337D01*
X108995320Y-91419087D01*
X109107238Y-91327238D01*
X109130259Y-91299187D01*
X112279446Y-88150000D01*
X119796928Y-88150000D01*
X119796928Y-89850000D01*
X119809188Y-89974482D01*
X119845498Y-90094180D01*
X119904463Y-90204494D01*
X119983815Y-90301185D01*
X120080506Y-90380537D01*
X120190820Y-90439502D01*
X120310518Y-90475812D01*
X120435000Y-90488072D01*
X122135000Y-90488072D01*
X122259482Y-90475812D01*
X122379180Y-90439502D01*
X122489494Y-90380537D01*
X122586185Y-90301185D01*
X122665537Y-90204494D01*
X122724502Y-90094180D01*
X122760812Y-89974482D01*
X122773072Y-89850000D01*
X122773072Y-88150000D01*
X122760812Y-88025518D01*
X122724502Y-87905820D01*
X122665537Y-87795506D01*
X122586185Y-87698815D01*
X122489494Y-87619463D01*
X122379180Y-87560498D01*
X122298534Y-87536034D01*
X122382588Y-87460269D01*
X122556641Y-87226920D01*
X122681825Y-86964099D01*
X122726476Y-86816890D01*
X122605155Y-86587000D01*
X121412000Y-86587000D01*
X121412000Y-86607000D01*
X121158000Y-86607000D01*
X121158000Y-86587000D01*
X119964845Y-86587000D01*
X119843524Y-86816890D01*
X119888175Y-86964099D01*
X120013359Y-87226920D01*
X120187412Y-87460269D01*
X120271466Y-87536034D01*
X120190820Y-87560498D01*
X120080506Y-87619463D01*
X119983815Y-87698815D01*
X119904463Y-87795506D01*
X119845498Y-87905820D01*
X119809188Y-88025518D01*
X119796928Y-88150000D01*
X112279446Y-88150000D01*
X112889197Y-87540250D01*
X112917237Y-87517238D01*
X112940250Y-87489197D01*
X112940253Y-87489194D01*
X113009087Y-87405320D01*
X113077337Y-87277634D01*
X113119365Y-87139085D01*
X113133556Y-86995000D01*
X113130000Y-86958895D01*
X113130000Y-82219446D01*
X117334197Y-78015250D01*
X117362237Y-77992238D01*
X117385250Y-77964197D01*
X117385253Y-77964194D01*
X117454086Y-77880321D01*
X117454087Y-77880320D01*
X117522337Y-77752633D01*
X117564365Y-77614085D01*
X117575000Y-77506105D01*
X117575000Y-77506096D01*
X117578555Y-77470001D01*
X117575000Y-77433906D01*
X117575000Y-68884446D01*
X118414447Y-68045000D01*
X124435117Y-68045000D01*
X124576525Y-68256632D01*
X124783368Y-68463475D01*
X125026589Y-68625990D01*
X125296842Y-68737932D01*
X125583740Y-68795000D01*
X125876260Y-68795000D01*
X126163158Y-68737932D01*
X126433411Y-68625990D01*
X126676632Y-68463475D01*
X126883475Y-68256632D01*
X127045990Y-68013411D01*
X127157932Y-67743158D01*
X127215000Y-67456260D01*
X127215000Y-67163740D01*
X127157932Y-66876842D01*
X127045990Y-66606589D01*
X126883475Y-66363368D01*
X126676632Y-66156525D01*
X126502240Y-66040000D01*
X126676632Y-65923475D01*
X126883475Y-65716632D01*
X127045990Y-65473411D01*
X127157932Y-65203158D01*
X127215000Y-64916260D01*
X127215000Y-64623740D01*
X127157932Y-64336842D01*
X127045990Y-64066589D01*
X126883475Y-63823368D01*
X126676632Y-63616525D01*
X126502240Y-63500000D01*
X126676632Y-63383475D01*
X126883475Y-63176632D01*
X127045990Y-62933411D01*
X127157932Y-62663158D01*
X127215000Y-62376260D01*
X127215000Y-62083740D01*
X127157932Y-61796842D01*
X127045990Y-61526589D01*
X126883475Y-61283368D01*
X126676632Y-61076525D01*
X126502240Y-60960000D01*
X126676632Y-60843475D01*
X126883475Y-60636632D01*
X127045990Y-60393411D01*
X127157932Y-60123158D01*
X127215000Y-59836260D01*
X127215000Y-59543740D01*
X127157932Y-59256842D01*
X127045990Y-58986589D01*
X126883475Y-58743368D01*
X126676632Y-58536525D01*
X126502240Y-58420000D01*
X126676632Y-58303475D01*
X126883475Y-58096632D01*
X127045990Y-57853411D01*
X127157932Y-57583158D01*
X127215000Y-57296260D01*
X127215000Y-57003740D01*
X127157932Y-56716842D01*
X127045990Y-56446589D01*
X126883475Y-56203368D01*
X126676632Y-55996525D01*
X126494466Y-55874805D01*
X126611355Y-55805178D01*
X126827588Y-55610269D01*
X127001641Y-55376920D01*
X127126825Y-55114099D01*
X127171476Y-54966890D01*
X127050156Y-54737002D01*
X127215000Y-54737002D01*
X127215000Y-54629802D01*
X127510001Y-54924804D01*
X127510000Y-78425198D01*
X125315199Y-80620000D01*
X122563178Y-80620000D01*
X122438475Y-80433368D01*
X122231632Y-80226525D01*
X122057240Y-80110000D01*
X122231632Y-79993475D01*
X122438475Y-79786632D01*
X122600990Y-79543411D01*
X122712932Y-79273158D01*
X122770000Y-78986260D01*
X122770000Y-78693740D01*
X122712932Y-78406842D01*
X122600990Y-78136589D01*
X122438475Y-77893368D01*
X122231632Y-77686525D01*
X122057240Y-77570000D01*
X122231632Y-77453475D01*
X122438475Y-77246632D01*
X122600990Y-77003411D01*
X122712932Y-76733158D01*
X122770000Y-76446260D01*
X122770000Y-76153740D01*
X122712932Y-75866842D01*
X122600990Y-75596589D01*
X122438475Y-75353368D01*
X122231632Y-75146525D01*
X121988411Y-74984010D01*
X121718158Y-74872068D01*
X121431260Y-74815000D01*
X121138740Y-74815000D01*
X120851842Y-74872068D01*
X120581589Y-74984010D01*
X120338368Y-75146525D01*
X120131525Y-75353368D01*
X119969010Y-75596589D01*
X119857068Y-75866842D01*
X119800000Y-76153740D01*
X119800000Y-76446260D01*
X119857068Y-76733158D01*
X119969010Y-77003411D01*
X120131525Y-77246632D01*
X120338368Y-77453475D01*
X120512760Y-77570000D01*
X120338368Y-77686525D01*
X120131525Y-77893368D01*
X119969010Y-78136589D01*
X119857068Y-78406842D01*
X119800000Y-78693740D01*
X119800000Y-78986260D01*
X119857068Y-79273158D01*
X119969010Y-79543411D01*
X120131525Y-79786632D01*
X120338368Y-79993475D01*
X120512760Y-80110000D01*
X120338368Y-80226525D01*
X120131525Y-80433368D01*
X119969010Y-80676589D01*
X119857068Y-80946842D01*
X119800000Y-81233740D01*
X119800000Y-81526260D01*
X119857068Y-81813158D01*
X119969010Y-82083411D01*
X120131525Y-82326632D01*
X120338368Y-82533475D01*
X120512760Y-82650000D01*
X120338368Y-82766525D01*
X120131525Y-82973368D01*
X119969010Y-83216589D01*
X119857068Y-83486842D01*
X119800000Y-83773740D01*
X119800000Y-84066260D01*
X119857068Y-84353158D01*
X119969010Y-84623411D01*
X120131525Y-84866632D01*
X120338368Y-85073475D01*
X120520534Y-85195195D01*
X120403645Y-85264822D01*
X120187412Y-85459731D01*
X120013359Y-85693080D01*
X119888175Y-85955901D01*
X119843524Y-86103110D01*
X119964845Y-86333000D01*
X121158000Y-86333000D01*
X121158000Y-86313000D01*
X121412000Y-86313000D01*
X121412000Y-86333000D01*
X122605155Y-86333000D01*
X122726476Y-86103110D01*
X122681825Y-85955901D01*
X122556641Y-85693080D01*
X122382588Y-85459731D01*
X122166355Y-85264822D01*
X122049466Y-85195195D01*
X122231632Y-85073475D01*
X122438475Y-84866632D01*
X122563178Y-84680000D01*
X125592678Y-84680000D01*
X125630000Y-84683676D01*
X125667322Y-84680000D01*
X125667333Y-84680000D01*
X125778986Y-84669003D01*
X125922247Y-84625546D01*
X126054276Y-84554974D01*
X126170001Y-84460001D01*
X126193804Y-84430997D01*
X129416008Y-81208795D01*
X129445001Y-81185001D01*
X129468795Y-81156008D01*
X129468799Y-81156004D01*
X129539973Y-81069277D01*
X129547434Y-81055319D01*
X129610546Y-80937247D01*
X129654003Y-80793986D01*
X129665000Y-80682333D01*
X129665000Y-80682324D01*
X129668676Y-80645001D01*
X129665000Y-80607678D01*
X129665000Y-52742322D01*
X129668676Y-52704999D01*
X129665000Y-52667676D01*
X129665000Y-52667667D01*
X129654003Y-52556014D01*
X129610546Y-52412753D01*
X129539975Y-52280725D01*
X129539974Y-52280723D01*
X129468799Y-52193997D01*
X129445001Y-52164999D01*
X129416004Y-52141202D01*
X127171209Y-49896408D01*
X127215000Y-49676260D01*
X127215000Y-49383740D01*
X127157932Y-49096842D01*
X127045990Y-48826589D01*
X126883475Y-48583368D01*
X126676632Y-48376525D01*
X126494466Y-48254805D01*
X126611355Y-48185178D01*
X126827588Y-47990269D01*
X127001641Y-47756920D01*
X127126825Y-47494099D01*
X127171476Y-47346890D01*
X127050155Y-47117000D01*
X125857000Y-47117000D01*
X125857000Y-47137000D01*
X125603000Y-47137000D01*
X125603000Y-47117000D01*
X124409845Y-47117000D01*
X124288524Y-47346890D01*
X124333175Y-47494099D01*
X124458359Y-47756920D01*
X124632412Y-47990269D01*
X124848645Y-48185178D01*
X124965534Y-48254805D01*
X124783368Y-48376525D01*
X124576525Y-48583368D01*
X124451822Y-48770000D01*
X108507322Y-48770000D01*
X108469999Y-48766324D01*
X108432676Y-48770000D01*
X108432667Y-48770000D01*
X108321014Y-48780997D01*
X108177753Y-48824454D01*
X108045724Y-48895026D01*
X107929999Y-48989999D01*
X107906201Y-49018997D01*
X106763833Y-50161366D01*
X106692802Y-50055060D01*
X106469942Y-49832200D01*
X106429236Y-49805001D01*
X106469942Y-49777802D01*
X106692802Y-49554942D01*
X106867903Y-49292885D01*
X106988514Y-49001704D01*
X107050001Y-48692587D01*
X107050001Y-48377415D01*
X106988514Y-48068298D01*
X106867903Y-47777117D01*
X106692802Y-47515060D01*
X106469942Y-47292200D01*
X106207885Y-47117099D01*
X105916704Y-46996488D01*
X105607587Y-46935001D01*
X105292415Y-46935001D01*
X104983298Y-46996488D01*
X104692117Y-47117099D01*
X104430060Y-47292200D01*
X104207200Y-47515060D01*
X104032099Y-47777117D01*
X103911488Y-48068298D01*
X103850001Y-48377415D01*
X103850001Y-48692587D01*
X103911488Y-49001704D01*
X104032099Y-49292885D01*
X104207200Y-49554942D01*
X104430060Y-49777802D01*
X104470766Y-49805001D01*
X104430060Y-49832200D01*
X104207200Y-50055060D01*
X104032099Y-50317117D01*
X103911488Y-50608298D01*
X103850001Y-50917415D01*
X103850001Y-51232587D01*
X103911488Y-51541704D01*
X104032099Y-51832885D01*
X104207200Y-52094942D01*
X104430060Y-52317802D01*
X104470766Y-52345001D01*
X104430060Y-52372200D01*
X104207200Y-52595060D01*
X104032099Y-52857117D01*
X103911488Y-53148298D01*
X103850001Y-53457415D01*
X103850001Y-53772587D01*
X103911488Y-54081704D01*
X104032099Y-54372885D01*
X104207200Y-54634942D01*
X104430060Y-54857802D01*
X104470766Y-54885001D01*
X104430060Y-54912200D01*
X104207200Y-55135060D01*
X104032099Y-55397117D01*
X103911488Y-55688298D01*
X103850001Y-55997415D01*
X103850001Y-56020200D01*
X103760000Y-55930199D01*
X103760000Y-46314801D01*
X105511004Y-44563798D01*
X105540001Y-44540001D01*
X105566332Y-44507917D01*
X105634974Y-44424277D01*
X105705546Y-44292247D01*
X105705546Y-44292246D01*
X105749003Y-44148986D01*
X105760000Y-44037333D01*
X105760000Y-44037324D01*
X105763676Y-44000001D01*
X105760000Y-43962678D01*
X105760000Y-43600000D01*
X124241928Y-43600000D01*
X124241928Y-45300000D01*
X124254188Y-45424482D01*
X124290498Y-45544180D01*
X124349463Y-45654494D01*
X124428815Y-45751185D01*
X124525506Y-45830537D01*
X124635820Y-45889502D01*
X124716466Y-45913966D01*
X124632412Y-45989731D01*
X124458359Y-46223080D01*
X124333175Y-46485901D01*
X124288524Y-46633110D01*
X124409845Y-46863000D01*
X125603000Y-46863000D01*
X125603000Y-46843000D01*
X125857000Y-46843000D01*
X125857000Y-46863000D01*
X127050155Y-46863000D01*
X127171476Y-46633110D01*
X127126825Y-46485901D01*
X127001641Y-46223080D01*
X126827588Y-45989731D01*
X126743534Y-45913966D01*
X126824180Y-45889502D01*
X126934494Y-45830537D01*
X127031185Y-45751185D01*
X127110537Y-45654494D01*
X127169502Y-45544180D01*
X127205812Y-45424482D01*
X127218072Y-45300000D01*
X127218072Y-43600000D01*
X127205812Y-43475518D01*
X127169502Y-43355820D01*
X127110537Y-43245506D01*
X127031185Y-43148815D01*
X126934494Y-43069463D01*
X126824180Y-43010498D01*
X126704482Y-42974188D01*
X126580000Y-42961928D01*
X124880000Y-42961928D01*
X124755518Y-42974188D01*
X124635820Y-43010498D01*
X124525506Y-43069463D01*
X124428815Y-43148815D01*
X124349463Y-43245506D01*
X124290498Y-43355820D01*
X124254188Y-43475518D01*
X124241928Y-43600000D01*
X105760000Y-43600000D01*
X105760000Y-39037322D01*
X105763676Y-38999999D01*
X105760000Y-38962676D01*
X105760000Y-38962667D01*
X105749003Y-38851014D01*
X105705546Y-38707753D01*
X105634974Y-38575723D01*
X105563799Y-38488997D01*
X105540001Y-38459999D01*
X105511003Y-38436201D01*
X103563804Y-36489003D01*
X103540001Y-36459999D01*
X103424276Y-36365026D01*
X103292247Y-36294454D01*
X103148986Y-36250997D01*
X103037333Y-36240000D01*
X103037322Y-36240000D01*
X103000000Y-36236324D01*
X102962678Y-36240000D01*
X91037322Y-36240000D01*
X90999999Y-36236324D01*
X90962676Y-36240000D01*
X90962667Y-36240000D01*
X90851014Y-36250997D01*
X90707753Y-36294454D01*
X90575724Y-36365026D01*
X90575722Y-36365027D01*
X90575723Y-36365027D01*
X90488996Y-36436201D01*
X90488992Y-36436205D01*
X90459999Y-36459999D01*
X90436205Y-36488992D01*
X88389002Y-38536196D01*
X88359999Y-38559999D01*
X88304871Y-38627174D01*
X88265026Y-38675724D01*
X88247906Y-38707753D01*
X88194454Y-38807754D01*
X88150997Y-38951015D01*
X88140000Y-39062668D01*
X88140000Y-39062678D01*
X88136324Y-39100000D01*
X88140000Y-39137323D01*
X88140000Y-39361821D01*
X87953368Y-39486525D01*
X87746525Y-39693368D01*
X87630000Y-39867760D01*
X87513475Y-39693368D01*
X87306632Y-39486525D01*
X87063411Y-39324010D01*
X86793158Y-39212068D01*
X86506260Y-39155000D01*
X86213740Y-39155000D01*
X85926842Y-39212068D01*
X85656589Y-39324010D01*
X85413368Y-39486525D01*
X85206525Y-39693368D01*
X85044010Y-39936589D01*
X84932068Y-40206842D01*
X84875000Y-40493740D01*
X84875000Y-40786260D01*
X84932068Y-41073158D01*
X85044010Y-41343411D01*
X85206525Y-41586632D01*
X85413368Y-41793475D01*
X85600001Y-41918179D01*
X85600000Y-50322678D01*
X85596324Y-50360000D01*
X85600000Y-50397322D01*
X85600000Y-50397332D01*
X85607961Y-50478159D01*
X84129010Y-48999209D01*
X84190001Y-48692587D01*
X84190001Y-48377415D01*
X84128514Y-48068298D01*
X84007903Y-47777117D01*
X83832802Y-47515060D01*
X83609942Y-47292200D01*
X83347885Y-47117099D01*
X83056704Y-46996488D01*
X82747587Y-46935001D01*
X82432415Y-46935001D01*
X82123298Y-46996488D01*
X81832117Y-47117099D01*
X81570060Y-47292200D01*
X81347200Y-47515060D01*
X81172099Y-47777117D01*
X81051488Y-48068298D01*
X80990001Y-48377415D01*
X27127000Y-48377415D01*
X27127000Y-35002769D01*
X27145664Y-34575308D01*
X27201151Y-34153832D01*
X27293162Y-33738802D01*
X27420991Y-33333380D01*
X27583675Y-32940625D01*
X27779960Y-32563566D01*
X28008371Y-32205032D01*
X28267161Y-31867770D01*
X28554354Y-31554354D01*
X28867770Y-31267161D01*
X29205032Y-31008371D01*
X29563566Y-30779960D01*
X29940625Y-30583675D01*
X30333380Y-30420991D01*
X30738802Y-30293162D01*
X31153832Y-30201151D01*
X31575308Y-30145664D01*
X32002769Y-30127000D01*
X125997231Y-30127000D01*
X126424692Y-30145664D01*
G36*
X104240001Y-39314803D02*
G01*
X104240000Y-43685198D01*
X102488998Y-45436201D01*
X102460000Y-45459999D01*
X102436202Y-45488997D01*
X102436201Y-45488998D01*
X102365026Y-45575724D01*
X102294454Y-45707754D01*
X102250998Y-45851015D01*
X102236324Y-46000000D01*
X102240001Y-46037332D01*
X102240000Y-56207678D01*
X102236324Y-56245000D01*
X102240000Y-56282322D01*
X102240000Y-56282332D01*
X102250997Y-56393985D01*
X102289223Y-56520001D01*
X102294454Y-56537246D01*
X102365026Y-56669276D01*
X102378379Y-56685546D01*
X102459999Y-56785001D01*
X102489003Y-56808804D01*
X103910992Y-58230793D01*
X103850001Y-58537415D01*
X103850001Y-58852587D01*
X103911488Y-59161704D01*
X104032099Y-59452885D01*
X104207200Y-59714942D01*
X104430060Y-59937802D01*
X104470766Y-59965001D01*
X104430060Y-59992200D01*
X104207200Y-60215060D01*
X104032099Y-60477117D01*
X103911488Y-60768298D01*
X103850001Y-61077415D01*
X103850001Y-61392587D01*
X103911488Y-61701704D01*
X104032099Y-61992885D01*
X104207200Y-62254942D01*
X104430060Y-62477802D01*
X104555320Y-62561498D01*
X104519154Y-62664549D01*
X105450001Y-63595396D01*
X106380848Y-62664549D01*
X106344682Y-62561498D01*
X106469942Y-62477802D01*
X106692802Y-62254942D01*
X106867903Y-61992885D01*
X106988514Y-61701704D01*
X107050001Y-61392587D01*
X107050001Y-61077415D01*
X106988514Y-60768298D01*
X106867903Y-60477117D01*
X106692802Y-60215060D01*
X106469942Y-59992200D01*
X106429236Y-59965001D01*
X106469942Y-59937802D01*
X106692802Y-59714942D01*
X106867903Y-59452885D01*
X106988514Y-59161704D01*
X107050001Y-58852587D01*
X107050001Y-58537415D01*
X106988514Y-58228298D01*
X106867903Y-57937117D01*
X106692802Y-57675060D01*
X106469942Y-57452200D01*
X106429236Y-57425001D01*
X106469942Y-57397802D01*
X106692802Y-57174942D01*
X106867903Y-56912885D01*
X106971131Y-56663670D01*
X109259802Y-54375000D01*
X109321939Y-54375000D01*
X109521898Y-54335226D01*
X109710256Y-54257205D01*
X109879774Y-54143937D01*
X110023937Y-53999774D01*
X110137205Y-53830256D01*
X110215226Y-53641898D01*
X110255000Y-53441939D01*
X110255000Y-53379802D01*
X110804802Y-52830000D01*
X124451822Y-52830000D01*
X124576525Y-53016632D01*
X124783368Y-53223475D01*
X124965534Y-53345195D01*
X124848645Y-53414822D01*
X124632412Y-53609731D01*
X124458359Y-53843080D01*
X124333175Y-54105901D01*
X124288524Y-54253110D01*
X124409845Y-54483000D01*
X125603000Y-54483000D01*
X125603000Y-54463000D01*
X125857000Y-54463000D01*
X125857000Y-54483000D01*
X125877000Y-54483000D01*
X125877000Y-54737000D01*
X125857000Y-54737000D01*
X125857000Y-54757000D01*
X125603000Y-54757000D01*
X125603000Y-54737000D01*
X124409845Y-54737000D01*
X124288524Y-54966890D01*
X124333175Y-55114099D01*
X124458359Y-55376920D01*
X124632412Y-55610269D01*
X124848645Y-55805178D01*
X124965534Y-55874805D01*
X124783368Y-55996525D01*
X124576525Y-56203368D01*
X124414010Y-56446589D01*
X124302068Y-56716842D01*
X124245000Y-57003740D01*
X124245000Y-57296260D01*
X124302068Y-57583158D01*
X124414010Y-57853411D01*
X124576525Y-58096632D01*
X124783368Y-58303475D01*
X124957760Y-58420000D01*
X124783368Y-58536525D01*
X124576525Y-58743368D01*
X124435117Y-58955000D01*
X118146105Y-58955000D01*
X118110000Y-58951444D01*
X118073895Y-58955000D01*
X117965915Y-58965635D01*
X117827367Y-59007663D01*
X117699680Y-59075913D01*
X117587762Y-59167762D01*
X117564746Y-59195807D01*
X112535808Y-64224746D01*
X112507763Y-64247762D01*
X112415914Y-64359680D01*
X112368236Y-64448880D01*
X112347664Y-64487367D01*
X112305635Y-64625915D01*
X112291444Y-64770000D01*
X112295001Y-64806115D01*
X112295000Y-75260553D01*
X108090808Y-79464746D01*
X108062763Y-79487762D01*
X107970914Y-79599680D01*
X107944031Y-79649975D01*
X107902664Y-79727367D01*
X107860635Y-79865915D01*
X107846444Y-80010000D01*
X107850001Y-80046115D01*
X107850000Y-84785553D01*
X106375554Y-86260000D01*
X105079447Y-86260000D01*
X104517520Y-85698073D01*
X106415001Y-85698073D01*
X106539483Y-85685813D01*
X106659181Y-85649503D01*
X106769495Y-85590538D01*
X106866186Y-85511186D01*
X106945538Y-85414495D01*
X107004503Y-85304181D01*
X107040813Y-85184483D01*
X107053073Y-85060001D01*
X107053073Y-83130001D01*
X107040813Y-83005519D01*
X107004503Y-82885821D01*
X106945538Y-82775507D01*
X106866186Y-82678816D01*
X106769495Y-82599464D01*
X106659181Y-82540499D01*
X106595916Y-82521308D01*
X106560455Y-82485847D01*
X106821276Y-82394310D01*
X106958669Y-82110660D01*
X107038084Y-81805657D01*
X107056471Y-81491021D01*
X107013121Y-81178844D01*
X106909701Y-80881122D01*
X106821276Y-80715692D01*
X106560453Y-80624154D01*
X105629606Y-81555001D01*
X105643749Y-81569144D01*
X105464144Y-81748749D01*
X105450001Y-81734606D01*
X105435859Y-81748749D01*
X105256254Y-81569144D01*
X105270396Y-81555001D01*
X104339549Y-80624154D01*
X104078726Y-80715692D01*
X103941333Y-80999342D01*
X103861918Y-81304345D01*
X103843531Y-81618981D01*
X103886881Y-81931158D01*
X103990301Y-82228880D01*
X104078726Y-82394310D01*
X104339547Y-82485847D01*
X104304086Y-82521308D01*
X104240821Y-82540499D01*
X104130507Y-82599464D01*
X104033816Y-82678816D01*
X103954464Y-82775507D01*
X103895499Y-82885821D01*
X103859189Y-83005519D01*
X103846929Y-83130001D01*
X103846929Y-85027483D01*
X103605000Y-84785554D01*
X103605000Y-79411105D01*
X103608556Y-79375000D01*
X103594365Y-79230915D01*
X103574150Y-79164275D01*
X103552337Y-79092367D01*
X103484087Y-78964680D01*
X103421965Y-78888985D01*
X103415253Y-78880806D01*
X103415250Y-78880803D01*
X103392237Y-78852762D01*
X103364198Y-78829751D01*
X97355000Y-72820554D01*
X97355000Y-71294883D01*
X97566632Y-71153475D01*
X97773475Y-70946632D01*
X97890000Y-70772240D01*
X98006525Y-70946632D01*
X98213368Y-71153475D01*
X98400000Y-71278179D01*
X98400001Y-72687668D01*
X98396324Y-72725000D01*
X98400001Y-72762333D01*
X98401016Y-72772633D01*
X98410998Y-72873985D01*
X98454454Y-73017246D01*
X98525026Y-73149276D01*
X98578444Y-73214365D01*
X98620000Y-73265001D01*
X98648998Y-73288799D01*
X103910992Y-78550793D01*
X103850001Y-78857415D01*
X103850001Y-79172587D01*
X103911488Y-79481704D01*
X104032099Y-79772885D01*
X104207200Y-80034942D01*
X104430060Y-80257802D01*
X104555320Y-80341498D01*
X104519154Y-80444549D01*
X105450001Y-81375396D01*
X106380848Y-80444549D01*
X106344682Y-80341498D01*
X106469942Y-80257802D01*
X106692802Y-80034942D01*
X106867903Y-79772885D01*
X106988514Y-79481704D01*
X107050001Y-79172587D01*
X107050001Y-78857415D01*
X106988514Y-78548298D01*
X106867903Y-78257117D01*
X106692802Y-77995060D01*
X106469942Y-77772200D01*
X106429236Y-77745001D01*
X106469942Y-77717802D01*
X106692802Y-77494942D01*
X106867903Y-77232885D01*
X106988514Y-76941704D01*
X107050001Y-76632587D01*
X107050001Y-76317415D01*
X106988514Y-76008298D01*
X106867903Y-75717117D01*
X106692802Y-75455060D01*
X106469942Y-75232200D01*
X106429236Y-75205001D01*
X106469942Y-75177802D01*
X106692802Y-74954942D01*
X106867903Y-74692885D01*
X106988514Y-74401704D01*
X107050001Y-74092587D01*
X107050001Y-73777415D01*
X106988514Y-73468298D01*
X106867903Y-73177117D01*
X106692802Y-72915060D01*
X106469942Y-72692200D01*
X106429236Y-72665001D01*
X106469942Y-72637802D01*
X106692802Y-72414942D01*
X106867903Y-72152885D01*
X106988514Y-71861704D01*
X107050001Y-71552587D01*
X107050001Y-71237415D01*
X106988514Y-70928298D01*
X106867903Y-70637117D01*
X106692802Y-70375060D01*
X106469942Y-70152200D01*
X106429236Y-70125001D01*
X106469942Y-70097802D01*
X106692802Y-69874942D01*
X106867903Y-69612885D01*
X106988514Y-69321704D01*
X107050001Y-69012587D01*
X107050001Y-68697415D01*
X106988514Y-68388298D01*
X106867903Y-68097117D01*
X106692802Y-67835060D01*
X106469942Y-67612200D01*
X106429236Y-67585001D01*
X106469942Y-67557802D01*
X106692802Y-67334942D01*
X106867903Y-67072885D01*
X106988514Y-66781704D01*
X107050001Y-66472587D01*
X107050001Y-66157415D01*
X106988514Y-65848298D01*
X106867903Y-65557117D01*
X106692802Y-65295060D01*
X106469942Y-65072200D01*
X106344682Y-64988504D01*
X106380848Y-64885453D01*
X105450001Y-63954606D01*
X105435859Y-63968749D01*
X105256254Y-63789144D01*
X105270396Y-63775001D01*
X105629606Y-63775001D01*
X106560453Y-64705848D01*
X106821276Y-64614310D01*
X106958669Y-64330660D01*
X107038084Y-64025657D01*
X107056471Y-63711021D01*
X107013121Y-63398844D01*
X106909701Y-63101122D01*
X106821276Y-62935692D01*
X106560453Y-62844154D01*
X105629606Y-63775001D01*
X105270396Y-63775001D01*
X104339549Y-62844154D01*
X104078726Y-62935692D01*
X103941333Y-63219342D01*
X103861918Y-63524345D01*
X103854863Y-63645062D01*
X97280000Y-57070199D01*
X97280000Y-41918178D01*
X97466632Y-41793475D01*
X97673475Y-41586632D01*
X97790000Y-41412240D01*
X97906525Y-41586632D01*
X98113368Y-41793475D01*
X98356589Y-41955990D01*
X98626842Y-42067932D01*
X98913740Y-42125000D01*
X99206260Y-42125000D01*
X99493158Y-42067932D01*
X99763411Y-41955990D01*
X100006632Y-41793475D01*
X100138487Y-41661620D01*
X100160498Y-41734180D01*
X100219463Y-41844494D01*
X100298815Y-41941185D01*
X100395506Y-42020537D01*
X100505820Y-42079502D01*
X100625518Y-42115812D01*
X100750000Y-42128072D01*
X101314250Y-42125000D01*
X101473000Y-41966250D01*
X101473000Y-40767000D01*
X101727000Y-40767000D01*
X101727000Y-41966250D01*
X101885750Y-42125000D01*
X102450000Y-42128072D01*
X102574482Y-42115812D01*
X102694180Y-42079502D01*
X102804494Y-42020537D01*
X102901185Y-41941185D01*
X102980537Y-41844494D01*
X103039502Y-41734180D01*
X103075812Y-41614482D01*
X103088072Y-41490000D01*
X103085000Y-40925750D01*
X102926250Y-40767000D01*
X101727000Y-40767000D01*
X101473000Y-40767000D01*
X101453000Y-40767000D01*
X101453000Y-40513000D01*
X101473000Y-40513000D01*
X101473000Y-39313750D01*
X101727000Y-39313750D01*
X101727000Y-40513000D01*
X102926250Y-40513000D01*
X103085000Y-40354250D01*
X103088072Y-39790000D01*
X103075812Y-39665518D01*
X103039502Y-39545820D01*
X102980537Y-39435506D01*
X102901185Y-39338815D01*
X102804494Y-39259463D01*
X102694180Y-39200498D01*
X102574482Y-39164188D01*
X102450000Y-39151928D01*
X101885750Y-39155000D01*
X101727000Y-39313750D01*
X101473000Y-39313750D01*
X101314250Y-39155000D01*
X100750000Y-39151928D01*
X100625518Y-39164188D01*
X100505820Y-39200498D01*
X100395506Y-39259463D01*
X100298815Y-39338815D01*
X100219463Y-39435506D01*
X100160498Y-39545820D01*
X100138487Y-39618380D01*
X100006632Y-39486525D01*
X99763411Y-39324010D01*
X99493158Y-39212068D01*
X99206260Y-39155000D01*
X98913740Y-39155000D01*
X98626842Y-39212068D01*
X98356589Y-39324010D01*
X98113368Y-39486525D01*
X97906525Y-39693368D01*
X97790000Y-39867760D01*
X97673475Y-39693368D01*
X97466632Y-39486525D01*
X97223411Y-39324010D01*
X96953158Y-39212068D01*
X96666260Y-39155000D01*
X96373740Y-39155000D01*
X96086842Y-39212068D01*
X95816589Y-39324010D01*
X95573368Y-39486525D01*
X95366525Y-39693368D01*
X95250000Y-39867760D01*
X95133475Y-39693368D01*
X94926632Y-39486525D01*
X94683411Y-39324010D01*
X94413158Y-39212068D01*
X94126260Y-39155000D01*
X93833740Y-39155000D01*
X93546842Y-39212068D01*
X93276589Y-39324010D01*
X93033368Y-39486525D01*
X92826525Y-39693368D01*
X92710000Y-39867760D01*
X92593475Y-39693368D01*
X92386632Y-39486525D01*
X92143411Y-39324010D01*
X91873158Y-39212068D01*
X91586260Y-39155000D01*
X91293740Y-39155000D01*
X91006842Y-39212068D01*
X90736589Y-39324010D01*
X90493368Y-39486525D01*
X90286525Y-39693368D01*
X90170000Y-39867760D01*
X90053475Y-39693368D01*
X89846632Y-39486525D01*
X89691759Y-39383042D01*
X91314803Y-37760000D01*
X102685199Y-37760000D01*
X104240001Y-39314803D01*
G37*
X104240001Y-39314803D02*
X104240000Y-43685198D01*
X102488998Y-45436201D01*
X102460000Y-45459999D01*
X102436202Y-45488997D01*
X102436201Y-45488998D01*
X102365026Y-45575724D01*
X102294454Y-45707754D01*
X102250998Y-45851015D01*
X102236324Y-46000000D01*
X102240001Y-46037332D01*
X102240000Y-56207678D01*
X102236324Y-56245000D01*
X102240000Y-56282322D01*
X102240000Y-56282332D01*
X102250997Y-56393985D01*
X102289223Y-56520001D01*
X102294454Y-56537246D01*
X102365026Y-56669276D01*
X102378379Y-56685546D01*
X102459999Y-56785001D01*
X102489003Y-56808804D01*
X103910992Y-58230793D01*
X103850001Y-58537415D01*
X103850001Y-58852587D01*
X103911488Y-59161704D01*
X104032099Y-59452885D01*
X104207200Y-59714942D01*
X104430060Y-59937802D01*
X104470766Y-59965001D01*
X104430060Y-59992200D01*
X104207200Y-60215060D01*
X104032099Y-60477117D01*
X103911488Y-60768298D01*
X103850001Y-61077415D01*
X103850001Y-61392587D01*
X103911488Y-61701704D01*
X104032099Y-61992885D01*
X104207200Y-62254942D01*
X104430060Y-62477802D01*
X104555320Y-62561498D01*
X104519154Y-62664549D01*
X105450001Y-63595396D01*
X106380848Y-62664549D01*
X106344682Y-62561498D01*
X106469942Y-62477802D01*
X106692802Y-62254942D01*
X106867903Y-61992885D01*
X106988514Y-61701704D01*
X107050001Y-61392587D01*
X107050001Y-61077415D01*
X106988514Y-60768298D01*
X106867903Y-60477117D01*
X106692802Y-60215060D01*
X106469942Y-59992200D01*
X106429236Y-59965001D01*
X106469942Y-59937802D01*
X106692802Y-59714942D01*
X106867903Y-59452885D01*
X106988514Y-59161704D01*
X107050001Y-58852587D01*
X107050001Y-58537415D01*
X106988514Y-58228298D01*
X106867903Y-57937117D01*
X106692802Y-57675060D01*
X106469942Y-57452200D01*
X106429236Y-57425001D01*
X106469942Y-57397802D01*
X106692802Y-57174942D01*
X106867903Y-56912885D01*
X106971131Y-56663670D01*
X109259802Y-54375000D01*
X109321939Y-54375000D01*
X109521898Y-54335226D01*
X109710256Y-54257205D01*
X109879774Y-54143937D01*
X110023937Y-53999774D01*
X110137205Y-53830256D01*
X110215226Y-53641898D01*
X110255000Y-53441939D01*
X110255000Y-53379802D01*
X110804802Y-52830000D01*
X124451822Y-52830000D01*
X124576525Y-53016632D01*
X124783368Y-53223475D01*
X124965534Y-53345195D01*
X124848645Y-53414822D01*
X124632412Y-53609731D01*
X124458359Y-53843080D01*
X124333175Y-54105901D01*
X124288524Y-54253110D01*
X124409845Y-54483000D01*
X125603000Y-54483000D01*
X125603000Y-54463000D01*
X125857000Y-54463000D01*
X125857000Y-54483000D01*
X125877000Y-54483000D01*
X125877000Y-54737000D01*
X125857000Y-54737000D01*
X125857000Y-54757000D01*
X125603000Y-54757000D01*
X125603000Y-54737000D01*
X124409845Y-54737000D01*
X124288524Y-54966890D01*
X124333175Y-55114099D01*
X124458359Y-55376920D01*
X124632412Y-55610269D01*
X124848645Y-55805178D01*
X124965534Y-55874805D01*
X124783368Y-55996525D01*
X124576525Y-56203368D01*
X124414010Y-56446589D01*
X124302068Y-56716842D01*
X124245000Y-57003740D01*
X124245000Y-57296260D01*
X124302068Y-57583158D01*
X124414010Y-57853411D01*
X124576525Y-58096632D01*
X124783368Y-58303475D01*
X124957760Y-58420000D01*
X124783368Y-58536525D01*
X124576525Y-58743368D01*
X124435117Y-58955000D01*
X118146105Y-58955000D01*
X118110000Y-58951444D01*
X118073895Y-58955000D01*
X117965915Y-58965635D01*
X117827367Y-59007663D01*
X117699680Y-59075913D01*
X117587762Y-59167762D01*
X117564746Y-59195807D01*
X112535808Y-64224746D01*
X112507763Y-64247762D01*
X112415914Y-64359680D01*
X112368236Y-64448880D01*
X112347664Y-64487367D01*
X112305635Y-64625915D01*
X112291444Y-64770000D01*
X112295001Y-64806115D01*
X112295000Y-75260553D01*
X108090808Y-79464746D01*
X108062763Y-79487762D01*
X107970914Y-79599680D01*
X107944031Y-79649975D01*
X107902664Y-79727367D01*
X107860635Y-79865915D01*
X107846444Y-80010000D01*
X107850001Y-80046115D01*
X107850000Y-84785553D01*
X106375554Y-86260000D01*
X105079447Y-86260000D01*
X104517520Y-85698073D01*
X106415001Y-85698073D01*
X106539483Y-85685813D01*
X106659181Y-85649503D01*
X106769495Y-85590538D01*
X106866186Y-85511186D01*
X106945538Y-85414495D01*
X107004503Y-85304181D01*
X107040813Y-85184483D01*
X107053073Y-85060001D01*
X107053073Y-83130001D01*
X107040813Y-83005519D01*
X107004503Y-82885821D01*
X106945538Y-82775507D01*
X106866186Y-82678816D01*
X106769495Y-82599464D01*
X106659181Y-82540499D01*
X106595916Y-82521308D01*
X106560455Y-82485847D01*
X106821276Y-82394310D01*
X106958669Y-82110660D01*
X107038084Y-81805657D01*
X107056471Y-81491021D01*
X107013121Y-81178844D01*
X106909701Y-80881122D01*
X106821276Y-80715692D01*
X106560453Y-80624154D01*
X105629606Y-81555001D01*
X105643749Y-81569144D01*
X105464144Y-81748749D01*
X105450001Y-81734606D01*
X105435859Y-81748749D01*
X105256254Y-81569144D01*
X105270396Y-81555001D01*
X104339549Y-80624154D01*
X104078726Y-80715692D01*
X103941333Y-80999342D01*
X103861918Y-81304345D01*
X103843531Y-81618981D01*
X103886881Y-81931158D01*
X103990301Y-82228880D01*
X104078726Y-82394310D01*
X104339547Y-82485847D01*
X104304086Y-82521308D01*
X104240821Y-82540499D01*
X104130507Y-82599464D01*
X104033816Y-82678816D01*
X103954464Y-82775507D01*
X103895499Y-82885821D01*
X103859189Y-83005519D01*
X103846929Y-83130001D01*
X103846929Y-85027483D01*
X103605000Y-84785554D01*
X103605000Y-79411105D01*
X103608556Y-79375000D01*
X103594365Y-79230915D01*
X103574150Y-79164275D01*
X103552337Y-79092367D01*
X103484087Y-78964680D01*
X103421965Y-78888985D01*
X103415253Y-78880806D01*
X103415250Y-78880803D01*
X103392237Y-78852762D01*
X103364198Y-78829751D01*
X97355000Y-72820554D01*
X97355000Y-71294883D01*
X97566632Y-71153475D01*
X97773475Y-70946632D01*
X97890000Y-70772240D01*
X98006525Y-70946632D01*
X98213368Y-71153475D01*
X98400000Y-71278179D01*
X98400001Y-72687668D01*
X98396324Y-72725000D01*
X98400001Y-72762333D01*
X98401016Y-72772633D01*
X98410998Y-72873985D01*
X98454454Y-73017246D01*
X98525026Y-73149276D01*
X98578444Y-73214365D01*
X98620000Y-73265001D01*
X98648998Y-73288799D01*
X103910992Y-78550793D01*
X103850001Y-78857415D01*
X103850001Y-79172587D01*
X103911488Y-79481704D01*
X104032099Y-79772885D01*
X104207200Y-80034942D01*
X104430060Y-80257802D01*
X104555320Y-80341498D01*
X104519154Y-80444549D01*
X105450001Y-81375396D01*
X106380848Y-80444549D01*
X106344682Y-80341498D01*
X106469942Y-80257802D01*
X106692802Y-80034942D01*
X106867903Y-79772885D01*
X106988514Y-79481704D01*
X107050001Y-79172587D01*
X107050001Y-78857415D01*
X106988514Y-78548298D01*
X106867903Y-78257117D01*
X106692802Y-77995060D01*
X106469942Y-77772200D01*
X106429236Y-77745001D01*
X106469942Y-77717802D01*
X106692802Y-77494942D01*
X106867903Y-77232885D01*
X106988514Y-76941704D01*
X107050001Y-76632587D01*
X107050001Y-76317415D01*
X106988514Y-76008298D01*
X106867903Y-75717117D01*
X106692802Y-75455060D01*
X106469942Y-75232200D01*
X106429236Y-75205001D01*
X106469942Y-75177802D01*
X106692802Y-74954942D01*
X106867903Y-74692885D01*
X106988514Y-74401704D01*
X107050001Y-74092587D01*
X107050001Y-73777415D01*
X106988514Y-73468298D01*
X106867903Y-73177117D01*
X106692802Y-72915060D01*
X106469942Y-72692200D01*
X106429236Y-72665001D01*
X106469942Y-72637802D01*
X106692802Y-72414942D01*
X106867903Y-72152885D01*
X106988514Y-71861704D01*
X107050001Y-71552587D01*
X107050001Y-71237415D01*
X106988514Y-70928298D01*
X106867903Y-70637117D01*
X106692802Y-70375060D01*
X106469942Y-70152200D01*
X106429236Y-70125001D01*
X106469942Y-70097802D01*
X106692802Y-69874942D01*
X106867903Y-69612885D01*
X106988514Y-69321704D01*
X107050001Y-69012587D01*
X107050001Y-68697415D01*
X106988514Y-68388298D01*
X106867903Y-68097117D01*
X106692802Y-67835060D01*
X106469942Y-67612200D01*
X106429236Y-67585001D01*
X106469942Y-67557802D01*
X106692802Y-67334942D01*
X106867903Y-67072885D01*
X106988514Y-66781704D01*
X107050001Y-66472587D01*
X107050001Y-66157415D01*
X106988514Y-65848298D01*
X106867903Y-65557117D01*
X106692802Y-65295060D01*
X106469942Y-65072200D01*
X106344682Y-64988504D01*
X106380848Y-64885453D01*
X105450001Y-63954606D01*
X105435859Y-63968749D01*
X105256254Y-63789144D01*
X105270396Y-63775001D01*
X105629606Y-63775001D01*
X106560453Y-64705848D01*
X106821276Y-64614310D01*
X106958669Y-64330660D01*
X107038084Y-64025657D01*
X107056471Y-63711021D01*
X107013121Y-63398844D01*
X106909701Y-63101122D01*
X106821276Y-62935692D01*
X106560453Y-62844154D01*
X105629606Y-63775001D01*
X105270396Y-63775001D01*
X104339549Y-62844154D01*
X104078726Y-62935692D01*
X103941333Y-63219342D01*
X103861918Y-63524345D01*
X103854863Y-63645062D01*
X97280000Y-57070199D01*
X97280000Y-41918178D01*
X97466632Y-41793475D01*
X97673475Y-41586632D01*
X97790000Y-41412240D01*
X97906525Y-41586632D01*
X98113368Y-41793475D01*
X98356589Y-41955990D01*
X98626842Y-42067932D01*
X98913740Y-42125000D01*
X99206260Y-42125000D01*
X99493158Y-42067932D01*
X99763411Y-41955990D01*
X100006632Y-41793475D01*
X100138487Y-41661620D01*
X100160498Y-41734180D01*
X100219463Y-41844494D01*
X100298815Y-41941185D01*
X100395506Y-42020537D01*
X100505820Y-42079502D01*
X100625518Y-42115812D01*
X100750000Y-42128072D01*
X101314250Y-42125000D01*
X101473000Y-41966250D01*
X101473000Y-40767000D01*
X101727000Y-40767000D01*
X101727000Y-41966250D01*
X101885750Y-42125000D01*
X102450000Y-42128072D01*
X102574482Y-42115812D01*
X102694180Y-42079502D01*
X102804494Y-42020537D01*
X102901185Y-41941185D01*
X102980537Y-41844494D01*
X103039502Y-41734180D01*
X103075812Y-41614482D01*
X103088072Y-41490000D01*
X103085000Y-40925750D01*
X102926250Y-40767000D01*
X101727000Y-40767000D01*
X101473000Y-40767000D01*
X101453000Y-40767000D01*
X101453000Y-40513000D01*
X101473000Y-40513000D01*
X101473000Y-39313750D01*
X101727000Y-39313750D01*
X101727000Y-40513000D01*
X102926250Y-40513000D01*
X103085000Y-40354250D01*
X103088072Y-39790000D01*
X103075812Y-39665518D01*
X103039502Y-39545820D01*
X102980537Y-39435506D01*
X102901185Y-39338815D01*
X102804494Y-39259463D01*
X102694180Y-39200498D01*
X102574482Y-39164188D01*
X102450000Y-39151928D01*
X101885750Y-39155000D01*
X101727000Y-39313750D01*
X101473000Y-39313750D01*
X101314250Y-39155000D01*
X100750000Y-39151928D01*
X100625518Y-39164188D01*
X100505820Y-39200498D01*
X100395506Y-39259463D01*
X100298815Y-39338815D01*
X100219463Y-39435506D01*
X100160498Y-39545820D01*
X100138487Y-39618380D01*
X100006632Y-39486525D01*
X99763411Y-39324010D01*
X99493158Y-39212068D01*
X99206260Y-39155000D01*
X98913740Y-39155000D01*
X98626842Y-39212068D01*
X98356589Y-39324010D01*
X98113368Y-39486525D01*
X97906525Y-39693368D01*
X97790000Y-39867760D01*
X97673475Y-39693368D01*
X97466632Y-39486525D01*
X97223411Y-39324010D01*
X96953158Y-39212068D01*
X96666260Y-39155000D01*
X96373740Y-39155000D01*
X96086842Y-39212068D01*
X95816589Y-39324010D01*
X95573368Y-39486525D01*
X95366525Y-39693368D01*
X95250000Y-39867760D01*
X95133475Y-39693368D01*
X94926632Y-39486525D01*
X94683411Y-39324010D01*
X94413158Y-39212068D01*
X94126260Y-39155000D01*
X93833740Y-39155000D01*
X93546842Y-39212068D01*
X93276589Y-39324010D01*
X93033368Y-39486525D01*
X92826525Y-39693368D01*
X92710000Y-39867760D01*
X92593475Y-39693368D01*
X92386632Y-39486525D01*
X92143411Y-39324010D01*
X91873158Y-39212068D01*
X91586260Y-39155000D01*
X91293740Y-39155000D01*
X91006842Y-39212068D01*
X90736589Y-39324010D01*
X90493368Y-39486525D01*
X90286525Y-39693368D01*
X90170000Y-39867760D01*
X90053475Y-39693368D01*
X89846632Y-39486525D01*
X89691759Y-39383042D01*
X91314803Y-37760000D01*
X102685199Y-37760000D01*
X104240001Y-39314803D01*
%TD*%
M02*
