%TF.GenerationSoftware,KiCad,Pcbnew,5.1.6*%
%TF.CreationDate,2020-07-11T18:48:30-07:00*%
%TF.ProjectId,proto_boards,70726f74-6f5f-4626-9f61-7264732e6b69,rev?*%
%TF.SameCoordinates,Original*%
%TF.FileFunction,Paste,Top*%
%TF.FilePolarity,Positive*%
%FSLAX46Y46*%
G04 Gerber Fmt 4.6, Leading zero omitted, Abs format (unit mm)*
G04 Created by KiCad (PCBNEW 5.1.6) date 2020-07-11 18:48:30*
%MOMM*%
%LPD*%
G01*
G04 APERTURE LIST*
%ADD10R,0.630000X0.350000*%
%ADD11R,0.300000X0.580000*%
%ADD12R,0.250000X0.580000*%
G04 APERTURE END LIST*
%TO.C,R9*%
G36*
G01*
X164920450Y-82050000D02*
X166170450Y-82050000D01*
G75*
G02*
X166420450Y-82300000I0J-250000D01*
G01*
X166420450Y-83050000D01*
G75*
G02*
X166170450Y-83300000I-250000J0D01*
G01*
X164920450Y-83300000D01*
G75*
G02*
X164670450Y-83050000I0J250000D01*
G01*
X164670450Y-82300000D01*
G75*
G02*
X164920450Y-82050000I250000J0D01*
G01*
G37*
G36*
G01*
X164920450Y-79250000D02*
X166170450Y-79250000D01*
G75*
G02*
X166420450Y-79500000I0J-250000D01*
G01*
X166420450Y-80250000D01*
G75*
G02*
X166170450Y-80500000I-250000J0D01*
G01*
X164920450Y-80500000D01*
G75*
G02*
X164670450Y-80250000I0J250000D01*
G01*
X164670450Y-79500000D01*
G75*
G02*
X164920450Y-79250000I250000J0D01*
G01*
G37*
%TD*%
%TO.C,R8*%
G36*
G01*
X170738630Y-82050000D02*
X171988630Y-82050000D01*
G75*
G02*
X172238630Y-82300000I0J-250000D01*
G01*
X172238630Y-83050000D01*
G75*
G02*
X171988630Y-83300000I-250000J0D01*
G01*
X170738630Y-83300000D01*
G75*
G02*
X170488630Y-83050000I0J250000D01*
G01*
X170488630Y-82300000D01*
G75*
G02*
X170738630Y-82050000I250000J0D01*
G01*
G37*
G36*
G01*
X170738630Y-79250000D02*
X171988630Y-79250000D01*
G75*
G02*
X172238630Y-79500000I0J-250000D01*
G01*
X172238630Y-80250000D01*
G75*
G02*
X171988630Y-80500000I-250000J0D01*
G01*
X170738630Y-80500000D01*
G75*
G02*
X170488630Y-80250000I0J250000D01*
G01*
X170488630Y-79500000D01*
G75*
G02*
X170738630Y-79250000I250000J0D01*
G01*
G37*
%TD*%
%TO.C,R7*%
G36*
G01*
X176556810Y-82050000D02*
X177806810Y-82050000D01*
G75*
G02*
X178056810Y-82300000I0J-250000D01*
G01*
X178056810Y-83050000D01*
G75*
G02*
X177806810Y-83300000I-250000J0D01*
G01*
X176556810Y-83300000D01*
G75*
G02*
X176306810Y-83050000I0J250000D01*
G01*
X176306810Y-82300000D01*
G75*
G02*
X176556810Y-82050000I250000J0D01*
G01*
G37*
G36*
G01*
X176556810Y-79250000D02*
X177806810Y-79250000D01*
G75*
G02*
X178056810Y-79500000I0J-250000D01*
G01*
X178056810Y-80250000D01*
G75*
G02*
X177806810Y-80500000I-250000J0D01*
G01*
X176556810Y-80500000D01*
G75*
G02*
X176306810Y-80250000I0J250000D01*
G01*
X176306810Y-79500000D01*
G75*
G02*
X176556810Y-79250000I250000J0D01*
G01*
G37*
%TD*%
%TO.C,R6*%
G36*
G01*
X182375000Y-82050000D02*
X183625000Y-82050000D01*
G75*
G02*
X183875000Y-82300000I0J-250000D01*
G01*
X183875000Y-83050000D01*
G75*
G02*
X183625000Y-83300000I-250000J0D01*
G01*
X182375000Y-83300000D01*
G75*
G02*
X182125000Y-83050000I0J250000D01*
G01*
X182125000Y-82300000D01*
G75*
G02*
X182375000Y-82050000I250000J0D01*
G01*
G37*
G36*
G01*
X182375000Y-79250000D02*
X183625000Y-79250000D01*
G75*
G02*
X183875000Y-79500000I0J-250000D01*
G01*
X183875000Y-80250000D01*
G75*
G02*
X183625000Y-80500000I-250000J0D01*
G01*
X182375000Y-80500000D01*
G75*
G02*
X182125000Y-80250000I0J250000D01*
G01*
X182125000Y-79500000D01*
G75*
G02*
X182375000Y-79250000I250000J0D01*
G01*
G37*
%TD*%
%TO.C,R5*%
G36*
G01*
X169801250Y-75750000D02*
X168888750Y-75750000D01*
G75*
G02*
X168645000Y-75506250I0J243750D01*
G01*
X168645000Y-75018750D01*
G75*
G02*
X168888750Y-74775000I243750J0D01*
G01*
X169801250Y-74775000D01*
G75*
G02*
X170045000Y-75018750I0J-243750D01*
G01*
X170045000Y-75506250D01*
G75*
G02*
X169801250Y-75750000I-243750J0D01*
G01*
G37*
G36*
G01*
X169801250Y-77625000D02*
X168888750Y-77625000D01*
G75*
G02*
X168645000Y-77381250I0J243750D01*
G01*
X168645000Y-76893750D01*
G75*
G02*
X168888750Y-76650000I243750J0D01*
G01*
X169801250Y-76650000D01*
G75*
G02*
X170045000Y-76893750I0J-243750D01*
G01*
X170045000Y-77381250D01*
G75*
G02*
X169801250Y-77625000I-243750J0D01*
G01*
G37*
%TD*%
%TO.C,R4*%
G36*
G01*
X163801250Y-75750000D02*
X162888750Y-75750000D01*
G75*
G02*
X162645000Y-75506250I0J243750D01*
G01*
X162645000Y-75018750D01*
G75*
G02*
X162888750Y-74775000I243750J0D01*
G01*
X163801250Y-74775000D01*
G75*
G02*
X164045000Y-75018750I0J-243750D01*
G01*
X164045000Y-75506250D01*
G75*
G02*
X163801250Y-75750000I-243750J0D01*
G01*
G37*
G36*
G01*
X163801250Y-77625000D02*
X162888750Y-77625000D01*
G75*
G02*
X162645000Y-77381250I0J243750D01*
G01*
X162645000Y-76893750D01*
G75*
G02*
X162888750Y-76650000I243750J0D01*
G01*
X163801250Y-76650000D01*
G75*
G02*
X164045000Y-76893750I0J-243750D01*
G01*
X164045000Y-77381250D01*
G75*
G02*
X163801250Y-77625000I-243750J0D01*
G01*
G37*
%TD*%
%TO.C,R3*%
G36*
G01*
X166801250Y-75750000D02*
X165888750Y-75750000D01*
G75*
G02*
X165645000Y-75506250I0J243750D01*
G01*
X165645000Y-75018750D01*
G75*
G02*
X165888750Y-74775000I243750J0D01*
G01*
X166801250Y-74775000D01*
G75*
G02*
X167045000Y-75018750I0J-243750D01*
G01*
X167045000Y-75506250D01*
G75*
G02*
X166801250Y-75750000I-243750J0D01*
G01*
G37*
G36*
G01*
X166801250Y-77625000D02*
X165888750Y-77625000D01*
G75*
G02*
X165645000Y-77381250I0J243750D01*
G01*
X165645000Y-76893750D01*
G75*
G02*
X165888750Y-76650000I243750J0D01*
G01*
X166801250Y-76650000D01*
G75*
G02*
X167045000Y-76893750I0J-243750D01*
G01*
X167045000Y-77381250D01*
G75*
G02*
X166801250Y-77625000I-243750J0D01*
G01*
G37*
%TD*%
%TO.C,R2*%
G36*
G01*
X159102270Y-82050000D02*
X160352270Y-82050000D01*
G75*
G02*
X160602270Y-82300000I0J-250000D01*
G01*
X160602270Y-83050000D01*
G75*
G02*
X160352270Y-83300000I-250000J0D01*
G01*
X159102270Y-83300000D01*
G75*
G02*
X158852270Y-83050000I0J250000D01*
G01*
X158852270Y-82300000D01*
G75*
G02*
X159102270Y-82050000I250000J0D01*
G01*
G37*
G36*
G01*
X159102270Y-79250000D02*
X160352270Y-79250000D01*
G75*
G02*
X160602270Y-79500000I0J-250000D01*
G01*
X160602270Y-80250000D01*
G75*
G02*
X160352270Y-80500000I-250000J0D01*
G01*
X159102270Y-80500000D01*
G75*
G02*
X158852270Y-80250000I0J250000D01*
G01*
X158852270Y-79500000D01*
G75*
G02*
X159102270Y-79250000I250000J0D01*
G01*
G37*
%TD*%
%TO.C,R1*%
G36*
G01*
X153284090Y-82050000D02*
X154534090Y-82050000D01*
G75*
G02*
X154784090Y-82300000I0J-250000D01*
G01*
X154784090Y-83050000D01*
G75*
G02*
X154534090Y-83300000I-250000J0D01*
G01*
X153284090Y-83300000D01*
G75*
G02*
X153034090Y-83050000I0J250000D01*
G01*
X153034090Y-82300000D01*
G75*
G02*
X153284090Y-82050000I250000J0D01*
G01*
G37*
G36*
G01*
X153284090Y-79250000D02*
X154534090Y-79250000D01*
G75*
G02*
X154784090Y-79500000I0J-250000D01*
G01*
X154784090Y-80250000D01*
G75*
G02*
X154534090Y-80500000I-250000J0D01*
G01*
X153284090Y-80500000D01*
G75*
G02*
X153034090Y-80250000I0J250000D01*
G01*
X153034090Y-79500000D01*
G75*
G02*
X153284090Y-79250000I250000J0D01*
G01*
G37*
%TD*%
D10*
%TO.C,IC2*%
X174400000Y-76040000D03*
D11*
X174510000Y-75400000D03*
D12*
X175010000Y-75400000D03*
X175510000Y-75400000D03*
D11*
X176010000Y-75400000D03*
D10*
X176120000Y-76040000D03*
D11*
X176010000Y-76680000D03*
D12*
X175510000Y-76680000D03*
X175010000Y-76680000D03*
D11*
X174510000Y-76680000D03*
%TD*%
%TO.C,IC1*%
X156730000Y-76680000D03*
D12*
X157230000Y-76680000D03*
X157730000Y-76680000D03*
D11*
X158230000Y-76680000D03*
D10*
X158340000Y-76040000D03*
D11*
X158230000Y-75400000D03*
D12*
X157730000Y-75400000D03*
X157230000Y-75400000D03*
D11*
X156730000Y-75400000D03*
D10*
X156620000Y-76040000D03*
%TD*%
%TO.C,FB2*%
G36*
G01*
X157665000Y-72043750D02*
X157665000Y-72956250D01*
G75*
G02*
X157421250Y-73200000I-243750J0D01*
G01*
X156933750Y-73200000D01*
G75*
G02*
X156690000Y-72956250I0J243750D01*
G01*
X156690000Y-72043750D01*
G75*
G02*
X156933750Y-71800000I243750J0D01*
G01*
X157421250Y-71800000D01*
G75*
G02*
X157665000Y-72043750I0J-243750D01*
G01*
G37*
G36*
G01*
X159540000Y-72043750D02*
X159540000Y-72956250D01*
G75*
G02*
X159296250Y-73200000I-243750J0D01*
G01*
X158808750Y-73200000D01*
G75*
G02*
X158565000Y-72956250I0J243750D01*
G01*
X158565000Y-72043750D01*
G75*
G02*
X158808750Y-71800000I243750J0D01*
G01*
X159296250Y-71800000D01*
G75*
G02*
X159540000Y-72043750I0J-243750D01*
G01*
G37*
%TD*%
%TO.C,FB1*%
G36*
G01*
X175125000Y-72961250D02*
X175125000Y-72048750D01*
G75*
G02*
X175368750Y-71805000I243750J0D01*
G01*
X175856250Y-71805000D01*
G75*
G02*
X176100000Y-72048750I0J-243750D01*
G01*
X176100000Y-72961250D01*
G75*
G02*
X175856250Y-73205000I-243750J0D01*
G01*
X175368750Y-73205000D01*
G75*
G02*
X175125000Y-72961250I0J243750D01*
G01*
G37*
G36*
G01*
X173250000Y-72961250D02*
X173250000Y-72048750D01*
G75*
G02*
X173493750Y-71805000I243750J0D01*
G01*
X173981250Y-71805000D01*
G75*
G02*
X174225000Y-72048750I0J-243750D01*
G01*
X174225000Y-72961250D01*
G75*
G02*
X173981250Y-73205000I-243750J0D01*
G01*
X173493750Y-73205000D01*
G75*
G02*
X173250000Y-72961250I0J243750D01*
G01*
G37*
%TD*%
%TO.C,C8*%
G36*
G01*
X169850000Y-73130000D02*
X169850000Y-71880000D01*
G75*
G02*
X170100000Y-71630000I250000J0D01*
G01*
X170850000Y-71630000D01*
G75*
G02*
X171100000Y-71880000I0J-250000D01*
G01*
X171100000Y-73130000D01*
G75*
G02*
X170850000Y-73380000I-250000J0D01*
G01*
X170100000Y-73380000D01*
G75*
G02*
X169850000Y-73130000I0J250000D01*
G01*
G37*
G36*
G01*
X167050000Y-73130000D02*
X167050000Y-71880000D01*
G75*
G02*
X167300000Y-71630000I250000J0D01*
G01*
X168050000Y-71630000D01*
G75*
G02*
X168300000Y-71880000I0J-250000D01*
G01*
X168300000Y-73130000D01*
G75*
G02*
X168050000Y-73380000I-250000J0D01*
G01*
X167300000Y-73380000D01*
G75*
G02*
X167050000Y-73130000I0J250000D01*
G01*
G37*
%TD*%
%TO.C,C7*%
G36*
G01*
X163092610Y-80825000D02*
X162180110Y-80825000D01*
G75*
G02*
X161936360Y-80581250I0J243750D01*
G01*
X161936360Y-80093750D01*
G75*
G02*
X162180110Y-79850000I243750J0D01*
G01*
X163092610Y-79850000D01*
G75*
G02*
X163336360Y-80093750I0J-243750D01*
G01*
X163336360Y-80581250D01*
G75*
G02*
X163092610Y-80825000I-243750J0D01*
G01*
G37*
G36*
G01*
X163092610Y-82700000D02*
X162180110Y-82700000D01*
G75*
G02*
X161936360Y-82456250I0J243750D01*
G01*
X161936360Y-81968750D01*
G75*
G02*
X162180110Y-81725000I243750J0D01*
G01*
X163092610Y-81725000D01*
G75*
G02*
X163336360Y-81968750I0J-243750D01*
G01*
X163336360Y-82456250D01*
G75*
G02*
X163092610Y-82700000I-243750J0D01*
G01*
G37*
%TD*%
%TO.C,C6*%
G36*
G01*
X168910790Y-80825000D02*
X167998290Y-80825000D01*
G75*
G02*
X167754540Y-80581250I0J243750D01*
G01*
X167754540Y-80093750D01*
G75*
G02*
X167998290Y-79850000I243750J0D01*
G01*
X168910790Y-79850000D01*
G75*
G02*
X169154540Y-80093750I0J-243750D01*
G01*
X169154540Y-80581250D01*
G75*
G02*
X168910790Y-80825000I-243750J0D01*
G01*
G37*
G36*
G01*
X168910790Y-82700000D02*
X167998290Y-82700000D01*
G75*
G02*
X167754540Y-82456250I0J243750D01*
G01*
X167754540Y-81968750D01*
G75*
G02*
X167998290Y-81725000I243750J0D01*
G01*
X168910790Y-81725000D01*
G75*
G02*
X169154540Y-81968750I0J-243750D01*
G01*
X169154540Y-82456250D01*
G75*
G02*
X168910790Y-82700000I-243750J0D01*
G01*
G37*
%TD*%
%TO.C,C5*%
G36*
G01*
X174728970Y-80825000D02*
X173816470Y-80825000D01*
G75*
G02*
X173572720Y-80581250I0J243750D01*
G01*
X173572720Y-80093750D01*
G75*
G02*
X173816470Y-79850000I243750J0D01*
G01*
X174728970Y-79850000D01*
G75*
G02*
X174972720Y-80093750I0J-243750D01*
G01*
X174972720Y-80581250D01*
G75*
G02*
X174728970Y-80825000I-243750J0D01*
G01*
G37*
G36*
G01*
X174728970Y-82700000D02*
X173816470Y-82700000D01*
G75*
G02*
X173572720Y-82456250I0J243750D01*
G01*
X173572720Y-81968750D01*
G75*
G02*
X173816470Y-81725000I243750J0D01*
G01*
X174728970Y-81725000D01*
G75*
G02*
X174972720Y-81968750I0J-243750D01*
G01*
X174972720Y-82456250D01*
G75*
G02*
X174728970Y-82700000I-243750J0D01*
G01*
G37*
%TD*%
%TO.C,C4*%
G36*
G01*
X180547150Y-80825000D02*
X179634650Y-80825000D01*
G75*
G02*
X179390900Y-80581250I0J243750D01*
G01*
X179390900Y-80093750D01*
G75*
G02*
X179634650Y-79850000I243750J0D01*
G01*
X180547150Y-79850000D01*
G75*
G02*
X180790900Y-80093750I0J-243750D01*
G01*
X180790900Y-80581250D01*
G75*
G02*
X180547150Y-80825000I-243750J0D01*
G01*
G37*
G36*
G01*
X180547150Y-82700000D02*
X179634650Y-82700000D01*
G75*
G02*
X179390900Y-82456250I0J243750D01*
G01*
X179390900Y-81968750D01*
G75*
G02*
X179634650Y-81725000I243750J0D01*
G01*
X180547150Y-81725000D01*
G75*
G02*
X180790900Y-81968750I0J-243750D01*
G01*
X180790900Y-82456250D01*
G75*
G02*
X180547150Y-82700000I-243750J0D01*
G01*
G37*
%TD*%
%TO.C,C3*%
G36*
G01*
X157274430Y-80825000D02*
X156361930Y-80825000D01*
G75*
G02*
X156118180Y-80581250I0J243750D01*
G01*
X156118180Y-80093750D01*
G75*
G02*
X156361930Y-79850000I243750J0D01*
G01*
X157274430Y-79850000D01*
G75*
G02*
X157518180Y-80093750I0J-243750D01*
G01*
X157518180Y-80581250D01*
G75*
G02*
X157274430Y-80825000I-243750J0D01*
G01*
G37*
G36*
G01*
X157274430Y-82700000D02*
X156361930Y-82700000D01*
G75*
G02*
X156118180Y-82456250I0J243750D01*
G01*
X156118180Y-81968750D01*
G75*
G02*
X156361930Y-81725000I243750J0D01*
G01*
X157274430Y-81725000D01*
G75*
G02*
X157518180Y-81968750I0J-243750D01*
G01*
X157518180Y-82456250D01*
G75*
G02*
X157274430Y-82700000I-243750J0D01*
G01*
G37*
%TD*%
%TO.C,C2*%
G36*
G01*
X151456250Y-80825000D02*
X150543750Y-80825000D01*
G75*
G02*
X150300000Y-80581250I0J243750D01*
G01*
X150300000Y-80093750D01*
G75*
G02*
X150543750Y-79850000I243750J0D01*
G01*
X151456250Y-79850000D01*
G75*
G02*
X151700000Y-80093750I0J-243750D01*
G01*
X151700000Y-80581250D01*
G75*
G02*
X151456250Y-80825000I-243750J0D01*
G01*
G37*
G36*
G01*
X151456250Y-82700000D02*
X150543750Y-82700000D01*
G75*
G02*
X150300000Y-82456250I0J243750D01*
G01*
X150300000Y-81968750D01*
G75*
G02*
X150543750Y-81725000I243750J0D01*
G01*
X151456250Y-81725000D01*
G75*
G02*
X151700000Y-81968750I0J-243750D01*
G01*
X151700000Y-82456250D01*
G75*
G02*
X151456250Y-82700000I-243750J0D01*
G01*
G37*
%TD*%
%TO.C,C1*%
G36*
G01*
X163970000Y-73130000D02*
X163970000Y-71880000D01*
G75*
G02*
X164220000Y-71630000I250000J0D01*
G01*
X164970000Y-71630000D01*
G75*
G02*
X165220000Y-71880000I0J-250000D01*
G01*
X165220000Y-73130000D01*
G75*
G02*
X164970000Y-73380000I-250000J0D01*
G01*
X164220000Y-73380000D01*
G75*
G02*
X163970000Y-73130000I0J250000D01*
G01*
G37*
G36*
G01*
X161170000Y-73130000D02*
X161170000Y-71880000D01*
G75*
G02*
X161420000Y-71630000I250000J0D01*
G01*
X162170000Y-71630000D01*
G75*
G02*
X162420000Y-71880000I0J-250000D01*
G01*
X162420000Y-73130000D01*
G75*
G02*
X162170000Y-73380000I-250000J0D01*
G01*
X161420000Y-73380000D01*
G75*
G02*
X161170000Y-73130000I0J250000D01*
G01*
G37*
%TD*%
M02*
