%TF.GenerationSoftware,KiCad,Pcbnew,5.1.6*%
%TF.CreationDate,2020-07-11T18:48:30-07:00*%
%TF.ProjectId,proto_boards,70726f74-6f5f-4626-9f61-7264732e6b69,rev?*%
%TF.SameCoordinates,Original*%
%TF.FileFunction,Copper,L1,Top*%
%TF.FilePolarity,Positive*%
%FSLAX46Y46*%
G04 Gerber Fmt 4.6, Leading zero omitted, Abs format (unit mm)*
G04 Created by KiCad (PCBNEW 5.1.6) date 2020-07-11 18:48:30*
%MOMM*%
%LPD*%
G01*
G04 APERTURE LIST*
%TA.AperFunction,ComponentPad*%
%ADD10O,1.700000X1.700000*%
%TD*%
%TA.AperFunction,ComponentPad*%
%ADD11R,1.700000X1.700000*%
%TD*%
%TA.AperFunction,SMDPad,CuDef*%
%ADD12R,0.630000X0.350000*%
%TD*%
%TA.AperFunction,SMDPad,CuDef*%
%ADD13R,0.300000X0.580000*%
%TD*%
%TA.AperFunction,SMDPad,CuDef*%
%ADD14R,0.250000X0.580000*%
%TD*%
%TA.AperFunction,ViaPad*%
%ADD15C,0.800000*%
%TD*%
%TA.AperFunction,Conductor*%
%ADD16C,0.460000*%
%TD*%
%TA.AperFunction,Conductor*%
%ADD17C,0.240000*%
%TD*%
%TA.AperFunction,Conductor*%
%ADD18C,0.160000*%
%TD*%
%TA.AperFunction,Conductor*%
%ADD19C,0.320000*%
%TD*%
%TA.AperFunction,Conductor*%
%ADD20C,0.254000*%
%TD*%
G04 APERTURE END LIST*
%TO.P,R9,2*%
%TO.N,Net-(J2-Pad4)*%
%TA.AperFunction,SMDPad,CuDef*%
G36*
G01*
X164920450Y-82050000D02*
X166170450Y-82050000D01*
G75*
G02*
X166420450Y-82300000I0J-250000D01*
G01*
X166420450Y-83050000D01*
G75*
G02*
X166170450Y-83300000I-250000J0D01*
G01*
X164920450Y-83300000D01*
G75*
G02*
X164670450Y-83050000I0J250000D01*
G01*
X164670450Y-82300000D01*
G75*
G02*
X164920450Y-82050000I250000J0D01*
G01*
G37*
%TD.AperFunction*%
%TO.P,R9,1*%
%TO.N,Net-(C7-Pad2)*%
%TA.AperFunction,SMDPad,CuDef*%
G36*
G01*
X164920450Y-79250000D02*
X166170450Y-79250000D01*
G75*
G02*
X166420450Y-79500000I0J-250000D01*
G01*
X166420450Y-80250000D01*
G75*
G02*
X166170450Y-80500000I-250000J0D01*
G01*
X164920450Y-80500000D01*
G75*
G02*
X164670450Y-80250000I0J250000D01*
G01*
X164670450Y-79500000D01*
G75*
G02*
X164920450Y-79250000I250000J0D01*
G01*
G37*
%TD.AperFunction*%
%TD*%
%TO.P,R8,2*%
%TO.N,Net-(J2-Pad3)*%
%TA.AperFunction,SMDPad,CuDef*%
G36*
G01*
X170738630Y-82050000D02*
X171988630Y-82050000D01*
G75*
G02*
X172238630Y-82300000I0J-250000D01*
G01*
X172238630Y-83050000D01*
G75*
G02*
X171988630Y-83300000I-250000J0D01*
G01*
X170738630Y-83300000D01*
G75*
G02*
X170488630Y-83050000I0J250000D01*
G01*
X170488630Y-82300000D01*
G75*
G02*
X170738630Y-82050000I250000J0D01*
G01*
G37*
%TD.AperFunction*%
%TO.P,R8,1*%
%TO.N,Net-(C6-Pad2)*%
%TA.AperFunction,SMDPad,CuDef*%
G36*
G01*
X170738630Y-79250000D02*
X171988630Y-79250000D01*
G75*
G02*
X172238630Y-79500000I0J-250000D01*
G01*
X172238630Y-80250000D01*
G75*
G02*
X171988630Y-80500000I-250000J0D01*
G01*
X170738630Y-80500000D01*
G75*
G02*
X170488630Y-80250000I0J250000D01*
G01*
X170488630Y-79500000D01*
G75*
G02*
X170738630Y-79250000I250000J0D01*
G01*
G37*
%TD.AperFunction*%
%TD*%
%TO.P,R7,2*%
%TO.N,Net-(J2-Pad2)*%
%TA.AperFunction,SMDPad,CuDef*%
G36*
G01*
X176556810Y-82050000D02*
X177806810Y-82050000D01*
G75*
G02*
X178056810Y-82300000I0J-250000D01*
G01*
X178056810Y-83050000D01*
G75*
G02*
X177806810Y-83300000I-250000J0D01*
G01*
X176556810Y-83300000D01*
G75*
G02*
X176306810Y-83050000I0J250000D01*
G01*
X176306810Y-82300000D01*
G75*
G02*
X176556810Y-82050000I250000J0D01*
G01*
G37*
%TD.AperFunction*%
%TO.P,R7,1*%
%TO.N,Net-(C5-Pad2)*%
%TA.AperFunction,SMDPad,CuDef*%
G36*
G01*
X176556810Y-79250000D02*
X177806810Y-79250000D01*
G75*
G02*
X178056810Y-79500000I0J-250000D01*
G01*
X178056810Y-80250000D01*
G75*
G02*
X177806810Y-80500000I-250000J0D01*
G01*
X176556810Y-80500000D01*
G75*
G02*
X176306810Y-80250000I0J250000D01*
G01*
X176306810Y-79500000D01*
G75*
G02*
X176556810Y-79250000I250000J0D01*
G01*
G37*
%TD.AperFunction*%
%TD*%
%TO.P,R6,2*%
%TO.N,Net-(J2-Pad1)*%
%TA.AperFunction,SMDPad,CuDef*%
G36*
G01*
X182375000Y-82050000D02*
X183625000Y-82050000D01*
G75*
G02*
X183875000Y-82300000I0J-250000D01*
G01*
X183875000Y-83050000D01*
G75*
G02*
X183625000Y-83300000I-250000J0D01*
G01*
X182375000Y-83300000D01*
G75*
G02*
X182125000Y-83050000I0J250000D01*
G01*
X182125000Y-82300000D01*
G75*
G02*
X182375000Y-82050000I250000J0D01*
G01*
G37*
%TD.AperFunction*%
%TO.P,R6,1*%
%TO.N,Net-(C4-Pad2)*%
%TA.AperFunction,SMDPad,CuDef*%
G36*
G01*
X182375000Y-79250000D02*
X183625000Y-79250000D01*
G75*
G02*
X183875000Y-79500000I0J-250000D01*
G01*
X183875000Y-80250000D01*
G75*
G02*
X183625000Y-80500000I-250000J0D01*
G01*
X182375000Y-80500000D01*
G75*
G02*
X182125000Y-80250000I0J250000D01*
G01*
X182125000Y-79500000D01*
G75*
G02*
X182375000Y-79250000I250000J0D01*
G01*
G37*
%TD.AperFunction*%
%TD*%
%TO.P,R5,2*%
%TO.N,Net-(IC1-Pad6)*%
%TA.AperFunction,SMDPad,CuDef*%
G36*
G01*
X169801250Y-75750000D02*
X168888750Y-75750000D01*
G75*
G02*
X168645000Y-75506250I0J243750D01*
G01*
X168645000Y-75018750D01*
G75*
G02*
X168888750Y-74775000I243750J0D01*
G01*
X169801250Y-74775000D01*
G75*
G02*
X170045000Y-75018750I0J-243750D01*
G01*
X170045000Y-75506250D01*
G75*
G02*
X169801250Y-75750000I-243750J0D01*
G01*
G37*
%TD.AperFunction*%
%TO.P,R5,1*%
%TO.N,VDD*%
%TA.AperFunction,SMDPad,CuDef*%
G36*
G01*
X169801250Y-77625000D02*
X168888750Y-77625000D01*
G75*
G02*
X168645000Y-77381250I0J243750D01*
G01*
X168645000Y-76893750D01*
G75*
G02*
X168888750Y-76650000I243750J0D01*
G01*
X169801250Y-76650000D01*
G75*
G02*
X170045000Y-76893750I0J-243750D01*
G01*
X170045000Y-77381250D01*
G75*
G02*
X169801250Y-77625000I-243750J0D01*
G01*
G37*
%TD.AperFunction*%
%TD*%
%TO.P,R4,2*%
%TO.N,/SDA*%
%TA.AperFunction,SMDPad,CuDef*%
G36*
G01*
X163801250Y-75750000D02*
X162888750Y-75750000D01*
G75*
G02*
X162645000Y-75506250I0J243750D01*
G01*
X162645000Y-75018750D01*
G75*
G02*
X162888750Y-74775000I243750J0D01*
G01*
X163801250Y-74775000D01*
G75*
G02*
X164045000Y-75018750I0J-243750D01*
G01*
X164045000Y-75506250D01*
G75*
G02*
X163801250Y-75750000I-243750J0D01*
G01*
G37*
%TD.AperFunction*%
%TO.P,R4,1*%
%TO.N,VDD*%
%TA.AperFunction,SMDPad,CuDef*%
G36*
G01*
X163801250Y-77625000D02*
X162888750Y-77625000D01*
G75*
G02*
X162645000Y-77381250I0J243750D01*
G01*
X162645000Y-76893750D01*
G75*
G02*
X162888750Y-76650000I243750J0D01*
G01*
X163801250Y-76650000D01*
G75*
G02*
X164045000Y-76893750I0J-243750D01*
G01*
X164045000Y-77381250D01*
G75*
G02*
X163801250Y-77625000I-243750J0D01*
G01*
G37*
%TD.AperFunction*%
%TD*%
%TO.P,R3,2*%
%TO.N,/SCL*%
%TA.AperFunction,SMDPad,CuDef*%
G36*
G01*
X166801250Y-75750000D02*
X165888750Y-75750000D01*
G75*
G02*
X165645000Y-75506250I0J243750D01*
G01*
X165645000Y-75018750D01*
G75*
G02*
X165888750Y-74775000I243750J0D01*
G01*
X166801250Y-74775000D01*
G75*
G02*
X167045000Y-75018750I0J-243750D01*
G01*
X167045000Y-75506250D01*
G75*
G02*
X166801250Y-75750000I-243750J0D01*
G01*
G37*
%TD.AperFunction*%
%TO.P,R3,1*%
%TO.N,VDD*%
%TA.AperFunction,SMDPad,CuDef*%
G36*
G01*
X166801250Y-77625000D02*
X165888750Y-77625000D01*
G75*
G02*
X165645000Y-77381250I0J243750D01*
G01*
X165645000Y-76893750D01*
G75*
G02*
X165888750Y-76650000I243750J0D01*
G01*
X166801250Y-76650000D01*
G75*
G02*
X167045000Y-76893750I0J-243750D01*
G01*
X167045000Y-77381250D01*
G75*
G02*
X166801250Y-77625000I-243750J0D01*
G01*
G37*
%TD.AperFunction*%
%TD*%
%TO.P,R2,2*%
%TO.N,Net-(J2-Pad5)*%
%TA.AperFunction,SMDPad,CuDef*%
G36*
G01*
X159102270Y-82050000D02*
X160352270Y-82050000D01*
G75*
G02*
X160602270Y-82300000I0J-250000D01*
G01*
X160602270Y-83050000D01*
G75*
G02*
X160352270Y-83300000I-250000J0D01*
G01*
X159102270Y-83300000D01*
G75*
G02*
X158852270Y-83050000I0J250000D01*
G01*
X158852270Y-82300000D01*
G75*
G02*
X159102270Y-82050000I250000J0D01*
G01*
G37*
%TD.AperFunction*%
%TO.P,R2,1*%
%TO.N,Net-(C3-Pad2)*%
%TA.AperFunction,SMDPad,CuDef*%
G36*
G01*
X159102270Y-79250000D02*
X160352270Y-79250000D01*
G75*
G02*
X160602270Y-79500000I0J-250000D01*
G01*
X160602270Y-80250000D01*
G75*
G02*
X160352270Y-80500000I-250000J0D01*
G01*
X159102270Y-80500000D01*
G75*
G02*
X158852270Y-80250000I0J250000D01*
G01*
X158852270Y-79500000D01*
G75*
G02*
X159102270Y-79250000I250000J0D01*
G01*
G37*
%TD.AperFunction*%
%TD*%
%TO.P,R1,2*%
%TO.N,Net-(J2-Pad6)*%
%TA.AperFunction,SMDPad,CuDef*%
G36*
G01*
X153284090Y-82050000D02*
X154534090Y-82050000D01*
G75*
G02*
X154784090Y-82300000I0J-250000D01*
G01*
X154784090Y-83050000D01*
G75*
G02*
X154534090Y-83300000I-250000J0D01*
G01*
X153284090Y-83300000D01*
G75*
G02*
X153034090Y-83050000I0J250000D01*
G01*
X153034090Y-82300000D01*
G75*
G02*
X153284090Y-82050000I250000J0D01*
G01*
G37*
%TD.AperFunction*%
%TO.P,R1,1*%
%TO.N,Net-(C2-Pad2)*%
%TA.AperFunction,SMDPad,CuDef*%
G36*
G01*
X153284090Y-79250000D02*
X154534090Y-79250000D01*
G75*
G02*
X154784090Y-79500000I0J-250000D01*
G01*
X154784090Y-80250000D01*
G75*
G02*
X154534090Y-80500000I-250000J0D01*
G01*
X153284090Y-80500000D01*
G75*
G02*
X153034090Y-80250000I0J250000D01*
G01*
X153034090Y-79500000D01*
G75*
G02*
X153284090Y-79250000I250000J0D01*
G01*
G37*
%TD.AperFunction*%
%TD*%
D10*
%TO.P,J2,6*%
%TO.N,Net-(J2-Pad6)*%
X159890000Y-86360000D03*
%TO.P,J2,5*%
%TO.N,Net-(J2-Pad5)*%
X162430000Y-86360000D03*
%TO.P,J2,4*%
%TO.N,Net-(J2-Pad4)*%
X164970000Y-86360000D03*
%TO.P,J2,3*%
%TO.N,Net-(J2-Pad3)*%
X167510000Y-86360000D03*
%TO.P,J2,2*%
%TO.N,Net-(J2-Pad2)*%
X170050000Y-86360000D03*
D11*
%TO.P,J2,1*%
%TO.N,Net-(J2-Pad1)*%
X172590000Y-86360000D03*
%TD*%
D10*
%TO.P,J1,6*%
%TO.N,Net-(IC1-Pad5)*%
X159890000Y-68580000D03*
%TO.P,J1,5*%
%TO.N,Net-(IC1-Pad6)*%
X162430000Y-68580000D03*
%TO.P,J1,4*%
%TO.N,/SDA*%
X164970000Y-68580000D03*
%TO.P,J1,3*%
%TO.N,/SCL*%
X167510000Y-68580000D03*
%TO.P,J1,2*%
%TO.N,+3V3*%
X170050000Y-68580000D03*
D11*
%TO.P,J1,1*%
%TO.N,GNDS*%
X172590000Y-68580000D03*
%TD*%
D12*
%TO.P,IC2,10*%
%TO.N,/SCL*%
X174400000Y-76040000D03*
D13*
%TO.P,IC2,9*%
%TO.N,/SDA*%
X174510000Y-75400000D03*
D14*
%TO.P,IC2,8*%
%TO.N,VDD*%
X175010000Y-75400000D03*
%TO.P,IC2,7*%
%TO.N,Net-(C4-Pad2)*%
X175510000Y-75400000D03*
D13*
%TO.P,IC2,6*%
%TO.N,Net-(C5-Pad2)*%
X176010000Y-75400000D03*
D12*
%TO.P,IC2,5*%
%TO.N,Net-(C6-Pad2)*%
X176120000Y-76040000D03*
D13*
%TO.P,IC2,4*%
%TO.N,Net-(C7-Pad2)*%
X176010000Y-76680000D03*
D14*
%TO.P,IC2,3*%
%TO.N,GND*%
X175510000Y-76680000D03*
%TO.P,IC2,2*%
%TO.N,Net-(IC2-Pad2)*%
X175010000Y-76680000D03*
D13*
%TO.P,IC2,1*%
%TO.N,GND*%
X174510000Y-76680000D03*
%TD*%
%TO.P,IC1,1*%
%TO.N,VDD*%
X156730000Y-76680000D03*
D14*
%TO.P,IC1,2*%
%TO.N,Net-(C2-Pad2)*%
X157230000Y-76680000D03*
%TO.P,IC1,3*%
%TO.N,Net-(C3-Pad2)*%
X157730000Y-76680000D03*
D13*
%TO.P,IC1,4*%
%TO.N,GND*%
X158230000Y-76680000D03*
D12*
%TO.P,IC1,5*%
%TO.N,Net-(IC1-Pad5)*%
X158340000Y-76040000D03*
D13*
%TO.P,IC1,6*%
%TO.N,Net-(IC1-Pad6)*%
X158230000Y-75400000D03*
D14*
%TO.P,IC1,7*%
%TO.N,/SDA*%
X157730000Y-75400000D03*
%TO.P,IC1,8*%
%TO.N,/SCL*%
X157230000Y-75400000D03*
D13*
%TO.P,IC1,9*%
%TO.N,VDD*%
X156730000Y-75400000D03*
D12*
%TO.P,IC1,10*%
%TO.N,GND*%
X156620000Y-76040000D03*
%TD*%
%TO.P,FB2,2*%
%TO.N,GND*%
%TA.AperFunction,SMDPad,CuDef*%
G36*
G01*
X157665000Y-72043750D02*
X157665000Y-72956250D01*
G75*
G02*
X157421250Y-73200000I-243750J0D01*
G01*
X156933750Y-73200000D01*
G75*
G02*
X156690000Y-72956250I0J243750D01*
G01*
X156690000Y-72043750D01*
G75*
G02*
X156933750Y-71800000I243750J0D01*
G01*
X157421250Y-71800000D01*
G75*
G02*
X157665000Y-72043750I0J-243750D01*
G01*
G37*
%TD.AperFunction*%
%TO.P,FB2,1*%
%TO.N,GNDS*%
%TA.AperFunction,SMDPad,CuDef*%
G36*
G01*
X159540000Y-72043750D02*
X159540000Y-72956250D01*
G75*
G02*
X159296250Y-73200000I-243750J0D01*
G01*
X158808750Y-73200000D01*
G75*
G02*
X158565000Y-72956250I0J243750D01*
G01*
X158565000Y-72043750D01*
G75*
G02*
X158808750Y-71800000I243750J0D01*
G01*
X159296250Y-71800000D01*
G75*
G02*
X159540000Y-72043750I0J-243750D01*
G01*
G37*
%TD.AperFunction*%
%TD*%
%TO.P,FB1,2*%
%TO.N,VDD*%
%TA.AperFunction,SMDPad,CuDef*%
G36*
G01*
X175125000Y-72961250D02*
X175125000Y-72048750D01*
G75*
G02*
X175368750Y-71805000I243750J0D01*
G01*
X175856250Y-71805000D01*
G75*
G02*
X176100000Y-72048750I0J-243750D01*
G01*
X176100000Y-72961250D01*
G75*
G02*
X175856250Y-73205000I-243750J0D01*
G01*
X175368750Y-73205000D01*
G75*
G02*
X175125000Y-72961250I0J243750D01*
G01*
G37*
%TD.AperFunction*%
%TO.P,FB1,1*%
%TO.N,+3V3*%
%TA.AperFunction,SMDPad,CuDef*%
G36*
G01*
X173250000Y-72961250D02*
X173250000Y-72048750D01*
G75*
G02*
X173493750Y-71805000I243750J0D01*
G01*
X173981250Y-71805000D01*
G75*
G02*
X174225000Y-72048750I0J-243750D01*
G01*
X174225000Y-72961250D01*
G75*
G02*
X173981250Y-73205000I-243750J0D01*
G01*
X173493750Y-73205000D01*
G75*
G02*
X173250000Y-72961250I0J243750D01*
G01*
G37*
%TD.AperFunction*%
%TD*%
%TO.P,C8,2*%
%TO.N,+3V3*%
%TA.AperFunction,SMDPad,CuDef*%
G36*
G01*
X169850000Y-73130000D02*
X169850000Y-71880000D01*
G75*
G02*
X170100000Y-71630000I250000J0D01*
G01*
X170850000Y-71630000D01*
G75*
G02*
X171100000Y-71880000I0J-250000D01*
G01*
X171100000Y-73130000D01*
G75*
G02*
X170850000Y-73380000I-250000J0D01*
G01*
X170100000Y-73380000D01*
G75*
G02*
X169850000Y-73130000I0J250000D01*
G01*
G37*
%TD.AperFunction*%
%TO.P,C8,1*%
%TO.N,GNDS*%
%TA.AperFunction,SMDPad,CuDef*%
G36*
G01*
X167050000Y-73130000D02*
X167050000Y-71880000D01*
G75*
G02*
X167300000Y-71630000I250000J0D01*
G01*
X168050000Y-71630000D01*
G75*
G02*
X168300000Y-71880000I0J-250000D01*
G01*
X168300000Y-73130000D01*
G75*
G02*
X168050000Y-73380000I-250000J0D01*
G01*
X167300000Y-73380000D01*
G75*
G02*
X167050000Y-73130000I0J250000D01*
G01*
G37*
%TD.AperFunction*%
%TD*%
%TO.P,C7,2*%
%TO.N,Net-(C7-Pad2)*%
%TA.AperFunction,SMDPad,CuDef*%
G36*
G01*
X163092610Y-80825000D02*
X162180110Y-80825000D01*
G75*
G02*
X161936360Y-80581250I0J243750D01*
G01*
X161936360Y-80093750D01*
G75*
G02*
X162180110Y-79850000I243750J0D01*
G01*
X163092610Y-79850000D01*
G75*
G02*
X163336360Y-80093750I0J-243750D01*
G01*
X163336360Y-80581250D01*
G75*
G02*
X163092610Y-80825000I-243750J0D01*
G01*
G37*
%TD.AperFunction*%
%TO.P,C7,1*%
%TO.N,GND*%
%TA.AperFunction,SMDPad,CuDef*%
G36*
G01*
X163092610Y-82700000D02*
X162180110Y-82700000D01*
G75*
G02*
X161936360Y-82456250I0J243750D01*
G01*
X161936360Y-81968750D01*
G75*
G02*
X162180110Y-81725000I243750J0D01*
G01*
X163092610Y-81725000D01*
G75*
G02*
X163336360Y-81968750I0J-243750D01*
G01*
X163336360Y-82456250D01*
G75*
G02*
X163092610Y-82700000I-243750J0D01*
G01*
G37*
%TD.AperFunction*%
%TD*%
%TO.P,C6,2*%
%TO.N,Net-(C6-Pad2)*%
%TA.AperFunction,SMDPad,CuDef*%
G36*
G01*
X168910790Y-80825000D02*
X167998290Y-80825000D01*
G75*
G02*
X167754540Y-80581250I0J243750D01*
G01*
X167754540Y-80093750D01*
G75*
G02*
X167998290Y-79850000I243750J0D01*
G01*
X168910790Y-79850000D01*
G75*
G02*
X169154540Y-80093750I0J-243750D01*
G01*
X169154540Y-80581250D01*
G75*
G02*
X168910790Y-80825000I-243750J0D01*
G01*
G37*
%TD.AperFunction*%
%TO.P,C6,1*%
%TO.N,GND*%
%TA.AperFunction,SMDPad,CuDef*%
G36*
G01*
X168910790Y-82700000D02*
X167998290Y-82700000D01*
G75*
G02*
X167754540Y-82456250I0J243750D01*
G01*
X167754540Y-81968750D01*
G75*
G02*
X167998290Y-81725000I243750J0D01*
G01*
X168910790Y-81725000D01*
G75*
G02*
X169154540Y-81968750I0J-243750D01*
G01*
X169154540Y-82456250D01*
G75*
G02*
X168910790Y-82700000I-243750J0D01*
G01*
G37*
%TD.AperFunction*%
%TD*%
%TO.P,C5,2*%
%TO.N,Net-(C5-Pad2)*%
%TA.AperFunction,SMDPad,CuDef*%
G36*
G01*
X174728970Y-80825000D02*
X173816470Y-80825000D01*
G75*
G02*
X173572720Y-80581250I0J243750D01*
G01*
X173572720Y-80093750D01*
G75*
G02*
X173816470Y-79850000I243750J0D01*
G01*
X174728970Y-79850000D01*
G75*
G02*
X174972720Y-80093750I0J-243750D01*
G01*
X174972720Y-80581250D01*
G75*
G02*
X174728970Y-80825000I-243750J0D01*
G01*
G37*
%TD.AperFunction*%
%TO.P,C5,1*%
%TO.N,GND*%
%TA.AperFunction,SMDPad,CuDef*%
G36*
G01*
X174728970Y-82700000D02*
X173816470Y-82700000D01*
G75*
G02*
X173572720Y-82456250I0J243750D01*
G01*
X173572720Y-81968750D01*
G75*
G02*
X173816470Y-81725000I243750J0D01*
G01*
X174728970Y-81725000D01*
G75*
G02*
X174972720Y-81968750I0J-243750D01*
G01*
X174972720Y-82456250D01*
G75*
G02*
X174728970Y-82700000I-243750J0D01*
G01*
G37*
%TD.AperFunction*%
%TD*%
%TO.P,C4,2*%
%TO.N,Net-(C4-Pad2)*%
%TA.AperFunction,SMDPad,CuDef*%
G36*
G01*
X180547150Y-80825000D02*
X179634650Y-80825000D01*
G75*
G02*
X179390900Y-80581250I0J243750D01*
G01*
X179390900Y-80093750D01*
G75*
G02*
X179634650Y-79850000I243750J0D01*
G01*
X180547150Y-79850000D01*
G75*
G02*
X180790900Y-80093750I0J-243750D01*
G01*
X180790900Y-80581250D01*
G75*
G02*
X180547150Y-80825000I-243750J0D01*
G01*
G37*
%TD.AperFunction*%
%TO.P,C4,1*%
%TO.N,GND*%
%TA.AperFunction,SMDPad,CuDef*%
G36*
G01*
X180547150Y-82700000D02*
X179634650Y-82700000D01*
G75*
G02*
X179390900Y-82456250I0J243750D01*
G01*
X179390900Y-81968750D01*
G75*
G02*
X179634650Y-81725000I243750J0D01*
G01*
X180547150Y-81725000D01*
G75*
G02*
X180790900Y-81968750I0J-243750D01*
G01*
X180790900Y-82456250D01*
G75*
G02*
X180547150Y-82700000I-243750J0D01*
G01*
G37*
%TD.AperFunction*%
%TD*%
%TO.P,C3,2*%
%TO.N,Net-(C3-Pad2)*%
%TA.AperFunction,SMDPad,CuDef*%
G36*
G01*
X157274430Y-80825000D02*
X156361930Y-80825000D01*
G75*
G02*
X156118180Y-80581250I0J243750D01*
G01*
X156118180Y-80093750D01*
G75*
G02*
X156361930Y-79850000I243750J0D01*
G01*
X157274430Y-79850000D01*
G75*
G02*
X157518180Y-80093750I0J-243750D01*
G01*
X157518180Y-80581250D01*
G75*
G02*
X157274430Y-80825000I-243750J0D01*
G01*
G37*
%TD.AperFunction*%
%TO.P,C3,1*%
%TO.N,GND*%
%TA.AperFunction,SMDPad,CuDef*%
G36*
G01*
X157274430Y-82700000D02*
X156361930Y-82700000D01*
G75*
G02*
X156118180Y-82456250I0J243750D01*
G01*
X156118180Y-81968750D01*
G75*
G02*
X156361930Y-81725000I243750J0D01*
G01*
X157274430Y-81725000D01*
G75*
G02*
X157518180Y-81968750I0J-243750D01*
G01*
X157518180Y-82456250D01*
G75*
G02*
X157274430Y-82700000I-243750J0D01*
G01*
G37*
%TD.AperFunction*%
%TD*%
%TO.P,C2,2*%
%TO.N,Net-(C2-Pad2)*%
%TA.AperFunction,SMDPad,CuDef*%
G36*
G01*
X151456250Y-80825000D02*
X150543750Y-80825000D01*
G75*
G02*
X150300000Y-80581250I0J243750D01*
G01*
X150300000Y-80093750D01*
G75*
G02*
X150543750Y-79850000I243750J0D01*
G01*
X151456250Y-79850000D01*
G75*
G02*
X151700000Y-80093750I0J-243750D01*
G01*
X151700000Y-80581250D01*
G75*
G02*
X151456250Y-80825000I-243750J0D01*
G01*
G37*
%TD.AperFunction*%
%TO.P,C2,1*%
%TO.N,GND*%
%TA.AperFunction,SMDPad,CuDef*%
G36*
G01*
X151456250Y-82700000D02*
X150543750Y-82700000D01*
G75*
G02*
X150300000Y-82456250I0J243750D01*
G01*
X150300000Y-81968750D01*
G75*
G02*
X150543750Y-81725000I243750J0D01*
G01*
X151456250Y-81725000D01*
G75*
G02*
X151700000Y-81968750I0J-243750D01*
G01*
X151700000Y-82456250D01*
G75*
G02*
X151456250Y-82700000I-243750J0D01*
G01*
G37*
%TD.AperFunction*%
%TD*%
%TO.P,C1,2*%
%TO.N,+3V3*%
%TA.AperFunction,SMDPad,CuDef*%
G36*
G01*
X163970000Y-73130000D02*
X163970000Y-71880000D01*
G75*
G02*
X164220000Y-71630000I250000J0D01*
G01*
X164970000Y-71630000D01*
G75*
G02*
X165220000Y-71880000I0J-250000D01*
G01*
X165220000Y-73130000D01*
G75*
G02*
X164970000Y-73380000I-250000J0D01*
G01*
X164220000Y-73380000D01*
G75*
G02*
X163970000Y-73130000I0J250000D01*
G01*
G37*
%TD.AperFunction*%
%TO.P,C1,1*%
%TO.N,GNDS*%
%TA.AperFunction,SMDPad,CuDef*%
G36*
G01*
X161170000Y-73130000D02*
X161170000Y-71880000D01*
G75*
G02*
X161420000Y-71630000I250000J0D01*
G01*
X162170000Y-71630000D01*
G75*
G02*
X162420000Y-71880000I0J-250000D01*
G01*
X162420000Y-73130000D01*
G75*
G02*
X162170000Y-73380000I-250000J0D01*
G01*
X161420000Y-73380000D01*
G75*
G02*
X161170000Y-73130000I0J250000D01*
G01*
G37*
%TD.AperFunction*%
%TD*%
D15*
%TO.N,GNDS*%
X159000000Y-72500000D03*
X161590000Y-72540000D03*
X167590000Y-72540000D03*
%TO.N,GND*%
X151000000Y-82212500D03*
X156818180Y-82212500D03*
X162636360Y-82212500D03*
X168454540Y-82212500D03*
X174272720Y-82212500D03*
X180090900Y-82212500D03*
X155590000Y-76040000D03*
X159590000Y-77040000D03*
X175510000Y-77960000D03*
X173090000Y-77040000D03*
X157177500Y-72500000D03*
%TO.N,/SCL*%
X173090000Y-76040000D03*
%TO.N,VDD*%
X169345000Y-77137500D03*
X166345000Y-77137500D03*
X163345000Y-77137500D03*
X155590000Y-77040000D03*
%TO.N,/SDA*%
X173090000Y-75040000D03*
X163345000Y-75262500D03*
X155600000Y-73100000D03*
%TO.N,/SCL*%
X166345000Y-75262500D03*
X155590000Y-74250000D03*
%TD*%
D16*
%TO.N,+3V3*%
X170050000Y-72080000D02*
X170475000Y-72505000D01*
X169730010Y-70899990D02*
X170050000Y-70580000D01*
X164595000Y-72505000D02*
X166200010Y-70899990D01*
X166200010Y-70899990D02*
X169730010Y-70899990D01*
X170050000Y-68580000D02*
X170050000Y-70580000D01*
X173737500Y-72505000D02*
X172272500Y-71040000D01*
X170090000Y-71040000D02*
X170050000Y-71000000D01*
X172272500Y-71040000D02*
X170090000Y-71040000D01*
X170050000Y-71000000D02*
X170050000Y-72080000D01*
X170050000Y-70580000D02*
X170050000Y-71000000D01*
D17*
%TO.N,Net-(C2-Pad2)*%
X154565000Y-79875000D02*
X153909090Y-79875000D01*
X157230000Y-77210000D02*
X154565000Y-79875000D01*
X157230000Y-76680000D02*
X157230000Y-77210000D01*
X151462500Y-79875000D02*
X151000000Y-80337500D01*
X153909090Y-79875000D02*
X151462500Y-79875000D01*
D18*
%TO.N,GND*%
X180090900Y-82212500D02*
X180090900Y-82212500D01*
X174272720Y-82212500D02*
X174272720Y-82212500D01*
X168454540Y-82212500D02*
X168454540Y-82212500D01*
X162636360Y-82212500D02*
X162636360Y-82212500D01*
X156818180Y-82212500D02*
X156818180Y-82212500D01*
X151000000Y-82212500D02*
X151000000Y-82212500D01*
D17*
X156620000Y-76040000D02*
X155590000Y-76040000D01*
X155590000Y-76040000D02*
X155590000Y-76040000D01*
D19*
X158450000Y-76680000D02*
X158810000Y-77040000D01*
X158810000Y-77040000D02*
X159590000Y-77040000D01*
X159590000Y-77040000D02*
X159590000Y-77040000D01*
D17*
X175510000Y-76680000D02*
X175510000Y-77960000D01*
X175510000Y-77960000D02*
X175510000Y-77960000D01*
D19*
X173090000Y-77040000D02*
X173090000Y-77040000D01*
D17*
X173450000Y-76680000D02*
X173090000Y-77040000D01*
X174510000Y-76680000D02*
X173450000Y-76680000D01*
D16*
X157177500Y-72500000D02*
X157177500Y-72500000D01*
D17*
X158320000Y-76680000D02*
X158450000Y-76680000D01*
X158230000Y-76680000D02*
X158320000Y-76680000D01*
%TO.N,Net-(C3-Pad2)*%
X157730000Y-77877730D02*
X159727270Y-79875000D01*
X157730000Y-76680000D02*
X157730000Y-77877730D01*
X157280680Y-79875000D02*
X156818180Y-80337500D01*
X159727270Y-79875000D02*
X157280680Y-79875000D01*
%TO.N,Net-(C4-Pad2)*%
X180090900Y-78322630D02*
X180090900Y-80337500D01*
X176558269Y-74789999D02*
X180090900Y-78322630D01*
X175603999Y-74789999D02*
X176558269Y-74789999D01*
X175510000Y-74883998D02*
X175603999Y-74789999D01*
X175510000Y-75400000D02*
X175510000Y-74883998D01*
X182537500Y-80337500D02*
X183000000Y-79875000D01*
X180090900Y-80337500D02*
X182537500Y-80337500D01*
%TO.N,Net-(C5-Pad2)*%
X176546002Y-75400000D02*
X177181810Y-76035808D01*
X177181810Y-76035808D02*
X177181810Y-79875000D01*
X176010000Y-75400000D02*
X176546002Y-75400000D01*
X176719310Y-80337500D02*
X174272720Y-80337500D01*
X177181810Y-79875000D02*
X176719310Y-80337500D01*
%TO.N,Net-(C6-Pad2)*%
X171708640Y-79529990D02*
X171363630Y-79875000D01*
X175627880Y-79529990D02*
X171708640Y-79529990D01*
X176670010Y-78487860D02*
X175627880Y-79529990D01*
X176670011Y-76324009D02*
X176670010Y-78487860D01*
X176386002Y-76040000D02*
X176670011Y-76324009D01*
X176120000Y-76040000D02*
X176386002Y-76040000D01*
X168917040Y-79875000D02*
X168454540Y-80337500D01*
X171363630Y-79875000D02*
X168917040Y-79875000D01*
%TO.N,Net-(C7-Pad2)*%
X166490460Y-78929990D02*
X165545450Y-79875000D01*
X175605612Y-78929990D02*
X166490460Y-78929990D01*
X176230001Y-78305601D02*
X175605612Y-78929990D01*
X176230001Y-77614399D02*
X176230001Y-78305601D01*
X176010000Y-77394398D02*
X176230001Y-77614399D01*
X176010000Y-76680000D02*
X176010000Y-77394398D01*
X163098860Y-79875000D02*
X162636360Y-80337500D01*
X165545450Y-79875000D02*
X163098860Y-79875000D01*
D19*
%TO.N,VDD*%
X156370000Y-77040000D02*
X155590000Y-77040000D01*
D17*
X175010000Y-75400000D02*
X175010000Y-74120000D01*
D16*
X169345000Y-77137500D02*
X169345000Y-77137500D01*
X166345000Y-77137500D02*
X166345000Y-77137500D01*
X163345000Y-77137500D02*
X163345000Y-77137500D01*
D19*
X155590000Y-77040000D02*
X155590000Y-77040000D01*
X155024315Y-77040000D02*
X155590000Y-77040000D01*
X155465198Y-75040000D02*
X154829999Y-75675199D01*
X156370000Y-75040000D02*
X155465198Y-75040000D01*
X154829999Y-76845684D02*
X155024315Y-77040000D01*
X154829999Y-75675199D02*
X154829999Y-76845684D01*
D17*
X156730000Y-75400000D02*
X156370000Y-75040000D01*
X156370000Y-77040000D02*
X156730000Y-76680000D01*
%TO.N,Net-(IC1-Pad5)*%
X159890000Y-75045000D02*
X159890000Y-68580000D01*
X158895000Y-76040000D02*
X159890000Y-75045000D01*
X158340000Y-76040000D02*
X158895000Y-76040000D01*
%TO.N,Net-(IC1-Pad6)*%
X160849990Y-70160010D02*
X162430000Y-68580000D01*
X160849990Y-74264768D02*
X160849990Y-70160010D01*
X162655232Y-76070010D02*
X160849990Y-74264768D01*
X168537490Y-76070010D02*
X162655232Y-76070010D01*
X169345000Y-75262500D02*
X168537490Y-76070010D01*
X159328399Y-67409999D02*
X161259999Y-67409999D01*
X158230000Y-68508398D02*
X159328399Y-67409999D01*
X161259999Y-67409999D02*
X162430000Y-68580000D01*
X158230000Y-75400000D02*
X158230000Y-68508398D01*
D16*
%TO.N,Net-(J2-Pad6)*%
X153909090Y-82675000D02*
X153909090Y-82859090D01*
X153909090Y-82859090D02*
X156590000Y-85540000D01*
X156590000Y-85540000D02*
X159090000Y-85540000D01*
X159090000Y-85560000D02*
X159890000Y-86360000D01*
X159090000Y-85540000D02*
X159090000Y-85560000D01*
%TO.N,Net-(J2-Pad5)*%
X159727270Y-83657270D02*
X162430000Y-86360000D01*
X159727270Y-82675000D02*
X159727270Y-83657270D01*
%TO.N,Net-(J2-Pad4)*%
X165545450Y-85784550D02*
X164970000Y-86360000D01*
X165545450Y-82675000D02*
X165545450Y-85784550D01*
%TO.N,Net-(J2-Pad3)*%
X171363630Y-82675000D02*
X171363630Y-83266370D01*
X171363630Y-83266370D02*
X170090000Y-84540000D01*
X169330000Y-84540000D02*
X167510000Y-86360000D01*
X170090000Y-84540000D02*
X169330000Y-84540000D01*
%TO.N,Net-(J2-Pad2)*%
X177181810Y-82675000D02*
X175316810Y-84540000D01*
X171870000Y-84540000D02*
X170050000Y-86360000D01*
X175316810Y-84540000D02*
X171870000Y-84540000D01*
%TO.N,Net-(J2-Pad1)*%
X183000000Y-82675000D02*
X180135000Y-85540000D01*
X173410000Y-85540000D02*
X172590000Y-86360000D01*
X180135000Y-85540000D02*
X173410000Y-85540000D01*
D17*
%TO.N,/SDA*%
X162859473Y-70690527D02*
X164970000Y-68580000D01*
X162859473Y-74776973D02*
X162859473Y-70690527D01*
X163345000Y-75262500D02*
X163345000Y-75262500D01*
X163345000Y-75262500D02*
X162859473Y-74776973D01*
X157730000Y-74747732D02*
X156372268Y-73390000D01*
X157730000Y-75400000D02*
X157730000Y-74747732D01*
X173450000Y-75400000D02*
X173090000Y-75040000D01*
X174510000Y-75400000D02*
X173450000Y-75400000D01*
X156372268Y-73390000D02*
X155890000Y-73390000D01*
X155890000Y-73390000D02*
X155600000Y-73100000D01*
X155600000Y-73100000D02*
X155600000Y-73100000D01*
%TO.N,/SCL*%
X163649990Y-71643892D02*
X165253882Y-70040000D01*
X163649990Y-73366108D02*
X163649990Y-71643892D01*
X165546382Y-75262500D02*
X163649990Y-73366108D01*
X166345000Y-75262500D02*
X166345000Y-75262500D01*
X166050000Y-70040000D02*
X167510000Y-68580000D01*
X165253882Y-70040000D02*
X166050000Y-70040000D01*
X166345000Y-75262500D02*
X165546382Y-75262500D01*
X156596002Y-74250000D02*
X155590000Y-74250000D01*
X157230000Y-74883998D02*
X156596002Y-74250000D01*
X157230000Y-75400000D02*
X157230000Y-74883998D01*
X174400000Y-76040000D02*
X173090000Y-76040000D01*
%TD*%
D20*
%TO.N,VDD*%
G36*
X157722360Y-67948307D02*
G01*
X157693552Y-67971949D01*
X157669910Y-68000757D01*
X157669908Y-68000759D01*
X157599203Y-68086913D01*
X157529096Y-68218075D01*
X157485925Y-68360393D01*
X157471347Y-68508398D01*
X157475001Y-68545496D01*
X157475001Y-71167222D01*
X157421250Y-71161928D01*
X156933750Y-71161928D01*
X156761715Y-71178872D01*
X156596291Y-71229053D01*
X156443836Y-71310542D01*
X156310208Y-71420208D01*
X156200542Y-71553836D01*
X156119053Y-71706291D01*
X156068872Y-71871715D01*
X156051928Y-72043750D01*
X156051928Y-72166919D01*
X155901898Y-72104774D01*
X155701939Y-72065000D01*
X155498061Y-72065000D01*
X155298102Y-72104774D01*
X155109744Y-72182795D01*
X154940226Y-72296063D01*
X154796063Y-72440226D01*
X154682795Y-72609744D01*
X154604774Y-72798102D01*
X154565000Y-72998061D01*
X154565000Y-73201939D01*
X154604774Y-73401898D01*
X154682795Y-73590256D01*
X154734419Y-73667517D01*
X154672795Y-73759744D01*
X154594774Y-73948102D01*
X154555000Y-74148061D01*
X154555000Y-74351939D01*
X154594774Y-74551898D01*
X154672795Y-74740256D01*
X154786063Y-74909774D01*
X154930226Y-75053937D01*
X155066512Y-75145000D01*
X154930226Y-75236063D01*
X154786063Y-75380226D01*
X154672795Y-75549744D01*
X154594774Y-75738102D01*
X154555000Y-75938061D01*
X154555000Y-76141939D01*
X154594774Y-76341898D01*
X154672795Y-76530256D01*
X154786063Y-76699774D01*
X154930226Y-76843937D01*
X155099744Y-76957205D01*
X155288102Y-77035226D01*
X155488061Y-77075000D01*
X155691939Y-77075000D01*
X155891898Y-77035226D01*
X155947542Y-77012177D01*
X155951150Y-77078091D01*
X155984321Y-77198697D01*
X156040383Y-77310514D01*
X156049734Y-77322535D01*
X154734914Y-78637355D01*
X154707344Y-78628992D01*
X154534090Y-78611928D01*
X153284090Y-78611928D01*
X153110836Y-78628992D01*
X152944240Y-78679528D01*
X152790704Y-78761595D01*
X152656128Y-78872038D01*
X152622512Y-78913000D01*
X149250000Y-78913000D01*
X149250000Y-70072279D01*
X149297670Y-69586107D01*
X149429489Y-69149502D01*
X149643600Y-68746815D01*
X149931848Y-68393388D01*
X150283261Y-68102673D01*
X150684439Y-67885758D01*
X151120113Y-67750894D01*
X151604344Y-67700000D01*
X157970667Y-67700000D01*
X157722360Y-67948307D01*
G37*
X157722360Y-67948307D02*
X157693552Y-67971949D01*
X157669910Y-68000757D01*
X157669908Y-68000759D01*
X157599203Y-68086913D01*
X157529096Y-68218075D01*
X157485925Y-68360393D01*
X157471347Y-68508398D01*
X157475001Y-68545496D01*
X157475001Y-71167222D01*
X157421250Y-71161928D01*
X156933750Y-71161928D01*
X156761715Y-71178872D01*
X156596291Y-71229053D01*
X156443836Y-71310542D01*
X156310208Y-71420208D01*
X156200542Y-71553836D01*
X156119053Y-71706291D01*
X156068872Y-71871715D01*
X156051928Y-72043750D01*
X156051928Y-72166919D01*
X155901898Y-72104774D01*
X155701939Y-72065000D01*
X155498061Y-72065000D01*
X155298102Y-72104774D01*
X155109744Y-72182795D01*
X154940226Y-72296063D01*
X154796063Y-72440226D01*
X154682795Y-72609744D01*
X154604774Y-72798102D01*
X154565000Y-72998061D01*
X154565000Y-73201939D01*
X154604774Y-73401898D01*
X154682795Y-73590256D01*
X154734419Y-73667517D01*
X154672795Y-73759744D01*
X154594774Y-73948102D01*
X154555000Y-74148061D01*
X154555000Y-74351939D01*
X154594774Y-74551898D01*
X154672795Y-74740256D01*
X154786063Y-74909774D01*
X154930226Y-75053937D01*
X155066512Y-75145000D01*
X154930226Y-75236063D01*
X154786063Y-75380226D01*
X154672795Y-75549744D01*
X154594774Y-75738102D01*
X154555000Y-75938061D01*
X154555000Y-76141939D01*
X154594774Y-76341898D01*
X154672795Y-76530256D01*
X154786063Y-76699774D01*
X154930226Y-76843937D01*
X155099744Y-76957205D01*
X155288102Y-77035226D01*
X155488061Y-77075000D01*
X155691939Y-77075000D01*
X155891898Y-77035226D01*
X155947542Y-77012177D01*
X155951150Y-77078091D01*
X155984321Y-77198697D01*
X156040383Y-77310514D01*
X156049734Y-77322535D01*
X154734914Y-78637355D01*
X154707344Y-78628992D01*
X154534090Y-78611928D01*
X153284090Y-78611928D01*
X153110836Y-78628992D01*
X152944240Y-78679528D01*
X152790704Y-78761595D01*
X152656128Y-78872038D01*
X152622512Y-78913000D01*
X149250000Y-78913000D01*
X149250000Y-70072279D01*
X149297670Y-69586107D01*
X149429489Y-69149502D01*
X149643600Y-68746815D01*
X149931848Y-68393388D01*
X150283261Y-68102673D01*
X150684439Y-67885758D01*
X151120113Y-67750894D01*
X151604344Y-67700000D01*
X157970667Y-67700000D01*
X157722360Y-67948307D01*
G36*
X183043893Y-67747670D02*
G01*
X183480498Y-67879489D01*
X183883185Y-68093600D01*
X184236612Y-68381848D01*
X184527327Y-68733261D01*
X184744242Y-69134439D01*
X184879106Y-69570113D01*
X184930000Y-70054344D01*
X184930001Y-78913000D01*
X184286578Y-78913000D01*
X184252962Y-78872038D01*
X184118386Y-78761595D01*
X183964850Y-78679528D01*
X183798254Y-78628992D01*
X183625000Y-78611928D01*
X182375000Y-78611928D01*
X182201746Y-78628992D01*
X182035150Y-78679528D01*
X181881614Y-78761595D01*
X181747038Y-78872038D01*
X181713422Y-78913000D01*
X180845900Y-78913000D01*
X180845900Y-78359718D01*
X180849553Y-78322630D01*
X180843687Y-78263072D01*
X180834976Y-78174624D01*
X180791804Y-78032306D01*
X180721697Y-77901145D01*
X180627349Y-77786181D01*
X180598537Y-77762536D01*
X177118364Y-74282363D01*
X177094718Y-74253550D01*
X176979754Y-74159202D01*
X176848593Y-74089095D01*
X176706275Y-74045923D01*
X176595359Y-74034999D01*
X176595357Y-74034999D01*
X176558269Y-74031346D01*
X176521181Y-74034999D01*
X175641087Y-74034999D01*
X175603999Y-74031346D01*
X175566911Y-74034999D01*
X175566909Y-74034999D01*
X175455993Y-74045923D01*
X175313675Y-74089095D01*
X175182514Y-74159202D01*
X175067550Y-74253550D01*
X175043901Y-74282367D01*
X175002362Y-74323905D01*
X174973552Y-74347549D01*
X174949909Y-74376358D01*
X174949908Y-74376359D01*
X174934439Y-74395208D01*
X174879203Y-74462513D01*
X174865117Y-74488867D01*
X174851250Y-74475000D01*
X174778851Y-74483633D01*
X174660000Y-74471928D01*
X174360000Y-74471928D01*
X174235518Y-74484188D01*
X174115820Y-74520498D01*
X174016976Y-74573332D01*
X174007205Y-74549744D01*
X173893937Y-74380226D01*
X173749774Y-74236063D01*
X173580256Y-74122795D01*
X173391898Y-74044774D01*
X173191939Y-74005000D01*
X172988061Y-74005000D01*
X172788102Y-74044774D01*
X172599744Y-74122795D01*
X172430226Y-74236063D01*
X172286063Y-74380226D01*
X172172795Y-74549744D01*
X172094774Y-74738102D01*
X172055000Y-74938061D01*
X172055000Y-75141939D01*
X172094774Y-75341898D01*
X172172795Y-75530256D01*
X172179306Y-75540000D01*
X172172795Y-75549744D01*
X172094774Y-75738102D01*
X172055000Y-75938061D01*
X172055000Y-76141939D01*
X172094774Y-76341898D01*
X172172795Y-76530256D01*
X172179306Y-76540000D01*
X172172795Y-76549744D01*
X172094774Y-76738102D01*
X172055000Y-76938061D01*
X172055000Y-77141939D01*
X172094774Y-77341898D01*
X172172795Y-77530256D01*
X172286063Y-77699774D01*
X172430226Y-77843937D01*
X172599744Y-77957205D01*
X172788102Y-78035226D01*
X172988061Y-78075000D01*
X173191939Y-78075000D01*
X173391898Y-78035226D01*
X173580256Y-77957205D01*
X173749774Y-77843937D01*
X173893937Y-77699774D01*
X174007205Y-77530256D01*
X174016976Y-77506668D01*
X174115820Y-77559502D01*
X174235518Y-77595812D01*
X174360000Y-77608072D01*
X174535497Y-77608072D01*
X174514774Y-77658102D01*
X174475000Y-77858061D01*
X174475000Y-78061939D01*
X174497487Y-78174990D01*
X170363101Y-78174990D01*
X170399494Y-78155537D01*
X170496185Y-78076185D01*
X170575537Y-77979494D01*
X170634502Y-77869180D01*
X170670812Y-77749482D01*
X170683072Y-77625000D01*
X170680000Y-77423250D01*
X170521250Y-77264500D01*
X169472000Y-77264500D01*
X169472000Y-77284500D01*
X169218000Y-77284500D01*
X169218000Y-77264500D01*
X168168750Y-77264500D01*
X168010000Y-77423250D01*
X168006928Y-77625000D01*
X168019188Y-77749482D01*
X168055498Y-77869180D01*
X168114463Y-77979494D01*
X168193815Y-78076185D01*
X168290506Y-78155537D01*
X168326899Y-78174990D01*
X167363101Y-78174990D01*
X167399494Y-78155537D01*
X167496185Y-78076185D01*
X167575537Y-77979494D01*
X167634502Y-77869180D01*
X167670812Y-77749482D01*
X167683072Y-77625000D01*
X167680000Y-77423250D01*
X167521250Y-77264500D01*
X166472000Y-77264500D01*
X166472000Y-77284500D01*
X166218000Y-77284500D01*
X166218000Y-77264500D01*
X165168750Y-77264500D01*
X165010000Y-77423250D01*
X165006928Y-77625000D01*
X165019188Y-77749482D01*
X165055498Y-77869180D01*
X165114463Y-77979494D01*
X165193815Y-78076185D01*
X165290506Y-78155537D01*
X165400820Y-78214502D01*
X165520518Y-78250812D01*
X165645000Y-78263072D01*
X166059250Y-78260000D01*
X166217998Y-78101252D01*
X166217998Y-78223668D01*
X166200136Y-78229086D01*
X166068974Y-78299193D01*
X166020119Y-78339288D01*
X165954011Y-78393541D01*
X165930365Y-78422354D01*
X165740791Y-78611928D01*
X164920450Y-78611928D01*
X164747196Y-78628992D01*
X164580600Y-78679528D01*
X164427064Y-78761595D01*
X164292488Y-78872038D01*
X164258872Y-78913000D01*
X161013848Y-78913000D01*
X160980232Y-78872038D01*
X160845656Y-78761595D01*
X160692120Y-78679528D01*
X160525524Y-78628992D01*
X160352270Y-78611928D01*
X159531929Y-78611928D01*
X158753258Y-77833257D01*
X158770952Y-77835000D01*
X158770960Y-77835000D01*
X158810000Y-77838845D01*
X158849040Y-77835000D01*
X158921289Y-77835000D01*
X158930226Y-77843937D01*
X159099744Y-77957205D01*
X159288102Y-78035226D01*
X159488061Y-78075000D01*
X159691939Y-78075000D01*
X159891898Y-78035226D01*
X160080256Y-77957205D01*
X160249774Y-77843937D01*
X160393937Y-77699774D01*
X160443899Y-77625000D01*
X162006928Y-77625000D01*
X162019188Y-77749482D01*
X162055498Y-77869180D01*
X162114463Y-77979494D01*
X162193815Y-78076185D01*
X162290506Y-78155537D01*
X162400820Y-78214502D01*
X162520518Y-78250812D01*
X162645000Y-78263072D01*
X163059250Y-78260000D01*
X163218000Y-78101250D01*
X163218000Y-77264500D01*
X163472000Y-77264500D01*
X163472000Y-78101250D01*
X163630750Y-78260000D01*
X164045000Y-78263072D01*
X164169482Y-78250812D01*
X164289180Y-78214502D01*
X164399494Y-78155537D01*
X164496185Y-78076185D01*
X164575537Y-77979494D01*
X164634502Y-77869180D01*
X164670812Y-77749482D01*
X164683072Y-77625000D01*
X164680000Y-77423250D01*
X164521250Y-77264500D01*
X163472000Y-77264500D01*
X163218000Y-77264500D01*
X162168750Y-77264500D01*
X162010000Y-77423250D01*
X162006928Y-77625000D01*
X160443899Y-77625000D01*
X160507205Y-77530256D01*
X160585226Y-77341898D01*
X160625000Y-77141939D01*
X160625000Y-76938061D01*
X160585226Y-76738102D01*
X160507205Y-76549744D01*
X160393937Y-76380226D01*
X160249774Y-76236063D01*
X160080256Y-76122795D01*
X159938609Y-76064122D01*
X160397637Y-75605094D01*
X160426449Y-75581449D01*
X160520797Y-75466485D01*
X160590904Y-75335324D01*
X160634076Y-75193006D01*
X160640928Y-75123437D01*
X162024732Y-76507241D01*
X162019188Y-76525518D01*
X162006928Y-76650000D01*
X162010000Y-76851750D01*
X162168750Y-77010500D01*
X163218000Y-77010500D01*
X163218000Y-76990500D01*
X163472000Y-76990500D01*
X163472000Y-77010500D01*
X164521250Y-77010500D01*
X164680000Y-76851750D01*
X164680407Y-76825010D01*
X165009593Y-76825010D01*
X165010000Y-76851750D01*
X165168750Y-77010500D01*
X166218000Y-77010500D01*
X166218000Y-76990500D01*
X166472000Y-76990500D01*
X166472000Y-77010500D01*
X167521250Y-77010500D01*
X167680000Y-76851750D01*
X167680407Y-76825010D01*
X168009593Y-76825010D01*
X168010000Y-76851750D01*
X168168750Y-77010500D01*
X169218000Y-77010500D01*
X169218000Y-76990500D01*
X169472000Y-76990500D01*
X169472000Y-77010500D01*
X170521250Y-77010500D01*
X170680000Y-76851750D01*
X170683072Y-76650000D01*
X170670812Y-76525518D01*
X170634502Y-76405820D01*
X170575537Y-76295506D01*
X170496185Y-76198815D01*
X170418436Y-76135008D01*
X170424792Y-76129792D01*
X170534458Y-75996164D01*
X170615947Y-75843709D01*
X170666128Y-75678285D01*
X170683072Y-75506250D01*
X170683072Y-75018750D01*
X170666128Y-74846715D01*
X170615947Y-74681291D01*
X170534458Y-74528836D01*
X170424792Y-74395208D01*
X170291164Y-74285542D01*
X170138709Y-74204053D01*
X169973285Y-74153872D01*
X169801250Y-74136928D01*
X168888750Y-74136928D01*
X168716715Y-74153872D01*
X168551291Y-74204053D01*
X168398836Y-74285542D01*
X168265208Y-74395208D01*
X168155542Y-74528836D01*
X168074053Y-74681291D01*
X168023872Y-74846715D01*
X168006928Y-75018750D01*
X168006928Y-75315010D01*
X167683072Y-75315010D01*
X167683072Y-75018750D01*
X167666128Y-74846715D01*
X167615947Y-74681291D01*
X167534458Y-74528836D01*
X167424792Y-74395208D01*
X167291164Y-74285542D01*
X167138709Y-74204053D01*
X166973285Y-74153872D01*
X166801250Y-74136928D01*
X165888750Y-74136928D01*
X165716715Y-74153872D01*
X165554648Y-74203035D01*
X165303893Y-73952279D01*
X165309850Y-73950472D01*
X165463386Y-73868405D01*
X165597962Y-73757962D01*
X165708405Y-73623386D01*
X165790472Y-73469850D01*
X165841008Y-73303254D01*
X165858072Y-73130000D01*
X165858072Y-72465222D01*
X166411928Y-71911367D01*
X166411928Y-73130000D01*
X166428992Y-73303254D01*
X166479528Y-73469850D01*
X166561595Y-73623386D01*
X166672038Y-73757962D01*
X166806614Y-73868405D01*
X166960150Y-73950472D01*
X167126746Y-74001008D01*
X167300000Y-74018072D01*
X168050000Y-74018072D01*
X168223254Y-74001008D01*
X168389850Y-73950472D01*
X168543386Y-73868405D01*
X168677962Y-73757962D01*
X168788405Y-73623386D01*
X168870472Y-73469850D01*
X168921008Y-73303254D01*
X168938072Y-73130000D01*
X168938072Y-71880000D01*
X168926745Y-71764990D01*
X169185001Y-71764990D01*
X169185001Y-72037502D01*
X169180815Y-72080000D01*
X169197517Y-72249569D01*
X169211928Y-72297076D01*
X169211928Y-73130000D01*
X169228992Y-73303254D01*
X169279528Y-73469850D01*
X169361595Y-73623386D01*
X169472038Y-73757962D01*
X169606614Y-73868405D01*
X169760150Y-73950472D01*
X169926746Y-74001008D01*
X170100000Y-74018072D01*
X170850000Y-74018072D01*
X171023254Y-74001008D01*
X171189850Y-73950472D01*
X171343386Y-73868405D01*
X171477962Y-73757962D01*
X171588405Y-73623386D01*
X171670472Y-73469850D01*
X171721008Y-73303254D01*
X171738072Y-73130000D01*
X171738072Y-71905000D01*
X171914206Y-71905000D01*
X172611928Y-72602723D01*
X172611928Y-72961250D01*
X172628872Y-73133285D01*
X172679053Y-73298709D01*
X172760542Y-73451164D01*
X172870208Y-73584792D01*
X173003836Y-73694458D01*
X173156291Y-73775947D01*
X173321715Y-73826128D01*
X173493750Y-73843072D01*
X173981250Y-73843072D01*
X174153285Y-73826128D01*
X174318709Y-73775947D01*
X174471164Y-73694458D01*
X174604792Y-73584792D01*
X174610008Y-73578436D01*
X174673815Y-73656185D01*
X174770506Y-73735537D01*
X174880820Y-73794502D01*
X175000518Y-73830812D01*
X175125000Y-73843072D01*
X175326750Y-73840000D01*
X175485500Y-73681250D01*
X175485500Y-72632000D01*
X175739500Y-72632000D01*
X175739500Y-73681250D01*
X175898250Y-73840000D01*
X176100000Y-73843072D01*
X176224482Y-73830812D01*
X176344180Y-73794502D01*
X176454494Y-73735537D01*
X176551185Y-73656185D01*
X176630537Y-73559494D01*
X176689502Y-73449180D01*
X176725812Y-73329482D01*
X176738072Y-73205000D01*
X176735000Y-72790750D01*
X176576250Y-72632000D01*
X175739500Y-72632000D01*
X175485500Y-72632000D01*
X175465500Y-72632000D01*
X175465500Y-72378000D01*
X175485500Y-72378000D01*
X175485500Y-71328750D01*
X175739500Y-71328750D01*
X175739500Y-72378000D01*
X176576250Y-72378000D01*
X176735000Y-72219250D01*
X176738072Y-71805000D01*
X176725812Y-71680518D01*
X176689502Y-71560820D01*
X176630537Y-71450506D01*
X176551185Y-71353815D01*
X176454494Y-71274463D01*
X176344180Y-71215498D01*
X176224482Y-71179188D01*
X176100000Y-71166928D01*
X175898250Y-71170000D01*
X175739500Y-71328750D01*
X175485500Y-71328750D01*
X175326750Y-71170000D01*
X175125000Y-71166928D01*
X175000518Y-71179188D01*
X174880820Y-71215498D01*
X174770506Y-71274463D01*
X174673815Y-71353815D01*
X174610008Y-71431564D01*
X174604792Y-71425208D01*
X174471164Y-71315542D01*
X174318709Y-71234053D01*
X174153285Y-71183872D01*
X173981250Y-71166928D01*
X173622723Y-71166928D01*
X172914199Y-70458405D01*
X172887107Y-70425393D01*
X172755393Y-70317299D01*
X172605123Y-70236978D01*
X172442070Y-70187516D01*
X172314991Y-70175000D01*
X172314989Y-70175000D01*
X172272500Y-70170815D01*
X172230011Y-70175000D01*
X170915000Y-70175000D01*
X170915000Y-69788020D01*
X170996632Y-69733475D01*
X171128487Y-69601620D01*
X171150498Y-69674180D01*
X171209463Y-69784494D01*
X171288815Y-69881185D01*
X171385506Y-69960537D01*
X171495820Y-70019502D01*
X171615518Y-70055812D01*
X171740000Y-70068072D01*
X173440000Y-70068072D01*
X173564482Y-70055812D01*
X173684180Y-70019502D01*
X173794494Y-69960537D01*
X173891185Y-69881185D01*
X173970537Y-69784494D01*
X174029502Y-69674180D01*
X174065812Y-69554482D01*
X174078072Y-69430000D01*
X174078072Y-67730000D01*
X174075117Y-67700000D01*
X182557721Y-67700000D01*
X183043893Y-67747670D01*
G37*
X183043893Y-67747670D02*
X183480498Y-67879489D01*
X183883185Y-68093600D01*
X184236612Y-68381848D01*
X184527327Y-68733261D01*
X184744242Y-69134439D01*
X184879106Y-69570113D01*
X184930000Y-70054344D01*
X184930001Y-78913000D01*
X184286578Y-78913000D01*
X184252962Y-78872038D01*
X184118386Y-78761595D01*
X183964850Y-78679528D01*
X183798254Y-78628992D01*
X183625000Y-78611928D01*
X182375000Y-78611928D01*
X182201746Y-78628992D01*
X182035150Y-78679528D01*
X181881614Y-78761595D01*
X181747038Y-78872038D01*
X181713422Y-78913000D01*
X180845900Y-78913000D01*
X180845900Y-78359718D01*
X180849553Y-78322630D01*
X180843687Y-78263072D01*
X180834976Y-78174624D01*
X180791804Y-78032306D01*
X180721697Y-77901145D01*
X180627349Y-77786181D01*
X180598537Y-77762536D01*
X177118364Y-74282363D01*
X177094718Y-74253550D01*
X176979754Y-74159202D01*
X176848593Y-74089095D01*
X176706275Y-74045923D01*
X176595359Y-74034999D01*
X176595357Y-74034999D01*
X176558269Y-74031346D01*
X176521181Y-74034999D01*
X175641087Y-74034999D01*
X175603999Y-74031346D01*
X175566911Y-74034999D01*
X175566909Y-74034999D01*
X175455993Y-74045923D01*
X175313675Y-74089095D01*
X175182514Y-74159202D01*
X175067550Y-74253550D01*
X175043901Y-74282367D01*
X175002362Y-74323905D01*
X174973552Y-74347549D01*
X174949909Y-74376358D01*
X174949908Y-74376359D01*
X174934439Y-74395208D01*
X174879203Y-74462513D01*
X174865117Y-74488867D01*
X174851250Y-74475000D01*
X174778851Y-74483633D01*
X174660000Y-74471928D01*
X174360000Y-74471928D01*
X174235518Y-74484188D01*
X174115820Y-74520498D01*
X174016976Y-74573332D01*
X174007205Y-74549744D01*
X173893937Y-74380226D01*
X173749774Y-74236063D01*
X173580256Y-74122795D01*
X173391898Y-74044774D01*
X173191939Y-74005000D01*
X172988061Y-74005000D01*
X172788102Y-74044774D01*
X172599744Y-74122795D01*
X172430226Y-74236063D01*
X172286063Y-74380226D01*
X172172795Y-74549744D01*
X172094774Y-74738102D01*
X172055000Y-74938061D01*
X172055000Y-75141939D01*
X172094774Y-75341898D01*
X172172795Y-75530256D01*
X172179306Y-75540000D01*
X172172795Y-75549744D01*
X172094774Y-75738102D01*
X172055000Y-75938061D01*
X172055000Y-76141939D01*
X172094774Y-76341898D01*
X172172795Y-76530256D01*
X172179306Y-76540000D01*
X172172795Y-76549744D01*
X172094774Y-76738102D01*
X172055000Y-76938061D01*
X172055000Y-77141939D01*
X172094774Y-77341898D01*
X172172795Y-77530256D01*
X172286063Y-77699774D01*
X172430226Y-77843937D01*
X172599744Y-77957205D01*
X172788102Y-78035226D01*
X172988061Y-78075000D01*
X173191939Y-78075000D01*
X173391898Y-78035226D01*
X173580256Y-77957205D01*
X173749774Y-77843937D01*
X173893937Y-77699774D01*
X174007205Y-77530256D01*
X174016976Y-77506668D01*
X174115820Y-77559502D01*
X174235518Y-77595812D01*
X174360000Y-77608072D01*
X174535497Y-77608072D01*
X174514774Y-77658102D01*
X174475000Y-77858061D01*
X174475000Y-78061939D01*
X174497487Y-78174990D01*
X170363101Y-78174990D01*
X170399494Y-78155537D01*
X170496185Y-78076185D01*
X170575537Y-77979494D01*
X170634502Y-77869180D01*
X170670812Y-77749482D01*
X170683072Y-77625000D01*
X170680000Y-77423250D01*
X170521250Y-77264500D01*
X169472000Y-77264500D01*
X169472000Y-77284500D01*
X169218000Y-77284500D01*
X169218000Y-77264500D01*
X168168750Y-77264500D01*
X168010000Y-77423250D01*
X168006928Y-77625000D01*
X168019188Y-77749482D01*
X168055498Y-77869180D01*
X168114463Y-77979494D01*
X168193815Y-78076185D01*
X168290506Y-78155537D01*
X168326899Y-78174990D01*
X167363101Y-78174990D01*
X167399494Y-78155537D01*
X167496185Y-78076185D01*
X167575537Y-77979494D01*
X167634502Y-77869180D01*
X167670812Y-77749482D01*
X167683072Y-77625000D01*
X167680000Y-77423250D01*
X167521250Y-77264500D01*
X166472000Y-77264500D01*
X166472000Y-77284500D01*
X166218000Y-77284500D01*
X166218000Y-77264500D01*
X165168750Y-77264500D01*
X165010000Y-77423250D01*
X165006928Y-77625000D01*
X165019188Y-77749482D01*
X165055498Y-77869180D01*
X165114463Y-77979494D01*
X165193815Y-78076185D01*
X165290506Y-78155537D01*
X165400820Y-78214502D01*
X165520518Y-78250812D01*
X165645000Y-78263072D01*
X166059250Y-78260000D01*
X166217998Y-78101252D01*
X166217998Y-78223668D01*
X166200136Y-78229086D01*
X166068974Y-78299193D01*
X166020119Y-78339288D01*
X165954011Y-78393541D01*
X165930365Y-78422354D01*
X165740791Y-78611928D01*
X164920450Y-78611928D01*
X164747196Y-78628992D01*
X164580600Y-78679528D01*
X164427064Y-78761595D01*
X164292488Y-78872038D01*
X164258872Y-78913000D01*
X161013848Y-78913000D01*
X160980232Y-78872038D01*
X160845656Y-78761595D01*
X160692120Y-78679528D01*
X160525524Y-78628992D01*
X160352270Y-78611928D01*
X159531929Y-78611928D01*
X158753258Y-77833257D01*
X158770952Y-77835000D01*
X158770960Y-77835000D01*
X158810000Y-77838845D01*
X158849040Y-77835000D01*
X158921289Y-77835000D01*
X158930226Y-77843937D01*
X159099744Y-77957205D01*
X159288102Y-78035226D01*
X159488061Y-78075000D01*
X159691939Y-78075000D01*
X159891898Y-78035226D01*
X160080256Y-77957205D01*
X160249774Y-77843937D01*
X160393937Y-77699774D01*
X160443899Y-77625000D01*
X162006928Y-77625000D01*
X162019188Y-77749482D01*
X162055498Y-77869180D01*
X162114463Y-77979494D01*
X162193815Y-78076185D01*
X162290506Y-78155537D01*
X162400820Y-78214502D01*
X162520518Y-78250812D01*
X162645000Y-78263072D01*
X163059250Y-78260000D01*
X163218000Y-78101250D01*
X163218000Y-77264500D01*
X163472000Y-77264500D01*
X163472000Y-78101250D01*
X163630750Y-78260000D01*
X164045000Y-78263072D01*
X164169482Y-78250812D01*
X164289180Y-78214502D01*
X164399494Y-78155537D01*
X164496185Y-78076185D01*
X164575537Y-77979494D01*
X164634502Y-77869180D01*
X164670812Y-77749482D01*
X164683072Y-77625000D01*
X164680000Y-77423250D01*
X164521250Y-77264500D01*
X163472000Y-77264500D01*
X163218000Y-77264500D01*
X162168750Y-77264500D01*
X162010000Y-77423250D01*
X162006928Y-77625000D01*
X160443899Y-77625000D01*
X160507205Y-77530256D01*
X160585226Y-77341898D01*
X160625000Y-77141939D01*
X160625000Y-76938061D01*
X160585226Y-76738102D01*
X160507205Y-76549744D01*
X160393937Y-76380226D01*
X160249774Y-76236063D01*
X160080256Y-76122795D01*
X159938609Y-76064122D01*
X160397637Y-75605094D01*
X160426449Y-75581449D01*
X160520797Y-75466485D01*
X160590904Y-75335324D01*
X160634076Y-75193006D01*
X160640928Y-75123437D01*
X162024732Y-76507241D01*
X162019188Y-76525518D01*
X162006928Y-76650000D01*
X162010000Y-76851750D01*
X162168750Y-77010500D01*
X163218000Y-77010500D01*
X163218000Y-76990500D01*
X163472000Y-76990500D01*
X163472000Y-77010500D01*
X164521250Y-77010500D01*
X164680000Y-76851750D01*
X164680407Y-76825010D01*
X165009593Y-76825010D01*
X165010000Y-76851750D01*
X165168750Y-77010500D01*
X166218000Y-77010500D01*
X166218000Y-76990500D01*
X166472000Y-76990500D01*
X166472000Y-77010500D01*
X167521250Y-77010500D01*
X167680000Y-76851750D01*
X167680407Y-76825010D01*
X168009593Y-76825010D01*
X168010000Y-76851750D01*
X168168750Y-77010500D01*
X169218000Y-77010500D01*
X169218000Y-76990500D01*
X169472000Y-76990500D01*
X169472000Y-77010500D01*
X170521250Y-77010500D01*
X170680000Y-76851750D01*
X170683072Y-76650000D01*
X170670812Y-76525518D01*
X170634502Y-76405820D01*
X170575537Y-76295506D01*
X170496185Y-76198815D01*
X170418436Y-76135008D01*
X170424792Y-76129792D01*
X170534458Y-75996164D01*
X170615947Y-75843709D01*
X170666128Y-75678285D01*
X170683072Y-75506250D01*
X170683072Y-75018750D01*
X170666128Y-74846715D01*
X170615947Y-74681291D01*
X170534458Y-74528836D01*
X170424792Y-74395208D01*
X170291164Y-74285542D01*
X170138709Y-74204053D01*
X169973285Y-74153872D01*
X169801250Y-74136928D01*
X168888750Y-74136928D01*
X168716715Y-74153872D01*
X168551291Y-74204053D01*
X168398836Y-74285542D01*
X168265208Y-74395208D01*
X168155542Y-74528836D01*
X168074053Y-74681291D01*
X168023872Y-74846715D01*
X168006928Y-75018750D01*
X168006928Y-75315010D01*
X167683072Y-75315010D01*
X167683072Y-75018750D01*
X167666128Y-74846715D01*
X167615947Y-74681291D01*
X167534458Y-74528836D01*
X167424792Y-74395208D01*
X167291164Y-74285542D01*
X167138709Y-74204053D01*
X166973285Y-74153872D01*
X166801250Y-74136928D01*
X165888750Y-74136928D01*
X165716715Y-74153872D01*
X165554648Y-74203035D01*
X165303893Y-73952279D01*
X165309850Y-73950472D01*
X165463386Y-73868405D01*
X165597962Y-73757962D01*
X165708405Y-73623386D01*
X165790472Y-73469850D01*
X165841008Y-73303254D01*
X165858072Y-73130000D01*
X165858072Y-72465222D01*
X166411928Y-71911367D01*
X166411928Y-73130000D01*
X166428992Y-73303254D01*
X166479528Y-73469850D01*
X166561595Y-73623386D01*
X166672038Y-73757962D01*
X166806614Y-73868405D01*
X166960150Y-73950472D01*
X167126746Y-74001008D01*
X167300000Y-74018072D01*
X168050000Y-74018072D01*
X168223254Y-74001008D01*
X168389850Y-73950472D01*
X168543386Y-73868405D01*
X168677962Y-73757962D01*
X168788405Y-73623386D01*
X168870472Y-73469850D01*
X168921008Y-73303254D01*
X168938072Y-73130000D01*
X168938072Y-71880000D01*
X168926745Y-71764990D01*
X169185001Y-71764990D01*
X169185001Y-72037502D01*
X169180815Y-72080000D01*
X169197517Y-72249569D01*
X169211928Y-72297076D01*
X169211928Y-73130000D01*
X169228992Y-73303254D01*
X169279528Y-73469850D01*
X169361595Y-73623386D01*
X169472038Y-73757962D01*
X169606614Y-73868405D01*
X169760150Y-73950472D01*
X169926746Y-74001008D01*
X170100000Y-74018072D01*
X170850000Y-74018072D01*
X171023254Y-74001008D01*
X171189850Y-73950472D01*
X171343386Y-73868405D01*
X171477962Y-73757962D01*
X171588405Y-73623386D01*
X171670472Y-73469850D01*
X171721008Y-73303254D01*
X171738072Y-73130000D01*
X171738072Y-71905000D01*
X171914206Y-71905000D01*
X172611928Y-72602723D01*
X172611928Y-72961250D01*
X172628872Y-73133285D01*
X172679053Y-73298709D01*
X172760542Y-73451164D01*
X172870208Y-73584792D01*
X173003836Y-73694458D01*
X173156291Y-73775947D01*
X173321715Y-73826128D01*
X173493750Y-73843072D01*
X173981250Y-73843072D01*
X174153285Y-73826128D01*
X174318709Y-73775947D01*
X174471164Y-73694458D01*
X174604792Y-73584792D01*
X174610008Y-73578436D01*
X174673815Y-73656185D01*
X174770506Y-73735537D01*
X174880820Y-73794502D01*
X175000518Y-73830812D01*
X175125000Y-73843072D01*
X175326750Y-73840000D01*
X175485500Y-73681250D01*
X175485500Y-72632000D01*
X175739500Y-72632000D01*
X175739500Y-73681250D01*
X175898250Y-73840000D01*
X176100000Y-73843072D01*
X176224482Y-73830812D01*
X176344180Y-73794502D01*
X176454494Y-73735537D01*
X176551185Y-73656185D01*
X176630537Y-73559494D01*
X176689502Y-73449180D01*
X176725812Y-73329482D01*
X176738072Y-73205000D01*
X176735000Y-72790750D01*
X176576250Y-72632000D01*
X175739500Y-72632000D01*
X175485500Y-72632000D01*
X175465500Y-72632000D01*
X175465500Y-72378000D01*
X175485500Y-72378000D01*
X175485500Y-71328750D01*
X175739500Y-71328750D01*
X175739500Y-72378000D01*
X176576250Y-72378000D01*
X176735000Y-72219250D01*
X176738072Y-71805000D01*
X176725812Y-71680518D01*
X176689502Y-71560820D01*
X176630537Y-71450506D01*
X176551185Y-71353815D01*
X176454494Y-71274463D01*
X176344180Y-71215498D01*
X176224482Y-71179188D01*
X176100000Y-71166928D01*
X175898250Y-71170000D01*
X175739500Y-71328750D01*
X175485500Y-71328750D01*
X175326750Y-71170000D01*
X175125000Y-71166928D01*
X175000518Y-71179188D01*
X174880820Y-71215498D01*
X174770506Y-71274463D01*
X174673815Y-71353815D01*
X174610008Y-71431564D01*
X174604792Y-71425208D01*
X174471164Y-71315542D01*
X174318709Y-71234053D01*
X174153285Y-71183872D01*
X173981250Y-71166928D01*
X173622723Y-71166928D01*
X172914199Y-70458405D01*
X172887107Y-70425393D01*
X172755393Y-70317299D01*
X172605123Y-70236978D01*
X172442070Y-70187516D01*
X172314991Y-70175000D01*
X172314989Y-70175000D01*
X172272500Y-70170815D01*
X172230011Y-70175000D01*
X170915000Y-70175000D01*
X170915000Y-69788020D01*
X170996632Y-69733475D01*
X171128487Y-69601620D01*
X171150498Y-69674180D01*
X171209463Y-69784494D01*
X171288815Y-69881185D01*
X171385506Y-69960537D01*
X171495820Y-70019502D01*
X171615518Y-70055812D01*
X171740000Y-70068072D01*
X173440000Y-70068072D01*
X173564482Y-70055812D01*
X173684180Y-70019502D01*
X173794494Y-69960537D01*
X173891185Y-69881185D01*
X173970537Y-69784494D01*
X174029502Y-69674180D01*
X174065812Y-69554482D01*
X174078072Y-69430000D01*
X174078072Y-67730000D01*
X174075117Y-67700000D01*
X182557721Y-67700000D01*
X183043893Y-67747670D01*
%TD*%
M02*
