%TF.GenerationSoftware,KiCad,Pcbnew,5.1.6*%
%TF.CreationDate,2020-07-11T18:48:30-07:00*%
%TF.ProjectId,proto_boards,70726f74-6f5f-4626-9f61-7264732e6b69,rev?*%
%TF.SameCoordinates,Original*%
%TF.FileFunction,Legend,Top*%
%TF.FilePolarity,Positive*%
%FSLAX46Y46*%
G04 Gerber Fmt 4.6, Leading zero omitted, Abs format (unit mm)*
G04 Created by KiCad (PCBNEW 5.1.6) date 2020-07-11 18:48:30*
%MOMM*%
%LPD*%
G01*
G04 APERTURE LIST*
%ADD10C,0.120000*%
%ADD11C,0.100000*%
%ADD12C,0.150000*%
%ADD13C,0.254000*%
G04 APERTURE END LIST*
D10*
%TO.C,R9*%
X166455450Y-80672936D02*
X166455450Y-81877064D01*
X164635450Y-80672936D02*
X164635450Y-81877064D01*
%TO.C,R8*%
X172273630Y-80672936D02*
X172273630Y-81877064D01*
X170453630Y-80672936D02*
X170453630Y-81877064D01*
%TO.C,R7*%
X178091810Y-80672936D02*
X178091810Y-81877064D01*
X176271810Y-80672936D02*
X176271810Y-81877064D01*
%TO.C,R6*%
X183910000Y-80672936D02*
X183910000Y-81877064D01*
X182090000Y-80672936D02*
X182090000Y-81877064D01*
%TO.C,R5*%
X168635000Y-76458578D02*
X168635000Y-75941422D01*
X170055000Y-76458578D02*
X170055000Y-75941422D01*
%TO.C,R4*%
X162635000Y-76458578D02*
X162635000Y-75941422D01*
X164055000Y-76458578D02*
X164055000Y-75941422D01*
%TO.C,R3*%
X165635000Y-76458578D02*
X165635000Y-75941422D01*
X167055000Y-76458578D02*
X167055000Y-75941422D01*
%TO.C,R2*%
X160637270Y-80672936D02*
X160637270Y-81877064D01*
X158817270Y-80672936D02*
X158817270Y-81877064D01*
%TO.C,R1*%
X154819090Y-80672936D02*
X154819090Y-81877064D01*
X152999090Y-80672936D02*
X152999090Y-81877064D01*
%TO.C,J2*%
X158560000Y-85030000D02*
X158560000Y-87690000D01*
X171320000Y-85030000D02*
X158560000Y-85030000D01*
X171320000Y-87690000D02*
X158560000Y-87690000D01*
X171320000Y-85030000D02*
X171320000Y-87690000D01*
X172590000Y-85030000D02*
X173920000Y-85030000D01*
X173920000Y-85030000D02*
X173920000Y-86360000D01*
%TO.C,J1*%
X158560000Y-67250000D02*
X158560000Y-69910000D01*
X171320000Y-67250000D02*
X158560000Y-67250000D01*
X171320000Y-69910000D02*
X158560000Y-69910000D01*
X171320000Y-67250000D02*
X171320000Y-69910000D01*
X172590000Y-67250000D02*
X173920000Y-67250000D01*
X173920000Y-67250000D02*
X173920000Y-68580000D01*
D11*
%TO.C,IC2*%
X174460000Y-77240000D02*
X174460000Y-77240000D01*
X174560000Y-77240000D02*
X174560000Y-77240000D01*
X174460000Y-77240000D02*
G75*
G03*
X174560000Y-77240000I50000J0D01*
G01*
X174560000Y-77240000D02*
G75*
G03*
X174460000Y-77240000I-50000J0D01*
G01*
%TO.C,IC1*%
X156780000Y-77240000D02*
G75*
G03*
X156680000Y-77240000I-50000J0D01*
G01*
X156680000Y-77240000D02*
G75*
G03*
X156780000Y-77240000I50000J0D01*
G01*
X156780000Y-77240000D02*
X156780000Y-77240000D01*
X156680000Y-77240000D02*
X156680000Y-77240000D01*
D10*
%TO.C,FB2*%
X158373578Y-73210000D02*
X157856422Y-73210000D01*
X158373578Y-71790000D02*
X157856422Y-71790000D01*
%TO.C,FB1*%
X174416422Y-71795000D02*
X174933578Y-71795000D01*
X174416422Y-73215000D02*
X174933578Y-73215000D01*
%TO.C,C8*%
X168472936Y-71595000D02*
X169677064Y-71595000D01*
X168472936Y-73415000D02*
X169677064Y-73415000D01*
%TO.C,C7*%
X161926360Y-81533578D02*
X161926360Y-81016422D01*
X163346360Y-81533578D02*
X163346360Y-81016422D01*
%TO.C,C6*%
X167744540Y-81533578D02*
X167744540Y-81016422D01*
X169164540Y-81533578D02*
X169164540Y-81016422D01*
%TO.C,C5*%
X173562720Y-81533578D02*
X173562720Y-81016422D01*
X174982720Y-81533578D02*
X174982720Y-81016422D01*
%TO.C,C4*%
X179380900Y-81533578D02*
X179380900Y-81016422D01*
X180800900Y-81533578D02*
X180800900Y-81016422D01*
%TO.C,C3*%
X156108180Y-81533578D02*
X156108180Y-81016422D01*
X157528180Y-81533578D02*
X157528180Y-81016422D01*
%TO.C,C2*%
X150290000Y-81533578D02*
X150290000Y-81016422D01*
X151710000Y-81533578D02*
X151710000Y-81016422D01*
%TO.C,C1*%
X162592936Y-71595000D02*
X163797064Y-71595000D01*
X162592936Y-73415000D02*
X163797064Y-73415000D01*
%TO.C,R9*%
D12*
X167817830Y-81441666D02*
X167341640Y-81775000D01*
X167817830Y-82013095D02*
X166817830Y-82013095D01*
X166817830Y-81632142D01*
X166865450Y-81536904D01*
X166913069Y-81489285D01*
X167008307Y-81441666D01*
X167151164Y-81441666D01*
X167246402Y-81489285D01*
X167294021Y-81536904D01*
X167341640Y-81632142D01*
X167341640Y-82013095D01*
X167817830Y-80965476D02*
X167817830Y-80775000D01*
X167770211Y-80679761D01*
X167722592Y-80632142D01*
X167579735Y-80536904D01*
X167389259Y-80489285D01*
X167008307Y-80489285D01*
X166913069Y-80536904D01*
X166865450Y-80584523D01*
X166817830Y-80679761D01*
X166817830Y-80870238D01*
X166865450Y-80965476D01*
X166913069Y-81013095D01*
X167008307Y-81060714D01*
X167246402Y-81060714D01*
X167341640Y-81013095D01*
X167389259Y-80965476D01*
X167436878Y-80870238D01*
X167436878Y-80679761D01*
X167389259Y-80584523D01*
X167341640Y-80536904D01*
X167246402Y-80489285D01*
%TO.C,R8*%
X173636010Y-81441666D02*
X173159820Y-81775000D01*
X173636010Y-82013095D02*
X172636010Y-82013095D01*
X172636010Y-81632142D01*
X172683630Y-81536904D01*
X172731249Y-81489285D01*
X172826487Y-81441666D01*
X172969344Y-81441666D01*
X173064582Y-81489285D01*
X173112201Y-81536904D01*
X173159820Y-81632142D01*
X173159820Y-82013095D01*
X173064582Y-80870238D02*
X173016963Y-80965476D01*
X172969344Y-81013095D01*
X172874106Y-81060714D01*
X172826487Y-81060714D01*
X172731249Y-81013095D01*
X172683630Y-80965476D01*
X172636010Y-80870238D01*
X172636010Y-80679761D01*
X172683630Y-80584523D01*
X172731249Y-80536904D01*
X172826487Y-80489285D01*
X172874106Y-80489285D01*
X172969344Y-80536904D01*
X173016963Y-80584523D01*
X173064582Y-80679761D01*
X173064582Y-80870238D01*
X173112201Y-80965476D01*
X173159820Y-81013095D01*
X173255058Y-81060714D01*
X173445534Y-81060714D01*
X173540772Y-81013095D01*
X173588391Y-80965476D01*
X173636010Y-80870238D01*
X173636010Y-80679761D01*
X173588391Y-80584523D01*
X173540772Y-80536904D01*
X173445534Y-80489285D01*
X173255058Y-80489285D01*
X173159820Y-80536904D01*
X173112201Y-80584523D01*
X173064582Y-80679761D01*
%TO.C,R7*%
X179454190Y-81441666D02*
X178978000Y-81775000D01*
X179454190Y-82013095D02*
X178454190Y-82013095D01*
X178454190Y-81632142D01*
X178501810Y-81536904D01*
X178549429Y-81489285D01*
X178644667Y-81441666D01*
X178787524Y-81441666D01*
X178882762Y-81489285D01*
X178930381Y-81536904D01*
X178978000Y-81632142D01*
X178978000Y-82013095D01*
X178454190Y-81108333D02*
X178454190Y-80441666D01*
X179454190Y-80870238D01*
%TO.C,R6*%
X185272380Y-81441666D02*
X184796190Y-81775000D01*
X185272380Y-82013095D02*
X184272380Y-82013095D01*
X184272380Y-81632142D01*
X184320000Y-81536904D01*
X184367619Y-81489285D01*
X184462857Y-81441666D01*
X184605714Y-81441666D01*
X184700952Y-81489285D01*
X184748571Y-81536904D01*
X184796190Y-81632142D01*
X184796190Y-82013095D01*
X184272380Y-80584523D02*
X184272380Y-80775000D01*
X184320000Y-80870238D01*
X184367619Y-80917857D01*
X184510476Y-81013095D01*
X184700952Y-81060714D01*
X185081904Y-81060714D01*
X185177142Y-81013095D01*
X185224761Y-80965476D01*
X185272380Y-80870238D01*
X185272380Y-80679761D01*
X185224761Y-80584523D01*
X185177142Y-80536904D01*
X185081904Y-80489285D01*
X184843809Y-80489285D01*
X184748571Y-80536904D01*
X184700952Y-80584523D01*
X184653333Y-80679761D01*
X184653333Y-80870238D01*
X184700952Y-80965476D01*
X184748571Y-81013095D01*
X184843809Y-81060714D01*
%TO.C,R5*%
X168147380Y-76366666D02*
X167671190Y-76700000D01*
X168147380Y-76938095D02*
X167147380Y-76938095D01*
X167147380Y-76557142D01*
X167195000Y-76461904D01*
X167242619Y-76414285D01*
X167337857Y-76366666D01*
X167480714Y-76366666D01*
X167575952Y-76414285D01*
X167623571Y-76461904D01*
X167671190Y-76557142D01*
X167671190Y-76938095D01*
X167147380Y-75461904D02*
X167147380Y-75938095D01*
X167623571Y-75985714D01*
X167575952Y-75938095D01*
X167528333Y-75842857D01*
X167528333Y-75604761D01*
X167575952Y-75509523D01*
X167623571Y-75461904D01*
X167718809Y-75414285D01*
X167956904Y-75414285D01*
X168052142Y-75461904D01*
X168099761Y-75509523D01*
X168147380Y-75604761D01*
X168147380Y-75842857D01*
X168099761Y-75938095D01*
X168052142Y-75985714D01*
%TO.C,R4*%
X162147380Y-76366666D02*
X161671190Y-76700000D01*
X162147380Y-76938095D02*
X161147380Y-76938095D01*
X161147380Y-76557142D01*
X161195000Y-76461904D01*
X161242619Y-76414285D01*
X161337857Y-76366666D01*
X161480714Y-76366666D01*
X161575952Y-76414285D01*
X161623571Y-76461904D01*
X161671190Y-76557142D01*
X161671190Y-76938095D01*
X161480714Y-75509523D02*
X162147380Y-75509523D01*
X161099761Y-75747619D02*
X161814047Y-75985714D01*
X161814047Y-75366666D01*
%TO.C,R3*%
X165147380Y-76366666D02*
X164671190Y-76700000D01*
X165147380Y-76938095D02*
X164147380Y-76938095D01*
X164147380Y-76557142D01*
X164195000Y-76461904D01*
X164242619Y-76414285D01*
X164337857Y-76366666D01*
X164480714Y-76366666D01*
X164575952Y-76414285D01*
X164623571Y-76461904D01*
X164671190Y-76557142D01*
X164671190Y-76938095D01*
X164147380Y-76033333D02*
X164147380Y-75414285D01*
X164528333Y-75747619D01*
X164528333Y-75604761D01*
X164575952Y-75509523D01*
X164623571Y-75461904D01*
X164718809Y-75414285D01*
X164956904Y-75414285D01*
X165052142Y-75461904D01*
X165099761Y-75509523D01*
X165147380Y-75604761D01*
X165147380Y-75890476D01*
X165099761Y-75985714D01*
X165052142Y-76033333D01*
%TO.C,R2*%
X161999650Y-81441666D02*
X161523460Y-81775000D01*
X161999650Y-82013095D02*
X160999650Y-82013095D01*
X160999650Y-81632142D01*
X161047270Y-81536904D01*
X161094889Y-81489285D01*
X161190127Y-81441666D01*
X161332984Y-81441666D01*
X161428222Y-81489285D01*
X161475841Y-81536904D01*
X161523460Y-81632142D01*
X161523460Y-82013095D01*
X161094889Y-81060714D02*
X161047270Y-81013095D01*
X160999650Y-80917857D01*
X160999650Y-80679761D01*
X161047270Y-80584523D01*
X161094889Y-80536904D01*
X161190127Y-80489285D01*
X161285365Y-80489285D01*
X161428222Y-80536904D01*
X161999650Y-81108333D01*
X161999650Y-80489285D01*
%TO.C,R1*%
X156181470Y-81441666D02*
X155705280Y-81775000D01*
X156181470Y-82013095D02*
X155181470Y-82013095D01*
X155181470Y-81632142D01*
X155229090Y-81536904D01*
X155276709Y-81489285D01*
X155371947Y-81441666D01*
X155514804Y-81441666D01*
X155610042Y-81489285D01*
X155657661Y-81536904D01*
X155705280Y-81632142D01*
X155705280Y-82013095D01*
X156181470Y-80489285D02*
X156181470Y-81060714D01*
X156181470Y-80775000D02*
X155181470Y-80775000D01*
X155324328Y-80870238D01*
X155419566Y-80965476D01*
X155467185Y-81060714D01*
%TO.C,J2*%
X174372380Y-86693333D02*
X175086666Y-86693333D01*
X175229523Y-86740952D01*
X175324761Y-86836190D01*
X175372380Y-86979047D01*
X175372380Y-87074285D01*
X174467619Y-86264761D02*
X174420000Y-86217142D01*
X174372380Y-86121904D01*
X174372380Y-85883809D01*
X174420000Y-85788571D01*
X174467619Y-85740952D01*
X174562857Y-85693333D01*
X174658095Y-85693333D01*
X174800952Y-85740952D01*
X175372380Y-86312380D01*
X175372380Y-85693333D01*
%TO.C,J1*%
X174372380Y-68913333D02*
X175086666Y-68913333D01*
X175229523Y-68960952D01*
X175324761Y-69056190D01*
X175372380Y-69199047D01*
X175372380Y-69294285D01*
X175372380Y-67913333D02*
X175372380Y-68484761D01*
X175372380Y-68199047D02*
X174372380Y-68199047D01*
X174515238Y-68294285D01*
X174610476Y-68389523D01*
X174658095Y-68484761D01*
%TO.C,IC2*%
D13*
X174020238Y-76774523D02*
X174020238Y-75504523D01*
X175350714Y-76653571D02*
X175290238Y-76714047D01*
X175108809Y-76774523D01*
X174987857Y-76774523D01*
X174806428Y-76714047D01*
X174685476Y-76593095D01*
X174625000Y-76472142D01*
X174564523Y-76230238D01*
X174564523Y-76048809D01*
X174625000Y-75806904D01*
X174685476Y-75685952D01*
X174806428Y-75565000D01*
X174987857Y-75504523D01*
X175108809Y-75504523D01*
X175290238Y-75565000D01*
X175350714Y-75625476D01*
X175834523Y-75625476D02*
X175895000Y-75565000D01*
X176015952Y-75504523D01*
X176318333Y-75504523D01*
X176439285Y-75565000D01*
X176499761Y-75625476D01*
X176560238Y-75746428D01*
X176560238Y-75867380D01*
X176499761Y-76048809D01*
X175774047Y-76774523D01*
X176560238Y-76774523D01*
%TO.C,IC1*%
X156240238Y-76774523D02*
X156240238Y-75504523D01*
X157570714Y-76653571D02*
X157510238Y-76714047D01*
X157328809Y-76774523D01*
X157207857Y-76774523D01*
X157026428Y-76714047D01*
X156905476Y-76593095D01*
X156845000Y-76472142D01*
X156784523Y-76230238D01*
X156784523Y-76048809D01*
X156845000Y-75806904D01*
X156905476Y-75685952D01*
X157026428Y-75565000D01*
X157207857Y-75504523D01*
X157328809Y-75504523D01*
X157510238Y-75565000D01*
X157570714Y-75625476D01*
X158780238Y-76774523D02*
X158054523Y-76774523D01*
X158417380Y-76774523D02*
X158417380Y-75504523D01*
X158296428Y-75685952D01*
X158175476Y-75806904D01*
X158054523Y-75867380D01*
%TO.C,FB2*%
D12*
X157281666Y-74078571D02*
X156948333Y-74078571D01*
X156948333Y-74602380D02*
X156948333Y-73602380D01*
X157424523Y-73602380D01*
X158138809Y-74078571D02*
X158281666Y-74126190D01*
X158329285Y-74173809D01*
X158376904Y-74269047D01*
X158376904Y-74411904D01*
X158329285Y-74507142D01*
X158281666Y-74554761D01*
X158186428Y-74602380D01*
X157805476Y-74602380D01*
X157805476Y-73602380D01*
X158138809Y-73602380D01*
X158234047Y-73650000D01*
X158281666Y-73697619D01*
X158329285Y-73792857D01*
X158329285Y-73888095D01*
X158281666Y-73983333D01*
X158234047Y-74030952D01*
X158138809Y-74078571D01*
X157805476Y-74078571D01*
X158757857Y-73697619D02*
X158805476Y-73650000D01*
X158900714Y-73602380D01*
X159138809Y-73602380D01*
X159234047Y-73650000D01*
X159281666Y-73697619D01*
X159329285Y-73792857D01*
X159329285Y-73888095D01*
X159281666Y-74030952D01*
X158710238Y-74602380D01*
X159329285Y-74602380D01*
%TO.C,FB1*%
X173841666Y-70783571D02*
X173508333Y-70783571D01*
X173508333Y-71307380D02*
X173508333Y-70307380D01*
X173984523Y-70307380D01*
X174698809Y-70783571D02*
X174841666Y-70831190D01*
X174889285Y-70878809D01*
X174936904Y-70974047D01*
X174936904Y-71116904D01*
X174889285Y-71212142D01*
X174841666Y-71259761D01*
X174746428Y-71307380D01*
X174365476Y-71307380D01*
X174365476Y-70307380D01*
X174698809Y-70307380D01*
X174794047Y-70355000D01*
X174841666Y-70402619D01*
X174889285Y-70497857D01*
X174889285Y-70593095D01*
X174841666Y-70688333D01*
X174794047Y-70735952D01*
X174698809Y-70783571D01*
X174365476Y-70783571D01*
X175889285Y-71307380D02*
X175317857Y-71307380D01*
X175603571Y-71307380D02*
X175603571Y-70307380D01*
X175508333Y-70450238D01*
X175413095Y-70545476D01*
X175317857Y-70593095D01*
%TO.C,C8*%
X168908333Y-71042142D02*
X168860714Y-71089761D01*
X168717857Y-71137380D01*
X168622619Y-71137380D01*
X168479761Y-71089761D01*
X168384523Y-70994523D01*
X168336904Y-70899285D01*
X168289285Y-70708809D01*
X168289285Y-70565952D01*
X168336904Y-70375476D01*
X168384523Y-70280238D01*
X168479761Y-70185000D01*
X168622619Y-70137380D01*
X168717857Y-70137380D01*
X168860714Y-70185000D01*
X168908333Y-70232619D01*
X169479761Y-70565952D02*
X169384523Y-70518333D01*
X169336904Y-70470714D01*
X169289285Y-70375476D01*
X169289285Y-70327857D01*
X169336904Y-70232619D01*
X169384523Y-70185000D01*
X169479761Y-70137380D01*
X169670238Y-70137380D01*
X169765476Y-70185000D01*
X169813095Y-70232619D01*
X169860714Y-70327857D01*
X169860714Y-70375476D01*
X169813095Y-70470714D01*
X169765476Y-70518333D01*
X169670238Y-70565952D01*
X169479761Y-70565952D01*
X169384523Y-70613571D01*
X169336904Y-70661190D01*
X169289285Y-70756428D01*
X169289285Y-70946904D01*
X169336904Y-71042142D01*
X169384523Y-71089761D01*
X169479761Y-71137380D01*
X169670238Y-71137380D01*
X169765476Y-71089761D01*
X169813095Y-71042142D01*
X169860714Y-70946904D01*
X169860714Y-70756428D01*
X169813095Y-70661190D01*
X169765476Y-70613571D01*
X169670238Y-70565952D01*
%TO.C,C7*%
X161343502Y-81441666D02*
X161391121Y-81489285D01*
X161438740Y-81632142D01*
X161438740Y-81727380D01*
X161391121Y-81870238D01*
X161295883Y-81965476D01*
X161200645Y-82013095D01*
X161010169Y-82060714D01*
X160867312Y-82060714D01*
X160676836Y-82013095D01*
X160581598Y-81965476D01*
X160486360Y-81870238D01*
X160438740Y-81727380D01*
X160438740Y-81632142D01*
X160486360Y-81489285D01*
X160533979Y-81441666D01*
X160438740Y-81108333D02*
X160438740Y-80441666D01*
X161438740Y-80870238D01*
%TO.C,C6*%
X167161682Y-81441666D02*
X167209301Y-81489285D01*
X167256920Y-81632142D01*
X167256920Y-81727380D01*
X167209301Y-81870238D01*
X167114063Y-81965476D01*
X167018825Y-82013095D01*
X166828349Y-82060714D01*
X166685492Y-82060714D01*
X166495016Y-82013095D01*
X166399778Y-81965476D01*
X166304540Y-81870238D01*
X166256920Y-81727380D01*
X166256920Y-81632142D01*
X166304540Y-81489285D01*
X166352159Y-81441666D01*
X166256920Y-80584523D02*
X166256920Y-80775000D01*
X166304540Y-80870238D01*
X166352159Y-80917857D01*
X166495016Y-81013095D01*
X166685492Y-81060714D01*
X167066444Y-81060714D01*
X167161682Y-81013095D01*
X167209301Y-80965476D01*
X167256920Y-80870238D01*
X167256920Y-80679761D01*
X167209301Y-80584523D01*
X167161682Y-80536904D01*
X167066444Y-80489285D01*
X166828349Y-80489285D01*
X166733111Y-80536904D01*
X166685492Y-80584523D01*
X166637873Y-80679761D01*
X166637873Y-80870238D01*
X166685492Y-80965476D01*
X166733111Y-81013095D01*
X166828349Y-81060714D01*
%TO.C,C5*%
X172979862Y-81441666D02*
X173027481Y-81489285D01*
X173075100Y-81632142D01*
X173075100Y-81727380D01*
X173027481Y-81870238D01*
X172932243Y-81965476D01*
X172837005Y-82013095D01*
X172646529Y-82060714D01*
X172503672Y-82060714D01*
X172313196Y-82013095D01*
X172217958Y-81965476D01*
X172122720Y-81870238D01*
X172075100Y-81727380D01*
X172075100Y-81632142D01*
X172122720Y-81489285D01*
X172170339Y-81441666D01*
X172075100Y-80536904D02*
X172075100Y-81013095D01*
X172551291Y-81060714D01*
X172503672Y-81013095D01*
X172456053Y-80917857D01*
X172456053Y-80679761D01*
X172503672Y-80584523D01*
X172551291Y-80536904D01*
X172646529Y-80489285D01*
X172884624Y-80489285D01*
X172979862Y-80536904D01*
X173027481Y-80584523D01*
X173075100Y-80679761D01*
X173075100Y-80917857D01*
X173027481Y-81013095D01*
X172979862Y-81060714D01*
%TO.C,C4*%
X178798042Y-81441666D02*
X178845661Y-81489285D01*
X178893280Y-81632142D01*
X178893280Y-81727380D01*
X178845661Y-81870238D01*
X178750423Y-81965476D01*
X178655185Y-82013095D01*
X178464709Y-82060714D01*
X178321852Y-82060714D01*
X178131376Y-82013095D01*
X178036138Y-81965476D01*
X177940900Y-81870238D01*
X177893280Y-81727380D01*
X177893280Y-81632142D01*
X177940900Y-81489285D01*
X177988519Y-81441666D01*
X178226614Y-80584523D02*
X178893280Y-80584523D01*
X177845661Y-80822619D02*
X178559947Y-81060714D01*
X178559947Y-80441666D01*
%TO.C,C3*%
X155525322Y-81441666D02*
X155572941Y-81489285D01*
X155620560Y-81632142D01*
X155620560Y-81727380D01*
X155572941Y-81870238D01*
X155477703Y-81965476D01*
X155382465Y-82013095D01*
X155191989Y-82060714D01*
X155049132Y-82060714D01*
X154858656Y-82013095D01*
X154763418Y-81965476D01*
X154668180Y-81870238D01*
X154620560Y-81727380D01*
X154620560Y-81632142D01*
X154668180Y-81489285D01*
X154715799Y-81441666D01*
X154620560Y-81108333D02*
X154620560Y-80489285D01*
X155001513Y-80822619D01*
X155001513Y-80679761D01*
X155049132Y-80584523D01*
X155096751Y-80536904D01*
X155191989Y-80489285D01*
X155430084Y-80489285D01*
X155525322Y-80536904D01*
X155572941Y-80584523D01*
X155620560Y-80679761D01*
X155620560Y-80965476D01*
X155572941Y-81060714D01*
X155525322Y-81108333D01*
%TO.C,C2*%
X149707142Y-81441666D02*
X149754761Y-81489285D01*
X149802380Y-81632142D01*
X149802380Y-81727380D01*
X149754761Y-81870238D01*
X149659523Y-81965476D01*
X149564285Y-82013095D01*
X149373809Y-82060714D01*
X149230952Y-82060714D01*
X149040476Y-82013095D01*
X148945238Y-81965476D01*
X148850000Y-81870238D01*
X148802380Y-81727380D01*
X148802380Y-81632142D01*
X148850000Y-81489285D01*
X148897619Y-81441666D01*
X148897619Y-81060714D02*
X148850000Y-81013095D01*
X148802380Y-80917857D01*
X148802380Y-80679761D01*
X148850000Y-80584523D01*
X148897619Y-80536904D01*
X148992857Y-80489285D01*
X149088095Y-80489285D01*
X149230952Y-80536904D01*
X149802380Y-81108333D01*
X149802380Y-80489285D01*
%TO.C,C1*%
X163028333Y-71042142D02*
X162980714Y-71089761D01*
X162837857Y-71137380D01*
X162742619Y-71137380D01*
X162599761Y-71089761D01*
X162504523Y-70994523D01*
X162456904Y-70899285D01*
X162409285Y-70708809D01*
X162409285Y-70565952D01*
X162456904Y-70375476D01*
X162504523Y-70280238D01*
X162599761Y-70185000D01*
X162742619Y-70137380D01*
X162837857Y-70137380D01*
X162980714Y-70185000D01*
X163028333Y-70232619D01*
X163980714Y-71137380D02*
X163409285Y-71137380D01*
X163695000Y-71137380D02*
X163695000Y-70137380D01*
X163599761Y-70280238D01*
X163504523Y-70375476D01*
X163409285Y-70423095D01*
%TD*%
M02*
