%TF.GenerationSoftware,KiCad,Pcbnew,5.1.6*%
%TF.CreationDate,2020-07-11T18:48:30-07:00*%
%TF.ProjectId,proto_boards,70726f74-6f5f-4626-9f61-7264732e6b69,rev?*%
%TF.SameCoordinates,Original*%
%TF.FileFunction,Copper,L2,Bot*%
%TF.FilePolarity,Positive*%
%FSLAX46Y46*%
G04 Gerber Fmt 4.6, Leading zero omitted, Abs format (unit mm)*
G04 Created by KiCad (PCBNEW 5.1.6) date 2020-07-11 18:48:30*
%MOMM*%
%LPD*%
G01*
G04 APERTURE LIST*
%TA.AperFunction,ComponentPad*%
%ADD10O,1.700000X1.700000*%
%TD*%
%TA.AperFunction,ComponentPad*%
%ADD11R,1.700000X1.700000*%
%TD*%
%TA.AperFunction,ViaPad*%
%ADD12C,0.800000*%
%TD*%
%TA.AperFunction,Conductor*%
%ADD13C,0.460000*%
%TD*%
%TA.AperFunction,Conductor*%
%ADD14C,0.254000*%
%TD*%
G04 APERTURE END LIST*
D10*
%TO.P,J2,6*%
%TO.N,Net-(J2-Pad6)*%
X159890000Y-86360000D03*
%TO.P,J2,5*%
%TO.N,Net-(J2-Pad5)*%
X162430000Y-86360000D03*
%TO.P,J2,4*%
%TO.N,Net-(J2-Pad4)*%
X164970000Y-86360000D03*
%TO.P,J2,3*%
%TO.N,Net-(J2-Pad3)*%
X167510000Y-86360000D03*
%TO.P,J2,2*%
%TO.N,Net-(J2-Pad2)*%
X170050000Y-86360000D03*
D11*
%TO.P,J2,1*%
%TO.N,Net-(J2-Pad1)*%
X172590000Y-86360000D03*
%TD*%
D10*
%TO.P,J1,6*%
%TO.N,Net-(IC1-Pad5)*%
X159890000Y-68580000D03*
%TO.P,J1,5*%
%TO.N,Net-(IC1-Pad6)*%
X162430000Y-68580000D03*
%TO.P,J1,4*%
%TO.N,/SDA*%
X164970000Y-68580000D03*
%TO.P,J1,3*%
%TO.N,/SCL*%
X167510000Y-68580000D03*
%TO.P,J1,2*%
%TO.N,+3V3*%
X170050000Y-68580000D03*
D11*
%TO.P,J1,1*%
%TO.N,GNDS*%
X172590000Y-68580000D03*
%TD*%
D12*
%TO.N,GNDS*%
X159000000Y-72500000D03*
X161590000Y-72540000D03*
X167590000Y-72540000D03*
%TO.N,GND*%
X151000000Y-82212500D03*
X156818180Y-82212500D03*
X162636360Y-82212500D03*
X168454540Y-82212500D03*
X174272720Y-82212500D03*
X180090900Y-82212500D03*
X155590000Y-76040000D03*
X159590000Y-77040000D03*
X175510000Y-77960000D03*
X173090000Y-77040000D03*
X157177500Y-72500000D03*
%TO.N,/SCL*%
X173090000Y-76040000D03*
%TO.N,VDD*%
X169345000Y-77137500D03*
X166345000Y-77137500D03*
X163345000Y-77137500D03*
X155590000Y-77040000D03*
%TO.N,/SDA*%
X173090000Y-75040000D03*
X163345000Y-75262500D03*
X155600000Y-73100000D03*
%TO.N,/SCL*%
X166345000Y-75262500D03*
X155590000Y-74250000D03*
%TD*%
D13*
%TO.N,GNDS*%
X168630000Y-72540000D02*
X167590000Y-72540000D01*
X172590000Y-68580000D02*
X168630000Y-72540000D01*
X167590000Y-72540000D02*
X161590000Y-72540000D01*
X159040000Y-72540000D02*
X159000000Y-72500000D01*
X161590000Y-72540000D02*
X159040000Y-72540000D01*
%TO.N,GND*%
X158590000Y-76040000D02*
X159590000Y-77040000D01*
X155590000Y-76040000D02*
X158590000Y-76040000D01*
%TO.N,VDD*%
X162612499Y-77870001D02*
X163345000Y-77137500D01*
X159191599Y-77870001D02*
X162612499Y-77870001D01*
X158361598Y-77040000D02*
X159191599Y-77870001D01*
X155590000Y-77040000D02*
X158361598Y-77040000D01*
X163345000Y-77137500D02*
X166345000Y-77137500D01*
X166345000Y-77137500D02*
X169345000Y-77137500D01*
%TO.N,/SDA*%
X164175001Y-74432499D02*
X163345000Y-75262500D01*
X172482499Y-74432499D02*
X164175001Y-74432499D01*
X173090000Y-75040000D02*
X172482499Y-74432499D01*
X163345000Y-75262500D02*
X163237500Y-75262500D01*
X161502499Y-73419999D02*
X155919999Y-73419999D01*
X155919999Y-73419999D02*
X155600000Y-73100000D01*
X163345000Y-75262500D02*
X161502499Y-73419999D01*
%TO.N,/SCL*%
X165514999Y-76092501D02*
X166345000Y-75262500D01*
X167122500Y-76040000D02*
X173090000Y-76040000D01*
X166345000Y-75262500D02*
X167122500Y-76040000D01*
X162946599Y-76092501D02*
X165514999Y-76092501D01*
X161104098Y-74250000D02*
X162946599Y-76092501D01*
X155590000Y-74250000D02*
X161104098Y-74250000D01*
%TD*%
D14*
%TO.N,GND*%
G36*
X158574010Y-67876589D02*
G01*
X158462068Y-68146842D01*
X158405000Y-68433740D01*
X158405000Y-68726260D01*
X158462068Y-69013158D01*
X158574010Y-69283411D01*
X158736525Y-69526632D01*
X158943368Y-69733475D01*
X159186589Y-69895990D01*
X159456842Y-70007932D01*
X159743740Y-70065000D01*
X160036260Y-70065000D01*
X160323158Y-70007932D01*
X160593411Y-69895990D01*
X160836632Y-69733475D01*
X161043475Y-69526632D01*
X161160000Y-69352240D01*
X161276525Y-69526632D01*
X161483368Y-69733475D01*
X161726589Y-69895990D01*
X161996842Y-70007932D01*
X162283740Y-70065000D01*
X162576260Y-70065000D01*
X162863158Y-70007932D01*
X163133411Y-69895990D01*
X163376632Y-69733475D01*
X163583475Y-69526632D01*
X163700000Y-69352240D01*
X163816525Y-69526632D01*
X164023368Y-69733475D01*
X164266589Y-69895990D01*
X164536842Y-70007932D01*
X164823740Y-70065000D01*
X165116260Y-70065000D01*
X165403158Y-70007932D01*
X165673411Y-69895990D01*
X165916632Y-69733475D01*
X166123475Y-69526632D01*
X166240000Y-69352240D01*
X166356525Y-69526632D01*
X166563368Y-69733475D01*
X166806589Y-69895990D01*
X167076842Y-70007932D01*
X167363740Y-70065000D01*
X167656260Y-70065000D01*
X167943158Y-70007932D01*
X168213411Y-69895990D01*
X168456632Y-69733475D01*
X168663475Y-69526632D01*
X168780000Y-69352240D01*
X168896525Y-69526632D01*
X169103368Y-69733475D01*
X169346589Y-69895990D01*
X169616842Y-70007932D01*
X169885361Y-70061344D01*
X168271706Y-71675000D01*
X168158387Y-71675000D01*
X168080256Y-71622795D01*
X167891898Y-71544774D01*
X167691939Y-71505000D01*
X167488061Y-71505000D01*
X167288102Y-71544774D01*
X167099744Y-71622795D01*
X167021613Y-71675000D01*
X162158387Y-71675000D01*
X162080256Y-71622795D01*
X161891898Y-71544774D01*
X161691939Y-71505000D01*
X161488061Y-71505000D01*
X161288102Y-71544774D01*
X161099744Y-71622795D01*
X161021613Y-71675000D01*
X159628251Y-71675000D01*
X159490256Y-71582795D01*
X159301898Y-71504774D01*
X159101939Y-71465000D01*
X158898061Y-71465000D01*
X158698102Y-71504774D01*
X158509744Y-71582795D01*
X158340226Y-71696063D01*
X158196063Y-71840226D01*
X158082795Y-72009744D01*
X158004774Y-72198102D01*
X157965000Y-72398061D01*
X157965000Y-72554999D01*
X156480626Y-72554999D01*
X156403937Y-72440226D01*
X156259774Y-72296063D01*
X156090256Y-72182795D01*
X155901898Y-72104774D01*
X155701939Y-72065000D01*
X155498061Y-72065000D01*
X155298102Y-72104774D01*
X155109744Y-72182795D01*
X154940226Y-72296063D01*
X154796063Y-72440226D01*
X154682795Y-72609744D01*
X154604774Y-72798102D01*
X154565000Y-72998061D01*
X154565000Y-73201939D01*
X154604774Y-73401898D01*
X154682795Y-73590256D01*
X154734419Y-73667517D01*
X154672795Y-73759744D01*
X154594774Y-73948102D01*
X154555000Y-74148061D01*
X154555000Y-74351939D01*
X154594774Y-74551898D01*
X154672795Y-74740256D01*
X154786063Y-74909774D01*
X154930226Y-75053937D01*
X155099744Y-75167205D01*
X155288102Y-75245226D01*
X155488061Y-75285000D01*
X155691939Y-75285000D01*
X155891898Y-75245226D01*
X156080256Y-75167205D01*
X156158387Y-75115000D01*
X160745804Y-75115000D01*
X162304904Y-76674101D01*
X162331992Y-76707108D01*
X162364997Y-76734194D01*
X162384984Y-76750597D01*
X162349774Y-76835602D01*
X162331442Y-76927763D01*
X162254205Y-77005001D01*
X159549894Y-77005001D01*
X159003297Y-76458405D01*
X158976205Y-76425393D01*
X158844491Y-76317299D01*
X158694221Y-76236978D01*
X158531168Y-76187516D01*
X158404089Y-76175000D01*
X158404087Y-76175000D01*
X158361598Y-76170815D01*
X158319109Y-76175000D01*
X156158387Y-76175000D01*
X156080256Y-76122795D01*
X155891898Y-76044774D01*
X155691939Y-76005000D01*
X155488061Y-76005000D01*
X155288102Y-76044774D01*
X155099744Y-76122795D01*
X154930226Y-76236063D01*
X154786063Y-76380226D01*
X154672795Y-76549744D01*
X154594774Y-76738102D01*
X154555000Y-76938061D01*
X154555000Y-77141939D01*
X154594774Y-77341898D01*
X154672795Y-77530256D01*
X154786063Y-77699774D01*
X154930226Y-77843937D01*
X155099744Y-77957205D01*
X155288102Y-78035226D01*
X155488061Y-78075000D01*
X155691939Y-78075000D01*
X155891898Y-78035226D01*
X156080256Y-77957205D01*
X156158387Y-77905000D01*
X158003304Y-77905000D01*
X158549904Y-78451601D01*
X158576992Y-78484608D01*
X158708706Y-78592702D01*
X158858976Y-78673023D01*
X159022029Y-78722485D01*
X159149108Y-78735001D01*
X159149110Y-78735001D01*
X159191599Y-78739186D01*
X159234088Y-78735001D01*
X162570010Y-78735001D01*
X162612499Y-78739186D01*
X162654988Y-78735001D01*
X162654990Y-78735001D01*
X162782069Y-78722485D01*
X162945122Y-78673023D01*
X163095392Y-78592702D01*
X163227106Y-78484608D01*
X163254198Y-78451596D01*
X163554737Y-78151058D01*
X163646898Y-78132726D01*
X163835256Y-78054705D01*
X163913387Y-78002500D01*
X165776613Y-78002500D01*
X165854744Y-78054705D01*
X166043102Y-78132726D01*
X166243061Y-78172500D01*
X166446939Y-78172500D01*
X166646898Y-78132726D01*
X166835256Y-78054705D01*
X166913387Y-78002500D01*
X168776613Y-78002500D01*
X168854744Y-78054705D01*
X169043102Y-78132726D01*
X169243061Y-78172500D01*
X169446939Y-78172500D01*
X169646898Y-78132726D01*
X169835256Y-78054705D01*
X170004774Y-77941437D01*
X170148937Y-77797274D01*
X170262205Y-77627756D01*
X170340226Y-77439398D01*
X170380000Y-77239439D01*
X170380000Y-77035561D01*
X170354030Y-76905000D01*
X172521613Y-76905000D01*
X172599744Y-76957205D01*
X172788102Y-77035226D01*
X172988061Y-77075000D01*
X173191939Y-77075000D01*
X173391898Y-77035226D01*
X173580256Y-76957205D01*
X173749774Y-76843937D01*
X173893937Y-76699774D01*
X174007205Y-76530256D01*
X174085226Y-76341898D01*
X174125000Y-76141939D01*
X174125000Y-75938061D01*
X174085226Y-75738102D01*
X174007205Y-75549744D01*
X174000694Y-75540000D01*
X174007205Y-75530256D01*
X174085226Y-75341898D01*
X174125000Y-75141939D01*
X174125000Y-74938061D01*
X174085226Y-74738102D01*
X174007205Y-74549744D01*
X173893937Y-74380226D01*
X173749774Y-74236063D01*
X173580256Y-74122795D01*
X173391898Y-74044774D01*
X173299736Y-74026442D01*
X173124198Y-73850904D01*
X173097106Y-73817892D01*
X172965392Y-73709798D01*
X172815122Y-73629477D01*
X172652069Y-73580015D01*
X172524990Y-73567499D01*
X172524988Y-73567499D01*
X172482499Y-73563314D01*
X172440010Y-73567499D01*
X167729649Y-73567499D01*
X167891898Y-73535226D01*
X168080256Y-73457205D01*
X168158387Y-73405000D01*
X168587511Y-73405000D01*
X168630000Y-73409185D01*
X168672489Y-73405000D01*
X168672491Y-73405000D01*
X168799570Y-73392484D01*
X168962623Y-73343022D01*
X169112893Y-73262701D01*
X169244607Y-73154607D01*
X169271699Y-73121595D01*
X172325223Y-70068072D01*
X173440000Y-70068072D01*
X173564482Y-70055812D01*
X173684180Y-70019502D01*
X173794494Y-69960537D01*
X173891185Y-69881185D01*
X173970537Y-69784494D01*
X174029502Y-69674180D01*
X174065812Y-69554482D01*
X174078072Y-69430000D01*
X174078072Y-67730000D01*
X174075117Y-67700000D01*
X182557721Y-67700000D01*
X183043893Y-67747670D01*
X183480498Y-67879489D01*
X183883185Y-68093600D01*
X184236612Y-68381848D01*
X184527327Y-68733261D01*
X184744242Y-69134439D01*
X184879106Y-69570113D01*
X184930000Y-70054344D01*
X184930001Y-85007711D01*
X184882330Y-85493894D01*
X184750512Y-85930497D01*
X184536399Y-86333186D01*
X184248150Y-86686613D01*
X183896739Y-86977327D01*
X183495564Y-87194240D01*
X183059886Y-87329106D01*
X182575664Y-87380000D01*
X174052004Y-87380000D01*
X174065812Y-87334482D01*
X174078072Y-87210000D01*
X174078072Y-85510000D01*
X174065812Y-85385518D01*
X174029502Y-85265820D01*
X173970537Y-85155506D01*
X173891185Y-85058815D01*
X173794494Y-84979463D01*
X173684180Y-84920498D01*
X173564482Y-84884188D01*
X173440000Y-84871928D01*
X171740000Y-84871928D01*
X171615518Y-84884188D01*
X171495820Y-84920498D01*
X171385506Y-84979463D01*
X171288815Y-85058815D01*
X171209463Y-85155506D01*
X171150498Y-85265820D01*
X171128487Y-85338380D01*
X170996632Y-85206525D01*
X170753411Y-85044010D01*
X170483158Y-84932068D01*
X170196260Y-84875000D01*
X169903740Y-84875000D01*
X169616842Y-84932068D01*
X169346589Y-85044010D01*
X169103368Y-85206525D01*
X168896525Y-85413368D01*
X168780000Y-85587760D01*
X168663475Y-85413368D01*
X168456632Y-85206525D01*
X168213411Y-85044010D01*
X167943158Y-84932068D01*
X167656260Y-84875000D01*
X167363740Y-84875000D01*
X167076842Y-84932068D01*
X166806589Y-85044010D01*
X166563368Y-85206525D01*
X166356525Y-85413368D01*
X166240000Y-85587760D01*
X166123475Y-85413368D01*
X165916632Y-85206525D01*
X165673411Y-85044010D01*
X165403158Y-84932068D01*
X165116260Y-84875000D01*
X164823740Y-84875000D01*
X164536842Y-84932068D01*
X164266589Y-85044010D01*
X164023368Y-85206525D01*
X163816525Y-85413368D01*
X163700000Y-85587760D01*
X163583475Y-85413368D01*
X163376632Y-85206525D01*
X163133411Y-85044010D01*
X162863158Y-84932068D01*
X162576260Y-84875000D01*
X162283740Y-84875000D01*
X161996842Y-84932068D01*
X161726589Y-85044010D01*
X161483368Y-85206525D01*
X161276525Y-85413368D01*
X161160000Y-85587760D01*
X161043475Y-85413368D01*
X160836632Y-85206525D01*
X160593411Y-85044010D01*
X160323158Y-84932068D01*
X160036260Y-84875000D01*
X159743740Y-84875000D01*
X159456842Y-84932068D01*
X159186589Y-85044010D01*
X158943368Y-85206525D01*
X158736525Y-85413368D01*
X158574010Y-85656589D01*
X158462068Y-85926842D01*
X158405000Y-86213740D01*
X158405000Y-86506260D01*
X158462068Y-86793158D01*
X158574010Y-87063411D01*
X158736525Y-87306632D01*
X158809893Y-87380000D01*
X151622279Y-87380000D01*
X151136106Y-87332330D01*
X150699503Y-87200512D01*
X150296814Y-86986399D01*
X149943387Y-86698150D01*
X149652673Y-86346739D01*
X149435760Y-85945564D01*
X149300894Y-85509886D01*
X149250000Y-85025664D01*
X149250000Y-70072279D01*
X149297670Y-69586107D01*
X149429489Y-69149502D01*
X149643600Y-68746815D01*
X149931848Y-68393388D01*
X150283261Y-68102673D01*
X150684439Y-67885758D01*
X151120113Y-67750894D01*
X151604344Y-67700000D01*
X158692003Y-67700000D01*
X158574010Y-67876589D01*
G37*
X158574010Y-67876589D02*
X158462068Y-68146842D01*
X158405000Y-68433740D01*
X158405000Y-68726260D01*
X158462068Y-69013158D01*
X158574010Y-69283411D01*
X158736525Y-69526632D01*
X158943368Y-69733475D01*
X159186589Y-69895990D01*
X159456842Y-70007932D01*
X159743740Y-70065000D01*
X160036260Y-70065000D01*
X160323158Y-70007932D01*
X160593411Y-69895990D01*
X160836632Y-69733475D01*
X161043475Y-69526632D01*
X161160000Y-69352240D01*
X161276525Y-69526632D01*
X161483368Y-69733475D01*
X161726589Y-69895990D01*
X161996842Y-70007932D01*
X162283740Y-70065000D01*
X162576260Y-70065000D01*
X162863158Y-70007932D01*
X163133411Y-69895990D01*
X163376632Y-69733475D01*
X163583475Y-69526632D01*
X163700000Y-69352240D01*
X163816525Y-69526632D01*
X164023368Y-69733475D01*
X164266589Y-69895990D01*
X164536842Y-70007932D01*
X164823740Y-70065000D01*
X165116260Y-70065000D01*
X165403158Y-70007932D01*
X165673411Y-69895990D01*
X165916632Y-69733475D01*
X166123475Y-69526632D01*
X166240000Y-69352240D01*
X166356525Y-69526632D01*
X166563368Y-69733475D01*
X166806589Y-69895990D01*
X167076842Y-70007932D01*
X167363740Y-70065000D01*
X167656260Y-70065000D01*
X167943158Y-70007932D01*
X168213411Y-69895990D01*
X168456632Y-69733475D01*
X168663475Y-69526632D01*
X168780000Y-69352240D01*
X168896525Y-69526632D01*
X169103368Y-69733475D01*
X169346589Y-69895990D01*
X169616842Y-70007932D01*
X169885361Y-70061344D01*
X168271706Y-71675000D01*
X168158387Y-71675000D01*
X168080256Y-71622795D01*
X167891898Y-71544774D01*
X167691939Y-71505000D01*
X167488061Y-71505000D01*
X167288102Y-71544774D01*
X167099744Y-71622795D01*
X167021613Y-71675000D01*
X162158387Y-71675000D01*
X162080256Y-71622795D01*
X161891898Y-71544774D01*
X161691939Y-71505000D01*
X161488061Y-71505000D01*
X161288102Y-71544774D01*
X161099744Y-71622795D01*
X161021613Y-71675000D01*
X159628251Y-71675000D01*
X159490256Y-71582795D01*
X159301898Y-71504774D01*
X159101939Y-71465000D01*
X158898061Y-71465000D01*
X158698102Y-71504774D01*
X158509744Y-71582795D01*
X158340226Y-71696063D01*
X158196063Y-71840226D01*
X158082795Y-72009744D01*
X158004774Y-72198102D01*
X157965000Y-72398061D01*
X157965000Y-72554999D01*
X156480626Y-72554999D01*
X156403937Y-72440226D01*
X156259774Y-72296063D01*
X156090256Y-72182795D01*
X155901898Y-72104774D01*
X155701939Y-72065000D01*
X155498061Y-72065000D01*
X155298102Y-72104774D01*
X155109744Y-72182795D01*
X154940226Y-72296063D01*
X154796063Y-72440226D01*
X154682795Y-72609744D01*
X154604774Y-72798102D01*
X154565000Y-72998061D01*
X154565000Y-73201939D01*
X154604774Y-73401898D01*
X154682795Y-73590256D01*
X154734419Y-73667517D01*
X154672795Y-73759744D01*
X154594774Y-73948102D01*
X154555000Y-74148061D01*
X154555000Y-74351939D01*
X154594774Y-74551898D01*
X154672795Y-74740256D01*
X154786063Y-74909774D01*
X154930226Y-75053937D01*
X155099744Y-75167205D01*
X155288102Y-75245226D01*
X155488061Y-75285000D01*
X155691939Y-75285000D01*
X155891898Y-75245226D01*
X156080256Y-75167205D01*
X156158387Y-75115000D01*
X160745804Y-75115000D01*
X162304904Y-76674101D01*
X162331992Y-76707108D01*
X162364997Y-76734194D01*
X162384984Y-76750597D01*
X162349774Y-76835602D01*
X162331442Y-76927763D01*
X162254205Y-77005001D01*
X159549894Y-77005001D01*
X159003297Y-76458405D01*
X158976205Y-76425393D01*
X158844491Y-76317299D01*
X158694221Y-76236978D01*
X158531168Y-76187516D01*
X158404089Y-76175000D01*
X158404087Y-76175000D01*
X158361598Y-76170815D01*
X158319109Y-76175000D01*
X156158387Y-76175000D01*
X156080256Y-76122795D01*
X155891898Y-76044774D01*
X155691939Y-76005000D01*
X155488061Y-76005000D01*
X155288102Y-76044774D01*
X155099744Y-76122795D01*
X154930226Y-76236063D01*
X154786063Y-76380226D01*
X154672795Y-76549744D01*
X154594774Y-76738102D01*
X154555000Y-76938061D01*
X154555000Y-77141939D01*
X154594774Y-77341898D01*
X154672795Y-77530256D01*
X154786063Y-77699774D01*
X154930226Y-77843937D01*
X155099744Y-77957205D01*
X155288102Y-78035226D01*
X155488061Y-78075000D01*
X155691939Y-78075000D01*
X155891898Y-78035226D01*
X156080256Y-77957205D01*
X156158387Y-77905000D01*
X158003304Y-77905000D01*
X158549904Y-78451601D01*
X158576992Y-78484608D01*
X158708706Y-78592702D01*
X158858976Y-78673023D01*
X159022029Y-78722485D01*
X159149108Y-78735001D01*
X159149110Y-78735001D01*
X159191599Y-78739186D01*
X159234088Y-78735001D01*
X162570010Y-78735001D01*
X162612499Y-78739186D01*
X162654988Y-78735001D01*
X162654990Y-78735001D01*
X162782069Y-78722485D01*
X162945122Y-78673023D01*
X163095392Y-78592702D01*
X163227106Y-78484608D01*
X163254198Y-78451596D01*
X163554737Y-78151058D01*
X163646898Y-78132726D01*
X163835256Y-78054705D01*
X163913387Y-78002500D01*
X165776613Y-78002500D01*
X165854744Y-78054705D01*
X166043102Y-78132726D01*
X166243061Y-78172500D01*
X166446939Y-78172500D01*
X166646898Y-78132726D01*
X166835256Y-78054705D01*
X166913387Y-78002500D01*
X168776613Y-78002500D01*
X168854744Y-78054705D01*
X169043102Y-78132726D01*
X169243061Y-78172500D01*
X169446939Y-78172500D01*
X169646898Y-78132726D01*
X169835256Y-78054705D01*
X170004774Y-77941437D01*
X170148937Y-77797274D01*
X170262205Y-77627756D01*
X170340226Y-77439398D01*
X170380000Y-77239439D01*
X170380000Y-77035561D01*
X170354030Y-76905000D01*
X172521613Y-76905000D01*
X172599744Y-76957205D01*
X172788102Y-77035226D01*
X172988061Y-77075000D01*
X173191939Y-77075000D01*
X173391898Y-77035226D01*
X173580256Y-76957205D01*
X173749774Y-76843937D01*
X173893937Y-76699774D01*
X174007205Y-76530256D01*
X174085226Y-76341898D01*
X174125000Y-76141939D01*
X174125000Y-75938061D01*
X174085226Y-75738102D01*
X174007205Y-75549744D01*
X174000694Y-75540000D01*
X174007205Y-75530256D01*
X174085226Y-75341898D01*
X174125000Y-75141939D01*
X174125000Y-74938061D01*
X174085226Y-74738102D01*
X174007205Y-74549744D01*
X173893937Y-74380226D01*
X173749774Y-74236063D01*
X173580256Y-74122795D01*
X173391898Y-74044774D01*
X173299736Y-74026442D01*
X173124198Y-73850904D01*
X173097106Y-73817892D01*
X172965392Y-73709798D01*
X172815122Y-73629477D01*
X172652069Y-73580015D01*
X172524990Y-73567499D01*
X172524988Y-73567499D01*
X172482499Y-73563314D01*
X172440010Y-73567499D01*
X167729649Y-73567499D01*
X167891898Y-73535226D01*
X168080256Y-73457205D01*
X168158387Y-73405000D01*
X168587511Y-73405000D01*
X168630000Y-73409185D01*
X168672489Y-73405000D01*
X168672491Y-73405000D01*
X168799570Y-73392484D01*
X168962623Y-73343022D01*
X169112893Y-73262701D01*
X169244607Y-73154607D01*
X169271699Y-73121595D01*
X172325223Y-70068072D01*
X173440000Y-70068072D01*
X173564482Y-70055812D01*
X173684180Y-70019502D01*
X173794494Y-69960537D01*
X173891185Y-69881185D01*
X173970537Y-69784494D01*
X174029502Y-69674180D01*
X174065812Y-69554482D01*
X174078072Y-69430000D01*
X174078072Y-67730000D01*
X174075117Y-67700000D01*
X182557721Y-67700000D01*
X183043893Y-67747670D01*
X183480498Y-67879489D01*
X183883185Y-68093600D01*
X184236612Y-68381848D01*
X184527327Y-68733261D01*
X184744242Y-69134439D01*
X184879106Y-69570113D01*
X184930000Y-70054344D01*
X184930001Y-85007711D01*
X184882330Y-85493894D01*
X184750512Y-85930497D01*
X184536399Y-86333186D01*
X184248150Y-86686613D01*
X183896739Y-86977327D01*
X183495564Y-87194240D01*
X183059886Y-87329106D01*
X182575664Y-87380000D01*
X174052004Y-87380000D01*
X174065812Y-87334482D01*
X174078072Y-87210000D01*
X174078072Y-85510000D01*
X174065812Y-85385518D01*
X174029502Y-85265820D01*
X173970537Y-85155506D01*
X173891185Y-85058815D01*
X173794494Y-84979463D01*
X173684180Y-84920498D01*
X173564482Y-84884188D01*
X173440000Y-84871928D01*
X171740000Y-84871928D01*
X171615518Y-84884188D01*
X171495820Y-84920498D01*
X171385506Y-84979463D01*
X171288815Y-85058815D01*
X171209463Y-85155506D01*
X171150498Y-85265820D01*
X171128487Y-85338380D01*
X170996632Y-85206525D01*
X170753411Y-85044010D01*
X170483158Y-84932068D01*
X170196260Y-84875000D01*
X169903740Y-84875000D01*
X169616842Y-84932068D01*
X169346589Y-85044010D01*
X169103368Y-85206525D01*
X168896525Y-85413368D01*
X168780000Y-85587760D01*
X168663475Y-85413368D01*
X168456632Y-85206525D01*
X168213411Y-85044010D01*
X167943158Y-84932068D01*
X167656260Y-84875000D01*
X167363740Y-84875000D01*
X167076842Y-84932068D01*
X166806589Y-85044010D01*
X166563368Y-85206525D01*
X166356525Y-85413368D01*
X166240000Y-85587760D01*
X166123475Y-85413368D01*
X165916632Y-85206525D01*
X165673411Y-85044010D01*
X165403158Y-84932068D01*
X165116260Y-84875000D01*
X164823740Y-84875000D01*
X164536842Y-84932068D01*
X164266589Y-85044010D01*
X164023368Y-85206525D01*
X163816525Y-85413368D01*
X163700000Y-85587760D01*
X163583475Y-85413368D01*
X163376632Y-85206525D01*
X163133411Y-85044010D01*
X162863158Y-84932068D01*
X162576260Y-84875000D01*
X162283740Y-84875000D01*
X161996842Y-84932068D01*
X161726589Y-85044010D01*
X161483368Y-85206525D01*
X161276525Y-85413368D01*
X161160000Y-85587760D01*
X161043475Y-85413368D01*
X160836632Y-85206525D01*
X160593411Y-85044010D01*
X160323158Y-84932068D01*
X160036260Y-84875000D01*
X159743740Y-84875000D01*
X159456842Y-84932068D01*
X159186589Y-85044010D01*
X158943368Y-85206525D01*
X158736525Y-85413368D01*
X158574010Y-85656589D01*
X158462068Y-85926842D01*
X158405000Y-86213740D01*
X158405000Y-86506260D01*
X158462068Y-86793158D01*
X158574010Y-87063411D01*
X158736525Y-87306632D01*
X158809893Y-87380000D01*
X151622279Y-87380000D01*
X151136106Y-87332330D01*
X150699503Y-87200512D01*
X150296814Y-86986399D01*
X149943387Y-86698150D01*
X149652673Y-86346739D01*
X149435760Y-85945564D01*
X149300894Y-85509886D01*
X149250000Y-85025664D01*
X149250000Y-70072279D01*
X149297670Y-69586107D01*
X149429489Y-69149502D01*
X149643600Y-68746815D01*
X149931848Y-68393388D01*
X150283261Y-68102673D01*
X150684439Y-67885758D01*
X151120113Y-67750894D01*
X151604344Y-67700000D01*
X158692003Y-67700000D01*
X158574010Y-67876589D01*
%TD*%
M02*
