M48
; DRILL file {KiCad 5.1.6} date Sat Jul 11 18:48:26 2020
; FORMAT={-:-/ absolute / inch / decimal}
; #@! TF.CreationDate,2020-07-11T18:48:26-07:00
; #@! TF.GenerationSoftware,Kicad,Pcbnew,5.1.6
; #@! TF.FileFunction,Plated,1,2,PTH
FMAT,2
INCH
T1C0.0157
T2C0.0394
%
G90
G05
T1
X5.9449Y-3.2367
X6.1256Y-2.9232
X6.1256Y-2.9937
X6.1256Y-3.0331
X6.126Y-2.878
X6.1739Y-3.2367
X6.1881Y-2.8543
X6.2598Y-2.8543
X6.2831Y-3.0331
X6.3618Y-2.8559
X6.403Y-3.2367
X6.4309Y-2.9631
X6.4309Y-3.0369
X6.549Y-2.9631
X6.549Y-3.0369
X6.598Y-2.8559
X6.6321Y-3.2367
X6.6671Y-3.0369
X6.8146Y-2.9543
X6.8146Y-2.9937
X6.8146Y-3.0331
X6.8611Y-3.2367
X6.9098Y-3.0693
X7.0902Y-3.2367
T2
X6.2949Y-3.4
X6.3949Y-3.4
X6.4949Y-3.4
X6.5949Y-3.4
X6.6949Y-3.4
X6.7949Y-3.4
X6.2949Y-2.7
X6.3949Y-2.7
X6.4949Y-2.7
X6.5949Y-2.7
X6.6949Y-2.7
X6.7949Y-2.7
T0
M30
