%TF.GenerationSoftware,KiCad,Pcbnew,5.1.6*%
%TF.CreationDate,2020-06-18T23:16:12-07:00*%
%TF.ProjectId,draft,64726166-742e-46b6-9963-61645f706362,rev?*%
%TF.SameCoordinates,Original*%
%TF.FileFunction,Soldermask,Top*%
%TF.FilePolarity,Negative*%
%FSLAX46Y46*%
G04 Gerber Fmt 4.6, Leading zero omitted, Abs format (unit mm)*
G04 Created by KiCad (PCBNEW 5.1.6) date 2020-06-18 23:16:12*
%MOMM*%
%LPD*%
G01*
G04 APERTURE LIST*
%ADD10R,2.030000X2.030000*%
%ADD11C,2.030000*%
%ADD12O,1.800000X2.100000*%
%ADD13C,4.100000*%
%ADD14C,1.900000*%
%ADD15R,1.800000X1.800000*%
%ADD16O,1.800000X1.800000*%
G04 APERTURE END LIST*
D10*
%TO.C,U1*%
X105450001Y-84095001D03*
D11*
X105450001Y-81555001D03*
X105450001Y-79015001D03*
X105450001Y-76475001D03*
X105450001Y-73935001D03*
X105450001Y-71395001D03*
X105450001Y-68855001D03*
X105450001Y-66315001D03*
X105450001Y-63775001D03*
X105450001Y-61235001D03*
X105450001Y-58695001D03*
X105450001Y-56155001D03*
X105450001Y-53615001D03*
X105450001Y-51075001D03*
X105450001Y-48535001D03*
D10*
X82590001Y-84095001D03*
D11*
X82590001Y-81555001D03*
X82590001Y-79015001D03*
X82590001Y-76475001D03*
X82590001Y-73935001D03*
X82590001Y-71395001D03*
X82590001Y-68855001D03*
X82590001Y-66315001D03*
X82590001Y-63775001D03*
X82590001Y-61235001D03*
X82590001Y-58695001D03*
X82590001Y-56155001D03*
X82590001Y-53615001D03*
X82590001Y-51075001D03*
X82590001Y-48535001D03*
%TD*%
%TO.C,J2*%
G36*
G01*
X92100000Y-103785294D02*
X92100000Y-102214706D01*
G75*
G02*
X92364706Y-101950000I264706J0D01*
G01*
X93635294Y-101950000D01*
G75*
G02*
X93900000Y-102214706I0J-264706D01*
G01*
X93900000Y-103785294D01*
G75*
G02*
X93635294Y-104050000I-264706J0D01*
G01*
X92364706Y-104050000D01*
G75*
G02*
X92100000Y-103785294I0J264706D01*
G01*
G37*
D12*
X95500000Y-103000000D03*
%TD*%
D13*
%TO.C,RV1*%
X72405000Y-62870000D03*
X72405000Y-71670000D03*
D14*
X65405000Y-64770000D03*
X65405000Y-67270000D03*
X65405000Y-69770000D03*
%TD*%
D15*
%TO.C,ADC1*%
X125730000Y-44450000D03*
D16*
X125730000Y-46990000D03*
X125730000Y-49530000D03*
X125730000Y-52070000D03*
X125730000Y-54610000D03*
X125730000Y-57150000D03*
X125730000Y-59690000D03*
X125730000Y-62230000D03*
X125730000Y-64770000D03*
X125730000Y-67310000D03*
%TD*%
D15*
%TO.C,BME1*%
X121285000Y-89000000D03*
D16*
X121285000Y-86460000D03*
X121285000Y-83920000D03*
X121285000Y-81380000D03*
X121285000Y-78840000D03*
X121285000Y-76300000D03*
%TD*%
D15*
%TO.C,J1*%
X89000000Y-70000000D03*
D16*
X89000000Y-67460000D03*
X91540000Y-70000000D03*
X91540000Y-67460000D03*
X94080000Y-70000000D03*
X94080000Y-67460000D03*
X96620000Y-70000000D03*
X96620000Y-67460000D03*
X99160000Y-70000000D03*
X99160000Y-67460000D03*
%TD*%
D15*
%TO.C,LCD_SPI1*%
X101600000Y-40640000D03*
D16*
X99060000Y-40640000D03*
X96520000Y-40640000D03*
X93980000Y-40640000D03*
X91440000Y-40640000D03*
X88900000Y-40640000D03*
X86360000Y-40640000D03*
%TD*%
D15*
%TO.C,MOIST1*%
X91000000Y-84000000D03*
D16*
X91000000Y-81460000D03*
X91000000Y-78920000D03*
%TD*%
D15*
%TO.C,PHOTO1*%
X97000000Y-84000000D03*
D16*
X97000000Y-81460000D03*
%TD*%
M02*
