%TF.GenerationSoftware,KiCad,Pcbnew,5.1.6*%
%TF.CreationDate,2020-08-23T11:13:54-07:00*%
%TF.ProjectId,plant_station_v3,706c616e-745f-4737-9461-74696f6e5f76,rev?*%
%TF.SameCoordinates,Original*%
%TF.FileFunction,Profile,NP*%
%FSLAX46Y46*%
G04 Gerber Fmt 4.6, Leading zero omitted, Abs format (unit mm)*
G04 Created by KiCad (PCBNEW 5.1.6) date 2020-08-23 11:13:54*
%MOMM*%
%LPD*%
G01*
G04 APERTURE LIST*
%TA.AperFunction,Profile*%
%ADD10C,0.100000*%
%TD*%
G04 APERTURE END LIST*
D10*
X118994676Y-71325662D02*
X118994676Y-89000000D01*
X162428845Y-80004480D02*
X157000000Y-80004480D01*
X180000000Y-85000000D02*
X157000000Y-85000000D01*
X180000000Y-79549999D02*
G75*
G02*
X184999999Y-79549999I2500000J6500328D01*
G01*
X185000000Y-85000000D02*
X211000000Y-85000000D01*
X231225000Y-80005000D02*
X216000000Y-80005000D01*
X216000000Y-85000000D02*
X232225000Y-85000000D01*
X118994676Y-94000000D02*
X112080000Y-94000000D01*
X112110000Y-89000000D02*
X118994676Y-89000000D01*
X216000000Y-80005000D02*
X216000000Y-85000000D01*
X211000000Y-80005000D02*
X211000000Y-85000000D01*
X184999999Y-79549999D02*
X185000000Y-85000000D01*
X180000000Y-79549999D02*
X180000000Y-85000000D01*
X157000000Y-80004480D02*
X157000000Y-85000000D01*
X152000000Y-80004480D02*
X152000000Y-85000000D01*
X137225000Y-85000000D02*
G75*
G02*
X136282359Y-84333807I0J1000000D01*
G01*
X136282359Y-84333807D02*
X136052751Y-83686492D01*
X136052751Y-83686492D02*
X135805010Y-83048055D01*
X135805010Y-83048055D02*
X135539445Y-82418804D01*
X135539445Y-82418804D02*
X135256368Y-81799043D01*
X135256368Y-81799043D02*
X134956090Y-81189080D01*
X134956090Y-81189080D02*
X134638922Y-80589220D01*
X134638922Y-80589220D02*
X134305174Y-79999769D01*
X134305174Y-79999769D02*
X133955158Y-79421034D01*
X133955158Y-79421034D02*
X133589185Y-78853321D01*
X133589185Y-78853321D02*
X133207566Y-78296937D01*
X133207566Y-78296937D02*
X132810611Y-77752187D01*
X132810611Y-77752187D02*
X132398632Y-77219377D01*
X132398632Y-77219377D02*
X131971940Y-76698815D01*
X131971940Y-76698815D02*
X131530846Y-76190805D01*
X131530846Y-76190805D02*
X131075660Y-75695655D01*
X131075660Y-75695655D02*
X130606694Y-75213670D01*
X130606694Y-75213670D02*
X130124259Y-74745157D01*
X130124259Y-74745157D02*
X129628666Y-74290422D01*
X129628666Y-74290422D02*
X129120225Y-73849771D01*
X129120225Y-73849771D02*
X128599248Y-73423510D01*
X128599248Y-73423510D02*
X128066045Y-73011946D01*
X128066045Y-73011946D02*
X127520929Y-72615385D01*
X127520929Y-72615385D02*
X126964209Y-72234133D01*
X126964209Y-72234133D02*
X126396196Y-71868496D01*
X126396196Y-71868496D02*
X125817202Y-71518780D01*
X125817202Y-71518780D02*
X125227538Y-71185292D01*
X125227538Y-71185292D02*
X124627515Y-70868338D01*
X124627515Y-70868338D02*
X124017443Y-70568224D01*
X124017443Y-70568224D02*
X123397634Y-70285256D01*
X123397634Y-70285256D02*
X122768399Y-70019741D01*
X122768399Y-70019741D02*
X122130048Y-69771985D01*
X122130048Y-69771985D02*
X121482893Y-69542294D01*
X121482893Y-69542294D02*
X121374143Y-69509188D01*
X121374143Y-69509188D02*
X121262999Y-69482561D01*
X121262999Y-69482561D02*
X121149619Y-69462609D01*
X121149619Y-69462609D02*
X121034158Y-69449523D01*
X121034158Y-69449523D02*
X120916775Y-69443499D01*
X120916775Y-69443499D02*
X120877247Y-69443094D01*
X120877247Y-114552677D02*
X120995236Y-114549003D01*
X120995236Y-114549003D02*
X121111355Y-114538138D01*
X121111355Y-114538138D02*
X121225447Y-114520314D01*
X121225447Y-114520314D02*
X121337353Y-114495766D01*
X121337353Y-114495766D02*
X121446918Y-114464725D01*
X121446918Y-114464725D02*
X121482893Y-114452977D01*
X120877247Y-69443094D02*
X120684775Y-69452812D01*
X120684775Y-69452812D02*
X120497862Y-69481336D01*
X120497862Y-69481336D02*
X120317452Y-69527720D01*
X120317452Y-69527720D02*
X120144492Y-69591019D01*
X120144492Y-69591019D02*
X119979930Y-69670286D01*
X119979930Y-69670286D02*
X119824712Y-69764576D01*
X119824712Y-69764576D02*
X119679784Y-69872943D01*
X119679784Y-69872943D02*
X119546092Y-69994442D01*
X119546092Y-69994442D02*
X119424584Y-70128126D01*
X119424584Y-70128126D02*
X119316206Y-70273049D01*
X119316206Y-70273049D02*
X119221905Y-70428267D01*
X119221905Y-70428267D02*
X119142626Y-70592832D01*
X119142626Y-70592832D02*
X119079318Y-70765801D01*
X119079318Y-70765801D02*
X119032925Y-70946225D01*
X119032925Y-70946225D02*
X119004396Y-71133161D01*
X119004396Y-71133161D02*
X118994676Y-71325662D01*
X118994676Y-94000000D02*
X118994676Y-112669080D01*
X118994676Y-112669080D02*
X119004396Y-112861727D01*
X119004396Y-112861727D02*
X119032925Y-113048795D01*
X119032925Y-113048795D02*
X119079318Y-113229340D01*
X119079318Y-113229340D02*
X119142626Y-113402415D01*
X119142626Y-113402415D02*
X119221905Y-113567076D01*
X119221905Y-113567076D02*
X119316206Y-113722377D01*
X119316206Y-113722377D02*
X119424584Y-113867374D01*
X119424584Y-113867374D02*
X119546092Y-114001121D01*
X119546092Y-114001121D02*
X119679784Y-114122673D01*
X119679784Y-114122673D02*
X119824712Y-114231084D01*
X119824712Y-114231084D02*
X119979930Y-114325410D01*
X119979930Y-114325410D02*
X120144492Y-114404706D01*
X120144492Y-114404706D02*
X120317452Y-114468025D01*
X120317452Y-114468025D02*
X120497862Y-114514424D01*
X120497862Y-114514424D02*
X120684775Y-114542956D01*
X120684775Y-114542956D02*
X120877247Y-114552677D01*
X121482893Y-114452977D02*
X122130048Y-114223287D01*
X122130048Y-114223287D02*
X122768399Y-113975536D01*
X122768399Y-113975536D02*
X123397634Y-113710031D01*
X123397634Y-113710031D02*
X124017443Y-113427078D01*
X124017443Y-113427078D02*
X124627514Y-113126985D01*
X124627514Y-113126985D02*
X125227537Y-112810059D01*
X125227537Y-112810059D02*
X125817200Y-112476606D01*
X125817200Y-112476606D02*
X126396192Y-112126933D01*
X126396192Y-112126933D02*
X126964203Y-111761348D01*
X126964203Y-111761348D02*
X127520921Y-111380157D01*
X127520921Y-111380157D02*
X128066035Y-110983667D01*
X128066035Y-110983667D02*
X128599234Y-110572186D01*
X128599234Y-110572186D02*
X129120208Y-110146019D01*
X129120208Y-110146019D02*
X129628644Y-109705474D01*
X129628644Y-109705474D02*
X130124233Y-109250858D01*
X130124233Y-109250858D02*
X130606662Y-108782478D01*
X130606662Y-108782478D02*
X131075622Y-108300641D01*
X131075622Y-108300641D02*
X131530800Y-107805653D01*
X131530800Y-107805653D02*
X131971886Y-107297822D01*
X131971886Y-107297822D02*
X132398569Y-106777455D01*
X132398569Y-106777455D02*
X132810538Y-106244857D01*
X132810538Y-106244857D02*
X133207482Y-105700338D01*
X133207482Y-105700338D02*
X133589089Y-105144202D01*
X133589089Y-105144202D02*
X133955049Y-104576758D01*
X133955049Y-104576758D02*
X134305051Y-103998312D01*
X134305051Y-103998312D02*
X134638783Y-103409171D01*
X134638783Y-103409171D02*
X134955935Y-102809643D01*
X134955935Y-102809643D02*
X135256195Y-102200033D01*
X135256195Y-102200033D02*
X135539253Y-101580649D01*
X135539253Y-101580649D02*
X135804797Y-100951798D01*
X135804797Y-100951798D02*
X136052517Y-100313786D01*
X136052517Y-100313786D02*
X136282101Y-99666922D01*
X162428845Y-80004480D02*
X163106870Y-79335120D01*
X163106870Y-79335120D02*
X163756316Y-78660592D01*
X163756316Y-78660592D02*
X164377810Y-77981380D01*
X164377810Y-77981380D02*
X164971979Y-77297966D01*
X164971979Y-77297966D02*
X165539451Y-76610836D01*
X165539451Y-76610836D02*
X166080852Y-75920474D01*
X166080852Y-75920474D02*
X166596809Y-75227362D01*
X166596809Y-75227362D02*
X167087949Y-74531986D01*
X167087949Y-74531986D02*
X167554900Y-73834829D01*
X167554900Y-73834829D02*
X167998289Y-73136375D01*
X167998289Y-73136375D02*
X168418742Y-72437108D01*
X168418742Y-72437108D02*
X168816886Y-71737513D01*
X168816886Y-71737513D02*
X169193350Y-71038072D01*
X169193350Y-71038072D02*
X169548759Y-70339271D01*
X169548759Y-70339271D02*
X169883741Y-69641592D01*
X169883741Y-69641592D02*
X170198923Y-68945521D01*
X170198923Y-68945521D02*
X170494932Y-68251540D01*
X170494932Y-68251540D02*
X170772395Y-67560135D01*
X170772395Y-67560135D02*
X171031939Y-66871788D01*
X171031939Y-66871788D02*
X171274192Y-66186984D01*
X171274192Y-66186984D02*
X171499779Y-65506207D01*
X171499779Y-65506207D02*
X171709329Y-64829941D01*
X171709329Y-64829941D02*
X171903468Y-64158670D01*
X171903468Y-64158670D02*
X172082824Y-63492878D01*
X172082824Y-63492878D02*
X172248023Y-62833048D01*
X172248023Y-62833048D02*
X172399693Y-62179665D01*
X172399693Y-62179665D02*
X172538460Y-61533213D01*
X172538460Y-61533213D02*
X172664952Y-60894175D01*
X172664952Y-60894175D02*
X172779796Y-60263036D01*
X172779796Y-60263036D02*
X172883618Y-59640280D01*
X172883618Y-59640280D02*
X172977047Y-59026390D01*
X172977047Y-59026390D02*
X173060709Y-58421851D01*
X173060709Y-58421851D02*
X136453707Y-58421851D01*
X147045288Y-80004480D02*
X152000000Y-80004480D01*
X136453707Y-58421851D02*
X136536939Y-59024890D01*
X136536939Y-59024890D02*
X136629838Y-59637218D01*
X136629838Y-59637218D02*
X136733034Y-60258366D01*
X136733034Y-60258366D02*
X136847159Y-60887867D01*
X136847159Y-60887867D02*
X136972846Y-61525252D01*
X136972846Y-61525252D02*
X137110727Y-62170053D01*
X137110727Y-62170053D02*
X137261432Y-62821802D01*
X137261432Y-62821802D02*
X137425594Y-63480031D01*
X137425594Y-63480031D02*
X137603845Y-64144273D01*
X137603845Y-64144273D02*
X137796816Y-64814057D01*
X137796816Y-64814057D02*
X138005140Y-65488918D01*
X138005140Y-65488918D02*
X138229448Y-66168386D01*
X138229448Y-66168386D02*
X138470372Y-66851994D01*
X138470372Y-66851994D02*
X138728543Y-67539273D01*
X138728543Y-67539273D02*
X139004594Y-68229755D01*
X139004594Y-68229755D02*
X139299157Y-68922973D01*
X139299157Y-68922973D02*
X139612863Y-69618457D01*
X139612863Y-69618457D02*
X139946344Y-70315741D01*
X139946344Y-70315741D02*
X140300232Y-71014356D01*
X140300232Y-71014356D02*
X140675159Y-71713833D01*
X140675159Y-71713833D02*
X141071756Y-72413706D01*
X141071756Y-72413706D02*
X141490656Y-73113505D01*
X141490656Y-73113505D02*
X141932490Y-73812762D01*
X141932490Y-73812762D02*
X142397890Y-74511010D01*
X142397890Y-74511010D02*
X142887488Y-75207781D01*
X142887488Y-75207781D02*
X143401915Y-75902605D01*
X143401915Y-75902605D02*
X143941805Y-76595016D01*
X143941805Y-76595016D02*
X144507787Y-77284545D01*
X144507787Y-77284545D02*
X145100495Y-77970724D01*
X145100495Y-77970724D02*
X145720560Y-78653085D01*
X145720560Y-78653085D02*
X146368613Y-79331159D01*
X146368613Y-79331159D02*
X147045288Y-80004480D01*
X211000000Y-80005000D02*
X197225000Y-80005000D01*
X194225000Y-77005000D02*
X194225000Y-61005000D01*
X197225000Y-58005000D02*
X231225000Y-58005000D01*
X234225000Y-61005000D02*
X234225000Y-77005000D01*
X234225000Y-77005000D02*
G75*
G02*
X231225000Y-80005000I-3000000J0D01*
G01*
X231225000Y-58005000D02*
G75*
G02*
X234225000Y-61005000I0J-3000000D01*
G01*
X194225000Y-61005000D02*
G75*
G02*
X197225000Y-58005000I3000000J0D01*
G01*
X197225000Y-80005000D02*
G75*
G02*
X194225000Y-77005000I0J3000000D01*
G01*
X137225000Y-99000000D02*
X232225000Y-99000000D01*
X152000000Y-85000000D02*
X138225000Y-85000000D01*
X138225000Y-85000000D02*
X137225000Y-85000000D01*
X232225000Y-85000000D02*
G75*
G02*
X232225000Y-99000000I0J-7000000D01*
G01*
X136282101Y-99666922D02*
G75*
G02*
X137225000Y-99000000I942899J-333078D01*
G01*
X112110000Y-89000000D02*
X112066671Y-88382304D01*
X112066671Y-88382304D02*
X112014389Y-87726518D01*
X112014389Y-87726518D02*
X111951580Y-87034220D01*
X111951580Y-87034220D02*
X111876675Y-86306988D01*
X111876675Y-86306988D02*
X111788101Y-85546400D01*
X111788101Y-85546400D02*
X111684286Y-84754034D01*
X111684286Y-84754034D02*
X111563661Y-83931467D01*
X111563661Y-83931467D02*
X111424652Y-83080279D01*
X111424652Y-83080279D02*
X111265689Y-82202047D01*
X111265689Y-82202047D02*
X111085199Y-81298349D01*
X111085199Y-81298349D02*
X110881613Y-80370762D01*
X110881613Y-80370762D02*
X110653357Y-79420865D01*
X110653357Y-79420865D02*
X110398862Y-78450237D01*
X110398862Y-78450237D02*
X110116554Y-77460454D01*
X110116554Y-77460454D02*
X109804864Y-76453095D01*
X109804864Y-76453095D02*
X109462218Y-75429737D01*
X109462218Y-75429737D02*
X109087047Y-74391960D01*
X109087047Y-74391960D02*
X108677778Y-73341340D01*
X108677778Y-73341340D02*
X108232840Y-72279456D01*
X108232840Y-72279456D02*
X107750661Y-71207886D01*
X107750661Y-71207886D02*
X107229671Y-70128207D01*
X107229671Y-70128207D02*
X106668297Y-69041999D01*
X106668297Y-69041999D02*
X106064968Y-67950838D01*
X106064968Y-67950838D02*
X105418113Y-66856302D01*
X105418113Y-66856302D02*
X104726160Y-65759971D01*
X104726160Y-65759971D02*
X103987538Y-64663421D01*
X103987538Y-64663421D02*
X103200675Y-63568230D01*
X103200675Y-63568230D02*
X102364000Y-62475977D01*
X102364000Y-62475977D02*
X101475941Y-61388240D01*
X101475941Y-61388240D02*
X100534928Y-60306597D01*
X100534928Y-60306597D02*
X99539388Y-59232625D01*
X99539388Y-59232625D02*
X98487750Y-58167903D01*
X88547284Y-114922438D02*
X89763452Y-114896439D01*
X89763452Y-114896439D02*
X90957205Y-114810800D01*
X90957205Y-114810800D02*
X92127683Y-114667434D01*
X92127683Y-114667434D02*
X93274025Y-114468256D01*
X93274025Y-114468256D02*
X94395372Y-114215177D01*
X94395372Y-114215177D02*
X95490863Y-113910113D01*
X95490863Y-113910113D02*
X96559638Y-113554977D01*
X96559638Y-113554977D02*
X97600836Y-113151681D01*
X97600836Y-113151681D02*
X98613598Y-112702140D01*
X98613598Y-112702140D02*
X99597062Y-112208267D01*
X99597062Y-112208267D02*
X100550370Y-111671975D01*
X100550370Y-111671975D02*
X101472660Y-111095179D01*
X101472660Y-111095179D02*
X102363072Y-110479791D01*
X102363072Y-110479791D02*
X103220746Y-109827725D01*
X103220746Y-109827725D02*
X104044822Y-109140894D01*
X104044822Y-109140894D02*
X104834440Y-108421213D01*
X104834440Y-108421213D02*
X105588739Y-107670594D01*
X105588739Y-107670594D02*
X106306858Y-106890951D01*
X106306858Y-106890951D02*
X106987939Y-106084197D01*
X106987939Y-106084197D02*
X107631120Y-105252247D01*
X107631120Y-105252247D02*
X108235541Y-104397013D01*
X108235541Y-104397013D02*
X108800343Y-103520410D01*
X108800343Y-103520410D02*
X109324664Y-102624350D01*
X109324664Y-102624350D02*
X109807644Y-101710747D01*
X109807644Y-101710747D02*
X110248424Y-100781515D01*
X110248424Y-100781515D02*
X110646143Y-99838566D01*
X110646143Y-99838566D02*
X110999940Y-98883816D01*
X110999940Y-98883816D02*
X111308956Y-97919176D01*
X111308956Y-97919176D02*
X111572330Y-96946561D01*
X111572330Y-96946561D02*
X111789202Y-95967885D01*
X111789202Y-95967885D02*
X111958712Y-94985059D01*
X111958712Y-94985059D02*
X112080000Y-94000000D01*
X81982315Y-55612500D02*
X81871191Y-55674032D01*
X81871191Y-55674032D02*
X81760617Y-55736599D01*
X81760617Y-55736599D02*
X81650602Y-55800197D01*
X81650602Y-55800197D02*
X81541153Y-55864823D01*
X81541153Y-55864823D02*
X81432278Y-55930475D01*
X81432278Y-55930475D02*
X81323985Y-55997150D01*
X81323985Y-55997150D02*
X81216282Y-56064845D01*
X81216282Y-56064845D02*
X81109177Y-56133557D01*
X81109177Y-56133557D02*
X81002678Y-56203283D01*
X81002678Y-56203283D02*
X80896792Y-56274021D01*
X80896792Y-56274021D02*
X80791528Y-56345768D01*
X80791528Y-56345768D02*
X80686894Y-56418522D01*
X80686894Y-56418522D02*
X80582897Y-56492278D01*
X80582897Y-56492278D02*
X80479545Y-56567035D01*
X80479545Y-56567035D02*
X80376847Y-56642790D01*
X80376847Y-56642790D02*
X80274810Y-56719539D01*
X80274810Y-56719539D02*
X80173441Y-56797281D01*
X80173441Y-56797281D02*
X80072750Y-56876012D01*
X80072750Y-56876012D02*
X79972744Y-56955730D01*
X79972744Y-56955730D02*
X79873430Y-57036431D01*
X79873430Y-57036431D02*
X79774818Y-57118114D01*
X79774818Y-57118114D02*
X79676914Y-57200774D01*
X79676914Y-57200774D02*
X79579726Y-57284410D01*
X79579726Y-57284410D02*
X79483263Y-57369019D01*
X79483263Y-57369019D02*
X79387532Y-57454597D01*
X79387532Y-57454597D02*
X79292542Y-57541143D01*
X79292542Y-57541143D02*
X79198300Y-57628653D01*
X79198300Y-57628653D02*
X79104814Y-57717124D01*
X79104814Y-57717124D02*
X79012092Y-57806554D01*
X79012092Y-57806554D02*
X78920142Y-57896940D01*
X78920142Y-57896940D02*
X78828972Y-57988279D01*
X78828972Y-57988279D02*
X78738590Y-58080569D01*
X95159274Y-55612500D02*
X81982315Y-55612500D01*
X64846951Y-91224183D02*
X64877796Y-92443719D01*
X64877796Y-92443719D02*
X64969326Y-93647245D01*
X64969326Y-93647245D02*
X65120051Y-94833270D01*
X65120051Y-94833270D02*
X65328483Y-96000307D01*
X65328483Y-96000307D02*
X65593132Y-97146865D01*
X65593132Y-97146865D02*
X65912509Y-98271456D01*
X65912509Y-98271456D02*
X66285125Y-99372592D01*
X66285125Y-99372592D02*
X66709490Y-100448782D01*
X66709490Y-100448782D02*
X67184116Y-101498538D01*
X67184116Y-101498538D02*
X67707513Y-102520371D01*
X67707513Y-102520371D02*
X68278192Y-103512792D01*
X68278192Y-103512792D02*
X68894664Y-104474312D01*
X68894664Y-104474312D02*
X69555439Y-105403442D01*
X69555439Y-105403442D02*
X70259030Y-106298693D01*
X70259030Y-106298693D02*
X71003945Y-107158576D01*
X71003945Y-107158576D02*
X71788697Y-107981602D01*
X71788697Y-107981602D02*
X72611796Y-108766282D01*
X72611796Y-108766282D02*
X73471753Y-109511126D01*
X73471753Y-109511126D02*
X74367079Y-110214647D01*
X74367079Y-110214647D02*
X75296283Y-110875355D01*
X75296283Y-110875355D02*
X76257879Y-111491761D01*
X76257879Y-111491761D02*
X77250375Y-112062375D01*
X77250375Y-112062375D02*
X78272284Y-112585710D01*
X78272284Y-112585710D02*
X79322115Y-113060276D01*
X79322115Y-113060276D02*
X80398379Y-113484584D01*
X80398379Y-113484584D02*
X81499589Y-113857144D01*
X81499589Y-113857144D02*
X82624253Y-114176469D01*
X82624253Y-114176469D02*
X83770884Y-114441069D01*
X83770884Y-114441069D02*
X84937991Y-114649454D01*
X84937991Y-114649454D02*
X86124087Y-114800137D01*
X86124087Y-114800137D02*
X87327680Y-114891628D01*
X87327680Y-114891628D02*
X88547284Y-114922438D01*
X98487750Y-58167903D02*
X98395372Y-58071935D01*
X98395372Y-58071935D02*
X98302159Y-57976972D01*
X98302159Y-57976972D02*
X98208119Y-57883018D01*
X98208119Y-57883018D02*
X98113260Y-57790075D01*
X98113260Y-57790075D02*
X98017592Y-57698147D01*
X98017592Y-57698147D02*
X97921122Y-57607237D01*
X97921122Y-57607237D02*
X97823860Y-57517350D01*
X97823860Y-57517350D02*
X97725812Y-57428489D01*
X97725812Y-57428489D02*
X97626989Y-57340656D01*
X97626989Y-57340656D02*
X97527398Y-57253856D01*
X97527398Y-57253856D02*
X97427047Y-57168091D01*
X97427047Y-57168091D02*
X97325946Y-57083367D01*
X97325946Y-57083367D02*
X97224102Y-56999685D01*
X97224102Y-56999685D02*
X97121525Y-56917049D01*
X97121525Y-56917049D02*
X97018222Y-56835463D01*
X97018222Y-56835463D02*
X96914202Y-56754931D01*
X96914202Y-56754931D02*
X96809474Y-56675455D01*
X96809474Y-56675455D02*
X96704046Y-56597040D01*
X96704046Y-56597040D02*
X96597925Y-56519689D01*
X96597925Y-56519689D02*
X96491122Y-56443404D01*
X96491122Y-56443404D02*
X96383644Y-56368191D01*
X96383644Y-56368191D02*
X96275500Y-56294051D01*
X96275500Y-56294051D02*
X96166698Y-56220989D01*
X96166698Y-56220989D02*
X96057247Y-56149008D01*
X96057247Y-56149008D02*
X95947155Y-56078112D01*
X95947155Y-56078112D02*
X95836430Y-56008304D01*
X95836430Y-56008304D02*
X95725081Y-55939588D01*
X95725081Y-55939588D02*
X95613117Y-55871966D01*
X95613117Y-55871966D02*
X95500546Y-55805443D01*
X95500546Y-55805443D02*
X95387376Y-55740022D01*
X95387376Y-55740022D02*
X95273615Y-55675706D01*
X95273615Y-55675706D02*
X95159274Y-55612500D01*
X78738590Y-58080569D02*
X77672361Y-59140143D01*
X77672361Y-59140143D02*
X76662457Y-60210648D01*
X76662457Y-60210648D02*
X75707323Y-61290838D01*
X75707323Y-61290838D02*
X74805405Y-62379466D01*
X74805405Y-62379466D02*
X73955149Y-63475284D01*
X73955149Y-63475284D02*
X73154999Y-64577046D01*
X73154999Y-64577046D02*
X72403402Y-65683506D01*
X72403402Y-65683506D02*
X71698804Y-66793414D01*
X71698804Y-66793414D02*
X71039651Y-67905526D01*
X71039651Y-67905526D02*
X70424387Y-69018594D01*
X70424387Y-69018594D02*
X69851460Y-70131372D01*
X69851460Y-70131372D02*
X69319314Y-71242611D01*
X69319314Y-71242611D02*
X68826395Y-72351065D01*
X68826395Y-72351065D02*
X68371149Y-73455488D01*
X68371149Y-73455488D02*
X67952022Y-74554633D01*
X67952022Y-74554633D02*
X67567460Y-75647251D01*
X67567460Y-75647251D02*
X67215908Y-76732098D01*
X67215908Y-76732098D02*
X66895811Y-77807924D01*
X66895811Y-77807924D02*
X66605617Y-78873485D01*
X66605617Y-78873485D02*
X66343770Y-79927532D01*
X66343770Y-79927532D02*
X66108716Y-80968819D01*
X66108716Y-80968819D02*
X65898901Y-81996099D01*
X65898901Y-81996099D02*
X65712770Y-83008125D01*
X65712770Y-83008125D02*
X65548770Y-84003650D01*
X65548770Y-84003650D02*
X65405346Y-84981427D01*
X65405346Y-84981427D02*
X65280944Y-85940209D01*
X65280944Y-85940209D02*
X65174010Y-86878750D01*
X65174010Y-86878750D02*
X65082988Y-87795801D01*
X65082988Y-87795801D02*
X65006326Y-88690117D01*
X65006326Y-88690117D02*
X64942468Y-89560451D01*
X64942468Y-89560451D02*
X64889861Y-90405555D01*
X64889861Y-90405555D02*
X64846951Y-91224183D01*
M02*
