%TF.GenerationSoftware,KiCad,Pcbnew,5.1.6*%
%TF.CreationDate,2020-08-23T11:13:54-07:00*%
%TF.ProjectId,plant_station_v3,706c616e-745f-4737-9461-74696f6e5f76,rev?*%
%TF.SameCoordinates,Original*%
%TF.FileFunction,Soldermask,Top*%
%TF.FilePolarity,Negative*%
%FSLAX46Y46*%
G04 Gerber Fmt 4.6, Leading zero omitted, Abs format (unit mm)*
G04 Created by KiCad (PCBNEW 5.1.6) date 2020-08-23 11:13:54*
%MOMM*%
%LPD*%
G01*
G04 APERTURE LIST*
%ADD10C,0.600000*%
%ADD11O,1.700000X1.700000*%
%ADD12R,1.700000X1.700000*%
%ADD13C,2.200000*%
%ADD14R,0.600000X1.250000*%
%ADD15C,0.100000*%
%ADD16R,1.525000X0.650000*%
%ADD17R,0.500000X1.250000*%
%ADD18R,0.480000X0.640000*%
%ADD19R,0.640000X0.480000*%
%ADD20R,1.300000X0.700000*%
%ADD21R,1.250000X2.000000*%
%ADD22R,3.350000X3.350000*%
%ADD23C,0.260000*%
%ADD24R,0.700000X1.600000*%
%ADD25R,1.400000X1.200000*%
%ADD26R,1.400000X1.000000*%
%ADD27O,1.400000X0.800000*%
%ADD28R,0.700000X0.300000*%
%ADD29O,0.650000X0.950000*%
%ADD30C,0.650000*%
%ADD31R,2.000000X1.250000*%
G04 APERTURE END LIST*
D10*
%TO.C,REF\u002A\u002A*%
X112400000Y-89000000D03*
%TD*%
%TO.C,REF\u002A\u002A*%
X112500000Y-90000000D03*
%TD*%
%TO.C,REF\u002A\u002A*%
X112600000Y-91000000D03*
%TD*%
%TO.C,REF\u002A\u002A*%
X112600000Y-92000000D03*
%TD*%
%TO.C,REF\u002A\u002A*%
X112500000Y-93000000D03*
%TD*%
%TO.C,REF\u002A\u002A*%
X112400000Y-94000000D03*
%TD*%
%TO.C,REF\u002A\u002A*%
X118700000Y-94000000D03*
%TD*%
%TO.C,REF\u002A\u002A*%
X118700000Y-93000000D03*
%TD*%
%TO.C,REF\u002A\u002A*%
X118700000Y-92000000D03*
%TD*%
%TO.C,REF\u002A\u002A*%
X118700000Y-91000000D03*
%TD*%
%TO.C,REF\u002A\u002A*%
X118700000Y-90000000D03*
%TD*%
%TO.C,REF\u002A\u002A*%
X118700000Y-89000000D03*
%TD*%
%TO.C,REF\u002A\u002A*%
X152000000Y-80300000D03*
%TD*%
%TO.C,REF\u002A\u002A*%
X153000000Y-80300000D03*
%TD*%
%TO.C,REF\u002A\u002A*%
X154000000Y-80300000D03*
%TD*%
%TO.C,REF\u002A\u002A*%
X155000000Y-80300000D03*
%TD*%
%TO.C,REF\u002A\u002A*%
X156000000Y-80300000D03*
%TD*%
%TO.C,REF\u002A\u002A*%
X157000000Y-80300000D03*
%TD*%
%TO.C,REF\u002A\u002A*%
X157000000Y-84700000D03*
%TD*%
%TO.C,REF\u002A\u002A*%
X156000000Y-84700000D03*
%TD*%
%TO.C,REF\u002A\u002A*%
X155000000Y-84700000D03*
%TD*%
%TO.C,REF\u002A\u002A*%
X154000000Y-84700000D03*
%TD*%
%TO.C,REF\u002A\u002A*%
X153000000Y-84700000D03*
%TD*%
%TO.C,REF\u002A\u002A*%
X152000000Y-84700000D03*
%TD*%
%TO.C,REF\u002A\u002A*%
X180200000Y-79900000D03*
%TD*%
%TO.C,REF\u002A\u002A*%
X181100000Y-80200000D03*
%TD*%
%TO.C,REF\u002A\u002A*%
X182100000Y-80300000D03*
%TD*%
%TO.C,REF\u002A\u002A*%
X183100000Y-80300000D03*
%TD*%
%TO.C,REF\u002A\u002A*%
X184100000Y-80200000D03*
%TD*%
%TO.C,REF\u002A\u002A*%
X185000000Y-79900000D03*
%TD*%
%TO.C,REF\u002A\u002A*%
X185000000Y-84700000D03*
%TD*%
%TO.C,REF\u002A\u002A*%
X184000000Y-84700000D03*
%TD*%
%TO.C,REF\u002A\u002A*%
X183000000Y-84700000D03*
%TD*%
%TO.C,REF\u002A\u002A*%
X182000000Y-84700000D03*
%TD*%
%TO.C,REF\u002A\u002A*%
X181000000Y-84700000D03*
%TD*%
%TO.C,REF\u002A\u002A*%
X180000000Y-84700000D03*
%TD*%
%TO.C,REF\u002A\u002A*%
X216000000Y-80300000D03*
%TD*%
%TO.C,REF\u002A\u002A*%
X215000000Y-80300000D03*
%TD*%
%TO.C,REF\u002A\u002A*%
X214000000Y-80300000D03*
%TD*%
%TO.C,REF\u002A\u002A*%
X213000000Y-80300000D03*
%TD*%
%TO.C,REF\u002A\u002A*%
X212000000Y-80300000D03*
%TD*%
%TO.C,REF\u002A\u002A*%
X211000000Y-80300000D03*
%TD*%
%TO.C,REF\u002A\u002A*%
X216000000Y-84700000D03*
%TD*%
%TO.C,REF\u002A\u002A*%
X215000000Y-84700000D03*
%TD*%
%TO.C,REF\u002A\u002A*%
X214000000Y-84700000D03*
%TD*%
%TO.C,REF\u002A\u002A*%
X213000000Y-84700000D03*
%TD*%
%TO.C,REF\u002A\u002A*%
X212000000Y-84700000D03*
%TD*%
%TO.C,REF\u002A\u002A*%
X211000000Y-84700000D03*
%TD*%
D11*
%TO.C,J7*%
X200995000Y-77855000D03*
X203535000Y-77855000D03*
X206075000Y-77855000D03*
X208615000Y-77855000D03*
X211155000Y-77855000D03*
X213695000Y-77855000D03*
X216235000Y-77855000D03*
D12*
X218775000Y-77855000D03*
%TD*%
D13*
%TO.C,REF\u002A\u002A*%
X167005000Y-60990000D03*
%TD*%
D14*
%TO.C,FB1*%
X122500000Y-88474375D03*
X124300000Y-88474375D03*
%TD*%
D13*
%TO.C,REF\u002A\u002A*%
X121475000Y-73200000D03*
%TD*%
%TO.C,REF\u002A\u002A*%
X131195000Y-92000000D03*
%TD*%
%TO.C,REF\u002A\u002A*%
X121475000Y-111000000D03*
%TD*%
%TO.C,R10*%
G36*
G01*
X96840175Y-94836517D02*
X95997135Y-94487318D01*
G75*
G02*
X95865218Y-94168843I93279J225196D01*
G01*
X96051776Y-93718452D01*
G75*
G02*
X96370251Y-93586535I225196J-93279D01*
G01*
X97213291Y-93935734D01*
G75*
G02*
X97345208Y-94254209I-93279J-225196D01*
G01*
X97158650Y-94704600D01*
G75*
G02*
X96840175Y-94836517I-225196J93279D01*
G01*
G37*
G36*
G01*
X97557707Y-93104243D02*
X96714667Y-92755044D01*
G75*
G02*
X96582750Y-92436569I93279J225196D01*
G01*
X96769308Y-91986178D01*
G75*
G02*
X97087783Y-91854261I225196J-93279D01*
G01*
X97930823Y-92203460D01*
G75*
G02*
X98062740Y-92521935I-93279J-225196D01*
G01*
X97876182Y-92972326D01*
G75*
G02*
X97557707Y-93104243I-225196J93279D01*
G01*
G37*
%TD*%
%TO.C,C6*%
G36*
G01*
X100613468Y-92178138D02*
X99458618Y-91699784D01*
G75*
G02*
X99323319Y-91373143I95671J230970D01*
G01*
X99610332Y-90680233D01*
G75*
G02*
X99936973Y-90544934I230970J-95671D01*
G01*
X101091822Y-91023288D01*
G75*
G02*
X101227121Y-91349929I-95671J-230970D01*
G01*
X100940108Y-92042839D01*
G75*
G02*
X100613467Y-92178138I-230970J95671D01*
G01*
G37*
G36*
G01*
X99541954Y-94765000D02*
X98387104Y-94286646D01*
G75*
G02*
X98251805Y-93960005I95671J230970D01*
G01*
X98538818Y-93267095D01*
G75*
G02*
X98865459Y-93131796I230970J-95671D01*
G01*
X100020308Y-93610150D01*
G75*
G02*
X100155607Y-93936791I-95671J-230970D01*
G01*
X99868594Y-94629701D01*
G75*
G02*
X99541953Y-94765000I-230970J95671D01*
G01*
G37*
%TD*%
D15*
%TO.C,J17*%
G36*
X83047877Y-58085963D02*
G01*
X82397315Y-59656559D01*
X80826719Y-59005997D01*
X81477281Y-57435401D01*
X83047877Y-58085963D01*
G37*
G36*
G01*
X81750580Y-61217915D02*
X81750580Y-61217915D01*
G75*
G02*
X80640001Y-61677932I-785298J325281D01*
G01*
X80640001Y-61677932D01*
G75*
G02*
X80179984Y-60567353I325281J785298D01*
G01*
X80179984Y-60567353D01*
G75*
G02*
X81290563Y-60107336I785298J-325281D01*
G01*
X81290563Y-60107336D01*
G75*
G02*
X81750580Y-61217915I-325281J-785298D01*
G01*
G37*
G36*
G01*
X80778564Y-63564569D02*
X80778564Y-63564569D01*
G75*
G02*
X79667985Y-64024586I-785298J325281D01*
G01*
X79667985Y-64024586D01*
G75*
G02*
X79207968Y-62914007I325281J785298D01*
G01*
X79207968Y-62914007D01*
G75*
G02*
X80318547Y-62453990I785298J-325281D01*
G01*
X80318547Y-62453990D01*
G75*
G02*
X80778564Y-63564569I-325281J-785298D01*
G01*
G37*
G36*
G01*
X79806548Y-65911223D02*
X79806548Y-65911223D01*
G75*
G02*
X78695969Y-66371240I-785298J325281D01*
G01*
X78695969Y-66371240D01*
G75*
G02*
X78235952Y-65260661I325281J785298D01*
G01*
X78235952Y-65260661D01*
G75*
G02*
X79346531Y-64800644I785298J-325281D01*
G01*
X79346531Y-64800644D01*
G75*
G02*
X79806548Y-65911223I-325281J-785298D01*
G01*
G37*
G36*
G01*
X78834532Y-68257877D02*
X78834532Y-68257877D01*
G75*
G02*
X77723953Y-68717894I-785298J325281D01*
G01*
X77723953Y-68717894D01*
G75*
G02*
X77263936Y-67607315I325281J785298D01*
G01*
X77263936Y-67607315D01*
G75*
G02*
X78374515Y-67147298I785298J-325281D01*
G01*
X78374515Y-67147298D01*
G75*
G02*
X78834532Y-68257877I-325281J-785298D01*
G01*
G37*
G36*
G01*
X77862516Y-70604531D02*
X77862516Y-70604531D01*
G75*
G02*
X76751937Y-71064548I-785298J325281D01*
G01*
X76751937Y-71064548D01*
G75*
G02*
X76291920Y-69953969I325281J785298D01*
G01*
X76291920Y-69953969D01*
G75*
G02*
X77402499Y-69493952I785298J-325281D01*
G01*
X77402499Y-69493952D01*
G75*
G02*
X77862516Y-70604531I-325281J-785298D01*
G01*
G37*
G36*
G01*
X76890500Y-72951185D02*
X76890500Y-72951185D01*
G75*
G02*
X75779921Y-73411202I-785298J325281D01*
G01*
X75779921Y-73411202D01*
G75*
G02*
X75319904Y-72300623I325281J785298D01*
G01*
X75319904Y-72300623D01*
G75*
G02*
X76430483Y-71840606I785298J-325281D01*
G01*
X76430483Y-71840606D01*
G75*
G02*
X76890500Y-72951185I-325281J-785298D01*
G01*
G37*
G36*
G01*
X75918485Y-75297839D02*
X75918485Y-75297839D01*
G75*
G02*
X74807906Y-75757856I-785298J325281D01*
G01*
X74807906Y-75757856D01*
G75*
G02*
X74347889Y-74647277I325281J785298D01*
G01*
X74347889Y-74647277D01*
G75*
G02*
X75458468Y-74187260I785298J-325281D01*
G01*
X75458468Y-74187260D01*
G75*
G02*
X75918485Y-75297839I-325281J-785298D01*
G01*
G37*
G36*
G01*
X74946469Y-77644493D02*
X74946469Y-77644493D01*
G75*
G02*
X73835890Y-78104510I-785298J325281D01*
G01*
X73835890Y-78104510D01*
G75*
G02*
X73375873Y-76993931I325281J785298D01*
G01*
X73375873Y-76993931D01*
G75*
G02*
X74486452Y-76533914I785298J-325281D01*
G01*
X74486452Y-76533914D01*
G75*
G02*
X74946469Y-77644493I-325281J-785298D01*
G01*
G37*
G36*
G01*
X73974453Y-79991147D02*
X73974453Y-79991147D01*
G75*
G02*
X72863874Y-80451164I-785298J325281D01*
G01*
X72863874Y-80451164D01*
G75*
G02*
X72403857Y-79340585I325281J785298D01*
G01*
X72403857Y-79340585D01*
G75*
G02*
X73514436Y-78880568I785298J-325281D01*
G01*
X73514436Y-78880568D01*
G75*
G02*
X73974453Y-79991147I-325281J-785298D01*
G01*
G37*
G36*
G01*
X73002437Y-82337801D02*
X73002437Y-82337801D01*
G75*
G02*
X71891858Y-82797818I-785298J325281D01*
G01*
X71891858Y-82797818D01*
G75*
G02*
X71431841Y-81687239I325281J785298D01*
G01*
X71431841Y-81687239D01*
G75*
G02*
X72542420Y-81227222I785298J-325281D01*
G01*
X72542420Y-81227222D01*
G75*
G02*
X73002437Y-82337801I-325281J-785298D01*
G01*
G37*
G36*
G01*
X72030421Y-84684455D02*
X72030421Y-84684455D01*
G75*
G02*
X70919842Y-85144472I-785298J325281D01*
G01*
X70919842Y-85144472D01*
G75*
G02*
X70459825Y-84033893I325281J785298D01*
G01*
X70459825Y-84033893D01*
G75*
G02*
X71570404Y-83573876I785298J-325281D01*
G01*
X71570404Y-83573876D01*
G75*
G02*
X72030421Y-84684455I-325281J-785298D01*
G01*
G37*
G36*
G01*
X71058405Y-87031109D02*
X71058405Y-87031109D01*
G75*
G02*
X69947826Y-87491126I-785298J325281D01*
G01*
X69947826Y-87491126D01*
G75*
G02*
X69487809Y-86380547I325281J785298D01*
G01*
X69487809Y-86380547D01*
G75*
G02*
X70598388Y-85920530I785298J-325281D01*
G01*
X70598388Y-85920530D01*
G75*
G02*
X71058405Y-87031109I-325281J-785298D01*
G01*
G37*
G36*
G01*
X70086389Y-89377763D02*
X70086389Y-89377763D01*
G75*
G02*
X68975810Y-89837780I-785298J325281D01*
G01*
X68975810Y-89837780D01*
G75*
G02*
X68515793Y-88727201I325281J785298D01*
G01*
X68515793Y-88727201D01*
G75*
G02*
X69626372Y-88267184I785298J-325281D01*
G01*
X69626372Y-88267184D01*
G75*
G02*
X70086389Y-89377763I-325281J-785298D01*
G01*
G37*
G36*
G01*
X69114373Y-91724417D02*
X69114373Y-91724417D01*
G75*
G02*
X68003794Y-92184434I-785298J325281D01*
G01*
X68003794Y-92184434D01*
G75*
G02*
X67543777Y-91073855I325281J785298D01*
G01*
X67543777Y-91073855D01*
G75*
G02*
X68654356Y-90613838I785298J-325281D01*
G01*
X68654356Y-90613838D01*
G75*
G02*
X69114373Y-91724417I-325281J-785298D01*
G01*
G37*
G36*
G01*
X68142357Y-94071071D02*
X68142357Y-94071071D01*
G75*
G02*
X67031778Y-94531088I-785298J325281D01*
G01*
X67031778Y-94531088D01*
G75*
G02*
X66571761Y-93420509I325281J785298D01*
G01*
X66571761Y-93420509D01*
G75*
G02*
X67682340Y-92960492I785298J-325281D01*
G01*
X67682340Y-92960492D01*
G75*
G02*
X68142357Y-94071071I-325281J-785298D01*
G01*
G37*
%TD*%
D16*
%TO.C,IC3*%
X127763000Y-86905000D03*
X127763000Y-85635000D03*
X127763000Y-84365000D03*
X127763000Y-83095000D03*
X133187000Y-83095000D03*
X133187000Y-84365000D03*
X133187000Y-85635000D03*
X133187000Y-86905000D03*
%TD*%
%TO.C,R5*%
G36*
G01*
X124675000Y-104856250D02*
X124675000Y-103943750D01*
G75*
G02*
X124918750Y-103700000I243750J0D01*
G01*
X125406250Y-103700000D01*
G75*
G02*
X125650000Y-103943750I0J-243750D01*
G01*
X125650000Y-104856250D01*
G75*
G02*
X125406250Y-105100000I-243750J0D01*
G01*
X124918750Y-105100000D01*
G75*
G02*
X124675000Y-104856250I0J243750D01*
G01*
G37*
G36*
G01*
X122800000Y-104856250D02*
X122800000Y-103943750D01*
G75*
G02*
X123043750Y-103700000I243750J0D01*
G01*
X123531250Y-103700000D01*
G75*
G02*
X123775000Y-103943750I0J-243750D01*
G01*
X123775000Y-104856250D01*
G75*
G02*
X123531250Y-105100000I-243750J0D01*
G01*
X123043750Y-105100000D01*
G75*
G02*
X122800000Y-104856250I0J243750D01*
G01*
G37*
%TD*%
%TO.C,R4*%
G36*
G01*
X129750000Y-104025000D02*
X129750000Y-102775000D01*
G75*
G02*
X130000000Y-102525000I250000J0D01*
G01*
X130750000Y-102525000D01*
G75*
G02*
X131000000Y-102775000I0J-250000D01*
G01*
X131000000Y-104025000D01*
G75*
G02*
X130750000Y-104275000I-250000J0D01*
G01*
X130000000Y-104275000D01*
G75*
G02*
X129750000Y-104025000I0J250000D01*
G01*
G37*
G36*
G01*
X126950000Y-104025000D02*
X126950000Y-102775000D01*
G75*
G02*
X127200000Y-102525000I250000J0D01*
G01*
X127950000Y-102525000D01*
G75*
G02*
X128200000Y-102775000I0J-250000D01*
G01*
X128200000Y-104025000D01*
G75*
G02*
X127950000Y-104275000I-250000J0D01*
G01*
X127200000Y-104275000D01*
G75*
G02*
X126950000Y-104025000I0J250000D01*
G01*
G37*
%TD*%
D17*
%TO.C,Q5*%
X204725000Y-74400000D03*
X203775000Y-74400000D03*
X202825000Y-74400000D03*
X202825000Y-71900000D03*
X203775000Y-71900000D03*
X204725000Y-71900000D03*
%TD*%
D18*
%TO.C,Q3*%
X182500000Y-69350000D03*
X182000000Y-67850000D03*
X183000000Y-67850000D03*
%TD*%
D19*
%TO.C,Q1*%
X122650000Y-93995625D03*
X122650000Y-94995625D03*
X124150000Y-94495625D03*
%TD*%
D12*
%TO.C,J19*%
X203725000Y-61755000D03*
D11*
X201185000Y-61755000D03*
%TD*%
D12*
%TO.C,J16*%
X196725000Y-62467500D03*
D11*
X196725000Y-65007500D03*
X196725000Y-67547500D03*
X196725000Y-70087500D03*
X196725000Y-72627500D03*
X196725000Y-75167500D03*
%TD*%
D15*
%TO.C,J10*%
G36*
X83116801Y-105739769D02*
G01*
X84687397Y-106390331D01*
X84036835Y-107960927D01*
X82466239Y-107310365D01*
X83116801Y-105739769D01*
G37*
G36*
G01*
X81555445Y-105093034D02*
X81555445Y-105093034D01*
G75*
G02*
X82015462Y-106203613I-325281J-785298D01*
G01*
X82015462Y-106203613D01*
G75*
G02*
X80904883Y-106663630I-785298J325281D01*
G01*
X80904883Y-106663630D01*
G75*
G02*
X80444866Y-105553051I325281J785298D01*
G01*
X80444866Y-105553051D01*
G75*
G02*
X81555445Y-105093034I785298J-325281D01*
G01*
G37*
G36*
G01*
X79208791Y-104121018D02*
X79208791Y-104121018D01*
G75*
G02*
X79668808Y-105231597I-325281J-785298D01*
G01*
X79668808Y-105231597D01*
G75*
G02*
X78558229Y-105691614I-785298J325281D01*
G01*
X78558229Y-105691614D01*
G75*
G02*
X78098212Y-104581035I325281J785298D01*
G01*
X78098212Y-104581035D01*
G75*
G02*
X79208791Y-104121018I785298J-325281D01*
G01*
G37*
G36*
G01*
X76862137Y-103149002D02*
X76862137Y-103149002D01*
G75*
G02*
X77322154Y-104259581I-325281J-785298D01*
G01*
X77322154Y-104259581D01*
G75*
G02*
X76211575Y-104719598I-785298J325281D01*
G01*
X76211575Y-104719598D01*
G75*
G02*
X75751558Y-103609019I325281J785298D01*
G01*
X75751558Y-103609019D01*
G75*
G02*
X76862137Y-103149002I785298J-325281D01*
G01*
G37*
%TD*%
%TO.C,J9*%
G36*
G01*
X75427074Y-106613550D02*
X75427074Y-106613550D01*
G75*
G02*
X75887091Y-107724129I-325281J-785298D01*
G01*
X75887091Y-107724129D01*
G75*
G02*
X74776512Y-108184146I-785298J325281D01*
G01*
X74776512Y-108184146D01*
G75*
G02*
X74316495Y-107073567I325281J785298D01*
G01*
X74316495Y-107073567D01*
G75*
G02*
X75427074Y-106613550I785298J-325281D01*
G01*
G37*
G36*
G01*
X77773728Y-107585566D02*
X77773728Y-107585566D01*
G75*
G02*
X78233745Y-108696145I-325281J-785298D01*
G01*
X78233745Y-108696145D01*
G75*
G02*
X77123166Y-109156162I-785298J325281D01*
G01*
X77123166Y-109156162D01*
G75*
G02*
X76663149Y-108045583I325281J785298D01*
G01*
X76663149Y-108045583D01*
G75*
G02*
X77773728Y-107585566I785298J-325281D01*
G01*
G37*
G36*
G01*
X80120382Y-108557582D02*
X80120382Y-108557582D01*
G75*
G02*
X80580399Y-109668161I-325281J-785298D01*
G01*
X80580399Y-109668161D01*
G75*
G02*
X79469820Y-110128178I-785298J325281D01*
G01*
X79469820Y-110128178D01*
G75*
G02*
X79009803Y-109017599I325281J785298D01*
G01*
X79009803Y-109017599D01*
G75*
G02*
X80120382Y-108557582I785298J-325281D01*
G01*
G37*
G36*
X81681738Y-109204317D02*
G01*
X83252334Y-109854879D01*
X82601772Y-111425475D01*
X81031176Y-110774913D01*
X81681738Y-109204317D01*
G37*
%TD*%
D20*
%TO.C,LED1*%
X149250000Y-67520000D03*
X149250000Y-66420000D03*
X149250000Y-65320000D03*
X152200000Y-67520000D03*
X152200000Y-66420000D03*
X152200000Y-65320000D03*
%TD*%
%TO.C,LED2*%
X152200000Y-71570000D03*
X152200000Y-72670000D03*
X152200000Y-73770000D03*
X149250000Y-71570000D03*
X149250000Y-72670000D03*
X149250000Y-73770000D03*
%TD*%
D21*
%TO.C,D10*%
X125403000Y-91777500D03*
X121653000Y-91777500D03*
%TD*%
%TO.C,C13*%
G36*
G01*
X183975000Y-75975000D02*
X183975000Y-77225000D01*
G75*
G02*
X183725000Y-77475000I-250000J0D01*
G01*
X182975000Y-77475000D01*
G75*
G02*
X182725000Y-77225000I0J250000D01*
G01*
X182725000Y-75975000D01*
G75*
G02*
X182975000Y-75725000I250000J0D01*
G01*
X183725000Y-75725000D01*
G75*
G02*
X183975000Y-75975000I0J-250000D01*
G01*
G37*
G36*
G01*
X186775000Y-75975000D02*
X186775000Y-77225000D01*
G75*
G02*
X186525000Y-77475000I-250000J0D01*
G01*
X185775000Y-77475000D01*
G75*
G02*
X185525000Y-77225000I0J250000D01*
G01*
X185525000Y-75975000D01*
G75*
G02*
X185775000Y-75725000I250000J0D01*
G01*
X186525000Y-75725000D01*
G75*
G02*
X186775000Y-75975000I0J-250000D01*
G01*
G37*
%TD*%
%TO.C,C16*%
G36*
G01*
X217600000Y-66475001D02*
X216350000Y-66475001D01*
G75*
G02*
X216100000Y-66225001I0J250000D01*
G01*
X216100000Y-65475001D01*
G75*
G02*
X216350000Y-65225001I250000J0D01*
G01*
X217600000Y-65225001D01*
G75*
G02*
X217850000Y-65475001I0J-250000D01*
G01*
X217850000Y-66225001D01*
G75*
G02*
X217600000Y-66475001I-250000J0D01*
G01*
G37*
G36*
G01*
X217600000Y-69275001D02*
X216350000Y-69275001D01*
G75*
G02*
X216100000Y-69025001I0J250000D01*
G01*
X216100000Y-68275001D01*
G75*
G02*
X216350000Y-68025001I250000J0D01*
G01*
X217600000Y-68025001D01*
G75*
G02*
X217850000Y-68275001I0J-250000D01*
G01*
X217850000Y-69025001D01*
G75*
G02*
X217600000Y-69275001I-250000J0D01*
G01*
G37*
%TD*%
D12*
%TO.C,J18*%
X122125000Y-101311875D03*
D11*
X124665000Y-101311875D03*
%TD*%
%TO.C,C15*%
G36*
G01*
X218850000Y-68030000D02*
X220100000Y-68030000D01*
G75*
G02*
X220350000Y-68280000I0J-250000D01*
G01*
X220350000Y-69030000D01*
G75*
G02*
X220100000Y-69280000I-250000J0D01*
G01*
X218850000Y-69280000D01*
G75*
G02*
X218600000Y-69030000I0J250000D01*
G01*
X218600000Y-68280000D01*
G75*
G02*
X218850000Y-68030000I250000J0D01*
G01*
G37*
G36*
G01*
X218850000Y-65230000D02*
X220100000Y-65230000D01*
G75*
G02*
X220350000Y-65480000I0J-250000D01*
G01*
X220350000Y-66230000D01*
G75*
G02*
X220100000Y-66480000I-250000J0D01*
G01*
X218850000Y-66480000D01*
G75*
G02*
X218600000Y-66230000I0J250000D01*
G01*
X218600000Y-65480000D01*
G75*
G02*
X218850000Y-65230000I250000J0D01*
G01*
G37*
%TD*%
%TO.C,C7*%
G36*
G01*
X125425000Y-84721250D02*
X125425000Y-85971250D01*
G75*
G02*
X125175000Y-86221250I-250000J0D01*
G01*
X124425000Y-86221250D01*
G75*
G02*
X124175000Y-85971250I0J250000D01*
G01*
X124175000Y-84721250D01*
G75*
G02*
X124425000Y-84471250I250000J0D01*
G01*
X125175000Y-84471250D01*
G75*
G02*
X125425000Y-84721250I0J-250000D01*
G01*
G37*
G36*
G01*
X122625000Y-84721250D02*
X122625000Y-85971250D01*
G75*
G02*
X122375000Y-86221250I-250000J0D01*
G01*
X121625000Y-86221250D01*
G75*
G02*
X121375000Y-85971250I0J250000D01*
G01*
X121375000Y-84721250D01*
G75*
G02*
X121625000Y-84471250I250000J0D01*
G01*
X122375000Y-84471250D01*
G75*
G02*
X122625000Y-84721250I0J-250000D01*
G01*
G37*
%TD*%
%TO.C,C11*%
G36*
G01*
X217600000Y-61480000D02*
X216350000Y-61480000D01*
G75*
G02*
X216100000Y-61230000I0J250000D01*
G01*
X216100000Y-60480000D01*
G75*
G02*
X216350000Y-60230000I250000J0D01*
G01*
X217600000Y-60230000D01*
G75*
G02*
X217850000Y-60480000I0J-250000D01*
G01*
X217850000Y-61230000D01*
G75*
G02*
X217600000Y-61480000I-250000J0D01*
G01*
G37*
G36*
G01*
X217600000Y-64280000D02*
X216350000Y-64280000D01*
G75*
G02*
X216100000Y-64030000I0J250000D01*
G01*
X216100000Y-63280000D01*
G75*
G02*
X216350000Y-63030000I250000J0D01*
G01*
X217600000Y-63030000D01*
G75*
G02*
X217850000Y-63280000I0J-250000D01*
G01*
X217850000Y-64030000D01*
G75*
G02*
X217600000Y-64280000I-250000J0D01*
G01*
G37*
%TD*%
%TO.C,C4*%
G36*
G01*
X129750000Y-106525000D02*
X129750000Y-105275000D01*
G75*
G02*
X130000000Y-105025000I250000J0D01*
G01*
X130750000Y-105025000D01*
G75*
G02*
X131000000Y-105275000I0J-250000D01*
G01*
X131000000Y-106525000D01*
G75*
G02*
X130750000Y-106775000I-250000J0D01*
G01*
X130000000Y-106775000D01*
G75*
G02*
X129750000Y-106525000I0J250000D01*
G01*
G37*
G36*
G01*
X126950000Y-106525000D02*
X126950000Y-105275000D01*
G75*
G02*
X127200000Y-105025000I250000J0D01*
G01*
X127950000Y-105025000D01*
G75*
G02*
X128200000Y-105275000I0J-250000D01*
G01*
X128200000Y-106525000D01*
G75*
G02*
X127950000Y-106775000I-250000J0D01*
G01*
X127200000Y-106775000D01*
G75*
G02*
X126950000Y-106525000I0J250000D01*
G01*
G37*
%TD*%
D20*
%TO.C,LED3*%
X160450000Y-65320000D03*
X160450000Y-66420000D03*
X160450000Y-67520000D03*
X157500000Y-65320000D03*
X157500000Y-66420000D03*
X157500000Y-67520000D03*
%TD*%
%TO.C,D4*%
G36*
G01*
X207200000Y-68998750D02*
X207200000Y-69511250D01*
G75*
G02*
X206981250Y-69730000I-218750J0D01*
G01*
X206543750Y-69730000D01*
G75*
G02*
X206325000Y-69511250I0J218750D01*
G01*
X206325000Y-68998750D01*
G75*
G02*
X206543750Y-68780000I218750J0D01*
G01*
X206981250Y-68780000D01*
G75*
G02*
X207200000Y-68998750I0J-218750D01*
G01*
G37*
G36*
G01*
X205625000Y-68998750D02*
X205625000Y-69511250D01*
G75*
G02*
X205406250Y-69730000I-218750J0D01*
G01*
X204968750Y-69730000D01*
G75*
G02*
X204750000Y-69511250I0J218750D01*
G01*
X204750000Y-68998750D01*
G75*
G02*
X204968750Y-68780000I218750J0D01*
G01*
X205406250Y-68780000D01*
G75*
G02*
X205625000Y-68998750I0J-218750D01*
G01*
G37*
%TD*%
%TO.C,D3*%
G36*
G01*
X205625000Y-64998750D02*
X205625000Y-65511250D01*
G75*
G02*
X205406250Y-65730000I-218750J0D01*
G01*
X204968750Y-65730000D01*
G75*
G02*
X204750000Y-65511250I0J218750D01*
G01*
X204750000Y-64998750D01*
G75*
G02*
X204968750Y-64780000I218750J0D01*
G01*
X205406250Y-64780000D01*
G75*
G02*
X205625000Y-64998750I0J-218750D01*
G01*
G37*
G36*
G01*
X207200000Y-64998750D02*
X207200000Y-65511250D01*
G75*
G02*
X206981250Y-65730000I-218750J0D01*
G01*
X206543750Y-65730000D01*
G75*
G02*
X206325000Y-65511250I0J218750D01*
G01*
X206325000Y-64998750D01*
G75*
G02*
X206543750Y-64780000I218750J0D01*
G01*
X206981250Y-64780000D01*
G75*
G02*
X207200000Y-64998750I0J-218750D01*
G01*
G37*
%TD*%
%TO.C,C5*%
G36*
G01*
X129750000Y-80775000D02*
X129750000Y-79525000D01*
G75*
G02*
X130000000Y-79275000I250000J0D01*
G01*
X130750000Y-79275000D01*
G75*
G02*
X131000000Y-79525000I0J-250000D01*
G01*
X131000000Y-80775000D01*
G75*
G02*
X130750000Y-81025000I-250000J0D01*
G01*
X130000000Y-81025000D01*
G75*
G02*
X129750000Y-80775000I0J250000D01*
G01*
G37*
G36*
G01*
X126950000Y-80775000D02*
X126950000Y-79525000D01*
G75*
G02*
X127200000Y-79275000I250000J0D01*
G01*
X127950000Y-79275000D01*
G75*
G02*
X128200000Y-79525000I0J-250000D01*
G01*
X128200000Y-80775000D01*
G75*
G02*
X127950000Y-81025000I-250000J0D01*
G01*
X127200000Y-81025000D01*
G75*
G02*
X126950000Y-80775000I0J250000D01*
G01*
G37*
%TD*%
%TO.C,D11*%
G36*
G01*
X207200000Y-66998750D02*
X207200000Y-67511250D01*
G75*
G02*
X206981250Y-67730000I-218750J0D01*
G01*
X206543750Y-67730000D01*
G75*
G02*
X206325000Y-67511250I0J218750D01*
G01*
X206325000Y-66998750D01*
G75*
G02*
X206543750Y-66780000I218750J0D01*
G01*
X206981250Y-66780000D01*
G75*
G02*
X207200000Y-66998750I0J-218750D01*
G01*
G37*
G36*
G01*
X205625000Y-66998750D02*
X205625000Y-67511250D01*
G75*
G02*
X205406250Y-67730000I-218750J0D01*
G01*
X204968750Y-67730000D01*
G75*
G02*
X204750000Y-67511250I0J218750D01*
G01*
X204750000Y-66998750D01*
G75*
G02*
X204968750Y-66780000I218750J0D01*
G01*
X205406250Y-66780000D01*
G75*
G02*
X205625000Y-66998750I0J-218750D01*
G01*
G37*
%TD*%
%TO.C,C12*%
G36*
G01*
X218850000Y-63030000D02*
X220100000Y-63030000D01*
G75*
G02*
X220350000Y-63280000I0J-250000D01*
G01*
X220350000Y-64030000D01*
G75*
G02*
X220100000Y-64280000I-250000J0D01*
G01*
X218850000Y-64280000D01*
G75*
G02*
X218600000Y-64030000I0J250000D01*
G01*
X218600000Y-63280000D01*
G75*
G02*
X218850000Y-63030000I250000J0D01*
G01*
G37*
G36*
G01*
X218850000Y-60230000D02*
X220100000Y-60230000D01*
G75*
G02*
X220350000Y-60480000I0J-250000D01*
G01*
X220350000Y-61230000D01*
G75*
G02*
X220100000Y-61480000I-250000J0D01*
G01*
X218850000Y-61480000D01*
G75*
G02*
X218600000Y-61230000I0J250000D01*
G01*
X218600000Y-60480000D01*
G75*
G02*
X218850000Y-60230000I250000J0D01*
G01*
G37*
%TD*%
D22*
%TO.C,U6*%
X211675000Y-67255000D03*
G36*
G01*
X213300000Y-69367500D02*
X213300000Y-70042500D01*
G75*
G02*
X213237500Y-70105000I-62500J0D01*
G01*
X213112500Y-70105000D01*
G75*
G02*
X213050000Y-70042500I0J62500D01*
G01*
X213050000Y-69367500D01*
G75*
G02*
X213112500Y-69305000I62500J0D01*
G01*
X213237500Y-69305000D01*
G75*
G02*
X213300000Y-69367500I0J-62500D01*
G01*
G37*
G36*
G01*
X212800000Y-69367500D02*
X212800000Y-70042500D01*
G75*
G02*
X212737500Y-70105000I-62500J0D01*
G01*
X212612500Y-70105000D01*
G75*
G02*
X212550000Y-70042500I0J62500D01*
G01*
X212550000Y-69367500D01*
G75*
G02*
X212612500Y-69305000I62500J0D01*
G01*
X212737500Y-69305000D01*
G75*
G02*
X212800000Y-69367500I0J-62500D01*
G01*
G37*
G36*
G01*
X212300000Y-69367500D02*
X212300000Y-70042500D01*
G75*
G02*
X212237500Y-70105000I-62500J0D01*
G01*
X212112500Y-70105000D01*
G75*
G02*
X212050000Y-70042500I0J62500D01*
G01*
X212050000Y-69367500D01*
G75*
G02*
X212112500Y-69305000I62500J0D01*
G01*
X212237500Y-69305000D01*
G75*
G02*
X212300000Y-69367500I0J-62500D01*
G01*
G37*
G36*
G01*
X211800000Y-69367500D02*
X211800000Y-70042500D01*
G75*
G02*
X211737500Y-70105000I-62500J0D01*
G01*
X211612500Y-70105000D01*
G75*
G02*
X211550000Y-70042500I0J62500D01*
G01*
X211550000Y-69367500D01*
G75*
G02*
X211612500Y-69305000I62500J0D01*
G01*
X211737500Y-69305000D01*
G75*
G02*
X211800000Y-69367500I0J-62500D01*
G01*
G37*
G36*
G01*
X211300000Y-69367500D02*
X211300000Y-70042500D01*
G75*
G02*
X211237500Y-70105000I-62500J0D01*
G01*
X211112500Y-70105000D01*
G75*
G02*
X211050000Y-70042500I0J62500D01*
G01*
X211050000Y-69367500D01*
G75*
G02*
X211112500Y-69305000I62500J0D01*
G01*
X211237500Y-69305000D01*
G75*
G02*
X211300000Y-69367500I0J-62500D01*
G01*
G37*
G36*
G01*
X210800000Y-69367500D02*
X210800000Y-70042500D01*
G75*
G02*
X210737500Y-70105000I-62500J0D01*
G01*
X210612500Y-70105000D01*
G75*
G02*
X210550000Y-70042500I0J62500D01*
G01*
X210550000Y-69367500D01*
G75*
G02*
X210612500Y-69305000I62500J0D01*
G01*
X210737500Y-69305000D01*
G75*
G02*
X210800000Y-69367500I0J-62500D01*
G01*
G37*
G36*
G01*
X210300000Y-69367500D02*
X210300000Y-70042500D01*
G75*
G02*
X210237500Y-70105000I-62500J0D01*
G01*
X210112500Y-70105000D01*
G75*
G02*
X210050000Y-70042500I0J62500D01*
G01*
X210050000Y-69367500D01*
G75*
G02*
X210112500Y-69305000I62500J0D01*
G01*
X210237500Y-69305000D01*
G75*
G02*
X210300000Y-69367500I0J-62500D01*
G01*
G37*
G36*
G01*
X209625000Y-68692500D02*
X209625000Y-68817500D01*
G75*
G02*
X209562500Y-68880000I-62500J0D01*
G01*
X208887500Y-68880000D01*
G75*
G02*
X208825000Y-68817500I0J62500D01*
G01*
X208825000Y-68692500D01*
G75*
G02*
X208887500Y-68630000I62500J0D01*
G01*
X209562500Y-68630000D01*
G75*
G02*
X209625000Y-68692500I0J-62500D01*
G01*
G37*
G36*
G01*
X209625000Y-68192500D02*
X209625000Y-68317500D01*
G75*
G02*
X209562500Y-68380000I-62500J0D01*
G01*
X208887500Y-68380000D01*
G75*
G02*
X208825000Y-68317500I0J62500D01*
G01*
X208825000Y-68192500D01*
G75*
G02*
X208887500Y-68130000I62500J0D01*
G01*
X209562500Y-68130000D01*
G75*
G02*
X209625000Y-68192500I0J-62500D01*
G01*
G37*
G36*
G01*
X209625000Y-67692500D02*
X209625000Y-67817500D01*
G75*
G02*
X209562500Y-67880000I-62500J0D01*
G01*
X208887500Y-67880000D01*
G75*
G02*
X208825000Y-67817500I0J62500D01*
G01*
X208825000Y-67692500D01*
G75*
G02*
X208887500Y-67630000I62500J0D01*
G01*
X209562500Y-67630000D01*
G75*
G02*
X209625000Y-67692500I0J-62500D01*
G01*
G37*
G36*
G01*
X209625000Y-67192500D02*
X209625000Y-67317500D01*
G75*
G02*
X209562500Y-67380000I-62500J0D01*
G01*
X208887500Y-67380000D01*
G75*
G02*
X208825000Y-67317500I0J62500D01*
G01*
X208825000Y-67192500D01*
G75*
G02*
X208887500Y-67130000I62500J0D01*
G01*
X209562500Y-67130000D01*
G75*
G02*
X209625000Y-67192500I0J-62500D01*
G01*
G37*
G36*
G01*
X209625000Y-66692500D02*
X209625000Y-66817500D01*
G75*
G02*
X209562500Y-66880000I-62500J0D01*
G01*
X208887500Y-66880000D01*
G75*
G02*
X208825000Y-66817500I0J62500D01*
G01*
X208825000Y-66692500D01*
G75*
G02*
X208887500Y-66630000I62500J0D01*
G01*
X209562500Y-66630000D01*
G75*
G02*
X209625000Y-66692500I0J-62500D01*
G01*
G37*
G36*
G01*
X209625000Y-66192500D02*
X209625000Y-66317500D01*
G75*
G02*
X209562500Y-66380000I-62500J0D01*
G01*
X208887500Y-66380000D01*
G75*
G02*
X208825000Y-66317500I0J62500D01*
G01*
X208825000Y-66192500D01*
G75*
G02*
X208887500Y-66130000I62500J0D01*
G01*
X209562500Y-66130000D01*
G75*
G02*
X209625000Y-66192500I0J-62500D01*
G01*
G37*
G36*
G01*
X209625000Y-65692500D02*
X209625000Y-65817500D01*
G75*
G02*
X209562500Y-65880000I-62500J0D01*
G01*
X208887500Y-65880000D01*
G75*
G02*
X208825000Y-65817500I0J62500D01*
G01*
X208825000Y-65692500D01*
G75*
G02*
X208887500Y-65630000I62500J0D01*
G01*
X209562500Y-65630000D01*
G75*
G02*
X209625000Y-65692500I0J-62500D01*
G01*
G37*
G36*
G01*
X210300000Y-64467500D02*
X210300000Y-65142500D01*
G75*
G02*
X210237500Y-65205000I-62500J0D01*
G01*
X210112500Y-65205000D01*
G75*
G02*
X210050000Y-65142500I0J62500D01*
G01*
X210050000Y-64467500D01*
G75*
G02*
X210112500Y-64405000I62500J0D01*
G01*
X210237500Y-64405000D01*
G75*
G02*
X210300000Y-64467500I0J-62500D01*
G01*
G37*
G36*
G01*
X210800000Y-64467500D02*
X210800000Y-65142500D01*
G75*
G02*
X210737500Y-65205000I-62500J0D01*
G01*
X210612500Y-65205000D01*
G75*
G02*
X210550000Y-65142500I0J62500D01*
G01*
X210550000Y-64467500D01*
G75*
G02*
X210612500Y-64405000I62500J0D01*
G01*
X210737500Y-64405000D01*
G75*
G02*
X210800000Y-64467500I0J-62500D01*
G01*
G37*
G36*
G01*
X211300000Y-64467500D02*
X211300000Y-65142500D01*
G75*
G02*
X211237500Y-65205000I-62500J0D01*
G01*
X211112500Y-65205000D01*
G75*
G02*
X211050000Y-65142500I0J62500D01*
G01*
X211050000Y-64467500D01*
G75*
G02*
X211112500Y-64405000I62500J0D01*
G01*
X211237500Y-64405000D01*
G75*
G02*
X211300000Y-64467500I0J-62500D01*
G01*
G37*
G36*
G01*
X211800000Y-64467500D02*
X211800000Y-65142500D01*
G75*
G02*
X211737500Y-65205000I-62500J0D01*
G01*
X211612500Y-65205000D01*
G75*
G02*
X211550000Y-65142500I0J62500D01*
G01*
X211550000Y-64467500D01*
G75*
G02*
X211612500Y-64405000I62500J0D01*
G01*
X211737500Y-64405000D01*
G75*
G02*
X211800000Y-64467500I0J-62500D01*
G01*
G37*
G36*
G01*
X212300000Y-64467500D02*
X212300000Y-65142500D01*
G75*
G02*
X212237500Y-65205000I-62500J0D01*
G01*
X212112500Y-65205000D01*
G75*
G02*
X212050000Y-65142500I0J62500D01*
G01*
X212050000Y-64467500D01*
G75*
G02*
X212112500Y-64405000I62500J0D01*
G01*
X212237500Y-64405000D01*
G75*
G02*
X212300000Y-64467500I0J-62500D01*
G01*
G37*
G36*
G01*
X212800000Y-64467500D02*
X212800000Y-65142500D01*
G75*
G02*
X212737500Y-65205000I-62500J0D01*
G01*
X212612500Y-65205000D01*
G75*
G02*
X212550000Y-65142500I0J62500D01*
G01*
X212550000Y-64467500D01*
G75*
G02*
X212612500Y-64405000I62500J0D01*
G01*
X212737500Y-64405000D01*
G75*
G02*
X212800000Y-64467500I0J-62500D01*
G01*
G37*
G36*
G01*
X213300000Y-64467500D02*
X213300000Y-65142500D01*
G75*
G02*
X213237500Y-65205000I-62500J0D01*
G01*
X213112500Y-65205000D01*
G75*
G02*
X213050000Y-65142500I0J62500D01*
G01*
X213050000Y-64467500D01*
G75*
G02*
X213112500Y-64405000I62500J0D01*
G01*
X213237500Y-64405000D01*
G75*
G02*
X213300000Y-64467500I0J-62500D01*
G01*
G37*
G36*
G01*
X214525000Y-65692500D02*
X214525000Y-65817500D01*
G75*
G02*
X214462500Y-65880000I-62500J0D01*
G01*
X213787500Y-65880000D01*
G75*
G02*
X213725000Y-65817500I0J62500D01*
G01*
X213725000Y-65692500D01*
G75*
G02*
X213787500Y-65630000I62500J0D01*
G01*
X214462500Y-65630000D01*
G75*
G02*
X214525000Y-65692500I0J-62500D01*
G01*
G37*
G36*
G01*
X214525000Y-66192500D02*
X214525000Y-66317500D01*
G75*
G02*
X214462500Y-66380000I-62500J0D01*
G01*
X213787500Y-66380000D01*
G75*
G02*
X213725000Y-66317500I0J62500D01*
G01*
X213725000Y-66192500D01*
G75*
G02*
X213787500Y-66130000I62500J0D01*
G01*
X214462500Y-66130000D01*
G75*
G02*
X214525000Y-66192500I0J-62500D01*
G01*
G37*
G36*
G01*
X214525000Y-66692500D02*
X214525000Y-66817500D01*
G75*
G02*
X214462500Y-66880000I-62500J0D01*
G01*
X213787500Y-66880000D01*
G75*
G02*
X213725000Y-66817500I0J62500D01*
G01*
X213725000Y-66692500D01*
G75*
G02*
X213787500Y-66630000I62500J0D01*
G01*
X214462500Y-66630000D01*
G75*
G02*
X214525000Y-66692500I0J-62500D01*
G01*
G37*
G36*
G01*
X214525000Y-67192500D02*
X214525000Y-67317500D01*
G75*
G02*
X214462500Y-67380000I-62500J0D01*
G01*
X213787500Y-67380000D01*
G75*
G02*
X213725000Y-67317500I0J62500D01*
G01*
X213725000Y-67192500D01*
G75*
G02*
X213787500Y-67130000I62500J0D01*
G01*
X214462500Y-67130000D01*
G75*
G02*
X214525000Y-67192500I0J-62500D01*
G01*
G37*
G36*
G01*
X214525000Y-67692500D02*
X214525000Y-67817500D01*
G75*
G02*
X214462500Y-67880000I-62500J0D01*
G01*
X213787500Y-67880000D01*
G75*
G02*
X213725000Y-67817500I0J62500D01*
G01*
X213725000Y-67692500D01*
G75*
G02*
X213787500Y-67630000I62500J0D01*
G01*
X214462500Y-67630000D01*
G75*
G02*
X214525000Y-67692500I0J-62500D01*
G01*
G37*
G36*
G01*
X214525000Y-68192500D02*
X214525000Y-68317500D01*
G75*
G02*
X214462500Y-68380000I-62500J0D01*
G01*
X213787500Y-68380000D01*
G75*
G02*
X213725000Y-68317500I0J62500D01*
G01*
X213725000Y-68192500D01*
G75*
G02*
X213787500Y-68130000I62500J0D01*
G01*
X214462500Y-68130000D01*
G75*
G02*
X214525000Y-68192500I0J-62500D01*
G01*
G37*
G36*
G01*
X214525000Y-68692500D02*
X214525000Y-68817500D01*
G75*
G02*
X214462500Y-68880000I-62500J0D01*
G01*
X213787500Y-68880000D01*
G75*
G02*
X213725000Y-68817500I0J62500D01*
G01*
X213725000Y-68692500D01*
G75*
G02*
X213787500Y-68630000I62500J0D01*
G01*
X214462500Y-68630000D01*
G75*
G02*
X214525000Y-68692500I0J-62500D01*
G01*
G37*
%TD*%
D23*
%TO.C,U1*%
X186500000Y-72100000D03*
X186000000Y-72100000D03*
X185500000Y-72100000D03*
X186500000Y-73100000D03*
X186000000Y-73100000D03*
X185500000Y-73100000D03*
%TD*%
%TO.C,Rb1*%
G36*
G01*
X122000000Y-80775000D02*
X122000000Y-79525000D01*
G75*
G02*
X122250000Y-79275000I250000J0D01*
G01*
X123000000Y-79275000D01*
G75*
G02*
X123250000Y-79525000I0J-250000D01*
G01*
X123250000Y-80775000D01*
G75*
G02*
X123000000Y-81025000I-250000J0D01*
G01*
X122250000Y-81025000D01*
G75*
G02*
X122000000Y-80775000I0J250000D01*
G01*
G37*
G36*
G01*
X124800000Y-80775000D02*
X124800000Y-79525000D01*
G75*
G02*
X125050000Y-79275000I250000J0D01*
G01*
X125800000Y-79275000D01*
G75*
G02*
X126050000Y-79525000I0J-250000D01*
G01*
X126050000Y-80775000D01*
G75*
G02*
X125800000Y-81025000I-250000J0D01*
G01*
X125050000Y-81025000D01*
G75*
G02*
X124800000Y-80775000I0J250000D01*
G01*
G37*
%TD*%
%TO.C,Ra1*%
G36*
G01*
X125450000Y-77193750D02*
X125450000Y-78106250D01*
G75*
G02*
X125206250Y-78350000I-243750J0D01*
G01*
X124718750Y-78350000D01*
G75*
G02*
X124475000Y-78106250I0J243750D01*
G01*
X124475000Y-77193750D01*
G75*
G02*
X124718750Y-76950000I243750J0D01*
G01*
X125206250Y-76950000D01*
G75*
G02*
X125450000Y-77193750I0J-243750D01*
G01*
G37*
G36*
G01*
X123575000Y-77193750D02*
X123575000Y-78106250D01*
G75*
G02*
X123331250Y-78350000I-243750J0D01*
G01*
X122843750Y-78350000D01*
G75*
G02*
X122600000Y-78106250I0J243750D01*
G01*
X122600000Y-77193750D01*
G75*
G02*
X122843750Y-76950000I243750J0D01*
G01*
X123331250Y-76950000D01*
G75*
G02*
X123575000Y-77193750I0J-243750D01*
G01*
G37*
%TD*%
%TO.C,R21*%
G36*
G01*
X200781250Y-72255000D02*
X199868750Y-72255000D01*
G75*
G02*
X199625000Y-72011250I0J243750D01*
G01*
X199625000Y-71523750D01*
G75*
G02*
X199868750Y-71280000I243750J0D01*
G01*
X200781250Y-71280000D01*
G75*
G02*
X201025000Y-71523750I0J-243750D01*
G01*
X201025000Y-72011250D01*
G75*
G02*
X200781250Y-72255000I-243750J0D01*
G01*
G37*
G36*
G01*
X200781250Y-74130000D02*
X199868750Y-74130000D01*
G75*
G02*
X199625000Y-73886250I0J243750D01*
G01*
X199625000Y-73398750D01*
G75*
G02*
X199868750Y-73155000I243750J0D01*
G01*
X200781250Y-73155000D01*
G75*
G02*
X201025000Y-73398750I0J-243750D01*
G01*
X201025000Y-73886250D01*
G75*
G02*
X200781250Y-74130000I-243750J0D01*
G01*
G37*
%TD*%
%TO.C,R20*%
G36*
G01*
X207681250Y-74130000D02*
X206768750Y-74130000D01*
G75*
G02*
X206525000Y-73886250I0J243750D01*
G01*
X206525000Y-73398750D01*
G75*
G02*
X206768750Y-73155000I243750J0D01*
G01*
X207681250Y-73155000D01*
G75*
G02*
X207925000Y-73398750I0J-243750D01*
G01*
X207925000Y-73886250D01*
G75*
G02*
X207681250Y-74130000I-243750J0D01*
G01*
G37*
G36*
G01*
X207681250Y-72255000D02*
X206768750Y-72255000D01*
G75*
G02*
X206525000Y-72011250I0J243750D01*
G01*
X206525000Y-71523750D01*
G75*
G02*
X206768750Y-71280000I243750J0D01*
G01*
X207681250Y-71280000D01*
G75*
G02*
X207925000Y-71523750I0J-243750D01*
G01*
X207925000Y-72011250D01*
G75*
G02*
X207681250Y-72255000I-243750J0D01*
G01*
G37*
%TD*%
%TO.C,R19*%
G36*
G01*
X209518750Y-60330000D02*
X210431250Y-60330000D01*
G75*
G02*
X210675000Y-60573750I0J-243750D01*
G01*
X210675000Y-61061250D01*
G75*
G02*
X210431250Y-61305000I-243750J0D01*
G01*
X209518750Y-61305000D01*
G75*
G02*
X209275000Y-61061250I0J243750D01*
G01*
X209275000Y-60573750D01*
G75*
G02*
X209518750Y-60330000I243750J0D01*
G01*
G37*
G36*
G01*
X209518750Y-62205000D02*
X210431250Y-62205000D01*
G75*
G02*
X210675000Y-62448750I0J-243750D01*
G01*
X210675000Y-62936250D01*
G75*
G02*
X210431250Y-63180000I-243750J0D01*
G01*
X209518750Y-63180000D01*
G75*
G02*
X209275000Y-62936250I0J243750D01*
G01*
X209275000Y-62448750D01*
G75*
G02*
X209518750Y-62205000I243750J0D01*
G01*
G37*
%TD*%
%TO.C,R18*%
G36*
G01*
X214431250Y-63180000D02*
X213518750Y-63180000D01*
G75*
G02*
X213275000Y-62936250I0J243750D01*
G01*
X213275000Y-62448750D01*
G75*
G02*
X213518750Y-62205000I243750J0D01*
G01*
X214431250Y-62205000D01*
G75*
G02*
X214675000Y-62448750I0J-243750D01*
G01*
X214675000Y-62936250D01*
G75*
G02*
X214431250Y-63180000I-243750J0D01*
G01*
G37*
G36*
G01*
X214431250Y-61305000D02*
X213518750Y-61305000D01*
G75*
G02*
X213275000Y-61061250I0J243750D01*
G01*
X213275000Y-60573750D01*
G75*
G02*
X213518750Y-60330000I243750J0D01*
G01*
X214431250Y-60330000D01*
G75*
G02*
X214675000Y-60573750I0J-243750D01*
G01*
X214675000Y-61061250D01*
G75*
G02*
X214431250Y-61305000I-243750J0D01*
G01*
G37*
%TD*%
%TO.C,R16*%
G36*
G01*
X212431250Y-61305000D02*
X211518750Y-61305000D01*
G75*
G02*
X211275000Y-61061250I0J243750D01*
G01*
X211275000Y-60573750D01*
G75*
G02*
X211518750Y-60330000I243750J0D01*
G01*
X212431250Y-60330000D01*
G75*
G02*
X212675000Y-60573750I0J-243750D01*
G01*
X212675000Y-61061250D01*
G75*
G02*
X212431250Y-61305000I-243750J0D01*
G01*
G37*
G36*
G01*
X212431250Y-63180000D02*
X211518750Y-63180000D01*
G75*
G02*
X211275000Y-62936250I0J243750D01*
G01*
X211275000Y-62448750D01*
G75*
G02*
X211518750Y-62205000I243750J0D01*
G01*
X212431250Y-62205000D01*
G75*
G02*
X212675000Y-62448750I0J-243750D01*
G01*
X212675000Y-62936250D01*
G75*
G02*
X212431250Y-63180000I-243750J0D01*
G01*
G37*
%TD*%
%TO.C,R15*%
G36*
G01*
X201050000Y-67711250D02*
X201050000Y-66798750D01*
G75*
G02*
X201293750Y-66555000I243750J0D01*
G01*
X201781250Y-66555000D01*
G75*
G02*
X202025000Y-66798750I0J-243750D01*
G01*
X202025000Y-67711250D01*
G75*
G02*
X201781250Y-67955000I-243750J0D01*
G01*
X201293750Y-67955000D01*
G75*
G02*
X201050000Y-67711250I0J243750D01*
G01*
G37*
G36*
G01*
X202925000Y-67711250D02*
X202925000Y-66798750D01*
G75*
G02*
X203168750Y-66555000I243750J0D01*
G01*
X203656250Y-66555000D01*
G75*
G02*
X203900000Y-66798750I0J-243750D01*
G01*
X203900000Y-67711250D01*
G75*
G02*
X203656250Y-67955000I-243750J0D01*
G01*
X203168750Y-67955000D01*
G75*
G02*
X202925000Y-67711250I0J243750D01*
G01*
G37*
%TD*%
%TO.C,R14*%
G36*
G01*
X202925000Y-69711250D02*
X202925000Y-68798750D01*
G75*
G02*
X203168750Y-68555000I243750J0D01*
G01*
X203656250Y-68555000D01*
G75*
G02*
X203900000Y-68798750I0J-243750D01*
G01*
X203900000Y-69711250D01*
G75*
G02*
X203656250Y-69955000I-243750J0D01*
G01*
X203168750Y-69955000D01*
G75*
G02*
X202925000Y-69711250I0J243750D01*
G01*
G37*
G36*
G01*
X201050000Y-69711250D02*
X201050000Y-68798750D01*
G75*
G02*
X201293750Y-68555000I243750J0D01*
G01*
X201781250Y-68555000D01*
G75*
G02*
X202025000Y-68798750I0J-243750D01*
G01*
X202025000Y-69711250D01*
G75*
G02*
X201781250Y-69955000I-243750J0D01*
G01*
X201293750Y-69955000D01*
G75*
G02*
X201050000Y-69711250I0J243750D01*
G01*
G37*
%TD*%
%TO.C,R11*%
G36*
G01*
X208431250Y-63180000D02*
X207518750Y-63180000D01*
G75*
G02*
X207275000Y-62936250I0J243750D01*
G01*
X207275000Y-62448750D01*
G75*
G02*
X207518750Y-62205000I243750J0D01*
G01*
X208431250Y-62205000D01*
G75*
G02*
X208675000Y-62448750I0J-243750D01*
G01*
X208675000Y-62936250D01*
G75*
G02*
X208431250Y-63180000I-243750J0D01*
G01*
G37*
G36*
G01*
X208431250Y-61305000D02*
X207518750Y-61305000D01*
G75*
G02*
X207275000Y-61061250I0J243750D01*
G01*
X207275000Y-60573750D01*
G75*
G02*
X207518750Y-60330000I243750J0D01*
G01*
X208431250Y-60330000D01*
G75*
G02*
X208675000Y-60573750I0J-243750D01*
G01*
X208675000Y-61061250D01*
G75*
G02*
X208431250Y-61305000I-243750J0D01*
G01*
G37*
%TD*%
%TO.C,R8*%
G36*
G01*
X201050000Y-65711250D02*
X201050000Y-64798750D01*
G75*
G02*
X201293750Y-64555000I243750J0D01*
G01*
X201781250Y-64555000D01*
G75*
G02*
X202025000Y-64798750I0J-243750D01*
G01*
X202025000Y-65711250D01*
G75*
G02*
X201781250Y-65955000I-243750J0D01*
G01*
X201293750Y-65955000D01*
G75*
G02*
X201050000Y-65711250I0J243750D01*
G01*
G37*
G36*
G01*
X202925000Y-65711250D02*
X202925000Y-64798750D01*
G75*
G02*
X203168750Y-64555000I243750J0D01*
G01*
X203656250Y-64555000D01*
G75*
G02*
X203900000Y-64798750I0J-243750D01*
G01*
X203900000Y-65711250D01*
G75*
G02*
X203656250Y-65955000I-243750J0D01*
G01*
X203168750Y-65955000D01*
G75*
G02*
X202925000Y-65711250I0J243750D01*
G01*
G37*
%TD*%
D24*
%TO.C,IC1*%
X181805000Y-74250000D03*
X180535000Y-74250000D03*
X179265000Y-74250000D03*
X177995000Y-74250000D03*
%TD*%
D14*
%TO.C,FB2*%
X124300000Y-97503750D03*
X122500000Y-97503750D03*
%TD*%
D20*
%TO.C,LED4*%
X157500000Y-73770000D03*
X157500000Y-72670000D03*
X157500000Y-71570000D03*
X160450000Y-73770000D03*
X160450000Y-72670000D03*
X160450000Y-71570000D03*
%TD*%
D25*
%TO.C,D5*%
X219575000Y-72525000D03*
D26*
X219575000Y-70805000D03*
X217375000Y-70805000D03*
X217375000Y-72705000D03*
%TD*%
%TO.C,Cref1*%
G36*
G01*
X129750000Y-78275000D02*
X129750000Y-77025000D01*
G75*
G02*
X130000000Y-76775000I250000J0D01*
G01*
X130750000Y-76775000D01*
G75*
G02*
X131000000Y-77025000I0J-250000D01*
G01*
X131000000Y-78275000D01*
G75*
G02*
X130750000Y-78525000I-250000J0D01*
G01*
X130000000Y-78525000D01*
G75*
G02*
X129750000Y-78275000I0J250000D01*
G01*
G37*
G36*
G01*
X126950000Y-78275000D02*
X126950000Y-77025000D01*
G75*
G02*
X127200000Y-76775000I250000J0D01*
G01*
X127950000Y-76775000D01*
G75*
G02*
X128200000Y-77025000I0J-250000D01*
G01*
X128200000Y-78275000D01*
G75*
G02*
X127950000Y-78525000I-250000J0D01*
G01*
X127200000Y-78525000D01*
G75*
G02*
X126950000Y-78275000I0J250000D01*
G01*
G37*
%TD*%
%TO.C,C3*%
G36*
G01*
X121375000Y-83373125D02*
X121375000Y-82123125D01*
G75*
G02*
X121625000Y-81873125I250000J0D01*
G01*
X122375000Y-81873125D01*
G75*
G02*
X122625000Y-82123125I0J-250000D01*
G01*
X122625000Y-83373125D01*
G75*
G02*
X122375000Y-83623125I-250000J0D01*
G01*
X121625000Y-83623125D01*
G75*
G02*
X121375000Y-83373125I0J250000D01*
G01*
G37*
G36*
G01*
X124175000Y-83373125D02*
X124175000Y-82123125D01*
G75*
G02*
X124425000Y-81873125I250000J0D01*
G01*
X125175000Y-81873125D01*
G75*
G02*
X125425000Y-82123125I0J-250000D01*
G01*
X125425000Y-83373125D01*
G75*
G02*
X125175000Y-83623125I-250000J0D01*
G01*
X124425000Y-83623125D01*
G75*
G02*
X124175000Y-83373125I0J250000D01*
G01*
G37*
%TD*%
D15*
%TO.C,J1*%
G36*
X101955414Y-92923408D02*
G01*
X102605976Y-91352812D01*
X104176572Y-92003374D01*
X103526010Y-93573970D01*
X101955414Y-92923408D01*
G37*
G36*
G01*
X104627349Y-93110126D02*
X104627349Y-93110126D01*
G75*
G02*
X105737928Y-92650109I785298J-325281D01*
G01*
X105737928Y-92650109D01*
G75*
G02*
X106197945Y-93760688I-325281J-785298D01*
G01*
X106197945Y-93760688D01*
G75*
G02*
X105087366Y-94220705I-785298J325281D01*
G01*
X105087366Y-94220705D01*
G75*
G02*
X104627349Y-93110126I325281J785298D01*
G01*
G37*
G36*
G01*
X101308679Y-94484764D02*
X101308679Y-94484764D01*
G75*
G02*
X102419258Y-94024747I785298J-325281D01*
G01*
X102419258Y-94024747D01*
G75*
G02*
X102879275Y-95135326I-325281J-785298D01*
G01*
X102879275Y-95135326D01*
G75*
G02*
X101768696Y-95595343I-785298J325281D01*
G01*
X101768696Y-95595343D01*
G75*
G02*
X101308679Y-94484764I325281J785298D01*
G01*
G37*
G36*
G01*
X103655333Y-95456780D02*
X103655333Y-95456780D01*
G75*
G02*
X104765912Y-94996763I785298J-325281D01*
G01*
X104765912Y-94996763D01*
G75*
G02*
X105225929Y-96107342I-325281J-785298D01*
G01*
X105225929Y-96107342D01*
G75*
G02*
X104115350Y-96567359I-785298J325281D01*
G01*
X104115350Y-96567359D01*
G75*
G02*
X103655333Y-95456780I325281J785298D01*
G01*
G37*
G36*
G01*
X100336663Y-96831418D02*
X100336663Y-96831418D01*
G75*
G02*
X101447242Y-96371401I785298J-325281D01*
G01*
X101447242Y-96371401D01*
G75*
G02*
X101907259Y-97481980I-325281J-785298D01*
G01*
X101907259Y-97481980D01*
G75*
G02*
X100796680Y-97941997I-785298J325281D01*
G01*
X100796680Y-97941997D01*
G75*
G02*
X100336663Y-96831418I325281J785298D01*
G01*
G37*
G36*
G01*
X102683317Y-97803434D02*
X102683317Y-97803434D01*
G75*
G02*
X103793896Y-97343417I785298J-325281D01*
G01*
X103793896Y-97343417D01*
G75*
G02*
X104253913Y-98453996I-325281J-785298D01*
G01*
X104253913Y-98453996D01*
G75*
G02*
X103143334Y-98914013I-785298J325281D01*
G01*
X103143334Y-98914013D01*
G75*
G02*
X102683317Y-97803434I325281J785298D01*
G01*
G37*
G36*
G01*
X99364647Y-99178072D02*
X99364647Y-99178072D01*
G75*
G02*
X100475226Y-98718055I785298J-325281D01*
G01*
X100475226Y-98718055D01*
G75*
G02*
X100935243Y-99828634I-325281J-785298D01*
G01*
X100935243Y-99828634D01*
G75*
G02*
X99824664Y-100288651I-785298J325281D01*
G01*
X99824664Y-100288651D01*
G75*
G02*
X99364647Y-99178072I325281J785298D01*
G01*
G37*
G36*
G01*
X101711301Y-100150088D02*
X101711301Y-100150088D01*
G75*
G02*
X102821880Y-99690071I785298J-325281D01*
G01*
X102821880Y-99690071D01*
G75*
G02*
X103281897Y-100800650I-325281J-785298D01*
G01*
X103281897Y-100800650D01*
G75*
G02*
X102171318Y-101260667I-785298J325281D01*
G01*
X102171318Y-101260667D01*
G75*
G02*
X101711301Y-100150088I325281J785298D01*
G01*
G37*
G36*
G01*
X98392631Y-101524726D02*
X98392631Y-101524726D01*
G75*
G02*
X99503210Y-101064709I785298J-325281D01*
G01*
X99503210Y-101064709D01*
G75*
G02*
X99963227Y-102175288I-325281J-785298D01*
G01*
X99963227Y-102175288D01*
G75*
G02*
X98852648Y-102635305I-785298J325281D01*
G01*
X98852648Y-102635305D01*
G75*
G02*
X98392631Y-101524726I325281J785298D01*
G01*
G37*
G36*
G01*
X100739285Y-102496742D02*
X100739285Y-102496742D01*
G75*
G02*
X101849864Y-102036725I785298J-325281D01*
G01*
X101849864Y-102036725D01*
G75*
G02*
X102309881Y-103147304I-325281J-785298D01*
G01*
X102309881Y-103147304D01*
G75*
G02*
X101199302Y-103607321I-785298J325281D01*
G01*
X101199302Y-103607321D01*
G75*
G02*
X100739285Y-102496742I325281J785298D01*
G01*
G37*
G36*
G01*
X97420615Y-103871380D02*
X97420615Y-103871380D01*
G75*
G02*
X98531194Y-103411363I785298J-325281D01*
G01*
X98531194Y-103411363D01*
G75*
G02*
X98991211Y-104521942I-325281J-785298D01*
G01*
X98991211Y-104521942D01*
G75*
G02*
X97880632Y-104981959I-785298J325281D01*
G01*
X97880632Y-104981959D01*
G75*
G02*
X97420615Y-103871380I325281J785298D01*
G01*
G37*
G36*
G01*
X99767269Y-104843396D02*
X99767269Y-104843396D01*
G75*
G02*
X100877848Y-104383379I785298J-325281D01*
G01*
X100877848Y-104383379D01*
G75*
G02*
X101337865Y-105493958I-325281J-785298D01*
G01*
X101337865Y-105493958D01*
G75*
G02*
X100227286Y-105953975I-785298J325281D01*
G01*
X100227286Y-105953975D01*
G75*
G02*
X99767269Y-104843396I325281J785298D01*
G01*
G37*
G36*
G01*
X96448599Y-106218034D02*
X96448599Y-106218034D01*
G75*
G02*
X97559178Y-105758017I785298J-325281D01*
G01*
X97559178Y-105758017D01*
G75*
G02*
X98019195Y-106868596I-325281J-785298D01*
G01*
X98019195Y-106868596D01*
G75*
G02*
X96908616Y-107328613I-785298J325281D01*
G01*
X96908616Y-107328613D01*
G75*
G02*
X96448599Y-106218034I325281J785298D01*
G01*
G37*
G36*
G01*
X98795254Y-107190050D02*
X98795254Y-107190050D01*
G75*
G02*
X99905833Y-106730033I785298J-325281D01*
G01*
X99905833Y-106730033D01*
G75*
G02*
X100365850Y-107840612I-325281J-785298D01*
G01*
X100365850Y-107840612D01*
G75*
G02*
X99255271Y-108300629I-785298J325281D01*
G01*
X99255271Y-108300629D01*
G75*
G02*
X98795254Y-107190050I325281J785298D01*
G01*
G37*
G36*
G01*
X95476584Y-108564688D02*
X95476584Y-108564688D01*
G75*
G02*
X96587163Y-108104671I785298J-325281D01*
G01*
X96587163Y-108104671D01*
G75*
G02*
X97047180Y-109215250I-325281J-785298D01*
G01*
X97047180Y-109215250D01*
G75*
G02*
X95936601Y-109675267I-785298J325281D01*
G01*
X95936601Y-109675267D01*
G75*
G02*
X95476584Y-108564688I325281J785298D01*
G01*
G37*
G36*
G01*
X97823238Y-109536704D02*
X97823238Y-109536704D01*
G75*
G02*
X98933817Y-109076687I785298J-325281D01*
G01*
X98933817Y-109076687D01*
G75*
G02*
X99393834Y-110187266I-325281J-785298D01*
G01*
X99393834Y-110187266D01*
G75*
G02*
X98283255Y-110647283I-785298J325281D01*
G01*
X98283255Y-110647283D01*
G75*
G02*
X97823238Y-109536704I325281J785298D01*
G01*
G37*
%TD*%
D14*
%TO.C,IC4*%
X127525000Y-96750000D03*
X128475000Y-96750000D03*
X129425000Y-96750000D03*
X129425000Y-99250000D03*
X128475000Y-99250000D03*
X127525000Y-99250000D03*
%TD*%
%TO.C,C14*%
G36*
G01*
X180775000Y-77225000D02*
X180775000Y-75975000D01*
G75*
G02*
X181025000Y-75725000I250000J0D01*
G01*
X181775000Y-75725000D01*
G75*
G02*
X182025000Y-75975000I0J-250000D01*
G01*
X182025000Y-77225000D01*
G75*
G02*
X181775000Y-77475000I-250000J0D01*
G01*
X181025000Y-77475000D01*
G75*
G02*
X180775000Y-77225000I0J250000D01*
G01*
G37*
G36*
G01*
X177975000Y-77225000D02*
X177975000Y-75975000D01*
G75*
G02*
X178225000Y-75725000I250000J0D01*
G01*
X178975000Y-75725000D01*
G75*
G02*
X179225000Y-75975000I0J-250000D01*
G01*
X179225000Y-77225000D01*
G75*
G02*
X178975000Y-77475000I-250000J0D01*
G01*
X178225000Y-77475000D01*
G75*
G02*
X177975000Y-77225000I0J250000D01*
G01*
G37*
%TD*%
D27*
%TO.C,P1*%
X225365000Y-72947500D03*
D28*
X223455000Y-71567500D03*
X223455000Y-71067500D03*
X223455000Y-70567500D03*
X223455000Y-70067500D03*
X223455000Y-69567500D03*
X223455000Y-69067500D03*
X223455000Y-68567500D03*
X223455000Y-66067500D03*
X223455000Y-67067500D03*
X223455000Y-67567500D03*
X223455000Y-68067500D03*
X223455000Y-66567500D03*
X225155000Y-66317500D03*
D27*
X225365000Y-64687500D03*
X231315000Y-64327500D03*
X231315000Y-73307500D03*
D29*
X224115000Y-65217500D03*
D30*
X224115000Y-72417500D03*
D28*
X225155000Y-66817500D03*
X225155000Y-67317500D03*
X225155000Y-67817500D03*
X225155000Y-68317500D03*
X225155000Y-68817500D03*
X225155000Y-69317500D03*
X225155000Y-69817500D03*
X225155000Y-70317500D03*
X225155000Y-70817500D03*
X225155000Y-71317500D03*
X225155000Y-71817500D03*
%TD*%
D31*
%TO.C,D1*%
X132225000Y-96125000D03*
X132225000Y-99875000D03*
%TD*%
D13*
%TO.C,REF\u002A\u002A*%
X107328980Y-98825440D03*
%TD*%
%TO.C,REF\u002A\u002A*%
X88548980Y-108545442D03*
%TD*%
%TO.C,REF\u002A\u002A*%
X69558980Y-98825440D03*
%TD*%
%TO.C,REF\u002A\u002A*%
X76218980Y-82635440D03*
%TD*%
%TO.C,REF\u002A\u002A*%
X82898979Y-66465442D03*
%TD*%
D15*
%TO.C,D2*%
G36*
X86016787Y-97319093D02*
G01*
X87864546Y-98084460D01*
X87386191Y-99239309D01*
X85538432Y-98473942D01*
X86016787Y-97319093D01*
G37*
G36*
X84581725Y-100783641D02*
G01*
X86429484Y-101549008D01*
X85951129Y-102703857D01*
X84103370Y-101938490D01*
X84581725Y-100783641D01*
G37*
%TD*%
%TO.C,C8*%
G36*
G01*
X84595585Y-95458599D02*
X85073939Y-94303749D01*
G75*
G02*
X85400580Y-94168450I230970J-95671D01*
G01*
X86093490Y-94455463D01*
G75*
G02*
X86228789Y-94782104I-95671J-230970D01*
G01*
X85750435Y-95936953D01*
G75*
G02*
X85423794Y-96072252I-230970J95671D01*
G01*
X84730884Y-95785239D01*
G75*
G02*
X84595585Y-95458598I95671J230970D01*
G01*
G37*
G36*
G01*
X87182447Y-96530113D02*
X87660801Y-95375263D01*
G75*
G02*
X87987442Y-95239964I230970J-95671D01*
G01*
X88680352Y-95526977D01*
G75*
G02*
X88815651Y-95853618I-95671J-230970D01*
G01*
X88337297Y-97008467D01*
G75*
G02*
X88010656Y-97143766I-230970J95671D01*
G01*
X87317746Y-96856753D01*
G75*
G02*
X87182447Y-96530112I95671J230970D01*
G01*
G37*
%TD*%
%TO.C,C9*%
G36*
G01*
X94838151Y-61697844D02*
X95993001Y-62176198D01*
G75*
G02*
X96128300Y-62502839I-95671J-230970D01*
G01*
X95841287Y-63195749D01*
G75*
G02*
X95514646Y-63331048I-230970J95671D01*
G01*
X94359797Y-62852694D01*
G75*
G02*
X94224498Y-62526053I95671J230970D01*
G01*
X94511511Y-61833143D01*
G75*
G02*
X94838152Y-61697844I230970J-95671D01*
G01*
G37*
G36*
G01*
X93766637Y-64284706D02*
X94921487Y-64763060D01*
G75*
G02*
X95056786Y-65089701I-95671J-230970D01*
G01*
X94769773Y-65782611D01*
G75*
G02*
X94443132Y-65917910I-230970J95671D01*
G01*
X93288283Y-65439556D01*
G75*
G02*
X93152984Y-65112915I95671J230970D01*
G01*
X93439997Y-64420005D01*
G75*
G02*
X93766638Y-64284706I230970J-95671D01*
G01*
G37*
%TD*%
%TO.C,C10*%
G36*
G01*
X97591734Y-64326706D02*
X96806435Y-64001424D01*
G75*
G02*
X96671136Y-63674785I95670J230969D01*
G01*
X97015552Y-62843291D01*
G75*
G02*
X97342191Y-62707992I230969J-95670D01*
G01*
X98127491Y-63033274D01*
G75*
G02*
X98262790Y-63359913I-95670J-230969D01*
G01*
X97918374Y-64191407D01*
G75*
G02*
X97591735Y-64326706I-230969J95670D01*
G01*
G37*
G36*
G01*
X96558488Y-66821180D02*
X95773189Y-66495898D01*
G75*
G02*
X95637890Y-66169259I95670J230969D01*
G01*
X95982306Y-65337765D01*
G75*
G02*
X96308945Y-65202466I230969J-95670D01*
G01*
X97094245Y-65527748D01*
G75*
G02*
X97229544Y-65854387I-95670J-230969D01*
G01*
X96885128Y-66685881D01*
G75*
G02*
X96558489Y-66821180I-230969J95670D01*
G01*
G37*
%TD*%
%TO.C,J8*%
G36*
G01*
X74128730Y-69166185D02*
X74128730Y-69166185D01*
G75*
G02*
X73018151Y-69626202I-785298J325281D01*
G01*
X73018151Y-69626202D01*
G75*
G02*
X72558134Y-68515623I325281J785298D01*
G01*
X72558134Y-68515623D01*
G75*
G02*
X73668713Y-68055606I785298J-325281D01*
G01*
X73668713Y-68055606D01*
G75*
G02*
X74128730Y-69166185I-325281J-785298D01*
G01*
G37*
G36*
G01*
X73156714Y-71512839D02*
X73156714Y-71512839D01*
G75*
G02*
X72046135Y-71972856I-785298J325281D01*
G01*
X72046135Y-71972856D01*
G75*
G02*
X71586118Y-70862277I325281J785298D01*
G01*
X71586118Y-70862277D01*
G75*
G02*
X72696697Y-70402260I785298J-325281D01*
G01*
X72696697Y-70402260D01*
G75*
G02*
X73156714Y-71512839I-325281J-785298D01*
G01*
G37*
G36*
G01*
X72184698Y-73859493D02*
X72184698Y-73859493D01*
G75*
G02*
X71074119Y-74319510I-785298J325281D01*
G01*
X71074119Y-74319510D01*
G75*
G02*
X70614102Y-73208931I325281J785298D01*
G01*
X70614102Y-73208931D01*
G75*
G02*
X71724681Y-72748914I785298J-325281D01*
G01*
X71724681Y-72748914D01*
G75*
G02*
X72184698Y-73859493I-325281J-785298D01*
G01*
G37*
G36*
G01*
X71212682Y-76206147D02*
X71212682Y-76206147D01*
G75*
G02*
X70102103Y-76666164I-785298J325281D01*
G01*
X70102103Y-76666164D01*
G75*
G02*
X69642086Y-75555585I325281J785298D01*
G01*
X69642086Y-75555585D01*
G75*
G02*
X70752665Y-75095568I785298J-325281D01*
G01*
X70752665Y-75095568D01*
G75*
G02*
X71212682Y-76206147I-325281J-785298D01*
G01*
G37*
G36*
G01*
X70240666Y-78552801D02*
X70240666Y-78552801D01*
G75*
G02*
X69130087Y-79012818I-785298J325281D01*
G01*
X69130087Y-79012818D01*
G75*
G02*
X68670070Y-77902239I325281J785298D01*
G01*
X68670070Y-77902239D01*
G75*
G02*
X69780649Y-77442222I785298J-325281D01*
G01*
X69780649Y-77442222D01*
G75*
G02*
X70240666Y-78552801I-325281J-785298D01*
G01*
G37*
G36*
X69593931Y-80114157D02*
G01*
X68943369Y-81684753D01*
X67372773Y-81034191D01*
X68023335Y-79463595D01*
X69593931Y-80114157D01*
G37*
%TD*%
%TO.C,Q4*%
G36*
X95765026Y-100046675D02*
G01*
X95458879Y-100785778D01*
X94627388Y-100441363D01*
X94933535Y-99702260D01*
X95765026Y-100046675D01*
G37*
G36*
X96492125Y-98291304D02*
G01*
X96185978Y-99030407D01*
X95354487Y-98685992D01*
X95660634Y-97946889D01*
X96492125Y-98291304D01*
G37*
G36*
X94280816Y-98403623D02*
G01*
X93974669Y-99142726D01*
X93143178Y-98798311D01*
X93449325Y-98059208D01*
X94280816Y-98403623D01*
G37*
%TD*%
%TO.C,R2*%
G36*
G01*
X87371365Y-102263865D02*
X88214405Y-102613064D01*
G75*
G02*
X88346322Y-102931539I-93279J-225196D01*
G01*
X88159764Y-103381930D01*
G75*
G02*
X87841289Y-103513847I-225196J93279D01*
G01*
X86998249Y-103164648D01*
G75*
G02*
X86866332Y-102846173I93279J225196D01*
G01*
X87052890Y-102395782D01*
G75*
G02*
X87371365Y-102263865I225196J-93279D01*
G01*
G37*
G36*
G01*
X88088897Y-100531591D02*
X88931937Y-100880790D01*
G75*
G02*
X89063854Y-101199265I-93279J-225196D01*
G01*
X88877296Y-101649656D01*
G75*
G02*
X88558821Y-101781573I-225196J93279D01*
G01*
X87715781Y-101432374D01*
G75*
G02*
X87583864Y-101113899I93279J225196D01*
G01*
X87770422Y-100663508D01*
G75*
G02*
X88088897Y-100531591I225196J-93279D01*
G01*
G37*
%TD*%
%TO.C,R3*%
G36*
G01*
X88567887Y-60291247D02*
X89410927Y-60640446D01*
G75*
G02*
X89542844Y-60958921I-93279J-225196D01*
G01*
X89356286Y-61409312D01*
G75*
G02*
X89037811Y-61541229I-225196J93279D01*
G01*
X88194771Y-61192030D01*
G75*
G02*
X88062854Y-60873555I93279J225196D01*
G01*
X88249412Y-60423164D01*
G75*
G02*
X88567887Y-60291247I225196J-93279D01*
G01*
G37*
G36*
G01*
X87850355Y-62023521D02*
X88693395Y-62372720D01*
G75*
G02*
X88825312Y-62691195I-93279J-225196D01*
G01*
X88638754Y-63141586D01*
G75*
G02*
X88320279Y-63273503I-225196J93279D01*
G01*
X87477239Y-62924304D01*
G75*
G02*
X87345322Y-62605829I93279J225196D01*
G01*
X87531880Y-62155438D01*
G75*
G02*
X87850355Y-62023521I225196J-93279D01*
G01*
G37*
%TD*%
%TO.C,R6*%
G36*
G01*
X90167626Y-101392629D02*
X91010666Y-101741828D01*
G75*
G02*
X91142583Y-102060303I-93279J-225196D01*
G01*
X90956025Y-102510694D01*
G75*
G02*
X90637550Y-102642611I-225196J93279D01*
G01*
X89794510Y-102293412D01*
G75*
G02*
X89662593Y-101974937I93279J225196D01*
G01*
X89849151Y-101524546D01*
G75*
G02*
X90167626Y-101392629I225196J-93279D01*
G01*
G37*
G36*
G01*
X89450094Y-103124903D02*
X90293134Y-103474102D01*
G75*
G02*
X90425051Y-103792577I-93279J-225196D01*
G01*
X90238493Y-104242968D01*
G75*
G02*
X89920018Y-104374885I-225196J93279D01*
G01*
X89076978Y-104025686D01*
G75*
G02*
X88945061Y-103707211I93279J225196D01*
G01*
X89131619Y-103256820D01*
G75*
G02*
X89450094Y-103124903I225196J-93279D01*
G01*
G37*
%TD*%
%TO.C,R7*%
G36*
G01*
X84311403Y-96585639D02*
X85154443Y-96934838D01*
G75*
G02*
X85286360Y-97253313I-93279J-225196D01*
G01*
X85099802Y-97703704D01*
G75*
G02*
X84781327Y-97835621I-225196J93279D01*
G01*
X83938287Y-97486422D01*
G75*
G02*
X83806370Y-97167947I93279J225196D01*
G01*
X83992928Y-96717556D01*
G75*
G02*
X84311403Y-96585639I225196J-93279D01*
G01*
G37*
G36*
G01*
X83593871Y-98317913D02*
X84436911Y-98667112D01*
G75*
G02*
X84568828Y-98985587I-93279J-225196D01*
G01*
X84382270Y-99435978D01*
G75*
G02*
X84063795Y-99567895I-225196J93279D01*
G01*
X83220755Y-99218696D01*
G75*
G02*
X83088838Y-98900221I93279J225196D01*
G01*
X83275396Y-98449830D01*
G75*
G02*
X83593871Y-98317913I225196J-93279D01*
G01*
G37*
%TD*%
%TO.C,R9*%
G36*
G01*
X90391024Y-63075900D02*
X91234064Y-63425099D01*
G75*
G02*
X91365981Y-63743574I-93279J-225196D01*
G01*
X91179423Y-64193965D01*
G75*
G02*
X90860948Y-64325882I-225196J93279D01*
G01*
X90017908Y-63976683D01*
G75*
G02*
X89885991Y-63658208I93279J225196D01*
G01*
X90072549Y-63207817D01*
G75*
G02*
X90391024Y-63075900I225196J-93279D01*
G01*
G37*
G36*
G01*
X91108556Y-61343626D02*
X91951596Y-61692825D01*
G75*
G02*
X92083513Y-62011300I-93279J-225196D01*
G01*
X91896955Y-62461691D01*
G75*
G02*
X91578480Y-62593608I-225196J93279D01*
G01*
X90735440Y-62244409D01*
G75*
G02*
X90603523Y-61925934I93279J225196D01*
G01*
X90790081Y-61475543D01*
G75*
G02*
X91108556Y-61343626I225196J-93279D01*
G01*
G37*
%TD*%
%TO.C,R12*%
G36*
G01*
X89769165Y-64577205D02*
X90612205Y-64926404D01*
G75*
G02*
X90744122Y-65244879I-93279J-225196D01*
G01*
X90557564Y-65695270D01*
G75*
G02*
X90239089Y-65827187I-225196J93279D01*
G01*
X89396049Y-65477988D01*
G75*
G02*
X89264132Y-65159513I93279J225196D01*
G01*
X89450690Y-64709122D01*
G75*
G02*
X89769165Y-64577205I225196J-93279D01*
G01*
G37*
G36*
G01*
X89051633Y-66309479D02*
X89894673Y-66658678D01*
G75*
G02*
X90026590Y-66977153I-93279J-225196D01*
G01*
X89840032Y-67427544D01*
G75*
G02*
X89521557Y-67559461I-225196J93279D01*
G01*
X88678517Y-67210262D01*
G75*
G02*
X88546600Y-66891787I93279J225196D01*
G01*
X88733158Y-66441396D01*
G75*
G02*
X89051633Y-66309479I225196J-93279D01*
G01*
G37*
%TD*%
%TO.C,R13*%
G36*
G01*
X87228495Y-63524825D02*
X88071535Y-63874024D01*
G75*
G02*
X88203452Y-64192499I-93279J-225196D01*
G01*
X88016894Y-64642890D01*
G75*
G02*
X87698419Y-64774807I-225196J93279D01*
G01*
X86855379Y-64425608D01*
G75*
G02*
X86723462Y-64107133I93279J225196D01*
G01*
X86910020Y-63656742D01*
G75*
G02*
X87228495Y-63524825I225196J-93279D01*
G01*
G37*
G36*
G01*
X86510963Y-65257099D02*
X87354003Y-65606298D01*
G75*
G02*
X87485920Y-65924773I-93279J-225196D01*
G01*
X87299362Y-66375164D01*
G75*
G02*
X86980887Y-66507081I-225196J93279D01*
G01*
X86137847Y-66157882D01*
G75*
G02*
X86005930Y-65839407I93279J225196D01*
G01*
X86192488Y-65389016D01*
G75*
G02*
X86510963Y-65257099I225196J-93279D01*
G01*
G37*
%TD*%
%TO.C,R17*%
G36*
G01*
X107480349Y-94724833D02*
X108323389Y-95074032D01*
G75*
G02*
X108455306Y-95392507I-93279J-225196D01*
G01*
X108268748Y-95842898D01*
G75*
G02*
X107950273Y-95974815I-225196J93279D01*
G01*
X107107233Y-95625616D01*
G75*
G02*
X106975316Y-95307141I93279J225196D01*
G01*
X107161874Y-94856750D01*
G75*
G02*
X107480349Y-94724833I225196J-93279D01*
G01*
G37*
G36*
G01*
X108197881Y-92992559D02*
X109040921Y-93341758D01*
G75*
G02*
X109172838Y-93660233I-93279J-225196D01*
G01*
X108986280Y-94110624D01*
G75*
G02*
X108667805Y-94242541I-225196J93279D01*
G01*
X107824765Y-93893342D01*
G75*
G02*
X107692848Y-93574867I93279J225196D01*
G01*
X107879406Y-93124476D01*
G75*
G02*
X108197881Y-92992559I225196J-93279D01*
G01*
G37*
%TD*%
%TO.C,U4*%
G36*
X93239213Y-80828642D02*
G01*
X97328756Y-79499869D01*
X98657529Y-83589412D01*
X94567986Y-84918185D01*
X93239213Y-80828642D01*
G37*
G36*
X98594936Y-70537446D02*
G01*
X99462775Y-70255468D01*
X99725440Y-71063866D01*
X98857601Y-71345844D01*
X98594936Y-70537446D01*
G37*
G36*
X97168351Y-71000971D02*
G01*
X98036190Y-70718993D01*
X98298855Y-71527391D01*
X97431016Y-71809369D01*
X97168351Y-71000971D01*
G37*
G36*
X95741767Y-71464497D02*
G01*
X96609606Y-71182519D01*
X96872271Y-71990917D01*
X96004432Y-72272895D01*
X95741767Y-71464497D01*
G37*
G36*
X94315182Y-71928022D02*
G01*
X95183021Y-71646044D01*
X95445686Y-72454442D01*
X94577847Y-72736420D01*
X94315182Y-71928022D01*
G37*
G36*
X92888597Y-72391548D02*
G01*
X93756436Y-72109570D01*
X94019101Y-72917968D01*
X93151262Y-73199946D01*
X92888597Y-72391548D01*
G37*
G36*
X91462012Y-72855073D02*
G01*
X92329851Y-72573095D01*
X92592516Y-73381493D01*
X91724677Y-73663471D01*
X91462012Y-72855073D01*
G37*
G36*
X90035427Y-73318599D02*
G01*
X90903266Y-73036621D01*
X91165931Y-73845019D01*
X90298092Y-74126997D01*
X90035427Y-73318599D01*
G37*
G36*
X88608843Y-73782124D02*
G01*
X89476682Y-73500146D01*
X89739347Y-74308544D01*
X88871508Y-74590522D01*
X88608843Y-73782124D01*
G37*
G36*
X87182258Y-74245650D02*
G01*
X88050097Y-73963672D01*
X88312762Y-74772070D01*
X87444923Y-75054048D01*
X87182258Y-74245650D01*
G37*
G36*
X92582330Y-90865362D02*
G01*
X93450169Y-90583384D01*
X93712834Y-91391782D01*
X92844995Y-91673760D01*
X92582330Y-90865362D01*
G37*
G36*
X94008915Y-90401837D02*
G01*
X94876754Y-90119859D01*
X95139419Y-90928257D01*
X94271580Y-91210235D01*
X94008915Y-90401837D01*
G37*
G36*
X95435499Y-89938311D02*
G01*
X96303338Y-89656333D01*
X96566003Y-90464731D01*
X95698164Y-90746709D01*
X95435499Y-89938311D01*
G37*
G36*
X96862084Y-89474786D02*
G01*
X97729923Y-89192808D01*
X97992588Y-90001206D01*
X97124749Y-90283184D01*
X96862084Y-89474786D01*
G37*
G36*
X98288669Y-89011260D02*
G01*
X99156508Y-88729282D01*
X99419173Y-89537680D01*
X98551334Y-89819658D01*
X98288669Y-89011260D01*
G37*
G36*
X99715254Y-88547735D02*
G01*
X100583093Y-88265757D01*
X100845758Y-89074155D01*
X99977919Y-89356133D01*
X99715254Y-88547735D01*
G37*
G36*
X101141839Y-88084209D02*
G01*
X102009678Y-87802231D01*
X102272343Y-88610629D01*
X101404504Y-88892607D01*
X101141839Y-88084209D01*
G37*
G36*
X102568423Y-87620684D02*
G01*
X103436262Y-87338706D01*
X103698927Y-88147104D01*
X102831088Y-88429082D01*
X102568423Y-87620684D01*
G37*
G36*
X103995008Y-87157158D02*
G01*
X104862847Y-86875180D01*
X105125512Y-87683578D01*
X104257673Y-87965556D01*
X103995008Y-87157158D01*
G37*
%TD*%
%TO.C,U5*%
G36*
X89076424Y-97693462D02*
G01*
X89325168Y-97092940D01*
X90304480Y-97498584D01*
X90055736Y-98099106D01*
X89076424Y-97693462D01*
G37*
G36*
X88712875Y-98571147D02*
G01*
X88961619Y-97970625D01*
X89940931Y-98376269D01*
X89692187Y-98976791D01*
X88712875Y-98571147D01*
G37*
G36*
X88349325Y-99448833D02*
G01*
X88598069Y-98848311D01*
X89577381Y-99253955D01*
X89328637Y-99854477D01*
X88349325Y-99448833D01*
G37*
G36*
X90381860Y-100290736D02*
G01*
X90630604Y-99690214D01*
X91609916Y-100095858D01*
X91361172Y-100696380D01*
X90381860Y-100290736D01*
G37*
G36*
X91108959Y-98535365D02*
G01*
X91357703Y-97934843D01*
X92337015Y-98340487D01*
X92088271Y-98941009D01*
X91108959Y-98535365D01*
G37*
G36*
X90745409Y-99413051D02*
G01*
X90994153Y-98812529D01*
X91973465Y-99218173D01*
X91724721Y-99818695D01*
X90745409Y-99413051D01*
G37*
%TD*%
M02*
