M48
; DRILL file {KiCad 5.1.6} date Sun Aug 23 11:13:50 2020
; FORMAT={-:-/ absolute / inch / decimal}
; #@! TF.CreationDate,2020-08-23T11:13:50-07:00
; #@! TF.GenerationSoftware,Kicad,Pcbnew,5.1.6
; #@! TF.FileFunction,NonPlated,1,2,NPTH
FMAT,2
INCH
T1C0.0236
T2C0.0256
T3C0.0866
%
G90
G05
T1
X5.9843Y-3.1614
X6.1024Y-3.3346
X8.5039Y-3.3346
X8.4646Y-3.3346
X6.1417Y-3.3346
X8.3858Y-3.3346
X6.1417Y-3.1614
X6.063Y-3.3346
X6.1024Y-3.1614
X6.0236Y-3.3346
X8.4252Y-3.3346
X6.1811Y-3.3346
X8.3071Y-3.3346
X7.2047Y-3.3346
X4.6732Y-3.6614
X4.6732Y-3.5039
X7.248Y-3.1575
X6.063Y-3.1614
X7.126Y-3.3346
X4.4291Y-3.5433
X8.5039Y-3.1614
X7.2087Y-3.1614
X8.3465Y-3.3346
X7.2835Y-3.3346
X4.4291Y-3.6614
X4.4331Y-3.622
X4.4252Y-3.5039
X7.2835Y-3.1457
X8.3071Y-3.1614
X4.4252Y-3.7008
X7.0945Y-3.1457
X7.1299Y-3.1575
X8.3465Y-3.1614
X8.3858Y-3.1614
X6.0236Y-3.1614
X7.2441Y-3.3346
X6.1811Y-3.1614
X5.9843Y-3.3346
X7.1654Y-3.3346
X4.4331Y-3.5827
X4.6732Y-3.5827
X7.1693Y-3.1614
X4.6732Y-3.7008
X8.4252Y-3.1614
X4.6732Y-3.5433
X7.0866Y-3.3346
X8.4646Y-3.1614
X4.6732Y-3.622
T2
X8.8234Y-2.8511
T3
X2.7385Y-3.8908
X3.0007Y-3.2534
X4.7825Y-4.3701
X6.575Y-2.4012
X3.2637Y-2.6167
X4.2256Y-3.8908
X4.7825Y-2.8819
X5.1652Y-3.622
X3.4862Y-4.2734
T2
G00X8.8234Y-2.5735
M15
G01X8.8234Y-2.5617
M16
G05
T0
M30
