%TF.GenerationSoftware,KiCad,Pcbnew,5.1.6*%
%TF.CreationDate,2020-08-23T11:13:54-07:00*%
%TF.ProjectId,plant_station_v3,706c616e-745f-4737-9461-74696f6e5f76,rev?*%
%TF.SameCoordinates,Original*%
%TF.FileFunction,Soldermask,Bot*%
%TF.FilePolarity,Negative*%
%FSLAX46Y46*%
G04 Gerber Fmt 4.6, Leading zero omitted, Abs format (unit mm)*
G04 Created by KiCad (PCBNEW 5.1.6) date 2020-08-23 11:13:54*
%MOMM*%
%LPD*%
G01*
G04 APERTURE LIST*
%ADD10C,0.600000*%
%ADD11O,1.700000X1.700000*%
%ADD12R,1.700000X1.700000*%
%ADD13C,2.200000*%
%ADD14C,0.100000*%
%ADD15R,1.300000X2.150000*%
%ADD16R,0.800000X1.200000*%
%ADD17R,2.150000X1.300000*%
%ADD18R,1.200000X0.800000*%
%ADD19R,0.200000X0.500000*%
%ADD20R,0.500000X0.200000*%
%ADD21R,2.800000X2.800000*%
%ADD22O,1.400000X0.800000*%
%ADD23O,0.650000X0.950000*%
%ADD24C,0.650000*%
G04 APERTURE END LIST*
D10*
%TO.C,REF\u002A\u002A*%
X112400000Y-89000000D03*
%TD*%
%TO.C,REF\u002A\u002A*%
X112500000Y-90000000D03*
%TD*%
%TO.C,REF\u002A\u002A*%
X112600000Y-91000000D03*
%TD*%
%TO.C,REF\u002A\u002A*%
X112600000Y-92000000D03*
%TD*%
%TO.C,REF\u002A\u002A*%
X112500000Y-93000000D03*
%TD*%
%TO.C,REF\u002A\u002A*%
X112400000Y-94000000D03*
%TD*%
%TO.C,REF\u002A\u002A*%
X118700000Y-94000000D03*
%TD*%
%TO.C,REF\u002A\u002A*%
X118700000Y-93000000D03*
%TD*%
%TO.C,REF\u002A\u002A*%
X118700000Y-92000000D03*
%TD*%
%TO.C,REF\u002A\u002A*%
X118700000Y-91000000D03*
%TD*%
%TO.C,REF\u002A\u002A*%
X118700000Y-90000000D03*
%TD*%
%TO.C,REF\u002A\u002A*%
X118700000Y-89000000D03*
%TD*%
%TO.C,REF\u002A\u002A*%
X152000000Y-80300000D03*
%TD*%
%TO.C,REF\u002A\u002A*%
X153000000Y-80300000D03*
%TD*%
%TO.C,REF\u002A\u002A*%
X154000000Y-80300000D03*
%TD*%
%TO.C,REF\u002A\u002A*%
X155000000Y-80300000D03*
%TD*%
%TO.C,REF\u002A\u002A*%
X156000000Y-80300000D03*
%TD*%
%TO.C,REF\u002A\u002A*%
X157000000Y-80300000D03*
%TD*%
%TO.C,REF\u002A\u002A*%
X157000000Y-84700000D03*
%TD*%
%TO.C,REF\u002A\u002A*%
X156000000Y-84700000D03*
%TD*%
%TO.C,REF\u002A\u002A*%
X155000000Y-84700000D03*
%TD*%
%TO.C,REF\u002A\u002A*%
X154000000Y-84700000D03*
%TD*%
%TO.C,REF\u002A\u002A*%
X153000000Y-84700000D03*
%TD*%
%TO.C,REF\u002A\u002A*%
X152000000Y-84700000D03*
%TD*%
%TO.C,REF\u002A\u002A*%
X180200000Y-79900000D03*
%TD*%
%TO.C,REF\u002A\u002A*%
X181100000Y-80200000D03*
%TD*%
%TO.C,REF\u002A\u002A*%
X182100000Y-80300000D03*
%TD*%
%TO.C,REF\u002A\u002A*%
X183100000Y-80300000D03*
%TD*%
%TO.C,REF\u002A\u002A*%
X184100000Y-80200000D03*
%TD*%
%TO.C,REF\u002A\u002A*%
X185000000Y-79900000D03*
%TD*%
%TO.C,REF\u002A\u002A*%
X185000000Y-84700000D03*
%TD*%
%TO.C,REF\u002A\u002A*%
X184000000Y-84700000D03*
%TD*%
%TO.C,REF\u002A\u002A*%
X183000000Y-84700000D03*
%TD*%
%TO.C,REF\u002A\u002A*%
X182000000Y-84700000D03*
%TD*%
%TO.C,REF\u002A\u002A*%
X181000000Y-84700000D03*
%TD*%
%TO.C,REF\u002A\u002A*%
X180000000Y-84700000D03*
%TD*%
%TO.C,REF\u002A\u002A*%
X216000000Y-80300000D03*
%TD*%
%TO.C,REF\u002A\u002A*%
X215000000Y-80300000D03*
%TD*%
%TO.C,REF\u002A\u002A*%
X214000000Y-80300000D03*
%TD*%
%TO.C,REF\u002A\u002A*%
X213000000Y-80300000D03*
%TD*%
%TO.C,REF\u002A\u002A*%
X212000000Y-80300000D03*
%TD*%
%TO.C,REF\u002A\u002A*%
X211000000Y-80300000D03*
%TD*%
%TO.C,REF\u002A\u002A*%
X216000000Y-84700000D03*
%TD*%
%TO.C,REF\u002A\u002A*%
X215000000Y-84700000D03*
%TD*%
%TO.C,REF\u002A\u002A*%
X214000000Y-84700000D03*
%TD*%
%TO.C,REF\u002A\u002A*%
X213000000Y-84700000D03*
%TD*%
%TO.C,REF\u002A\u002A*%
X212000000Y-84700000D03*
%TD*%
%TO.C,REF\u002A\u002A*%
X211000000Y-84700000D03*
%TD*%
D11*
%TO.C,J7*%
X200995000Y-77855000D03*
X203535000Y-77855000D03*
X206075000Y-77855000D03*
X208615000Y-77855000D03*
X211155000Y-77855000D03*
X213695000Y-77855000D03*
X216235000Y-77855000D03*
D12*
X218775000Y-77855000D03*
%TD*%
D13*
%TO.C,REF\u002A\u002A*%
X167005000Y-60990000D03*
%TD*%
%TO.C,REF\u002A\u002A*%
X121475000Y-73200000D03*
%TD*%
%TO.C,REF\u002A\u002A*%
X131195000Y-92000000D03*
%TD*%
%TO.C,REF\u002A\u002A*%
X121475000Y-111000000D03*
%TD*%
D14*
%TO.C,J2*%
G36*
X100188557Y-82477080D02*
G01*
X98202216Y-81654311D01*
X98699705Y-80453268D01*
X100686046Y-81276037D01*
X100188557Y-82477080D01*
G37*
G36*
X96342588Y-91762070D02*
G01*
X94356247Y-90939301D01*
X94853736Y-89738258D01*
X96840077Y-90561027D01*
X96342588Y-91762070D01*
G37*
G36*
X96997982Y-82941449D02*
G01*
X95889327Y-82482229D01*
X96195474Y-81743125D01*
X97304129Y-82202345D01*
X96997982Y-82941449D01*
G37*
G36*
X96519628Y-84096298D02*
G01*
X95410973Y-83637078D01*
X95717120Y-82897974D01*
X96825775Y-83357194D01*
X96519628Y-84096298D01*
G37*
G36*
X96041274Y-85251148D02*
G01*
X94932619Y-84791928D01*
X95238766Y-84052824D01*
X96347421Y-84512044D01*
X96041274Y-85251148D01*
G37*
G36*
X95562920Y-86405997D02*
G01*
X94454265Y-85946777D01*
X94760412Y-85207673D01*
X95869067Y-85666893D01*
X95562920Y-86405997D01*
G37*
G36*
X95084565Y-87560847D02*
G01*
X93975910Y-87101627D01*
X94282057Y-86362523D01*
X95390712Y-86821743D01*
X95084565Y-87560847D01*
G37*
G36*
X94606211Y-88715696D02*
G01*
X93497556Y-88256476D01*
X93803703Y-87517372D01*
X94912358Y-87976592D01*
X94606211Y-88715696D01*
G37*
%TD*%
%TO.C,D13*%
G36*
X82525896Y-100894841D02*
G01*
X84373655Y-101660208D01*
X83895300Y-102815057D01*
X82047541Y-102049690D01*
X82525896Y-100894841D01*
G37*
G36*
X83960958Y-97430293D02*
G01*
X85808717Y-98195660D01*
X85330362Y-99350509D01*
X83482603Y-98585142D01*
X83960958Y-97430293D01*
G37*
%TD*%
%TO.C,J13*%
G36*
X77993257Y-98719704D02*
G01*
X79979598Y-99542473D01*
X79482109Y-100743516D01*
X77495768Y-99920747D01*
X77993257Y-98719704D01*
G37*
G36*
X81839226Y-89434714D02*
G01*
X83825567Y-90257483D01*
X83328078Y-91458526D01*
X81341737Y-90635757D01*
X81839226Y-89434714D01*
G37*
G36*
X81183832Y-98255335D02*
G01*
X82292487Y-98714555D01*
X81986340Y-99453659D01*
X80877685Y-98994439D01*
X81183832Y-98255335D01*
G37*
G36*
X81662186Y-97100486D02*
G01*
X82770841Y-97559706D01*
X82464694Y-98298810D01*
X81356039Y-97839590D01*
X81662186Y-97100486D01*
G37*
G36*
X82140540Y-95945636D02*
G01*
X83249195Y-96404856D01*
X82943048Y-97143960D01*
X81834393Y-96684740D01*
X82140540Y-95945636D01*
G37*
G36*
X82618894Y-94790787D02*
G01*
X83727549Y-95250007D01*
X83421402Y-95989111D01*
X82312747Y-95529891D01*
X82618894Y-94790787D01*
G37*
G36*
X83097249Y-93635937D02*
G01*
X84205904Y-94095157D01*
X83899757Y-94834261D01*
X82791102Y-94375041D01*
X83097249Y-93635937D01*
G37*
G36*
X83575603Y-92481088D02*
G01*
X84684258Y-92940308D01*
X84378111Y-93679412D01*
X83269456Y-93220192D01*
X83575603Y-92481088D01*
G37*
%TD*%
%TO.C,J17*%
G36*
X83047877Y-58085963D02*
G01*
X82397315Y-59656559D01*
X80826719Y-59005997D01*
X81477281Y-57435401D01*
X83047877Y-58085963D01*
G37*
G36*
G01*
X81750580Y-61217915D02*
X81750580Y-61217915D01*
G75*
G02*
X80640001Y-61677932I-785298J325281D01*
G01*
X80640001Y-61677932D01*
G75*
G02*
X80179984Y-60567353I325281J785298D01*
G01*
X80179984Y-60567353D01*
G75*
G02*
X81290563Y-60107336I785298J-325281D01*
G01*
X81290563Y-60107336D01*
G75*
G02*
X81750580Y-61217915I-325281J-785298D01*
G01*
G37*
G36*
G01*
X80778564Y-63564569D02*
X80778564Y-63564569D01*
G75*
G02*
X79667985Y-64024586I-785298J325281D01*
G01*
X79667985Y-64024586D01*
G75*
G02*
X79207968Y-62914007I325281J785298D01*
G01*
X79207968Y-62914007D01*
G75*
G02*
X80318547Y-62453990I785298J-325281D01*
G01*
X80318547Y-62453990D01*
G75*
G02*
X80778564Y-63564569I-325281J-785298D01*
G01*
G37*
G36*
G01*
X79806548Y-65911223D02*
X79806548Y-65911223D01*
G75*
G02*
X78695969Y-66371240I-785298J325281D01*
G01*
X78695969Y-66371240D01*
G75*
G02*
X78235952Y-65260661I325281J785298D01*
G01*
X78235952Y-65260661D01*
G75*
G02*
X79346531Y-64800644I785298J-325281D01*
G01*
X79346531Y-64800644D01*
G75*
G02*
X79806548Y-65911223I-325281J-785298D01*
G01*
G37*
G36*
G01*
X78834532Y-68257877D02*
X78834532Y-68257877D01*
G75*
G02*
X77723953Y-68717894I-785298J325281D01*
G01*
X77723953Y-68717894D01*
G75*
G02*
X77263936Y-67607315I325281J785298D01*
G01*
X77263936Y-67607315D01*
G75*
G02*
X78374515Y-67147298I785298J-325281D01*
G01*
X78374515Y-67147298D01*
G75*
G02*
X78834532Y-68257877I-325281J-785298D01*
G01*
G37*
G36*
G01*
X77862516Y-70604531D02*
X77862516Y-70604531D01*
G75*
G02*
X76751937Y-71064548I-785298J325281D01*
G01*
X76751937Y-71064548D01*
G75*
G02*
X76291920Y-69953969I325281J785298D01*
G01*
X76291920Y-69953969D01*
G75*
G02*
X77402499Y-69493952I785298J-325281D01*
G01*
X77402499Y-69493952D01*
G75*
G02*
X77862516Y-70604531I-325281J-785298D01*
G01*
G37*
G36*
G01*
X76890500Y-72951185D02*
X76890500Y-72951185D01*
G75*
G02*
X75779921Y-73411202I-785298J325281D01*
G01*
X75779921Y-73411202D01*
G75*
G02*
X75319904Y-72300623I325281J785298D01*
G01*
X75319904Y-72300623D01*
G75*
G02*
X76430483Y-71840606I785298J-325281D01*
G01*
X76430483Y-71840606D01*
G75*
G02*
X76890500Y-72951185I-325281J-785298D01*
G01*
G37*
G36*
G01*
X75918485Y-75297839D02*
X75918485Y-75297839D01*
G75*
G02*
X74807906Y-75757856I-785298J325281D01*
G01*
X74807906Y-75757856D01*
G75*
G02*
X74347889Y-74647277I325281J785298D01*
G01*
X74347889Y-74647277D01*
G75*
G02*
X75458468Y-74187260I785298J-325281D01*
G01*
X75458468Y-74187260D01*
G75*
G02*
X75918485Y-75297839I-325281J-785298D01*
G01*
G37*
G36*
G01*
X74946469Y-77644493D02*
X74946469Y-77644493D01*
G75*
G02*
X73835890Y-78104510I-785298J325281D01*
G01*
X73835890Y-78104510D01*
G75*
G02*
X73375873Y-76993931I325281J785298D01*
G01*
X73375873Y-76993931D01*
G75*
G02*
X74486452Y-76533914I785298J-325281D01*
G01*
X74486452Y-76533914D01*
G75*
G02*
X74946469Y-77644493I-325281J-785298D01*
G01*
G37*
G36*
G01*
X73974453Y-79991147D02*
X73974453Y-79991147D01*
G75*
G02*
X72863874Y-80451164I-785298J325281D01*
G01*
X72863874Y-80451164D01*
G75*
G02*
X72403857Y-79340585I325281J785298D01*
G01*
X72403857Y-79340585D01*
G75*
G02*
X73514436Y-78880568I785298J-325281D01*
G01*
X73514436Y-78880568D01*
G75*
G02*
X73974453Y-79991147I-325281J-785298D01*
G01*
G37*
G36*
G01*
X73002437Y-82337801D02*
X73002437Y-82337801D01*
G75*
G02*
X71891858Y-82797818I-785298J325281D01*
G01*
X71891858Y-82797818D01*
G75*
G02*
X71431841Y-81687239I325281J785298D01*
G01*
X71431841Y-81687239D01*
G75*
G02*
X72542420Y-81227222I785298J-325281D01*
G01*
X72542420Y-81227222D01*
G75*
G02*
X73002437Y-82337801I-325281J-785298D01*
G01*
G37*
G36*
G01*
X72030421Y-84684455D02*
X72030421Y-84684455D01*
G75*
G02*
X70919842Y-85144472I-785298J325281D01*
G01*
X70919842Y-85144472D01*
G75*
G02*
X70459825Y-84033893I325281J785298D01*
G01*
X70459825Y-84033893D01*
G75*
G02*
X71570404Y-83573876I785298J-325281D01*
G01*
X71570404Y-83573876D01*
G75*
G02*
X72030421Y-84684455I-325281J-785298D01*
G01*
G37*
G36*
G01*
X71058405Y-87031109D02*
X71058405Y-87031109D01*
G75*
G02*
X69947826Y-87491126I-785298J325281D01*
G01*
X69947826Y-87491126D01*
G75*
G02*
X69487809Y-86380547I325281J785298D01*
G01*
X69487809Y-86380547D01*
G75*
G02*
X70598388Y-85920530I785298J-325281D01*
G01*
X70598388Y-85920530D01*
G75*
G02*
X71058405Y-87031109I-325281J-785298D01*
G01*
G37*
G36*
G01*
X70086389Y-89377763D02*
X70086389Y-89377763D01*
G75*
G02*
X68975810Y-89837780I-785298J325281D01*
G01*
X68975810Y-89837780D01*
G75*
G02*
X68515793Y-88727201I325281J785298D01*
G01*
X68515793Y-88727201D01*
G75*
G02*
X69626372Y-88267184I785298J-325281D01*
G01*
X69626372Y-88267184D01*
G75*
G02*
X70086389Y-89377763I-325281J-785298D01*
G01*
G37*
G36*
G01*
X69114373Y-91724417D02*
X69114373Y-91724417D01*
G75*
G02*
X68003794Y-92184434I-785298J325281D01*
G01*
X68003794Y-92184434D01*
G75*
G02*
X67543777Y-91073855I325281J785298D01*
G01*
X67543777Y-91073855D01*
G75*
G02*
X68654356Y-90613838I785298J-325281D01*
G01*
X68654356Y-90613838D01*
G75*
G02*
X69114373Y-91724417I-325281J-785298D01*
G01*
G37*
G36*
G01*
X68142357Y-94071071D02*
X68142357Y-94071071D01*
G75*
G02*
X67031778Y-94531088I-785298J325281D01*
G01*
X67031778Y-94531088D01*
G75*
G02*
X66571761Y-93420509I325281J785298D01*
G01*
X66571761Y-93420509D01*
G75*
G02*
X67682340Y-92960492I785298J-325281D01*
G01*
X67682340Y-92960492D01*
G75*
G02*
X68142357Y-94071071I-325281J-785298D01*
G01*
G37*
%TD*%
D12*
%TO.C,J19*%
X203725000Y-61755000D03*
D11*
X201185000Y-61755000D03*
%TD*%
D12*
%TO.C,J16*%
X196725000Y-62467500D03*
D11*
X196725000Y-65007500D03*
X196725000Y-67547500D03*
X196725000Y-70087500D03*
X196725000Y-72627500D03*
X196725000Y-75167500D03*
%TD*%
D15*
%TO.C,J12*%
X187525000Y-72870001D03*
X177475000Y-72870001D03*
D16*
X185625000Y-70575001D03*
X184375000Y-70575001D03*
X183125000Y-70575001D03*
X181875000Y-70575001D03*
X180625000Y-70575001D03*
X179375000Y-70575001D03*
%TD*%
D17*
%TO.C,J11*%
X124530000Y-97125000D03*
X124530000Y-87075000D03*
D18*
X126825000Y-95225000D03*
X126825000Y-93975000D03*
X126825000Y-92725000D03*
X126825000Y-91475000D03*
X126825000Y-90225000D03*
X126825000Y-88975000D03*
%TD*%
D14*
%TO.C,J10*%
G36*
X83116801Y-105739769D02*
G01*
X84687397Y-106390331D01*
X84036835Y-107960927D01*
X82466239Y-107310365D01*
X83116801Y-105739769D01*
G37*
G36*
G01*
X81555445Y-105093034D02*
X81555445Y-105093034D01*
G75*
G02*
X82015462Y-106203613I-325281J-785298D01*
G01*
X82015462Y-106203613D01*
G75*
G02*
X80904883Y-106663630I-785298J325281D01*
G01*
X80904883Y-106663630D01*
G75*
G02*
X80444866Y-105553051I325281J785298D01*
G01*
X80444866Y-105553051D01*
G75*
G02*
X81555445Y-105093034I785298J-325281D01*
G01*
G37*
G36*
G01*
X79208791Y-104121018D02*
X79208791Y-104121018D01*
G75*
G02*
X79668808Y-105231597I-325281J-785298D01*
G01*
X79668808Y-105231597D01*
G75*
G02*
X78558229Y-105691614I-785298J325281D01*
G01*
X78558229Y-105691614D01*
G75*
G02*
X78098212Y-104581035I325281J785298D01*
G01*
X78098212Y-104581035D01*
G75*
G02*
X79208791Y-104121018I785298J-325281D01*
G01*
G37*
G36*
G01*
X76862137Y-103149002D02*
X76862137Y-103149002D01*
G75*
G02*
X77322154Y-104259581I-325281J-785298D01*
G01*
X77322154Y-104259581D01*
G75*
G02*
X76211575Y-104719598I-785298J325281D01*
G01*
X76211575Y-104719598D01*
G75*
G02*
X75751558Y-103609019I325281J785298D01*
G01*
X75751558Y-103609019D01*
G75*
G02*
X76862137Y-103149002I785298J-325281D01*
G01*
G37*
%TD*%
%TO.C,J9*%
G36*
G01*
X75427074Y-106613550D02*
X75427074Y-106613550D01*
G75*
G02*
X75887091Y-107724129I-325281J-785298D01*
G01*
X75887091Y-107724129D01*
G75*
G02*
X74776512Y-108184146I-785298J325281D01*
G01*
X74776512Y-108184146D01*
G75*
G02*
X74316495Y-107073567I325281J785298D01*
G01*
X74316495Y-107073567D01*
G75*
G02*
X75427074Y-106613550I785298J-325281D01*
G01*
G37*
G36*
G01*
X77773728Y-107585566D02*
X77773728Y-107585566D01*
G75*
G02*
X78233745Y-108696145I-325281J-785298D01*
G01*
X78233745Y-108696145D01*
G75*
G02*
X77123166Y-109156162I-785298J325281D01*
G01*
X77123166Y-109156162D01*
G75*
G02*
X76663149Y-108045583I325281J785298D01*
G01*
X76663149Y-108045583D01*
G75*
G02*
X77773728Y-107585566I785298J-325281D01*
G01*
G37*
G36*
G01*
X80120382Y-108557582D02*
X80120382Y-108557582D01*
G75*
G02*
X80580399Y-109668161I-325281J-785298D01*
G01*
X80580399Y-109668161D01*
G75*
G02*
X79469820Y-110128178I-785298J325281D01*
G01*
X79469820Y-110128178D01*
G75*
G02*
X79009803Y-109017599I325281J785298D01*
G01*
X79009803Y-109017599D01*
G75*
G02*
X80120382Y-108557582I785298J-325281D01*
G01*
G37*
G36*
X81681738Y-109204317D02*
G01*
X83252334Y-109854879D01*
X82601772Y-111425475D01*
X81031176Y-110774913D01*
X81681738Y-109204317D01*
G37*
%TD*%
%TO.C,J6*%
G36*
X91631186Y-63887250D02*
G01*
X92739841Y-64346470D01*
X92433694Y-65085574D01*
X91325039Y-64626354D01*
X91631186Y-63887250D01*
G37*
G36*
X91152832Y-65042099D02*
G01*
X92261487Y-65501319D01*
X91955340Y-66240423D01*
X90846685Y-65781203D01*
X91152832Y-65042099D01*
G37*
G36*
X90674477Y-66196949D02*
G01*
X91783132Y-66656169D01*
X91476985Y-67395273D01*
X90368330Y-66936053D01*
X90674477Y-66196949D01*
G37*
G36*
X90196123Y-67351798D02*
G01*
X91304778Y-67811018D01*
X90998631Y-68550122D01*
X89889976Y-68090902D01*
X90196123Y-67351798D01*
G37*
G36*
X89717769Y-68506648D02*
G01*
X90826424Y-68965868D01*
X90520277Y-69704972D01*
X89411622Y-69245752D01*
X89717769Y-68506648D01*
G37*
G36*
X89239415Y-69661497D02*
G01*
X90348070Y-70120717D01*
X90041923Y-70859821D01*
X88933268Y-70400601D01*
X89239415Y-69661497D01*
G37*
G36*
X89894809Y-60840876D02*
G01*
X91881150Y-61663645D01*
X91383661Y-62864688D01*
X89397320Y-62041919D01*
X89894809Y-60840876D01*
G37*
G36*
X86048840Y-70125866D02*
G01*
X88035181Y-70948635D01*
X87537692Y-72149678D01*
X85551351Y-71326909D01*
X86048840Y-70125866D01*
G37*
%TD*%
D19*
%TO.C,LEDDRV1*%
X148825000Y-67770000D03*
X149225000Y-67770000D03*
X149625000Y-67770000D03*
X150025000Y-67770000D03*
X150425000Y-67770000D03*
X150825000Y-67770000D03*
X151225000Y-67770000D03*
X151625000Y-67770000D03*
D20*
X152375000Y-68520000D03*
X152375000Y-68920000D03*
X152375000Y-69320000D03*
X152375000Y-69720000D03*
X152375000Y-70120000D03*
X152375000Y-70520000D03*
X152375000Y-70920000D03*
X152375000Y-71320000D03*
D19*
X151625000Y-72070000D03*
X151225000Y-72070000D03*
X150825000Y-72070000D03*
X150425000Y-72070000D03*
X150025000Y-72070000D03*
X149625000Y-72070000D03*
X149225000Y-72070000D03*
X148825000Y-72070000D03*
D20*
X148075000Y-71320000D03*
X148075000Y-70920000D03*
X148075000Y-70520000D03*
X148075000Y-70120000D03*
X148075000Y-69720000D03*
X148075000Y-69320000D03*
X148075000Y-68920000D03*
X148075000Y-68520000D03*
D21*
X150225000Y-69920000D03*
%TD*%
D14*
%TO.C,D9*%
G36*
X90581478Y-72301003D02*
G01*
X92429237Y-73066370D01*
X91950882Y-74221219D01*
X90103123Y-73455852D01*
X90581478Y-72301003D01*
G37*
G36*
X92016540Y-68836455D02*
G01*
X93864299Y-69601822D01*
X93385944Y-70756671D01*
X91538185Y-69991304D01*
X92016540Y-68836455D01*
G37*
%TD*%
D12*
%TO.C,J18*%
X122125000Y-101311875D03*
D11*
X124665000Y-101311875D03*
%TD*%
%TO.C,C1*%
G36*
G01*
X146750000Y-66895000D02*
X146750000Y-68145000D01*
G75*
G02*
X146500000Y-68395000I-250000J0D01*
G01*
X145750000Y-68395000D01*
G75*
G02*
X145500000Y-68145000I0J250000D01*
G01*
X145500000Y-66895000D01*
G75*
G02*
X145750000Y-66645000I250000J0D01*
G01*
X146500000Y-66645000D01*
G75*
G02*
X146750000Y-66895000I0J-250000D01*
G01*
G37*
G36*
G01*
X143950000Y-66895000D02*
X143950000Y-68145000D01*
G75*
G02*
X143700000Y-68395000I-250000J0D01*
G01*
X142950000Y-68395000D01*
G75*
G02*
X142700000Y-68145000I0J250000D01*
G01*
X142700000Y-66895000D01*
G75*
G02*
X142950000Y-66645000I250000J0D01*
G01*
X143700000Y-66645000D01*
G75*
G02*
X143950000Y-66895000I0J-250000D01*
G01*
G37*
%TD*%
D15*
%TO.C,J14*%
X155450000Y-63180000D03*
X163000000Y-63180000D03*
D16*
X157350000Y-64995000D03*
X158600000Y-64995000D03*
X159850000Y-64995000D03*
X161100000Y-64995000D03*
%TD*%
%TO.C,R1*%
G36*
G01*
X142800000Y-70076250D02*
X142800000Y-69163750D01*
G75*
G02*
X143043750Y-68920000I243750J0D01*
G01*
X143531250Y-68920000D01*
G75*
G02*
X143775000Y-69163750I0J-243750D01*
G01*
X143775000Y-70076250D01*
G75*
G02*
X143531250Y-70320000I-243750J0D01*
G01*
X143043750Y-70320000D01*
G75*
G02*
X142800000Y-70076250I0J243750D01*
G01*
G37*
G36*
G01*
X144675000Y-70076250D02*
X144675000Y-69163750D01*
G75*
G02*
X144918750Y-68920000I243750J0D01*
G01*
X145406250Y-68920000D01*
G75*
G02*
X145650000Y-69163750I0J-243750D01*
G01*
X145650000Y-70076250D01*
G75*
G02*
X145406250Y-70320000I-243750J0D01*
G01*
X144918750Y-70320000D01*
G75*
G02*
X144675000Y-70076250I0J243750D01*
G01*
G37*
%TD*%
D14*
%TO.C,J4*%
G36*
X96160765Y-96773999D02*
G01*
X94174424Y-95951230D01*
X94671913Y-94750187D01*
X96658254Y-95572956D01*
X96160765Y-96773999D01*
G37*
G36*
X92314796Y-106058989D02*
G01*
X90328455Y-105236220D01*
X90825944Y-104035177D01*
X92812285Y-104857946D01*
X92314796Y-106058989D01*
G37*
G36*
X92970190Y-97238368D02*
G01*
X91861535Y-96779148D01*
X92167682Y-96040044D01*
X93276337Y-96499264D01*
X92970190Y-97238368D01*
G37*
G36*
X92491836Y-98393217D02*
G01*
X91383181Y-97933997D01*
X91689328Y-97194893D01*
X92797983Y-97654113D01*
X92491836Y-98393217D01*
G37*
G36*
X92013482Y-99548067D02*
G01*
X90904827Y-99088847D01*
X91210974Y-98349743D01*
X92319629Y-98808963D01*
X92013482Y-99548067D01*
G37*
G36*
X91535128Y-100702916D02*
G01*
X90426473Y-100243696D01*
X90732620Y-99504592D01*
X91841275Y-99963812D01*
X91535128Y-100702916D01*
G37*
G36*
X91056773Y-101857766D02*
G01*
X89948118Y-101398546D01*
X90254265Y-100659442D01*
X91362920Y-101118662D01*
X91056773Y-101857766D01*
G37*
G36*
X90578419Y-103012615D02*
G01*
X89469764Y-102553395D01*
X89775911Y-101814291D01*
X90884566Y-102273511D01*
X90578419Y-103012615D01*
G37*
%TD*%
D15*
%TO.C,J20*%
X142200000Y-61975000D03*
X152250000Y-61975000D03*
D16*
X144100000Y-64270000D03*
X145350000Y-64270000D03*
X146600000Y-64270000D03*
X147850000Y-64270000D03*
X149100000Y-64270000D03*
X150350000Y-64270000D03*
%TD*%
%TO.C,C2*%
G36*
G01*
X142700000Y-73295000D02*
X142700000Y-72045000D01*
G75*
G02*
X142950000Y-71795000I250000J0D01*
G01*
X143700000Y-71795000D01*
G75*
G02*
X143950000Y-72045000I0J-250000D01*
G01*
X143950000Y-73295000D01*
G75*
G02*
X143700000Y-73545000I-250000J0D01*
G01*
X142950000Y-73545000D01*
G75*
G02*
X142700000Y-73295000I0J250000D01*
G01*
G37*
G36*
G01*
X145500000Y-73295000D02*
X145500000Y-72045000D01*
G75*
G02*
X145750000Y-71795000I250000J0D01*
G01*
X146500000Y-71795000D01*
G75*
G02*
X146750000Y-72045000I0J-250000D01*
G01*
X146750000Y-73295000D01*
G75*
G02*
X146500000Y-73545000I-250000J0D01*
G01*
X145750000Y-73545000D01*
G75*
G02*
X145500000Y-73295000I0J250000D01*
G01*
G37*
%TD*%
D14*
%TO.C,J5*%
G36*
X87603395Y-78184169D02*
G01*
X88712050Y-78643389D01*
X88405903Y-79382493D01*
X87297248Y-78923273D01*
X87603395Y-78184169D01*
G37*
G36*
X87125041Y-79339018D02*
G01*
X88233696Y-79798238D01*
X87927549Y-80537342D01*
X86818894Y-80078122D01*
X87125041Y-79339018D01*
G37*
G36*
X86646686Y-80493868D02*
G01*
X87755341Y-80953088D01*
X87449194Y-81692192D01*
X86340539Y-81232972D01*
X86646686Y-80493868D01*
G37*
G36*
X86168332Y-81648717D02*
G01*
X87276987Y-82107937D01*
X86970840Y-82847041D01*
X85862185Y-82387821D01*
X86168332Y-81648717D01*
G37*
G36*
X85689978Y-82803567D02*
G01*
X86798633Y-83262787D01*
X86492486Y-84001891D01*
X85383831Y-83542671D01*
X85689978Y-82803567D01*
G37*
G36*
X85211624Y-83958416D02*
G01*
X86320279Y-84417636D01*
X86014132Y-85156740D01*
X84905477Y-84697520D01*
X85211624Y-83958416D01*
G37*
G36*
X85867018Y-75137795D02*
G01*
X87853359Y-75960564D01*
X87355870Y-77161607D01*
X85369529Y-76338838D01*
X85867018Y-75137795D01*
G37*
G36*
X82021049Y-84422785D02*
G01*
X84007390Y-85245554D01*
X83509901Y-86446597D01*
X81523560Y-85623828D01*
X82021049Y-84422785D01*
G37*
%TD*%
%TO.C,J1*%
G36*
X101955414Y-92923408D02*
G01*
X102605976Y-91352812D01*
X104176572Y-92003374D01*
X103526010Y-93573970D01*
X101955414Y-92923408D01*
G37*
G36*
G01*
X104627349Y-93110126D02*
X104627349Y-93110126D01*
G75*
G02*
X105737928Y-92650109I785298J-325281D01*
G01*
X105737928Y-92650109D01*
G75*
G02*
X106197945Y-93760688I-325281J-785298D01*
G01*
X106197945Y-93760688D01*
G75*
G02*
X105087366Y-94220705I-785298J325281D01*
G01*
X105087366Y-94220705D01*
G75*
G02*
X104627349Y-93110126I325281J785298D01*
G01*
G37*
G36*
G01*
X101308679Y-94484764D02*
X101308679Y-94484764D01*
G75*
G02*
X102419258Y-94024747I785298J-325281D01*
G01*
X102419258Y-94024747D01*
G75*
G02*
X102879275Y-95135326I-325281J-785298D01*
G01*
X102879275Y-95135326D01*
G75*
G02*
X101768696Y-95595343I-785298J325281D01*
G01*
X101768696Y-95595343D01*
G75*
G02*
X101308679Y-94484764I325281J785298D01*
G01*
G37*
G36*
G01*
X103655333Y-95456780D02*
X103655333Y-95456780D01*
G75*
G02*
X104765912Y-94996763I785298J-325281D01*
G01*
X104765912Y-94996763D01*
G75*
G02*
X105225929Y-96107342I-325281J-785298D01*
G01*
X105225929Y-96107342D01*
G75*
G02*
X104115350Y-96567359I-785298J325281D01*
G01*
X104115350Y-96567359D01*
G75*
G02*
X103655333Y-95456780I325281J785298D01*
G01*
G37*
G36*
G01*
X100336663Y-96831418D02*
X100336663Y-96831418D01*
G75*
G02*
X101447242Y-96371401I785298J-325281D01*
G01*
X101447242Y-96371401D01*
G75*
G02*
X101907259Y-97481980I-325281J-785298D01*
G01*
X101907259Y-97481980D01*
G75*
G02*
X100796680Y-97941997I-785298J325281D01*
G01*
X100796680Y-97941997D01*
G75*
G02*
X100336663Y-96831418I325281J785298D01*
G01*
G37*
G36*
G01*
X102683317Y-97803434D02*
X102683317Y-97803434D01*
G75*
G02*
X103793896Y-97343417I785298J-325281D01*
G01*
X103793896Y-97343417D01*
G75*
G02*
X104253913Y-98453996I-325281J-785298D01*
G01*
X104253913Y-98453996D01*
G75*
G02*
X103143334Y-98914013I-785298J325281D01*
G01*
X103143334Y-98914013D01*
G75*
G02*
X102683317Y-97803434I325281J785298D01*
G01*
G37*
G36*
G01*
X99364647Y-99178072D02*
X99364647Y-99178072D01*
G75*
G02*
X100475226Y-98718055I785298J-325281D01*
G01*
X100475226Y-98718055D01*
G75*
G02*
X100935243Y-99828634I-325281J-785298D01*
G01*
X100935243Y-99828634D01*
G75*
G02*
X99824664Y-100288651I-785298J325281D01*
G01*
X99824664Y-100288651D01*
G75*
G02*
X99364647Y-99178072I325281J785298D01*
G01*
G37*
G36*
G01*
X101711301Y-100150088D02*
X101711301Y-100150088D01*
G75*
G02*
X102821880Y-99690071I785298J-325281D01*
G01*
X102821880Y-99690071D01*
G75*
G02*
X103281897Y-100800650I-325281J-785298D01*
G01*
X103281897Y-100800650D01*
G75*
G02*
X102171318Y-101260667I-785298J325281D01*
G01*
X102171318Y-101260667D01*
G75*
G02*
X101711301Y-100150088I325281J785298D01*
G01*
G37*
G36*
G01*
X98392631Y-101524726D02*
X98392631Y-101524726D01*
G75*
G02*
X99503210Y-101064709I785298J-325281D01*
G01*
X99503210Y-101064709D01*
G75*
G02*
X99963227Y-102175288I-325281J-785298D01*
G01*
X99963227Y-102175288D01*
G75*
G02*
X98852648Y-102635305I-785298J325281D01*
G01*
X98852648Y-102635305D01*
G75*
G02*
X98392631Y-101524726I325281J785298D01*
G01*
G37*
G36*
G01*
X100739285Y-102496742D02*
X100739285Y-102496742D01*
G75*
G02*
X101849864Y-102036725I785298J-325281D01*
G01*
X101849864Y-102036725D01*
G75*
G02*
X102309881Y-103147304I-325281J-785298D01*
G01*
X102309881Y-103147304D01*
G75*
G02*
X101199302Y-103607321I-785298J325281D01*
G01*
X101199302Y-103607321D01*
G75*
G02*
X100739285Y-102496742I325281J785298D01*
G01*
G37*
G36*
G01*
X97420615Y-103871380D02*
X97420615Y-103871380D01*
G75*
G02*
X98531194Y-103411363I785298J-325281D01*
G01*
X98531194Y-103411363D01*
G75*
G02*
X98991211Y-104521942I-325281J-785298D01*
G01*
X98991211Y-104521942D01*
G75*
G02*
X97880632Y-104981959I-785298J325281D01*
G01*
X97880632Y-104981959D01*
G75*
G02*
X97420615Y-103871380I325281J785298D01*
G01*
G37*
G36*
G01*
X99767269Y-104843396D02*
X99767269Y-104843396D01*
G75*
G02*
X100877848Y-104383379I785298J-325281D01*
G01*
X100877848Y-104383379D01*
G75*
G02*
X101337865Y-105493958I-325281J-785298D01*
G01*
X101337865Y-105493958D01*
G75*
G02*
X100227286Y-105953975I-785298J325281D01*
G01*
X100227286Y-105953975D01*
G75*
G02*
X99767269Y-104843396I325281J785298D01*
G01*
G37*
G36*
G01*
X96448599Y-106218034D02*
X96448599Y-106218034D01*
G75*
G02*
X97559178Y-105758017I785298J-325281D01*
G01*
X97559178Y-105758017D01*
G75*
G02*
X98019195Y-106868596I-325281J-785298D01*
G01*
X98019195Y-106868596D01*
G75*
G02*
X96908616Y-107328613I-785298J325281D01*
G01*
X96908616Y-107328613D01*
G75*
G02*
X96448599Y-106218034I325281J785298D01*
G01*
G37*
G36*
G01*
X98795254Y-107190050D02*
X98795254Y-107190050D01*
G75*
G02*
X99905833Y-106730033I785298J-325281D01*
G01*
X99905833Y-106730033D01*
G75*
G02*
X100365850Y-107840612I-325281J-785298D01*
G01*
X100365850Y-107840612D01*
G75*
G02*
X99255271Y-108300629I-785298J325281D01*
G01*
X99255271Y-108300629D01*
G75*
G02*
X98795254Y-107190050I325281J785298D01*
G01*
G37*
G36*
G01*
X95476584Y-108564688D02*
X95476584Y-108564688D01*
G75*
G02*
X96587163Y-108104671I785298J-325281D01*
G01*
X96587163Y-108104671D01*
G75*
G02*
X97047180Y-109215250I-325281J-785298D01*
G01*
X97047180Y-109215250D01*
G75*
G02*
X95936601Y-109675267I-785298J325281D01*
G01*
X95936601Y-109675267D01*
G75*
G02*
X95476584Y-108564688I325281J785298D01*
G01*
G37*
G36*
G01*
X97823238Y-109536704D02*
X97823238Y-109536704D01*
G75*
G02*
X98933817Y-109076687I785298J-325281D01*
G01*
X98933817Y-109076687D01*
G75*
G02*
X99393834Y-110187266I-325281J-785298D01*
G01*
X99393834Y-110187266D01*
G75*
G02*
X98283255Y-110647283I-785298J325281D01*
G01*
X98283255Y-110647283D01*
G75*
G02*
X97823238Y-109536704I325281J785298D01*
G01*
G37*
%TD*%
D15*
%TO.C,J15*%
X163000000Y-70910000D03*
X155450000Y-70910000D03*
D16*
X161100000Y-69095000D03*
X159850000Y-69095000D03*
X158600000Y-69095000D03*
X157350000Y-69095000D03*
%TD*%
D22*
%TO.C,P1*%
X225365000Y-72947500D03*
X225365000Y-64687500D03*
X231315000Y-64327500D03*
X231315000Y-73307500D03*
D23*
X224115000Y-65217500D03*
D24*
X224115000Y-72417500D03*
%TD*%
D14*
%TO.C,D12*%
G36*
X91666395Y-94506474D02*
G01*
X89818636Y-93741107D01*
X90296991Y-92586258D01*
X92144750Y-93351625D01*
X91666395Y-94506474D01*
G37*
G36*
X90231333Y-97971022D02*
G01*
X88383574Y-97205655D01*
X88861929Y-96050806D01*
X90709688Y-96816173D01*
X90231333Y-97971022D01*
G37*
%TD*%
%TO.C,D6*%
G36*
X98769253Y-79318504D02*
G01*
X99534620Y-77470745D01*
X100689469Y-77949100D01*
X99924102Y-79796859D01*
X98769253Y-79318504D01*
G37*
G36*
X95304705Y-77883442D02*
G01*
X96070072Y-76035683D01*
X97224921Y-76514038D01*
X96459554Y-78361797D01*
X95304705Y-77883442D01*
G37*
%TD*%
%TO.C,D8*%
G36*
X86553687Y-86597922D02*
G01*
X88401446Y-87363289D01*
X87923091Y-88518138D01*
X86075332Y-87752771D01*
X86553687Y-86597922D01*
G37*
G36*
X87988749Y-83133374D02*
G01*
X89836508Y-83898741D01*
X89358153Y-85053590D01*
X87510394Y-84288223D01*
X87988749Y-83133374D01*
G37*
%TD*%
D13*
%TO.C,REF\u002A\u002A*%
X107328980Y-98825440D03*
%TD*%
%TO.C,REF\u002A\u002A*%
X88548980Y-108545442D03*
%TD*%
%TO.C,REF\u002A\u002A*%
X69558980Y-98825440D03*
%TD*%
%TO.C,REF\u002A\u002A*%
X76218980Y-82635440D03*
%TD*%
%TO.C,REF\u002A\u002A*%
X82898979Y-66465442D03*
%TD*%
%TO.C,J8*%
G36*
G01*
X74128730Y-69166185D02*
X74128730Y-69166185D01*
G75*
G02*
X73018151Y-69626202I-785298J325281D01*
G01*
X73018151Y-69626202D01*
G75*
G02*
X72558134Y-68515623I325281J785298D01*
G01*
X72558134Y-68515623D01*
G75*
G02*
X73668713Y-68055606I785298J-325281D01*
G01*
X73668713Y-68055606D01*
G75*
G02*
X74128730Y-69166185I-325281J-785298D01*
G01*
G37*
G36*
G01*
X73156714Y-71512839D02*
X73156714Y-71512839D01*
G75*
G02*
X72046135Y-71972856I-785298J325281D01*
G01*
X72046135Y-71972856D01*
G75*
G02*
X71586118Y-70862277I325281J785298D01*
G01*
X71586118Y-70862277D01*
G75*
G02*
X72696697Y-70402260I785298J-325281D01*
G01*
X72696697Y-70402260D01*
G75*
G02*
X73156714Y-71512839I-325281J-785298D01*
G01*
G37*
G36*
G01*
X72184698Y-73859493D02*
X72184698Y-73859493D01*
G75*
G02*
X71074119Y-74319510I-785298J325281D01*
G01*
X71074119Y-74319510D01*
G75*
G02*
X70614102Y-73208931I325281J785298D01*
G01*
X70614102Y-73208931D01*
G75*
G02*
X71724681Y-72748914I785298J-325281D01*
G01*
X71724681Y-72748914D01*
G75*
G02*
X72184698Y-73859493I-325281J-785298D01*
G01*
G37*
G36*
G01*
X71212682Y-76206147D02*
X71212682Y-76206147D01*
G75*
G02*
X70102103Y-76666164I-785298J325281D01*
G01*
X70102103Y-76666164D01*
G75*
G02*
X69642086Y-75555585I325281J785298D01*
G01*
X69642086Y-75555585D01*
G75*
G02*
X70752665Y-75095568I785298J-325281D01*
G01*
X70752665Y-75095568D01*
G75*
G02*
X71212682Y-76206147I-325281J-785298D01*
G01*
G37*
G36*
G01*
X70240666Y-78552801D02*
X70240666Y-78552801D01*
G75*
G02*
X69130087Y-79012818I-785298J325281D01*
G01*
X69130087Y-79012818D01*
G75*
G02*
X68670070Y-77902239I325281J785298D01*
G01*
X68670070Y-77902239D01*
G75*
G02*
X69780649Y-77442222I785298J-325281D01*
G01*
X69780649Y-77442222D01*
G75*
G02*
X70240666Y-78552801I-325281J-785298D01*
G01*
G37*
D14*
G36*
X69593931Y-80114157D02*
G01*
X68943369Y-81684753D01*
X67372773Y-81034191D01*
X68023335Y-79463595D01*
X69593931Y-80114157D01*
G37*
%TD*%
M02*
