%TF.GenerationSoftware,KiCad,Pcbnew,5.1.6*%
%TF.CreationDate,2020-08-23T11:13:54-07:00*%
%TF.ProjectId,plant_station_v3,706c616e-745f-4737-9461-74696f6e5f76,rev?*%
%TF.SameCoordinates,Original*%
%TF.FileFunction,Legend,Bot*%
%TF.FilePolarity,Positive*%
%FSLAX46Y46*%
G04 Gerber Fmt 4.6, Leading zero omitted, Abs format (unit mm)*
G04 Created by KiCad (PCBNEW 5.1.6) date 2020-08-23 11:13:54*
%MOMM*%
%LPD*%
G01*
G04 APERTURE LIST*
%ADD10C,0.200000*%
%ADD11C,0.100000*%
%ADD12C,0.120000*%
%ADD13C,0.127000*%
%ADD14C,0.150000*%
%ADD15C,0.254000*%
G04 APERTURE END LIST*
D10*
%TO.C,J2*%
X93454363Y-88752722D02*
G75*
G03*
X93269587Y-88676184I-92388J38269D01*
G01*
X93269587Y-88676185D02*
G75*
G03*
X93454363Y-88752721I92388J-38268D01*
G01*
D11*
X96900855Y-91668594D02*
X101014702Y-81736889D01*
X97411572Y-80244424D02*
X98243064Y-80588839D01*
X96885383Y-81514758D02*
X97411572Y-80244424D01*
X93297725Y-90176129D02*
X94129217Y-90520544D01*
X93823915Y-88905794D02*
X93297725Y-90176129D01*
D10*
X93269587Y-88676184D02*
X93269587Y-88676184D01*
X93454363Y-88752721D02*
X93454363Y-88752721D01*
%TO.C,D13*%
X84945523Y-97405155D02*
G75*
G02*
X85130299Y-97481693I92388J-38269D01*
G01*
X85130299Y-97481692D02*
G75*
G02*
X84945523Y-97405156I-92388J38268D01*
G01*
X85130299Y-97481693D02*
X85130299Y-97481693D01*
X84945523Y-97405156D02*
X84945523Y-97405156D01*
D11*
X85003722Y-99485808D02*
X84238355Y-101333567D01*
X83617903Y-98911783D02*
X82852536Y-100759542D01*
D10*
%TO.C,J13*%
X84727451Y-92444062D02*
G75*
G03*
X84912227Y-92520600I92388J-38269D01*
G01*
X84912227Y-92520599D02*
G75*
G03*
X84727451Y-92444063I-92388J38268D01*
G01*
X84727451Y-92444063D02*
X84727451Y-92444063D01*
X84912227Y-92520600D02*
X84912227Y-92520600D01*
D11*
X84357899Y-92290990D02*
X84884089Y-91020655D01*
X84884089Y-91020655D02*
X84052597Y-90676240D01*
X81296431Y-99682026D02*
X80770242Y-100952360D01*
X80770242Y-100952360D02*
X79938750Y-100607945D01*
X81280959Y-89528190D02*
X77167112Y-99459895D01*
D12*
%TO.C,J17*%
X68076850Y-95483519D02*
X65619330Y-94465581D01*
X82680050Y-60228276D02*
X68076850Y-95483519D01*
X80222530Y-59210338D02*
X65619330Y-94465581D01*
X82680050Y-60228276D02*
X80222530Y-59210338D01*
X83166058Y-59054949D02*
X83675027Y-57826189D01*
X83675027Y-57826189D02*
X82446267Y-57317220D01*
D11*
%TO.C,J12*%
X177125000Y-74425001D02*
X187875000Y-74425001D01*
X187875000Y-70525001D02*
X187875000Y-71425001D01*
X186500000Y-70525001D02*
X187875000Y-70525001D01*
X177125000Y-70525001D02*
X177125000Y-71425001D01*
X178500000Y-70525001D02*
X177125000Y-70525001D01*
D10*
X178500000Y-69925001D02*
X178500000Y-69925001D01*
X178500000Y-70125001D02*
X178500000Y-70125001D01*
X178500000Y-70125001D02*
G75*
G03*
X178500000Y-69925001I0J100000D01*
G01*
X178500000Y-69925001D02*
G75*
G03*
X178500000Y-70125001I0J-100000D01*
G01*
D11*
%TO.C,J11*%
X122975000Y-86725000D02*
X122975000Y-97475000D01*
X126875000Y-97475000D02*
X125975000Y-97475000D01*
X126875000Y-96100000D02*
X126875000Y-97475000D01*
X126875000Y-86725000D02*
X125975000Y-86725000D01*
X126875000Y-88100000D02*
X126875000Y-86725000D01*
D10*
X127475000Y-88100000D02*
X127475000Y-88100000D01*
X127275000Y-88100000D02*
X127275000Y-88100000D01*
X127275000Y-88100000D02*
G75*
G03*
X127475000Y-88100000I100000J0D01*
G01*
X127475000Y-88100000D02*
G75*
G03*
X127275000Y-88100000I-100000J0D01*
G01*
%TO.C,J6*%
X92967810Y-63926761D02*
G75*
G03*
X92783034Y-63850225I-92388J38268D01*
G01*
X92783034Y-63850224D02*
G75*
G03*
X92967810Y-63926762I92388J-38269D01*
G01*
X92783034Y-63850225D02*
X92783034Y-63850225D01*
X92967810Y-63926762D02*
X92967810Y-63926762D01*
D11*
X92413482Y-63697152D02*
X92939672Y-62426817D01*
X92939672Y-62426817D02*
X92108180Y-62082402D01*
X89352014Y-71088188D02*
X88825825Y-72358522D01*
X88825825Y-72358522D02*
X87994333Y-72014107D01*
X89336542Y-60934352D02*
X85222695Y-70866057D01*
D10*
%TO.C,LEDDRV1*%
X148325000Y-67520000D02*
G75*
G03*
X148325000Y-67520000I-100000J0D01*
G01*
%TO.C,D9*%
X93001105Y-68811317D02*
G75*
G02*
X93185881Y-68887855I92388J-38269D01*
G01*
X93185881Y-68887854D02*
G75*
G02*
X93001105Y-68811318I-92388J38268D01*
G01*
X93185881Y-68887855D02*
X93185881Y-68887855D01*
X93001105Y-68811318D02*
X93001105Y-68811318D01*
D11*
X93059304Y-70891970D02*
X92293937Y-72739729D01*
X91673485Y-70317945D02*
X90908118Y-72165704D01*
D12*
%TO.C,C1*%
X145327064Y-68430000D02*
X144122936Y-68430000D01*
X145327064Y-66610000D02*
X144122936Y-66610000D01*
D11*
%TO.C,J14*%
X161125000Y-65895000D02*
X161125000Y-65895000D01*
X161225000Y-65895000D02*
X161225000Y-65895000D01*
X155100000Y-60895000D02*
X155100000Y-61595000D01*
X163350000Y-60895000D02*
X155100000Y-60895000D01*
X163350000Y-61595000D02*
X163350000Y-60895000D01*
X155100000Y-65095000D02*
X155100000Y-64595000D01*
X156725000Y-65095000D02*
X155100000Y-65095000D01*
X163350000Y-65095000D02*
X163350000Y-64595000D01*
X161725000Y-65095000D02*
X163350000Y-65095000D01*
X161225000Y-65895000D02*
G75*
G02*
X161125000Y-65895000I-50000J0D01*
G01*
X161125000Y-65895000D02*
G75*
G02*
X161225000Y-65895000I50000J0D01*
G01*
D12*
%TO.C,R1*%
X143966422Y-68910000D02*
X144483578Y-68910000D01*
X143966422Y-70330000D02*
X144483578Y-70330000D01*
D10*
%TO.C,J4*%
X89426571Y-103049641D02*
G75*
G03*
X89241795Y-102973103I-92388J38269D01*
G01*
X89241795Y-102973104D02*
G75*
G03*
X89426571Y-103049640I92388J-38268D01*
G01*
X89426571Y-103049640D02*
X89426571Y-103049640D01*
X89241795Y-102973103D02*
X89241795Y-102973103D01*
D11*
X89796123Y-103202713D02*
X89269933Y-104473048D01*
X89269933Y-104473048D02*
X90101425Y-104817463D01*
X92857591Y-95811677D02*
X93383780Y-94541343D01*
X93383780Y-94541343D02*
X94215272Y-94885758D01*
X92873063Y-105965513D02*
X96986910Y-96033808D01*
D10*
%TO.C,J20*%
X151225000Y-64720000D02*
X151225000Y-64720000D01*
X151225000Y-64920000D02*
X151225000Y-64920000D01*
D11*
X151225000Y-64320000D02*
X152600000Y-64320000D01*
X152600000Y-64320000D02*
X152600000Y-63420000D01*
X143225000Y-64320000D02*
X141850000Y-64320000D01*
X141850000Y-64320000D02*
X141850000Y-63420000D01*
X152600000Y-60420000D02*
X141850000Y-60420000D01*
D10*
X151225000Y-64720000D02*
G75*
G03*
X151225000Y-64920000I0J-100000D01*
G01*
X151225000Y-64920000D02*
G75*
G03*
X151225000Y-64720000I0J100000D01*
G01*
D12*
%TO.C,C2*%
X144122936Y-71760000D02*
X145327064Y-71760000D01*
X144122936Y-73580000D02*
X145327064Y-73580000D01*
D10*
%TO.C,J5*%
X88940019Y-78223680D02*
G75*
G03*
X88755243Y-78147144I-92388J38268D01*
G01*
X88755243Y-78147143D02*
G75*
G03*
X88940019Y-78223681I92388J-38269D01*
G01*
X88755243Y-78147144D02*
X88755243Y-78147144D01*
X88940019Y-78223681D02*
X88940019Y-78223681D01*
D11*
X88385691Y-77994071D02*
X88911881Y-76723736D01*
X88911881Y-76723736D02*
X88080389Y-76379321D01*
X85324223Y-85385107D02*
X84798034Y-86655441D01*
X84798034Y-86655441D02*
X83966542Y-86311026D01*
X85308751Y-75231271D02*
X81194904Y-85162976D01*
%TO.C,J15*%
X157325000Y-68195000D02*
X157325000Y-68195000D01*
X157225000Y-68195000D02*
X157225000Y-68195000D01*
X163350000Y-73195000D02*
X163350000Y-72495000D01*
X155100000Y-73195000D02*
X163350000Y-73195000D01*
X155100000Y-72495000D02*
X155100000Y-73195000D01*
X163350000Y-68995000D02*
X163350000Y-69495000D01*
X161725000Y-68995000D02*
X163350000Y-68995000D01*
X155100000Y-68995000D02*
X155100000Y-69495000D01*
X156725000Y-68995000D02*
X155100000Y-68995000D01*
X157225000Y-68195000D02*
G75*
G02*
X157325000Y-68195000I50000J0D01*
G01*
X157325000Y-68195000D02*
G75*
G02*
X157225000Y-68195000I-50000J0D01*
G01*
D10*
%TO.C,D12*%
X89246768Y-97996160D02*
G75*
G02*
X89061992Y-97919622I-92388J38269D01*
G01*
X89061992Y-97919623D02*
G75*
G02*
X89246768Y-97996159I92388J-38268D01*
G01*
X89061992Y-97919622D02*
X89061992Y-97919622D01*
X89246768Y-97996159D02*
X89246768Y-97996159D01*
D11*
X89188569Y-95915507D02*
X89953936Y-94067748D01*
X90574388Y-96489532D02*
X91339755Y-94641773D01*
D10*
%TO.C,D6*%
X95279567Y-76898877D02*
G75*
G02*
X95356105Y-76714101I38269J92388D01*
G01*
X95356104Y-76714101D02*
G75*
G02*
X95279568Y-76898877I-38268J-92388D01*
G01*
X95356105Y-76714101D02*
X95356105Y-76714101D01*
X95279568Y-76898877D02*
X95279568Y-76898877D01*
D11*
X97360220Y-76840678D02*
X99207979Y-77606045D01*
X96786195Y-78226497D02*
X98633954Y-78991864D01*
D10*
%TO.C,D8*%
X88973314Y-83108236D02*
G75*
G02*
X89158090Y-83184774I92388J-38269D01*
G01*
X89158090Y-83184773D02*
G75*
G02*
X88973314Y-83108237I-92388J38268D01*
G01*
X89158090Y-83184774D02*
X89158090Y-83184774D01*
X88973314Y-83108237D02*
X88973314Y-83108237D01*
D11*
X89031513Y-85188889D02*
X88266146Y-87036648D01*
X87645694Y-84614864D02*
X86880327Y-86462623D01*
%TO.C,J2*%
D13*
X96500677Y-85324179D02*
X97160591Y-85597524D01*
X97310796Y-85608199D01*
X97435231Y-85556657D01*
X97533894Y-85442897D01*
X97570340Y-85354908D01*
X96424658Y-85756573D02*
X96362441Y-85782345D01*
X96282000Y-85852110D01*
X96190885Y-86072081D01*
X96198433Y-86178293D01*
X96224205Y-86240510D01*
X96293970Y-86320951D01*
X96381959Y-86357397D01*
X96532165Y-86368071D01*
X97278772Y-86058816D01*
X97041873Y-86630742D01*
%TO.C,D13*%
X84906432Y-98942969D02*
X83982552Y-98560286D01*
X83891437Y-98780257D01*
X83880763Y-98930463D01*
X83932305Y-99054898D01*
X84002071Y-99135338D01*
X84159825Y-99252224D01*
X84291807Y-99306893D01*
X84486007Y-99335791D01*
X84592219Y-99328243D01*
X84716654Y-99276701D01*
X84815317Y-99162941D01*
X84906432Y-98942969D01*
X84323295Y-100350786D02*
X84541972Y-99822855D01*
X84432633Y-100086820D02*
X83508754Y-99704137D01*
X83677183Y-99670817D01*
X83801617Y-99619275D01*
X83882058Y-99549509D01*
X83271855Y-100276062D02*
X83034955Y-100847988D01*
X83514471Y-100685812D01*
X83459802Y-100817795D01*
X83467350Y-100924006D01*
X83493121Y-100986224D01*
X83562887Y-101066664D01*
X83782858Y-101157779D01*
X83889069Y-101150231D01*
X83951287Y-101124460D01*
X84031727Y-101054694D01*
X84141065Y-100790729D01*
X84133517Y-100684517D01*
X84107746Y-100622300D01*
%TO.C,J13*%
X81106621Y-94397612D02*
X81766535Y-94670958D01*
X81916741Y-94681632D01*
X82041175Y-94630090D01*
X82139838Y-94516330D01*
X82176285Y-94428342D01*
X81647817Y-95704175D02*
X81866493Y-95176244D01*
X81757155Y-95440210D02*
X80833276Y-95057526D01*
X81001704Y-95024207D01*
X81126139Y-94972664D01*
X81206579Y-94902899D01*
X80596376Y-95629452D02*
X80359477Y-96201377D01*
X80838992Y-96039201D01*
X80784323Y-96171184D01*
X80791871Y-96277396D01*
X80817643Y-96339613D01*
X80887408Y-96420053D01*
X81107379Y-96511168D01*
X81213591Y-96503620D01*
X81275808Y-96477849D01*
X81356249Y-96408083D01*
X81465587Y-96144118D01*
X81458038Y-96037906D01*
X81432267Y-95975689D01*
%TO.C,J17*%
D14*
X84146525Y-58314251D02*
X84806439Y-58587597D01*
X84956645Y-58598271D01*
X85081079Y-58546729D01*
X85179742Y-58432969D01*
X85216189Y-58344981D01*
X84687721Y-59620814D02*
X84906397Y-59092883D01*
X84797059Y-59356849D02*
X83873180Y-58974165D01*
X84041608Y-58940846D01*
X84166043Y-58889303D01*
X84246483Y-58819538D01*
X83636280Y-59546091D02*
X83381158Y-60162010D01*
X84469045Y-60148745D01*
%TO.C,J12*%
X187809523Y-75302380D02*
X187809523Y-76016666D01*
X187857142Y-76159523D01*
X187952380Y-76254761D01*
X188095238Y-76302380D01*
X188190476Y-76302380D01*
X186809523Y-76302380D02*
X187380952Y-76302380D01*
X187095238Y-76302380D02*
X187095238Y-75302380D01*
X187190476Y-75445238D01*
X187285714Y-75540476D01*
X187380952Y-75588095D01*
X186428571Y-75397619D02*
X186380952Y-75350000D01*
X186285714Y-75302380D01*
X186047619Y-75302380D01*
X185952380Y-75350000D01*
X185904761Y-75397619D01*
X185857142Y-75492857D01*
X185857142Y-75588095D01*
X185904761Y-75730952D01*
X186476190Y-76302380D01*
X185857142Y-76302380D01*
%TO.C,J11*%
D15*
X124529523Y-91071904D02*
X125436666Y-91071904D01*
X125618095Y-91011428D01*
X125739047Y-90890476D01*
X125799523Y-90709047D01*
X125799523Y-90588095D01*
X125799523Y-92341904D02*
X125799523Y-91616190D01*
X125799523Y-91979047D02*
X124529523Y-91979047D01*
X124710952Y-91858095D01*
X124831904Y-91737142D01*
X124892380Y-91616190D01*
X125799523Y-93551428D02*
X125799523Y-92825714D01*
X125799523Y-93188571D02*
X124529523Y-93188571D01*
X124710952Y-93067619D01*
X124831904Y-92946666D01*
X124892380Y-92825714D01*
%TO.C,J6*%
D13*
X88979974Y-66243717D02*
X89639888Y-66517062D01*
X89790093Y-66527737D01*
X89914528Y-66476195D01*
X90013191Y-66362435D01*
X90049637Y-66274446D01*
X88633736Y-67079608D02*
X88706628Y-66903631D01*
X88787069Y-66833865D01*
X88849286Y-66808094D01*
X89017715Y-66774775D01*
X89211915Y-66803672D01*
X89563869Y-66949457D01*
X89633634Y-67029897D01*
X89659406Y-67092114D01*
X89666954Y-67198326D01*
X89594062Y-67374303D01*
X89513621Y-67444068D01*
X89451404Y-67469840D01*
X89345193Y-67477388D01*
X89125221Y-67386273D01*
X89055456Y-67305832D01*
X89029685Y-67243615D01*
X89022136Y-67137404D01*
X89095028Y-66961427D01*
X89175469Y-66891661D01*
X89237686Y-66865890D01*
X89343898Y-66858342D01*
%TO.C,LEDDRV1*%
D15*
X153460476Y-74244523D02*
X154065238Y-74244523D01*
X154065238Y-72974523D01*
X153037142Y-73579285D02*
X152613809Y-73579285D01*
X152432380Y-74244523D02*
X153037142Y-74244523D01*
X153037142Y-72974523D01*
X152432380Y-72974523D01*
X151888095Y-74244523D02*
X151888095Y-72974523D01*
X151585714Y-72974523D01*
X151404285Y-73035000D01*
X151283333Y-73155952D01*
X151222857Y-73276904D01*
X151162380Y-73518809D01*
X151162380Y-73700238D01*
X151222857Y-73942142D01*
X151283333Y-74063095D01*
X151404285Y-74184047D01*
X151585714Y-74244523D01*
X151888095Y-74244523D01*
X150618095Y-74244523D02*
X150618095Y-72974523D01*
X150315714Y-72974523D01*
X150134285Y-73035000D01*
X150013333Y-73155952D01*
X149952857Y-73276904D01*
X149892380Y-73518809D01*
X149892380Y-73700238D01*
X149952857Y-73942142D01*
X150013333Y-74063095D01*
X150134285Y-74184047D01*
X150315714Y-74244523D01*
X150618095Y-74244523D01*
X148622380Y-74244523D02*
X149045714Y-73639761D01*
X149348095Y-74244523D02*
X149348095Y-72974523D01*
X148864285Y-72974523D01*
X148743333Y-73035000D01*
X148682857Y-73095476D01*
X148622380Y-73216428D01*
X148622380Y-73397857D01*
X148682857Y-73518809D01*
X148743333Y-73579285D01*
X148864285Y-73639761D01*
X149348095Y-73639761D01*
X148259523Y-72974523D02*
X147836190Y-74244523D01*
X147412857Y-72974523D01*
X146324285Y-74244523D02*
X147050000Y-74244523D01*
X146687142Y-74244523D02*
X146687142Y-72974523D01*
X146808095Y-73155952D01*
X146929047Y-73276904D01*
X147050000Y-73337380D01*
%TO.C,D9*%
D13*
X92779784Y-70789074D02*
X91855904Y-70406391D01*
X91764789Y-70626362D01*
X91754114Y-70776568D01*
X91805657Y-70901002D01*
X91875422Y-70981443D01*
X92033176Y-71098329D01*
X92165159Y-71152998D01*
X92359359Y-71181896D01*
X92465571Y-71174348D01*
X92590005Y-71122805D01*
X92688669Y-71009045D01*
X92779784Y-70789074D01*
X92378877Y-71756948D02*
X92305985Y-71932925D01*
X92225545Y-72002690D01*
X92163328Y-72028462D01*
X91994899Y-72061781D01*
X91800699Y-72032883D01*
X91448745Y-71887099D01*
X91378979Y-71806659D01*
X91353208Y-71744442D01*
X91345660Y-71638230D01*
X91418552Y-71462253D01*
X91498992Y-71392487D01*
X91561209Y-71366716D01*
X91667421Y-71359168D01*
X91887392Y-71450283D01*
X91957158Y-71530723D01*
X91982929Y-71592941D01*
X91990477Y-71699152D01*
X91917585Y-71875129D01*
X91837145Y-71944895D01*
X91774928Y-71970666D01*
X91668716Y-71978214D01*
%TO.C,C1*%
D14*
X144891666Y-66057142D02*
X144939285Y-66104761D01*
X145082142Y-66152380D01*
X145177380Y-66152380D01*
X145320238Y-66104761D01*
X145415476Y-66009523D01*
X145463095Y-65914285D01*
X145510714Y-65723809D01*
X145510714Y-65580952D01*
X145463095Y-65390476D01*
X145415476Y-65295238D01*
X145320238Y-65200000D01*
X145177380Y-65152380D01*
X145082142Y-65152380D01*
X144939285Y-65200000D01*
X144891666Y-65247619D01*
X143939285Y-66152380D02*
X144510714Y-66152380D01*
X144225000Y-66152380D02*
X144225000Y-65152380D01*
X144320238Y-65295238D01*
X144415476Y-65390476D01*
X144510714Y-65438095D01*
%TO.C,J14*%
D15*
X160253095Y-62724523D02*
X160253095Y-63631666D01*
X160313571Y-63813095D01*
X160434523Y-63934047D01*
X160615952Y-63994523D01*
X160736904Y-63994523D01*
X158983095Y-63994523D02*
X159708809Y-63994523D01*
X159345952Y-63994523D02*
X159345952Y-62724523D01*
X159466904Y-62905952D01*
X159587857Y-63026904D01*
X159708809Y-63087380D01*
X157894523Y-63147857D02*
X157894523Y-63994523D01*
X158196904Y-62664047D02*
X158499285Y-63571190D01*
X157713095Y-63571190D01*
%TO.C,R1*%
D14*
X144391666Y-71722380D02*
X144725000Y-71246190D01*
X144963095Y-71722380D02*
X144963095Y-70722380D01*
X144582142Y-70722380D01*
X144486904Y-70770000D01*
X144439285Y-70817619D01*
X144391666Y-70912857D01*
X144391666Y-71055714D01*
X144439285Y-71150952D01*
X144486904Y-71198571D01*
X144582142Y-71246190D01*
X144963095Y-71246190D01*
X143439285Y-71722380D02*
X144010714Y-71722380D01*
X143725000Y-71722380D02*
X143725000Y-70722380D01*
X143820238Y-70865238D01*
X143915476Y-70960476D01*
X144010714Y-71008095D01*
%TO.C,J4*%
D13*
X92472885Y-99621098D02*
X93132799Y-99894443D01*
X93283004Y-99905118D01*
X93407439Y-99853576D01*
X93506102Y-99739816D01*
X93542548Y-99651827D01*
X92434607Y-100584550D02*
X93050527Y-100839672D01*
X92173768Y-100218795D02*
X92924797Y-100272169D01*
X92687898Y-100844094D01*
%TO.C,J20*%
D15*
X148253095Y-61974523D02*
X148253095Y-62881666D01*
X148313571Y-63063095D01*
X148434523Y-63184047D01*
X148615952Y-63244523D01*
X148736904Y-63244523D01*
X147708809Y-62095476D02*
X147648333Y-62035000D01*
X147527380Y-61974523D01*
X147225000Y-61974523D01*
X147104047Y-62035000D01*
X147043571Y-62095476D01*
X146983095Y-62216428D01*
X146983095Y-62337380D01*
X147043571Y-62518809D01*
X147769285Y-63244523D01*
X146983095Y-63244523D01*
X146196904Y-61974523D02*
X146075952Y-61974523D01*
X145955000Y-62035000D01*
X145894523Y-62095476D01*
X145834047Y-62216428D01*
X145773571Y-62458333D01*
X145773571Y-62760714D01*
X145834047Y-63002619D01*
X145894523Y-63123571D01*
X145955000Y-63184047D01*
X146075952Y-63244523D01*
X146196904Y-63244523D01*
X146317857Y-63184047D01*
X146378333Y-63123571D01*
X146438809Y-63002619D01*
X146499285Y-62760714D01*
X146499285Y-62458333D01*
X146438809Y-62216428D01*
X146378333Y-62095476D01*
X146317857Y-62035000D01*
X146196904Y-61974523D01*
%TO.C,C2*%
D14*
X144891666Y-74847142D02*
X144939285Y-74894761D01*
X145082142Y-74942380D01*
X145177380Y-74942380D01*
X145320238Y-74894761D01*
X145415476Y-74799523D01*
X145463095Y-74704285D01*
X145510714Y-74513809D01*
X145510714Y-74370952D01*
X145463095Y-74180476D01*
X145415476Y-74085238D01*
X145320238Y-73990000D01*
X145177380Y-73942380D01*
X145082142Y-73942380D01*
X144939285Y-73990000D01*
X144891666Y-74037619D01*
X144510714Y-74037619D02*
X144463095Y-73990000D01*
X144367857Y-73942380D01*
X144129761Y-73942380D01*
X144034523Y-73990000D01*
X143986904Y-74037619D01*
X143939285Y-74132857D01*
X143939285Y-74228095D01*
X143986904Y-74370952D01*
X144558333Y-74942380D01*
X143939285Y-74942380D01*
%TO.C,J5*%
D13*
X84952183Y-80540636D02*
X85612097Y-80813981D01*
X85762302Y-80824656D01*
X85886737Y-80773114D01*
X85985400Y-80659354D01*
X86021846Y-80571365D01*
X84587722Y-81420521D02*
X84769952Y-80980579D01*
X85228118Y-81118814D01*
X85165901Y-81144586D01*
X85085460Y-81214351D01*
X84994345Y-81434323D01*
X85001894Y-81540534D01*
X85027665Y-81602751D01*
X85097430Y-81683192D01*
X85317402Y-81774307D01*
X85423613Y-81766759D01*
X85485830Y-81740987D01*
X85566271Y-81671222D01*
X85657386Y-81451251D01*
X85649838Y-81345039D01*
X85624066Y-81282822D01*
%TO.C,J15*%
D15*
X160253095Y-69974523D02*
X160253095Y-70881666D01*
X160313571Y-71063095D01*
X160434523Y-71184047D01*
X160615952Y-71244523D01*
X160736904Y-71244523D01*
X158983095Y-71244523D02*
X159708809Y-71244523D01*
X159345952Y-71244523D02*
X159345952Y-69974523D01*
X159466904Y-70155952D01*
X159587857Y-70276904D01*
X159708809Y-70337380D01*
X157834047Y-69974523D02*
X158438809Y-69974523D01*
X158499285Y-70579285D01*
X158438809Y-70518809D01*
X158317857Y-70458333D01*
X158015476Y-70458333D01*
X157894523Y-70518809D01*
X157834047Y-70579285D01*
X157773571Y-70700238D01*
X157773571Y-71002619D01*
X157834047Y-71123571D01*
X157894523Y-71184047D01*
X158015476Y-71244523D01*
X158317857Y-71244523D01*
X158438809Y-71184047D01*
X158499285Y-71123571D01*
%TO.C,D12*%
D13*
X91051123Y-94560874D02*
X90127243Y-94178191D01*
X90036128Y-94398162D01*
X90025454Y-94548368D01*
X90076996Y-94672803D01*
X90146762Y-94753243D01*
X90304516Y-94870129D01*
X90436498Y-94924798D01*
X90630698Y-94953696D01*
X90736910Y-94946148D01*
X90861345Y-94894606D01*
X90960008Y-94780846D01*
X91051123Y-94560874D01*
X90467986Y-95968691D02*
X90686663Y-95440760D01*
X90577324Y-95704725D02*
X89653445Y-95322042D01*
X89821874Y-95288722D01*
X89946308Y-95237180D01*
X90026749Y-95167414D01*
X89486311Y-95974408D02*
X89424094Y-96000179D01*
X89343654Y-96069944D01*
X89252539Y-96289916D01*
X89260087Y-96396127D01*
X89285858Y-96458345D01*
X89355623Y-96538785D01*
X89443612Y-96575231D01*
X89593818Y-96585906D01*
X90340425Y-96276651D01*
X90103526Y-96848576D01*
%TO.C,D6*%
X98274909Y-78521002D02*
X98657592Y-77597122D01*
X98437621Y-77506007D01*
X98287415Y-77495332D01*
X98162981Y-77546875D01*
X98082540Y-77616640D01*
X97965654Y-77774394D01*
X97910985Y-77906377D01*
X97882087Y-78100577D01*
X97889635Y-78206789D01*
X97941178Y-78331223D01*
X98054938Y-78429887D01*
X98274909Y-78521002D01*
X97337764Y-77050432D02*
X97513741Y-77123324D01*
X97583507Y-77203764D01*
X97609278Y-77265981D01*
X97642598Y-77434410D01*
X97613700Y-77628610D01*
X97467916Y-77980564D01*
X97387475Y-78050330D01*
X97325258Y-78076101D01*
X97219047Y-78083649D01*
X97043070Y-78010757D01*
X96973304Y-77930317D01*
X96947533Y-77868100D01*
X96939985Y-77761888D01*
X97031100Y-77541917D01*
X97111540Y-77472151D01*
X97173757Y-77446380D01*
X97279969Y-77438832D01*
X97455946Y-77511724D01*
X97525711Y-77592164D01*
X97551483Y-77654381D01*
X97559031Y-77760593D01*
%TO.C,D8*%
X88751993Y-85085993D02*
X87828113Y-84703310D01*
X87736998Y-84923281D01*
X87726323Y-85073487D01*
X87777866Y-85197921D01*
X87847631Y-85278362D01*
X88005385Y-85395248D01*
X88137368Y-85449917D01*
X88331568Y-85478815D01*
X88437780Y-85471267D01*
X88562214Y-85419724D01*
X88660878Y-85305964D01*
X88751993Y-85085993D01*
X87786709Y-85923179D02*
X87779161Y-85816968D01*
X87753390Y-85754750D01*
X87683624Y-85674310D01*
X87639630Y-85656087D01*
X87533418Y-85663635D01*
X87471201Y-85689406D01*
X87390761Y-85759172D01*
X87317869Y-85935149D01*
X87325417Y-86041361D01*
X87351188Y-86103578D01*
X87420954Y-86184018D01*
X87464948Y-86202241D01*
X87571159Y-86194693D01*
X87633377Y-86168922D01*
X87713817Y-86099156D01*
X87786709Y-85923179D01*
X87867149Y-85853414D01*
X87929367Y-85827642D01*
X88035578Y-85820094D01*
X88211555Y-85892986D01*
X88281321Y-85973427D01*
X88307092Y-86035644D01*
X88314640Y-86141855D01*
X88241748Y-86317832D01*
X88161308Y-86387598D01*
X88099091Y-86413369D01*
X87992879Y-86420917D01*
X87816902Y-86348025D01*
X87747137Y-86267585D01*
X87721365Y-86205368D01*
X87713817Y-86099156D01*
%TD*%
M02*
