M48
; DRILL file {KiCad 5.1.6} date Sun Aug 23 11:13:50 2020
; FORMAT={-:-/ absolute / inch / decimal}
; #@! TF.CreationDate,2020-08-23T11:13:50-07:00
; #@! TF.GenerationSoftware,Kicad,Pcbnew,5.1.6
; #@! TF.FileFunction,Plated,1,2,PTH
FMAT,2
INCH
T1C0.0157
T2C0.0197
T3C0.0315
T4C0.0394
%
G90
G05
T1
X2.9846Y-3.5047
X3.015Y-3.6879
X3.0303Y-3.6515
X3.0454Y-3.6152
X3.0755Y-3.5424
X3.1299Y-3.1281
X3.2497Y-3.801
X3.2685Y-3.7555
X3.3627Y-3.7449
X3.3748Y-2.5371
X3.3898Y-2.5007
X3.4128Y-3.7673
X3.4459Y-3.1472
X3.4491Y-4.0507
X3.4657Y-3.1021
X3.4689Y-2.3098
X3.543Y-2.9796
X3.5945Y-2.5802
X3.6173Y-3.0982
X3.6333Y-2.543
X3.6785Y-3.707
X3.7089Y-3.4692
X3.8055Y-2.886
X3.8439Y-3.7605
X3.9057Y-3.6988
X3.9064Y-3.7587
X3.9254Y-2.8378
X4.1165Y-3.4417
X4.8031Y-3.2578
X4.8031Y-3.3601
X4.8228Y-3.4832
X4.8878Y-3.7203
X4.9793Y-3.9075
X4.9931Y-3.503
X4.9931Y-3.5522
X4.9931Y-3.6014
X4.9931Y-3.6506
X4.9931Y-3.6998
X4.9931Y-3.749
X5.0581Y-3.6417
X5.0581Y-3.9075
X5.0778Y-3.6909
X5.0974Y-3.7402
X5.1329Y-3.0571
X5.1329Y-3.1555
X5.1329Y-4.0709
X5.1329Y-4.1693
X5.2436Y-3.4215
X5.6412Y-2.7409
X5.6427Y-2.6583
X5.6427Y-2.861
X5.753Y-2.861
X5.8159Y-2.5854
X5.8159Y-2.6248
X5.8159Y-2.6642
X5.8701Y-2.5303
X5.8848Y-2.7232
X5.9439Y-2.7823
X5.9537Y-2.9594
X6.003Y-2.9791
X6.0522Y-2.9988
X6.062Y-2.5657
X6.1014Y-2.5756
X6.1407Y-2.5854
X6.1949Y-2.5067
X6.3425Y-2.7203
X6.4163Y-2.5756
X6.4459Y-2.615
X6.4754Y-2.6543
X7.0077Y-2.9469
X7.0315Y-3.0157
X7.062Y-2.7785
X7.1112Y-2.7785
X7.1604Y-2.7795
X7.185Y-2.7303
X7.2096Y-2.7785
X7.2677Y-2.9134
X7.3081Y-2.7785
X7.3268Y-3.0177
X7.3425Y-2.937
X7.8868Y-2.8993
X8.1388Y-2.5691
X8.1585Y-2.8255
X8.188Y-2.3919
X8.188Y-2.6085
X8.2667Y-2.3919
X8.3159Y-2.8348
X8.3553Y-2.8348
X8.3947Y-2.8348
X8.4222Y-2.3919
X8.4537Y-2.8348
X8.5423Y-2.3919
X8.5423Y-2.5925
X8.5423Y-2.7069
X8.6407Y-2.3919
X8.6407Y-2.7069
X8.6447Y-2.8553
X8.7293Y-2.7659
X8.904Y-2.7094
T3
X5.4419Y-3.4252
X5.4419Y-3.8189
X5.5207Y-3.622
T4
X4.8081Y-3.9887
X4.9081Y-3.9887
X7.9132Y-3.0652
X8.0132Y-3.0652
X8.1132Y-3.0652
X8.2132Y-3.0652
X8.3132Y-3.0652
X8.4132Y-3.0652
X8.5132Y-3.0652
X8.6132Y-3.0652
X2.6519Y-3.6908
X2.6901Y-3.5984
X2.7284Y-3.506
X2.7667Y-3.4136
X2.8049Y-3.3212
X2.8432Y-3.2288
X2.8815Y-3.1365
X2.9197Y-3.0441
X2.958Y-2.9517
X2.9963Y-2.8593
X3.0345Y-2.7669
X3.0728Y-2.6745
X3.1111Y-2.5821
X3.1493Y-2.4897
X3.1876Y-2.3973
X3.2259Y-2.305
X3.0133Y-4.0919
X3.1056Y-4.1302
X3.198Y-4.1684
X3.2904Y-4.2067
X3.7898Y-4.287
X3.8281Y-4.1946
X3.8664Y-4.1022
X3.8822Y-4.3253
X3.9046Y-4.0098
X3.9205Y-4.2329
X3.9429Y-3.9175
X3.9588Y-4.1405
X3.9812Y-3.8251
X3.997Y-4.0481
X4.0194Y-3.7327
X4.0353Y-3.9557
X4.0577Y-3.6403
X4.0736Y-3.8633
X4.1118Y-3.7709
X4.1501Y-3.6786
X7.9207Y-2.4313
X8.0207Y-2.4313
X2.6962Y-3.1722
X2.7345Y-3.0798
X2.7727Y-2.9874
X2.811Y-2.895
X2.8493Y-2.8027
X2.8875Y-2.7103
X7.7451Y-2.4594
X7.7451Y-2.5594
X7.7451Y-2.6594
X7.7451Y-2.7594
X7.7451Y-2.8594
X7.7451Y-2.9594
X2.9568Y-4.2283
X3.0492Y-4.2666
X3.1415Y-4.3048
X3.2339Y-4.3431
T2
G00X8.8608Y-2.5468
M15
G01X8.8844Y-2.5468
M16
G05
G00X8.8608Y-2.8719
M15
G01X8.8844Y-2.8719
M16
G05
G00X9.0951Y-2.5326
M15
G01X9.1187Y-2.5326
M16
G05
G00X9.0951Y-2.8861
M15
G01X9.1187Y-2.8861
M16
G05
T0
M30
