  0
SECTION
  2
HEADER
  9
$ACADVER
  1
AC1014
  9
$HANDSEED
  5
FFFF
  9
$MEASUREMENT
 70
     1
  0
ENDSEC
  0
SECTION
  2
TABLES
  0
TABLE
  2
VPORT
  5
8
330
0
100
AcDbSymbolTable
 70
     4
  0
VPORT
  5
2E
330
8
100
AcDbSymbolTableRecord
100
AcDbViewportTableRecord
  2
*ACTIVE
 70
     0
 10
0.0
 20
0.0
 11
1.0
 21
1.0
 12
210.0
 22
148.5
 13
0.0
 23
0.0
 14
10.0
 24
10.0
 15
10.0
 25
10.0
 16
0.0
 26
0.0
 36
1.0
 17
0.0
 27
0.0
 37
0.0
 40
341.0
 41
1.24
 42
50.0
 43
0.0
 44
0.0
 50
0.0
 51
0.0
 71
     0
 72
   100
 73
     1
 74
     3
 75
     0
 76
     0
 77
     0
 78
     0
  0
ENDTAB
  0
TABLE
  2
LTYPE
  5
5
330
0
100
AcDbSymbolTable
 70
     1
  0
LTYPE
  5
14
330
5
100
AcDbSymbolTableRecord
100
AcDbLinetypeTableRecord
  2
BYBLOCK
 70
     0
  3

 72
    65
 73
     0
 40
0.0
  0
LTYPE
  5
15
330
5
100
AcDbSymbolTableRecord
100
AcDbLinetypeTableRecord
  2
BYLAYER
 70
     0
  3

 72
    65
 73
     0
 40
0.0
  0
LTYPE
  5
16
330
5
100
AcDbSymbolTableRecord
100
AcDbLinetypeTableRecord
  2
CONTINUOUS
 70
     0
  3
Solid line
 72
    65
 73
     0
 40
0.0
  0
ENDTAB
  0
TABLE
  2
LAYER
  5
2
100
AcDbSymbolTable
 70
2
  0
LAYER
  5
50
100
AcDbSymbolTableRecord
100
AcDbLayerTableRecord
  2
0
 70
0
  6
CONTINUOUS
  0
LAYER
  5
51
100
AcDbSymbolTableRecord
100
AcDbLayerTableRecord
  2
Layer_1
 70
0
  6
CONTINUOUS
  0
ENDTAB
  0
TABLE
  2
STYLE
  5
3
330
0
100
AcDbSymbolTable
 70
     1
  0
STYLE
  5
11
330
3
100
AcDbSymbolTableRecord
100
AcDbTextStyleTableRecord
  2
STANDARD
 70
     0
 40
0.0
 41
1.0
 50
0.0
 71
     0
 42
2.5
  3
txt
  4

  0
ENDTAB
  0
TABLE
  2
VIEW
  5
6
330
0
100
AcDbSymbolTable
 70
     0
  0
ENDTAB
  0
TABLE
  2
UCS
  5
7
330
0
100
AcDbSymbolTable
 70
     0
  0
ENDTAB
  0
TABLE
  2
APPID
  5
9
330
0
100
AcDbSymbolTable
 70
     2
  0
APPID
  5
12
330
9
100
AcDbSymbolTableRecord
100
AcDbRegAppTableRecord
  2
ACAD
 70
     0
  0
ENDTAB
  0
TABLE
  2
DIMSTYLE
  5
A
330
0
100
AcDbSymbolTable
 70
     1
  0
DIMSTYLE
105
27
330
A
100
AcDbSymbolTableRecord
100
AcDbDimStyleTableRecord
  2
ISO-25
 70
     0
  3

  4

  5

  6

  7

 40
1.0
 41
2.5
 42
0.625
 43
3.75
 44
1.25
 45
0.0
 46
0.0
 47
0.0
 48
0.0
140
2.5
141
2.5
142
0.0
143
0.03937007874016
144
1.0
145
0.0
146
1.0
147
0.625
 71
     0
 72
     0
 73
     0
 74
     0
 75
     0
 76
     0
 77
     1
 78
     8
170
     0
171
     3
172
     1
173
     0
174
     0
175
     0
176
     0
177
     0
178
     0
270
     2
271
     2
272
     2
273
     2
274
     3
340
11
275
     0
280
     0
281
     0
282
     0
283
     0
284
     8
285
     0
286
     0
287
     3
288
     0
  0
ENDTAB
  0
TABLE
  2
BLOCK_RECORD
  5
1
330
0
100
AcDbSymbolTable
 70
     1
  0
BLOCK_RECORD
  5
1F
330
1
100
AcDbSymbolTableRecord
100
AcDbBlockTableRecord
  2
*MODEL_SPACE
  0
BLOCK_RECORD
  5
1B
330
1
100
AcDbSymbolTableRecord
100
AcDbBlockTableRecord
  2
*PAPER_SPACE
  0
ENDTAB
  0
ENDSEC
  0
SECTION
  2
BLOCKS
  0
BLOCK
  5
20
330
1F
100
AcDbEntity
  8
0
100
AcDbBlockBegin
  2
*MODEL_SPACE
 70
     0
 10
0.0
 20
0.0
 30
0.0
  3
*MODEL_SPACE
  1

  0
ENDBLK
  5
21
330
1F
100
AcDbEntity
  8
0
100
AcDbBlockEnd
  0
BLOCK
  5
1C
330
1B
100
AcDbEntity
 67
     1
  8
0
100
AcDbBlockBegin
  2
*PAPER_SPACE
  1

  0
ENDBLK
  5
1D
330
1B
100
AcDbEntity
 67
     1
  8
0
100
AcDbBlockEnd
  0
ENDSEC
  0
SECTION
  2
ENTITIES
  0
SPLINE
  5
100
100
AcDbEntity
  8
Layer_1
 62
7
100
AcDbSpline
 70
8
 71
3
 72
8
 73
4
 74
0
 40
0
 40
0
 40
0
 40
0
 40
1
 40
1
 40
1
 40
1
 10
1.500308
 20
112.999690
 30
0.0
 10
0.671749
 20
112.999690
 30
0.0
 10
-0.000370
 20
112.327951
 30
0.0
 10
-0.000370
 20
111.499522
 30
0.0
  0
SPLINE
  5
101
100
AcDbEntity
  8
Layer_1
 62
7
100
AcDbSpline
 70
8
 71
3
 72
8
 73
4
 74
0
 40
0
 40
0
 40
0
 40
0
 40
1
 40
1
 40
1
 40
1
 10
-0.000370
 20
111.499522
 30
0.0
 10
-0.000370
 20
111.371323
 30
0.0
 10
0.016530
 20
111.246973
 30
0.0
 10
0.046630
 20
111.126933
 30
0.0
  0
SPLINE
  5
102
100
AcDbEntity
  8
Layer_1
 62
7
100
AcDbSpline
 70
8
 71
3
 72
8
 73
4
 74
0
 40
0
 40
0
 40
0
 40
0
 40
1
 40
1
 40
1
 40
1
 10
0.046630
 20
111.126933
 30
0.0
 10
1.190098
 20
106.574690
 30
0.0
 10
3.654544
 20
102.539337
 30
0.0
 10
6.998649
 20
99.438262
 30
0.0
  0
SPLINE
  5
103
100
AcDbEntity
  8
Layer_1
 62
7
100
AcDbSpline
 70
8
 71
3
 72
8
 73
4
 74
0
 40
0
 40
0
 40
0
 40
0
 40
1
 40
1
 40
1
 40
1
 10
6.998649
 20
99.438262
 30
0.0
 10
8.685636
 20
97.223155
 30
0.0
 10
10.589123
 20
93.907220
 30
0.0
 10
12.687700
 20
87.120171
 30
0.0
  0
SPLINE
  5
104
100
AcDbEntity
  8
Layer_1
 62
7
100
AcDbSpline
 70
8
 71
3
 72
8
 73
4
 74
0
 40
0
 40
0
 40
0
 40
0
 40
1
 40
1
 40
1
 40
1
 10
12.687700
 20
87.120171
 30
0.0
 10
18.258681
 20
69.102930
 30
0.0
 10
18.368821
 20
42.880492
 30
0.0
 10
19.221139
 20
25.128700
 30
0.0
  0
SPLINE
  5
105
100
AcDbEntity
  8
Layer_1
 62
7
100
AcDbSpline
 70
8
 71
3
 72
8
 73
4
 74
0
 40
0
 40
0
 40
0
 40
0
 40
1
 40
1
 40
1
 40
1
 10
19.221139
 20
25.128700
 30
0.0
 10
20.022148
 20
8.445497
 30
0.0
 10
17.001543
 20
0.000050
 30
0.0
 10
23.336123
 20
0.000050
 30
0.0
  0
SPLINE
  5
106
100
AcDbEntity
  8
Layer_1
 62
7
100
AcDbSpline
 70
8
 71
3
 72
8
 73
4
 74
0
 40
0
 40
0
 40
0
 40
0
 40
1
 40
1
 40
1
 40
1
 10
23.336123
 20
0.000050
 30
0.0
 10
29.670723
 20
0.000050
 30
0.0
 10
26.650118
 20
8.445487
 30
0.0
 10
27.451116
 20
25.128700
 30
0.0
  0
SPLINE
  5
107
100
AcDbEntity
  8
Layer_1
 62
7
100
AcDbSpline
 70
8
 71
3
 72
8
 73
4
 74
0
 40
0
 40
0
 40
0
 40
0
 40
1
 40
1
 40
1
 40
1
 10
27.451116
 20
25.128700
 30
0.0
 10
28.303435
 20
42.880492
 30
0.0
 10
28.413575
 20
69.102930
 30
0.0
 10
33.984556
 20
87.120171
 30
0.0
  0
SPLINE
  5
108
100
AcDbEntity
  8
Layer_1
 62
7
100
AcDbSpline
 70
8
 71
3
 72
8
 73
4
 74
0
 40
0
 40
0
 40
0
 40
0
 40
1
 40
1
 40
1
 40
1
 10
33.984556
 20
87.120171
 30
0.0
 10
36.083133
 20
93.907220
 30
0.0
 10
37.986619
 20
97.223155
 30
0.0
 10
39.673607
 20
99.438262
 30
0.0
  0
SPLINE
  5
109
100
AcDbEntity
  8
Layer_1
 62
7
100
AcDbSpline
 70
8
 71
3
 72
8
 73
4
 74
0
 40
0
 40
0
 40
0
 40
0
 40
1
 40
1
 40
1
 40
1
 10
39.673607
 20
99.438262
 30
0.0
 10
43.017711
 20
102.539337
 30
0.0
 10
45.482158
 20
106.574690
 30
0.0
 10
46.625626
 20
111.126933
 30
0.0
  0
SPLINE
  5
10a
100
AcDbEntity
  8
Layer_1
 62
7
100
AcDbSpline
 70
8
 71
3
 72
8
 73
4
 74
0
 40
0
 40
0
 40
0
 40
0
 40
1
 40
1
 40
1
 40
1
 10
46.625626
 20
111.126933
 30
0.0
 10
46.655726
 20
111.246973
 30
0.0
 10
46.672626
 20
111.371323
 30
0.0
 10
46.672626
 20
111.499522
 30
0.0
  0
SPLINE
  5
10b
100
AcDbEntity
  8
Layer_1
 62
7
100
AcDbSpline
 70
8
 71
3
 72
8
 73
4
 74
0
 40
0
 40
0
 40
0
 40
0
 40
1
 40
1
 40
1
 40
1
 10
46.672626
 20
111.499522
 30
0.0
 10
46.672626
 20
112.327951
 30
0.0
 10
46.000507
 20
112.999690
 30
0.0
 10
45.171948
 20
112.999690
 30
0.0
  0
SPLINE
  5
10c
100
AcDbEntity
  8
Layer_1
 62
7
100
AcDbSpline
 70
8
 71
3
 72
8
 73
4
 74
0
 40
0
 40
0
 40
0
 40
0
 40
1
 40
1
 40
1
 40
1
 10
40.986205
 20
111.038053
 30
0.0
 10
41.814560
 20
111.038147
 30
0.0
 10
42.486179
 20
110.366761
 30
0.0
 10
42.486372
 20
109.538406
 30
0.0
  0
SPLINE
  5
10d
100
AcDbEntity
  8
Layer_1
 62
7
100
AcDbSpline
 70
8
 71
3
 72
8
 73
4
 74
0
 40
0
 40
0
 40
0
 40
0
 40
1
 40
1
 40
1
 40
1
 10
42.486372
 20
109.538406
 30
0.0
 10
42.486417
 20
109.140523
 30
0.0
 10
42.328379
 20
108.758923
 30
0.0
 10
42.047033
 20
108.477577
 30
0.0
  0
SPLINE
  5
10e
100
AcDbEntity
  8
Layer_1
 62
7
100
AcDbSpline
 70
8
 71
3
 72
8
 73
4
 74
0
 40
0
 40
0
 40
0
 40
0
 40
1
 40
1
 40
1
 40
1
 10
42.047033
 20
108.477577
 30
0.0
 10
41.765687
 20
108.196231
 30
0.0
 10
41.384088
 20
108.038193
 30
0.0
 10
40.986205
 20
108.038238
 30
0.0
  0
SPLINE
  5
10f
100
AcDbEntity
  8
Layer_1
 62
7
100
AcDbSpline
 70
8
 71
3
 72
8
 73
4
 74
0
 40
0
 40
0
 40
0
 40
0
 40
1
 40
1
 40
1
 40
1
 10
40.986205
 20
108.038238
 30
0.0
 10
40.588322
 20
108.038193
 30
0.0
 10
40.206722
 20
108.196231
 30
0.0
 10
39.925376
 20
108.477577
 30
0.0
  0
SPLINE
  5
110
100
AcDbEntity
  8
Layer_1
 62
7
100
AcDbSpline
 70
8
 71
3
 72
8
 73
4
 74
0
 40
0
 40
0
 40
0
 40
0
 40
1
 40
1
 40
1
 40
1
 10
39.925376
 20
108.477577
 30
0.0
 10
39.644030
 20
108.758923
 30
0.0
 10
39.485992
 20
109.140523
 30
0.0
 10
39.486037
 20
109.538406
 30
0.0
  0
SPLINE
  5
111
100
AcDbEntity
  8
Layer_1
 62
7
100
AcDbSpline
 70
8
 71
3
 72
8
 73
4
 74
0
 40
0
 40
0
 40
0
 40
0
 40
1
 40
1
 40
1
 40
1
 10
39.486037
 20
109.538406
 30
0.0
 10
39.486230
 20
110.366761
 30
0.0
 10
40.157849
 20
111.038147
 30
0.0
 10
40.986205
 20
111.038053
 30
0.0
  0
LWPOLYLINE
  5
112
100
AcDbEntity
  8
Layer_1
 62
7
100
AcDbPolyline
 90
2
 70
0
 10
45.171948
 20
112.999690
 30
0.0
 10
1.500308
 20
112.999690
 30
0.0
  0
SPLINE
  5
113
100
AcDbEntity
  8
Layer_1
 62
7
100
AcDbSpline
 70
8
 71
3
 72
8
 73
4
 74
0
 40
0
 40
0
 40
0
 40
0
 40
1
 40
1
 40
1
 40
1
 10
5.686091
 20
110.999853
 30
0.0
 10
6.083974
 20
110.999898
 30
0.0
 10
6.465574
 20
110.841860
 30
0.0
 10
6.746919
 20
110.560514
 30
0.0
  0
SPLINE
  5
114
100
AcDbEntity
  8
Layer_1
 62
7
100
AcDbSpline
 70
8
 71
3
 72
8
 73
4
 74
0
 40
0
 40
0
 40
0
 40
0
 40
1
 40
1
 40
1
 40
1
 10
6.746919
 20
110.560514
 30
0.0
 10
7.028265
 20
110.279168
 30
0.0
 10
7.186304
 20
109.897569
 30
0.0
 10
7.186259
 20
109.499686
 30
0.0
  0
SPLINE
  5
115
100
AcDbEntity
  8
Layer_1
 62
7
100
AcDbSpline
 70
8
 71
3
 72
8
 73
4
 74
0
 40
0
 40
0
 40
0
 40
0
 40
1
 40
1
 40
1
 40
1
 10
7.186259
 20
109.499686
 30
0.0
 10
7.186304
 20
109.101803
 30
0.0
 10
7.028265
 20
108.720203
 30
0.0
 10
6.746919
 20
108.438857
 30
0.0
  0
SPLINE
  5
116
100
AcDbEntity
  8
Layer_1
 62
7
100
AcDbSpline
 70
8
 71
3
 72
8
 73
4
 74
0
 40
0
 40
0
 40
0
 40
0
 40
1
 40
1
 40
1
 40
1
 10
6.746919
 20
108.438857
 30
0.0
 10
6.465574
 20
108.157511
 30
0.0
 10
6.083974
 20
107.999473
 30
0.0
 10
5.686091
 20
107.999518
 30
0.0
  0
SPLINE
  5
117
100
AcDbEntity
  8
Layer_1
 62
7
100
AcDbSpline
 70
8
 71
3
 72
8
 73
4
 74
0
 40
0
 40
0
 40
0
 40
0
 40
1
 40
1
 40
1
 40
1
 10
5.686091
 20
107.999518
 30
0.0
 10
4.857735
 20
107.999711
 30
0.0
 10
4.186349
 20
108.671330
 30
0.0
 10
4.186443
 20
109.499686
 30
0.0
  0
SPLINE
  5
118
100
AcDbEntity
  8
Layer_1
 62
7
100
AcDbSpline
 70
8
 71
3
 72
8
 73
4
 74
0
 40
0
 40
0
 40
0
 40
0
 40
1
 40
1
 40
1
 40
1
 10
4.186443
 20
109.499686
 30
0.0
 10
4.186349
 20
110.328041
 30
0.0
 10
4.857735
 20
110.999660
 30
0.0
 10
5.686091
 20
110.999853
 30
0.0
  0
LWPOLYLINE
  5
119
100
AcDbEntity
  8
Layer_1
 62
7
100
AcDbPolyline
 90
1
 70
1
 10
40.986205
 20
111.038053
 30
0.0
  0
SPLINE
  5
11a
100
AcDbEntity
  8
Layer_1
 62
7
100
AcDbSpline
 70
8
 71
3
 72
8
 73
4
 74
0
 40
0
 40
0
 40
0
 40
0
 40
1
 40
1
 40
1
 40
1
 10
23.336143
 20
99.249682
 30
0.0
 10
23.734024
 20
99.249727
 30
0.0
 10
24.115622
 20
99.091690
 30
0.0
 10
24.396968
 20
98.810346
 30
0.0
  0
SPLINE
  5
11b
100
AcDbEntity
  8
Layer_1
 62
7
100
AcDbSpline
 70
8
 71
3
 72
8
 73
4
 74
0
 40
0
 40
0
 40
0
 40
0
 40
1
 40
1
 40
1
 40
1
 10
24.396968
 20
98.810346
 30
0.0
 10
24.678313
 20
98.529003
 30
0.0
 10
24.836353
 20
98.147406
 30
0.0
 10
24.836310
 20
97.749524
 30
0.0
  0
SPLINE
  5
11c
100
AcDbEntity
  8
Layer_1
 62
7
100
AcDbSpline
 70
8
 71
3
 72
8
 73
4
 74
0
 40
0
 40
0
 40
0
 40
0
 40
1
 40
1
 40
1
 40
1
 10
24.836310
 20
97.749524
 30
0.0
 10
24.836123
 20
96.921165
 30
0.0
 10
24.164502
 20
96.249773
 30
0.0
 10
23.336143
 20
96.249867
 30
0.0
  0
SPLINE
  5
11d
100
AcDbEntity
  8
Layer_1
 62
7
100
AcDbSpline
 70
8
 71
3
 72
8
 73
4
 74
0
 40
0
 40
0
 40
0
 40
0
 40
1
 40
1
 40
1
 40
1
 10
23.336143
 20
96.249867
 30
0.0
 10
22.507787
 20
96.249778
 30
0.0
 10
21.836173
 20
96.921169
 30
0.0
 10
21.835985
 20
97.749524
 30
0.0
  0
SPLINE
  5
11e
100
AcDbEntity
  8
Layer_1
 62
7
100
AcDbSpline
 70
8
 71
3
 72
8
 73
4
 74
0
 40
0
 40
0
 40
0
 40
0
 40
1
 40
1
 40
1
 40
1
 10
21.835985
 20
97.749524
 30
0.0
 10
21.835943
 20
98.147404
 30
0.0
 10
21.993981
 20
98.528999
 30
0.0
 10
22.275324
 20
98.810343
 30
0.0
  0
SPLINE
  5
11f
100
AcDbEntity
  8
Layer_1
 62
7
100
AcDbSpline
 70
8
 71
3
 72
8
 73
4
 74
0
 40
0
 40
0
 40
0
 40
0
 40
1
 40
1
 40
1
 40
1
 10
22.275324
 20
98.810343
 30
0.0
 10
22.556668
 20
99.091686
 30
0.0
 10
22.938263
 20
99.249724
 30
0.0
 10
23.336143
 20
99.249682
 30
0.0
  0
LWPOLYLINE
  5
120
100
AcDbEntity
  8
Layer_1
 62
7
100
AcDbPolyline
 90
1
 70
1
 10
5.686091
 20
110.999853
 30
0.0
  0
SPLINE
  5
121
100
AcDbEntity
  8
Layer_1
 62
7
100
AcDbSpline
 70
8
 71
3
 72
8
 73
4
 74
0
 40
0
 40
0
 40
0
 40
0
 40
1
 40
1
 40
1
 40
1
 10
65.935885
 20
59.006576
 30
0.0
 10
65.143046
 20
58.926576
 30
0.0
 10
64.346128
 20
58.779696
 30
0.0
 10
63.551799
 20
58.560817
 30
0.0
  0
SPLINE
  5
122
100
AcDbEntity
  8
Layer_1
 62
7
100
AcDbSpline
 70
8
 71
3
 72
8
 73
4
 74
0
 40
0
 40
0
 40
0
 40
0
 40
1
 40
1
 40
1
 40
1
 10
63.551799
 20
58.560817
 30
0.0
 10
47.729804
 20
54.201014
 30
0.0
 10
39.378047
 20
43.552431
 30
0.0
 10
34.965694
 20
35.991593
 30
0.0
  0
SPLINE
  5
123
100
AcDbEntity
  8
Layer_1
 62
7
100
AcDbSpline
 70
8
 71
3
 72
8
 73
4
 74
0
 40
0
 40
0
 40
0
 40
0
 40
1
 40
1
 40
1
 40
1
 10
34.965694
 20
35.991593
 30
0.0
 10
28.561335
 20
25.017320
 30
0.0
 10
32.607088
 20
10.902103
 30
0.0
 10
43.580201
 20
4.772302
 30
0.0
  0
SPLINE
  5
124
100
AcDbEntity
  8
Layer_1
 62
7
100
AcDbSpline
 70
8
 71
3
 72
8
 73
4
 74
0
 40
0
 40
0
 40
0
 40
0
 40
1
 40
1
 40
1
 40
1
 10
43.580201
 20
4.772302
 30
0.0
 10
54.553343
 20
-1.357518
 30
0.0
 10
68.693981
 20
2.598416
 30
0.0
 10
74.680821
 20
13.805918
 30
0.0
  0
SPLINE
  5
125
100
AcDbEntity
  8
Layer_1
 62
7
100
AcDbSpline
 70
8
 71
3
 72
8
 73
4
 74
0
 40
0
 40
0
 40
0
 40
0
 40
1
 40
1
 40
1
 40
1
 10
74.680821
 20
13.805918
 30
0.0
 10
78.805664
 20
21.527706
 30
0.0
 10
83.495717
 20
34.221525
 30
0.0
 10
78.912364
 20
49.980090
 30
0.0
  0
SPLINE
  5
126
100
AcDbEntity
  8
Layer_1
 62
7
100
AcDbSpline
 70
8
 71
3
 72
8
 73
4
 74
0
 40
0
 40
0
 40
0
 40
0
 40
1
 40
1
 40
1
 40
1
 10
78.912364
 20
49.980090
 30
0.0
 10
78.682285
 20
50.771139
 30
0.0
 10
78.389155
 20
51.527008
 30
0.0
 10
78.041436
 20
52.244157
 30
0.0
  0
LWPOLYLINE
  5
127
100
AcDbEntity
  8
Layer_1
 62
7
100
AcDbPolyline
 90
1
 70
1
 10
23.336143
 20
99.249682
 30
0.0
  0
SPLINE
  5
128
100
AcDbEntity
  8
Layer_1
 62
7
100
AcDbSpline
 70
8
 71
3
 72
8
 73
4
 74
0
 40
0
 40
0
 40
0
 40
0
 40
1
 40
1
 40
1
 40
1
 10
59.359535
 20
50.653479
 30
0.0
 10
60.082924
 20
50.249500
 30
0.0
 10
60.341744
 20
49.335501
 30
0.0
 10
59.937585
 20
48.612213
 30
0.0
  0
SPLINE
  5
129
100
AcDbEntity
  8
Layer_1
 62
7
100
AcDbSpline
 70
8
 71
3
 72
8
 73
4
 74
0
 40
0
 40
0
 40
0
 40
0
 40
1
 40
1
 40
1
 40
1
 10
59.937585
 20
48.612213
 30
0.0
 10
59.533595
 20
47.888814
 30
0.0
 10
58.619617
 20
47.629984
 30
0.0
 10
57.896308
 20
48.034143
 30
0.0
  0
SPLINE
  5
12a
100
AcDbEntity
  8
Layer_1
 62
7
100
AcDbSpline
 70
8
 71
3
 72
8
 73
4
 74
0
 40
0
 40
0
 40
0
 40
0
 40
1
 40
1
 40
1
 40
1
 10
57.896308
 20
48.034143
 30
0.0
 10
57.172919
 20
48.438143
 30
0.0
 10
56.914089
 20
49.352131
 30
0.0
 10
57.318249
 20
50.075420
 30
0.0
  0
SPLINE
  5
12b
100
AcDbEntity
  8
Layer_1
 62
7
100
AcDbSpline
 70
8
 71
3
 72
8
 73
4
 74
0
 40
0
 40
0
 40
0
 40
0
 40
1
 40
1
 40
1
 40
1
 10
57.318249
 20
50.075420
 30
0.0
 10
57.722238
 20
50.798809
 30
0.0
 10
58.636247
 20
51.057649
 30
0.0
 10
59.359535
 20
50.653479
 30
0.0
  0
LWPOLYLINE
  5
12c
100
AcDbEntity
  8
Layer_1
 62
7
100
AcDbPolyline
 90
2
 70
0
 10
78.041436
 20
52.244157
 30
0.0
 10
65.935885
 20
59.006576
 30
0.0
  0
SPLINE
  5
12d
100
AcDbEntity
  8
Layer_1
 62
7
100
AcDbSpline
 70
8
 71
3
 72
8
 73
4
 74
0
 40
0
 40
0
 40
0
 40
0
 40
1
 40
1
 40
1
 40
1
 10
49.698901
 20
44.022750
 30
0.0
 10
50.422290
 20
43.618751
 30
0.0
 10
50.681119
 20
42.704762
 30
0.0
 10
50.276960
 20
41.981463
 30
0.0
  0
SPLINE
  5
12e
100
AcDbEntity
  8
Layer_1
 62
7
100
AcDbSpline
 70
8
 71
3
 72
8
 73
4
 74
0
 40
0
 40
0
 40
0
 40
0
 40
1
 40
1
 40
1
 40
1
 10
50.276960
 20
41.981463
 30
0.0
 10
49.872971
 20
41.258074
 30
0.0
 10
48.958982
 20
40.999245
 30
0.0
 10
48.235673
 20
41.403394
 30
0.0
  0
SPLINE
  5
12f
100
AcDbEntity
  8
Layer_1
 62
7
100
AcDbSpline
 70
8
 71
3
 72
8
 73
4
 74
0
 40
0
 40
0
 40
0
 40
0
 40
1
 40
1
 40
1
 40
1
 10
48.235673
 20
41.403394
 30
0.0
 10
47.512604
 20
41.807543
 30
0.0
 10
47.254015
 20
42.721312
 30
0.0
 10
47.658064
 20
43.444431
 30
0.0
  0
SPLINE
  5
130
100
AcDbEntity
  8
Layer_1
 62
7
100
AcDbSpline
 70
8
 71
3
 72
8
 73
4
 74
0
 40
0
 40
0
 40
0
 40
0
 40
1
 40
1
 40
1
 40
1
 10
47.658064
 20
43.444431
 30
0.0
 10
48.061963
 20
44.167650
 30
0.0
 10
48.975632
 20
44.426549
 30
0.0
 10
49.698901
 20
44.022750
 30
0.0
  0
LWPOLYLINE
  5
131
100
AcDbEntity
  8
Layer_1
 62
7
100
AcDbPolyline
 90
1
 70
1
 10
59.359535
 20
50.653479
 30
0.0
  0
SPLINE
  5
132
100
AcDbEntity
  8
Layer_1
 62
7
100
AcDbSpline
 70
8
 71
3
 72
8
 73
4
 74
0
 40
0
 40
0
 40
0
 40
0
 40
1
 40
1
 40
1
 40
1
 10
36.340312
 20
28.003385
 30
0.0
 10
37.063691
 20
27.599386
 30
0.0
 10
37.322531
 20
26.685397
 30
0.0
 10
36.918361
 20
25.962099
 30
0.0
  0
SPLINE
  5
133
100
AcDbEntity
  8
Layer_1
 62
7
100
AcDbSpline
 70
8
 71
3
 72
8
 73
4
 74
0
 40
0
 40
0
 40
0
 40
0
 40
1
 40
1
 40
1
 40
1
 10
36.918361
 20
25.962099
 30
0.0
 10
36.514372
 20
25.238700
 30
0.0
 10
35.600383
 20
24.979870
 30
0.0
 10
34.877084
 20
25.384040
 30
0.0
  0
SPLINE
  5
134
100
AcDbEntity
  8
Layer_1
 62
7
100
AcDbSpline
 70
8
 71
3
 72
8
 73
4
 74
0
 40
0
 40
0
 40
0
 40
0
 40
1
 40
1
 40
1
 40
1
 10
34.877084
 20
25.384040
 30
0.0
 10
34.154016
 20
25.788189
 30
0.0
 10
33.895426
 20
26.701937
 30
0.0
 10
34.299475
 20
27.425056
 30
0.0
  0
SPLINE
  5
135
100
AcDbEntity
  8
Layer_1
 62
7
100
AcDbSpline
 70
8
 71
3
 72
8
 73
4
 74
0
 40
0
 40
0
 40
0
 40
0
 40
1
 40
1
 40
1
 40
1
 10
34.299475
 20
27.425056
 30
0.0
 10
34.703375
 20
28.148275
 30
0.0
 10
35.617043
 20
28.407195
 30
0.0
 10
36.340312
 20
28.003385
 30
0.0
  0
LWPOLYLINE
  5
136
100
AcDbEntity
  8
Layer_1
 62
7
100
AcDbPolyline
 90
1
 70
1
 10
49.698901
 20
44.022750
 30
0.0
  0
SPLINE
  5
137
100
AcDbEntity
  8
Layer_1
 62
7
100
AcDbSpline
 70
8
 71
3
 72
8
 73
4
 74
0
 40
0
 40
0
 40
0
 40
0
 40
1
 40
1
 40
1
 40
1
 10
67.157963
 20
10.788003
 30
0.0
 10
67.881362
 20
10.384003
 30
0.0
 10
68.140191
 20
9.470015
 30
0.0
 10
67.736042
 20
8.746716
 30
0.0
  0
SPLINE
  5
138
100
AcDbEntity
  8
Layer_1
 62
7
100
AcDbSpline
 70
8
 71
3
 72
8
 73
4
 74
0
 40
0
 40
0
 40
0
 40
0
 40
1
 40
1
 40
1
 40
1
 10
67.736042
 20
8.746716
 30
0.0
 10
67.332043
 20
8.023327
 30
0.0
 10
66.418054
 20
7.764498
 30
0.0
 10
65.694755
 20
8.168657
 30
0.0
  0
SPLINE
  5
139
100
AcDbEntity
  8
Layer_1
 62
7
100
AcDbSpline
 70
8
 71
3
 72
8
 73
4
 74
0
 40
0
 40
0
 40
0
 40
0
 40
1
 40
1
 40
1
 40
1
 10
65.694755
 20
8.168657
 30
0.0
 10
64.971357
 20
8.572646
 30
0.0
 10
64.712527
 20
9.486635
 30
0.0
 10
65.116686
 20
10.209934
 30
0.0
  0
SPLINE
  5
13a
100
AcDbEntity
  8
Layer_1
 62
7
100
AcDbSpline
 70
8
 71
3
 72
8
 73
4
 74
0
 40
0
 40
0
 40
0
 40
0
 40
1
 40
1
 40
1
 40
1
 10
65.116686
 20
10.209934
 30
0.0
 10
65.520696
 20
10.933323
 30
0.0
 10
66.434664
 20
11.192162
 30
0.0
 10
67.157963
 20
10.788003
 30
0.0
  0
LWPOLYLINE
  5
13b
100
AcDbEntity
  8
Layer_1
 62
7
100
AcDbPolyline
 90
1
 70
1
 10
36.340312
 20
28.003385
 30
0.0
  0
SPLINE
  5
13c
100
AcDbEntity
  8
Layer_1
 62
7
100
AcDbSpline
 70
8
 71
3
 72
8
 73
4
 74
0
 40
0
 40
0
 40
0
 40
0
 40
1
 40
1
 40
1
 40
1
 10
46.018737
 20
9.137565
 30
0.0
 10
46.742126
 20
8.733576
 30
0.0
 10
47.000955
 20
7.819588
 30
0.0
 10
46.596806
 20
7.096289
 30
0.0
  0
SPLINE
  5
13d
100
AcDbEntity
  8
Layer_1
 62
7
100
AcDbSpline
 70
8
 71
3
 72
8
 73
4
 74
0
 40
0
 40
0
 40
0
 40
0
 40
1
 40
1
 40
1
 40
1
 10
46.596806
 20
7.096289
 30
0.0
 10
46.192666
 20
6.373210
 30
0.0
 10
45.278908
 20
6.114620
 30
0.0
 10
44.555769
 20
6.518670
 30
0.0
  0
SPLINE
  5
13e
100
AcDbEntity
  8
Layer_1
 62
7
100
AcDbSpline
 70
8
 71
3
 72
8
 73
4
 74
0
 40
0
 40
0
 40
0
 40
0
 40
1
 40
1
 40
1
 40
1
 10
44.555769
 20
6.518670
 30
0.0
 10
43.832550
 20
6.922579
 30
0.0
 10
43.573651
 20
7.836258
 30
0.0
 10
43.977460
 20
8.559516
 30
0.0
  0
SPLINE
  5
13f
100
AcDbEntity
  8
Layer_1
 62
7
100
AcDbSpline
 70
8
 71
3
 72
8
 73
4
 74
0
 40
0
 40
0
 40
0
 40
0
 40
1
 40
1
 40
1
 40
1
 10
43.977460
 20
8.559516
 30
0.0
 10
44.381459
 20
9.282895
 30
0.0
 10
45.295448
 20
9.541725
 30
0.0
 10
46.018737
 20
9.137565
 30
0.0
  0
LWPOLYLINE
  5
140
100
AcDbEntity
  8
Layer_1
 62
7
100
AcDbPolyline
 90
1
 70
1
 10
67.157963
 20
10.788003
 30
0.0
  0
SPLINE
  5
141
100
AcDbEntity
  8
Layer_1
 62
7
100
AcDbSpline
 70
8
 71
3
 72
8
 73
4
 74
0
 40
0
 40
0
 40
0
 40
0
 40
1
 40
1
 40
1
 40
1
 10
51.870217
 20
102.699822
 30
0.0
 10
51.379938
 20
102.699822
 30
0.0
 10
50.943329
 20
102.465702
 30
0.0
 10
50.667709
 20
102.096763
 30
0.0
  0
SPLINE
  5
142
100
AcDbEntity
  8
Layer_1
 62
7
100
AcDbSpline
 70
8
 71
3
 72
8
 73
4
 74
0
 40
0
 40
0
 40
0
 40
0
 40
1
 40
1
 40
1
 40
1
 10
50.667709
 20
102.096763
 30
0.0
 10
46.900845
 20
97.054426
 30
0.0
 10
44.772689
 20
91.871654
 30
0.0
 10
43.587011
 20
87.074960
 30
0.0
  0
SPLINE
  5
143
100
AcDbEntity
  8
Layer_1
 62
7
100
AcDbSpline
 70
8
 71
3
 72
8
 73
4
 74
0
 40
0
 40
0
 40
0
 40
0
 40
1
 40
1
 40
1
 40
1
 10
43.587011
 20
87.074960
 30
0.0
 10
43.557211
 20
86.954640
 30
0.0
 10
43.539511
 20
86.829492
 30
0.0
 10
43.539511
 20
86.699781
 30
0.0
  0
SPLINE
  5
144
100
AcDbEntity
  8
Layer_1
 62
7
100
AcDbSpline
 70
8
 71
3
 72
8
 73
4
 74
0
 40
0
 40
0
 40
0
 40
0
 40
1
 40
1
 40
1
 40
1
 10
43.539511
 20
86.699781
 30
0.0
 10
43.539511
 20
85.871353
 30
0.0
 10
44.211220
 20
85.199625
 30
0.0
 10
45.038648
 20
85.199625
 30
0.0
  0
LWPOLYLINE
  5
145
100
AcDbEntity
  8
Layer_1
 62
7
100
AcDbPolyline
 90
1
 70
1
 10
46.018737
 20
9.137565
 30
0.0
  0
SPLINE
  5
146
100
AcDbEntity
  8
Layer_1
 62
7
100
AcDbSpline
 70
8
 71
3
 72
8
 73
4
 74
0
 40
0
 40
0
 40
0
 40
0
 40
1
 40
1
 40
1
 40
1
 10
77.833486
 20
85.199625
 30
0.0
 10
78.660915
 20
85.199625
 30
0.0
 10
79.332624
 20
85.871353
 30
0.0
 10
79.332624
 20
86.699781
 30
0.0
  0
SPLINE
  5
147
100
AcDbEntity
  8
Layer_1
 62
7
100
AcDbSpline
 70
8
 71
3
 72
8
 73
4
 74
0
 40
0
 40
0
 40
0
 40
0
 40
1
 40
1
 40
1
 40
1
 10
79.332624
 20
86.699781
 30
0.0
 10
79.332624
 20
86.829492
 30
0.0
 10
79.314824
 20
86.954650
 30
0.0
 10
79.285124
 20
87.074960
 30
0.0
  0
SPLINE
  5
148
100
AcDbEntity
  8
Layer_1
 62
7
100
AcDbSpline
 70
8
 71
3
 72
8
 73
4
 74
0
 40
0
 40
0
 40
0
 40
0
 40
1
 40
1
 40
1
 40
1
 10
79.285124
 20
87.074960
 30
0.0
 10
78.099446
 20
91.871665
 30
0.0
 10
75.971289
 20
97.054415
 30
0.0
 10
72.204425
 20
102.096763
 30
0.0
  0
SPLINE
  5
149
100
AcDbEntity
  8
Layer_1
 62
7
100
AcDbSpline
 70
8
 71
3
 72
8
 73
4
 74
0
 40
0
 40
0
 40
0
 40
0
 40
1
 40
1
 40
1
 40
1
 10
72.204425
 20
102.096763
 30
0.0
 10
71.928805
 20
102.465702
 30
0.0
 10
71.492196
 20
102.699822
 30
0.0
 10
71.001917
 20
102.699822
 30
0.0
  0
LWPOLYLINE
  5
14a
100
AcDbEntity
  8
Layer_1
 62
7
100
AcDbPolyline
 90
2
 70
0
 10
45.038648
 20
85.199625
 30
0.0
 10
77.833486
 20
85.199625
 30
0.0
  0
SPLINE
  5
14b
100
AcDbEntity
  8
Layer_1
 62
7
100
AcDbSpline
 70
8
 71
3
 72
8
 73
4
 74
0
 40
0
 40
0
 40
0
 40
0
 40
1
 40
1
 40
1
 40
1
 10
52.836046
 20
100.699939
 30
0.0
 10
53.664605
 20
100.700029
 30
0.0
 10
54.336303
 20
100.028330
 30
0.0
 10
54.336213
 20
99.199783
 30
0.0
  0
SPLINE
  5
14c
100
AcDbEntity
  8
Layer_1
 62
7
100
AcDbSpline
 70
8
 71
3
 72
8
 73
4
 74
0
 40
0
 40
0
 40
0
 40
0
 40
1
 40
1
 40
1
 40
1
 10
54.336213
 20
99.199783
 30
0.0
 10
54.336303
 20
98.371224
 30
0.0
 10
53.664605
 20
97.699525
 30
0.0
 10
52.836046
 20
97.699615
 30
0.0
  0
SPLINE
  5
14d
100
AcDbEntity
  8
Layer_1
 62
7
100
AcDbSpline
 70
8
 71
3
 72
8
 73
4
 74
0
 40
0
 40
0
 40
0
 40
0
 40
1
 40
1
 40
1
 40
1
 10
52.836046
 20
97.699615
 30
0.0
 10
52.007487
 20
97.699525
 30
0.0
 10
51.335798
 20
98.371224
 30
0.0
 10
51.335888
 20
99.199783
 30
0.0
  0
SPLINE
  5
14e
100
AcDbEntity
  8
Layer_1
 62
7
100
AcDbSpline
 70
8
 71
3
 72
8
 73
4
 74
0
 40
0
 40
0
 40
0
 40
0
 40
1
 40
1
 40
1
 40
1
 10
51.335888
 20
99.199783
 30
0.0
 10
51.335798
 20
100.028332
 30
0.0
 10
52.007497
 20
100.700029
 30
0.0
 10
52.836046
 20
100.699939
 30
0.0
  0
LWPOLYLINE
  5
14f
100
AcDbEntity
  8
Layer_1
 62
7
100
AcDbPolyline
 90
2
 70
0
 10
71.001917
 20
102.699822
 30
0.0
 10
51.870217
 20
102.699822
 30
0.0
  0
SPLINE
  5
150
100
AcDbEntity
  8
Layer_1
 62
7
100
AcDbSpline
 70
8
 71
3
 72
8
 73
4
 74
0
 40
0
 40
0
 40
0
 40
0
 40
1
 40
1
 40
1
 40
1
 10
47.635854
 20
90.199826
 30
0.0
 10
48.464413
 20
90.199916
 30
0.0
 10
49.136112
 20
89.528216
 30
0.0
 10
49.136022
 20
88.699660
 30
0.0
  0
SPLINE
  5
151
100
AcDbEntity
  8
Layer_1
 62
7
100
AcDbSpline
 70
8
 71
3
 72
8
 73
4
 74
0
 40
0
 40
0
 40
0
 40
0
 40
1
 40
1
 40
1
 40
1
 10
49.136022
 20
88.699660
 30
0.0
 10
49.136112
 20
87.871101
 30
0.0
 10
48.464413
 20
87.199402
 30
0.0
 10
47.635854
 20
87.199492
 30
0.0
  0
SPLINE
  5
152
100
AcDbEntity
  8
Layer_1
 62
7
100
AcDbSpline
 70
8
 71
3
 72
8
 73
4
 74
0
 40
0
 40
0
 40
0
 40
0
 40
1
 40
1
 40
1
 40
1
 10
47.635854
 20
87.199492
 30
0.0
 10
46.807495
 20
87.199692
 30
0.0
 10
46.136117
 20
87.871300
 30
0.0
 10
46.136207
 20
88.699660
 30
0.0
  0
SPLINE
  5
153
100
AcDbEntity
  8
Layer_1
 62
7
100
AcDbSpline
 70
8
 71
3
 72
8
 73
4
 74
0
 40
0
 40
0
 40
0
 40
0
 40
1
 40
1
 40
1
 40
1
 10
46.136207
 20
88.699660
 30
0.0
 10
46.136117
 20
89.528018
 30
0.0
 10
46.807495
 20
90.199635
 30
0.0
 10
47.635854
 20
90.199826
 30
0.0
  0
LWPOLYLINE
  5
154
100
AcDbEntity
  8
Layer_1
 62
7
100
AcDbPolyline
 90
1
 70
1
 10
52.836046
 20
100.699939
 30
0.0
  0
SPLINE
  5
155
100
AcDbEntity
  8
Layer_1
 62
7
100
AcDbSpline
 70
8
 71
3
 72
8
 73
4
 74
0
 40
0
 40
0
 40
0
 40
0
 40
1
 40
1
 40
1
 40
1
 10
69.186060
 20
73.629753
 30
0.0
 10
69.186060
 20
71.574328
 30
0.0
 10
68.369546
 20
69.603089
 30
0.0
 10
66.916141
 20
68.149684
 30
0.0
  0
SPLINE
  5
156
100
AcDbEntity
  8
Layer_1
 62
7
100
AcDbSpline
 70
8
 71
3
 72
8
 73
4
 74
0
 40
0
 40
0
 40
0
 40
0
 40
1
 40
1
 40
1
 40
1
 10
66.916141
 20
68.149684
 30
0.0
 10
65.462736
 20
66.696279
 30
0.0
 10
63.491497
 20
65.879765
 30
0.0
 10
61.436072
 20
65.879765
 30
0.0
  0
SPLINE
  5
157
100
AcDbEntity
  8
Layer_1
 62
7
100
AcDbSpline
 70
8
 71
3
 72
8
 73
4
 74
0
 40
0
 40
0
 40
0
 40
0
 40
1
 40
1
 40
1
 40
1
 10
61.436072
 20
65.879765
 30
0.0
 10
57.155872
 20
65.879765
 30
0.0
 10
53.686084
 20
69.349553
 30
0.0
 10
53.686084
 20
73.629753
 30
0.0
  0
SPLINE
  5
158
100
AcDbEntity
  8
Layer_1
 62
7
100
AcDbSpline
 70
8
 71
3
 72
8
 73
4
 74
0
 40
0
 40
0
 40
0
 40
0
 40
1
 40
1
 40
1
 40
1
 10
53.686084
 20
73.629753
 30
0.0
 10
53.686089
 20
77.909949
 30
0.0
 10
57.155876
 20
81.379731
 30
0.0
 10
61.436072
 20
81.379731
 30
0.0
  0
SPLINE
  5
159
100
AcDbEntity
  8
Layer_1
 62
7
100
AcDbSpline
 70
8
 71
3
 72
8
 73
4
 74
0
 40
0
 40
0
 40
0
 40
0
 40
1
 40
1
 40
1
 40
1
 10
61.436072
 20
81.379731
 30
0.0
 10
65.716269
 20
81.379731
 30
0.0
 10
69.186055
 20
77.909949
 30
0.0
 10
69.186060
 20
73.629753
 30
0.0
  0
LWPOLYLINE
  5
15a
100
AcDbEntity
  8
Layer_1
 62
7
100
AcDbPolyline
 90
1
 70
1
 10
47.635854
 20
90.199826
 30
0.0
  0
LWPOLYLINE
  5
15b
100
AcDbEntity
  8
Layer_1
 62
7
100
AcDbPolyline
 90
1
 70
1
 10
69.186060
 20
73.629753
 30
0.0
  0
LWPOLYLINE
  5
15c
100
AcDbEntity
  8
Layer_1
 62
7
100
AcDbPolyline
 90
4
 70
0
 10
-2.063827
 20
110.459694
 30
0.0
 10
-2.063827
 20
115.539686
 30
0.0
 10
3.016165
 20
115.539686
 30
0.0
 10
3.016165
 20
115.539686
 30
0.0
  0
ENDSEC
  0
SECTION
  2
OBJECTS
  0
DICTIONARY
  5
C
330
0
100
AcDbDictionary
  3
ACAD_GROUP
350
D
  3
ACAD_MLINESTYLE
350
17
  0
DICTIONARY
  5
D
330
C
100
AcDbDictionary
  0
DICTIONARY
  5
1A
330
C
100
AcDbDictionary
  0
DICTIONARY
  5
17
330
C
100
AcDbDictionary
  3
STANDARD
350
18
  0
DICTIONARY
  5
19
330
C
100
AcDbDictionary
  0
ENDSEC
  0
EOF
