<?xml version="1.0" encoding="UTF-8" standalone="no"?>
<svg
   sodipodi:docname="board_edge_cuts.svg"
   inkscape:version="1.1 (c4e8f9ed74, 2021-05-24)"
   id="svg2006"
   version="1.1"
   viewBox="0 0 80.800774 112.99982"
   height="112.99982mm"
   width="80.800774mm"
   xmlns:inkscape="http://www.inkscape.org/namespaces/inkscape"
   xmlns:sodipodi="http://sodipodi.sourceforge.net/DTD/sodipodi-0.dtd"
   xmlns="http://www.w3.org/2000/svg"
   xmlns:svg="http://www.w3.org/2000/svg"
   xmlns:rdf="http://www.w3.org/1999/02/22-rdf-syntax-ns#"
   xmlns:cc="http://creativecommons.org/ns#"
   xmlns:dc="http://purl.org/dc/elements/1.1/">
  <defs
     id="defs2000" />
  <sodipodi:namedview
     fit-margin-bottom="0"
     fit-margin-right="0"
     fit-margin-left="0"
     fit-margin-top="0"
     inkscape:window-maximized="1"
     inkscape:window-y="0"
     inkscape:window-x="0"
     inkscape:window-height="1137"
     inkscape:window-width="1920"
     showgrid="true"
     inkscape:document-rotation="0"
     inkscape:current-layer="layer1"
     inkscape:document-units="mm"
     inkscape:cy="41.25"
     inkscape:cx="-11.625"
     inkscape:zoom="4"
     inkscape:pageshadow="2"
     inkscape:pageopacity="0.0"
     borderopacity="1.0"
     bordercolor="#666666"
     pagecolor="#ffffff"
     id="base"
     inkscape:pagecheckerboard="0"
     showguides="true"
     inkscape:guide-bbox="true">
    <inkscape:grid
       type="xygrid"
       id="grid11"
       spacingx="2.5400001"
       spacingy="2.5400001"
       units="mm"
       dotted="false"
       snapvisiblegridlinesonly="false"
       originx="0.47653998"
       originy="0" />
  </sodipodi:namedview>
  <metadata
     id="metadata2003">
    <rdf:RDF>
      <cc:Work
         rdf:about="">
        <dc:format>image/svg+xml</dc:format>
        <dc:type
           rdf:resource="http://purl.org/dc/dcmitype/StillImage" />
      </cc:Work>
    </rdf:RDF>
  </metadata>
  <g
     transform="translate(-170.18363,-65.30395)"
     id="layer1"
     inkscape:groupmode="layer"
     inkscape:label="Layer 1">
    <path
       id="path76099-8"
       style="font-variation-settings:normal;vector-effect:none;fill:#c3c3c3;fill-opacity:1;stroke:none;stroke-width:0.1;stroke-linecap:butt;stroke-linejoin:bevel;stroke-miterlimit:4;stroke-dasharray:none;stroke-dashoffset:0;stroke-opacity:1;-inkscape-stroke:none;stop-color:#000000"
       d="m 171.68431,65.30395 c -0.82856,0 -1.50068,0.67174 -1.50068,1.50017 0,0.1282 0.0169,0.25255 0.047,0.37259 1.14347,4.55225 3.60792,8.58761 6.95203,11.68869 1.68699,2.21511 3.59048,5.53105 5.68906,12.31811 5.57099,18.01727 5.68113,44.23975 6.53345,61.99157 0.80101,16.68323 -2.2196,25.12869 4.11499,25.12869 6.33461,0 3.314,-8.44545 4.115,-25.12869 0.85232,-17.75182 0.96246,-43.9743 6.53345,-61.99157 2.09858,-6.78706 4.00207,-10.103 5.68906,-12.31811 3.34411,-3.10108 5.80856,-7.13644 6.95203,-11.68869 0.0301,-0.12004 0.047,-0.24439 0.047,-0.37259 0,-0.82843 -0.67212,-1.50017 -1.50068,-1.50017 z m 39.48596,1.96164 a 1.5,1.5 0 0 1 1.50017,1.49965 1.5,1.5 0 0 1 -1.50017,1.50017 1.5,1.5 0 0 1 -1.50017,-1.50017 1.5,1.5 0 0 1 1.50017,-1.49965 z m -35.30017,0.0382 a 1.4999999,1.4999999 0 0 1 1.50017,1.50017 1.4999999,1.4999999 0 0 1 -1.50017,1.50017 1.4999999,1.4999999 0 0 1 -1.49965,-1.50017 1.4999999,1.4999999 0 0 1 1.49965,-1.50017 z m 17.65008,11.75019 a 1.4999999,1.4999999 0 0 1 1.50017,1.50016 1.4999999,1.4999999 0 0 1 -1.50017,1.49966 1.4999999,1.4999999 0 0 1 -1.50016,-1.49966 1.4999999,1.4999999 0 0 1 1.50016,-1.50016 z" />
    <path
       id="path881-9-6-1-8-5-6-1-9-3-6"
       style="font-variation-settings:normal;vector-effect:none;fill:#c3c3c3;fill-opacity:1;stroke:none;stroke-width:0.0996281;stroke-linecap:butt;stroke-linejoin:bevel;stroke-miterlimit:4;stroke-dasharray:none;stroke-dashoffset:0;stroke-opacity:1;-inkscape-stroke:none;paint-order:normal;stop-color:#000000"
       d="m 236.11999,119.29715 c -0.79284,0.08 -1.58976,0.22688 -2.38409,0.44576 -15.82202,4.35981 -24.17379,15.00841 -28.58615,22.56926 -6.40437,10.97429 -2.35861,25.08953 8.61452,31.21934 10.97316,6.12983 25.11382,2.17389 31.10067,-9.03363 4.12485,-7.7218 8.81491,-20.41564 4.23155,-36.17423 -0.23008,-0.79105 -0.52321,-1.54692 -0.87093,-2.26407 z m -6.57636,8.35311 c 0.72339,0.40398 0.98221,1.31798 0.57805,2.04127 -0.40399,0.7234 -1.31797,0.98223 -2.04128,0.57807 -0.72339,-0.404 -0.98222,-1.31799 -0.57806,-2.04128 0.40399,-0.72339 1.318,-0.98223 2.04129,-0.57806 z m -9.66065,6.63074 c 0.72339,0.404 0.98222,1.31799 0.57806,2.04129 -0.40399,0.72339 -1.31798,0.98222 -2.04129,0.57807 -0.72307,-0.40415 -0.98166,-1.31792 -0.57761,-2.04104 0.4039,-0.72322 1.31757,-0.98212 2.04084,-0.57832 z m -13.35861,16.01939 c 0.72338,0.404 0.98222,1.31799 0.57805,2.04129 -0.40399,0.7234 -1.31798,0.98223 -2.04128,0.57806 -0.72307,-0.40415 -0.98166,-1.3179 -0.57761,-2.04102 0.4039,-0.72322 1.31757,-0.98214 2.04084,-0.57833 z m 30.8177,17.21541 c 0.7234,0.404 0.98223,1.31799 0.57808,2.04129 -0.404,0.72339 -1.31799,0.98222 -2.04129,0.57806 -0.7234,-0.40399 -0.98223,-1.31798 -0.57807,-2.04128 0.40401,-0.72339 1.31798,-0.98223 2.04128,-0.57807 z m -21.13926,1.65044 c 0.72339,0.40399 0.98222,1.31798 0.57807,2.04128 -0.40414,0.72308 -1.3179,0.98167 -2.04104,0.57762 -0.72322,-0.40391 -0.98212,-1.31759 -0.57831,-2.04085 0.404,-0.72338 1.31799,-0.98221 2.04128,-0.57805 z"
       sodipodi:nodetypes="csssssccccccccccccccccccccccccccc"
       inkscape:transform-center-x="23.4526"
       inkscape:transform-center-y="15.620606" />
    <path
       id="path79273-8-6-9"
       style="font-variation-settings:normal;vector-effect:none;fill:#c3c3c3;fill-opacity:1;stroke:none;stroke-width:0.1;stroke-linecap:butt;stroke-linejoin:bevel;stroke-miterlimit:4;stroke-dasharray:none;stroke-dashoffset:0;stroke-opacity:1;-inkscape-stroke:none;stop-color:#000000"
       d="m 222.0543,75.603834 c -0.49028,0 -0.92689,0.234121 -1.20251,0.60306 -3.76687,5.042345 -5.89503,10.225126 -7.08071,15.021827 -0.0298,0.12032 -0.0475,0.245469 -0.0475,0.37518 0,0.828429 0.67171,1.500158 1.49914,1.500158 h 32.79489 c 0.82743,0 1.49914,-0.671729 1.49914,-1.500158 0,-0.129711 -0.0178,-0.25487 -0.0475,-0.37518 -1.18568,-4.796712 -3.31384,-9.979471 -7.08071,-15.021827 -0.27562,-0.368939 -0.71223,-0.60306 -1.20251,-0.60306 z m 0.96583,1.999887 c 0.82856,-9e-5 1.50026,0.67161 1.50017,1.500158 9e-5,0.82856 -0.67161,1.50026 -1.50017,1.50017 -0.82856,9e-5 -1.50025,-0.67161 -1.50016,-1.50017 -9e-5,-0.82855 0.67161,-1.500248 1.50016,-1.500158 z m -5.2002,10.500129 c 0.82856,-9e-5 1.50026,0.671611 1.50017,1.500169 9e-5,0.82856 -0.67161,1.50026 -1.50017,1.50017 -0.82836,-2e-4 -1.49974,-0.671809 -1.49965,-1.50017 -9e-5,-0.82836 0.67129,-1.499978 1.49965,-1.500169 z" />
    <path
       id="path89146"
       style="vector-effect:none;fill:#c3c3c3;stroke-width:0.0999998;stroke-linejoin:bevel;stop-color:#000000"
       d="m 239.37017,104.67395 a 7.75,7.75 0 0 1 -7.75,7.75 7.75,7.75 0 0 1 -7.75,-7.75 7.75,7.75 0 0 1 7.75,-7.749991 7.75,7.75 0 0 1 7.75,7.749991 z" />
    <path
       style="fill:none;stroke:#000000;stroke-width:0.264583px;stroke-linecap:butt;stroke-linejoin:miter;stroke-opacity:1"
       d="m 168.12017,67.84395 v -5.08 h 5.08 v 0"
       id="path45" />
  </g>
</svg>
