<?xml version="1.0" encoding="UTF-8" standalone="no"?>
<svg
   xmlns:dc="http://purl.org/dc/elements/1.1/"
   xmlns:cc="http://creativecommons.org/ns#"
   xmlns:rdf="http://www.w3.org/1999/02/22-rdf-syntax-ns#"
   xmlns:svg="http://www.w3.org/2000/svg"
   xmlns="http://www.w3.org/2000/svg"
   xmlns:sodipodi="http://sodipodi.sourceforge.net/DTD/sodipodi-0.dtd"
   xmlns:inkscape="http://www.inkscape.org/namespaces/inkscape"
   sodipodi:docname="board_edge_cuts.svg"
   inkscape:version="1.0 (4035a4fb49, 2020-05-01)"
   id="svg2006"
   version="1.1"
   viewBox="0 0 83.820412 113.83983"
   height="113.83983mm"
   width="83.820412mm">
  <defs
     id="defs2000" />
  <sodipodi:namedview
     fit-margin-bottom="0"
     fit-margin-right="0"
     fit-margin-left="0"
     fit-margin-top="0"
     inkscape:window-maximized="1"
     inkscape:window-y="0"
     inkscape:window-x="0"
     inkscape:window-height="1017"
     inkscape:window-width="1920"
     showgrid="false"
     inkscape:document-rotation="0"
     inkscape:current-layer="layer1"
     inkscape:document-units="mm"
     inkscape:cy="168.71083"
     inkscape:cx="342.87201"
     inkscape:zoom="0.98994949"
     inkscape:pageshadow="2"
     inkscape:pageopacity="0.0"
     borderopacity="1.0"
     bordercolor="#666666"
     pagecolor="#ffffff"
     id="base" />
  <metadata
     id="metadata2003">
    <rdf:RDF>
      <cc:Work
         rdf:about="">
        <dc:format>image/svg+xml</dc:format>
        <dc:type
           rdf:resource="http://purl.org/dc/dcmitype/StillImage" />
        <dc:title></dc:title>
      </cc:Work>
    </rdf:RDF>
  </metadata>
  <g
     transform="translate(-23.604813,-23.001803)"
     id="layer1"
     inkscape:groupmode="layer"
     inkscape:label="Layer 1">
    <path
       id="path1441-5-8"
       style="fill:none;fill-opacity:1;stroke:#000000;stroke-width:0.1;stroke-linecap:butt;stroke-linejoin:bevel;stroke-miterlimit:4;stroke-dasharray:none;stroke-dashoffset:0;stroke-opacity:1;paint-order:normal"
       d="m 90.287885,68.747154 v 0.0021 h -13.17698 c -1.18823,0.650827 -2.28388,1.478594 -3.24373,2.468074 -11.67904,11.239405 -13.48013,24.557265 -13.89114,33.080662 -2.5e-4,0.021 -1.8e-4,0.0419 -5.2e-4,0.063 7e-5,13.08851 10.61116,23.69858 23.70037,23.69829 13.088965,-7e-5 23.699265,-10.61003 23.699335,-23.69829 2e-5,-0.0212 -1e-5,-0.0419 0,-0.063 -0.41017,-8.506807 -2.20653,-21.788707 -13.758855,-32.993329 -0.98088,-1.029 -2.10576,-1.887127 -3.32848,-2.557467 z m -12.26437,9.406659 a 1.4499999,1.4499999 0 0 1 1.45004,1.45004 1.4499999,1.4499999 0 0 1 -1.45004,1.45004 1.4499999,1.4499999 0 0 1 -1.45004,-1.45004 1.4499999,1.4499999 0 0 1 1.45004,-1.45004 z m -6.67091,16.17679 a 1.4499999,1.4499999 0 0 1 1.45004,1.45004 1.4499999,1.4499999 0 0 1 -1.45004,1.45004 1.4499999,1.4499999 0 0 1 -1.45004,-1.45004 1.4499999,1.4499999 0 0 1 1.45004,-1.45004 z m -6.6704,16.176267 a 1.45,1.45 0 0 1 1.45004,1.45004 1.45,1.45 0 0 1 -1.45004,1.45005 1.45,1.45 0 0 1 -1.45004,-1.45005 1.45,1.45 0 0 1 1.45004,-1.45004 z m 37.778065,0 a 1.45,1.45 0 0 1 1.45004,1.45004 1.45,1.45 0 0 1 -1.45004,1.45005 1.45,1.45 0 0 1 -1.45004,-1.45005 1.45,1.45 0 0 1 1.45004,-1.45004 z m -18.782325,9.72086 a 1.45,1.45 0 0 1 1.45004,1.45004 1.45,1.45 0 0 1 -1.45004,1.44952 1.45,1.45 0 0 1 -1.45004,-1.44952 1.45,1.45 0 0 1 1.45004,-1.45004 z" />
    <path
       id="path1163-6"
       style="fill:none;fill-opacity:1;stroke:#000000;stroke-width:0.1;stroke-linecap:butt;stroke-linejoin:bevel;stroke-miterlimit:4;stroke-dasharray:none;stroke-dashoffset:0;stroke-opacity:1;paint-order:normal"
       d="m 25.538413,23.051803 c -1.04065,0 -1.8836,0.842922 -1.8836,1.882574 0,0.21133 0.0352,0.414535 0.0997,0.605647 2.35261,6.94885 7.84005,12.448161 14.77791,14.82235 v 96.429256 h 15.34842 V 40.362374 h 0.006 c 6.93785,-2.374189 12.42581,-7.8735 14.77842,-14.82235 0.0645,-0.191112 0.0992,-0.394317 0.0992,-0.605647 0,-1.039652 -0.84274,-1.882574 -1.88257,-1.882574 z m 1.67535,1.033528 a 1.45,1.45 0 0 1 1.45004,1.450041 1.45,1.45 0 0 1 -1.45004,1.450041 1.45,1.45 0 0 1 -1.45004,-1.450041 1.45,1.45 0 0 1 1.45004,-1.450041 z m 37.77806,0 a 1.45,1.45 0 0 1 1.45004,1.450041 1.45,1.45 0 0 1 -1.45004,1.450041 1.45,1.45 0 0 1 -1.45004,-1.450041 1.45,1.45 0 0 1 1.45004,-1.450041 z m -18.78232,9.720853 a 1.45,1.45 0 0 1 1.45004,1.450041 1.45,1.45 0 0 1 -1.45004,1.449525 1.45,1.45 0 0 1 -1.45004,-1.449525 1.45,1.45 0 0 1 1.45004,-1.450041 z" />
    <path
       id="rect1387-2-1"
       style="fill:none;fill-opacity:1;stroke:#000000;stroke-width:0.1;stroke-linecap:butt;stroke-linejoin:bevel;stroke-miterlimit:4;stroke-dasharray:none;stroke-dashoffset:0;stroke-opacity:1;paint-order:normal"
       d="m 76.003723,38.39767 c -0.0225,0.02282 -0.0464,0.04414 -0.0687,0.06718 -7.31823,7.043377 -9.72065,15.118644 -10.56318,21.515481 H 101.9789 c -0.83851,-6.381226 -3.218837,-14.427587 -10.455687,-21.447269 -0.0443,-0.04644 -0.0909,-0.08983 -0.13591,-0.135392 z m 2.09496,1.385962 a 1.45,1.45 0 0 1 1.45004,1.45004 1.45,1.45 0 0 1 -1.45004,1.450041 1.45,1.45 0 0 1 -1.45004,-1.450041 1.45,1.45 0 0 1 1.45004,-1.45004 z m -6.67091,16.176789 a 1.45,1.45 0 0 1 1.45004,1.450041 1.45,1.45 0 0 1 -1.45004,1.450041 1.45,1.45 0 0 1 -1.45004,-1.450041 1.45,1.45 0 0 1 1.45004,-1.450041 z" />
  </g>
</svg>
