  0
SECTION
  2
HEADER
  9
$ACADVER
  1
AC1014
  9
$HANDSEED
  5
FFFF
  9
$MEASUREMENT
 70
     1
  0
ENDSEC
  0
SECTION
  2
TABLES
  0
TABLE
  2
VPORT
  5
8
330
0
100
AcDbSymbolTable
 70
     4
  0
VPORT
  5
2E
330
8
100
AcDbSymbolTableRecord
100
AcDbViewportTableRecord
  2
*ACTIVE
 70
     0
 10
0.0
 20
0.0
 11
1.0
 21
1.0
 12
210.0
 22
148.5
 13
0.0
 23
0.0
 14
10.0
 24
10.0
 15
10.0
 25
10.0
 16
0.0
 26
0.0
 36
1.0
 17
0.0
 27
0.0
 37
0.0
 40
341.0
 41
1.24
 42
50.0
 43
0.0
 44
0.0
 50
0.0
 51
0.0
 71
     0
 72
   100
 73
     1
 74
     3
 75
     0
 76
     0
 77
     0
 78
     0
  0
ENDTAB
  0
TABLE
  2
LTYPE
  5
5
330
0
100
AcDbSymbolTable
 70
     1
  0
LTYPE
  5
14
330
5
100
AcDbSymbolTableRecord
100
AcDbLinetypeTableRecord
  2
BYBLOCK
 70
     0
  3

 72
    65
 73
     0
 40
0.0
  0
LTYPE
  5
15
330
5
100
AcDbSymbolTableRecord
100
AcDbLinetypeTableRecord
  2
BYLAYER
 70
     0
  3

 72
    65
 73
     0
 40
0.0
  0
LTYPE
  5
16
330
5
100
AcDbSymbolTableRecord
100
AcDbLinetypeTableRecord
  2
CONTINUOUS
 70
     0
  3
Solid line
 72
    65
 73
     0
 40
0.0
  0
ENDTAB
  0
TABLE
  2
LAYER
  5
2
100
AcDbSymbolTable
 70
2
  0
LAYER
  5
50
100
AcDbSymbolTableRecord
100
AcDbLayerTableRecord
  2
0
 70
0
  6
CONTINUOUS
  0
LAYER
  5
51
100
AcDbSymbolTableRecord
100
AcDbLayerTableRecord
  2
Layer_1
 70
0
  6
CONTINUOUS
  0
ENDTAB
  0
TABLE
  2
STYLE
  5
3
330
0
100
AcDbSymbolTable
 70
     1
  0
STYLE
  5
11
330
3
100
AcDbSymbolTableRecord
100
AcDbTextStyleTableRecord
  2
STANDARD
 70
     0
 40
0.0
 41
1.0
 50
0.0
 71
     0
 42
2.5
  3
txt
  4

  0
ENDTAB
  0
TABLE
  2
VIEW
  5
6
330
0
100
AcDbSymbolTable
 70
     0
  0
ENDTAB
  0
TABLE
  2
UCS
  5
7
330
0
100
AcDbSymbolTable
 70
     0
  0
ENDTAB
  0
TABLE
  2
APPID
  5
9
330
0
100
AcDbSymbolTable
 70
     2
  0
APPID
  5
12
330
9
100
AcDbSymbolTableRecord
100
AcDbRegAppTableRecord
  2
ACAD
 70
     0
  0
ENDTAB
  0
TABLE
  2
DIMSTYLE
  5
A
330
0
100
AcDbSymbolTable
 70
     1
  0
DIMSTYLE
105
27
330
A
100
AcDbSymbolTableRecord
100
AcDbDimStyleTableRecord
  2
ISO-25
 70
     0
  3

  4

  5

  6

  7

 40
1.0
 41
2.5
 42
0.625
 43
3.75
 44
1.25
 45
0.0
 46
0.0
 47
0.0
 48
0.0
140
2.5
141
2.5
142
0.0
143
0.03937007874016
144
1.0
145
0.0
146
1.0
147
0.625
 71
     0
 72
     0
 73
     0
 74
     0
 75
     0
 76
     0
 77
     1
 78
     8
170
     0
171
     3
172
     1
173
     0
174
     0
175
     0
176
     0
177
     0
178
     0
270
     2
271
     2
272
     2
273
     2
274
     3
340
11
275
     0
280
     0
281
     0
282
     0
283
     0
284
     8
285
     0
286
     0
287
     3
288
     0
  0
ENDTAB
  0
TABLE
  2
BLOCK_RECORD
  5
1
330
0
100
AcDbSymbolTable
 70
     1
  0
BLOCK_RECORD
  5
1F
330
1
100
AcDbSymbolTableRecord
100
AcDbBlockTableRecord
  2
*MODEL_SPACE
  0
BLOCK_RECORD
  5
1B
330
1
100
AcDbSymbolTableRecord
100
AcDbBlockTableRecord
  2
*PAPER_SPACE
  0
ENDTAB
  0
ENDSEC
  0
SECTION
  2
BLOCKS
  0
BLOCK
  5
20
330
1F
100
AcDbEntity
  8
0
100
AcDbBlockBegin
  2
*MODEL_SPACE
 70
     0
 10
0.0
 20
0.0
 30
0.0
  3
*MODEL_SPACE
  1

  0
ENDBLK
  5
21
330
1F
100
AcDbEntity
  8
0
100
AcDbBlockEnd
  0
BLOCK
  5
1C
330
1B
100
AcDbEntity
 67
     1
  8
0
100
AcDbBlockBegin
  2
*PAPER_SPACE
  1

  0
ENDBLK
  5
1D
330
1B
100
AcDbEntity
 67
     1
  8
0
100
AcDbBlockEnd
  0
ENDSEC
  0
SECTION
  2
ENTITIES
  0
SPLINE
  5
100
100
AcDbEntity
  8
Layer_1
 62
7
100
AcDbSpline
 70
8
 71
3
 72
8
 73
4
 74
0
 40
0
 40
0
 40
0
 40
0
 40
1
 40
1
 40
1
 40
1
 10
53.506025
 20
68.092274
 30
0.0
 10
52.317797
 20
67.441448
 30
0.0
 10
51.222149
 20
66.613683
 30
0.0
 10
50.262300
 20
65.624204
 30
0.0
  0
SPLINE
  5
101
100
AcDbEntity
  8
Layer_1
 62
7
100
AcDbSpline
 70
8
 71
3
 72
8
 73
4
 74
0
 40
0
 40
0
 40
0
 40
0
 40
1
 40
1
 40
1
 40
1
 10
50.262300
 20
65.624204
 30
0.0
 10
38.583277
 20
54.384816
 30
0.0
 10
36.782190
 20
41.066976
 30
0.0
 10
36.371181
 20
32.543591
 30
0.0
  0
SPLINE
  5
102
100
AcDbEntity
  8
Layer_1
 62
7
100
AcDbSpline
 70
8
 71
3
 72
8
 73
4
 74
0
 40
0
 40
0
 40
0
 40
0
 40
1
 40
1
 40
1
 40
1
 10
36.371181
 20
32.543591
 30
0.0
 10
36.370931
 20
32.522591
 30
0.0
 10
36.371001
 20
32.501691
 30
0.0
 10
36.370661
 20
32.480591
 30
0.0
  0
SPLINE
  5
103
100
AcDbEntity
  8
Layer_1
 62
7
100
AcDbSpline
 70
8
 71
3
 72
8
 73
4
 74
0
 40
0
 40
0
 40
0
 40
0
 40
1
 40
1
 40
1
 40
1
 10
36.370661
 20
32.480591
 30
0.0
 10
36.370731
 20
19.392101
 30
0.0
 10
46.981805
 20
8.782047
 30
0.0
 10
60.070995
 20
8.782337
 30
0.0
  0
SPLINE
  5
104
100
AcDbEntity
  8
Layer_1
 62
7
100
AcDbSpline
 70
8
 71
3
 72
8
 73
4
 74
0
 40
0
 40
0
 40
0
 40
0
 40
1
 40
1
 40
1
 40
1
 10
60.070995
 20
8.782337
 30
0.0
 10
73.159941
 20
8.782407
 30
0.0
 10
83.770225
 20
19.392351
 30
0.0
 10
83.770295
 20
32.480591
 30
0.0
  0
SPLINE
  5
105
100
AcDbEntity
  8
Layer_1
 62
7
100
AcDbSpline
 70
8
 71
3
 72
8
 73
4
 74
0
 40
0
 40
0
 40
0
 40
0
 40
1
 40
1
 40
1
 40
1
 10
83.770295
 20
32.480591
 30
0.0
 10
83.770315
 20
32.501791
 30
0.0
 10
83.770285
 20
32.522491
 30
0.0
 10
83.770295
 20
32.543591
 30
0.0
  0
SPLINE
  5
106
100
AcDbEntity
  8
Layer_1
 62
7
100
AcDbSpline
 70
8
 71
3
 72
8
 73
4
 74
0
 40
0
 40
0
 40
0
 40
0
 40
1
 40
1
 40
1
 40
1
 10
83.770295
 20
32.543591
 30
0.0
 10
83.360126
 20
41.050386
 30
0.0
 10
81.563768
 20
54.332266
 30
0.0
 10
70.011460
 20
65.536871
 30
0.0
  0
SPLINE
  5
107
100
AcDbEntity
  8
Layer_1
 62
7
100
AcDbSpline
 70
8
 71
3
 72
8
 73
4
 74
0
 40
0
 40
0
 40
0
 40
0
 40
1
 40
1
 40
1
 40
1
 10
70.011460
 20
65.536871
 30
0.0
 10
69.030582
 20
66.565870
 30
0.0
 10
67.905704
 20
67.423995
 30
0.0
 10
66.682985
 20
68.094334
 30
0.0
  0
LWPOLYLINE
  5
108
100
AcDbEntity
  8
Layer_1
 62
7
100
AcDbPolyline
 90
3
 70
0
 10
66.682985
 20
68.094374
 30
0.0
 10
66.682985
 20
68.092274
 30
0.0
 10
53.506025
 20
68.092274
 30
0.0
  0
SPLINE
  5
109
100
AcDbEntity
  8
Layer_1
 62
7
100
AcDbSpline
 70
8
 71
3
 72
8
 73
4
 74
0
 40
0
 40
0
 40
0
 40
0
 40
1
 40
1
 40
1
 40
1
 10
54.418634
 20
58.687729
 30
0.0
 10
54.803211
 20
58.687740
 30
0.0
 10
55.172040
 20
58.534972
 30
0.0
 10
55.443977
 20
58.263035
 30
0.0
  0
SPLINE
  5
10a
100
AcDbEntity
  8
Layer_1
 62
7
100
AcDbSpline
 70
8
 71
3
 72
8
 73
4
 74
0
 40
0
 40
0
 40
0
 40
0
 40
1
 40
1
 40
1
 40
1
 10
55.443977
 20
58.263035
 30
0.0
 10
55.715914
 20
57.991098
 30
0.0
 10
55.868682
 20
57.622269
 30
0.0
 10
55.868672
 20
57.237692
 30
0.0
  0
SPLINE
  5
10b
100
AcDbEntity
  8
Layer_1
 62
7
100
AcDbSpline
 70
8
 71
3
 72
8
 73
4
 74
0
 40
0
 40
0
 40
0
 40
0
 40
1
 40
1
 40
1
 40
1
 10
55.868672
 20
57.237692
 30
0.0
 10
55.868682
 20
56.853114
 30
0.0
 10
55.715914
 20
56.484285
 30
0.0
 10
55.443977
 20
56.212348
 30
0.0
  0
SPLINE
  5
10c
100
AcDbEntity
  8
Layer_1
 62
7
100
AcDbSpline
 70
8
 71
3
 72
8
 73
4
 74
0
 40
0
 40
0
 40
0
 40
0
 40
1
 40
1
 40
1
 40
1
 10
55.443977
 20
56.212348
 30
0.0
 10
55.172040
 20
55.940411
 30
0.0
 10
54.803211
 20
55.787643
 30
0.0
 10
54.418634
 20
55.787654
 30
0.0
  0
SPLINE
  5
10d
100
AcDbEntity
  8
Layer_1
 62
7
100
AcDbSpline
 70
8
 71
3
 72
8
 73
4
 74
0
 40
0
 40
0
 40
0
 40
0
 40
1
 40
1
 40
1
 40
1
 10
54.418634
 20
55.787654
 30
0.0
 10
54.034057
 20
55.787643
 30
0.0
 10
53.665228
 20
55.940411
 30
0.0
 10
53.393290
 20
56.212348
 30
0.0
  0
SPLINE
  5
10e
100
AcDbEntity
  8
Layer_1
 62
7
100
AcDbSpline
 70
8
 71
3
 72
8
 73
4
 74
0
 40
0
 40
0
 40
0
 40
0
 40
1
 40
1
 40
1
 40
1
 10
53.393290
 20
56.212348
 30
0.0
 10
53.121353
 20
56.484285
 30
0.0
 10
52.968585
 20
56.853114
 30
0.0
 10
52.968596
 20
57.237692
 30
0.0
  0
SPLINE
  5
10f
100
AcDbEntity
  8
Layer_1
 62
7
100
AcDbSpline
 70
8
 71
3
 72
8
 73
4
 74
0
 40
0
 40
0
 40
0
 40
0
 40
1
 40
1
 40
1
 40
1
 10
52.968596
 20
57.237692
 30
0.0
 10
52.968585
 20
57.622269
 30
0.0
 10
53.121353
 20
57.991098
 30
0.0
 10
53.393290
 20
58.263035
 30
0.0
  0
SPLINE
  5
110
100
AcDbEntity
  8
Layer_1
 62
7
100
AcDbSpline
 70
8
 71
3
 72
8
 73
4
 74
0
 40
0
 40
0
 40
0
 40
0
 40
1
 40
1
 40
1
 40
1
 10
53.393290
 20
58.263035
 30
0.0
 10
53.665228
 20
58.534972
 30
0.0
 10
54.034057
 20
58.687740
 30
0.0
 10
54.418634
 20
58.687729
 30
0.0
  0
LWPOLYLINE
  5
111
100
AcDbEntity
  8
Layer_1
 62
7
100
AcDbPolyline
 90
1
 70
1
 10
66.682985
 20
68.094334
 30
0.0
  0
SPLINE
  5
112
100
AcDbEntity
  8
Layer_1
 62
7
100
AcDbSpline
 70
8
 71
3
 72
8
 73
4
 74
0
 40
0
 40
0
 40
0
 40
0
 40
1
 40
1
 40
1
 40
1
 10
47.747734
 20
42.510964
 30
0.0
 10
48.132311
 20
42.510974
 30
0.0
 10
48.501140
 20
42.358206
 30
0.0
 10
48.773077
 20
42.086269
 30
0.0
  0
SPLINE
  5
113
100
AcDbEntity
  8
Layer_1
 62
7
100
AcDbSpline
 70
8
 71
3
 72
8
 73
4
 74
0
 40
0
 40
0
 40
0
 40
0
 40
1
 40
1
 40
1
 40
1
 10
48.773077
 20
42.086269
 30
0.0
 10
49.045014
 20
41.814332
 30
0.0
 10
49.197782
 20
41.445503
 30
0.0
 10
49.197772
 20
41.060926
 30
0.0
  0
SPLINE
  5
114
100
AcDbEntity
  8
Layer_1
 62
7
100
AcDbSpline
 70
8
 71
3
 72
8
 73
4
 74
0
 40
0
 40
0
 40
0
 40
0
 40
1
 40
1
 40
1
 40
1
 10
49.197772
 20
41.060926
 30
0.0
 10
49.197782
 20
40.676348
 30
0.0
 10
49.045014
 20
40.307520
 30
0.0
 10
48.773077
 20
40.035582
 30
0.0
  0
SPLINE
  5
115
100
AcDbEntity
  8
Layer_1
 62
7
100
AcDbSpline
 70
8
 71
3
 72
8
 73
4
 74
0
 40
0
 40
0
 40
0
 40
0
 40
1
 40
1
 40
1
 40
1
 10
48.773077
 20
40.035582
 30
0.0
 10
48.501140
 20
39.763645
 30
0.0
 10
48.132311
 20
39.610877
 30
0.0
 10
47.747734
 20
39.610888
 30
0.0
  0
SPLINE
  5
116
100
AcDbEntity
  8
Layer_1
 62
7
100
AcDbSpline
 70
8
 71
3
 72
8
 73
4
 74
0
 40
0
 40
0
 40
0
 40
0
 40
1
 40
1
 40
1
 40
1
 10
47.747734
 20
39.610888
 30
0.0
 10
47.363156
 20
39.610877
 30
0.0
 10
46.994328
 20
39.763645
 30
0.0
 10
46.722390
 20
40.035582
 30
0.0
  0
SPLINE
  5
117
100
AcDbEntity
  8
Layer_1
 62
7
100
AcDbSpline
 70
8
 71
3
 72
8
 73
4
 74
0
 40
0
 40
0
 40
0
 40
0
 40
1
 40
1
 40
1
 40
1
 10
46.722390
 20
40.035582
 30
0.0
 10
46.450453
 20
40.307520
 30
0.0
 10
46.297685
 20
40.676348
 30
0.0
 10
46.297696
 20
41.060926
 30
0.0
  0
SPLINE
  5
118
100
AcDbEntity
  8
Layer_1
 62
7
100
AcDbSpline
 70
8
 71
3
 72
8
 73
4
 74
0
 40
0
 40
0
 40
0
 40
0
 40
1
 40
1
 40
1
 40
1
 10
46.297696
 20
41.060926
 30
0.0
 10
46.297685
 20
41.445503
 30
0.0
 10
46.450453
 20
41.814332
 30
0.0
 10
46.722390
 20
42.086269
 30
0.0
  0
SPLINE
  5
119
100
AcDbEntity
  8
Layer_1
 62
7
100
AcDbSpline
 70
8
 71
3
 72
8
 73
4
 74
0
 40
0
 40
0
 40
0
 40
0
 40
1
 40
1
 40
1
 40
1
 10
46.722390
 20
42.086269
 30
0.0
 10
46.994328
 20
42.358206
 30
0.0
 10
47.363156
 20
42.510974
 30
0.0
 10
47.747734
 20
42.510964
 30
0.0
  0
LWPOLYLINE
  5
11a
100
AcDbEntity
  8
Layer_1
 62
7
100
AcDbPolyline
 90
1
 70
1
 10
54.418634
 20
58.687729
 30
0.0
  0
SPLINE
  5
11b
100
AcDbEntity
  8
Layer_1
 62
7
100
AcDbSpline
 70
8
 71
3
 72
8
 73
4
 74
0
 40
0
 40
0
 40
0
 40
0
 40
1
 40
1
 40
1
 40
1
 10
41.077344
 20
26.334721
 30
0.0
 10
41.461921
 20
26.334731
 30
0.0
 10
41.830750
 20
26.181963
 30
0.0
 10
42.102687
 20
25.910026
 30
0.0
  0
SPLINE
  5
11c
100
AcDbEntity
  8
Layer_1
 62
7
100
AcDbSpline
 70
8
 71
3
 72
8
 73
4
 74
0
 40
0
 40
0
 40
0
 40
0
 40
1
 40
1
 40
1
 40
1
 10
42.102687
 20
25.910026
 30
0.0
 10
42.374624
 20
25.638089
 30
0.0
 10
42.527392
 20
25.269260
 30
0.0
 10
42.527381
 20
24.884683
 30
0.0
  0
SPLINE
  5
11d
100
AcDbEntity
  8
Layer_1
 62
7
100
AcDbSpline
 70
8
 71
3
 72
8
 73
4
 74
0
 40
0
 40
0
 40
0
 40
0
 40
1
 40
1
 40
1
 40
1
 10
42.527381
 20
24.884683
 30
0.0
 10
42.527395
 20
24.500104
 30
0.0
 10
42.374628
 20
24.131272
 30
0.0
 10
42.102690
 20
23.859333
 30
0.0
  0
SPLINE
  5
11e
100
AcDbEntity
  8
Layer_1
 62
7
100
AcDbSpline
 70
8
 71
3
 72
8
 73
4
 74
0
 40
0
 40
0
 40
0
 40
0
 40
1
 40
1
 40
1
 40
1
 10
42.102690
 20
23.859333
 30
0.0
 10
41.830753
 20
23.587394
 30
0.0
 10
41.461923
 20
23.434624
 30
0.0
 10
41.077344
 20
23.434635
 30
0.0
  0
SPLINE
  5
11f
100
AcDbEntity
  8
Layer_1
 62
7
100
AcDbSpline
 70
8
 71
3
 72
8
 73
4
 74
0
 40
0
 40
0
 40
0
 40
0
 40
1
 40
1
 40
1
 40
1
 10
41.077344
 20
23.434635
 30
0.0
 10
40.692765
 20
23.434624
 30
0.0
 10
40.323934
 20
23.587394
 30
0.0
 10
40.051997
 20
23.859333
 30
0.0
  0
SPLINE
  5
120
100
AcDbEntity
  8
Layer_1
 62
7
100
AcDbSpline
 70
8
 71
3
 72
8
 73
4
 74
0
 40
0
 40
0
 40
0
 40
0
 40
1
 40
1
 40
1
 40
1
 10
40.051997
 20
23.859333
 30
0.0
 10
39.780059
 20
24.131272
 30
0.0
 10
39.627293
 20
24.500104
 30
0.0
 10
39.627306
 20
24.884683
 30
0.0
  0
SPLINE
  5
121
100
AcDbEntity
  8
Layer_1
 62
7
100
AcDbSpline
 70
8
 71
3
 72
8
 73
4
 74
0
 40
0
 40
0
 40
0
 40
0
 40
1
 40
1
 40
1
 40
1
 10
39.627306
 20
24.884683
 30
0.0
 10
39.627295
 20
25.269260
 30
0.0
 10
39.780063
 20
25.638089
 30
0.0
 10
40.052000
 20
25.910026
 30
0.0
  0
SPLINE
  5
122
100
AcDbEntity
  8
Layer_1
 62
7
100
AcDbSpline
 70
8
 71
3
 72
8
 73
4
 74
0
 40
0
 40
0
 40
0
 40
0
 40
1
 40
1
 40
1
 40
1
 10
40.052000
 20
25.910026
 30
0.0
 10
40.323937
 20
26.181963
 30
0.0
 10
40.692766
 20
26.334731
 30
0.0
 10
41.077344
 20
26.334721
 30
0.0
  0
LWPOLYLINE
  5
123
100
AcDbEntity
  8
Layer_1
 62
7
100
AcDbPolyline
 90
1
 70
1
 10
47.747734
 20
42.510964
 30
0.0
  0
SPLINE
  5
124
100
AcDbEntity
  8
Layer_1
 62
7
100
AcDbSpline
 70
8
 71
3
 72
8
 73
4
 74
0
 40
0
 40
0
 40
0
 40
0
 40
1
 40
1
 40
1
 40
1
 10
78.855352
 20
26.334721
 30
0.0
 10
79.239929
 20
26.334731
 30
0.0
 10
79.608758
 20
26.181963
 30
0.0
 10
79.880696
 20
25.910026
 30
0.0
  0
SPLINE
  5
125
100
AcDbEntity
  8
Layer_1
 62
7
100
AcDbSpline
 70
8
 71
3
 72
8
 73
4
 74
0
 40
0
 40
0
 40
0
 40
0
 40
1
 40
1
 40
1
 40
1
 10
79.880696
 20
25.910026
 30
0.0
 10
80.152633
 20
25.638089
 30
0.0
 10
80.305401
 20
25.269260
 30
0.0
 10
80.305390
 20
24.884683
 30
0.0
  0
SPLINE
  5
126
100
AcDbEntity
  8
Layer_1
 62
7
100
AcDbSpline
 70
8
 71
3
 72
8
 73
4
 74
0
 40
0
 40
0
 40
0
 40
0
 40
1
 40
1
 40
1
 40
1
 10
80.305390
 20
24.884683
 30
0.0
 10
80.305403
 20
24.500104
 30
0.0
 10
80.152637
 20
24.131272
 30
0.0
 10
79.880699
 20
23.859333
 30
0.0
  0
SPLINE
  5
127
100
AcDbEntity
  8
Layer_1
 62
7
100
AcDbSpline
 70
8
 71
3
 72
8
 73
4
 74
0
 40
0
 40
0
 40
0
 40
0
 40
1
 40
1
 40
1
 40
1
 10
79.880699
 20
23.859333
 30
0.0
 10
79.608762
 20
23.587394
 30
0.0
 10
79.239931
 20
23.434624
 30
0.0
 10
78.855352
 20
23.434635
 30
0.0
  0
SPLINE
  5
128
100
AcDbEntity
  8
Layer_1
 62
7
100
AcDbSpline
 70
8
 71
3
 72
8
 73
4
 74
0
 40
0
 40
0
 40
0
 40
0
 40
1
 40
1
 40
1
 40
1
 10
78.855352
 20
23.434635
 30
0.0
 10
78.470773
 20
23.434624
 30
0.0
 10
78.101943
 20
23.587394
 30
0.0
 10
77.830005
 20
23.859333
 30
0.0
  0
SPLINE
  5
129
100
AcDbEntity
  8
Layer_1
 62
7
100
AcDbSpline
 70
8
 71
3
 72
8
 73
4
 74
0
 40
0
 40
0
 40
0
 40
0
 40
1
 40
1
 40
1
 40
1
 10
77.830005
 20
23.859333
 30
0.0
 10
77.558068
 20
24.131272
 30
0.0
 10
77.405301
 20
24.500104
 30
0.0
 10
77.405314
 20
24.884683
 30
0.0
  0
SPLINE
  5
12a
100
AcDbEntity
  8
Layer_1
 62
7
100
AcDbSpline
 70
8
 71
3
 72
8
 73
4
 74
0
 40
0
 40
0
 40
0
 40
0
 40
1
 40
1
 40
1
 40
1
 10
77.405314
 20
24.884683
 30
0.0
 10
77.405304
 20
25.269260
 30
0.0
 10
77.558072
 20
25.638089
 30
0.0
 10
77.830009
 20
25.910026
 30
0.0
  0
SPLINE
  5
12b
100
AcDbEntity
  8
Layer_1
 62
7
100
AcDbSpline
 70
8
 71
3
 72
8
 73
4
 74
0
 40
0
 40
0
 40
0
 40
0
 40
1
 40
1
 40
1
 40
1
 10
77.830009
 20
25.910026
 30
0.0
 10
78.101946
 20
26.181963
 30
0.0
 10
78.470775
 20
26.334731
 30
0.0
 10
78.855352
 20
26.334721
 30
0.0
  0
LWPOLYLINE
  5
12c
100
AcDbEntity
  8
Layer_1
 62
7
100
AcDbPolyline
 90
1
 70
1
 10
41.077344
 20
26.334721
 30
0.0
  0
SPLINE
  5
12d
100
AcDbEntity
  8
Layer_1
 62
7
100
AcDbSpline
 70
8
 71
3
 72
8
 73
4
 74
0
 40
0
 40
0
 40
0
 40
0
 40
1
 40
1
 40
1
 40
1
 10
60.073055
 20
16.613875
 30
0.0
 10
60.457632
 20
16.613886
 30
0.0
 10
60.826461
 20
16.461118
 30
0.0
 10
61.098399
 20
16.189181
 30
0.0
  0
SPLINE
  5
12e
100
AcDbEntity
  8
Layer_1
 62
7
100
AcDbSpline
 70
8
 71
3
 72
8
 73
4
 74
0
 40
0
 40
0
 40
0
 40
0
 40
1
 40
1
 40
1
 40
1
 10
61.098399
 20
16.189181
 30
0.0
 10
61.370336
 20
15.917244
 30
0.0
 10
61.523104
 20
15.548415
 30
0.0
 10
61.523093
 20
15.163837
 30
0.0
  0
SPLINE
  5
12f
100
AcDbEntity
  8
Layer_1
 62
7
100
AcDbSpline
 70
8
 71
3
 72
8
 73
4
 74
0
 40
0
 40
0
 40
0
 40
0
 40
1
 40
1
 40
1
 40
1
 10
61.523093
 20
15.163837
 30
0.0
 10
61.522828
 20
14.363198
 30
0.0
 10
60.873695
 20
13.714297
 30
0.0
 10
60.073055
 20
13.714320
 30
0.0
  0
SPLINE
  5
130
100
AcDbEntity
  8
Layer_1
 62
7
100
AcDbSpline
 70
8
 71
3
 72
8
 73
4
 74
0
 40
0
 40
0
 40
0
 40
0
 40
1
 40
1
 40
1
 40
1
 10
60.073055
 20
13.714320
 30
0.0
 10
59.272415
 20
13.714297
 30
0.0
 10
58.623282
 20
14.363198
 30
0.0
 10
58.623017
 20
15.163837
 30
0.0
  0
SPLINE
  5
131
100
AcDbEntity
  8
Layer_1
 62
7
100
AcDbSpline
 70
8
 71
3
 72
8
 73
4
 74
0
 40
0
 40
0
 40
0
 40
0
 40
1
 40
1
 40
1
 40
1
 10
58.623017
 20
15.163837
 30
0.0
 10
58.623007
 20
15.548415
 30
0.0
 10
58.775775
 20
15.917244
 30
0.0
 10
59.047712
 20
16.189181
 30
0.0
  0
SPLINE
  5
132
100
AcDbEntity
  8
Layer_1
 62
7
100
AcDbSpline
 70
8
 71
3
 72
8
 73
4
 74
0
 40
0
 40
0
 40
0
 40
0
 40
1
 40
1
 40
1
 40
1
 10
59.047712
 20
16.189181
 30
0.0
 10
59.319649
 20
16.461118
 30
0.0
 10
59.688478
 20
16.613886
 30
0.0
 10
60.073055
 20
16.613875
 30
0.0
  0
LWPOLYLINE
  5
133
100
AcDbEntity
  8
Layer_1
 62
7
100
AcDbPolyline
 90
1
 70
1
 10
78.855352
 20
26.334721
 30
0.0
  0
SPLINE
  5
134
100
AcDbEntity
  8
Layer_1
 62
7
100
AcDbSpline
 70
8
 71
3
 72
8
 73
4
 74
0
 40
0
 40
0
 40
0
 40
0
 40
1
 40
1
 40
1
 40
1
 10
1.933610
 20
113.789657
 30
0.0
 10
0.892962
 20
113.789657
 30
0.0
 10
0.050013
 20
112.946736
 30
0.0
 10
0.050013
 20
111.907086
 30
0.0
  0
SPLINE
  5
135
100
AcDbEntity
  8
Layer_1
 62
7
100
AcDbSpline
 70
8
 71
3
 72
8
 73
4
 74
0
 40
0
 40
0
 40
0
 40
0
 40
1
 40
1
 40
1
 40
1
 10
0.050013
 20
111.907086
 30
0.0
 10
0.050013
 20
111.695756
 30
0.0
 10
0.085213
 20
111.492552
 30
0.0
 10
0.149713
 20
111.301440
 30
0.0
  0
SPLINE
  5
136
100
AcDbEntity
  8
Layer_1
 62
7
100
AcDbSpline
 70
8
 71
3
 72
8
 73
4
 74
0
 40
0
 40
0
 40
0
 40
0
 40
1
 40
1
 40
1
 40
1
 10
0.149713
 20
111.301440
 30
0.0
 10
2.502319
 20
104.352600
 30
0.0
 10
7.989751
 20
98.853297
 30
0.0
 10
14.927601
 20
96.479112
 30
0.0
  0
LWPOLYLINE
  5
137
100
AcDbEntity
  8
Layer_1
 62
7
100
AcDbPolyline
 90
1
 70
1
 10
60.073055
 20
16.613875
 30
0.0
  0
SPLINE
  5
138
100
AcDbEntity
  8
Layer_1
 62
7
100
AcDbSpline
 70
8
 71
3
 72
8
 73
4
 74
0
 40
0
 40
0
 40
0
 40
0
 40
1
 40
1
 40
1
 40
1
 10
30.281998
 20
96.479112
 30
0.0
 10
37.219837
 20
98.853297
 30
0.0
 10
42.707789
 20
104.352600
 30
0.0
 10
45.060396
 20
111.301440
 30
0.0
  0
SPLINE
  5
139
100
AcDbEntity
  8
Layer_1
 62
7
100
AcDbSpline
 70
8
 71
3
 72
8
 73
4
 74
0
 40
0
 40
0
 40
0
 40
0
 40
1
 40
1
 40
1
 40
1
 10
45.060396
 20
111.301440
 30
0.0
 10
45.124896
 20
111.492552
 30
0.0
 10
45.159596
 20
111.695756
 30
0.0
 10
45.159596
 20
111.907086
 30
0.0
  0
SPLINE
  5
13a
100
AcDbEntity
  8
Layer_1
 62
7
100
AcDbSpline
 70
8
 71
3
 72
8
 73
4
 74
0
 40
0
 40
0
 40
0
 40
0
 40
1
 40
1
 40
1
 40
1
 10
45.159596
 20
111.907086
 30
0.0
 10
45.159596
 20
112.946736
 30
0.0
 10
44.316857
 20
113.789657
 30
0.0
 10
43.277028
 20
113.789657
 30
0.0
  0
LWPOLYLINE
  5
13b
100
AcDbEntity
  8
Layer_1
 62
7
100
AcDbPolyline
 90
5
 70
0
 10
14.927601
 20
96.479112
 30
0.0
 10
14.927601
 20
0.050000
 30
0.0
 10
30.275998
 20
0.050000
 30
0.0
 10
30.275998
 20
96.479112
 30
0.0
 10
30.281998
 20
96.479112
 30
0.0
  0
SPLINE
  5
13c
100
AcDbEntity
  8
Layer_1
 62
7
100
AcDbSpline
 70
8
 71
3
 72
8
 73
4
 74
0
 40
0
 40
0
 40
0
 40
0
 40
1
 40
1
 40
1
 40
1
 10
3.608958
 20
112.756131
 30
0.0
 10
3.993535
 20
112.756141
 30
0.0
 10
4.362364
 20
112.603373
 30
0.0
 10
4.634301
 20
112.331436
 30
0.0
  0
SPLINE
  5
13d
100
AcDbEntity
  8
Layer_1
 62
7
100
AcDbSpline
 70
8
 71
3
 72
8
 73
4
 74
0
 40
0
 40
0
 40
0
 40
0
 40
1
 40
1
 40
1
 40
1
 10
4.634301
 20
112.331436
 30
0.0
 10
4.906238
 20
112.059498
 30
0.0
 10
5.059006
 20
111.690669
 30
0.0
 10
5.058995
 20
111.306092
 30
0.0
  0
SPLINE
  5
13e
100
AcDbEntity
  8
Layer_1
 62
7
100
AcDbSpline
 70
8
 71
3
 72
8
 73
4
 74
0
 40
0
 40
0
 40
0
 40
0
 40
1
 40
1
 40
1
 40
1
 10
5.058995
 20
111.306092
 30
0.0
 10
5.059006
 20
110.921514
 30
0.0
 10
4.906238
 20
110.552685
 30
0.0
 10
4.634301
 20
110.280748
 30
0.0
  0
SPLINE
  5
13f
100
AcDbEntity
  8
Layer_1
 62
7
100
AcDbSpline
 70
8
 71
3
 72
8
 73
4
 74
0
 40
0
 40
0
 40
0
 40
0
 40
1
 40
1
 40
1
 40
1
 10
4.634301
 20
110.280748
 30
0.0
 10
4.362364
 20
110.008810
 30
0.0
 10
3.993535
 20
109.856042
 30
0.0
 10
3.608958
 20
109.856053
 30
0.0
  0
SPLINE
  5
140
100
AcDbEntity
  8
Layer_1
 62
7
100
AcDbSpline
 70
8
 71
3
 72
8
 73
4
 74
0
 40
0
 40
0
 40
0
 40
0
 40
1
 40
1
 40
1
 40
1
 10
3.608958
 20
109.856053
 30
0.0
 10
3.224380
 20
109.856042
 30
0.0
 10
2.855551
 20
110.008810
 30
0.0
 10
2.583614
 20
110.280748
 30
0.0
  0
SPLINE
  5
141
100
AcDbEntity
  8
Layer_1
 62
7
100
AcDbSpline
 70
8
 71
3
 72
8
 73
4
 74
0
 40
0
 40
0
 40
0
 40
0
 40
1
 40
1
 40
1
 40
1
 10
2.583614
 20
110.280748
 30
0.0
 10
2.311677
 20
110.552685
 30
0.0
 10
2.158909
 20
110.921514
 30
0.0
 10
2.158920
 20
111.306092
 30
0.0
  0
SPLINE
  5
142
100
AcDbEntity
  8
Layer_1
 62
7
100
AcDbSpline
 70
8
 71
3
 72
8
 73
4
 74
0
 40
0
 40
0
 40
0
 40
0
 40
1
 40
1
 40
1
 40
1
 10
2.158920
 20
111.306092
 30
0.0
 10
2.158909
 20
111.690669
 30
0.0
 10
2.311677
 20
112.059498
 30
0.0
 10
2.583614
 20
112.331436
 30
0.0
  0
SPLINE
  5
143
100
AcDbEntity
  8
Layer_1
 62
7
100
AcDbSpline
 70
8
 71
3
 72
8
 73
4
 74
0
 40
0
 40
0
 40
0
 40
0
 40
1
 40
1
 40
1
 40
1
 10
2.583614
 20
112.331436
 30
0.0
 10
2.855551
 20
112.603373
 30
0.0
 10
3.224380
 20
112.756141
 30
0.0
 10
3.608958
 20
112.756131
 30
0.0
  0
LWPOLYLINE
  5
144
100
AcDbEntity
  8
Layer_1
 62
7
100
AcDbPolyline
 90
2
 70
0
 10
43.277028
 20
113.789657
 30
0.0
 10
1.933610
 20
113.789657
 30
0.0
  0
SPLINE
  5
145
100
AcDbEntity
  8
Layer_1
 62
7
100
AcDbSpline
 70
8
 71
3
 72
8
 73
4
 74
0
 40
0
 40
0
 40
0
 40
0
 40
1
 40
1
 40
1
 40
1
 10
41.386961
 20
112.756131
 30
0.0
 10
41.771539
 20
112.756141
 30
0.0
 10
42.140368
 20
112.603373
 30
0.0
 10
42.412305
 20
112.331436
 30
0.0
  0
SPLINE
  5
146
100
AcDbEntity
  8
Layer_1
 62
7
100
AcDbSpline
 70
8
 71
3
 72
8
 73
4
 74
0
 40
0
 40
0
 40
0
 40
0
 40
1
 40
1
 40
1
 40
1
 10
42.412305
 20
112.331436
 30
0.0
 10
42.684242
 20
112.059498
 30
0.0
 10
42.837010
 20
111.690669
 30
0.0
 10
42.836999
 20
111.306092
 30
0.0
  0
SPLINE
  5
147
100
AcDbEntity
  8
Layer_1
 62
7
100
AcDbSpline
 70
8
 71
3
 72
8
 73
4
 74
0
 40
0
 40
0
 40
0
 40
0
 40
1
 40
1
 40
1
 40
1
 10
42.836999
 20
111.306092
 30
0.0
 10
42.837010
 20
110.921514
 30
0.0
 10
42.684242
 20
110.552685
 30
0.0
 10
42.412305
 20
110.280748
 30
0.0
  0
SPLINE
  5
148
100
AcDbEntity
  8
Layer_1
 62
7
100
AcDbSpline
 70
8
 71
3
 72
8
 73
4
 74
0
 40
0
 40
0
 40
0
 40
0
 40
1
 40
1
 40
1
 40
1
 10
42.412305
 20
110.280748
 30
0.0
 10
42.140368
 20
110.008810
 30
0.0
 10
41.771539
 20
109.856042
 30
0.0
 10
41.386961
 20
109.856053
 30
0.0
  0
SPLINE
  5
149
100
AcDbEntity
  8
Layer_1
 62
7
100
AcDbSpline
 70
8
 71
3
 72
8
 73
4
 74
0
 40
0
 40
0
 40
0
 40
0
 40
1
 40
1
 40
1
 40
1
 10
41.386961
 20
109.856053
 30
0.0
 10
41.002384
 20
109.856042
 30
0.0
 10
40.633555
 20
110.008810
 30
0.0
 10
40.361618
 20
110.280748
 30
0.0
  0
SPLINE
  5
14a
100
AcDbEntity
  8
Layer_1
 62
7
100
AcDbSpline
 70
8
 71
3
 72
8
 73
4
 74
0
 40
0
 40
0
 40
0
 40
0
 40
1
 40
1
 40
1
 40
1
 10
40.361618
 20
110.280748
 30
0.0
 10
40.089680
 20
110.552685
 30
0.0
 10
39.936912
 20
110.921514
 30
0.0
 10
39.936923
 20
111.306092
 30
0.0
  0
SPLINE
  5
14b
100
AcDbEntity
  8
Layer_1
 62
7
100
AcDbSpline
 70
8
 71
3
 72
8
 73
4
 74
0
 40
0
 40
0
 40
0
 40
0
 40
1
 40
1
 40
1
 40
1
 10
39.936923
 20
111.306092
 30
0.0
 10
39.936912
 20
111.690669
 30
0.0
 10
40.089680
 20
112.059498
 30
0.0
 10
40.361618
 20
112.331436
 30
0.0
  0
SPLINE
  5
14c
100
AcDbEntity
  8
Layer_1
 62
7
100
AcDbSpline
 70
8
 71
3
 72
8
 73
4
 74
0
 40
0
 40
0
 40
0
 40
0
 40
1
 40
1
 40
1
 40
1
 10
40.361618
 20
112.331436
 30
0.0
 10
40.633555
 20
112.603373
 30
0.0
 10
41.002384
 20
112.756141
 30
0.0
 10
41.386961
 20
112.756131
 30
0.0
  0
LWPOLYLINE
  5
14d
100
AcDbEntity
  8
Layer_1
 62
7
100
AcDbPolyline
 90
1
 70
1
 10
3.608958
 20
112.756131
 30
0.0
  0
SPLINE
  5
14e
100
AcDbEntity
  8
Layer_1
 62
7
100
AcDbSpline
 70
8
 71
3
 72
8
 73
4
 74
0
 40
0
 40
0
 40
0
 40
0
 40
1
 40
1
 40
1
 40
1
 10
22.604669
 20
103.035292
 30
0.0
 10
22.989247
 20
103.035303
 30
0.0
 10
23.358076
 20
102.882535
 30
0.0
 10
23.630013
 20
102.610597
 30
0.0
  0
SPLINE
  5
14f
100
AcDbEntity
  8
Layer_1
 62
7
100
AcDbSpline
 70
8
 71
3
 72
8
 73
4
 74
0
 40
0
 40
0
 40
0
 40
0
 40
1
 40
1
 40
1
 40
1
 10
23.630013
 20
102.610597
 30
0.0
 10
23.901950
 20
102.338660
 30
0.0
 10
24.054718
 20
101.969831
 30
0.0
 10
24.054707
 20
101.585253
 30
0.0
  0
SPLINE
  5
150
100
AcDbEntity
  8
Layer_1
 62
7
100
AcDbSpline
 70
8
 71
3
 72
8
 73
4
 74
0
 40
0
 40
0
 40
0
 40
0
 40
1
 40
1
 40
1
 40
1
 10
24.054707
 20
101.585253
 30
0.0
 10
24.054445
 20
100.784611
 30
0.0
 10
23.405311
 20
100.135708
 30
0.0
 10
22.604669
 20
100.135730
 30
0.0
  0
SPLINE
  5
151
100
AcDbEntity
  8
Layer_1
 62
7
100
AcDbSpline
 70
8
 71
3
 72
8
 73
4
 74
0
 40
0
 40
0
 40
0
 40
0
 40
1
 40
1
 40
1
 40
1
 10
22.604669
 20
100.135730
 30
0.0
 10
21.804027
 20
100.135708
 30
0.0
 10
21.154894
 20
100.784611
 30
0.0
 10
21.154631
 20
101.585253
 30
0.0
  0
SPLINE
  5
152
100
AcDbEntity
  8
Layer_1
 62
7
100
AcDbSpline
 70
8
 71
3
 72
8
 73
4
 74
0
 40
0
 40
0
 40
0
 40
0
 40
1
 40
1
 40
1
 40
1
 10
21.154631
 20
101.585253
 30
0.0
 10
21.154621
 20
101.969831
 30
0.0
 10
21.307388
 20
102.338660
 30
0.0
 10
21.579326
 20
102.610597
 30
0.0
  0
SPLINE
  5
153
100
AcDbEntity
  8
Layer_1
 62
7
100
AcDbSpline
 70
8
 71
3
 72
8
 73
4
 74
0
 40
0
 40
0
 40
0
 40
0
 40
1
 40
1
 40
1
 40
1
 10
21.579326
 20
102.610597
 30
0.0
 10
21.851263
 20
102.882535
 30
0.0
 10
22.220092
 20
103.035303
 30
0.0
 10
22.604669
 20
103.035292
 30
0.0
  0
LWPOLYLINE
  5
154
100
AcDbEntity
  8
Layer_1
 62
7
100
AcDbPolyline
 90
1
 70
1
 10
41.386961
 20
112.756131
 30
0.0
  0
SPLINE
  5
155
100
AcDbEntity
  8
Layer_1
 62
7
100
AcDbSpline
 70
8
 71
3
 72
8
 73
4
 74
0
 40
0
 40
0
 40
0
 40
0
 40
1
 40
1
 40
1
 40
1
 10
52.398845
 20
98.443813
 30
0.0
 10
52.376345
 20
98.420993
 30
0.0
 10
52.352445
 20
98.399673
 30
0.0
 10
52.330145
 20
98.376633
 30
0.0
  0
SPLINE
  5
156
100
AcDbEntity
  8
Layer_1
 62
7
100
AcDbSpline
 70
8
 71
3
 72
8
 73
4
 74
0
 40
0
 40
0
 40
0
 40
0
 40
1
 40
1
 40
1
 40
1
 10
52.330145
 20
98.376633
 30
0.0
 10
45.011926
 20
91.333267
 30
0.0
 10
42.609509
 20
83.258012
 30
0.0
 10
41.766981
 20
76.861184
 30
0.0
  0
LWPOLYLINE
  5
157
100
AcDbEntity
  8
Layer_1
 62
7
100
AcDbPolyline
 90
1
 70
1
 10
22.604669
 20
103.035292
 30
0.0
  0
SPLINE
  5
158
100
AcDbEntity
  8
Layer_1
 62
7
100
AcDbSpline
 70
8
 71
3
 72
8
 73
4
 74
0
 40
0
 40
0
 40
0
 40
0
 40
1
 40
1
 40
1
 40
1
 10
78.373983
 20
76.861184
 30
0.0
 10
77.535474
 20
83.242401
 30
0.0
 10
75.155151
 20
91.288750
 30
0.0
 10
67.918312
 20
98.308421
 30
0.0
  0
SPLINE
  5
159
100
AcDbEntity
  8
Layer_1
 62
7
100
AcDbSpline
 70
8
 71
3
 72
8
 73
4
 74
0
 40
0
 40
0
 40
0
 40
0
 40
1
 40
1
 40
1
 40
1
 10
67.918312
 20
98.308421
 30
0.0
 10
67.874012
 20
98.354861
 30
0.0
 10
67.827412
 20
98.398251
 30
0.0
 10
67.782402
 20
98.443813
 30
0.0
  0
LWPOLYLINE
  5
15a
100
AcDbEntity
  8
Layer_1
 62
7
100
AcDbPolyline
 90
2
 70
0
 10
41.766981
 20
76.861184
 30
0.0
 10
78.373983
 20
76.861184
 30
0.0
  0
SPLINE
  5
15b
100
AcDbEntity
  8
Layer_1
 62
7
100
AcDbSpline
 70
8
 71
3
 72
8
 73
4
 74
0
 40
0
 40
0
 40
0
 40
0
 40
1
 40
1
 40
1
 40
1
 10
54.493802
 20
97.057853
 30
0.0
 10
54.878379
 20
97.057864
 30
0.0
 10
55.247208
 20
96.905096
 30
0.0
 10
55.519145
 20
96.633159
 30
0.0
  0
SPLINE
  5
15c
100
AcDbEntity
  8
Layer_1
 62
7
100
AcDbSpline
 70
8
 71
3
 72
8
 73
4
 74
0
 40
0
 40
0
 40
0
 40
0
 40
1
 40
1
 40
1
 40
1
 10
55.519145
 20
96.633159
 30
0.0
 10
55.791082
 20
96.361221
 30
0.0
 10
55.943850
 20
95.992392
 30
0.0
 10
55.943839
 20
95.607815
 30
0.0
  0
SPLINE
  5
15d
100
AcDbEntity
  8
Layer_1
 62
7
100
AcDbSpline
 70
8
 71
3
 72
8
 73
4
 74
0
 40
0
 40
0
 40
0
 40
0
 40
1
 40
1
 40
1
 40
1
 10
55.943839
 20
95.607815
 30
0.0
 10
55.943850
 20
95.223238
 30
0.0
 10
55.791082
 20
94.854409
 30
0.0
 10
55.519145
 20
94.582471
 30
0.0
  0
SPLINE
  5
15e
100
AcDbEntity
  8
Layer_1
 62
7
100
AcDbSpline
 70
8
 71
3
 72
8
 73
4
 74
0
 40
0
 40
0
 40
0
 40
0
 40
1
 40
1
 40
1
 40
1
 10
55.519145
 20
94.582471
 30
0.0
 10
55.247208
 20
94.310534
 30
0.0
 10
54.878379
 20
94.157766
 30
0.0
 10
54.493802
 20
94.157776
 30
0.0
  0
SPLINE
  5
15f
100
AcDbEntity
  8
Layer_1
 62
7
100
AcDbSpline
 70
8
 71
3
 72
8
 73
4
 74
0
 40
0
 40
0
 40
0
 40
0
 40
1
 40
1
 40
1
 40
1
 10
54.493802
 20
94.157776
 30
0.0
 10
54.109224
 20
94.157766
 30
0.0
 10
53.740395
 20
94.310534
 30
0.0
 10
53.468458
 20
94.582471
 30
0.0
  0
SPLINE
  5
160
100
AcDbEntity
  8
Layer_1
 62
7
100
AcDbSpline
 70
8
 71
3
 72
8
 73
4
 74
0
 40
0
 40
0
 40
0
 40
0
 40
1
 40
1
 40
1
 40
1
 10
53.468458
 20
94.582471
 30
0.0
 10
53.196521
 20
94.854409
 30
0.0
 10
53.043753
 20
95.223238
 30
0.0
 10
53.043764
 20
95.607815
 30
0.0
  0
SPLINE
  5
161
100
AcDbEntity
  8
Layer_1
 62
7
100
AcDbSpline
 70
8
 71
3
 72
8
 73
4
 74
0
 40
0
 40
0
 40
0
 40
0
 40
1
 40
1
 40
1
 40
1
 10
53.043764
 20
95.607815
 30
0.0
 10
53.043753
 20
95.992392
 30
0.0
 10
53.196521
 20
96.361221
 30
0.0
 10
53.468458
 20
96.633159
 30
0.0
  0
SPLINE
  5
162
100
AcDbEntity
  8
Layer_1
 62
7
100
AcDbSpline
 70
8
 71
3
 72
8
 73
4
 74
0
 40
0
 40
0
 40
0
 40
0
 40
1
 40
1
 40
1
 40
1
 10
53.468458
 20
96.633159
 30
0.0
 10
53.740395
 20
96.905096
 30
0.0
 10
54.109224
 20
97.057864
 30
0.0
 10
54.493802
 20
97.057853
 30
0.0
  0
LWPOLYLINE
  5
163
100
AcDbEntity
  8
Layer_1
 62
7
100
AcDbPolyline
 90
2
 70
0
 10
67.782402
 20
98.443813
 30
0.0
 10
52.398845
 20
98.443813
 30
0.0
  0
SPLINE
  5
164
100
AcDbEntity
  8
Layer_1
 62
7
100
AcDbSpline
 70
8
 71
3
 72
8
 73
4
 74
0
 40
0
 40
0
 40
0
 40
0
 40
1
 40
1
 40
1
 40
1
 10
47.822902
 20
80.881088
 30
0.0
 10
48.207479
 20
80.881099
 30
0.0
 10
48.576308
 20
80.728331
 30
0.0
 10
48.848245
 20
80.456393
 30
0.0
  0
SPLINE
  5
165
100
AcDbEntity
  8
Layer_1
 62
7
100
AcDbSpline
 70
8
 71
3
 72
8
 73
4
 74
0
 40
0
 40
0
 40
0
 40
0
 40
1
 40
1
 40
1
 40
1
 10
48.848245
 20
80.456393
 30
0.0
 10
49.120182
 20
80.184456
 30
0.0
 10
49.272950
 20
79.815627
 30
0.0
 10
49.272939
 20
79.431049
 30
0.0
  0
SPLINE
  5
166
100
AcDbEntity
  8
Layer_1
 62
7
100
AcDbSpline
 70
8
 71
3
 72
8
 73
4
 74
0
 40
0
 40
0
 40
0
 40
0
 40
1
 40
1
 40
1
 40
1
 10
49.272939
 20
79.431049
 30
0.0
 10
49.272950
 20
79.046472
 30
0.0
 10
49.120182
 20
78.677643
 30
0.0
 10
48.848245
 20
78.405705
 30
0.0
  0
SPLINE
  5
167
100
AcDbEntity
  8
Layer_1
 62
7
100
AcDbSpline
 70
8
 71
3
 72
8
 73
4
 74
0
 40
0
 40
0
 40
0
 40
0
 40
1
 40
1
 40
1
 40
1
 10
48.848245
 20
78.405705
 30
0.0
 10
48.576308
 20
78.133768
 30
0.0
 10
48.207479
 20
77.981000
 30
0.0
 10
47.822902
 20
77.981011
 30
0.0
  0
SPLINE
  5
168
100
AcDbEntity
  8
Layer_1
 62
7
100
AcDbSpline
 70
8
 71
3
 72
8
 73
4
 74
0
 40
0
 40
0
 40
0
 40
0
 40
1
 40
1
 40
1
 40
1
 10
47.822902
 20
77.981011
 30
0.0
 10
47.438324
 20
77.981000
 30
0.0
 10
47.069495
 20
78.133768
 30
0.0
 10
46.797558
 20
78.405705
 30
0.0
  0
SPLINE
  5
169
100
AcDbEntity
  8
Layer_1
 62
7
100
AcDbSpline
 70
8
 71
3
 72
8
 73
4
 74
0
 40
0
 40
0
 40
0
 40
0
 40
1
 40
1
 40
1
 40
1
 10
46.797558
 20
78.405705
 30
0.0
 10
46.525621
 20
78.677643
 30
0.0
 10
46.372853
 20
79.046472
 30
0.0
 10
46.372864
 20
79.431049
 30
0.0
  0
SPLINE
  5
16a
100
AcDbEntity
  8
Layer_1
 62
7
100
AcDbSpline
 70
8
 71
3
 72
8
 73
4
 74
0
 40
0
 40
0
 40
0
 40
0
 40
1
 40
1
 40
1
 40
1
 10
46.372864
 20
79.431049
 30
0.0
 10
46.372853
 20
79.815627
 30
0.0
 10
46.525621
 20
80.184456
 30
0.0
 10
46.797558
 20
80.456393
 30
0.0
  0
SPLINE
  5
16b
100
AcDbEntity
  8
Layer_1
 62
7
100
AcDbSpline
 70
8
 71
3
 72
8
 73
4
 74
0
 40
0
 40
0
 40
0
 40
0
 40
1
 40
1
 40
1
 40
1
 10
46.797558
 20
80.456393
 30
0.0
 10
47.069495
 20
80.728331
 30
0.0
 10
47.438324
 20
80.881099
 30
0.0
 10
47.822902
 20
80.881088
 30
0.0
  0
LWPOLYLINE
  5
16c
100
AcDbEntity
  8
Layer_1
 62
7
100
AcDbPolyline
 90
1
 70
1
 10
54.493802
 20
97.057853
 30
0.0
  0
LWPOLYLINE
  5
16d
100
AcDbEntity
  8
Layer_1
 62
7
100
AcDbPolyline
 90
1
 70
1
 10
47.822902
 20
80.881088
 30
0.0
  0
ENDSEC
  0
SECTION
  2
OBJECTS
  0
DICTIONARY
  5
C
330
0
100
AcDbDictionary
  3
ACAD_GROUP
350
D
  3
ACAD_MLINESTYLE
350
17
  0
DICTIONARY
  5
D
330
C
100
AcDbDictionary
  0
DICTIONARY
  5
1A
330
C
100
AcDbDictionary
  0
DICTIONARY
  5
17
330
C
100
AcDbDictionary
  3
STANDARD
350
18
  0
DICTIONARY
  5
19
330
C
100
AcDbDictionary
  0
ENDSEC
  0
EOF
