<?xml version="1.0" encoding="UTF-8" standalone="no"?>
<svg
   inkscape:version="1.1 (c4e8f9ed74, 2021-05-24)"
   sodipodi:docname="board_shape.svg"
   id="svg8"
   version="1.1"
   viewBox="0 0 420.00002 297"
   height="297mm"
   width="420mm"
   xmlns:inkscape="http://www.inkscape.org/namespaces/inkscape"
   xmlns:sodipodi="http://sodipodi.sourceforge.net/DTD/sodipodi-0.dtd"
   xmlns="http://www.w3.org/2000/svg"
   xmlns:svg="http://www.w3.org/2000/svg"
   xmlns:rdf="http://www.w3.org/1999/02/22-rdf-syntax-ns#"
   xmlns:cc="http://creativecommons.org/ns#"
   xmlns:dc="http://purl.org/dc/elements/1.1/">
  <defs
     id="defs2" />
  <sodipodi:namedview
     inkscape:snap-global="false"
     inkscape:snap-nodes="true"
     fit-margin-bottom="0"
     fit-margin-right="0"
     fit-margin-left="0"
     fit-margin-top="0"
     inkscape:guide-bbox="true"
     showguides="true"
     inkscape:window-maximized="1"
     inkscape:window-y="0"
     inkscape:window-x="0"
     inkscape:window-height="1137"
     inkscape:window-width="1920"
     showgrid="true"
     inkscape:document-rotation="0"
     inkscape:current-layer="layer1"
     inkscape:document-units="mm"
     inkscape:cy="573"
     inkscape:cx="769.5"
     inkscape:zoom="1"
     inkscape:pageshadow="2"
     inkscape:pageopacity="0.0"
     borderopacity="1.0"
     bordercolor="#666666"
     pagecolor="#ffffff"
     id="base"
     inkscape:pagecheckerboard="0"
     width="245mm"
     units="mm" />
  <metadata
     id="metadata5">
    <rdf:RDF>
      <cc:Work
         rdf:about="">
        <dc:format>image/svg+xml</dc:format>
        <dc:type
           rdf:resource="http://purl.org/dc/dcmitype/StillImage" />
      </cc:Work>
    </rdf:RDF>
  </metadata>
  <g
     transform="translate(-329.69947,-122.01652)"
     id="layer1"
     inkscape:groupmode="layer"
     inkscape:label="Layer 1">
    <text
       id="text1320-4-1-1"
       y="165.53595"
       x="388.81961"
       style="font-style:normal;font-weight:normal;font-size:5.64444px;line-height:1.25;font-family:sans-serif;fill:#000000;fill-opacity:1;stroke:none;stroke-width:0.264583"
       xml:space="preserve"><tspan
         id="tspan1324-1-5-9"
         style="font-size:5.64444px;text-align:center;text-anchor:middle;stroke-width:0.264583"
         y="165.53595"
         x="388.81961"
         sodipodi:role="line">Front assembly </tspan><tspan
         id="tspan1913-6"
         style="font-size:5.64444px;text-align:center;text-anchor:middle;stroke-width:0.264583"
         y="172.59151"
         x="388.81961"
         sodipodi:role="line">view</tspan></text>
    <text
       xml:space="preserve"
       style="font-style:normal;font-weight:normal;font-size:5.64444px;line-height:1.25;font-family:sans-serif;fill:#000000;fill-opacity:1;stroke:none;stroke-width:0.264583"
       x="490.10501"
       y="165.53595"
       id="text1320-4-2"><tspan
         sodipodi:role="line"
         x="490.10501"
         y="165.53595"
         style="font-size:5.64444px;text-align:center;text-anchor:middle;stroke-width:0.264583"
         id="tspan1324-1-54">Top assembly </tspan><tspan
         id="tspan1911-4"
         sodipodi:role="line"
         x="490.10501"
         y="172.59151"
         style="font-size:5.64444px;text-align:center;text-anchor:middle;stroke-width:0.264583">view</tspan></text>
    <text
       id="text1320-48-9"
       y="165.53595"
       x="590.13196"
       style="font-style:normal;font-weight:normal;font-size:5.64444px;line-height:1.25;font-family:sans-serif;fill:#000000;fill-opacity:1;stroke:none;stroke-width:0.264583"
       xml:space="preserve"><tspan
         id="tspan1324-17-9"
         style="font-size:5.64444px;text-align:center;text-anchor:middle;stroke-width:0.264583"
         y="165.53595"
         x="590.13196"
         sodipodi:role="line">Side View</tspan></text>
    <text
       id="text1320-48-9-3"
       y="165.43674"
       x="691.17877"
       style="font-style:normal;font-weight:normal;font-size:5.64444px;line-height:1.25;font-family:sans-serif;fill:#000000;fill-opacity:1;stroke:none;stroke-width:0.264583"
       xml:space="preserve"><tspan
         id="tspan1324-17-9-6"
         style="font-size:5.64444px;text-align:center;text-anchor:middle;stroke-width:0.264583"
         y="165.43674"
         x="691.17877"
         sodipodi:role="line">Curves</tspan></text>
    <g
       id="g101601"
       transform="translate(17.918022)">
      <g
         id="g101479"
         transform="translate(-16.830901)">
        <rect
           style="font-variation-settings:normal;vector-effect:none;fill:#c0f1c4;fill-opacity:1;stroke:#000000;stroke-width:0.1;stroke-linecap:butt;stroke-linejoin:bevel;stroke-miterlimit:4;stroke-dasharray:none;stroke-dashoffset:0;stroke-opacity:1;-inkscape-stroke:none;paint-order:stroke fill markers;stop-color:#000000"
           id="rect23944-3"
           width="14.906416"
           height="6.9194922"
           x="497.83841"
           y="280.72974" />
        <text
           xml:space="preserve"
           style="font-style:normal;font-weight:normal;font-size:4.16058px;line-height:1.25;font-family:sans-serif;fill:#000000;fill-opacity:1;stroke:none;stroke-width:0.264583"
           x="501.60031"
           y="285.74054"
           id="text25238-1"><tspan
             sodipodi:role="line"
             id="tspan25236-9"
             style="stroke-width:0.264583"
             x="501.60031"
             y="285.74054">Soil</tspan></text>
      </g>
      <g
         id="g101474"
         transform="translate(-16.743842)">
        <rect
           style="font-variation-settings:normal;vector-effect:none;fill:#d894bd;fill-opacity:1;stroke:#000008;stroke-width:0.0999998;stroke-linecap:butt;stroke-linejoin:bevel;stroke-miterlimit:4;stroke-dasharray:none;stroke-dashoffset:0;stroke-opacity:1;-inkscape-stroke:none;paint-order:normal;stop-color:#000000"
           id="rect23944-3-1"
           width="14.906416"
           height="6.9194922"
           x="514.93048"
           y="280.72974" />
        <text
           xml:space="preserve"
           style="font-style:normal;font-weight:normal;font-size:4.16058px;line-height:1.25;font-family:sans-serif;fill:#000000;fill-opacity:1;stroke:none;stroke-width:0.264583"
           x="517.896"
           y="285.67657"
           id="text25238-1-77"><tspan
             sodipodi:role="line"
             id="tspan25236-9-1"
             style="stroke-width:0.264583"
             x="517.896"
             y="285.67657">Batt</tspan></text>
      </g>
      <g
         id="g101494"
         transform="translate(0.08705057)">
        <rect
           style="font-variation-settings:normal;vector-effect:none;fill:#f9dada;fill-opacity:1;stroke:#000000;stroke-width:0.1;stroke-linecap:butt;stroke-linejoin:bevel;stroke-miterlimit:4;stroke-dasharray:none;stroke-dashoffset:0;stroke-opacity:1;-inkscape-stroke:none;paint-order:stroke fill markers;stop-color:#000000"
           id="rect23944-3-4"
           width="14.906416"
           height="6.9194922"
           x="446.56223"
           y="280.72974" />
        <text
           xml:space="preserve"
           style="font-style:normal;font-weight:normal;font-size:4.16058px;line-height:1.25;font-family:sans-serif;fill:#000000;fill-opacity:1;stroke:none;stroke-width:0.264583"
           x="449.02191"
           y="285.74054"
           id="text25238-1-7"><tspan
             sodipodi:role="line"
             id="tspan25236-9-8"
             style="stroke-width:0.264583"
             x="449.02191"
             y="285.74054">Main</tspan></text>
      </g>
      <g
         id="g101489"
         transform="translate(0.17410113)">
        <rect
           style="font-variation-settings:normal;vector-effect:none;fill:#6fdada;fill-opacity:1;stroke:#000000;stroke-width:0.1;stroke-linecap:butt;stroke-linejoin:bevel;stroke-miterlimit:4;stroke-dasharray:none;stroke-dashoffset:0;stroke-opacity:1;-inkscape-stroke:none;paint-order:stroke fill markers;stop-color:#000000"
           id="rect23944-3-4-4"
           width="14.906416"
           height="6.9194922"
           x="463.6543"
           y="280.72974" />
        <text
           xml:space="preserve"
           style="font-style:normal;font-weight:normal;font-size:4.16058px;line-height:1.25;font-family:sans-serif;fill:#000000;fill-opacity:1;stroke:none;stroke-width:0.264583"
           x="466.1983"
           y="285.74054"
           id="text25238-1-7-5"><tspan
             sodipodi:role="line"
             id="tspan25236-9-8-0"
             style="stroke-width:0.264583"
             x="466.1983"
             y="285.74054">Leds</tspan></text>
      </g>
      <g
         id="g101499">
        <rect
           style="font-variation-settings:normal;vector-effect:none;fill:#a394d8;fill-opacity:1;stroke:#000008;stroke-width:0.0999998;stroke-linecap:butt;stroke-linejoin:bevel;stroke-miterlimit:4;stroke-dasharray:none;stroke-dashoffset:0;stroke-opacity:1;-inkscape-stroke:none;paint-order:normal;stop-color:#000000"
           id="rect23944-3-4-4-6"
           width="14.906416"
           height="6.9194922"
           x="429.47015"
           y="280.72974" />
        <text
           xml:space="preserve"
           style="font-style:normal;font-weight:normal;font-size:4.16058px;line-height:1.25;font-family:sans-serif;fill:#000000;fill-opacity:1;stroke:none;stroke-width:0.264583"
           x="434.05078"
           y="285.77002"
           id="text25238-1-7-5-1"><tspan
             sodipodi:role="line"
             id="tspan25236-9-8-0-0"
             style="stroke-width:0.264583"
             x="434.05078"
             y="285.77002">Air</tspan></text>
      </g>
    </g>
    <text
       xml:space="preserve"
       style="font-style:normal;font-weight:normal;font-size:3.52778px;line-height:1.25;font-family:sans-serif;fill:#000000;fill-opacity:1;stroke:none;stroke-width:0.264583"
       x="452.91327"
       y="273.68634"
       id="text48923"><tspan
         sodipodi:role="line"
         id="tspan48921"
         style="font-size:3.52778px;stroke-width:0.264583"
         x="452.91327"
         y="273.68634">View -&gt; Display Mode -&gt; Outline Overlay</tspan></text>
    <g
       id="g101161"
       transform="translate(4.9999086)">
      <path
         id="path881-9-6-1-8-5-6-1-9-4-9"
         style="font-variation-settings:normal;opacity:1;vector-effect:none;fill:#000000;fill-opacity:1;stroke:none;stroke-width:0.100008;stroke-linecap:butt;stroke-linejoin:round;stroke-miterlimit:4;stroke-dasharray:none;stroke-dashoffset:0;stroke-opacity:1;-inkscape-stroke:none;paint-order:normal;stop-color:#000000;stop-opacity:1"
         sodipodi:type="inkscape:offset"
         inkscape:radius="2.0018787"
         inkscape:original="M 356.69922 149.38086 C 352.77168 149.38086 349.15226 151.05809 346.35547 153.8125 C 334.11406 165.86841 331.87443 179.96982 331.70312 189.06055 C 331.44038 203.00443 342.8946 214.38086 356.69922 214.38086 C 370.50386 214.38086 381.95806 203.00443 381.69531 189.06055 C 381.52401 179.96982 379.28634 165.86841 367.04492 153.8125 C 364.24814 151.05809 360.62676 149.38086 356.69922 149.38086 z "
         transform="matrix(0.99989503,0,0,0.99994348,329.53778,44.645938)"
         d="m 356.69922,147.37891 c -4.49747,0 -8.62552,1.9326 -11.74805,5.00781 -12.71047,12.51786 -15.07323,27.25636 -15.25,36.63672 -0.28377,15.0601 12.09359,27.35937 26.99805,27.35937 14.90447,0 27.28183,-12.29927 26.99805,-27.35937 -0.17676,-9.38008 -2.53749,-24.11878 -15.24805,-36.63672 -3.12285,-3.07554 -7.25254,-5.00781 -11.75,-5.00781 z" />
      <path
         id="path881-9-6-1-8-5-6-1-9-3"
         style="font-variation-settings:normal;vector-effect:none;fill:#e5e5e5;fill-opacity:1;stroke:none;stroke-width:0.1;stroke-linecap:butt;stroke-linejoin:bevel;stroke-miterlimit:4;stroke-dasharray:none;stroke-dashoffset:0;stroke-opacity:1;-inkscape-stroke:none;paint-order:normal;stop-color:#000000"
         d="m 711.19512,233.69625 c -0.1713,-9.09073 -2.40921,-23.19348 -14.65063,-35.24939 -2.79678,-2.75441 -6.4174,-4.43051 -10.34494,-4.43051 -3.92754,0 -7.54815,1.6761 -10.34494,4.43051 -12.24141,12.05591 -14.47932,26.15866 -14.65062,35.24939 -0.26275,13.94388 11.19094,25.32043 24.99556,25.32043 13.80464,0 25.25832,-11.37655 24.99557,-25.32043 z"
         sodipodi:nodetypes="sszcszs" />
      <circle
         style="font-variation-settings:normal;vector-effect:none;fill:#000000;fill-opacity:1;stroke:none;stroke-width:0.0999999;stroke-linecap:butt;stroke-linejoin:round;stroke-miterlimit:4;stroke-dasharray:none;stroke-dashoffset:0;stroke-opacity:1;-inkscape-stroke:none;paint-order:normal;stop-color:#000000"
         id="path79273-3"
         cx="668.54962"
         cy="241.51653"
         r="1.5" />
      <circle
         style="font-variation-settings:normal;vector-effect:none;fill:#000000;fill-opacity:1;stroke:none;stroke-width:0.0999999;stroke-linecap:butt;stroke-linejoin:round;stroke-miterlimit:4;stroke-dasharray:none;stroke-dashoffset:0;stroke-opacity:1;-inkscape-stroke:none;paint-order:normal;stop-color:#000000"
         id="path79273-11-8"
         cx="686.19958"
         cy="253.26653"
         r="1.5" />
      <circle
         style="font-variation-settings:normal;vector-effect:none;fill:#000000;fill-opacity:1;stroke:none;stroke-width:0.0999999;stroke-linecap:butt;stroke-linejoin:round;stroke-miterlimit:4;stroke-dasharray:none;stroke-dashoffset:0;stroke-opacity:1;-inkscape-stroke:none;paint-order:normal;stop-color:#000000"
         id="path79273-4-0"
         cx="703.84961"
         cy="241.47789"
         r="1.5" />
      <circle
         style="font-variation-settings:normal;vector-effect:none;fill:#000000;fill-opacity:1;stroke:none;stroke-width:0.0999999;stroke-linecap:butt;stroke-linejoin:round;stroke-miterlimit:4;stroke-dasharray:none;stroke-dashoffset:0;stroke-opacity:1;-inkscape-stroke:none;paint-order:normal;stop-color:#000000"
         id="path79273-25-2-5"
         cx="677.59961"
         cy="210.51631"
         r="1.5" />
      <circle
         style="font-variation-settings:normal;vector-effect:none;fill:#000000;fill-opacity:1;stroke:none;stroke-width:0.0999999;stroke-linecap:butt;stroke-linejoin:round;stroke-miterlimit:4;stroke-dasharray:none;stroke-dashoffset:0;stroke-opacity:1;-inkscape-stroke:none;paint-order:normal;stop-color:#000000"
         id="path79273-25-2-2-6"
         cx="672.3996"
         cy="221.01651"
         r="1.5" />
      <path
         id="path881-9-6-1-8-5-6-1-9-3-6-4"
         style="font-variation-settings:normal;vector-effect:none;fill:#f9dada;fill-opacity:1;stroke:none;stroke-width:0.0996281;stroke-linecap:butt;stroke-linejoin:bevel;stroke-miterlimit:4;stroke-dasharray:none;stroke-dashoffset:0;stroke-opacity:1;-inkscape-stroke:none;paint-order:normal;stop-color:#000000"
         d="m 686.1995,196.26657 c -3.30248,0 -6.3584,1.39816 -8.79636,3.80184 -11.68669,11.52237 -13.78478,24.89184 -13.94953,33.64446 -0.23912,12.70407 10.17671,23.05389 22.74589,23.05389 12.56921,0 22.985,-10.34982 22.7459,-23.05389 -0.16476,-8.75293 -2.26085,-22.12217 -13.94746,-33.64446 -2.43757,-2.4033 -5.49598,-3.80184 -8.79844,-3.80184 z m -8.59999,12.74961 a 1.4999999,1.4999999 0 0 1 1.50017,1.50017 1.4999999,1.4999999 0 0 1 -1.50017,1.50016 1.4999999,1.4999999 0 0 1 -1.50016,-1.50016 1.4999999,1.4999999 0 0 1 1.50016,-1.50017 z m -5.2002,10.50013 a 1.4999999,1.4999999 0 0 1 1.50017,1.50017 1.4999999,1.4999999 0 0 1 -1.50017,1.50017 1.4999999,1.4999999 0 0 1 -1.49965,-1.50017 1.4999999,1.4999999 0 0 1 1.49965,-1.50017 z m -3.84989,20.50005 a 1.4999999,1.4999999 0 0 1 1.50017,1.50016 1.4999999,1.4999999 0 0 1 -1.50017,1.50017 1.4999999,1.4999999 0 0 1 -1.49965,-1.50017 1.4999999,1.4999999 0 0 1 1.49965,-1.50016 z m 35.30017,0 a 1.5,1.5 0 0 1 1.50017,1.50016 1.5,1.5 0 0 1 -1.50017,1.50017 1.5,1.5 0 0 1 -1.50017,-1.50017 1.5,1.5 0 0 1 1.50017,-1.50016 z m -17.65009,11.75018 a 1.4999999,1.4999999 0 0 1 1.50017,1.50017 1.4999999,1.4999999 0 0 1 -1.50017,1.49965 1.4999999,1.4999999 0 0 1 -1.50016,-1.49965 1.4999999,1.4999999 0 0 1 1.50016,-1.50017 z" />
      <path
         id="path79273-8-6-9-0"
         style="vector-effect:none;fill:#c000c4;stroke:none;stroke-width:0.1;stroke-linejoin:bevel;stop-color:#000000"
         d="m 676.63368,207.0163 c -0.49028,0 -0.92689,0.23412 -1.20251,0.60307 -3.76687,5.04234 -5.89503,10.22511 -7.08071,15.02182 -0.0298,0.12031 -0.0475,0.24546 -0.0475,0.37517 0,0.82843 0.67171,1.50016 1.49914,1.50016 h 32.79489 c 0.82743,0 1.49914,-0.67173 1.49914,-1.50016 0,-0.12971 -0.0178,-0.25487 -0.0475,-0.37517 -1.18568,-4.79672 -3.31384,-9.97948 -7.08071,-15.02182 -0.27562,-0.36895 -0.71223,-0.60307 -1.20251,-0.60307 z m 0.96583,1.99988 c 0.82856,-9e-5 1.50026,0.67161 1.50017,1.50017 9e-5,0.82856 -0.67161,1.50025 -1.50017,1.50016 -0.82856,9e-5 -1.50025,-0.6716 -1.50016,-1.50016 -9e-5,-0.82855 0.67161,-1.50026 1.50016,-1.50017 z m -5.2002,10.50013 c 0.82856,-9e-5 1.50026,0.67161 1.50017,1.50017 9e-5,0.82856 -0.67161,1.50026 -1.50017,1.50017 -0.82836,-1.9e-4 -1.49974,-0.67181 -1.49965,-1.50017 -9e-5,-0.82836 0.67129,-1.49998 1.49965,-1.50017 z" />
    </g>
    <path
       style="font-variation-settings:normal;vector-effect:none;fill:#000000;fill-opacity:1;stroke:none;stroke-width:0.377952;stroke-linecap:butt;stroke-linejoin:round;stroke-miterlimit:4;stroke-dasharray:none;stroke-dashoffset:0;stroke-opacity:1;-inkscape-stroke:none;paint-order:normal;stop-color:#000000"
       d="m 122.67188,412.91797 -3.5586,0.2793 c -0.0154,0.58876 -0.0301,1.17187 -0.041,1.75 -1.07241,56.91684 45.70337,103.40039 102.02929,103.40039 v -7.5586 c -50.24726,0 -92.25208,-39.87856 -94.40039,-89.89844 l -3.60937,0.3086 c -0.26276,0.023 -0.50526,-0.14338 -0.62696,-0.35352 -0.12132,-0.21003 -0.17075,-0.4695 -0.16992,-0.7832 0.0219,-2.16106 0.56101,-5.16251 0.37696,-7.14453 z"
       transform="matrix(0.26458333,0,0,0.26458333,329.69947,122.01652)"
       id="path109231" />
    <path
       style="font-variation-settings:normal;vector-effect:none;fill:#000000;fill-opacity:1;stroke:none;stroke-width:0.377952;stroke-linecap:butt;stroke-linejoin:round;stroke-miterlimit:4;stroke-dasharray:none;stroke-dashoffset:0;stroke-opacity:1;-inkscape-stroke:none;paint-order:normal;stop-color:#000000"
       d="m 192.98633,264.56836 c -5.95593,3.10855 -11.43885,7.14873 -16.28125,11.91797 -46.9165,46.20779 -56.52584,100.42141 -57.57031,135.95312 l 3.51367,-0.27539 c 0.67343,-0.0336 0.76456,0.27333 0.79101,0.9375 0.051,2.11219 -0.40013,4.4965 -0.39257,6.96094 -3.8e-4,0.20976 0.0399,0.32782 0.0664,0.37695 l 3.5586,-0.30468 c -0.0582,-1.67068 -0.0729,-3.35315 -0.041,-5.04493 0.64619,-34.29271 9.07816,-87.45518 55.11133,-132.96289 h 9.12304 v -7.50781 c 0.0265,-0.0189 0.0552,-0.0342 0.082,-0.0508 h 8.3457 a 29.024832,24.295506 0 0 1 -6.30664,-10 z"
       transform="matrix(0.26458333,0,0,0.26458333,329.69947,122.01652)"
       id="path881-9-6-1-8-5-6-1-9-4" />
    <path
       style="font-variation-settings:normal;vector-effect:none;fill:#000000;fill-opacity:1;stroke:none;stroke-width:0.0999998;stroke-linecap:butt;stroke-linejoin:round;stroke-miterlimit:4;stroke-dasharray:none;stroke-dashoffset:0;stroke-opacity:1;-inkscape-stroke:none;paint-order:normal;stop-color:#000000"
       d="m 414.24207,231.26774 0.94154,0.0739 c 0.004,0.15577 0.008,0.31005 0.0109,0.46302 0.28374,15.05924 -12.09235,27.35802 -26.99525,27.35802 v -1.99988 c 13.29459,0 24.40836,-10.5512 24.97677,-23.78563 l 0.95498,0.0816 c 0.0695,0.006 0.13368,-0.0379 0.16588,-0.0935 0.0321,-0.0556 0.0452,-0.12422 0.045,-0.20722 -0.006,-0.57178 -0.14843,-1.36591 -0.0997,-1.89032 z"
       id="path109227" />
    <path
       style="font-variation-settings:normal;vector-effect:none;fill:#000000;fill-opacity:1;stroke:none;stroke-width:0.0999998;stroke-linecap:butt;stroke-linejoin:round;stroke-miterlimit:4;stroke-dasharray:none;stroke-dashoffset:0;stroke-opacity:1;-inkscape-stroke:none;paint-order:normal;stop-color:#000000"
       d="m 395.63803,192.0169 c 1.57584,0.82248 3.02653,1.89144 4.30775,3.1533 12.41333,12.22581 14.9558,26.56983 15.23215,35.97093 l -0.92966,-0.0729 c -0.17818,-0.009 -0.20229,0.0723 -0.20929,0.24804 -0.0135,0.55885 0.10587,1.1897 0.10387,1.84175 10e-5,0.0555 -0.0106,0.0867 -0.0176,0.0997 l -0.94155,-0.0806 c 0.0154,-0.44203 0.0193,-0.88718 0.0109,-1.3348 -0.17097,-9.07328 -2.40193,-23.13918 -14.58154,-35.17977 h -2.4138 v -1.98644 c -0.007,-0.005 -0.0146,-0.009 -0.0217,-0.0134 h -2.20813 a 7.6794867,6.4281859 0 0 0 1.66863,-2.64583 z"
       id="path881-9-6-1-8-5-6-1-9-4-4" />
    <path
       id="path76099-8"
       style="font-variation-settings:normal;vector-effect:none;fill:#c0f1c4;fill-opacity:1;stroke:none;stroke-width:0.1;stroke-linecap:butt;stroke-linejoin:bevel;stroke-miterlimit:4;stroke-dasharray:none;stroke-dashoffset:0;stroke-opacity:1;-inkscape-stroke:none;stop-color:#000000"
       d="m 366.36363,236.16266 c -0.82856,0 -1.50068,0.67174 -1.50068,1.50017 0,0.1282 0.0169,0.25255 0.047,0.37259 1.14347,4.55225 3.60792,8.58761 6.95203,11.68869 1.68699,2.21511 3.59048,5.53105 5.68906,12.31811 5.57099,18.01727 5.68113,44.23975 6.53345,61.99157 0.80101,16.68323 -2.2196,25.12869 4.11499,25.12869 6.33461,0 3.314,-8.44545 4.115,-25.12869 0.85232,-17.75182 0.96246,-43.9743 6.53345,-61.99157 2.09858,-6.78706 4.00207,-10.103 5.68906,-12.31811 3.34411,-3.10108 5.80856,-7.13644 6.95203,-11.68869 0.0301,-0.12004 0.047,-0.24439 0.047,-0.37259 0,-0.82843 -0.67212,-1.50017 -1.50068,-1.50017 z m 39.48596,1.96164 a 1.5,1.5 0 0 1 1.50017,1.49965 1.5,1.5 0 0 1 -1.50017,1.50017 1.5,1.5 0 0 1 -1.50017,-1.50017 1.5,1.5 0 0 1 1.50017,-1.49965 z m -35.30017,0.0382 a 1.4999999,1.4999999 0 0 1 1.50017,1.50017 1.4999999,1.4999999 0 0 1 -1.50017,1.50017 1.4999999,1.4999999 0 0 1 -1.49965,-1.50017 1.4999999,1.4999999 0 0 1 1.49965,-1.50017 z m 17.65008,11.75019 a 1.4999999,1.4999999 0 0 1 1.50017,1.50016 1.4999999,1.4999999 0 0 1 -1.50017,1.49966 1.4999999,1.4999999 0 0 1 -1.50016,-1.49966 1.4999999,1.4999999 0 0 1 1.50016,-1.50016 z" />
    <path
       id="path881-9-6-1-8-5-6-1-9-3-6"
       style="font-variation-settings:normal;vector-effect:none;fill:#f9dada;fill-opacity:1;stroke:none;stroke-width:0.0996281;stroke-linecap:butt;stroke-linejoin:bevel;stroke-miterlimit:4;stroke-dasharray:none;stroke-dashoffset:0;stroke-opacity:1;-inkscape-stroke:none;paint-order:normal;stop-color:#000000"
       d="m 381.26711,196.66275 c -0.65313,0.45653 -1.27724,0.97337 -1.86397,1.55184 -11.68669,11.52238 -13.78478,24.89185 -13.94953,33.64446 -0.23912,12.70408 10.17671,23.05389 22.74589,23.05389 12.56921,0 22.985,-10.34981 22.7459,-23.05389 -0.16476,-8.75292 -2.26085,-22.12216 -13.94746,-33.64446 -0.58665,-0.57839 -1.21118,-1.09533 -1.86449,-1.55184 z m -1.6676,10.49962 c 0.82856,-1e-4 1.50026,0.67161 1.50017,1.50016 9e-5,0.82856 -0.67161,1.50026 -1.50017,1.50017 -0.82855,9e-5 -1.50026,-0.67161 -1.50016,-1.50017 -1e-4,-0.82855 0.67161,-1.50026 1.50016,-1.50016 z m -5.2002,10.50013 c 0.82856,-9e-5 1.50026,0.67161 1.50017,1.50017 9e-5,0.82855 -0.67161,1.50026 -1.50017,1.50017 -0.82835,-2e-4 -1.49974,-0.67182 -1.49965,-1.50017 -9e-5,-0.82836 0.6713,-1.49997 1.49965,-1.50017 z m -3.84989,20.50004 c 0.82856,-9e-5 1.50026,0.67161 1.50017,1.50017 9e-5,0.82856 -0.67161,1.50026 -1.50017,1.50017 -0.82835,-2e-4 -1.49974,-0.67182 -1.49965,-1.50017 -9e-5,-0.82836 0.67129,-1.49998 1.49965,-1.50017 z m 35.30017,0 c 0.82856,-9e-5 1.50026,0.67161 1.50017,1.50017 9e-5,0.82856 -0.67161,1.50026 -1.50017,1.50017 -0.82856,9e-5 -1.50026,-0.67161 -1.50017,-1.50017 -9e-5,-0.82856 0.67161,-1.50026 1.50017,-1.50017 z m -17.65009,11.75019 c 0.82856,-9e-5 1.50026,0.67161 1.50017,1.50016 -1.9e-4,0.82836 -0.67181,1.49975 -1.50017,1.49966 -0.82835,9e-5 -1.49997,-0.6713 -1.50016,-1.49966 -9e-5,-0.82855 0.67161,-1.50025 1.50016,-1.50016 z"
       sodipodi:nodetypes="csssssccccccccccccccccccccccccccc" />
    <path
       id="path79273-8-6-9"
       style="font-variation-settings:normal;vector-effect:none;fill:#6fdada;fill-opacity:1;stroke:none;stroke-width:0.1;stroke-linecap:butt;stroke-linejoin:bevel;stroke-miterlimit:4;stroke-dasharray:none;stroke-dashoffset:0;stroke-opacity:1;-inkscape-stroke:none;stop-color:#000000"
       d="m 378.63368,205.16249 c -0.49028,0 -0.92689,0.23412 -1.20251,0.60306 -3.76687,5.04234 -5.89503,10.22512 -7.08071,15.02182 -0.0298,0.12032 -0.0475,0.24547 -0.0475,0.37518 0,0.82843 0.67171,1.50016 1.49914,1.50016 h 32.79489 c 0.82743,0 1.49914,-0.67173 1.49914,-1.50016 0,-0.12971 -0.0178,-0.25487 -0.0475,-0.37518 -1.18568,-4.79671 -3.31384,-9.97947 -7.08071,-15.02182 -0.27562,-0.36894 -0.71223,-0.60306 -1.20251,-0.60306 z m 0.96583,1.99988 c 0.82856,-9e-5 1.50026,0.67161 1.50017,1.50016 9e-5,0.82856 -0.67161,1.50026 -1.50017,1.50017 -0.82856,9e-5 -1.50025,-0.67161 -1.50016,-1.50017 -9e-5,-0.82855 0.67161,-1.50025 1.50016,-1.50016 z m -5.2002,10.50013 c 0.82856,-9e-5 1.50026,0.67161 1.50017,1.50017 9e-5,0.82856 -0.67161,1.50026 -1.50017,1.50017 -0.82836,-2e-4 -1.49974,-0.67181 -1.49965,-1.50017 -9e-5,-0.82836 0.67129,-1.49998 1.49965,-1.50017 z" />
    <rect
       style="font-variation-settings:normal;vector-effect:none;fill:#a394d8;fill-opacity:1;stroke:none;stroke-width:0.0999998;stroke-linecap:butt;stroke-linejoin:bevel;stroke-miterlimit:4;stroke-dasharray:none;stroke-dashoffset:0;stroke-opacity:1;-inkscape-stroke:none;paint-order:normal;stop-color:#000000"
       id="rect85170-2"
       width="15.5"
       height="1"
       x="380.44949"
       y="194.6627" />
    <circle
       style="font-variation-settings:normal;vector-effect:none;fill:#000000;fill-opacity:1;stroke:none;stroke-width:0.0999999;stroke-linecap:butt;stroke-linejoin:round;stroke-miterlimit:4;stroke-dasharray:none;stroke-dashoffset:0;stroke-opacity:1;-inkscape-stroke:none;paint-order:normal;stop-color:#000000"
       id="path79273"
       cx="370.54956"
       cy="239.6627"
       r="1.5" />
    <circle
       style="font-variation-settings:normal;vector-effect:none;fill:#000000;fill-opacity:1;stroke:none;stroke-width:0.0999999;stroke-linecap:butt;stroke-linejoin:round;stroke-miterlimit:4;stroke-dasharray:none;stroke-dashoffset:0;stroke-opacity:1;-inkscape-stroke:none;paint-order:normal;stop-color:#000000"
       id="path79273-11"
       cx="388.19955"
       cy="251.4127"
       r="1.5" />
    <circle
       style="font-variation-settings:normal;vector-effect:none;fill:#000000;fill-opacity:1;stroke:none;stroke-width:0.0999999;stroke-linecap:butt;stroke-linejoin:round;stroke-miterlimit:4;stroke-dasharray:none;stroke-dashoffset:0;stroke-opacity:1;-inkscape-stroke:none;paint-order:normal;stop-color:#000000"
       id="path79273-4"
       cx="405.84955"
       cy="239.62407"
       r="1.5" />
    <circle
       style="font-variation-settings:normal;vector-effect:none;fill:#000000;fill-opacity:1;stroke:none;stroke-width:0.0999999;stroke-linecap:butt;stroke-linejoin:round;stroke-miterlimit:4;stroke-dasharray:none;stroke-dashoffset:0;stroke-opacity:1;-inkscape-stroke:none;paint-order:normal;stop-color:#000000"
       id="path79273-25-2"
       cx="379.59955"
       cy="208.66249"
       r="1.5" />
    <circle
       style="font-variation-settings:normal;vector-effect:none;fill:#000000;fill-opacity:1;stroke:none;stroke-width:0.0999999;stroke-linecap:butt;stroke-linejoin:round;stroke-miterlimit:4;stroke-dasharray:none;stroke-dashoffset:0;stroke-opacity:1;-inkscape-stroke:none;paint-order:normal;stop-color:#000000"
       id="path79273-25-2-2"
       cx="374.39957"
       cy="219.1627"
       r="1.5" />
    <g
       id="g101201"
       transform="translate(2.500066,-0.30647183)">
      <path
         id="path87882"
         style="font-variation-settings:normal;vector-effect:none;fill:#000000;fill-opacity:1;stroke:none;stroke-width:0.0999998;stroke-linecap:butt;stroke-linejoin:round;stroke-miterlimit:4;stroke-dasharray:none;stroke-dashoffset:0;stroke-opacity:1;-inkscape-stroke:none;paint-order:normal;stop-color:#000000"
         d="m 486.6993,203.32299 a 26.999999,26.999999 0 0 0 -26.9999,26.9999 26.999999,26.999999 0 0 0 26.9999,26.9999 26.999999,26.999999 0 0 0 27.00042,-26.9999 26.999999,26.999999 0 0 0 -27.00042,-26.9999 z m 0,1.99988 a 25,25 0 0 1 25.00003,25.00002 25,25 0 0 1 -25.00003,25.00003 25,25 0 0 1 -24.9995,-25.00003 25,25 0 0 1 24.9995,-25.00002 z" />
      <rect
         style="font-variation-settings:normal;vector-effect:none;fill:#c0f1c4;fill-opacity:1;stroke:none;stroke-width:0.1;stroke-linecap:butt;stroke-linejoin:bevel;stroke-miterlimit:4;stroke-dasharray:none;stroke-dashoffset:0;stroke-opacity:1;-inkscape-stroke:none;paint-order:normal;stop-color:#000000"
         id="rect88029"
         width="46.673"
         height="1"
         x="463.36307"
         y="229.82289" />
      <rect
         style="font-variation-settings:normal;vector-effect:none;fill:#f9dada;fill-opacity:1;stroke:none;stroke-width:0.0996281;stroke-linecap:butt;stroke-linejoin:bevel;stroke-miterlimit:4;stroke-dasharray:none;stroke-dashoffset:0;stroke-opacity:1;-inkscape-stroke:none;paint-order:normal;stop-color:#000000"
         id="rect88029-2"
         width="45.5"
         height="1"
         x="463.94955"
         y="236.82256" />
      <rect
         style="font-variation-settings:normal;vector-effect:none;fill:#000000;fill-opacity:1;stroke:none;stroke-width:0.1;stroke-linecap:butt;stroke-linejoin:round;stroke-miterlimit:4;stroke-dasharray:none;stroke-dashoffset:0;stroke-opacity:1;-inkscape-stroke:none;paint-order:normal;stop-color:#000000"
         id="rect88304"
         width="3"
         height="6"
         x="467.54956"
         y="230.82289" />
      <rect
         style="font-variation-settings:normal;vector-effect:none;fill:#6fdada;fill-opacity:1;stroke:none;stroke-width:0.1;stroke-linecap:butt;stroke-linejoin:bevel;stroke-miterlimit:4;stroke-dasharray:none;stroke-dashoffset:0;stroke-opacity:1;-inkscape-stroke:none;paint-order:normal;stop-color:#000000"
         id="rect88029-7"
         width="35.792999"
         height="1"
         x="468.80307"
         y="243.82256" />
      <rect
         style="font-variation-settings:normal;vector-effect:none;fill:#000000;fill-opacity:1;stroke:none;stroke-width:0.1;stroke-linecap:butt;stroke-linejoin:round;stroke-miterlimit:4;stroke-dasharray:none;stroke-dashoffset:0;stroke-opacity:1;-inkscape-stroke:none;paint-order:normal;stop-color:#000000"
         id="rect88304-3"
         width="3"
         height="6"
         x="476.59961"
         y="237.82256" />
      <rect
         style="font-variation-settings:normal;vector-effect:none;fill:#000000;fill-opacity:1;stroke:none;stroke-width:0.1;stroke-linecap:butt;stroke-linejoin:round;stroke-miterlimit:4;stroke-dasharray:none;stroke-dashoffset:0;stroke-opacity:1;-inkscape-stroke:none;paint-order:normal;stop-color:#000000"
         id="rect88304-2"
         width="3"
         height="6"
         x="471.39963"
         y="237.82256" />
      <rect
         style="font-variation-settings:normal;vector-effect:none;fill:#000000;fill-opacity:1;stroke:none;stroke-width:0.1;stroke-linecap:butt;stroke-linejoin:round;stroke-miterlimit:4;stroke-dasharray:none;stroke-dashoffset:0;stroke-opacity:1;-inkscape-stroke:none;paint-order:normal;stop-color:#000000"
         id="rect88304-6"
         width="3"
         height="6"
         x="485.19955"
         y="230.82289" />
      <rect
         style="font-variation-settings:normal;vector-effect:none;fill:#000000;fill-opacity:1;stroke:none;stroke-width:0.1;stroke-linecap:butt;stroke-linejoin:round;stroke-miterlimit:4;stroke-dasharray:none;stroke-dashoffset:0;stroke-opacity:1;-inkscape-stroke:none;paint-order:normal;stop-color:#000000"
         id="rect88304-1"
         width="3"
         height="6"
         x="502.84955"
         y="230.82289" />
      <rect
         style="font-variation-settings:normal;vector-effect:none;fill:#000000;fill-opacity:1;stroke:none;stroke-width:0.1;stroke-linecap:butt;stroke-linejoin:round;stroke-miterlimit:4;stroke-dasharray:none;stroke-dashoffset:0;stroke-opacity:1;-inkscape-stroke:none;paint-order:normal;stop-color:#000000"
         id="rect89307-9"
         width="3"
         height="2"
         x="467.54956"
         y="227.82289" />
      <rect
         style="font-variation-settings:normal;vector-effect:none;fill:#000000;fill-opacity:1;stroke:none;stroke-width:0.1;stroke-linecap:butt;stroke-linejoin:round;stroke-miterlimit:4;stroke-dasharray:none;stroke-dashoffset:0;stroke-opacity:1;-inkscape-stroke:none;paint-order:normal;stop-color:#000000"
         id="rect89307-1"
         width="3"
         height="2"
         x="485.19955"
         y="227.82289" />
      <rect
         style="font-variation-settings:normal;vector-effect:none;fill:#000000;fill-opacity:1;stroke:none;stroke-width:0.1;stroke-linecap:butt;stroke-linejoin:round;stroke-miterlimit:4;stroke-dasharray:none;stroke-dashoffset:0;stroke-opacity:1;-inkscape-stroke:none;paint-order:normal;stop-color:#000000"
         id="rect89307-0"
         width="3"
         height="2"
         x="502.84955"
         y="227.82289" />
      <rect
         style="font-variation-settings:normal;vector-effect:none;fill:#000000;fill-opacity:1;stroke:none;stroke-width:0.1;stroke-linecap:butt;stroke-linejoin:round;stroke-miterlimit:4;stroke-dasharray:none;stroke-dashoffset:0;stroke-opacity:1;-inkscape-stroke:none;paint-order:normal;stop-color:#000000"
         id="rect89307-7"
         width="3"
         height="2"
         x="467.54956"
         y="237.82256" />
      <rect
         style="font-variation-settings:normal;vector-effect:none;fill:#000000;fill-opacity:1;stroke:none;stroke-width:0.1;stroke-linecap:butt;stroke-linejoin:round;stroke-miterlimit:4;stroke-dasharray:none;stroke-dashoffset:0;stroke-opacity:1;-inkscape-stroke:none;paint-order:normal;stop-color:#000000"
         id="rect89307-5"
         width="3"
         height="2"
         x="485.19955"
         y="237.82256" />
      <rect
         style="font-variation-settings:normal;vector-effect:none;fill:#000000;fill-opacity:1;stroke:none;stroke-width:0.1;stroke-linecap:butt;stroke-linejoin:round;stroke-miterlimit:4;stroke-dasharray:none;stroke-dashoffset:0;stroke-opacity:1;-inkscape-stroke:none;paint-order:normal;stop-color:#000000"
         id="rect89307-8"
         width="3"
         height="2"
         x="502.84955"
         y="237.82256" />
      <rect
         style="font-variation-settings:normal;vector-effect:none;fill:#000000;fill-opacity:1;stroke:none;stroke-width:0.1;stroke-linecap:butt;stroke-linejoin:round;stroke-miterlimit:4;stroke-dasharray:none;stroke-dashoffset:0;stroke-opacity:1;-inkscape-stroke:none;paint-order:normal;stop-color:#000000"
         id="rect89307-70"
         width="3"
         height="2"
         x="471.39963"
         y="234.82256" />
      <rect
         style="font-variation-settings:normal;vector-effect:none;fill:#000000;fill-opacity:1;stroke:none;stroke-width:0.1;stroke-linecap:butt;stroke-linejoin:round;stroke-miterlimit:4;stroke-dasharray:none;stroke-dashoffset:0;stroke-opacity:1;-inkscape-stroke:none;paint-order:normal;stop-color:#000000"
         id="rect89307-4"
         width="3"
         height="2"
         x="476.59961"
         y="234.82256" />
      <rect
         style="font-variation-settings:normal;vector-effect:none;fill:#000000;fill-opacity:1;stroke:none;stroke-width:0.1;stroke-linecap:butt;stroke-linejoin:round;stroke-miterlimit:4;stroke-dasharray:none;stroke-dashoffset:0;stroke-opacity:1;-inkscape-stroke:none;paint-order:normal;stop-color:#000000"
         id="rect89307-80"
         width="3"
         height="2"
         x="471.39963"
         y="244.82256" />
      <rect
         style="font-variation-settings:normal;vector-effect:none;fill:#000000;fill-opacity:1;stroke:none;stroke-width:0.1;stroke-linecap:butt;stroke-linejoin:round;stroke-miterlimit:4;stroke-dasharray:none;stroke-dashoffset:0;stroke-opacity:1;-inkscape-stroke:none;paint-order:normal;stop-color:#000000"
         id="rect89307-42"
         width="3"
         height="2"
         x="476.59961"
         y="244.82256" />
      <circle
         style="font-variation-settings:normal;vector-effect:none;fill:#a394d8;fill-opacity:1;stroke:none;stroke-width:0.0999998;stroke-linecap:butt;stroke-linejoin:bevel;stroke-miterlimit:4;stroke-dasharray:none;stroke-dashoffset:0;stroke-opacity:1;-inkscape-stroke:none;paint-order:normal;stop-color:#000000"
         id="path89146"
         cx="486.69955"
         cy="230.32289"
         r="7.75" />
    </g>
    <g
       id="g101179"
       transform="translate(3.4999099,-0.00987183)">
      <path
         id="path881-9-6-1-8-5-6-1-9-4-96"
         style="font-variation-settings:normal;vector-effect:none;fill:#000000;fill-opacity:1;stroke:none;stroke-width:0.0999998;stroke-linecap:butt;stroke-linejoin:round;stroke-miterlimit:4;stroke-dasharray:none;stroke-dashoffset:0;stroke-opacity:1;-inkscape-stroke:none;paint-order:normal;stop-color:#000000"
         d="m 594.13842,192.02639 a 7.6794867,6.4281859 0 0 1 -1.66864,2.64635 h 2.20814 c 0.007,0.005 0.0146,0.009 0.0217,0.0134 v 1.98644 h 2.4138 c 12.17962,12.04059 14.41057,26.10648 14.58154,35.17976 0.26275,13.94388 -11.19073,25.32042 -24.99537,25.32042 -13.80462,0 -25.25813,-11.37654 -24.99538,-25.32042 0.17097,-9.07328 2.40193,-23.13917 14.58154,-35.17976 h 2.41381 v -1.98644 c 0.007,-0.005 0.0146,-0.009 0.0217,-0.0134 h 2.20814 a 7.6794867,6.4281859 0 0 1 -1.66863,-2.64584 c -1.57584,0.82247 -3.02653,1.89143 -4.30775,3.1533 -12.70914,12.51715 -15.07193,27.25462 -15.24868,36.63445 -0.28374,15.05925 12.09235,27.35802 26.99525,27.35802 14.9029,0 27.279,-12.29877 26.99525,-27.35802 -0.17674,-9.37955 -2.53739,-24.11722 -15.24661,-36.63445 -1.28163,-1.26227 -2.7332,-2.3313 -4.30982,-3.15381 z" />
      <rect
         style="font-variation-settings:normal;vector-effect:none;fill:#000000;fill-opacity:1;stroke:none;stroke-width:0.1;stroke-linecap:butt;stroke-linejoin:round;stroke-miterlimit:4;stroke-dasharray:none;stroke-dashoffset:0;stroke-opacity:1;-inkscape-stroke:none;paint-order:normal;stop-color:#000000"
         id="rect88304-3-2"
         width="3"
         height="6"
         x="-241.13393"
         y="587.19958"
         transform="rotate(-90)" />
      <rect
         style="font-variation-settings:normal;vector-effect:none;fill:#000000;fill-opacity:1;stroke:none;stroke-width:0.1;stroke-linecap:butt;stroke-linejoin:round;stroke-miterlimit:4;stroke-dasharray:none;stroke-dashoffset:0;stroke-opacity:1;-inkscape-stroke:none;paint-order:normal;stop-color:#000000"
         id="rect88304-3-2-0"
         width="3"
         height="6"
         x="-252.92256"
         y="587.19958"
         transform="rotate(-90)" />
      <rect
         style="font-variation-settings:normal;vector-effect:none;fill:#000000;fill-opacity:1;stroke:none;stroke-width:0.1;stroke-linecap:butt;stroke-linejoin:round;stroke-miterlimit:4;stroke-dasharray:none;stroke-dashoffset:0;stroke-opacity:1;-inkscape-stroke:none;paint-order:normal;stop-color:#000000"
         id="rect88304-3-2-5"
         width="3"
         height="6"
         x="-220.67256"
         y="594.19958"
         transform="rotate(-90)" />
      <rect
         style="font-variation-settings:normal;vector-effect:none;fill:#000000;fill-opacity:1;stroke:none;stroke-width:0.1;stroke-linecap:butt;stroke-linejoin:round;stroke-miterlimit:4;stroke-dasharray:none;stroke-dashoffset:0;stroke-opacity:1;-inkscape-stroke:none;paint-order:normal;stop-color:#000000"
         id="rect88304-3-2-52"
         width="3"
         height="6"
         x="-210.17235"
         y="594.19958"
         transform="rotate(-90)" />
      <rect
         style="font-variation-settings:normal;vector-effect:none;fill:#000000;fill-opacity:1;stroke:none;stroke-width:0.0999996;stroke-linecap:butt;stroke-linejoin:round;stroke-miterlimit:4;stroke-dasharray:none;stroke-dashoffset:0;stroke-opacity:1;-inkscape-stroke:none;paint-order:normal;stop-color:#000000"
         id="rect89307-0-9"
         width="2"
         height="3"
         x="601.19958"
         y="207.17235" />
      <rect
         style="font-variation-settings:normal;vector-effect:none;fill:#000000;fill-opacity:1;stroke:none;stroke-width:0.0999996;stroke-linecap:butt;stroke-linejoin:round;stroke-miterlimit:4;stroke-dasharray:none;stroke-dashoffset:0;stroke-opacity:1;-inkscape-stroke:none;paint-order:normal;stop-color:#000000"
         id="rect89307-0-9-0"
         width="2"
         height="3"
         x="601.19958"
         y="217.67256" />
      <rect
         style="font-variation-settings:normal;vector-effect:none;fill:#000000;fill-opacity:1;stroke:none;stroke-width:0.0999996;stroke-linecap:butt;stroke-linejoin:round;stroke-miterlimit:4;stroke-dasharray:none;stroke-dashoffset:0;stroke-opacity:1;-inkscape-stroke:none;paint-order:normal;stop-color:#000000"
         id="rect89307-0-9-2"
         width="2"
         height="3"
         x="591.19958"
         y="217.67256" />
      <rect
         style="font-variation-settings:normal;vector-effect:none;fill:#000000;fill-opacity:1;stroke:none;stroke-width:0.0999996;stroke-linecap:butt;stroke-linejoin:round;stroke-miterlimit:4;stroke-dasharray:none;stroke-dashoffset:0;stroke-opacity:1;-inkscape-stroke:none;paint-order:normal;stop-color:#000000"
         id="rect89307-0-9-8"
         width="2"
         height="3"
         x="591.19958"
         y="207.17235" />
      <rect
         style="font-variation-settings:normal;vector-effect:none;fill:#000000;fill-opacity:1;stroke:none;stroke-width:0.0999996;stroke-linecap:butt;stroke-linejoin:round;stroke-miterlimit:4;stroke-dasharray:none;stroke-dashoffset:0;stroke-opacity:1;-inkscape-stroke:none;paint-order:normal;stop-color:#000000"
         id="rect89307-0-9-3"
         width="2"
         height="3"
         x="594.19958"
         y="238.13393" />
      <rect
         style="font-variation-settings:normal;vector-effect:none;fill:#000000;fill-opacity:1;stroke:none;stroke-width:0.0999996;stroke-linecap:butt;stroke-linejoin:round;stroke-miterlimit:4;stroke-dasharray:none;stroke-dashoffset:0;stroke-opacity:1;-inkscape-stroke:none;paint-order:normal;stop-color:#000000"
         id="rect89307-0-9-80"
         width="2"
         height="3"
         x="594.19958"
         y="249.92256" />
      <rect
         style="font-variation-settings:normal;vector-effect:none;fill:#000000;fill-opacity:1;stroke:none;stroke-width:0.0999996;stroke-linecap:butt;stroke-linejoin:round;stroke-miterlimit:4;stroke-dasharray:none;stroke-dashoffset:0;stroke-opacity:1;-inkscape-stroke:none;paint-order:normal;stop-color:#000000"
         id="rect89307-0-9-4"
         width="2"
         height="3"
         x="584.19958"
         y="249.92256" />
      <rect
         style="font-variation-settings:normal;vector-effect:none;fill:#000000;fill-opacity:1;stroke:none;stroke-width:0.0999996;stroke-linecap:butt;stroke-linejoin:round;stroke-miterlimit:4;stroke-dasharray:none;stroke-dashoffset:0;stroke-opacity:1;-inkscape-stroke:none;paint-order:normal;stop-color:#000000"
         id="rect89307-0-9-09"
         width="2"
         height="3"
         x="584.19958"
         y="238.13393" />
      <rect
         style="font-variation-settings:normal;vector-effect:none;fill:#c0f1c4;fill-opacity:1;stroke:none;stroke-width:0.1;stroke-linecap:butt;stroke-linejoin:bevel;stroke-miterlimit:4;stroke-dasharray:none;stroke-dashoffset:0;stroke-opacity:1;-inkscape-stroke:none;paint-order:normal;stop-color:#000000"
         id="rect90107"
         width="0.99999988"
         height="113"
         x="586.19958"
         y="236.17242" />
      <rect
         style="font-variation-settings:normal;vector-effect:none;fill:#f9dada;fill-opacity:1;stroke:none;stroke-width:0.0996281;stroke-linecap:butt;stroke-linejoin:bevel;stroke-miterlimit:4;stroke-dasharray:none;stroke-dashoffset:0;stroke-opacity:1;-inkscape-stroke:none;paint-order:normal;stop-color:#000000"
         id="rect90107-1"
         width="0.99999988"
         height="58.25"
         x="593.19958"
         y="196.6727" />
      <rect
         style="font-variation-settings:normal;vector-effect:none;fill:#6fdada;fill-opacity:1;stroke:none;stroke-width:0.1;stroke-linecap:butt;stroke-linejoin:bevel;stroke-miterlimit:4;stroke-dasharray:none;stroke-dashoffset:0;stroke-opacity:1;-inkscape-stroke:none;paint-order:normal;stop-color:#000000"
         id="rect90107-1-0"
         width="0.99999988"
         height="17.5"
         x="600.19958"
         y="205.17245" />
    </g>
    <path
       style="fill:none;stroke:#ffffff;stroke-width:0.2;stroke-linecap:butt;stroke-linejoin:miter;stroke-miterlimit:4;stroke-dasharray:none;stroke-opacity:1"
       d="m 664.00535,231.26132 1.2026,-0.0942 c 0.1245,-0.01 0.0964,0.15597 0.098,0.19637 0.0234,0.59775 -0.0994,1.24724 -0.10086,1.79459 -3.7e-4,0.14184 0.0507,0.20628 0.10294,0.20178 l 1.13979,-0.0981"
       id="path102737-5"
       sodipodi:nodetypes="cssssc" />
  </g>
</svg>
