<?xml version="1.0" encoding="UTF-8" standalone="no"?>
<svg
   xmlns:dc="http://purl.org/dc/elements/1.1/"
   xmlns:cc="http://creativecommons.org/ns#"
   xmlns:rdf="http://www.w3.org/1999/02/22-rdf-syntax-ns#"
   xmlns:svg="http://www.w3.org/2000/svg"
   xmlns="http://www.w3.org/2000/svg"
   xmlns:sodipodi="http://sodipodi.sourceforge.net/DTD/sodipodi-0.dtd"
   xmlns:inkscape="http://www.inkscape.org/namespaces/inkscape"
   width="26.600985mm"
   height="84.762604mm"
   viewBox="0 0 26.600985 84.762604"
   version="1.1"
   id="svg2804"
   sodipodi:docname="enclosure_body_wire.svg"
   inkscape:version="1.0 (4035a4fb49, 2020-05-01)">
  <defs
     id="defs2798" />
  <sodipodi:namedview
     id="base"
     pagecolor="#ffffff"
     bordercolor="#666666"
     borderopacity="1.0"
     inkscape:pageopacity="0.0"
     inkscape:pageshadow="2"
     inkscape:zoom="2"
     inkscape:cx="56.988458"
     inkscape:cy="154.19147"
     inkscape:document-units="mm"
     inkscape:current-layer="layer1"
     inkscape:document-rotation="0"
     showgrid="false"
     inkscape:window-width="1920"
     inkscape:window-height="1017"
     inkscape:window-x="0"
     inkscape:window-y="0"
     inkscape:window-maximized="1"
     fit-margin-top="0"
     fit-margin-left="0"
     fit-margin-right="0"
     fit-margin-bottom="0"
     showguides="true"
     inkscape:guide-bbox="true">
    <sodipodi:guide
       position="44.522756,-57.441855"
       orientation="0,-1"
       id="guide3536" />
  </sodipodi:namedview>
  <metadata
     id="metadata2801">
    <rdf:RDF>
      <cc:Work
         rdf:about="">
        <dc:format>image/svg+xml</dc:format>
        <dc:type
           rdf:resource="http://purl.org/dc/dcmitype/StillImage" />
        <dc:title></dc:title>
      </cc:Work>
    </rdf:RDF>
  </metadata>
  <g
     inkscape:label="Layer 1"
     inkscape:groupmode="layer"
     id="layer1"
     transform="translate(-146.93798,79.87351)">
    <path
       style="fill:none;stroke:#9c9c9c;stroke-width:0.1;stroke-linejoin:bevel;stroke-miterlimit:4;stroke-dasharray:none;stroke-opacity:1"
       d="m 146.93799,4.8390905 c 14.03634,-7.15e-5 25.51332,-10.9951927 26.48242,-24.7992895 l -1.19588,0.0012 c 0,-0.254797 -0.0153,-0.510054 0,-0.76439 0.0272,-0.453014 0.26417,-0.478336 0.31067,-0.96769 0.0282,-0.296589 -0.0159,-0.608952 -0.31378,-0.608441 l -0.75762,0.0013 c 0.0101,0.177084 0.0189,0.352279 0.0269,0.525562 0,13.5614632 -10.99335,24.6139232 -24.55271,24.6139912"
       id="path4245"
       sodipodi:nodetypes="cccsssccc" />
    <path
       style="fill:none;stroke:#9c9c9c;stroke-width:0.1;stroke-linejoin:bevel;stroke-miterlimit:4;stroke-dasharray:none;stroke-opacity:1"
       d="m 146.94014,4.8390905 h -2e-5"
       id="path4243" />
    <path
       style="fill:none;stroke:#9c9c9c;stroke-width:0.1;stroke-linejoin:bevel;stroke-miterlimit:4;stroke-dasharray:none;stroke-opacity:1"
       d="m 146.93799,-58.550871 6.92971,-7.35e-4 c 1.23815,0.687116 2.37714,1.560646 3.36959,2.601733 11.69009,11.33766 13.73678,24.728485 14.22143,33.556574 l 1.19355,-5.74e-4 c 0,0.252409 0.0259,0.506154 0,0.757227 -0.0444,0.430291 -0.28064,0.506609 -0.31141,0.966036 -0.0261,0.390003 0.12967,0.609284 0.4276,0.610095 l 0.66101,0.0018 c 0.0377,-0.566671 0.0577,-1.138033 0.0595,-1.713523 -0.40585,-8.982665 -2.40168,-23.499372 -14.82818,-35.576169 -3.05174,-3.189129 -7.30803,-4.996048 -11.7228,-4.996093"
       id="path4237"
       sodipodi:nodetypes="cccccssscccc" />
    <rect
       y="-65.477432"
       x="151.70413"
       height="1.5"
       width="17"
       id="rect3630"
       style="fill:#666666;fill-opacity:1;stroke:none;stroke-width:0.1;stroke-linecap:butt;stroke-linejoin:bevel;stroke-miterlimit:4;stroke-dasharray:none;stroke-dashoffset:0;stroke-opacity:1;paint-order:normal" />
    <circle
       style="fill:#666666;fill-opacity:1;stroke:none;stroke-width:0.1;stroke-linejoin:bevel;stroke-miterlimit:4;stroke-dasharray:none;stroke-opacity:1"
       id="path4279"
       cx="160.23848"
       cy="-73.473511"
       r="6.3999996" />
    <rect
       y="-63.611595"
       x="146.95175"
       height="6.3724675"
       width="6.3724675"
       id="rect844"
       style="fill:none;stroke:#000000;stroke-width:0.0275324" />
    <circle
       r="6.9438958"
       cy="-61.45245"
       cx="146.98216"
       id="path846"
       style="fill:none;stroke:#000000;stroke-width:0.126799" />
  </g>
</svg>
