%TF.GenerationSoftware,KiCad,Pcbnew,5.1.6*%
%TF.CreationDate,2020-07-08T20:14:41-07:00*%
%TF.ProjectId,plant_station,706c616e-745f-4737-9461-74696f6e2e6b,rev?*%
%TF.SameCoordinates,Original*%
%TF.FileFunction,Soldermask,Bot*%
%TF.FilePolarity,Negative*%
%FSLAX46Y46*%
G04 Gerber Fmt 4.6, Leading zero omitted, Abs format (unit mm)*
G04 Created by KiCad (PCBNEW 5.1.6) date 2020-07-08 20:14:41*
%MOMM*%
%LPD*%
G01*
G04 APERTURE LIST*
%ADD10R,1.800000X1.800000*%
%ADD11O,1.800000X1.800000*%
%ADD12O,0.900000X1.500000*%
%ADD13O,1.050000X0.750000*%
%ADD14C,0.750000*%
G04 APERTURE END LIST*
D10*
%TO.C,J1*%
X77750000Y-48250000D03*
D11*
X77750000Y-45710000D03*
X77750000Y-43170000D03*
X77750000Y-40630000D03*
X77750000Y-38090000D03*
%TD*%
D10*
%TO.C,J2*%
X59750000Y-47250000D03*
D11*
X59750000Y-44710000D03*
X59750000Y-42170000D03*
X59750000Y-39630000D03*
%TD*%
D10*
%TO.C,J3*%
X101750000Y-34750000D03*
D11*
X104290000Y-34750000D03*
X101750000Y-37290000D03*
X104290000Y-37290000D03*
X101750000Y-39830000D03*
X104290000Y-39830000D03*
X101750000Y-42370000D03*
X104290000Y-42370000D03*
X101750000Y-44910000D03*
X104290000Y-44910000D03*
X101750000Y-47450000D03*
X104290000Y-47450000D03*
X101750000Y-49990000D03*
X104290000Y-49990000D03*
X101750000Y-52530000D03*
X104290000Y-52530000D03*
%TD*%
D10*
%TO.C,J4*%
X110250000Y-42250000D03*
D11*
X110250000Y-44790000D03*
%TD*%
D10*
%TO.C,J5*%
X41750000Y-46250000D03*
D11*
X41750000Y-43710000D03*
X41750000Y-41170000D03*
%TD*%
D10*
%TO.C,BME1*%
X42000000Y-105000000D03*
D11*
X42000000Y-102460000D03*
X42000000Y-99920000D03*
X42000000Y-97380000D03*
X42000000Y-94840000D03*
X42000000Y-92300000D03*
%TD*%
D10*
%TO.C,J6*%
X48000000Y-105080000D03*
D11*
X48000000Y-102540000D03*
X48000000Y-100000000D03*
%TD*%
%TO.C,J7*%
X47880000Y-50960000D03*
X47880000Y-53500000D03*
X50420000Y-50960000D03*
X50420000Y-53500000D03*
X52960000Y-50960000D03*
X52960000Y-53500000D03*
X55500000Y-50960000D03*
D10*
X55500000Y-53500000D03*
%TD*%
%TO.C,J8*%
X49650000Y-70000000D03*
D11*
X49650000Y-67460000D03*
X47110000Y-70000000D03*
X47110000Y-67460000D03*
X44570000Y-70000000D03*
X44570000Y-67460000D03*
X42030000Y-70000000D03*
X42030000Y-67460000D03*
%TD*%
D10*
%TO.C,J9*%
X47000000Y-86000000D03*
D11*
X47000000Y-83460000D03*
X47000000Y-80920000D03*
X47000000Y-78380000D03*
%TD*%
%TO.C,J10*%
X42000000Y-78380000D03*
X42000000Y-80920000D03*
X42000000Y-83460000D03*
D10*
X42000000Y-86000000D03*
%TD*%
D12*
%TO.C,P1*%
X53870000Y-101140000D03*
X62130000Y-101140000D03*
X62490000Y-107090000D03*
X53510000Y-107090000D03*
D13*
X61600000Y-99890000D03*
D14*
X54400000Y-99890000D03*
%TD*%
M02*
