%TF.GenerationSoftware,KiCad,Pcbnew,5.1.6*%
%TF.CreationDate,2020-07-08T20:14:41-07:00*%
%TF.ProjectId,plant_station,706c616e-745f-4737-9461-74696f6e2e6b,rev?*%
%TF.SameCoordinates,Original*%
%TF.FileFunction,Soldermask,Top*%
%TF.FilePolarity,Negative*%
%FSLAX46Y46*%
G04 Gerber Fmt 4.6, Leading zero omitted, Abs format (unit mm)*
G04 Created by KiCad (PCBNEW 5.1.6) date 2020-07-08 20:14:41*
%MOMM*%
%LPD*%
G01*
G04 APERTURE LIST*
%ADD10C,0.360000*%
%ADD11R,2.800000X1.600000*%
%ADD12R,0.750000X1.625000*%
%ADD13R,0.700000X1.350000*%
%ADD14R,0.400000X0.950000*%
%ADD15R,2.500000X1.750000*%
%ADD16R,1.900000X1.700000*%
%ADD17R,0.900000X0.400000*%
%ADD18R,1.800000X1.800000*%
%ADD19O,1.800000X1.800000*%
%ADD20R,1.500000X1.300000*%
%ADD21R,1.500000X1.100000*%
%ADD22R,1.700000X0.800000*%
%ADD23R,1.100000X1.100000*%
%ADD24R,1.400000X0.800000*%
%ADD25R,0.600000X0.300000*%
%ADD26R,0.300000X0.600000*%
%ADD27R,2.900000X2.900000*%
%ADD28O,0.900000X1.500000*%
%ADD29R,0.400000X0.800000*%
%ADD30O,1.050000X0.750000*%
%ADD31C,0.750000*%
%ADD32R,1.150000X0.750000*%
%ADD33R,3.450000X3.450000*%
%ADD34R,1.012500X0.950000*%
%ADD35R,4.400000X4.400000*%
G04 APERTURE END LIST*
D10*
%TO.C,U2*%
X78000000Y-104375000D03*
X78000000Y-103875000D03*
X78000000Y-103375000D03*
X77000000Y-104375000D03*
X77000000Y-103875000D03*
X77000000Y-103375000D03*
%TD*%
%TO.C,C4*%
G36*
G01*
X89405000Y-49925000D02*
X88095000Y-49925000D01*
G75*
G02*
X87825000Y-49655000I0J270000D01*
G01*
X87825000Y-48845000D01*
G75*
G02*
X88095000Y-48575000I270000J0D01*
G01*
X89405000Y-48575000D01*
G75*
G02*
X89675000Y-48845000I0J-270000D01*
G01*
X89675000Y-49655000D01*
G75*
G02*
X89405000Y-49925000I-270000J0D01*
G01*
G37*
G36*
G01*
X89405000Y-52725000D02*
X88095000Y-52725000D01*
G75*
G02*
X87825000Y-52455000I0J270000D01*
G01*
X87825000Y-51645000D01*
G75*
G02*
X88095000Y-51375000I270000J0D01*
G01*
X89405000Y-51375000D01*
G75*
G02*
X89675000Y-51645000I0J-270000D01*
G01*
X89675000Y-52455000D01*
G75*
G02*
X89405000Y-52725000I-270000J0D01*
G01*
G37*
%TD*%
%TO.C,C5*%
G36*
G01*
X92405000Y-49925000D02*
X91095000Y-49925000D01*
G75*
G02*
X90825000Y-49655000I0J270000D01*
G01*
X90825000Y-48845000D01*
G75*
G02*
X91095000Y-48575000I270000J0D01*
G01*
X92405000Y-48575000D01*
G75*
G02*
X92675000Y-48845000I0J-270000D01*
G01*
X92675000Y-49655000D01*
G75*
G02*
X92405000Y-49925000I-270000J0D01*
G01*
G37*
G36*
G01*
X92405000Y-52725000D02*
X91095000Y-52725000D01*
G75*
G02*
X90825000Y-52455000I0J270000D01*
G01*
X90825000Y-51645000D01*
G75*
G02*
X91095000Y-51375000I270000J0D01*
G01*
X92405000Y-51375000D01*
G75*
G02*
X92675000Y-51645000I0J-270000D01*
G01*
X92675000Y-52455000D01*
G75*
G02*
X92405000Y-52725000I-270000J0D01*
G01*
G37*
%TD*%
%TO.C,C6*%
G36*
G01*
X67405000Y-48925000D02*
X66095000Y-48925000D01*
G75*
G02*
X65825000Y-48655000I0J270000D01*
G01*
X65825000Y-47845000D01*
G75*
G02*
X66095000Y-47575000I270000J0D01*
G01*
X67405000Y-47575000D01*
G75*
G02*
X67675000Y-47845000I0J-270000D01*
G01*
X67675000Y-48655000D01*
G75*
G02*
X67405000Y-48925000I-270000J0D01*
G01*
G37*
G36*
G01*
X67405000Y-51725000D02*
X66095000Y-51725000D01*
G75*
G02*
X65825000Y-51455000I0J270000D01*
G01*
X65825000Y-50645000D01*
G75*
G02*
X66095000Y-50375000I270000J0D01*
G01*
X67405000Y-50375000D01*
G75*
G02*
X67675000Y-50645000I0J-270000D01*
G01*
X67675000Y-51455000D01*
G75*
G02*
X67405000Y-51725000I-270000J0D01*
G01*
G37*
%TD*%
%TO.C,C7*%
G36*
G01*
X71405000Y-51725000D02*
X70095000Y-51725000D01*
G75*
G02*
X69825000Y-51455000I0J270000D01*
G01*
X69825000Y-50645000D01*
G75*
G02*
X70095000Y-50375000I270000J0D01*
G01*
X71405000Y-50375000D01*
G75*
G02*
X71675000Y-50645000I0J-270000D01*
G01*
X71675000Y-51455000D01*
G75*
G02*
X71405000Y-51725000I-270000J0D01*
G01*
G37*
G36*
G01*
X71405000Y-48925000D02*
X70095000Y-48925000D01*
G75*
G02*
X69825000Y-48655000I0J270000D01*
G01*
X69825000Y-47845000D01*
G75*
G02*
X70095000Y-47575000I270000J0D01*
G01*
X71405000Y-47575000D01*
G75*
G02*
X71675000Y-47845000I0J-270000D01*
G01*
X71675000Y-48655000D01*
G75*
G02*
X71405000Y-48925000I-270000J0D01*
G01*
G37*
%TD*%
%TO.C,Cdec1*%
G36*
G01*
X53405000Y-47325000D02*
X52095000Y-47325000D01*
G75*
G02*
X51825000Y-47055000I0J270000D01*
G01*
X51825000Y-46245000D01*
G75*
G02*
X52095000Y-45975000I270000J0D01*
G01*
X53405000Y-45975000D01*
G75*
G02*
X53675000Y-46245000I0J-270000D01*
G01*
X53675000Y-47055000D01*
G75*
G02*
X53405000Y-47325000I-270000J0D01*
G01*
G37*
G36*
G01*
X53405000Y-44525000D02*
X52095000Y-44525000D01*
G75*
G02*
X51825000Y-44255000I0J270000D01*
G01*
X51825000Y-43445000D01*
G75*
G02*
X52095000Y-43175000I270000J0D01*
G01*
X53405000Y-43175000D01*
G75*
G02*
X53675000Y-43445000I0J-270000D01*
G01*
X53675000Y-44255000D01*
G75*
G02*
X53405000Y-44525000I-270000J0D01*
G01*
G37*
%TD*%
%TO.C,Cdec2*%
G36*
G01*
X49405000Y-47325000D02*
X48095000Y-47325000D01*
G75*
G02*
X47825000Y-47055000I0J270000D01*
G01*
X47825000Y-46245000D01*
G75*
G02*
X48095000Y-45975000I270000J0D01*
G01*
X49405000Y-45975000D01*
G75*
G02*
X49675000Y-46245000I0J-270000D01*
G01*
X49675000Y-47055000D01*
G75*
G02*
X49405000Y-47325000I-270000J0D01*
G01*
G37*
G36*
G01*
X49405000Y-44525000D02*
X48095000Y-44525000D01*
G75*
G02*
X47825000Y-44255000I0J270000D01*
G01*
X47825000Y-43445000D01*
G75*
G02*
X48095000Y-43175000I270000J0D01*
G01*
X49405000Y-43175000D01*
G75*
G02*
X49675000Y-43445000I0J-270000D01*
G01*
X49675000Y-44255000D01*
G75*
G02*
X49405000Y-44525000I-270000J0D01*
G01*
G37*
%TD*%
%TO.C,Cref1*%
G36*
G01*
X93405000Y-35525000D02*
X92095000Y-35525000D01*
G75*
G02*
X91825000Y-35255000I0J270000D01*
G01*
X91825000Y-34445000D01*
G75*
G02*
X92095000Y-34175000I270000J0D01*
G01*
X93405000Y-34175000D01*
G75*
G02*
X93675000Y-34445000I0J-270000D01*
G01*
X93675000Y-35255000D01*
G75*
G02*
X93405000Y-35525000I-270000J0D01*
G01*
G37*
G36*
G01*
X93405000Y-38325000D02*
X92095000Y-38325000D01*
G75*
G02*
X91825000Y-38055000I0J270000D01*
G01*
X91825000Y-37245000D01*
G75*
G02*
X92095000Y-36975000I270000J0D01*
G01*
X93405000Y-36975000D01*
G75*
G02*
X93675000Y-37245000I0J-270000D01*
G01*
X93675000Y-38055000D01*
G75*
G02*
X93405000Y-38325000I-270000J0D01*
G01*
G37*
%TD*%
D11*
%TO.C,D1*%
X95750000Y-45550000D03*
X95750000Y-40750000D03*
%TD*%
D12*
%TO.C,IC3*%
X87845000Y-45962000D03*
X89115000Y-45962000D03*
X90385000Y-45962000D03*
X91655000Y-45962000D03*
X91655000Y-40538000D03*
X90385000Y-40538000D03*
X89115000Y-40538000D03*
X87845000Y-40538000D03*
%TD*%
D13*
%TO.C,IC4*%
X82800000Y-43500000D03*
X83750000Y-43500000D03*
X84700000Y-43500000D03*
X84700000Y-41000000D03*
X83750000Y-41000000D03*
X82800000Y-41000000D03*
%TD*%
D14*
%TO.C,IC5*%
X67750000Y-44700000D03*
X68250000Y-44700000D03*
X68750000Y-44700000D03*
X69250000Y-44700000D03*
X69750000Y-44700000D03*
X69750000Y-41800000D03*
X69250000Y-41800000D03*
X68750000Y-41800000D03*
X68250000Y-41800000D03*
X67750000Y-41800000D03*
D15*
X68750000Y-43250000D03*
%TD*%
D16*
%TO.C,IC6*%
X48750000Y-39750000D03*
D17*
X47250000Y-40500000D03*
X47250000Y-40000000D03*
X47250000Y-39500000D03*
X47250000Y-39000000D03*
X50250000Y-39000000D03*
X50250000Y-39500000D03*
X50250000Y-40000000D03*
X50250000Y-40500000D03*
%TD*%
D18*
%TO.C,J1*%
X77750000Y-48250000D03*
D19*
X77750000Y-45710000D03*
X77750000Y-43170000D03*
X77750000Y-40630000D03*
X77750000Y-38090000D03*
%TD*%
D18*
%TO.C,J2*%
X59750000Y-47250000D03*
D19*
X59750000Y-44710000D03*
X59750000Y-42170000D03*
X59750000Y-39630000D03*
%TD*%
D18*
%TO.C,J3*%
X101750000Y-34750000D03*
D19*
X104290000Y-34750000D03*
X101750000Y-37290000D03*
X104290000Y-37290000D03*
X101750000Y-39830000D03*
X104290000Y-39830000D03*
X101750000Y-42370000D03*
X104290000Y-42370000D03*
X101750000Y-44910000D03*
X104290000Y-44910000D03*
X101750000Y-47450000D03*
X104290000Y-47450000D03*
X101750000Y-49990000D03*
X104290000Y-49990000D03*
X101750000Y-52530000D03*
X104290000Y-52530000D03*
%TD*%
D18*
%TO.C,J4*%
X110250000Y-42250000D03*
D19*
X110250000Y-44790000D03*
%TD*%
D18*
%TO.C,J5*%
X41750000Y-46250000D03*
D19*
X41750000Y-43710000D03*
X41750000Y-41170000D03*
%TD*%
%TO.C,R4*%
G36*
G01*
X86405000Y-52725000D02*
X85095000Y-52725000D01*
G75*
G02*
X84825000Y-52455000I0J270000D01*
G01*
X84825000Y-51645000D01*
G75*
G02*
X85095000Y-51375000I270000J0D01*
G01*
X86405000Y-51375000D01*
G75*
G02*
X86675000Y-51645000I0J-270000D01*
G01*
X86675000Y-52455000D01*
G75*
G02*
X86405000Y-52725000I-270000J0D01*
G01*
G37*
G36*
G01*
X86405000Y-49925000D02*
X85095000Y-49925000D01*
G75*
G02*
X84825000Y-49655000I0J270000D01*
G01*
X84825000Y-48845000D01*
G75*
G02*
X85095000Y-48575000I270000J0D01*
G01*
X86405000Y-48575000D01*
G75*
G02*
X86675000Y-48845000I0J-270000D01*
G01*
X86675000Y-49655000D01*
G75*
G02*
X86405000Y-49925000I-270000J0D01*
G01*
G37*
%TD*%
%TO.C,R5*%
G36*
G01*
X82275000Y-46731250D02*
X82275000Y-45768750D01*
G75*
G02*
X82543750Y-45500000I268750J0D01*
G01*
X83081250Y-45500000D01*
G75*
G02*
X83350000Y-45768750I0J-268750D01*
G01*
X83350000Y-46731250D01*
G75*
G02*
X83081250Y-47000000I-268750J0D01*
G01*
X82543750Y-47000000D01*
G75*
G02*
X82275000Y-46731250I0J268750D01*
G01*
G37*
G36*
G01*
X84150000Y-46731250D02*
X84150000Y-45768750D01*
G75*
G02*
X84418750Y-45500000I268750J0D01*
G01*
X84956250Y-45500000D01*
G75*
G02*
X85225000Y-45768750I0J-268750D01*
G01*
X85225000Y-46731250D01*
G75*
G02*
X84956250Y-47000000I-268750J0D01*
G01*
X84418750Y-47000000D01*
G75*
G02*
X84150000Y-46731250I0J268750D01*
G01*
G37*
%TD*%
%TO.C,R6*%
G36*
G01*
X83231250Y-35850000D02*
X82268750Y-35850000D01*
G75*
G02*
X82000000Y-35581250I0J268750D01*
G01*
X82000000Y-35043750D01*
G75*
G02*
X82268750Y-34775000I268750J0D01*
G01*
X83231250Y-34775000D01*
G75*
G02*
X83500000Y-35043750I0J-268750D01*
G01*
X83500000Y-35581250D01*
G75*
G02*
X83231250Y-35850000I-268750J0D01*
G01*
G37*
G36*
G01*
X83231250Y-37725000D02*
X82268750Y-37725000D01*
G75*
G02*
X82000000Y-37456250I0J268750D01*
G01*
X82000000Y-36918750D01*
G75*
G02*
X82268750Y-36650000I268750J0D01*
G01*
X83231250Y-36650000D01*
G75*
G02*
X83500000Y-36918750I0J-268750D01*
G01*
X83500000Y-37456250D01*
G75*
G02*
X83231250Y-37725000I-268750J0D01*
G01*
G37*
%TD*%
%TO.C,R7*%
G36*
G01*
X67731250Y-38725000D02*
X66768750Y-38725000D01*
G75*
G02*
X66500000Y-38456250I0J268750D01*
G01*
X66500000Y-37918750D01*
G75*
G02*
X66768750Y-37650000I268750J0D01*
G01*
X67731250Y-37650000D01*
G75*
G02*
X68000000Y-37918750I0J-268750D01*
G01*
X68000000Y-38456250D01*
G75*
G02*
X67731250Y-38725000I-268750J0D01*
G01*
G37*
G36*
G01*
X67731250Y-36850000D02*
X66768750Y-36850000D01*
G75*
G02*
X66500000Y-36581250I0J268750D01*
G01*
X66500000Y-36043750D01*
G75*
G02*
X66768750Y-35775000I268750J0D01*
G01*
X67731250Y-35775000D01*
G75*
G02*
X68000000Y-36043750I0J-268750D01*
G01*
X68000000Y-36581250D01*
G75*
G02*
X67731250Y-36850000I-268750J0D01*
G01*
G37*
%TD*%
%TO.C,R8*%
G36*
G01*
X64731250Y-38725000D02*
X63768750Y-38725000D01*
G75*
G02*
X63500000Y-38456250I0J268750D01*
G01*
X63500000Y-37918750D01*
G75*
G02*
X63768750Y-37650000I268750J0D01*
G01*
X64731250Y-37650000D01*
G75*
G02*
X65000000Y-37918750I0J-268750D01*
G01*
X65000000Y-38456250D01*
G75*
G02*
X64731250Y-38725000I-268750J0D01*
G01*
G37*
G36*
G01*
X64731250Y-36850000D02*
X63768750Y-36850000D01*
G75*
G02*
X63500000Y-36581250I0J268750D01*
G01*
X63500000Y-36043750D01*
G75*
G02*
X63768750Y-35775000I268750J0D01*
G01*
X64731250Y-35775000D01*
G75*
G02*
X65000000Y-36043750I0J-268750D01*
G01*
X65000000Y-36581250D01*
G75*
G02*
X64731250Y-36850000I-268750J0D01*
G01*
G37*
%TD*%
%TO.C,R9*%
G36*
G01*
X65231250Y-44787500D02*
X64268750Y-44787500D01*
G75*
G02*
X64000000Y-44518750I0J268750D01*
G01*
X64000000Y-43981250D01*
G75*
G02*
X64268750Y-43712500I268750J0D01*
G01*
X65231250Y-43712500D01*
G75*
G02*
X65500000Y-43981250I0J-268750D01*
G01*
X65500000Y-44518750D01*
G75*
G02*
X65231250Y-44787500I-268750J0D01*
G01*
G37*
G36*
G01*
X65231250Y-42912500D02*
X64268750Y-42912500D01*
G75*
G02*
X64000000Y-42643750I0J268750D01*
G01*
X64000000Y-42106250D01*
G75*
G02*
X64268750Y-41837500I268750J0D01*
G01*
X65231250Y-41837500D01*
G75*
G02*
X65500000Y-42106250I0J-268750D01*
G01*
X65500000Y-42643750D01*
G75*
G02*
X65231250Y-42912500I-268750J0D01*
G01*
G37*
%TD*%
%TO.C,R10*%
G36*
G01*
X73231250Y-42850000D02*
X72268750Y-42850000D01*
G75*
G02*
X72000000Y-42581250I0J268750D01*
G01*
X72000000Y-42043750D01*
G75*
G02*
X72268750Y-41775000I268750J0D01*
G01*
X73231250Y-41775000D01*
G75*
G02*
X73500000Y-42043750I0J-268750D01*
G01*
X73500000Y-42581250D01*
G75*
G02*
X73231250Y-42850000I-268750J0D01*
G01*
G37*
G36*
G01*
X73231250Y-44725000D02*
X72268750Y-44725000D01*
G75*
G02*
X72000000Y-44456250I0J268750D01*
G01*
X72000000Y-43918750D01*
G75*
G02*
X72268750Y-43650000I268750J0D01*
G01*
X73231250Y-43650000D01*
G75*
G02*
X73500000Y-43918750I0J-268750D01*
G01*
X73500000Y-44456250D01*
G75*
G02*
X73231250Y-44725000I-268750J0D01*
G01*
G37*
%TD*%
%TO.C,R11*%
G36*
G01*
X70731250Y-36787500D02*
X69768750Y-36787500D01*
G75*
G02*
X69500000Y-36518750I0J268750D01*
G01*
X69500000Y-35981250D01*
G75*
G02*
X69768750Y-35712500I268750J0D01*
G01*
X70731250Y-35712500D01*
G75*
G02*
X71000000Y-35981250I0J-268750D01*
G01*
X71000000Y-36518750D01*
G75*
G02*
X70731250Y-36787500I-268750J0D01*
G01*
G37*
G36*
G01*
X70731250Y-38662500D02*
X69768750Y-38662500D01*
G75*
G02*
X69500000Y-38393750I0J268750D01*
G01*
X69500000Y-37856250D01*
G75*
G02*
X69768750Y-37587500I268750J0D01*
G01*
X70731250Y-37587500D01*
G75*
G02*
X71000000Y-37856250I0J-268750D01*
G01*
X71000000Y-38393750D01*
G75*
G02*
X70731250Y-38662500I-268750J0D01*
G01*
G37*
%TD*%
%TO.C,R12*%
G36*
G01*
X72768750Y-37587500D02*
X73731250Y-37587500D01*
G75*
G02*
X74000000Y-37856250I0J-268750D01*
G01*
X74000000Y-38393750D01*
G75*
G02*
X73731250Y-38662500I-268750J0D01*
G01*
X72768750Y-38662500D01*
G75*
G02*
X72500000Y-38393750I0J268750D01*
G01*
X72500000Y-37856250D01*
G75*
G02*
X72768750Y-37587500I268750J0D01*
G01*
G37*
G36*
G01*
X72768750Y-35712500D02*
X73731250Y-35712500D01*
G75*
G02*
X74000000Y-35981250I0J-268750D01*
G01*
X74000000Y-36518750D01*
G75*
G02*
X73731250Y-36787500I-268750J0D01*
G01*
X72768750Y-36787500D01*
G75*
G02*
X72500000Y-36518750I0J268750D01*
G01*
X72500000Y-35981250D01*
G75*
G02*
X72768750Y-35712500I268750J0D01*
G01*
G37*
%TD*%
%TO.C,R13*%
G36*
G01*
X53268750Y-38275000D02*
X54231250Y-38275000D01*
G75*
G02*
X54500000Y-38543750I0J-268750D01*
G01*
X54500000Y-39081250D01*
G75*
G02*
X54231250Y-39350000I-268750J0D01*
G01*
X53268750Y-39350000D01*
G75*
G02*
X53000000Y-39081250I0J268750D01*
G01*
X53000000Y-38543750D01*
G75*
G02*
X53268750Y-38275000I268750J0D01*
G01*
G37*
G36*
G01*
X53268750Y-40150000D02*
X54231250Y-40150000D01*
G75*
G02*
X54500000Y-40418750I0J-268750D01*
G01*
X54500000Y-40956250D01*
G75*
G02*
X54231250Y-41225000I-268750J0D01*
G01*
X53268750Y-41225000D01*
G75*
G02*
X53000000Y-40956250I0J268750D01*
G01*
X53000000Y-40418750D01*
G75*
G02*
X53268750Y-40150000I268750J0D01*
G01*
G37*
%TD*%
%TO.C,Ra1*%
G36*
G01*
X87405000Y-35525000D02*
X86095000Y-35525000D01*
G75*
G02*
X85825000Y-35255000I0J270000D01*
G01*
X85825000Y-34445000D01*
G75*
G02*
X86095000Y-34175000I270000J0D01*
G01*
X87405000Y-34175000D01*
G75*
G02*
X87675000Y-34445000I0J-270000D01*
G01*
X87675000Y-35255000D01*
G75*
G02*
X87405000Y-35525000I-270000J0D01*
G01*
G37*
G36*
G01*
X87405000Y-38325000D02*
X86095000Y-38325000D01*
G75*
G02*
X85825000Y-38055000I0J270000D01*
G01*
X85825000Y-37245000D01*
G75*
G02*
X86095000Y-36975000I270000J0D01*
G01*
X87405000Y-36975000D01*
G75*
G02*
X87675000Y-37245000I0J-270000D01*
G01*
X87675000Y-38055000D01*
G75*
G02*
X87405000Y-38325000I-270000J0D01*
G01*
G37*
%TD*%
%TO.C,Rb1*%
G36*
G01*
X90405000Y-38325000D02*
X89095000Y-38325000D01*
G75*
G02*
X88825000Y-38055000I0J270000D01*
G01*
X88825000Y-37245000D01*
G75*
G02*
X89095000Y-36975000I270000J0D01*
G01*
X90405000Y-36975000D01*
G75*
G02*
X90675000Y-37245000I0J-270000D01*
G01*
X90675000Y-38055000D01*
G75*
G02*
X90405000Y-38325000I-270000J0D01*
G01*
G37*
G36*
G01*
X90405000Y-35525000D02*
X89095000Y-35525000D01*
G75*
G02*
X88825000Y-35255000I0J270000D01*
G01*
X88825000Y-34445000D01*
G75*
G02*
X89095000Y-34175000I270000J0D01*
G01*
X90405000Y-34175000D01*
G75*
G02*
X90675000Y-34445000I0J-270000D01*
G01*
X90675000Y-35255000D01*
G75*
G02*
X90405000Y-35525000I-270000J0D01*
G01*
G37*
%TD*%
D18*
%TO.C,BME1*%
X42000000Y-105000000D03*
D19*
X42000000Y-102460000D03*
X42000000Y-99920000D03*
X42000000Y-97380000D03*
X42000000Y-94840000D03*
X42000000Y-92300000D03*
%TD*%
%TO.C,C1*%
G36*
G01*
X71895000Y-83625000D02*
X73205000Y-83625000D01*
G75*
G02*
X73475000Y-83895000I0J-270000D01*
G01*
X73475000Y-84705000D01*
G75*
G02*
X73205000Y-84975000I-270000J0D01*
G01*
X71895000Y-84975000D01*
G75*
G02*
X71625000Y-84705000I0J270000D01*
G01*
X71625000Y-83895000D01*
G75*
G02*
X71895000Y-83625000I270000J0D01*
G01*
G37*
G36*
G01*
X71895000Y-86425000D02*
X73205000Y-86425000D01*
G75*
G02*
X73475000Y-86695000I0J-270000D01*
G01*
X73475000Y-87505000D01*
G75*
G02*
X73205000Y-87775000I-270000J0D01*
G01*
X71895000Y-87775000D01*
G75*
G02*
X71625000Y-87505000I0J270000D01*
G01*
X71625000Y-86695000D01*
G75*
G02*
X71895000Y-86425000I270000J0D01*
G01*
G37*
%TD*%
%TO.C,C2*%
G36*
G01*
X66105000Y-84975000D02*
X64795000Y-84975000D01*
G75*
G02*
X64525000Y-84705000I0J270000D01*
G01*
X64525000Y-83895000D01*
G75*
G02*
X64795000Y-83625000I270000J0D01*
G01*
X66105000Y-83625000D01*
G75*
G02*
X66375000Y-83895000I0J-270000D01*
G01*
X66375000Y-84705000D01*
G75*
G02*
X66105000Y-84975000I-270000J0D01*
G01*
G37*
G36*
G01*
X66105000Y-87775000D02*
X64795000Y-87775000D01*
G75*
G02*
X64525000Y-87505000I0J270000D01*
G01*
X64525000Y-86695000D01*
G75*
G02*
X64795000Y-86425000I270000J0D01*
G01*
X66105000Y-86425000D01*
G75*
G02*
X66375000Y-86695000I0J-270000D01*
G01*
X66375000Y-87505000D01*
G75*
G02*
X66105000Y-87775000I-270000J0D01*
G01*
G37*
%TD*%
%TO.C,Cdec3*%
G36*
G01*
X84018750Y-104725000D02*
X85328750Y-104725000D01*
G75*
G02*
X85598750Y-104995000I0J-270000D01*
G01*
X85598750Y-105805000D01*
G75*
G02*
X85328750Y-106075000I-270000J0D01*
G01*
X84018750Y-106075000D01*
G75*
G02*
X83748750Y-105805000I0J270000D01*
G01*
X83748750Y-104995000D01*
G75*
G02*
X84018750Y-104725000I270000J0D01*
G01*
G37*
G36*
G01*
X84018750Y-101925000D02*
X85328750Y-101925000D01*
G75*
G02*
X85598750Y-102195000I0J-270000D01*
G01*
X85598750Y-103005000D01*
G75*
G02*
X85328750Y-103275000I-270000J0D01*
G01*
X84018750Y-103275000D01*
G75*
G02*
X83748750Y-103005000I0J270000D01*
G01*
X83748750Y-102195000D01*
G75*
G02*
X84018750Y-101925000I270000J0D01*
G01*
G37*
%TD*%
%TO.C,Cdec4*%
G36*
G01*
X80747500Y-101925000D02*
X82057500Y-101925000D01*
G75*
G02*
X82327500Y-102195000I0J-270000D01*
G01*
X82327500Y-103005000D01*
G75*
G02*
X82057500Y-103275000I-270000J0D01*
G01*
X80747500Y-103275000D01*
G75*
G02*
X80477500Y-103005000I0J270000D01*
G01*
X80477500Y-102195000D01*
G75*
G02*
X80747500Y-101925000I270000J0D01*
G01*
G37*
G36*
G01*
X80747500Y-104725000D02*
X82057500Y-104725000D01*
G75*
G02*
X82327500Y-104995000I0J-270000D01*
G01*
X82327500Y-105805000D01*
G75*
G02*
X82057500Y-106075000I-270000J0D01*
G01*
X80747500Y-106075000D01*
G75*
G02*
X80477500Y-105805000I0J270000D01*
G01*
X80477500Y-104995000D01*
G75*
G02*
X80747500Y-104725000I270000J0D01*
G01*
G37*
%TD*%
%TO.C,Cdec5*%
G36*
G01*
X66675000Y-105095000D02*
X66675000Y-106405000D01*
G75*
G02*
X66405000Y-106675000I-270000J0D01*
G01*
X65595000Y-106675000D01*
G75*
G02*
X65325000Y-106405000I0J270000D01*
G01*
X65325000Y-105095000D01*
G75*
G02*
X65595000Y-104825000I270000J0D01*
G01*
X66405000Y-104825000D01*
G75*
G02*
X66675000Y-105095000I0J-270000D01*
G01*
G37*
G36*
G01*
X69475000Y-105095000D02*
X69475000Y-106405000D01*
G75*
G02*
X69205000Y-106675000I-270000J0D01*
G01*
X68395000Y-106675000D01*
G75*
G02*
X68125000Y-106405000I0J270000D01*
G01*
X68125000Y-105095000D01*
G75*
G02*
X68395000Y-104825000I270000J0D01*
G01*
X69205000Y-104825000D01*
G75*
G02*
X69475000Y-105095000I0J-270000D01*
G01*
G37*
%TD*%
%TO.C,Cdec6*%
G36*
G01*
X69475000Y-101915353D02*
X69475000Y-103225353D01*
G75*
G02*
X69205000Y-103495353I-270000J0D01*
G01*
X68395000Y-103495353D01*
G75*
G02*
X68125000Y-103225353I0J270000D01*
G01*
X68125000Y-101915353D01*
G75*
G02*
X68395000Y-101645353I270000J0D01*
G01*
X69205000Y-101645353D01*
G75*
G02*
X69475000Y-101915353I0J-270000D01*
G01*
G37*
G36*
G01*
X66675000Y-101915353D02*
X66675000Y-103225353D01*
G75*
G02*
X66405000Y-103495353I-270000J0D01*
G01*
X65595000Y-103495353D01*
G75*
G02*
X65325000Y-103225353I0J270000D01*
G01*
X65325000Y-101915353D01*
G75*
G02*
X65595000Y-101645353I270000J0D01*
G01*
X66405000Y-101645353D01*
G75*
G02*
X66675000Y-101915353I0J-270000D01*
G01*
G37*
%TD*%
%TO.C,Cdec7*%
G36*
G01*
X90678334Y-66430001D02*
X91988334Y-66430001D01*
G75*
G02*
X92258334Y-66700001I0J-270000D01*
G01*
X92258334Y-67510001D01*
G75*
G02*
X91988334Y-67780001I-270000J0D01*
G01*
X90678334Y-67780001D01*
G75*
G02*
X90408334Y-67510001I0J270000D01*
G01*
X90408334Y-66700001D01*
G75*
G02*
X90678334Y-66430001I270000J0D01*
G01*
G37*
G36*
G01*
X90678334Y-69230001D02*
X91988334Y-69230001D01*
G75*
G02*
X92258334Y-69500001I0J-270000D01*
G01*
X92258334Y-70310001D01*
G75*
G02*
X91988334Y-70580001I-270000J0D01*
G01*
X90678334Y-70580001D01*
G75*
G02*
X90408334Y-70310001I0J270000D01*
G01*
X90408334Y-69500001D01*
G75*
G02*
X90678334Y-69230001I270000J0D01*
G01*
G37*
%TD*%
%TO.C,Cdec8*%
G36*
G01*
X87345000Y-69225000D02*
X88655000Y-69225000D01*
G75*
G02*
X88925000Y-69495000I0J-270000D01*
G01*
X88925000Y-70305000D01*
G75*
G02*
X88655000Y-70575000I-270000J0D01*
G01*
X87345000Y-70575000D01*
G75*
G02*
X87075000Y-70305000I0J270000D01*
G01*
X87075000Y-69495000D01*
G75*
G02*
X87345000Y-69225000I270000J0D01*
G01*
G37*
G36*
G01*
X87345000Y-66425000D02*
X88655000Y-66425000D01*
G75*
G02*
X88925000Y-66695000I0J-270000D01*
G01*
X88925000Y-67505000D01*
G75*
G02*
X88655000Y-67775000I-270000J0D01*
G01*
X87345000Y-67775000D01*
G75*
G02*
X87075000Y-67505000I0J270000D01*
G01*
X87075000Y-66695000D01*
G75*
G02*
X87345000Y-66425000I270000J0D01*
G01*
G37*
%TD*%
%TO.C,C9*%
G36*
G01*
X87345000Y-72325000D02*
X88655000Y-72325000D01*
G75*
G02*
X88925000Y-72595000I0J-270000D01*
G01*
X88925000Y-73405000D01*
G75*
G02*
X88655000Y-73675000I-270000J0D01*
G01*
X87345000Y-73675000D01*
G75*
G02*
X87075000Y-73405000I0J270000D01*
G01*
X87075000Y-72595000D01*
G75*
G02*
X87345000Y-72325000I270000J0D01*
G01*
G37*
G36*
G01*
X87345000Y-75125000D02*
X88655000Y-75125000D01*
G75*
G02*
X88925000Y-75395000I0J-270000D01*
G01*
X88925000Y-76205000D01*
G75*
G02*
X88655000Y-76475000I-270000J0D01*
G01*
X87345000Y-76475000D01*
G75*
G02*
X87075000Y-76205000I0J270000D01*
G01*
X87075000Y-75395000D01*
G75*
G02*
X87345000Y-75125000I270000J0D01*
G01*
G37*
%TD*%
D20*
%TO.C,D2*%
X51400000Y-91980000D03*
D21*
X51400000Y-93700000D03*
X53600000Y-93700000D03*
X53600000Y-91800000D03*
%TD*%
D22*
%TO.C,IC2*%
X87600000Y-102495000D03*
X87600000Y-103765000D03*
X87600000Y-105035000D03*
X87600000Y-106305000D03*
%TD*%
D18*
%TO.C,J6*%
X48000000Y-105080000D03*
D19*
X48000000Y-102540000D03*
X48000000Y-100000000D03*
%TD*%
%TO.C,J7*%
X47880000Y-50960000D03*
X47880000Y-53500000D03*
X50420000Y-50960000D03*
X50420000Y-53500000D03*
X52960000Y-50960000D03*
X52960000Y-53500000D03*
X55500000Y-50960000D03*
D18*
X55500000Y-53500000D03*
%TD*%
%TO.C,J8*%
X49650000Y-70000000D03*
D19*
X49650000Y-67460000D03*
X47110000Y-70000000D03*
X47110000Y-67460000D03*
X44570000Y-70000000D03*
X44570000Y-67460000D03*
X42030000Y-70000000D03*
X42030000Y-67460000D03*
%TD*%
D18*
%TO.C,J9*%
X47000000Y-86000000D03*
D19*
X47000000Y-83460000D03*
X47000000Y-80920000D03*
X47000000Y-78380000D03*
%TD*%
%TO.C,J10*%
X42000000Y-78380000D03*
X42000000Y-80920000D03*
X42000000Y-83460000D03*
D18*
X42000000Y-86000000D03*
%TD*%
D23*
%TO.C,LED1*%
X81271500Y-66875000D03*
X81271500Y-68125000D03*
X83121500Y-68125000D03*
X83121500Y-66875000D03*
%TD*%
%TO.C,LED2*%
X75600500Y-66875000D03*
X75600500Y-68125000D03*
X73750500Y-68125000D03*
X73750500Y-66875000D03*
%TD*%
D24*
%TO.C,LED3*%
X80534000Y-73600000D03*
X80534000Y-72500000D03*
X80534000Y-71400000D03*
X83484000Y-73600000D03*
X83484000Y-72500000D03*
X83484000Y-71400000D03*
%TD*%
%TO.C,LED4*%
X73013000Y-73600000D03*
X73013000Y-72500000D03*
X73013000Y-71400000D03*
X75963000Y-73600000D03*
X75963000Y-72500000D03*
X75963000Y-71400000D03*
%TD*%
%TO.C,LED5*%
X62367000Y-73600000D03*
X62367000Y-72500000D03*
X62367000Y-71400000D03*
X65317000Y-73600000D03*
X65317000Y-72500000D03*
X65317000Y-71400000D03*
%TD*%
%TO.C,LED6*%
X57796000Y-71400000D03*
X57796000Y-72500000D03*
X57796000Y-73600000D03*
X54846000Y-71400000D03*
X54846000Y-72500000D03*
X54846000Y-73600000D03*
%TD*%
D23*
%TO.C,LED7*%
X62729500Y-66875000D03*
X62729500Y-68125000D03*
X64579500Y-68125000D03*
X64579500Y-66875000D03*
%TD*%
%TO.C,LED8*%
X55208500Y-66875000D03*
X55208500Y-68125000D03*
X57058500Y-68125000D03*
X57058500Y-66875000D03*
%TD*%
D25*
%TO.C,LEDDRV1*%
X71150000Y-81400000D03*
X71150000Y-81000000D03*
X71150000Y-80600000D03*
X71150000Y-80200000D03*
X71150000Y-79800000D03*
X71150000Y-79400000D03*
X71150000Y-79000000D03*
X71150000Y-78600000D03*
D26*
X70400000Y-77850000D03*
X70000000Y-77850000D03*
X69600000Y-77850000D03*
X69200000Y-77850000D03*
X68800000Y-77850000D03*
X68400000Y-77850000D03*
X68000000Y-77850000D03*
X67600000Y-77850000D03*
D25*
X66850000Y-78600000D03*
X66850000Y-79000000D03*
X66850000Y-79400000D03*
X66850000Y-79800000D03*
X66850000Y-80200000D03*
X66850000Y-80600000D03*
X66850000Y-81000000D03*
X66850000Y-81400000D03*
D26*
X67600000Y-82150000D03*
X68000000Y-82150000D03*
X68400000Y-82150000D03*
X68800000Y-82150000D03*
X69200000Y-82150000D03*
X69600000Y-82150000D03*
X70000000Y-82150000D03*
X70400000Y-82150000D03*
D27*
X69000000Y-80000000D03*
%TD*%
D28*
%TO.C,P1*%
X53870000Y-101140000D03*
D29*
X55250000Y-99230000D03*
X55750000Y-99230000D03*
X56250000Y-99230000D03*
X56750000Y-99230000D03*
X57250000Y-99230000D03*
X57750000Y-99230000D03*
X58250000Y-99230000D03*
X60750000Y-99230000D03*
X59750000Y-99230000D03*
X59250000Y-99230000D03*
X58750000Y-99230000D03*
X60250000Y-99230000D03*
X60500000Y-100930000D03*
D28*
X62130000Y-101140000D03*
X62490000Y-107090000D03*
X53510000Y-107090000D03*
D30*
X61600000Y-99890000D03*
D31*
X54400000Y-99890000D03*
D29*
X60000000Y-100930000D03*
X59500000Y-100930000D03*
X59000000Y-100930000D03*
X58500000Y-100930000D03*
X58000000Y-100930000D03*
X57500000Y-100930000D03*
X57000000Y-100930000D03*
X56500000Y-100930000D03*
X56000000Y-100930000D03*
X55500000Y-100930000D03*
X55000000Y-100930000D03*
%TD*%
%TO.C,R1*%
G36*
G01*
X85100000Y-77688750D02*
X85100000Y-78651250D01*
G75*
G02*
X84831250Y-78920000I-268750J0D01*
G01*
X84293750Y-78920000D01*
G75*
G02*
X84025000Y-78651250I0J268750D01*
G01*
X84025000Y-77688750D01*
G75*
G02*
X84293750Y-77420000I268750J0D01*
G01*
X84831250Y-77420000D01*
G75*
G02*
X85100000Y-77688750I0J-268750D01*
G01*
G37*
G36*
G01*
X86975000Y-77688750D02*
X86975000Y-78651250D01*
G75*
G02*
X86706250Y-78920000I-268750J0D01*
G01*
X86168750Y-78920000D01*
G75*
G02*
X85900000Y-78651250I0J268750D01*
G01*
X85900000Y-77688750D01*
G75*
G02*
X86168750Y-77420000I268750J0D01*
G01*
X86706250Y-77420000D01*
G75*
G02*
X86975000Y-77688750I0J-268750D01*
G01*
G37*
%TD*%
%TO.C,R2*%
G36*
G01*
X88275000Y-78651250D02*
X88275000Y-77688750D01*
G75*
G02*
X88543750Y-77420000I268750J0D01*
G01*
X89081250Y-77420000D01*
G75*
G02*
X89350000Y-77688750I0J-268750D01*
G01*
X89350000Y-78651250D01*
G75*
G02*
X89081250Y-78920000I-268750J0D01*
G01*
X88543750Y-78920000D01*
G75*
G02*
X88275000Y-78651250I0J268750D01*
G01*
G37*
G36*
G01*
X90150000Y-78651250D02*
X90150000Y-77688750D01*
G75*
G02*
X90418750Y-77420000I268750J0D01*
G01*
X90956250Y-77420000D01*
G75*
G02*
X91225000Y-77688750I0J-268750D01*
G01*
X91225000Y-78651250D01*
G75*
G02*
X90956250Y-78920000I-268750J0D01*
G01*
X90418750Y-78920000D01*
G75*
G02*
X90150000Y-78651250I0J268750D01*
G01*
G37*
%TD*%
%TO.C,R3*%
G36*
G01*
X70606250Y-87775000D02*
X69643750Y-87775000D01*
G75*
G02*
X69375000Y-87506250I0J268750D01*
G01*
X69375000Y-86968750D01*
G75*
G02*
X69643750Y-86700000I268750J0D01*
G01*
X70606250Y-86700000D01*
G75*
G02*
X70875000Y-86968750I0J-268750D01*
G01*
X70875000Y-87506250D01*
G75*
G02*
X70606250Y-87775000I-268750J0D01*
G01*
G37*
G36*
G01*
X70606250Y-85900000D02*
X69643750Y-85900000D01*
G75*
G02*
X69375000Y-85631250I0J268750D01*
G01*
X69375000Y-85093750D01*
G75*
G02*
X69643750Y-84825000I268750J0D01*
G01*
X70606250Y-84825000D01*
G75*
G02*
X70875000Y-85093750I0J-268750D01*
G01*
X70875000Y-85631250D01*
G75*
G02*
X70606250Y-85900000I-268750J0D01*
G01*
G37*
%TD*%
%TO.C,R14*%
G36*
G01*
X67600000Y-99079461D02*
X67600000Y-100041961D01*
G75*
G02*
X67331250Y-100310711I-268750J0D01*
G01*
X66793750Y-100310711D01*
G75*
G02*
X66525000Y-100041961I0J268750D01*
G01*
X66525000Y-99079461D01*
G75*
G02*
X66793750Y-98810711I268750J0D01*
G01*
X67331250Y-98810711D01*
G75*
G02*
X67600000Y-99079461I0J-268750D01*
G01*
G37*
G36*
G01*
X69475000Y-99079461D02*
X69475000Y-100041961D01*
G75*
G02*
X69206250Y-100310711I-268750J0D01*
G01*
X68668750Y-100310711D01*
G75*
G02*
X68400000Y-100041961I0J268750D01*
G01*
X68400000Y-99079461D01*
G75*
G02*
X68668750Y-98810711I268750J0D01*
G01*
X69206250Y-98810711D01*
G75*
G02*
X69475000Y-99079461I0J-268750D01*
G01*
G37*
%TD*%
%TO.C,R15*%
G36*
G01*
X69475000Y-96239819D02*
X69475000Y-97202319D01*
G75*
G02*
X69206250Y-97471069I-268750J0D01*
G01*
X68668750Y-97471069D01*
G75*
G02*
X68400000Y-97202319I0J268750D01*
G01*
X68400000Y-96239819D01*
G75*
G02*
X68668750Y-95971069I268750J0D01*
G01*
X69206250Y-95971069D01*
G75*
G02*
X69475000Y-96239819I0J-268750D01*
G01*
G37*
G36*
G01*
X67600000Y-96239819D02*
X67600000Y-97202319D01*
G75*
G02*
X67331250Y-97471069I-268750J0D01*
G01*
X66793750Y-97471069D01*
G75*
G02*
X66525000Y-97202319I0J268750D01*
G01*
X66525000Y-96239819D01*
G75*
G02*
X66793750Y-95971069I268750J0D01*
G01*
X67331250Y-95971069D01*
G75*
G02*
X67600000Y-96239819I0J-268750D01*
G01*
G37*
%TD*%
%TO.C,R16*%
G36*
G01*
X67600000Y-93400177D02*
X67600000Y-94362677D01*
G75*
G02*
X67331250Y-94631427I-268750J0D01*
G01*
X66793750Y-94631427D01*
G75*
G02*
X66525000Y-94362677I0J268750D01*
G01*
X66525000Y-93400177D01*
G75*
G02*
X66793750Y-93131427I268750J0D01*
G01*
X67331250Y-93131427D01*
G75*
G02*
X67600000Y-93400177I0J-268750D01*
G01*
G37*
G36*
G01*
X69475000Y-93400177D02*
X69475000Y-94362677D01*
G75*
G02*
X69206250Y-94631427I-268750J0D01*
G01*
X68668750Y-94631427D01*
G75*
G02*
X68400000Y-94362677I0J268750D01*
G01*
X68400000Y-93400177D01*
G75*
G02*
X68668750Y-93131427I268750J0D01*
G01*
X69206250Y-93131427D01*
G75*
G02*
X69475000Y-93400177I0J-268750D01*
G01*
G37*
%TD*%
%TO.C,R17*%
G36*
G01*
X91988333Y-73675000D02*
X90678333Y-73675000D01*
G75*
G02*
X90408333Y-73405000I0J270000D01*
G01*
X90408333Y-72595000D01*
G75*
G02*
X90678333Y-72325000I270000J0D01*
G01*
X91988333Y-72325000D01*
G75*
G02*
X92258333Y-72595000I0J-270000D01*
G01*
X92258333Y-73405000D01*
G75*
G02*
X91988333Y-73675000I-270000J0D01*
G01*
G37*
G36*
G01*
X91988333Y-76475000D02*
X90678333Y-76475000D01*
G75*
G02*
X90408333Y-76205000I0J270000D01*
G01*
X90408333Y-75395000D01*
G75*
G02*
X90678333Y-75125000I270000J0D01*
G01*
X91988333Y-75125000D01*
G75*
G02*
X92258333Y-75395000I0J-270000D01*
G01*
X92258333Y-76205000D01*
G75*
G02*
X91988333Y-76475000I-270000J0D01*
G01*
G37*
%TD*%
%TO.C,R18*%
G36*
G01*
X82075000Y-77345000D02*
X82075000Y-78655000D01*
G75*
G02*
X81805000Y-78925000I-270000J0D01*
G01*
X80995000Y-78925000D01*
G75*
G02*
X80725000Y-78655000I0J270000D01*
G01*
X80725000Y-77345000D01*
G75*
G02*
X80995000Y-77075000I270000J0D01*
G01*
X81805000Y-77075000D01*
G75*
G02*
X82075000Y-77345000I0J-270000D01*
G01*
G37*
G36*
G01*
X79275000Y-77345000D02*
X79275000Y-78655000D01*
G75*
G02*
X79005000Y-78925000I-270000J0D01*
G01*
X78195000Y-78925000D01*
G75*
G02*
X77925000Y-78655000I0J270000D01*
G01*
X77925000Y-77345000D01*
G75*
G02*
X78195000Y-77075000I270000J0D01*
G01*
X79005000Y-77075000D01*
G75*
G02*
X79275000Y-77345000I0J-270000D01*
G01*
G37*
%TD*%
D32*
%TO.C,SW1*%
X98825000Y-107575000D03*
X94675000Y-107575000D03*
X98825000Y-105425000D03*
X94675000Y-105425000D03*
%TD*%
%TO.C,SW2*%
X99075000Y-72575000D03*
X94925000Y-72575000D03*
X99075000Y-70425000D03*
X94925000Y-70425000D03*
%TD*%
%TO.C,U3*%
G36*
G01*
X57100000Y-91087500D02*
X57100000Y-90912500D01*
G75*
G02*
X57187500Y-90825000I87500J0D01*
G01*
X57912500Y-90825000D01*
G75*
G02*
X58000000Y-90912500I0J-87500D01*
G01*
X58000000Y-91087500D01*
G75*
G02*
X57912500Y-91175000I-87500J0D01*
G01*
X57187500Y-91175000D01*
G75*
G02*
X57100000Y-91087500I0J87500D01*
G01*
G37*
G36*
G01*
X57100000Y-91587500D02*
X57100000Y-91412500D01*
G75*
G02*
X57187500Y-91325000I87500J0D01*
G01*
X57912500Y-91325000D01*
G75*
G02*
X58000000Y-91412500I0J-87500D01*
G01*
X58000000Y-91587500D01*
G75*
G02*
X57912500Y-91675000I-87500J0D01*
G01*
X57187500Y-91675000D01*
G75*
G02*
X57100000Y-91587500I0J87500D01*
G01*
G37*
G36*
G01*
X57100000Y-92087500D02*
X57100000Y-91912500D01*
G75*
G02*
X57187500Y-91825000I87500J0D01*
G01*
X57912500Y-91825000D01*
G75*
G02*
X58000000Y-91912500I0J-87500D01*
G01*
X58000000Y-92087500D01*
G75*
G02*
X57912500Y-92175000I-87500J0D01*
G01*
X57187500Y-92175000D01*
G75*
G02*
X57100000Y-92087500I0J87500D01*
G01*
G37*
G36*
G01*
X57100000Y-92587500D02*
X57100000Y-92412500D01*
G75*
G02*
X57187500Y-92325000I87500J0D01*
G01*
X57912500Y-92325000D01*
G75*
G02*
X58000000Y-92412500I0J-87500D01*
G01*
X58000000Y-92587500D01*
G75*
G02*
X57912500Y-92675000I-87500J0D01*
G01*
X57187500Y-92675000D01*
G75*
G02*
X57100000Y-92587500I0J87500D01*
G01*
G37*
G36*
G01*
X57100000Y-93087500D02*
X57100000Y-92912500D01*
G75*
G02*
X57187500Y-92825000I87500J0D01*
G01*
X57912500Y-92825000D01*
G75*
G02*
X58000000Y-92912500I0J-87500D01*
G01*
X58000000Y-93087500D01*
G75*
G02*
X57912500Y-93175000I-87500J0D01*
G01*
X57187500Y-93175000D01*
G75*
G02*
X57100000Y-93087500I0J87500D01*
G01*
G37*
G36*
G01*
X57100000Y-93587500D02*
X57100000Y-93412500D01*
G75*
G02*
X57187500Y-93325000I87500J0D01*
G01*
X57912500Y-93325000D01*
G75*
G02*
X58000000Y-93412500I0J-87500D01*
G01*
X58000000Y-93587500D01*
G75*
G02*
X57912500Y-93675000I-87500J0D01*
G01*
X57187500Y-93675000D01*
G75*
G02*
X57100000Y-93587500I0J87500D01*
G01*
G37*
G36*
G01*
X57100000Y-94087500D02*
X57100000Y-93912500D01*
G75*
G02*
X57187500Y-93825000I87500J0D01*
G01*
X57912500Y-93825000D01*
G75*
G02*
X58000000Y-93912500I0J-87500D01*
G01*
X58000000Y-94087500D01*
G75*
G02*
X57912500Y-94175000I-87500J0D01*
G01*
X57187500Y-94175000D01*
G75*
G02*
X57100000Y-94087500I0J87500D01*
G01*
G37*
G36*
G01*
X58325000Y-95312500D02*
X58325000Y-94587500D01*
G75*
G02*
X58412500Y-94500000I87500J0D01*
G01*
X58587500Y-94500000D01*
G75*
G02*
X58675000Y-94587500I0J-87500D01*
G01*
X58675000Y-95312500D01*
G75*
G02*
X58587500Y-95400000I-87500J0D01*
G01*
X58412500Y-95400000D01*
G75*
G02*
X58325000Y-95312500I0J87500D01*
G01*
G37*
G36*
G01*
X58825000Y-95312500D02*
X58825000Y-94587500D01*
G75*
G02*
X58912500Y-94500000I87500J0D01*
G01*
X59087500Y-94500000D01*
G75*
G02*
X59175000Y-94587500I0J-87500D01*
G01*
X59175000Y-95312500D01*
G75*
G02*
X59087500Y-95400000I-87500J0D01*
G01*
X58912500Y-95400000D01*
G75*
G02*
X58825000Y-95312500I0J87500D01*
G01*
G37*
G36*
G01*
X59325000Y-95312500D02*
X59325000Y-94587500D01*
G75*
G02*
X59412500Y-94500000I87500J0D01*
G01*
X59587500Y-94500000D01*
G75*
G02*
X59675000Y-94587500I0J-87500D01*
G01*
X59675000Y-95312500D01*
G75*
G02*
X59587500Y-95400000I-87500J0D01*
G01*
X59412500Y-95400000D01*
G75*
G02*
X59325000Y-95312500I0J87500D01*
G01*
G37*
G36*
G01*
X59825000Y-95312500D02*
X59825000Y-94587500D01*
G75*
G02*
X59912500Y-94500000I87500J0D01*
G01*
X60087500Y-94500000D01*
G75*
G02*
X60175000Y-94587500I0J-87500D01*
G01*
X60175000Y-95312500D01*
G75*
G02*
X60087500Y-95400000I-87500J0D01*
G01*
X59912500Y-95400000D01*
G75*
G02*
X59825000Y-95312500I0J87500D01*
G01*
G37*
G36*
G01*
X60325000Y-95312500D02*
X60325000Y-94587500D01*
G75*
G02*
X60412500Y-94500000I87500J0D01*
G01*
X60587500Y-94500000D01*
G75*
G02*
X60675000Y-94587500I0J-87500D01*
G01*
X60675000Y-95312500D01*
G75*
G02*
X60587500Y-95400000I-87500J0D01*
G01*
X60412500Y-95400000D01*
G75*
G02*
X60325000Y-95312500I0J87500D01*
G01*
G37*
G36*
G01*
X60825000Y-95312500D02*
X60825000Y-94587500D01*
G75*
G02*
X60912500Y-94500000I87500J0D01*
G01*
X61087500Y-94500000D01*
G75*
G02*
X61175000Y-94587500I0J-87500D01*
G01*
X61175000Y-95312500D01*
G75*
G02*
X61087500Y-95400000I-87500J0D01*
G01*
X60912500Y-95400000D01*
G75*
G02*
X60825000Y-95312500I0J87500D01*
G01*
G37*
G36*
G01*
X61325000Y-95312500D02*
X61325000Y-94587500D01*
G75*
G02*
X61412500Y-94500000I87500J0D01*
G01*
X61587500Y-94500000D01*
G75*
G02*
X61675000Y-94587500I0J-87500D01*
G01*
X61675000Y-95312500D01*
G75*
G02*
X61587500Y-95400000I-87500J0D01*
G01*
X61412500Y-95400000D01*
G75*
G02*
X61325000Y-95312500I0J87500D01*
G01*
G37*
G36*
G01*
X62000000Y-94087500D02*
X62000000Y-93912500D01*
G75*
G02*
X62087500Y-93825000I87500J0D01*
G01*
X62812500Y-93825000D01*
G75*
G02*
X62900000Y-93912500I0J-87500D01*
G01*
X62900000Y-94087500D01*
G75*
G02*
X62812500Y-94175000I-87500J0D01*
G01*
X62087500Y-94175000D01*
G75*
G02*
X62000000Y-94087500I0J87500D01*
G01*
G37*
G36*
G01*
X62000000Y-93587500D02*
X62000000Y-93412500D01*
G75*
G02*
X62087500Y-93325000I87500J0D01*
G01*
X62812500Y-93325000D01*
G75*
G02*
X62900000Y-93412500I0J-87500D01*
G01*
X62900000Y-93587500D01*
G75*
G02*
X62812500Y-93675000I-87500J0D01*
G01*
X62087500Y-93675000D01*
G75*
G02*
X62000000Y-93587500I0J87500D01*
G01*
G37*
G36*
G01*
X62000000Y-93087500D02*
X62000000Y-92912500D01*
G75*
G02*
X62087500Y-92825000I87500J0D01*
G01*
X62812500Y-92825000D01*
G75*
G02*
X62900000Y-92912500I0J-87500D01*
G01*
X62900000Y-93087500D01*
G75*
G02*
X62812500Y-93175000I-87500J0D01*
G01*
X62087500Y-93175000D01*
G75*
G02*
X62000000Y-93087500I0J87500D01*
G01*
G37*
G36*
G01*
X62000000Y-92587500D02*
X62000000Y-92412500D01*
G75*
G02*
X62087500Y-92325000I87500J0D01*
G01*
X62812500Y-92325000D01*
G75*
G02*
X62900000Y-92412500I0J-87500D01*
G01*
X62900000Y-92587500D01*
G75*
G02*
X62812500Y-92675000I-87500J0D01*
G01*
X62087500Y-92675000D01*
G75*
G02*
X62000000Y-92587500I0J87500D01*
G01*
G37*
G36*
G01*
X62000000Y-92087500D02*
X62000000Y-91912500D01*
G75*
G02*
X62087500Y-91825000I87500J0D01*
G01*
X62812500Y-91825000D01*
G75*
G02*
X62900000Y-91912500I0J-87500D01*
G01*
X62900000Y-92087500D01*
G75*
G02*
X62812500Y-92175000I-87500J0D01*
G01*
X62087500Y-92175000D01*
G75*
G02*
X62000000Y-92087500I0J87500D01*
G01*
G37*
G36*
G01*
X62000000Y-91587500D02*
X62000000Y-91412500D01*
G75*
G02*
X62087500Y-91325000I87500J0D01*
G01*
X62812500Y-91325000D01*
G75*
G02*
X62900000Y-91412500I0J-87500D01*
G01*
X62900000Y-91587500D01*
G75*
G02*
X62812500Y-91675000I-87500J0D01*
G01*
X62087500Y-91675000D01*
G75*
G02*
X62000000Y-91587500I0J87500D01*
G01*
G37*
G36*
G01*
X62000000Y-91087500D02*
X62000000Y-90912500D01*
G75*
G02*
X62087500Y-90825000I87500J0D01*
G01*
X62812500Y-90825000D01*
G75*
G02*
X62900000Y-90912500I0J-87500D01*
G01*
X62900000Y-91087500D01*
G75*
G02*
X62812500Y-91175000I-87500J0D01*
G01*
X62087500Y-91175000D01*
G75*
G02*
X62000000Y-91087500I0J87500D01*
G01*
G37*
G36*
G01*
X61325000Y-90412500D02*
X61325000Y-89687500D01*
G75*
G02*
X61412500Y-89600000I87500J0D01*
G01*
X61587500Y-89600000D01*
G75*
G02*
X61675000Y-89687500I0J-87500D01*
G01*
X61675000Y-90412500D01*
G75*
G02*
X61587500Y-90500000I-87500J0D01*
G01*
X61412500Y-90500000D01*
G75*
G02*
X61325000Y-90412500I0J87500D01*
G01*
G37*
G36*
G01*
X60825000Y-90412500D02*
X60825000Y-89687500D01*
G75*
G02*
X60912500Y-89600000I87500J0D01*
G01*
X61087500Y-89600000D01*
G75*
G02*
X61175000Y-89687500I0J-87500D01*
G01*
X61175000Y-90412500D01*
G75*
G02*
X61087500Y-90500000I-87500J0D01*
G01*
X60912500Y-90500000D01*
G75*
G02*
X60825000Y-90412500I0J87500D01*
G01*
G37*
G36*
G01*
X60325000Y-90412500D02*
X60325000Y-89687500D01*
G75*
G02*
X60412500Y-89600000I87500J0D01*
G01*
X60587500Y-89600000D01*
G75*
G02*
X60675000Y-89687500I0J-87500D01*
G01*
X60675000Y-90412500D01*
G75*
G02*
X60587500Y-90500000I-87500J0D01*
G01*
X60412500Y-90500000D01*
G75*
G02*
X60325000Y-90412500I0J87500D01*
G01*
G37*
G36*
G01*
X59825000Y-90412500D02*
X59825000Y-89687500D01*
G75*
G02*
X59912500Y-89600000I87500J0D01*
G01*
X60087500Y-89600000D01*
G75*
G02*
X60175000Y-89687500I0J-87500D01*
G01*
X60175000Y-90412500D01*
G75*
G02*
X60087500Y-90500000I-87500J0D01*
G01*
X59912500Y-90500000D01*
G75*
G02*
X59825000Y-90412500I0J87500D01*
G01*
G37*
G36*
G01*
X59325000Y-90412500D02*
X59325000Y-89687500D01*
G75*
G02*
X59412500Y-89600000I87500J0D01*
G01*
X59587500Y-89600000D01*
G75*
G02*
X59675000Y-89687500I0J-87500D01*
G01*
X59675000Y-90412500D01*
G75*
G02*
X59587500Y-90500000I-87500J0D01*
G01*
X59412500Y-90500000D01*
G75*
G02*
X59325000Y-90412500I0J87500D01*
G01*
G37*
G36*
G01*
X58825000Y-90412500D02*
X58825000Y-89687500D01*
G75*
G02*
X58912500Y-89600000I87500J0D01*
G01*
X59087500Y-89600000D01*
G75*
G02*
X59175000Y-89687500I0J-87500D01*
G01*
X59175000Y-90412500D01*
G75*
G02*
X59087500Y-90500000I-87500J0D01*
G01*
X58912500Y-90500000D01*
G75*
G02*
X58825000Y-90412500I0J87500D01*
G01*
G37*
G36*
G01*
X58325000Y-90412500D02*
X58325000Y-89687500D01*
G75*
G02*
X58412500Y-89600000I87500J0D01*
G01*
X58587500Y-89600000D01*
G75*
G02*
X58675000Y-89687500I0J-87500D01*
G01*
X58675000Y-90412500D01*
G75*
G02*
X58587500Y-90500000I-87500J0D01*
G01*
X58412500Y-90500000D01*
G75*
G02*
X58325000Y-90412500I0J87500D01*
G01*
G37*
D33*
X60000000Y-92500000D03*
%TD*%
D34*
%TO.C,U4*%
X93750000Y-97737500D03*
X92250000Y-97737500D03*
X90750000Y-97737500D03*
X89250000Y-97737500D03*
X87750000Y-97737500D03*
X86250000Y-97737500D03*
X84750000Y-97737500D03*
X83250000Y-97737500D03*
X81750000Y-97737500D03*
X81750000Y-80262500D03*
X83250000Y-80262500D03*
X84750000Y-80262500D03*
X86250000Y-80262500D03*
X87750000Y-80262500D03*
X89250000Y-80262500D03*
X90750000Y-80262500D03*
X92250000Y-80262500D03*
X93750000Y-80262500D03*
D35*
X87170000Y-90120000D03*
%TD*%
M02*
