%TF.GenerationSoftware,KiCad,Pcbnew,5.1.6*%
%TF.CreationDate,2020-07-08T20:14:41-07:00*%
%TF.ProjectId,plant_station,706c616e-745f-4737-9461-74696f6e2e6b,rev?*%
%TF.SameCoordinates,Original*%
%TF.FileFunction,Legend,Top*%
%TF.FilePolarity,Positive*%
%FSLAX46Y46*%
G04 Gerber Fmt 4.6, Leading zero omitted, Abs format (unit mm)*
G04 Created by KiCad (PCBNEW 5.1.6) date 2020-07-08 20:14:41*
%MOMM*%
%LPD*%
G01*
G04 APERTURE LIST*
%ADD10C,0.120000*%
%ADD11C,0.127000*%
%ADD12C,0.200000*%
%ADD13C,0.250000*%
%ADD14C,0.254000*%
%ADD15C,0.100000*%
%ADD16C,0.015000*%
%ADD17C,0.150000*%
G04 APERTURE END LIST*
D10*
X75000000Y-76500000D02*
X75000000Y-88000000D01*
X45000000Y-88000000D02*
X45000000Y-76500000D01*
X75000000Y-88000000D02*
X45000000Y-88000000D01*
X45000000Y-76500000D02*
X75000000Y-76500000D01*
D11*
%TO.C,U2*%
X78490000Y-104370000D02*
X78490000Y-104865000D01*
X78490000Y-104865000D02*
X77995000Y-104865000D01*
X77005000Y-104865000D02*
X76510000Y-104865000D01*
X76510000Y-104865000D02*
X76510000Y-104370000D01*
X77995000Y-102885000D02*
X78490000Y-102885000D01*
X78490000Y-102885000D02*
X78490000Y-103380000D01*
X76510000Y-103380000D02*
X76510000Y-102885000D01*
X76510000Y-102885000D02*
X77005000Y-102885000D01*
D12*
X79000000Y-104375000D02*
G75*
G03*
X79000000Y-104375000I-100000J0D01*
G01*
D10*
%TO.C,C4*%
X87840000Y-51252064D02*
X87840000Y-50047936D01*
X89660000Y-51252064D02*
X89660000Y-50047936D01*
%TO.C,C5*%
X90840000Y-51252064D02*
X90840000Y-50047936D01*
X92660000Y-51252064D02*
X92660000Y-50047936D01*
%TO.C,C6*%
X65840000Y-50252064D02*
X65840000Y-49047936D01*
X67660000Y-50252064D02*
X67660000Y-49047936D01*
%TO.C,C7*%
X71660000Y-50252064D02*
X71660000Y-49047936D01*
X69840000Y-50252064D02*
X69840000Y-49047936D01*
%TO.C,Cdec1*%
X53660000Y-45852064D02*
X53660000Y-44647936D01*
X51840000Y-45852064D02*
X51840000Y-44647936D01*
%TO.C,Cdec2*%
X49660000Y-45852064D02*
X49660000Y-44647936D01*
X47840000Y-45852064D02*
X47840000Y-44647936D01*
%TO.C,Cref1*%
X91840000Y-36852064D02*
X91840000Y-35647936D01*
X93660000Y-36852064D02*
X93660000Y-35647936D01*
%TO.C,D1*%
X97250000Y-46450000D02*
X97250000Y-40750000D01*
X94250000Y-46450000D02*
X97250000Y-46450000D01*
X94250000Y-40750000D02*
X94250000Y-46450000D01*
D12*
%TO.C,IC3*%
X87170000Y-46725000D02*
X87170000Y-45200000D01*
X92200000Y-44850000D02*
X87300000Y-44850000D01*
X92200000Y-41650000D02*
X92200000Y-44850000D01*
X87300000Y-41650000D02*
X92200000Y-41650000D01*
X87300000Y-44850000D02*
X87300000Y-41650000D01*
%TO.C,IC4*%
X82150000Y-44125000D02*
X82150000Y-42875000D01*
X85200000Y-42525000D02*
X82300000Y-42525000D01*
X85200000Y-41975000D02*
X85200000Y-42525000D01*
X82300000Y-41975000D02*
X85200000Y-41975000D01*
X82300000Y-42525000D02*
X82300000Y-41975000D01*
D13*
%TO.C,IC5*%
X67225000Y-45125000D02*
G75*
G03*
X67225000Y-45125000I-125000J0D01*
G01*
%TO.C,IC6*%
X50775000Y-41150000D02*
G75*
G03*
X50775000Y-41150000I-125000J0D01*
G01*
D10*
%TO.C,J1*%
X79080000Y-49580000D02*
X77750000Y-49580000D01*
X79080000Y-48250000D02*
X79080000Y-49580000D01*
X79080000Y-46980000D02*
X76420000Y-46980000D01*
X76420000Y-46980000D02*
X76420000Y-36760000D01*
X79080000Y-46980000D02*
X79080000Y-36760000D01*
X79080000Y-36760000D02*
X76420000Y-36760000D01*
%TO.C,J2*%
X61080000Y-48580000D02*
X59750000Y-48580000D01*
X61080000Y-47250000D02*
X61080000Y-48580000D01*
X61080000Y-45980000D02*
X58420000Y-45980000D01*
X58420000Y-45980000D02*
X58420000Y-38300000D01*
X61080000Y-45980000D02*
X61080000Y-38300000D01*
X61080000Y-38300000D02*
X58420000Y-38300000D01*
%TO.C,J3*%
X100420000Y-33420000D02*
X101750000Y-33420000D01*
X100420000Y-34750000D02*
X100420000Y-33420000D01*
X103020000Y-33420000D02*
X105620000Y-33420000D01*
X103020000Y-36020000D02*
X103020000Y-33420000D01*
X100420000Y-36020000D02*
X103020000Y-36020000D01*
X105620000Y-33420000D02*
X105620000Y-53860000D01*
X100420000Y-36020000D02*
X100420000Y-53860000D01*
X100420000Y-53860000D02*
X105620000Y-53860000D01*
%TO.C,J4*%
X108920000Y-40920000D02*
X110250000Y-40920000D01*
X108920000Y-42250000D02*
X108920000Y-40920000D01*
X108920000Y-43520000D02*
X111580000Y-43520000D01*
X111580000Y-43520000D02*
X111580000Y-46120000D01*
X108920000Y-43520000D02*
X108920000Y-46120000D01*
X108920000Y-46120000D02*
X111580000Y-46120000D01*
%TO.C,J5*%
X43080000Y-47580000D02*
X41750000Y-47580000D01*
X43080000Y-46250000D02*
X43080000Y-47580000D01*
X43080000Y-44980000D02*
X40420000Y-44980000D01*
X40420000Y-44980000D02*
X40420000Y-39840000D01*
X43080000Y-44980000D02*
X43080000Y-39840000D01*
X43080000Y-39840000D02*
X40420000Y-39840000D01*
%TO.C,R4*%
X86660000Y-51252064D02*
X86660000Y-50047936D01*
X84840000Y-51252064D02*
X84840000Y-50047936D01*
%TO.C,R5*%
X83491422Y-46960000D02*
X84008578Y-46960000D01*
X83491422Y-45540000D02*
X84008578Y-45540000D01*
%TO.C,R6*%
X82040000Y-36508578D02*
X82040000Y-35991422D01*
X83460000Y-36508578D02*
X83460000Y-35991422D01*
%TO.C,R7*%
X67960000Y-37508578D02*
X67960000Y-36991422D01*
X66540000Y-37508578D02*
X66540000Y-36991422D01*
%TO.C,R8*%
X64960000Y-37508578D02*
X64960000Y-36991422D01*
X63540000Y-37508578D02*
X63540000Y-36991422D01*
%TO.C,R9*%
X65460000Y-43571078D02*
X65460000Y-43053922D01*
X64040000Y-43571078D02*
X64040000Y-43053922D01*
%TO.C,R10*%
X72040000Y-43508578D02*
X72040000Y-42991422D01*
X73460000Y-43508578D02*
X73460000Y-42991422D01*
%TO.C,R11*%
X69540000Y-37446078D02*
X69540000Y-36928922D01*
X70960000Y-37446078D02*
X70960000Y-36928922D01*
%TO.C,R12*%
X73960000Y-36928922D02*
X73960000Y-37446078D01*
X72540000Y-36928922D02*
X72540000Y-37446078D01*
%TO.C,R13*%
X53040000Y-39491422D02*
X53040000Y-40008578D01*
X54460000Y-39491422D02*
X54460000Y-40008578D01*
%TO.C,Ra1*%
X85840000Y-36852064D02*
X85840000Y-35647936D01*
X87660000Y-36852064D02*
X87660000Y-35647936D01*
%TO.C,Rb1*%
X90660000Y-36852064D02*
X90660000Y-35647936D01*
X88840000Y-36852064D02*
X88840000Y-35647936D01*
%TO.C,BME1*%
X42000000Y-106330000D02*
X40670000Y-106330000D01*
X40670000Y-106330000D02*
X40670000Y-105000000D01*
X40670000Y-103730000D02*
X40670000Y-90970000D01*
X43330000Y-90970000D02*
X40670000Y-90970000D01*
X43330000Y-103730000D02*
X43330000Y-90970000D01*
X43330000Y-103730000D02*
X40670000Y-103730000D01*
%TO.C,C1*%
X71640000Y-85097936D02*
X71640000Y-86302064D01*
X73460000Y-85097936D02*
X73460000Y-86302064D01*
%TO.C,C2*%
X64540000Y-86302064D02*
X64540000Y-85097936D01*
X66360000Y-86302064D02*
X66360000Y-85097936D01*
%TO.C,Cdec3*%
X85583750Y-103397936D02*
X85583750Y-104602064D01*
X83763750Y-103397936D02*
X83763750Y-104602064D01*
%TO.C,Cdec4*%
X80492500Y-103397936D02*
X80492500Y-104602064D01*
X82312500Y-103397936D02*
X82312500Y-104602064D01*
%TO.C,Cdec5*%
X68002064Y-106660000D02*
X66797936Y-106660000D01*
X68002064Y-104840000D02*
X66797936Y-104840000D01*
%TO.C,Cdec6*%
X68002064Y-101660353D02*
X66797936Y-101660353D01*
X68002064Y-103480353D02*
X66797936Y-103480353D01*
%TO.C,Cdec7*%
X90423334Y-67902937D02*
X90423334Y-69107065D01*
X92243334Y-67902937D02*
X92243334Y-69107065D01*
%TO.C,Cdec8*%
X88910000Y-67897936D02*
X88910000Y-69102064D01*
X87090000Y-67897936D02*
X87090000Y-69102064D01*
%TO.C,C9*%
X87090000Y-73797936D02*
X87090000Y-75002064D01*
X88910000Y-73797936D02*
X88910000Y-75002064D01*
%TO.C,D2*%
X53700000Y-91200000D02*
X50750000Y-91200000D01*
X51300000Y-94300000D02*
X53700000Y-94300000D01*
D12*
%TO.C,IC2*%
X87177680Y-101610000D02*
G75*
G03*
X87177680Y-101610000I-119680J0D01*
G01*
X88000000Y-107800000D02*
X88000000Y-106920000D01*
X88000000Y-101000000D02*
X88000000Y-101944000D01*
X91200000Y-101000000D02*
X88000000Y-101000000D01*
X91200000Y-107800000D02*
X88000000Y-107800000D01*
X91200000Y-101000000D02*
X91200000Y-107800000D01*
D10*
%TO.C,J6*%
X49330000Y-106410000D02*
X48000000Y-106410000D01*
X49330000Y-105080000D02*
X49330000Y-106410000D01*
X49330000Y-103810000D02*
X46670000Y-103810000D01*
X46670000Y-103810000D02*
X46670000Y-98670000D01*
X49330000Y-103810000D02*
X49330000Y-98670000D01*
X49330000Y-98670000D02*
X46670000Y-98670000D01*
%TO.C,J7*%
X56830000Y-49630000D02*
X56830000Y-52230000D01*
X56830000Y-49630000D02*
X46550000Y-49630000D01*
X46550000Y-49630000D02*
X46550000Y-54830000D01*
X54230000Y-54830000D02*
X46550000Y-54830000D01*
X54230000Y-52230000D02*
X54230000Y-54830000D01*
X56830000Y-52230000D02*
X54230000Y-52230000D01*
X56830000Y-54830000D02*
X55500000Y-54830000D01*
X56830000Y-53500000D02*
X56830000Y-54830000D01*
%TO.C,J8*%
X50980000Y-70000000D02*
X50980000Y-71330000D01*
X50980000Y-71330000D02*
X49650000Y-71330000D01*
X50980000Y-68730000D02*
X48380000Y-68730000D01*
X48380000Y-68730000D02*
X48380000Y-71330000D01*
X48380000Y-71330000D02*
X40700000Y-71330000D01*
X40700000Y-66130000D02*
X40700000Y-71330000D01*
X50980000Y-66130000D02*
X40700000Y-66130000D01*
X50980000Y-66130000D02*
X50980000Y-68730000D01*
%TO.C,J9*%
X47000000Y-87330000D02*
X45670000Y-87330000D01*
X45670000Y-87330000D02*
X45670000Y-86000000D01*
X45670000Y-84730000D02*
X45670000Y-77050000D01*
X48330000Y-77050000D02*
X45670000Y-77050000D01*
X48330000Y-84730000D02*
X48330000Y-77050000D01*
X48330000Y-84730000D02*
X45670000Y-84730000D01*
%TO.C,J10*%
X43330000Y-84730000D02*
X40670000Y-84730000D01*
X43330000Y-84730000D02*
X43330000Y-77050000D01*
X43330000Y-77050000D02*
X40670000Y-77050000D01*
X40670000Y-84730000D02*
X40670000Y-77050000D01*
X40670000Y-87330000D02*
X40670000Y-86000000D01*
X42000000Y-87330000D02*
X40670000Y-87330000D01*
D14*
%TO.C,LED1*%
X82046500Y-66850000D02*
X82346500Y-66850000D01*
X82046500Y-68150000D02*
X82346500Y-68150000D01*
X83186240Y-66160000D02*
G75*
G03*
X83186240Y-66160000I-24740J0D01*
G01*
%TO.C,LED2*%
X75665240Y-66160000D02*
G75*
G03*
X75665240Y-66160000I-24740J0D01*
G01*
X74525500Y-68150000D02*
X74825500Y-68150000D01*
X74525500Y-66850000D02*
X74825500Y-66850000D01*
D15*
%TO.C,LED3*%
X84409000Y-71400000D02*
G75*
G02*
X84509000Y-71400000I50000J0D01*
G01*
X84509000Y-71400000D02*
G75*
G02*
X84409000Y-71400000I-50000J0D01*
G01*
X83559000Y-74150000D02*
X80534000Y-74150000D01*
X83559000Y-70850000D02*
X80534000Y-70850000D01*
X84409000Y-71400000D02*
X84409000Y-71400000D01*
X84509000Y-71400000D02*
X84509000Y-71400000D01*
%TO.C,LED4*%
X76888000Y-71400000D02*
G75*
G02*
X76988000Y-71400000I50000J0D01*
G01*
X76988000Y-71400000D02*
G75*
G02*
X76888000Y-71400000I-50000J0D01*
G01*
X76038000Y-74150000D02*
X73013000Y-74150000D01*
X76038000Y-70850000D02*
X73013000Y-70850000D01*
X76888000Y-71400000D02*
X76888000Y-71400000D01*
X76988000Y-71400000D02*
X76988000Y-71400000D01*
%TO.C,LED5*%
X61342000Y-73600000D02*
X61342000Y-73600000D01*
X61442000Y-73600000D02*
X61442000Y-73600000D01*
X62292000Y-74150000D02*
X65317000Y-74150000D01*
X62292000Y-70850000D02*
X65317000Y-70850000D01*
X61342000Y-73600000D02*
G75*
G02*
X61442000Y-73600000I50000J0D01*
G01*
X61442000Y-73600000D02*
G75*
G02*
X61342000Y-73600000I-50000J0D01*
G01*
%TO.C,LED6*%
X53921000Y-73600000D02*
G75*
G02*
X53821000Y-73600000I-50000J0D01*
G01*
X53821000Y-73600000D02*
G75*
G02*
X53921000Y-73600000I50000J0D01*
G01*
X54771000Y-70850000D02*
X57796000Y-70850000D01*
X54771000Y-74150000D02*
X57796000Y-74150000D01*
X53921000Y-73600000D02*
X53921000Y-73600000D01*
X53821000Y-73600000D02*
X53821000Y-73600000D01*
D14*
%TO.C,LED7*%
X63504500Y-66850000D02*
X63804500Y-66850000D01*
X63504500Y-68150000D02*
X63804500Y-68150000D01*
X64644240Y-66160000D02*
G75*
G03*
X64644240Y-66160000I-24740J0D01*
G01*
%TO.C,LED8*%
X55983500Y-66850000D02*
X56283500Y-66850000D01*
X55983500Y-68150000D02*
X56283500Y-68150000D01*
X57123240Y-66160000D02*
G75*
G03*
X57123240Y-66160000I-24740J0D01*
G01*
D12*
%TO.C,LEDDRV1*%
X71500000Y-82000000D02*
G75*
G03*
X71500000Y-82000000I-100000J0D01*
G01*
D10*
%TO.C,P1*%
X53250000Y-98880000D02*
X54750000Y-98880000D01*
X53250000Y-98880000D02*
X53250000Y-106140000D01*
X62750000Y-98880000D02*
X62750000Y-106140000D01*
X61250000Y-98880000D02*
X62750000Y-98880000D01*
%TO.C,R1*%
X85758578Y-78880000D02*
X85241422Y-78880000D01*
X85758578Y-77460000D02*
X85241422Y-77460000D01*
%TO.C,R2*%
X89491422Y-78880000D02*
X90008578Y-78880000D01*
X89491422Y-77460000D02*
X90008578Y-77460000D01*
%TO.C,R3*%
X70835000Y-86558578D02*
X70835000Y-86041422D01*
X69415000Y-86558578D02*
X69415000Y-86041422D01*
%TO.C,R14*%
X68258578Y-100270711D02*
X67741422Y-100270711D01*
X68258578Y-98850711D02*
X67741422Y-98850711D01*
%TO.C,R15*%
X68258578Y-96011069D02*
X67741422Y-96011069D01*
X68258578Y-97431069D02*
X67741422Y-97431069D01*
%TO.C,R16*%
X68258578Y-94591427D02*
X67741422Y-94591427D01*
X68258578Y-93171427D02*
X67741422Y-93171427D01*
%TO.C,R17*%
X90423333Y-75002064D02*
X90423333Y-73797936D01*
X92243333Y-75002064D02*
X92243333Y-73797936D01*
%TO.C,R18*%
X80602064Y-77090000D02*
X79397936Y-77090000D01*
X80602064Y-78910000D02*
X79397936Y-78910000D01*
%TO.C,SW1*%
X98950000Y-104920000D02*
X98950000Y-104800000D01*
X98950000Y-107070000D02*
X98950000Y-105930000D01*
X98950000Y-108200000D02*
X98950000Y-108080000D01*
X94550000Y-108200000D02*
X98950000Y-108200000D01*
X94550000Y-108080000D02*
X94550000Y-108200000D01*
X94550000Y-105930000D02*
X94550000Y-107070000D01*
X94550000Y-104800000D02*
X94550000Y-104920000D01*
X98950000Y-104800000D02*
X94550000Y-104800000D01*
%TO.C,SW2*%
X94800000Y-73200000D02*
X99200000Y-73200000D01*
X99200000Y-73200000D02*
X99200000Y-73080000D01*
X99200000Y-72070000D02*
X99200000Y-70930000D01*
X99200000Y-69920000D02*
X99200000Y-69800000D01*
X99200000Y-69800000D02*
X94800000Y-69800000D01*
X94800000Y-69800000D02*
X94800000Y-69920000D01*
X94800000Y-70930000D02*
X94800000Y-72070000D01*
X94800000Y-73080000D02*
X94800000Y-73200000D01*
%TO.C,U3*%
X58115000Y-89890000D02*
X57390000Y-89890000D01*
X62610000Y-95110000D02*
X62610000Y-94385000D01*
X61885000Y-95110000D02*
X62610000Y-95110000D01*
X57390000Y-95110000D02*
X57390000Y-94385000D01*
X58115000Y-95110000D02*
X57390000Y-95110000D01*
X62610000Y-89890000D02*
X62610000Y-90615000D01*
X61885000Y-89890000D02*
X62610000Y-89890000D01*
D15*
%TO.C,U4*%
X80950000Y-79880000D02*
X80730000Y-79880000D01*
X80730000Y-79880000D02*
X80730000Y-80900000D01*
X81050000Y-98120000D02*
X80750000Y-98120000D01*
X80730000Y-97000000D02*
X80730000Y-98120000D01*
X100970000Y-79880000D02*
X100970000Y-98120000D01*
X100970000Y-98120000D02*
X94450000Y-98120000D01*
X100970000Y-79880000D02*
X94650000Y-79880000D01*
X94650000Y-79880000D02*
X94650000Y-78000000D01*
%TO.C,U2*%
D16*
X76730380Y-105680923D02*
X76730380Y-106199019D01*
X76760857Y-106259971D01*
X76791333Y-106290447D01*
X76852285Y-106320923D01*
X76974190Y-106320923D01*
X77035142Y-106290447D01*
X77065619Y-106259971D01*
X77096095Y-106199019D01*
X77096095Y-105680923D01*
X77370380Y-105741876D02*
X77400857Y-105711400D01*
X77461809Y-105680923D01*
X77614190Y-105680923D01*
X77675142Y-105711400D01*
X77705619Y-105741876D01*
X77736095Y-105802828D01*
X77736095Y-105863780D01*
X77705619Y-105955209D01*
X77339904Y-106320923D01*
X77736095Y-106320923D01*
%TO.C,C4*%
D17*
X87287142Y-50816666D02*
X87334761Y-50864285D01*
X87382380Y-51007142D01*
X87382380Y-51102380D01*
X87334761Y-51245238D01*
X87239523Y-51340476D01*
X87144285Y-51388095D01*
X86953809Y-51435714D01*
X86810952Y-51435714D01*
X86620476Y-51388095D01*
X86525238Y-51340476D01*
X86430000Y-51245238D01*
X86382380Y-51102380D01*
X86382380Y-51007142D01*
X86430000Y-50864285D01*
X86477619Y-50816666D01*
X86715714Y-49959523D02*
X87382380Y-49959523D01*
X86334761Y-50197619D02*
X87049047Y-50435714D01*
X87049047Y-49816666D01*
%TO.C,C5*%
X90287142Y-50816666D02*
X90334761Y-50864285D01*
X90382380Y-51007142D01*
X90382380Y-51102380D01*
X90334761Y-51245238D01*
X90239523Y-51340476D01*
X90144285Y-51388095D01*
X89953809Y-51435714D01*
X89810952Y-51435714D01*
X89620476Y-51388095D01*
X89525238Y-51340476D01*
X89430000Y-51245238D01*
X89382380Y-51102380D01*
X89382380Y-51007142D01*
X89430000Y-50864285D01*
X89477619Y-50816666D01*
X89382380Y-49911904D02*
X89382380Y-50388095D01*
X89858571Y-50435714D01*
X89810952Y-50388095D01*
X89763333Y-50292857D01*
X89763333Y-50054761D01*
X89810952Y-49959523D01*
X89858571Y-49911904D01*
X89953809Y-49864285D01*
X90191904Y-49864285D01*
X90287142Y-49911904D01*
X90334761Y-49959523D01*
X90382380Y-50054761D01*
X90382380Y-50292857D01*
X90334761Y-50388095D01*
X90287142Y-50435714D01*
%TO.C,C6*%
X65287142Y-49816666D02*
X65334761Y-49864285D01*
X65382380Y-50007142D01*
X65382380Y-50102380D01*
X65334761Y-50245238D01*
X65239523Y-50340476D01*
X65144285Y-50388095D01*
X64953809Y-50435714D01*
X64810952Y-50435714D01*
X64620476Y-50388095D01*
X64525238Y-50340476D01*
X64430000Y-50245238D01*
X64382380Y-50102380D01*
X64382380Y-50007142D01*
X64430000Y-49864285D01*
X64477619Y-49816666D01*
X64382380Y-48959523D02*
X64382380Y-49150000D01*
X64430000Y-49245238D01*
X64477619Y-49292857D01*
X64620476Y-49388095D01*
X64810952Y-49435714D01*
X65191904Y-49435714D01*
X65287142Y-49388095D01*
X65334761Y-49340476D01*
X65382380Y-49245238D01*
X65382380Y-49054761D01*
X65334761Y-48959523D01*
X65287142Y-48911904D01*
X65191904Y-48864285D01*
X64953809Y-48864285D01*
X64858571Y-48911904D01*
X64810952Y-48959523D01*
X64763333Y-49054761D01*
X64763333Y-49245238D01*
X64810952Y-49340476D01*
X64858571Y-49388095D01*
X64953809Y-49435714D01*
%TO.C,C7*%
X69287142Y-49816666D02*
X69334761Y-49864285D01*
X69382380Y-50007142D01*
X69382380Y-50102380D01*
X69334761Y-50245238D01*
X69239523Y-50340476D01*
X69144285Y-50388095D01*
X68953809Y-50435714D01*
X68810952Y-50435714D01*
X68620476Y-50388095D01*
X68525238Y-50340476D01*
X68430000Y-50245238D01*
X68382380Y-50102380D01*
X68382380Y-50007142D01*
X68430000Y-49864285D01*
X68477619Y-49816666D01*
X68382380Y-49483333D02*
X68382380Y-48816666D01*
X69382380Y-49245238D01*
%TO.C,Cdec1*%
X51287142Y-46726190D02*
X51334761Y-46773809D01*
X51382380Y-46916666D01*
X51382380Y-47011904D01*
X51334761Y-47154761D01*
X51239523Y-47250000D01*
X51144285Y-47297619D01*
X50953809Y-47345238D01*
X50810952Y-47345238D01*
X50620476Y-47297619D01*
X50525238Y-47250000D01*
X50430000Y-47154761D01*
X50382380Y-47011904D01*
X50382380Y-46916666D01*
X50430000Y-46773809D01*
X50477619Y-46726190D01*
X51382380Y-45869047D02*
X50382380Y-45869047D01*
X51334761Y-45869047D02*
X51382380Y-45964285D01*
X51382380Y-46154761D01*
X51334761Y-46250000D01*
X51287142Y-46297619D01*
X51191904Y-46345238D01*
X50906190Y-46345238D01*
X50810952Y-46297619D01*
X50763333Y-46250000D01*
X50715714Y-46154761D01*
X50715714Y-45964285D01*
X50763333Y-45869047D01*
X51334761Y-45011904D02*
X51382380Y-45107142D01*
X51382380Y-45297619D01*
X51334761Y-45392857D01*
X51239523Y-45440476D01*
X50858571Y-45440476D01*
X50763333Y-45392857D01*
X50715714Y-45297619D01*
X50715714Y-45107142D01*
X50763333Y-45011904D01*
X50858571Y-44964285D01*
X50953809Y-44964285D01*
X51049047Y-45440476D01*
X51334761Y-44107142D02*
X51382380Y-44202380D01*
X51382380Y-44392857D01*
X51334761Y-44488095D01*
X51287142Y-44535714D01*
X51191904Y-44583333D01*
X50906190Y-44583333D01*
X50810952Y-44535714D01*
X50763333Y-44488095D01*
X50715714Y-44392857D01*
X50715714Y-44202380D01*
X50763333Y-44107142D01*
X51382380Y-43154761D02*
X51382380Y-43726190D01*
X51382380Y-43440476D02*
X50382380Y-43440476D01*
X50525238Y-43535714D01*
X50620476Y-43630952D01*
X50668095Y-43726190D01*
%TO.C,Cdec2*%
X47287142Y-46726190D02*
X47334761Y-46773809D01*
X47382380Y-46916666D01*
X47382380Y-47011904D01*
X47334761Y-47154761D01*
X47239523Y-47250000D01*
X47144285Y-47297619D01*
X46953809Y-47345238D01*
X46810952Y-47345238D01*
X46620476Y-47297619D01*
X46525238Y-47250000D01*
X46430000Y-47154761D01*
X46382380Y-47011904D01*
X46382380Y-46916666D01*
X46430000Y-46773809D01*
X46477619Y-46726190D01*
X47382380Y-45869047D02*
X46382380Y-45869047D01*
X47334761Y-45869047D02*
X47382380Y-45964285D01*
X47382380Y-46154761D01*
X47334761Y-46250000D01*
X47287142Y-46297619D01*
X47191904Y-46345238D01*
X46906190Y-46345238D01*
X46810952Y-46297619D01*
X46763333Y-46250000D01*
X46715714Y-46154761D01*
X46715714Y-45964285D01*
X46763333Y-45869047D01*
X47334761Y-45011904D02*
X47382380Y-45107142D01*
X47382380Y-45297619D01*
X47334761Y-45392857D01*
X47239523Y-45440476D01*
X46858571Y-45440476D01*
X46763333Y-45392857D01*
X46715714Y-45297619D01*
X46715714Y-45107142D01*
X46763333Y-45011904D01*
X46858571Y-44964285D01*
X46953809Y-44964285D01*
X47049047Y-45440476D01*
X47334761Y-44107142D02*
X47382380Y-44202380D01*
X47382380Y-44392857D01*
X47334761Y-44488095D01*
X47287142Y-44535714D01*
X47191904Y-44583333D01*
X46906190Y-44583333D01*
X46810952Y-44535714D01*
X46763333Y-44488095D01*
X46715714Y-44392857D01*
X46715714Y-44202380D01*
X46763333Y-44107142D01*
X46477619Y-43726190D02*
X46430000Y-43678571D01*
X46382380Y-43583333D01*
X46382380Y-43345238D01*
X46430000Y-43250000D01*
X46477619Y-43202380D01*
X46572857Y-43154761D01*
X46668095Y-43154761D01*
X46810952Y-43202380D01*
X47382380Y-43773809D01*
X47382380Y-43154761D01*
%TO.C,Cref1*%
X91287142Y-37440476D02*
X91334761Y-37488095D01*
X91382380Y-37630952D01*
X91382380Y-37726190D01*
X91334761Y-37869047D01*
X91239523Y-37964285D01*
X91144285Y-38011904D01*
X90953809Y-38059523D01*
X90810952Y-38059523D01*
X90620476Y-38011904D01*
X90525238Y-37964285D01*
X90430000Y-37869047D01*
X90382380Y-37726190D01*
X90382380Y-37630952D01*
X90430000Y-37488095D01*
X90477619Y-37440476D01*
X91382380Y-37011904D02*
X90715714Y-37011904D01*
X90906190Y-37011904D02*
X90810952Y-36964285D01*
X90763333Y-36916666D01*
X90715714Y-36821428D01*
X90715714Y-36726190D01*
X91334761Y-36011904D02*
X91382380Y-36107142D01*
X91382380Y-36297619D01*
X91334761Y-36392857D01*
X91239523Y-36440476D01*
X90858571Y-36440476D01*
X90763333Y-36392857D01*
X90715714Y-36297619D01*
X90715714Y-36107142D01*
X90763333Y-36011904D01*
X90858571Y-35964285D01*
X90953809Y-35964285D01*
X91049047Y-36440476D01*
X90715714Y-35678571D02*
X90715714Y-35297619D01*
X91382380Y-35535714D02*
X90525238Y-35535714D01*
X90430000Y-35488095D01*
X90382380Y-35392857D01*
X90382380Y-35297619D01*
X91382380Y-34440476D02*
X91382380Y-35011904D01*
X91382380Y-34726190D02*
X90382380Y-34726190D01*
X90525238Y-34821428D01*
X90620476Y-34916666D01*
X90668095Y-35011904D01*
%TO.C,D1*%
X93702380Y-43888095D02*
X92702380Y-43888095D01*
X92702380Y-43650000D01*
X92750000Y-43507142D01*
X92845238Y-43411904D01*
X92940476Y-43364285D01*
X93130952Y-43316666D01*
X93273809Y-43316666D01*
X93464285Y-43364285D01*
X93559523Y-43411904D01*
X93654761Y-43507142D01*
X93702380Y-43650000D01*
X93702380Y-43888095D01*
X93702380Y-42364285D02*
X93702380Y-42935714D01*
X93702380Y-42650000D02*
X92702380Y-42650000D01*
X92845238Y-42745238D01*
X92940476Y-42840476D01*
X92988095Y-42935714D01*
%TO.C,IC3*%
D14*
X90324523Y-44489761D02*
X89054523Y-44489761D01*
X90203571Y-43159285D02*
X90264047Y-43219761D01*
X90324523Y-43401190D01*
X90324523Y-43522142D01*
X90264047Y-43703571D01*
X90143095Y-43824523D01*
X90022142Y-43885000D01*
X89780238Y-43945476D01*
X89598809Y-43945476D01*
X89356904Y-43885000D01*
X89235952Y-43824523D01*
X89115000Y-43703571D01*
X89054523Y-43522142D01*
X89054523Y-43401190D01*
X89115000Y-43219761D01*
X89175476Y-43159285D01*
X89054523Y-42735952D02*
X89054523Y-41949761D01*
X89538333Y-42373095D01*
X89538333Y-42191666D01*
X89598809Y-42070714D01*
X89659285Y-42010238D01*
X89780238Y-41949761D01*
X90082619Y-41949761D01*
X90203571Y-42010238D01*
X90264047Y-42070714D01*
X90324523Y-42191666D01*
X90324523Y-42554523D01*
X90264047Y-42675476D01*
X90203571Y-42735952D01*
%TO.C,IC4*%
X84324523Y-43489761D02*
X83054523Y-43489761D01*
X84203571Y-42159285D02*
X84264047Y-42219761D01*
X84324523Y-42401190D01*
X84324523Y-42522142D01*
X84264047Y-42703571D01*
X84143095Y-42824523D01*
X84022142Y-42885000D01*
X83780238Y-42945476D01*
X83598809Y-42945476D01*
X83356904Y-42885000D01*
X83235952Y-42824523D01*
X83115000Y-42703571D01*
X83054523Y-42522142D01*
X83054523Y-42401190D01*
X83115000Y-42219761D01*
X83175476Y-42159285D01*
X83477857Y-41070714D02*
X84324523Y-41070714D01*
X82994047Y-41373095D02*
X83901190Y-41675476D01*
X83901190Y-40889285D01*
%TO.C,IC5*%
X69324523Y-44489761D02*
X68054523Y-44489761D01*
X69203571Y-43159285D02*
X69264047Y-43219761D01*
X69324523Y-43401190D01*
X69324523Y-43522142D01*
X69264047Y-43703571D01*
X69143095Y-43824523D01*
X69022142Y-43885000D01*
X68780238Y-43945476D01*
X68598809Y-43945476D01*
X68356904Y-43885000D01*
X68235952Y-43824523D01*
X68115000Y-43703571D01*
X68054523Y-43522142D01*
X68054523Y-43401190D01*
X68115000Y-43219761D01*
X68175476Y-43159285D01*
X68054523Y-42010238D02*
X68054523Y-42615000D01*
X68659285Y-42675476D01*
X68598809Y-42615000D01*
X68538333Y-42494047D01*
X68538333Y-42191666D01*
X68598809Y-42070714D01*
X68659285Y-42010238D01*
X68780238Y-41949761D01*
X69082619Y-41949761D01*
X69203571Y-42010238D01*
X69264047Y-42070714D01*
X69324523Y-42191666D01*
X69324523Y-42494047D01*
X69264047Y-42615000D01*
X69203571Y-42675476D01*
%TO.C,IC6*%
X47510238Y-42864523D02*
X47510238Y-41594523D01*
X48840714Y-42743571D02*
X48780238Y-42804047D01*
X48598809Y-42864523D01*
X48477857Y-42864523D01*
X48296428Y-42804047D01*
X48175476Y-42683095D01*
X48115000Y-42562142D01*
X48054523Y-42320238D01*
X48054523Y-42138809D01*
X48115000Y-41896904D01*
X48175476Y-41775952D01*
X48296428Y-41655000D01*
X48477857Y-41594523D01*
X48598809Y-41594523D01*
X48780238Y-41655000D01*
X48840714Y-41715476D01*
X49929285Y-41594523D02*
X49687380Y-41594523D01*
X49566428Y-41655000D01*
X49505952Y-41715476D01*
X49385000Y-41896904D01*
X49324523Y-42138809D01*
X49324523Y-42622619D01*
X49385000Y-42743571D01*
X49445476Y-42804047D01*
X49566428Y-42864523D01*
X49808333Y-42864523D01*
X49929285Y-42804047D01*
X49989761Y-42743571D01*
X50050238Y-42622619D01*
X50050238Y-42320238D01*
X49989761Y-42199285D01*
X49929285Y-42138809D01*
X49808333Y-42078333D01*
X49566428Y-42078333D01*
X49445476Y-42138809D01*
X49385000Y-42199285D01*
X49324523Y-42320238D01*
%TO.C,J1*%
D17*
X77416666Y-50032380D02*
X77416666Y-50746666D01*
X77369047Y-50889523D01*
X77273809Y-50984761D01*
X77130952Y-51032380D01*
X77035714Y-51032380D01*
X78416666Y-51032380D02*
X77845238Y-51032380D01*
X78130952Y-51032380D02*
X78130952Y-50032380D01*
X78035714Y-50175238D01*
X77940476Y-50270476D01*
X77845238Y-50318095D01*
%TO.C,J2*%
X59416666Y-49032380D02*
X59416666Y-49746666D01*
X59369047Y-49889523D01*
X59273809Y-49984761D01*
X59130952Y-50032380D01*
X59035714Y-50032380D01*
X59845238Y-49127619D02*
X59892857Y-49080000D01*
X59988095Y-49032380D01*
X60226190Y-49032380D01*
X60321428Y-49080000D01*
X60369047Y-49127619D01*
X60416666Y-49222857D01*
X60416666Y-49318095D01*
X60369047Y-49460952D01*
X59797619Y-50032380D01*
X60416666Y-50032380D01*
%TO.C,J3*%
X102686666Y-31872380D02*
X102686666Y-32586666D01*
X102639047Y-32729523D01*
X102543809Y-32824761D01*
X102400952Y-32872380D01*
X102305714Y-32872380D01*
X103067619Y-31872380D02*
X103686666Y-31872380D01*
X103353333Y-32253333D01*
X103496190Y-32253333D01*
X103591428Y-32300952D01*
X103639047Y-32348571D01*
X103686666Y-32443809D01*
X103686666Y-32681904D01*
X103639047Y-32777142D01*
X103591428Y-32824761D01*
X103496190Y-32872380D01*
X103210476Y-32872380D01*
X103115238Y-32824761D01*
X103067619Y-32777142D01*
%TO.C,J4*%
X109916666Y-39372380D02*
X109916666Y-40086666D01*
X109869047Y-40229523D01*
X109773809Y-40324761D01*
X109630952Y-40372380D01*
X109535714Y-40372380D01*
X110821428Y-39705714D02*
X110821428Y-40372380D01*
X110583333Y-39324761D02*
X110345238Y-40039047D01*
X110964285Y-40039047D01*
%TO.C,J5*%
X41416666Y-48032380D02*
X41416666Y-48746666D01*
X41369047Y-48889523D01*
X41273809Y-48984761D01*
X41130952Y-49032380D01*
X41035714Y-49032380D01*
X42369047Y-48032380D02*
X41892857Y-48032380D01*
X41845238Y-48508571D01*
X41892857Y-48460952D01*
X41988095Y-48413333D01*
X42226190Y-48413333D01*
X42321428Y-48460952D01*
X42369047Y-48508571D01*
X42416666Y-48603809D01*
X42416666Y-48841904D01*
X42369047Y-48937142D01*
X42321428Y-48984761D01*
X42226190Y-49032380D01*
X41988095Y-49032380D01*
X41892857Y-48984761D01*
X41845238Y-48937142D01*
%TO.C,R4*%
X84382380Y-50816666D02*
X83906190Y-51150000D01*
X84382380Y-51388095D02*
X83382380Y-51388095D01*
X83382380Y-51007142D01*
X83430000Y-50911904D01*
X83477619Y-50864285D01*
X83572857Y-50816666D01*
X83715714Y-50816666D01*
X83810952Y-50864285D01*
X83858571Y-50911904D01*
X83906190Y-51007142D01*
X83906190Y-51388095D01*
X83715714Y-49959523D02*
X84382380Y-49959523D01*
X83334761Y-50197619D02*
X84049047Y-50435714D01*
X84049047Y-49816666D01*
%TO.C,R5*%
X83583333Y-45052380D02*
X83250000Y-44576190D01*
X83011904Y-45052380D02*
X83011904Y-44052380D01*
X83392857Y-44052380D01*
X83488095Y-44100000D01*
X83535714Y-44147619D01*
X83583333Y-44242857D01*
X83583333Y-44385714D01*
X83535714Y-44480952D01*
X83488095Y-44528571D01*
X83392857Y-44576190D01*
X83011904Y-44576190D01*
X84488095Y-44052380D02*
X84011904Y-44052380D01*
X83964285Y-44528571D01*
X84011904Y-44480952D01*
X84107142Y-44433333D01*
X84345238Y-44433333D01*
X84440476Y-44480952D01*
X84488095Y-44528571D01*
X84535714Y-44623809D01*
X84535714Y-44861904D01*
X84488095Y-44957142D01*
X84440476Y-45004761D01*
X84345238Y-45052380D01*
X84107142Y-45052380D01*
X84011904Y-45004761D01*
X83964285Y-44957142D01*
%TO.C,R6*%
X81552380Y-36416666D02*
X81076190Y-36750000D01*
X81552380Y-36988095D02*
X80552380Y-36988095D01*
X80552380Y-36607142D01*
X80600000Y-36511904D01*
X80647619Y-36464285D01*
X80742857Y-36416666D01*
X80885714Y-36416666D01*
X80980952Y-36464285D01*
X81028571Y-36511904D01*
X81076190Y-36607142D01*
X81076190Y-36988095D01*
X80552380Y-35559523D02*
X80552380Y-35750000D01*
X80600000Y-35845238D01*
X80647619Y-35892857D01*
X80790476Y-35988095D01*
X80980952Y-36035714D01*
X81361904Y-36035714D01*
X81457142Y-35988095D01*
X81504761Y-35940476D01*
X81552380Y-35845238D01*
X81552380Y-35654761D01*
X81504761Y-35559523D01*
X81457142Y-35511904D01*
X81361904Y-35464285D01*
X81123809Y-35464285D01*
X81028571Y-35511904D01*
X80980952Y-35559523D01*
X80933333Y-35654761D01*
X80933333Y-35845238D01*
X80980952Y-35940476D01*
X81028571Y-35988095D01*
X81123809Y-36035714D01*
%TO.C,R7*%
X66202380Y-37416666D02*
X65726190Y-37750000D01*
X66202380Y-37988095D02*
X65202380Y-37988095D01*
X65202380Y-37607142D01*
X65250000Y-37511904D01*
X65297619Y-37464285D01*
X65392857Y-37416666D01*
X65535714Y-37416666D01*
X65630952Y-37464285D01*
X65678571Y-37511904D01*
X65726190Y-37607142D01*
X65726190Y-37988095D01*
X65202380Y-37083333D02*
X65202380Y-36416666D01*
X66202380Y-36845238D01*
%TO.C,R8*%
X63202380Y-37416666D02*
X62726190Y-37750000D01*
X63202380Y-37988095D02*
X62202380Y-37988095D01*
X62202380Y-37607142D01*
X62250000Y-37511904D01*
X62297619Y-37464285D01*
X62392857Y-37416666D01*
X62535714Y-37416666D01*
X62630952Y-37464285D01*
X62678571Y-37511904D01*
X62726190Y-37607142D01*
X62726190Y-37988095D01*
X62630952Y-36845238D02*
X62583333Y-36940476D01*
X62535714Y-36988095D01*
X62440476Y-37035714D01*
X62392857Y-37035714D01*
X62297619Y-36988095D01*
X62250000Y-36940476D01*
X62202380Y-36845238D01*
X62202380Y-36654761D01*
X62250000Y-36559523D01*
X62297619Y-36511904D01*
X62392857Y-36464285D01*
X62440476Y-36464285D01*
X62535714Y-36511904D01*
X62583333Y-36559523D01*
X62630952Y-36654761D01*
X62630952Y-36845238D01*
X62678571Y-36940476D01*
X62726190Y-36988095D01*
X62821428Y-37035714D01*
X63011904Y-37035714D01*
X63107142Y-36988095D01*
X63154761Y-36940476D01*
X63202380Y-36845238D01*
X63202380Y-36654761D01*
X63154761Y-36559523D01*
X63107142Y-36511904D01*
X63011904Y-36464285D01*
X62821428Y-36464285D01*
X62726190Y-36511904D01*
X62678571Y-36559523D01*
X62630952Y-36654761D01*
%TO.C,R9*%
X63452380Y-43479166D02*
X62976190Y-43812500D01*
X63452380Y-44050595D02*
X62452380Y-44050595D01*
X62452380Y-43669642D01*
X62500000Y-43574404D01*
X62547619Y-43526785D01*
X62642857Y-43479166D01*
X62785714Y-43479166D01*
X62880952Y-43526785D01*
X62928571Y-43574404D01*
X62976190Y-43669642D01*
X62976190Y-44050595D01*
X63452380Y-43002976D02*
X63452380Y-42812500D01*
X63404761Y-42717261D01*
X63357142Y-42669642D01*
X63214285Y-42574404D01*
X63023809Y-42526785D01*
X62642857Y-42526785D01*
X62547619Y-42574404D01*
X62500000Y-42622023D01*
X62452380Y-42717261D01*
X62452380Y-42907738D01*
X62500000Y-43002976D01*
X62547619Y-43050595D01*
X62642857Y-43098214D01*
X62880952Y-43098214D01*
X62976190Y-43050595D01*
X63023809Y-43002976D01*
X63071428Y-42907738D01*
X63071428Y-42717261D01*
X63023809Y-42622023D01*
X62976190Y-42574404D01*
X62880952Y-42526785D01*
%TO.C,R10*%
X71702380Y-43892857D02*
X71226190Y-44226190D01*
X71702380Y-44464285D02*
X70702380Y-44464285D01*
X70702380Y-44083333D01*
X70750000Y-43988095D01*
X70797619Y-43940476D01*
X70892857Y-43892857D01*
X71035714Y-43892857D01*
X71130952Y-43940476D01*
X71178571Y-43988095D01*
X71226190Y-44083333D01*
X71226190Y-44464285D01*
X71702380Y-42940476D02*
X71702380Y-43511904D01*
X71702380Y-43226190D02*
X70702380Y-43226190D01*
X70845238Y-43321428D01*
X70940476Y-43416666D01*
X70988095Y-43511904D01*
X70702380Y-42321428D02*
X70702380Y-42226190D01*
X70750000Y-42130952D01*
X70797619Y-42083333D01*
X70892857Y-42035714D01*
X71083333Y-41988095D01*
X71321428Y-41988095D01*
X71511904Y-42035714D01*
X71607142Y-42083333D01*
X71654761Y-42130952D01*
X71702380Y-42226190D01*
X71702380Y-42321428D01*
X71654761Y-42416666D01*
X71607142Y-42464285D01*
X71511904Y-42511904D01*
X71321428Y-42559523D01*
X71083333Y-42559523D01*
X70892857Y-42511904D01*
X70797619Y-42464285D01*
X70750000Y-42416666D01*
X70702380Y-42321428D01*
%TO.C,R11*%
X69202380Y-37892857D02*
X68726190Y-38226190D01*
X69202380Y-38464285D02*
X68202380Y-38464285D01*
X68202380Y-38083333D01*
X68250000Y-37988095D01*
X68297619Y-37940476D01*
X68392857Y-37892857D01*
X68535714Y-37892857D01*
X68630952Y-37940476D01*
X68678571Y-37988095D01*
X68726190Y-38083333D01*
X68726190Y-38464285D01*
X69202380Y-36940476D02*
X69202380Y-37511904D01*
X69202380Y-37226190D02*
X68202380Y-37226190D01*
X68345238Y-37321428D01*
X68440476Y-37416666D01*
X68488095Y-37511904D01*
X69202380Y-35988095D02*
X69202380Y-36559523D01*
X69202380Y-36273809D02*
X68202380Y-36273809D01*
X68345238Y-36369047D01*
X68440476Y-36464285D01*
X68488095Y-36559523D01*
%TO.C,R12*%
X72202380Y-37892857D02*
X71726190Y-38226190D01*
X72202380Y-38464285D02*
X71202380Y-38464285D01*
X71202380Y-38083333D01*
X71250000Y-37988095D01*
X71297619Y-37940476D01*
X71392857Y-37892857D01*
X71535714Y-37892857D01*
X71630952Y-37940476D01*
X71678571Y-37988095D01*
X71726190Y-38083333D01*
X71726190Y-38464285D01*
X72202380Y-36940476D02*
X72202380Y-37511904D01*
X72202380Y-37226190D02*
X71202380Y-37226190D01*
X71345238Y-37321428D01*
X71440476Y-37416666D01*
X71488095Y-37511904D01*
X71297619Y-36559523D02*
X71250000Y-36511904D01*
X71202380Y-36416666D01*
X71202380Y-36178571D01*
X71250000Y-36083333D01*
X71297619Y-36035714D01*
X71392857Y-35988095D01*
X71488095Y-35988095D01*
X71630952Y-36035714D01*
X72202380Y-36607142D01*
X72202380Y-35988095D01*
%TO.C,R13*%
X55852380Y-40392857D02*
X55376190Y-40726190D01*
X55852380Y-40964285D02*
X54852380Y-40964285D01*
X54852380Y-40583333D01*
X54900000Y-40488095D01*
X54947619Y-40440476D01*
X55042857Y-40392857D01*
X55185714Y-40392857D01*
X55280952Y-40440476D01*
X55328571Y-40488095D01*
X55376190Y-40583333D01*
X55376190Y-40964285D01*
X55852380Y-39440476D02*
X55852380Y-40011904D01*
X55852380Y-39726190D02*
X54852380Y-39726190D01*
X54995238Y-39821428D01*
X55090476Y-39916666D01*
X55138095Y-40011904D01*
X54852380Y-39107142D02*
X54852380Y-38488095D01*
X55233333Y-38821428D01*
X55233333Y-38678571D01*
X55280952Y-38583333D01*
X55328571Y-38535714D01*
X55423809Y-38488095D01*
X55661904Y-38488095D01*
X55757142Y-38535714D01*
X55804761Y-38583333D01*
X55852380Y-38678571D01*
X55852380Y-38964285D01*
X55804761Y-39059523D01*
X55757142Y-39107142D01*
%TO.C,Ra1*%
X85382380Y-36869047D02*
X84906190Y-37202380D01*
X85382380Y-37440476D02*
X84382380Y-37440476D01*
X84382380Y-37059523D01*
X84430000Y-36964285D01*
X84477619Y-36916666D01*
X84572857Y-36869047D01*
X84715714Y-36869047D01*
X84810952Y-36916666D01*
X84858571Y-36964285D01*
X84906190Y-37059523D01*
X84906190Y-37440476D01*
X85382380Y-36011904D02*
X84858571Y-36011904D01*
X84763333Y-36059523D01*
X84715714Y-36154761D01*
X84715714Y-36345238D01*
X84763333Y-36440476D01*
X85334761Y-36011904D02*
X85382380Y-36107142D01*
X85382380Y-36345238D01*
X85334761Y-36440476D01*
X85239523Y-36488095D01*
X85144285Y-36488095D01*
X85049047Y-36440476D01*
X85001428Y-36345238D01*
X85001428Y-36107142D01*
X84953809Y-36011904D01*
X85382380Y-35011904D02*
X85382380Y-35583333D01*
X85382380Y-35297619D02*
X84382380Y-35297619D01*
X84525238Y-35392857D01*
X84620476Y-35488095D01*
X84668095Y-35583333D01*
%TO.C,Rb1*%
X88382380Y-36869047D02*
X87906190Y-37202380D01*
X88382380Y-37440476D02*
X87382380Y-37440476D01*
X87382380Y-37059523D01*
X87430000Y-36964285D01*
X87477619Y-36916666D01*
X87572857Y-36869047D01*
X87715714Y-36869047D01*
X87810952Y-36916666D01*
X87858571Y-36964285D01*
X87906190Y-37059523D01*
X87906190Y-37440476D01*
X88382380Y-36440476D02*
X87382380Y-36440476D01*
X87763333Y-36440476D02*
X87715714Y-36345238D01*
X87715714Y-36154761D01*
X87763333Y-36059523D01*
X87810952Y-36011904D01*
X87906190Y-35964285D01*
X88191904Y-35964285D01*
X88287142Y-36011904D01*
X88334761Y-36059523D01*
X88382380Y-36154761D01*
X88382380Y-36345238D01*
X88334761Y-36440476D01*
X88382380Y-35011904D02*
X88382380Y-35583333D01*
X88382380Y-35297619D02*
X87382380Y-35297619D01*
X87525238Y-35392857D01*
X87620476Y-35488095D01*
X87668095Y-35583333D01*
%TO.C,BME1*%
X40571428Y-107698571D02*
X40714285Y-107746190D01*
X40761904Y-107793809D01*
X40809523Y-107889047D01*
X40809523Y-108031904D01*
X40761904Y-108127142D01*
X40714285Y-108174761D01*
X40619047Y-108222380D01*
X40238095Y-108222380D01*
X40238095Y-107222380D01*
X40571428Y-107222380D01*
X40666666Y-107270000D01*
X40714285Y-107317619D01*
X40761904Y-107412857D01*
X40761904Y-107508095D01*
X40714285Y-107603333D01*
X40666666Y-107650952D01*
X40571428Y-107698571D01*
X40238095Y-107698571D01*
X41238095Y-108222380D02*
X41238095Y-107222380D01*
X41571428Y-107936666D01*
X41904761Y-107222380D01*
X41904761Y-108222380D01*
X42380952Y-107698571D02*
X42714285Y-107698571D01*
X42857142Y-108222380D02*
X42380952Y-108222380D01*
X42380952Y-107222380D01*
X42857142Y-107222380D01*
X43809523Y-108222380D02*
X43238095Y-108222380D01*
X43523809Y-108222380D02*
X43523809Y-107222380D01*
X43428571Y-107365238D01*
X43333333Y-107460476D01*
X43238095Y-107508095D01*
%TO.C,C1*%
X74727142Y-85866666D02*
X74774761Y-85914285D01*
X74822380Y-86057142D01*
X74822380Y-86152380D01*
X74774761Y-86295238D01*
X74679523Y-86390476D01*
X74584285Y-86438095D01*
X74393809Y-86485714D01*
X74250952Y-86485714D01*
X74060476Y-86438095D01*
X73965238Y-86390476D01*
X73870000Y-86295238D01*
X73822380Y-86152380D01*
X73822380Y-86057142D01*
X73870000Y-85914285D01*
X73917619Y-85866666D01*
X74822380Y-84914285D02*
X74822380Y-85485714D01*
X74822380Y-85200000D02*
X73822380Y-85200000D01*
X73965238Y-85295238D01*
X74060476Y-85390476D01*
X74108095Y-85485714D01*
%TO.C,C2*%
X63987142Y-85866666D02*
X64034761Y-85914285D01*
X64082380Y-86057142D01*
X64082380Y-86152380D01*
X64034761Y-86295238D01*
X63939523Y-86390476D01*
X63844285Y-86438095D01*
X63653809Y-86485714D01*
X63510952Y-86485714D01*
X63320476Y-86438095D01*
X63225238Y-86390476D01*
X63130000Y-86295238D01*
X63082380Y-86152380D01*
X63082380Y-86057142D01*
X63130000Y-85914285D01*
X63177619Y-85866666D01*
X63177619Y-85485714D02*
X63130000Y-85438095D01*
X63082380Y-85342857D01*
X63082380Y-85104761D01*
X63130000Y-85009523D01*
X63177619Y-84961904D01*
X63272857Y-84914285D01*
X63368095Y-84914285D01*
X63510952Y-84961904D01*
X64082380Y-85533333D01*
X64082380Y-84914285D01*
%TO.C,Cdec3*%
X86850892Y-105476190D02*
X86898511Y-105523809D01*
X86946130Y-105666666D01*
X86946130Y-105761904D01*
X86898511Y-105904761D01*
X86803273Y-106000000D01*
X86708035Y-106047619D01*
X86517559Y-106095238D01*
X86374702Y-106095238D01*
X86184226Y-106047619D01*
X86088988Y-106000000D01*
X85993750Y-105904761D01*
X85946130Y-105761904D01*
X85946130Y-105666666D01*
X85993750Y-105523809D01*
X86041369Y-105476190D01*
X86946130Y-104619047D02*
X85946130Y-104619047D01*
X86898511Y-104619047D02*
X86946130Y-104714285D01*
X86946130Y-104904761D01*
X86898511Y-105000000D01*
X86850892Y-105047619D01*
X86755654Y-105095238D01*
X86469940Y-105095238D01*
X86374702Y-105047619D01*
X86327083Y-105000000D01*
X86279464Y-104904761D01*
X86279464Y-104714285D01*
X86327083Y-104619047D01*
X86898511Y-103761904D02*
X86946130Y-103857142D01*
X86946130Y-104047619D01*
X86898511Y-104142857D01*
X86803273Y-104190476D01*
X86422321Y-104190476D01*
X86327083Y-104142857D01*
X86279464Y-104047619D01*
X86279464Y-103857142D01*
X86327083Y-103761904D01*
X86422321Y-103714285D01*
X86517559Y-103714285D01*
X86612797Y-104190476D01*
X86898511Y-102857142D02*
X86946130Y-102952380D01*
X86946130Y-103142857D01*
X86898511Y-103238095D01*
X86850892Y-103285714D01*
X86755654Y-103333333D01*
X86469940Y-103333333D01*
X86374702Y-103285714D01*
X86327083Y-103238095D01*
X86279464Y-103142857D01*
X86279464Y-102952380D01*
X86327083Y-102857142D01*
X85946130Y-102523809D02*
X85946130Y-101904761D01*
X86327083Y-102238095D01*
X86327083Y-102095238D01*
X86374702Y-102000000D01*
X86422321Y-101952380D01*
X86517559Y-101904761D01*
X86755654Y-101904761D01*
X86850892Y-101952380D01*
X86898511Y-102000000D01*
X86946130Y-102095238D01*
X86946130Y-102380952D01*
X86898511Y-102476190D01*
X86850892Y-102523809D01*
%TO.C,Cdec4*%
X83579642Y-105476190D02*
X83627261Y-105523809D01*
X83674880Y-105666666D01*
X83674880Y-105761904D01*
X83627261Y-105904761D01*
X83532023Y-106000000D01*
X83436785Y-106047619D01*
X83246309Y-106095238D01*
X83103452Y-106095238D01*
X82912976Y-106047619D01*
X82817738Y-106000000D01*
X82722500Y-105904761D01*
X82674880Y-105761904D01*
X82674880Y-105666666D01*
X82722500Y-105523809D01*
X82770119Y-105476190D01*
X83674880Y-104619047D02*
X82674880Y-104619047D01*
X83627261Y-104619047D02*
X83674880Y-104714285D01*
X83674880Y-104904761D01*
X83627261Y-105000000D01*
X83579642Y-105047619D01*
X83484404Y-105095238D01*
X83198690Y-105095238D01*
X83103452Y-105047619D01*
X83055833Y-105000000D01*
X83008214Y-104904761D01*
X83008214Y-104714285D01*
X83055833Y-104619047D01*
X83627261Y-103761904D02*
X83674880Y-103857142D01*
X83674880Y-104047619D01*
X83627261Y-104142857D01*
X83532023Y-104190476D01*
X83151071Y-104190476D01*
X83055833Y-104142857D01*
X83008214Y-104047619D01*
X83008214Y-103857142D01*
X83055833Y-103761904D01*
X83151071Y-103714285D01*
X83246309Y-103714285D01*
X83341547Y-104190476D01*
X83627261Y-102857142D02*
X83674880Y-102952380D01*
X83674880Y-103142857D01*
X83627261Y-103238095D01*
X83579642Y-103285714D01*
X83484404Y-103333333D01*
X83198690Y-103333333D01*
X83103452Y-103285714D01*
X83055833Y-103238095D01*
X83008214Y-103142857D01*
X83008214Y-102952380D01*
X83055833Y-102857142D01*
X83008214Y-102000000D02*
X83674880Y-102000000D01*
X82627261Y-102238095D02*
X83341547Y-102476190D01*
X83341547Y-101857142D01*
%TO.C,Cdec5*%
X65923809Y-107927142D02*
X65876190Y-107974761D01*
X65733333Y-108022380D01*
X65638095Y-108022380D01*
X65495238Y-107974761D01*
X65400000Y-107879523D01*
X65352380Y-107784285D01*
X65304761Y-107593809D01*
X65304761Y-107450952D01*
X65352380Y-107260476D01*
X65400000Y-107165238D01*
X65495238Y-107070000D01*
X65638095Y-107022380D01*
X65733333Y-107022380D01*
X65876190Y-107070000D01*
X65923809Y-107117619D01*
X66780952Y-108022380D02*
X66780952Y-107022380D01*
X66780952Y-107974761D02*
X66685714Y-108022380D01*
X66495238Y-108022380D01*
X66400000Y-107974761D01*
X66352380Y-107927142D01*
X66304761Y-107831904D01*
X66304761Y-107546190D01*
X66352380Y-107450952D01*
X66400000Y-107403333D01*
X66495238Y-107355714D01*
X66685714Y-107355714D01*
X66780952Y-107403333D01*
X67638095Y-107974761D02*
X67542857Y-108022380D01*
X67352380Y-108022380D01*
X67257142Y-107974761D01*
X67209523Y-107879523D01*
X67209523Y-107498571D01*
X67257142Y-107403333D01*
X67352380Y-107355714D01*
X67542857Y-107355714D01*
X67638095Y-107403333D01*
X67685714Y-107498571D01*
X67685714Y-107593809D01*
X67209523Y-107689047D01*
X68542857Y-107974761D02*
X68447619Y-108022380D01*
X68257142Y-108022380D01*
X68161904Y-107974761D01*
X68114285Y-107927142D01*
X68066666Y-107831904D01*
X68066666Y-107546190D01*
X68114285Y-107450952D01*
X68161904Y-107403333D01*
X68257142Y-107355714D01*
X68447619Y-107355714D01*
X68542857Y-107403333D01*
X69447619Y-107022380D02*
X68971428Y-107022380D01*
X68923809Y-107498571D01*
X68971428Y-107450952D01*
X69066666Y-107403333D01*
X69304761Y-107403333D01*
X69400000Y-107450952D01*
X69447619Y-107498571D01*
X69495238Y-107593809D01*
X69495238Y-107831904D01*
X69447619Y-107927142D01*
X69400000Y-107974761D01*
X69304761Y-108022380D01*
X69066666Y-108022380D01*
X68971428Y-107974761D01*
X68923809Y-107927142D01*
%TO.C,Cdec6*%
X65923809Y-104747495D02*
X65876190Y-104795114D01*
X65733333Y-104842733D01*
X65638095Y-104842733D01*
X65495238Y-104795114D01*
X65400000Y-104699876D01*
X65352380Y-104604638D01*
X65304761Y-104414162D01*
X65304761Y-104271305D01*
X65352380Y-104080829D01*
X65400000Y-103985591D01*
X65495238Y-103890353D01*
X65638095Y-103842733D01*
X65733333Y-103842733D01*
X65876190Y-103890353D01*
X65923809Y-103937972D01*
X66780952Y-104842733D02*
X66780952Y-103842733D01*
X66780952Y-104795114D02*
X66685714Y-104842733D01*
X66495238Y-104842733D01*
X66400000Y-104795114D01*
X66352380Y-104747495D01*
X66304761Y-104652257D01*
X66304761Y-104366543D01*
X66352380Y-104271305D01*
X66400000Y-104223686D01*
X66495238Y-104176067D01*
X66685714Y-104176067D01*
X66780952Y-104223686D01*
X67638095Y-104795114D02*
X67542857Y-104842733D01*
X67352380Y-104842733D01*
X67257142Y-104795114D01*
X67209523Y-104699876D01*
X67209523Y-104318924D01*
X67257142Y-104223686D01*
X67352380Y-104176067D01*
X67542857Y-104176067D01*
X67638095Y-104223686D01*
X67685714Y-104318924D01*
X67685714Y-104414162D01*
X67209523Y-104509400D01*
X68542857Y-104795114D02*
X68447619Y-104842733D01*
X68257142Y-104842733D01*
X68161904Y-104795114D01*
X68114285Y-104747495D01*
X68066666Y-104652257D01*
X68066666Y-104366543D01*
X68114285Y-104271305D01*
X68161904Y-104223686D01*
X68257142Y-104176067D01*
X68447619Y-104176067D01*
X68542857Y-104223686D01*
X69400000Y-103842733D02*
X69209523Y-103842733D01*
X69114285Y-103890353D01*
X69066666Y-103937972D01*
X68971428Y-104080829D01*
X68923809Y-104271305D01*
X68923809Y-104652257D01*
X68971428Y-104747495D01*
X69019047Y-104795114D01*
X69114285Y-104842733D01*
X69304761Y-104842733D01*
X69400000Y-104795114D01*
X69447619Y-104747495D01*
X69495238Y-104652257D01*
X69495238Y-104414162D01*
X69447619Y-104318924D01*
X69400000Y-104271305D01*
X69304761Y-104223686D01*
X69114285Y-104223686D01*
X69019047Y-104271305D01*
X68971428Y-104318924D01*
X68923809Y-104414162D01*
%TO.C,Cdec7*%
X93510476Y-69981191D02*
X93558095Y-70028810D01*
X93605714Y-70171667D01*
X93605714Y-70266905D01*
X93558095Y-70409762D01*
X93462857Y-70505001D01*
X93367619Y-70552620D01*
X93177143Y-70600239D01*
X93034286Y-70600239D01*
X92843810Y-70552620D01*
X92748572Y-70505001D01*
X92653334Y-70409762D01*
X92605714Y-70266905D01*
X92605714Y-70171667D01*
X92653334Y-70028810D01*
X92700953Y-69981191D01*
X93605714Y-69124048D02*
X92605714Y-69124048D01*
X93558095Y-69124048D02*
X93605714Y-69219286D01*
X93605714Y-69409762D01*
X93558095Y-69505001D01*
X93510476Y-69552620D01*
X93415238Y-69600239D01*
X93129524Y-69600239D01*
X93034286Y-69552620D01*
X92986667Y-69505001D01*
X92939048Y-69409762D01*
X92939048Y-69219286D01*
X92986667Y-69124048D01*
X93558095Y-68266905D02*
X93605714Y-68362143D01*
X93605714Y-68552620D01*
X93558095Y-68647858D01*
X93462857Y-68695477D01*
X93081905Y-68695477D01*
X92986667Y-68647858D01*
X92939048Y-68552620D01*
X92939048Y-68362143D01*
X92986667Y-68266905D01*
X93081905Y-68219286D01*
X93177143Y-68219286D01*
X93272381Y-68695477D01*
X93558095Y-67362143D02*
X93605714Y-67457381D01*
X93605714Y-67647858D01*
X93558095Y-67743096D01*
X93510476Y-67790715D01*
X93415238Y-67838334D01*
X93129524Y-67838334D01*
X93034286Y-67790715D01*
X92986667Y-67743096D01*
X92939048Y-67647858D01*
X92939048Y-67457381D01*
X92986667Y-67362143D01*
X92605714Y-67028810D02*
X92605714Y-66362143D01*
X93605714Y-66790715D01*
%TO.C,Cdec8*%
X90177142Y-69976190D02*
X90224761Y-70023809D01*
X90272380Y-70166666D01*
X90272380Y-70261904D01*
X90224761Y-70404761D01*
X90129523Y-70500000D01*
X90034285Y-70547619D01*
X89843809Y-70595238D01*
X89700952Y-70595238D01*
X89510476Y-70547619D01*
X89415238Y-70500000D01*
X89320000Y-70404761D01*
X89272380Y-70261904D01*
X89272380Y-70166666D01*
X89320000Y-70023809D01*
X89367619Y-69976190D01*
X90272380Y-69119047D02*
X89272380Y-69119047D01*
X90224761Y-69119047D02*
X90272380Y-69214285D01*
X90272380Y-69404761D01*
X90224761Y-69500000D01*
X90177142Y-69547619D01*
X90081904Y-69595238D01*
X89796190Y-69595238D01*
X89700952Y-69547619D01*
X89653333Y-69500000D01*
X89605714Y-69404761D01*
X89605714Y-69214285D01*
X89653333Y-69119047D01*
X90224761Y-68261904D02*
X90272380Y-68357142D01*
X90272380Y-68547619D01*
X90224761Y-68642857D01*
X90129523Y-68690476D01*
X89748571Y-68690476D01*
X89653333Y-68642857D01*
X89605714Y-68547619D01*
X89605714Y-68357142D01*
X89653333Y-68261904D01*
X89748571Y-68214285D01*
X89843809Y-68214285D01*
X89939047Y-68690476D01*
X90224761Y-67357142D02*
X90272380Y-67452380D01*
X90272380Y-67642857D01*
X90224761Y-67738095D01*
X90177142Y-67785714D01*
X90081904Y-67833333D01*
X89796190Y-67833333D01*
X89700952Y-67785714D01*
X89653333Y-67738095D01*
X89605714Y-67642857D01*
X89605714Y-67452380D01*
X89653333Y-67357142D01*
X89700952Y-66785714D02*
X89653333Y-66880952D01*
X89605714Y-66928571D01*
X89510476Y-66976190D01*
X89462857Y-66976190D01*
X89367619Y-66928571D01*
X89320000Y-66880952D01*
X89272380Y-66785714D01*
X89272380Y-66595238D01*
X89320000Y-66500000D01*
X89367619Y-66452380D01*
X89462857Y-66404761D01*
X89510476Y-66404761D01*
X89605714Y-66452380D01*
X89653333Y-66500000D01*
X89700952Y-66595238D01*
X89700952Y-66785714D01*
X89748571Y-66880952D01*
X89796190Y-66928571D01*
X89891428Y-66976190D01*
X90081904Y-66976190D01*
X90177142Y-66928571D01*
X90224761Y-66880952D01*
X90272380Y-66785714D01*
X90272380Y-66595238D01*
X90224761Y-66500000D01*
X90177142Y-66452380D01*
X90081904Y-66404761D01*
X89891428Y-66404761D01*
X89796190Y-66452380D01*
X89748571Y-66500000D01*
X89700952Y-66595238D01*
%TO.C,C9*%
X93357142Y-74566666D02*
X93404761Y-74614285D01*
X93452380Y-74757142D01*
X93452380Y-74852380D01*
X93404761Y-74995238D01*
X93309523Y-75090476D01*
X93214285Y-75138095D01*
X93023809Y-75185714D01*
X92880952Y-75185714D01*
X92690476Y-75138095D01*
X92595238Y-75090476D01*
X92500000Y-74995238D01*
X92452380Y-74852380D01*
X92452380Y-74757142D01*
X92500000Y-74614285D01*
X92547619Y-74566666D01*
X93452380Y-74090476D02*
X93452380Y-73900000D01*
X93404761Y-73804761D01*
X93357142Y-73757142D01*
X93214285Y-73661904D01*
X93023809Y-73614285D01*
X92642857Y-73614285D01*
X92547619Y-73661904D01*
X92500000Y-73709523D01*
X92452380Y-73804761D01*
X92452380Y-73995238D01*
X92500000Y-74090476D01*
X92547619Y-74138095D01*
X92642857Y-74185714D01*
X92880952Y-74185714D01*
X92976190Y-74138095D01*
X93023809Y-74090476D01*
X93071428Y-73995238D01*
X93071428Y-73804761D01*
X93023809Y-73709523D01*
X92976190Y-73661904D01*
X92880952Y-73614285D01*
%TO.C,D2*%
X51781904Y-90822380D02*
X51781904Y-89822380D01*
X52020000Y-89822380D01*
X52162857Y-89870000D01*
X52258095Y-89965238D01*
X52305714Y-90060476D01*
X52353333Y-90250952D01*
X52353333Y-90393809D01*
X52305714Y-90584285D01*
X52258095Y-90679523D01*
X52162857Y-90774761D01*
X52020000Y-90822380D01*
X51781904Y-90822380D01*
X52734285Y-89917619D02*
X52781904Y-89870000D01*
X52877142Y-89822380D01*
X53115238Y-89822380D01*
X53210476Y-89870000D01*
X53258095Y-89917619D01*
X53305714Y-90012857D01*
X53305714Y-90108095D01*
X53258095Y-90250952D01*
X52686666Y-90822380D01*
X53305714Y-90822380D01*
%TO.C,IC2*%
D14*
X90328903Y-105323221D02*
X89058903Y-105323221D01*
X90207951Y-103992745D02*
X90268427Y-104053221D01*
X90328903Y-104234650D01*
X90328903Y-104355602D01*
X90268427Y-104537031D01*
X90147475Y-104657983D01*
X90026522Y-104718460D01*
X89784618Y-104778936D01*
X89603189Y-104778936D01*
X89361284Y-104718460D01*
X89240332Y-104657983D01*
X89119380Y-104537031D01*
X89058903Y-104355602D01*
X89058903Y-104234650D01*
X89119380Y-104053221D01*
X89179856Y-103992745D01*
X89179856Y-103508936D02*
X89119380Y-103448460D01*
X89058903Y-103327507D01*
X89058903Y-103025126D01*
X89119380Y-102904174D01*
X89179856Y-102843698D01*
X89300808Y-102783221D01*
X89421760Y-102783221D01*
X89603189Y-102843698D01*
X90328903Y-103569412D01*
X90328903Y-102783221D01*
%TO.C,J6*%
D17*
X47666666Y-106862380D02*
X47666666Y-107576666D01*
X47619047Y-107719523D01*
X47523809Y-107814761D01*
X47380952Y-107862380D01*
X47285714Y-107862380D01*
X48571428Y-106862380D02*
X48380952Y-106862380D01*
X48285714Y-106910000D01*
X48238095Y-106957619D01*
X48142857Y-107100476D01*
X48095238Y-107290952D01*
X48095238Y-107671904D01*
X48142857Y-107767142D01*
X48190476Y-107814761D01*
X48285714Y-107862380D01*
X48476190Y-107862380D01*
X48571428Y-107814761D01*
X48619047Y-107767142D01*
X48666666Y-107671904D01*
X48666666Y-107433809D01*
X48619047Y-107338571D01*
X48571428Y-107290952D01*
X48476190Y-107243333D01*
X48285714Y-107243333D01*
X48190476Y-107290952D01*
X48142857Y-107338571D01*
X48095238Y-107433809D01*
%TO.C,J7*%
X57722380Y-52563333D02*
X58436666Y-52563333D01*
X58579523Y-52610952D01*
X58674761Y-52706190D01*
X58722380Y-52849047D01*
X58722380Y-52944285D01*
X57722380Y-52182380D02*
X57722380Y-51515714D01*
X58722380Y-51944285D01*
%TO.C,J8*%
X51872380Y-69063333D02*
X52586666Y-69063333D01*
X52729523Y-69110952D01*
X52824761Y-69206190D01*
X52872380Y-69349047D01*
X52872380Y-69444285D01*
X52300952Y-68444285D02*
X52253333Y-68539523D01*
X52205714Y-68587142D01*
X52110476Y-68634761D01*
X52062857Y-68634761D01*
X51967619Y-68587142D01*
X51920000Y-68539523D01*
X51872380Y-68444285D01*
X51872380Y-68253809D01*
X51920000Y-68158571D01*
X51967619Y-68110952D01*
X52062857Y-68063333D01*
X52110476Y-68063333D01*
X52205714Y-68110952D01*
X52253333Y-68158571D01*
X52300952Y-68253809D01*
X52300952Y-68444285D01*
X52348571Y-68539523D01*
X52396190Y-68587142D01*
X52491428Y-68634761D01*
X52681904Y-68634761D01*
X52777142Y-68587142D01*
X52824761Y-68539523D01*
X52872380Y-68444285D01*
X52872380Y-68253809D01*
X52824761Y-68158571D01*
X52777142Y-68110952D01*
X52681904Y-68063333D01*
X52491428Y-68063333D01*
X52396190Y-68110952D01*
X52348571Y-68158571D01*
X52300952Y-68253809D01*
%TO.C,J9*%
X46666666Y-88222380D02*
X46666666Y-88936666D01*
X46619047Y-89079523D01*
X46523809Y-89174761D01*
X46380952Y-89222380D01*
X46285714Y-89222380D01*
X47190476Y-89222380D02*
X47380952Y-89222380D01*
X47476190Y-89174761D01*
X47523809Y-89127142D01*
X47619047Y-88984285D01*
X47666666Y-88793809D01*
X47666666Y-88412857D01*
X47619047Y-88317619D01*
X47571428Y-88270000D01*
X47476190Y-88222380D01*
X47285714Y-88222380D01*
X47190476Y-88270000D01*
X47142857Y-88317619D01*
X47095238Y-88412857D01*
X47095238Y-88650952D01*
X47142857Y-88746190D01*
X47190476Y-88793809D01*
X47285714Y-88841428D01*
X47476190Y-88841428D01*
X47571428Y-88793809D01*
X47619047Y-88746190D01*
X47666666Y-88650952D01*
%TO.C,J10*%
X41190476Y-88222380D02*
X41190476Y-88936666D01*
X41142857Y-89079523D01*
X41047619Y-89174761D01*
X40904761Y-89222380D01*
X40809523Y-89222380D01*
X42190476Y-89222380D02*
X41619047Y-89222380D01*
X41904761Y-89222380D02*
X41904761Y-88222380D01*
X41809523Y-88365238D01*
X41714285Y-88460476D01*
X41619047Y-88508095D01*
X42809523Y-88222380D02*
X42904761Y-88222380D01*
X43000000Y-88270000D01*
X43047619Y-88317619D01*
X43095238Y-88412857D01*
X43142857Y-88603333D01*
X43142857Y-88841428D01*
X43095238Y-89031904D01*
X43047619Y-89127142D01*
X43000000Y-89174761D01*
X42904761Y-89222380D01*
X42809523Y-89222380D01*
X42714285Y-89174761D01*
X42666666Y-89127142D01*
X42619047Y-89031904D01*
X42571428Y-88841428D01*
X42571428Y-88603333D01*
X42619047Y-88412857D01*
X42666666Y-88317619D01*
X42714285Y-88270000D01*
X42809523Y-88222380D01*
%TO.C,LED1*%
D14*
X80525309Y-70324523D02*
X79920547Y-70324523D01*
X79920547Y-69054523D01*
X80948642Y-69659285D02*
X81371976Y-69659285D01*
X81553404Y-70324523D02*
X80948642Y-70324523D01*
X80948642Y-69054523D01*
X81553404Y-69054523D01*
X82097690Y-70324523D02*
X82097690Y-69054523D01*
X82400071Y-69054523D01*
X82581500Y-69115000D01*
X82702452Y-69235952D01*
X82762928Y-69356904D01*
X82823404Y-69598809D01*
X82823404Y-69780238D01*
X82762928Y-70022142D01*
X82702452Y-70143095D01*
X82581500Y-70264047D01*
X82400071Y-70324523D01*
X82097690Y-70324523D01*
X84032928Y-70324523D02*
X83307214Y-70324523D01*
X83670071Y-70324523D02*
X83670071Y-69054523D01*
X83549119Y-69235952D01*
X83428166Y-69356904D01*
X83307214Y-69417380D01*
%TO.C,LED2*%
X72983477Y-70324523D02*
X72378715Y-70324523D01*
X72378715Y-69054523D01*
X73406810Y-69659285D02*
X73830144Y-69659285D01*
X74011572Y-70324523D02*
X73406810Y-70324523D01*
X73406810Y-69054523D01*
X74011572Y-69054523D01*
X74555858Y-70324523D02*
X74555858Y-69054523D01*
X74858239Y-69054523D01*
X75039668Y-69115000D01*
X75160620Y-69235952D01*
X75221096Y-69356904D01*
X75281572Y-69598809D01*
X75281572Y-69780238D01*
X75221096Y-70022142D01*
X75160620Y-70143095D01*
X75039668Y-70264047D01*
X74858239Y-70324523D01*
X74555858Y-70324523D01*
X75765382Y-69175476D02*
X75825858Y-69115000D01*
X75946810Y-69054523D01*
X76249191Y-69054523D01*
X76370144Y-69115000D01*
X76430620Y-69175476D01*
X76491096Y-69296428D01*
X76491096Y-69417380D01*
X76430620Y-69598809D01*
X75704906Y-70324523D01*
X76491096Y-70324523D01*
%TO.C,LED3*%
X80525309Y-75824523D02*
X79920547Y-75824523D01*
X79920547Y-74554523D01*
X80948642Y-75159285D02*
X81371976Y-75159285D01*
X81553404Y-75824523D02*
X80948642Y-75824523D01*
X80948642Y-74554523D01*
X81553404Y-74554523D01*
X82097690Y-75824523D02*
X82097690Y-74554523D01*
X82400071Y-74554523D01*
X82581500Y-74615000D01*
X82702452Y-74735952D01*
X82762928Y-74856904D01*
X82823404Y-75098809D01*
X82823404Y-75280238D01*
X82762928Y-75522142D01*
X82702452Y-75643095D01*
X82581500Y-75764047D01*
X82400071Y-75824523D01*
X82097690Y-75824523D01*
X83246738Y-74554523D02*
X84032928Y-74554523D01*
X83609595Y-75038333D01*
X83791023Y-75038333D01*
X83911976Y-75098809D01*
X83972452Y-75159285D01*
X84032928Y-75280238D01*
X84032928Y-75582619D01*
X83972452Y-75703571D01*
X83911976Y-75764047D01*
X83791023Y-75824523D01*
X83428166Y-75824523D01*
X83307214Y-75764047D01*
X83246738Y-75703571D01*
%TO.C,LED4*%
X72983477Y-75824523D02*
X72378715Y-75824523D01*
X72378715Y-74554523D01*
X73406810Y-75159285D02*
X73830144Y-75159285D01*
X74011572Y-75824523D02*
X73406810Y-75824523D01*
X73406810Y-74554523D01*
X74011572Y-74554523D01*
X74555858Y-75824523D02*
X74555858Y-74554523D01*
X74858239Y-74554523D01*
X75039668Y-74615000D01*
X75160620Y-74735952D01*
X75221096Y-74856904D01*
X75281572Y-75098809D01*
X75281572Y-75280238D01*
X75221096Y-75522142D01*
X75160620Y-75643095D01*
X75039668Y-75764047D01*
X74858239Y-75824523D01*
X74555858Y-75824523D01*
X76370144Y-74977857D02*
X76370144Y-75824523D01*
X76067763Y-74494047D02*
X75765382Y-75401190D01*
X76551572Y-75401190D01*
%TO.C,LED5*%
X62441643Y-75824523D02*
X61836881Y-75824523D01*
X61836881Y-74554523D01*
X62864976Y-75159285D02*
X63288310Y-75159285D01*
X63469738Y-75824523D02*
X62864976Y-75824523D01*
X62864976Y-74554523D01*
X63469738Y-74554523D01*
X64014024Y-75824523D02*
X64014024Y-74554523D01*
X64316405Y-74554523D01*
X64497834Y-74615000D01*
X64618786Y-74735952D01*
X64679262Y-74856904D01*
X64739738Y-75098809D01*
X64739738Y-75280238D01*
X64679262Y-75522142D01*
X64618786Y-75643095D01*
X64497834Y-75764047D01*
X64316405Y-75824523D01*
X64014024Y-75824523D01*
X65888786Y-74554523D02*
X65284024Y-74554523D01*
X65223548Y-75159285D01*
X65284024Y-75098809D01*
X65404976Y-75038333D01*
X65707357Y-75038333D01*
X65828310Y-75098809D01*
X65888786Y-75159285D01*
X65949262Y-75280238D01*
X65949262Y-75582619D01*
X65888786Y-75703571D01*
X65828310Y-75764047D01*
X65707357Y-75824523D01*
X65404976Y-75824523D01*
X65284024Y-75764047D01*
X65223548Y-75703571D01*
%TO.C,LED6*%
X54899809Y-75824523D02*
X54295047Y-75824523D01*
X54295047Y-74554523D01*
X55323142Y-75159285D02*
X55746476Y-75159285D01*
X55927904Y-75824523D02*
X55323142Y-75824523D01*
X55323142Y-74554523D01*
X55927904Y-74554523D01*
X56472190Y-75824523D02*
X56472190Y-74554523D01*
X56774571Y-74554523D01*
X56956000Y-74615000D01*
X57076952Y-74735952D01*
X57137428Y-74856904D01*
X57197904Y-75098809D01*
X57197904Y-75280238D01*
X57137428Y-75522142D01*
X57076952Y-75643095D01*
X56956000Y-75764047D01*
X56774571Y-75824523D01*
X56472190Y-75824523D01*
X58286476Y-74554523D02*
X58044571Y-74554523D01*
X57923619Y-74615000D01*
X57863142Y-74675476D01*
X57742190Y-74856904D01*
X57681714Y-75098809D01*
X57681714Y-75582619D01*
X57742190Y-75703571D01*
X57802666Y-75764047D01*
X57923619Y-75824523D01*
X58165523Y-75824523D01*
X58286476Y-75764047D01*
X58346952Y-75703571D01*
X58407428Y-75582619D01*
X58407428Y-75280238D01*
X58346952Y-75159285D01*
X58286476Y-75098809D01*
X58165523Y-75038333D01*
X57923619Y-75038333D01*
X57802666Y-75098809D01*
X57742190Y-75159285D01*
X57681714Y-75280238D01*
%TO.C,LED7*%
X62308309Y-70324523D02*
X61703547Y-70324523D01*
X61703547Y-69054523D01*
X62731642Y-69659285D02*
X63154976Y-69659285D01*
X63336404Y-70324523D02*
X62731642Y-70324523D01*
X62731642Y-69054523D01*
X63336404Y-69054523D01*
X63880690Y-70324523D02*
X63880690Y-69054523D01*
X64183071Y-69054523D01*
X64364500Y-69115000D01*
X64485452Y-69235952D01*
X64545928Y-69356904D01*
X64606404Y-69598809D01*
X64606404Y-69780238D01*
X64545928Y-70022142D01*
X64485452Y-70143095D01*
X64364500Y-70264047D01*
X64183071Y-70324523D01*
X63880690Y-70324523D01*
X65029738Y-69054523D02*
X65876404Y-69054523D01*
X65332119Y-70324523D01*
%TO.C,LED8*%
X54899809Y-70324523D02*
X54295047Y-70324523D01*
X54295047Y-69054523D01*
X55323142Y-69659285D02*
X55746476Y-69659285D01*
X55927904Y-70324523D02*
X55323142Y-70324523D01*
X55323142Y-69054523D01*
X55927904Y-69054523D01*
X56472190Y-70324523D02*
X56472190Y-69054523D01*
X56774571Y-69054523D01*
X56956000Y-69115000D01*
X57076952Y-69235952D01*
X57137428Y-69356904D01*
X57197904Y-69598809D01*
X57197904Y-69780238D01*
X57137428Y-70022142D01*
X57076952Y-70143095D01*
X56956000Y-70264047D01*
X56774571Y-70324523D01*
X56472190Y-70324523D01*
X57923619Y-69598809D02*
X57802666Y-69538333D01*
X57742190Y-69477857D01*
X57681714Y-69356904D01*
X57681714Y-69296428D01*
X57742190Y-69175476D01*
X57802666Y-69115000D01*
X57923619Y-69054523D01*
X58165523Y-69054523D01*
X58286476Y-69115000D01*
X58346952Y-69175476D01*
X58407428Y-69296428D01*
X58407428Y-69356904D01*
X58346952Y-69477857D01*
X58286476Y-69538333D01*
X58165523Y-69598809D01*
X57923619Y-69598809D01*
X57802666Y-69659285D01*
X57742190Y-69719761D01*
X57681714Y-69840714D01*
X57681714Y-70082619D01*
X57742190Y-70203571D01*
X57802666Y-70264047D01*
X57923619Y-70324523D01*
X58165523Y-70324523D01*
X58286476Y-70264047D01*
X58346952Y-70203571D01*
X58407428Y-70082619D01*
X58407428Y-69840714D01*
X58346952Y-69719761D01*
X58286476Y-69659285D01*
X58165523Y-69598809D01*
%TO.C,LEDDRV1*%
X65574523Y-84035476D02*
X65574523Y-84640238D01*
X64304523Y-84640238D01*
X64909285Y-83612142D02*
X64909285Y-83188809D01*
X65574523Y-83007380D02*
X65574523Y-83612142D01*
X64304523Y-83612142D01*
X64304523Y-83007380D01*
X65574523Y-82463095D02*
X64304523Y-82463095D01*
X64304523Y-82160714D01*
X64365000Y-81979285D01*
X64485952Y-81858333D01*
X64606904Y-81797857D01*
X64848809Y-81737380D01*
X65030238Y-81737380D01*
X65272142Y-81797857D01*
X65393095Y-81858333D01*
X65514047Y-81979285D01*
X65574523Y-82160714D01*
X65574523Y-82463095D01*
X65574523Y-81193095D02*
X64304523Y-81193095D01*
X64304523Y-80890714D01*
X64365000Y-80709285D01*
X64485952Y-80588333D01*
X64606904Y-80527857D01*
X64848809Y-80467380D01*
X65030238Y-80467380D01*
X65272142Y-80527857D01*
X65393095Y-80588333D01*
X65514047Y-80709285D01*
X65574523Y-80890714D01*
X65574523Y-81193095D01*
X65574523Y-79197380D02*
X64969761Y-79620714D01*
X65574523Y-79923095D02*
X64304523Y-79923095D01*
X64304523Y-79439285D01*
X64365000Y-79318333D01*
X64425476Y-79257857D01*
X64546428Y-79197380D01*
X64727857Y-79197380D01*
X64848809Y-79257857D01*
X64909285Y-79318333D01*
X64969761Y-79439285D01*
X64969761Y-79923095D01*
X64304523Y-78834523D02*
X65574523Y-78411190D01*
X64304523Y-77987857D01*
X65574523Y-76899285D02*
X65574523Y-77625000D01*
X65574523Y-77262142D02*
X64304523Y-77262142D01*
X64485952Y-77383095D01*
X64606904Y-77504047D01*
X64667380Y-77625000D01*
%TO.C,P1*%
D17*
X57261904Y-98342380D02*
X57261904Y-97342380D01*
X57642857Y-97342380D01*
X57738095Y-97390000D01*
X57785714Y-97437619D01*
X57833333Y-97532857D01*
X57833333Y-97675714D01*
X57785714Y-97770952D01*
X57738095Y-97818571D01*
X57642857Y-97866190D01*
X57261904Y-97866190D01*
X58785714Y-98342380D02*
X58214285Y-98342380D01*
X58500000Y-98342380D02*
X58500000Y-97342380D01*
X58404761Y-97485238D01*
X58309523Y-97580476D01*
X58214285Y-97628095D01*
%TO.C,R1*%
X85333333Y-80272380D02*
X85000000Y-79796190D01*
X84761904Y-80272380D02*
X84761904Y-79272380D01*
X85142857Y-79272380D01*
X85238095Y-79320000D01*
X85285714Y-79367619D01*
X85333333Y-79462857D01*
X85333333Y-79605714D01*
X85285714Y-79700952D01*
X85238095Y-79748571D01*
X85142857Y-79796190D01*
X84761904Y-79796190D01*
X86285714Y-80272380D02*
X85714285Y-80272380D01*
X86000000Y-80272380D02*
X86000000Y-79272380D01*
X85904761Y-79415238D01*
X85809523Y-79510476D01*
X85714285Y-79558095D01*
%TO.C,R2*%
X89583333Y-76972380D02*
X89250000Y-76496190D01*
X89011904Y-76972380D02*
X89011904Y-75972380D01*
X89392857Y-75972380D01*
X89488095Y-76020000D01*
X89535714Y-76067619D01*
X89583333Y-76162857D01*
X89583333Y-76305714D01*
X89535714Y-76400952D01*
X89488095Y-76448571D01*
X89392857Y-76496190D01*
X89011904Y-76496190D01*
X89964285Y-76067619D02*
X90011904Y-76020000D01*
X90107142Y-75972380D01*
X90345238Y-75972380D01*
X90440476Y-76020000D01*
X90488095Y-76067619D01*
X90535714Y-76162857D01*
X90535714Y-76258095D01*
X90488095Y-76400952D01*
X89916666Y-76972380D01*
X90535714Y-76972380D01*
%TO.C,R3*%
X68927380Y-86466666D02*
X68451190Y-86800000D01*
X68927380Y-87038095D02*
X67927380Y-87038095D01*
X67927380Y-86657142D01*
X67975000Y-86561904D01*
X68022619Y-86514285D01*
X68117857Y-86466666D01*
X68260714Y-86466666D01*
X68355952Y-86514285D01*
X68403571Y-86561904D01*
X68451190Y-86657142D01*
X68451190Y-87038095D01*
X67927380Y-86133333D02*
X67927380Y-85514285D01*
X68308333Y-85847619D01*
X68308333Y-85704761D01*
X68355952Y-85609523D01*
X68403571Y-85561904D01*
X68498809Y-85514285D01*
X68736904Y-85514285D01*
X68832142Y-85561904D01*
X68879761Y-85609523D01*
X68927380Y-85704761D01*
X68927380Y-85990476D01*
X68879761Y-86085714D01*
X68832142Y-86133333D01*
%TO.C,R14*%
X67357142Y-101663091D02*
X67023809Y-101186901D01*
X66785714Y-101663091D02*
X66785714Y-100663091D01*
X67166666Y-100663091D01*
X67261904Y-100710711D01*
X67309523Y-100758330D01*
X67357142Y-100853568D01*
X67357142Y-100996425D01*
X67309523Y-101091663D01*
X67261904Y-101139282D01*
X67166666Y-101186901D01*
X66785714Y-101186901D01*
X68309523Y-101663091D02*
X67738095Y-101663091D01*
X68023809Y-101663091D02*
X68023809Y-100663091D01*
X67928571Y-100805949D01*
X67833333Y-100901187D01*
X67738095Y-100948806D01*
X69166666Y-100996425D02*
X69166666Y-101663091D01*
X68928571Y-100615472D02*
X68690476Y-101329758D01*
X69309523Y-101329758D01*
%TO.C,R15*%
X67357142Y-98823449D02*
X67023809Y-98347259D01*
X66785714Y-98823449D02*
X66785714Y-97823449D01*
X67166666Y-97823449D01*
X67261904Y-97871069D01*
X67309523Y-97918688D01*
X67357142Y-98013926D01*
X67357142Y-98156783D01*
X67309523Y-98252021D01*
X67261904Y-98299640D01*
X67166666Y-98347259D01*
X66785714Y-98347259D01*
X68309523Y-98823449D02*
X67738095Y-98823449D01*
X68023809Y-98823449D02*
X68023809Y-97823449D01*
X67928571Y-97966307D01*
X67833333Y-98061545D01*
X67738095Y-98109164D01*
X69214285Y-97823449D02*
X68738095Y-97823449D01*
X68690476Y-98299640D01*
X68738095Y-98252021D01*
X68833333Y-98204402D01*
X69071428Y-98204402D01*
X69166666Y-98252021D01*
X69214285Y-98299640D01*
X69261904Y-98394878D01*
X69261904Y-98632973D01*
X69214285Y-98728211D01*
X69166666Y-98775830D01*
X69071428Y-98823449D01*
X68833333Y-98823449D01*
X68738095Y-98775830D01*
X68690476Y-98728211D01*
%TO.C,R16*%
X67357142Y-95983807D02*
X67023809Y-95507617D01*
X66785714Y-95983807D02*
X66785714Y-94983807D01*
X67166666Y-94983807D01*
X67261904Y-95031427D01*
X67309523Y-95079046D01*
X67357142Y-95174284D01*
X67357142Y-95317141D01*
X67309523Y-95412379D01*
X67261904Y-95459998D01*
X67166666Y-95507617D01*
X66785714Y-95507617D01*
X68309523Y-95983807D02*
X67738095Y-95983807D01*
X68023809Y-95983807D02*
X68023809Y-94983807D01*
X67928571Y-95126665D01*
X67833333Y-95221903D01*
X67738095Y-95269522D01*
X69166666Y-94983807D02*
X68976190Y-94983807D01*
X68880952Y-95031427D01*
X68833333Y-95079046D01*
X68738095Y-95221903D01*
X68690476Y-95412379D01*
X68690476Y-95793331D01*
X68738095Y-95888569D01*
X68785714Y-95936188D01*
X68880952Y-95983807D01*
X69071428Y-95983807D01*
X69166666Y-95936188D01*
X69214285Y-95888569D01*
X69261904Y-95793331D01*
X69261904Y-95555236D01*
X69214285Y-95459998D01*
X69166666Y-95412379D01*
X69071428Y-95364760D01*
X68880952Y-95364760D01*
X68785714Y-95412379D01*
X68738095Y-95459998D01*
X68690476Y-95555236D01*
%TO.C,R17*%
X89965713Y-75042857D02*
X89489523Y-75376190D01*
X89965713Y-75614285D02*
X88965713Y-75614285D01*
X88965713Y-75233333D01*
X89013333Y-75138095D01*
X89060952Y-75090476D01*
X89156190Y-75042857D01*
X89299047Y-75042857D01*
X89394285Y-75090476D01*
X89441904Y-75138095D01*
X89489523Y-75233333D01*
X89489523Y-75614285D01*
X89965713Y-74090476D02*
X89965713Y-74661904D01*
X89965713Y-74376190D02*
X88965713Y-74376190D01*
X89108571Y-74471428D01*
X89203809Y-74566666D01*
X89251428Y-74661904D01*
X88965713Y-73757142D02*
X88965713Y-73090476D01*
X89965713Y-73519047D01*
%TO.C,R18*%
X79357142Y-80272380D02*
X79023809Y-79796190D01*
X78785714Y-80272380D02*
X78785714Y-79272380D01*
X79166666Y-79272380D01*
X79261904Y-79320000D01*
X79309523Y-79367619D01*
X79357142Y-79462857D01*
X79357142Y-79605714D01*
X79309523Y-79700952D01*
X79261904Y-79748571D01*
X79166666Y-79796190D01*
X78785714Y-79796190D01*
X80309523Y-80272380D02*
X79738095Y-80272380D01*
X80023809Y-80272380D02*
X80023809Y-79272380D01*
X79928571Y-79415238D01*
X79833333Y-79510476D01*
X79738095Y-79558095D01*
X80880952Y-79700952D02*
X80785714Y-79653333D01*
X80738095Y-79605714D01*
X80690476Y-79510476D01*
X80690476Y-79462857D01*
X80738095Y-79367619D01*
X80785714Y-79320000D01*
X80880952Y-79272380D01*
X81071428Y-79272380D01*
X81166666Y-79320000D01*
X81214285Y-79367619D01*
X81261904Y-79462857D01*
X81261904Y-79510476D01*
X81214285Y-79605714D01*
X81166666Y-79653333D01*
X81071428Y-79700952D01*
X80880952Y-79700952D01*
X80785714Y-79748571D01*
X80738095Y-79796190D01*
X80690476Y-79891428D01*
X80690476Y-80081904D01*
X80738095Y-80177142D01*
X80785714Y-80224761D01*
X80880952Y-80272380D01*
X81071428Y-80272380D01*
X81166666Y-80224761D01*
X81214285Y-80177142D01*
X81261904Y-80081904D01*
X81261904Y-79891428D01*
X81214285Y-79796190D01*
X81166666Y-79748571D01*
X81071428Y-79700952D01*
%TO.C,SW1*%
X95416666Y-104304761D02*
X95559523Y-104352380D01*
X95797619Y-104352380D01*
X95892857Y-104304761D01*
X95940476Y-104257142D01*
X95988095Y-104161904D01*
X95988095Y-104066666D01*
X95940476Y-103971428D01*
X95892857Y-103923809D01*
X95797619Y-103876190D01*
X95607142Y-103828571D01*
X95511904Y-103780952D01*
X95464285Y-103733333D01*
X95416666Y-103638095D01*
X95416666Y-103542857D01*
X95464285Y-103447619D01*
X95511904Y-103400000D01*
X95607142Y-103352380D01*
X95845238Y-103352380D01*
X95988095Y-103400000D01*
X96321428Y-103352380D02*
X96559523Y-104352380D01*
X96750000Y-103638095D01*
X96940476Y-104352380D01*
X97178571Y-103352380D01*
X98083333Y-104352380D02*
X97511904Y-104352380D01*
X97797619Y-104352380D02*
X97797619Y-103352380D01*
X97702380Y-103495238D01*
X97607142Y-103590476D01*
X97511904Y-103638095D01*
%TO.C,SW2*%
X95666666Y-74504761D02*
X95809523Y-74552380D01*
X96047619Y-74552380D01*
X96142857Y-74504761D01*
X96190476Y-74457142D01*
X96238095Y-74361904D01*
X96238095Y-74266666D01*
X96190476Y-74171428D01*
X96142857Y-74123809D01*
X96047619Y-74076190D01*
X95857142Y-74028571D01*
X95761904Y-73980952D01*
X95714285Y-73933333D01*
X95666666Y-73838095D01*
X95666666Y-73742857D01*
X95714285Y-73647619D01*
X95761904Y-73600000D01*
X95857142Y-73552380D01*
X96095238Y-73552380D01*
X96238095Y-73600000D01*
X96571428Y-73552380D02*
X96809523Y-74552380D01*
X97000000Y-73838095D01*
X97190476Y-74552380D01*
X97428571Y-73552380D01*
X97761904Y-73647619D02*
X97809523Y-73600000D01*
X97904761Y-73552380D01*
X98142857Y-73552380D01*
X98238095Y-73600000D01*
X98285714Y-73647619D01*
X98333333Y-73742857D01*
X98333333Y-73838095D01*
X98285714Y-73980952D01*
X97714285Y-74552380D01*
X98333333Y-74552380D01*
%TO.C,U3*%
X59238095Y-88152380D02*
X59238095Y-88961904D01*
X59285714Y-89057142D01*
X59333333Y-89104761D01*
X59428571Y-89152380D01*
X59619047Y-89152380D01*
X59714285Y-89104761D01*
X59761904Y-89057142D01*
X59809523Y-88961904D01*
X59809523Y-88152380D01*
X60190476Y-88152380D02*
X60809523Y-88152380D01*
X60476190Y-88533333D01*
X60619047Y-88533333D01*
X60714285Y-88580952D01*
X60761904Y-88628571D01*
X60809523Y-88723809D01*
X60809523Y-88961904D01*
X60761904Y-89057142D01*
X60714285Y-89104761D01*
X60619047Y-89152380D01*
X60333333Y-89152380D01*
X60238095Y-89104761D01*
X60190476Y-89057142D01*
%TO.C,U4*%
X88038095Y-85452380D02*
X88038095Y-86261904D01*
X88085714Y-86357142D01*
X88133333Y-86404761D01*
X88228571Y-86452380D01*
X88419047Y-86452380D01*
X88514285Y-86404761D01*
X88561904Y-86357142D01*
X88609523Y-86261904D01*
X88609523Y-85452380D01*
X89514285Y-85785714D02*
X89514285Y-86452380D01*
X89276190Y-85404761D02*
X89038095Y-86119047D01*
X89657142Y-86119047D01*
%TD*%
M02*
