%TF.GenerationSoftware,KiCad,Pcbnew,5.1.6*%
%TF.CreationDate,2020-07-08T20:14:41-07:00*%
%TF.ProjectId,plant_station,706c616e-745f-4737-9461-74696f6e2e6b,rev?*%
%TF.SameCoordinates,Original*%
%TF.FileFunction,Paste,Top*%
%TF.FilePolarity,Positive*%
%FSLAX46Y46*%
G04 Gerber Fmt 4.6, Leading zero omitted, Abs format (unit mm)*
G04 Created by KiCad (PCBNEW 5.1.6) date 2020-07-08 20:14:41*
%MOMM*%
%LPD*%
G01*
G04 APERTURE LIST*
%ADD10C,0.260000*%
%ADD11R,2.700000X1.500000*%
%ADD12R,0.650000X1.525000*%
%ADD13R,0.600000X1.250000*%
%ADD14R,0.300000X0.850000*%
%ADD15R,2.400000X1.650000*%
%ADD16R,1.800000X1.600000*%
%ADD17R,0.800000X0.300000*%
%ADD18R,1.400000X1.200000*%
%ADD19R,1.400000X1.000000*%
%ADD20R,1.600000X0.700000*%
%ADD21R,1.000000X1.000000*%
%ADD22R,1.300000X0.700000*%
%ADD23R,0.500000X0.200000*%
%ADD24R,0.200000X0.500000*%
%ADD25R,2.800000X2.800000*%
%ADD26R,0.300000X0.700000*%
%ADD27R,1.050000X0.650000*%
%ADD28R,0.912500X0.850000*%
%ADD29R,4.300000X4.300000*%
G04 APERTURE END LIST*
D10*
%TO.C,U2*%
X78000000Y-104375000D03*
X78000000Y-103875000D03*
X78000000Y-103375000D03*
X77000000Y-104375000D03*
X77000000Y-103875000D03*
X77000000Y-103375000D03*
%TD*%
%TO.C,C4*%
G36*
G01*
X89375000Y-49875000D02*
X88125000Y-49875000D01*
G75*
G02*
X87875000Y-49625000I0J250000D01*
G01*
X87875000Y-48875000D01*
G75*
G02*
X88125000Y-48625000I250000J0D01*
G01*
X89375000Y-48625000D01*
G75*
G02*
X89625000Y-48875000I0J-250000D01*
G01*
X89625000Y-49625000D01*
G75*
G02*
X89375000Y-49875000I-250000J0D01*
G01*
G37*
G36*
G01*
X89375000Y-52675000D02*
X88125000Y-52675000D01*
G75*
G02*
X87875000Y-52425000I0J250000D01*
G01*
X87875000Y-51675000D01*
G75*
G02*
X88125000Y-51425000I250000J0D01*
G01*
X89375000Y-51425000D01*
G75*
G02*
X89625000Y-51675000I0J-250000D01*
G01*
X89625000Y-52425000D01*
G75*
G02*
X89375000Y-52675000I-250000J0D01*
G01*
G37*
%TD*%
%TO.C,C5*%
G36*
G01*
X92375000Y-49875000D02*
X91125000Y-49875000D01*
G75*
G02*
X90875000Y-49625000I0J250000D01*
G01*
X90875000Y-48875000D01*
G75*
G02*
X91125000Y-48625000I250000J0D01*
G01*
X92375000Y-48625000D01*
G75*
G02*
X92625000Y-48875000I0J-250000D01*
G01*
X92625000Y-49625000D01*
G75*
G02*
X92375000Y-49875000I-250000J0D01*
G01*
G37*
G36*
G01*
X92375000Y-52675000D02*
X91125000Y-52675000D01*
G75*
G02*
X90875000Y-52425000I0J250000D01*
G01*
X90875000Y-51675000D01*
G75*
G02*
X91125000Y-51425000I250000J0D01*
G01*
X92375000Y-51425000D01*
G75*
G02*
X92625000Y-51675000I0J-250000D01*
G01*
X92625000Y-52425000D01*
G75*
G02*
X92375000Y-52675000I-250000J0D01*
G01*
G37*
%TD*%
%TO.C,C6*%
G36*
G01*
X67375000Y-48875000D02*
X66125000Y-48875000D01*
G75*
G02*
X65875000Y-48625000I0J250000D01*
G01*
X65875000Y-47875000D01*
G75*
G02*
X66125000Y-47625000I250000J0D01*
G01*
X67375000Y-47625000D01*
G75*
G02*
X67625000Y-47875000I0J-250000D01*
G01*
X67625000Y-48625000D01*
G75*
G02*
X67375000Y-48875000I-250000J0D01*
G01*
G37*
G36*
G01*
X67375000Y-51675000D02*
X66125000Y-51675000D01*
G75*
G02*
X65875000Y-51425000I0J250000D01*
G01*
X65875000Y-50675000D01*
G75*
G02*
X66125000Y-50425000I250000J0D01*
G01*
X67375000Y-50425000D01*
G75*
G02*
X67625000Y-50675000I0J-250000D01*
G01*
X67625000Y-51425000D01*
G75*
G02*
X67375000Y-51675000I-250000J0D01*
G01*
G37*
%TD*%
%TO.C,C7*%
G36*
G01*
X71375000Y-51675000D02*
X70125000Y-51675000D01*
G75*
G02*
X69875000Y-51425000I0J250000D01*
G01*
X69875000Y-50675000D01*
G75*
G02*
X70125000Y-50425000I250000J0D01*
G01*
X71375000Y-50425000D01*
G75*
G02*
X71625000Y-50675000I0J-250000D01*
G01*
X71625000Y-51425000D01*
G75*
G02*
X71375000Y-51675000I-250000J0D01*
G01*
G37*
G36*
G01*
X71375000Y-48875000D02*
X70125000Y-48875000D01*
G75*
G02*
X69875000Y-48625000I0J250000D01*
G01*
X69875000Y-47875000D01*
G75*
G02*
X70125000Y-47625000I250000J0D01*
G01*
X71375000Y-47625000D01*
G75*
G02*
X71625000Y-47875000I0J-250000D01*
G01*
X71625000Y-48625000D01*
G75*
G02*
X71375000Y-48875000I-250000J0D01*
G01*
G37*
%TD*%
%TO.C,Cdec1*%
G36*
G01*
X53375000Y-47275000D02*
X52125000Y-47275000D01*
G75*
G02*
X51875000Y-47025000I0J250000D01*
G01*
X51875000Y-46275000D01*
G75*
G02*
X52125000Y-46025000I250000J0D01*
G01*
X53375000Y-46025000D01*
G75*
G02*
X53625000Y-46275000I0J-250000D01*
G01*
X53625000Y-47025000D01*
G75*
G02*
X53375000Y-47275000I-250000J0D01*
G01*
G37*
G36*
G01*
X53375000Y-44475000D02*
X52125000Y-44475000D01*
G75*
G02*
X51875000Y-44225000I0J250000D01*
G01*
X51875000Y-43475000D01*
G75*
G02*
X52125000Y-43225000I250000J0D01*
G01*
X53375000Y-43225000D01*
G75*
G02*
X53625000Y-43475000I0J-250000D01*
G01*
X53625000Y-44225000D01*
G75*
G02*
X53375000Y-44475000I-250000J0D01*
G01*
G37*
%TD*%
%TO.C,Cdec2*%
G36*
G01*
X49375000Y-47275000D02*
X48125000Y-47275000D01*
G75*
G02*
X47875000Y-47025000I0J250000D01*
G01*
X47875000Y-46275000D01*
G75*
G02*
X48125000Y-46025000I250000J0D01*
G01*
X49375000Y-46025000D01*
G75*
G02*
X49625000Y-46275000I0J-250000D01*
G01*
X49625000Y-47025000D01*
G75*
G02*
X49375000Y-47275000I-250000J0D01*
G01*
G37*
G36*
G01*
X49375000Y-44475000D02*
X48125000Y-44475000D01*
G75*
G02*
X47875000Y-44225000I0J250000D01*
G01*
X47875000Y-43475000D01*
G75*
G02*
X48125000Y-43225000I250000J0D01*
G01*
X49375000Y-43225000D01*
G75*
G02*
X49625000Y-43475000I0J-250000D01*
G01*
X49625000Y-44225000D01*
G75*
G02*
X49375000Y-44475000I-250000J0D01*
G01*
G37*
%TD*%
%TO.C,Cref1*%
G36*
G01*
X93375000Y-35475000D02*
X92125000Y-35475000D01*
G75*
G02*
X91875000Y-35225000I0J250000D01*
G01*
X91875000Y-34475000D01*
G75*
G02*
X92125000Y-34225000I250000J0D01*
G01*
X93375000Y-34225000D01*
G75*
G02*
X93625000Y-34475000I0J-250000D01*
G01*
X93625000Y-35225000D01*
G75*
G02*
X93375000Y-35475000I-250000J0D01*
G01*
G37*
G36*
G01*
X93375000Y-38275000D02*
X92125000Y-38275000D01*
G75*
G02*
X91875000Y-38025000I0J250000D01*
G01*
X91875000Y-37275000D01*
G75*
G02*
X92125000Y-37025000I250000J0D01*
G01*
X93375000Y-37025000D01*
G75*
G02*
X93625000Y-37275000I0J-250000D01*
G01*
X93625000Y-38025000D01*
G75*
G02*
X93375000Y-38275000I-250000J0D01*
G01*
G37*
%TD*%
D11*
%TO.C,D1*%
X95750000Y-45550000D03*
X95750000Y-40750000D03*
%TD*%
D12*
%TO.C,IC3*%
X87845000Y-45962000D03*
X89115000Y-45962000D03*
X90385000Y-45962000D03*
X91655000Y-45962000D03*
X91655000Y-40538000D03*
X90385000Y-40538000D03*
X89115000Y-40538000D03*
X87845000Y-40538000D03*
%TD*%
D13*
%TO.C,IC4*%
X82800000Y-43500000D03*
X83750000Y-43500000D03*
X84700000Y-43500000D03*
X84700000Y-41000000D03*
X83750000Y-41000000D03*
X82800000Y-41000000D03*
%TD*%
D14*
%TO.C,IC5*%
X67750000Y-44700000D03*
X68250000Y-44700000D03*
X68750000Y-44700000D03*
X69250000Y-44700000D03*
X69750000Y-44700000D03*
X69750000Y-41800000D03*
X69250000Y-41800000D03*
X68750000Y-41800000D03*
X68250000Y-41800000D03*
X67750000Y-41800000D03*
D15*
X68750000Y-43250000D03*
%TD*%
D16*
%TO.C,IC6*%
X48750000Y-39750000D03*
D17*
X47250000Y-40500000D03*
X47250000Y-40000000D03*
X47250000Y-39500000D03*
X47250000Y-39000000D03*
X50250000Y-39000000D03*
X50250000Y-39500000D03*
X50250000Y-40000000D03*
X50250000Y-40500000D03*
%TD*%
%TO.C,R4*%
G36*
G01*
X86375000Y-52675000D02*
X85125000Y-52675000D01*
G75*
G02*
X84875000Y-52425000I0J250000D01*
G01*
X84875000Y-51675000D01*
G75*
G02*
X85125000Y-51425000I250000J0D01*
G01*
X86375000Y-51425000D01*
G75*
G02*
X86625000Y-51675000I0J-250000D01*
G01*
X86625000Y-52425000D01*
G75*
G02*
X86375000Y-52675000I-250000J0D01*
G01*
G37*
G36*
G01*
X86375000Y-49875000D02*
X85125000Y-49875000D01*
G75*
G02*
X84875000Y-49625000I0J250000D01*
G01*
X84875000Y-48875000D01*
G75*
G02*
X85125000Y-48625000I250000J0D01*
G01*
X86375000Y-48625000D01*
G75*
G02*
X86625000Y-48875000I0J-250000D01*
G01*
X86625000Y-49625000D01*
G75*
G02*
X86375000Y-49875000I-250000J0D01*
G01*
G37*
%TD*%
%TO.C,R5*%
G36*
G01*
X82325000Y-46706250D02*
X82325000Y-45793750D01*
G75*
G02*
X82568750Y-45550000I243750J0D01*
G01*
X83056250Y-45550000D01*
G75*
G02*
X83300000Y-45793750I0J-243750D01*
G01*
X83300000Y-46706250D01*
G75*
G02*
X83056250Y-46950000I-243750J0D01*
G01*
X82568750Y-46950000D01*
G75*
G02*
X82325000Y-46706250I0J243750D01*
G01*
G37*
G36*
G01*
X84200000Y-46706250D02*
X84200000Y-45793750D01*
G75*
G02*
X84443750Y-45550000I243750J0D01*
G01*
X84931250Y-45550000D01*
G75*
G02*
X85175000Y-45793750I0J-243750D01*
G01*
X85175000Y-46706250D01*
G75*
G02*
X84931250Y-46950000I-243750J0D01*
G01*
X84443750Y-46950000D01*
G75*
G02*
X84200000Y-46706250I0J243750D01*
G01*
G37*
%TD*%
%TO.C,R6*%
G36*
G01*
X83206250Y-35800000D02*
X82293750Y-35800000D01*
G75*
G02*
X82050000Y-35556250I0J243750D01*
G01*
X82050000Y-35068750D01*
G75*
G02*
X82293750Y-34825000I243750J0D01*
G01*
X83206250Y-34825000D01*
G75*
G02*
X83450000Y-35068750I0J-243750D01*
G01*
X83450000Y-35556250D01*
G75*
G02*
X83206250Y-35800000I-243750J0D01*
G01*
G37*
G36*
G01*
X83206250Y-37675000D02*
X82293750Y-37675000D01*
G75*
G02*
X82050000Y-37431250I0J243750D01*
G01*
X82050000Y-36943750D01*
G75*
G02*
X82293750Y-36700000I243750J0D01*
G01*
X83206250Y-36700000D01*
G75*
G02*
X83450000Y-36943750I0J-243750D01*
G01*
X83450000Y-37431250D01*
G75*
G02*
X83206250Y-37675000I-243750J0D01*
G01*
G37*
%TD*%
%TO.C,R7*%
G36*
G01*
X67706250Y-38675000D02*
X66793750Y-38675000D01*
G75*
G02*
X66550000Y-38431250I0J243750D01*
G01*
X66550000Y-37943750D01*
G75*
G02*
X66793750Y-37700000I243750J0D01*
G01*
X67706250Y-37700000D01*
G75*
G02*
X67950000Y-37943750I0J-243750D01*
G01*
X67950000Y-38431250D01*
G75*
G02*
X67706250Y-38675000I-243750J0D01*
G01*
G37*
G36*
G01*
X67706250Y-36800000D02*
X66793750Y-36800000D01*
G75*
G02*
X66550000Y-36556250I0J243750D01*
G01*
X66550000Y-36068750D01*
G75*
G02*
X66793750Y-35825000I243750J0D01*
G01*
X67706250Y-35825000D01*
G75*
G02*
X67950000Y-36068750I0J-243750D01*
G01*
X67950000Y-36556250D01*
G75*
G02*
X67706250Y-36800000I-243750J0D01*
G01*
G37*
%TD*%
%TO.C,R8*%
G36*
G01*
X64706250Y-38675000D02*
X63793750Y-38675000D01*
G75*
G02*
X63550000Y-38431250I0J243750D01*
G01*
X63550000Y-37943750D01*
G75*
G02*
X63793750Y-37700000I243750J0D01*
G01*
X64706250Y-37700000D01*
G75*
G02*
X64950000Y-37943750I0J-243750D01*
G01*
X64950000Y-38431250D01*
G75*
G02*
X64706250Y-38675000I-243750J0D01*
G01*
G37*
G36*
G01*
X64706250Y-36800000D02*
X63793750Y-36800000D01*
G75*
G02*
X63550000Y-36556250I0J243750D01*
G01*
X63550000Y-36068750D01*
G75*
G02*
X63793750Y-35825000I243750J0D01*
G01*
X64706250Y-35825000D01*
G75*
G02*
X64950000Y-36068750I0J-243750D01*
G01*
X64950000Y-36556250D01*
G75*
G02*
X64706250Y-36800000I-243750J0D01*
G01*
G37*
%TD*%
%TO.C,R9*%
G36*
G01*
X65206250Y-44737500D02*
X64293750Y-44737500D01*
G75*
G02*
X64050000Y-44493750I0J243750D01*
G01*
X64050000Y-44006250D01*
G75*
G02*
X64293750Y-43762500I243750J0D01*
G01*
X65206250Y-43762500D01*
G75*
G02*
X65450000Y-44006250I0J-243750D01*
G01*
X65450000Y-44493750D01*
G75*
G02*
X65206250Y-44737500I-243750J0D01*
G01*
G37*
G36*
G01*
X65206250Y-42862500D02*
X64293750Y-42862500D01*
G75*
G02*
X64050000Y-42618750I0J243750D01*
G01*
X64050000Y-42131250D01*
G75*
G02*
X64293750Y-41887500I243750J0D01*
G01*
X65206250Y-41887500D01*
G75*
G02*
X65450000Y-42131250I0J-243750D01*
G01*
X65450000Y-42618750D01*
G75*
G02*
X65206250Y-42862500I-243750J0D01*
G01*
G37*
%TD*%
%TO.C,R10*%
G36*
G01*
X73206250Y-42800000D02*
X72293750Y-42800000D01*
G75*
G02*
X72050000Y-42556250I0J243750D01*
G01*
X72050000Y-42068750D01*
G75*
G02*
X72293750Y-41825000I243750J0D01*
G01*
X73206250Y-41825000D01*
G75*
G02*
X73450000Y-42068750I0J-243750D01*
G01*
X73450000Y-42556250D01*
G75*
G02*
X73206250Y-42800000I-243750J0D01*
G01*
G37*
G36*
G01*
X73206250Y-44675000D02*
X72293750Y-44675000D01*
G75*
G02*
X72050000Y-44431250I0J243750D01*
G01*
X72050000Y-43943750D01*
G75*
G02*
X72293750Y-43700000I243750J0D01*
G01*
X73206250Y-43700000D01*
G75*
G02*
X73450000Y-43943750I0J-243750D01*
G01*
X73450000Y-44431250D01*
G75*
G02*
X73206250Y-44675000I-243750J0D01*
G01*
G37*
%TD*%
%TO.C,R11*%
G36*
G01*
X70706250Y-36737500D02*
X69793750Y-36737500D01*
G75*
G02*
X69550000Y-36493750I0J243750D01*
G01*
X69550000Y-36006250D01*
G75*
G02*
X69793750Y-35762500I243750J0D01*
G01*
X70706250Y-35762500D01*
G75*
G02*
X70950000Y-36006250I0J-243750D01*
G01*
X70950000Y-36493750D01*
G75*
G02*
X70706250Y-36737500I-243750J0D01*
G01*
G37*
G36*
G01*
X70706250Y-38612500D02*
X69793750Y-38612500D01*
G75*
G02*
X69550000Y-38368750I0J243750D01*
G01*
X69550000Y-37881250D01*
G75*
G02*
X69793750Y-37637500I243750J0D01*
G01*
X70706250Y-37637500D01*
G75*
G02*
X70950000Y-37881250I0J-243750D01*
G01*
X70950000Y-38368750D01*
G75*
G02*
X70706250Y-38612500I-243750J0D01*
G01*
G37*
%TD*%
%TO.C,R12*%
G36*
G01*
X72793750Y-37637500D02*
X73706250Y-37637500D01*
G75*
G02*
X73950000Y-37881250I0J-243750D01*
G01*
X73950000Y-38368750D01*
G75*
G02*
X73706250Y-38612500I-243750J0D01*
G01*
X72793750Y-38612500D01*
G75*
G02*
X72550000Y-38368750I0J243750D01*
G01*
X72550000Y-37881250D01*
G75*
G02*
X72793750Y-37637500I243750J0D01*
G01*
G37*
G36*
G01*
X72793750Y-35762500D02*
X73706250Y-35762500D01*
G75*
G02*
X73950000Y-36006250I0J-243750D01*
G01*
X73950000Y-36493750D01*
G75*
G02*
X73706250Y-36737500I-243750J0D01*
G01*
X72793750Y-36737500D01*
G75*
G02*
X72550000Y-36493750I0J243750D01*
G01*
X72550000Y-36006250D01*
G75*
G02*
X72793750Y-35762500I243750J0D01*
G01*
G37*
%TD*%
%TO.C,R13*%
G36*
G01*
X53293750Y-38325000D02*
X54206250Y-38325000D01*
G75*
G02*
X54450000Y-38568750I0J-243750D01*
G01*
X54450000Y-39056250D01*
G75*
G02*
X54206250Y-39300000I-243750J0D01*
G01*
X53293750Y-39300000D01*
G75*
G02*
X53050000Y-39056250I0J243750D01*
G01*
X53050000Y-38568750D01*
G75*
G02*
X53293750Y-38325000I243750J0D01*
G01*
G37*
G36*
G01*
X53293750Y-40200000D02*
X54206250Y-40200000D01*
G75*
G02*
X54450000Y-40443750I0J-243750D01*
G01*
X54450000Y-40931250D01*
G75*
G02*
X54206250Y-41175000I-243750J0D01*
G01*
X53293750Y-41175000D01*
G75*
G02*
X53050000Y-40931250I0J243750D01*
G01*
X53050000Y-40443750D01*
G75*
G02*
X53293750Y-40200000I243750J0D01*
G01*
G37*
%TD*%
%TO.C,Ra1*%
G36*
G01*
X87375000Y-35475000D02*
X86125000Y-35475000D01*
G75*
G02*
X85875000Y-35225000I0J250000D01*
G01*
X85875000Y-34475000D01*
G75*
G02*
X86125000Y-34225000I250000J0D01*
G01*
X87375000Y-34225000D01*
G75*
G02*
X87625000Y-34475000I0J-250000D01*
G01*
X87625000Y-35225000D01*
G75*
G02*
X87375000Y-35475000I-250000J0D01*
G01*
G37*
G36*
G01*
X87375000Y-38275000D02*
X86125000Y-38275000D01*
G75*
G02*
X85875000Y-38025000I0J250000D01*
G01*
X85875000Y-37275000D01*
G75*
G02*
X86125000Y-37025000I250000J0D01*
G01*
X87375000Y-37025000D01*
G75*
G02*
X87625000Y-37275000I0J-250000D01*
G01*
X87625000Y-38025000D01*
G75*
G02*
X87375000Y-38275000I-250000J0D01*
G01*
G37*
%TD*%
%TO.C,Rb1*%
G36*
G01*
X90375000Y-38275000D02*
X89125000Y-38275000D01*
G75*
G02*
X88875000Y-38025000I0J250000D01*
G01*
X88875000Y-37275000D01*
G75*
G02*
X89125000Y-37025000I250000J0D01*
G01*
X90375000Y-37025000D01*
G75*
G02*
X90625000Y-37275000I0J-250000D01*
G01*
X90625000Y-38025000D01*
G75*
G02*
X90375000Y-38275000I-250000J0D01*
G01*
G37*
G36*
G01*
X90375000Y-35475000D02*
X89125000Y-35475000D01*
G75*
G02*
X88875000Y-35225000I0J250000D01*
G01*
X88875000Y-34475000D01*
G75*
G02*
X89125000Y-34225000I250000J0D01*
G01*
X90375000Y-34225000D01*
G75*
G02*
X90625000Y-34475000I0J-250000D01*
G01*
X90625000Y-35225000D01*
G75*
G02*
X90375000Y-35475000I-250000J0D01*
G01*
G37*
%TD*%
%TO.C,C1*%
G36*
G01*
X71925000Y-83675000D02*
X73175000Y-83675000D01*
G75*
G02*
X73425000Y-83925000I0J-250000D01*
G01*
X73425000Y-84675000D01*
G75*
G02*
X73175000Y-84925000I-250000J0D01*
G01*
X71925000Y-84925000D01*
G75*
G02*
X71675000Y-84675000I0J250000D01*
G01*
X71675000Y-83925000D01*
G75*
G02*
X71925000Y-83675000I250000J0D01*
G01*
G37*
G36*
G01*
X71925000Y-86475000D02*
X73175000Y-86475000D01*
G75*
G02*
X73425000Y-86725000I0J-250000D01*
G01*
X73425000Y-87475000D01*
G75*
G02*
X73175000Y-87725000I-250000J0D01*
G01*
X71925000Y-87725000D01*
G75*
G02*
X71675000Y-87475000I0J250000D01*
G01*
X71675000Y-86725000D01*
G75*
G02*
X71925000Y-86475000I250000J0D01*
G01*
G37*
%TD*%
%TO.C,C2*%
G36*
G01*
X66075000Y-84925000D02*
X64825000Y-84925000D01*
G75*
G02*
X64575000Y-84675000I0J250000D01*
G01*
X64575000Y-83925000D01*
G75*
G02*
X64825000Y-83675000I250000J0D01*
G01*
X66075000Y-83675000D01*
G75*
G02*
X66325000Y-83925000I0J-250000D01*
G01*
X66325000Y-84675000D01*
G75*
G02*
X66075000Y-84925000I-250000J0D01*
G01*
G37*
G36*
G01*
X66075000Y-87725000D02*
X64825000Y-87725000D01*
G75*
G02*
X64575000Y-87475000I0J250000D01*
G01*
X64575000Y-86725000D01*
G75*
G02*
X64825000Y-86475000I250000J0D01*
G01*
X66075000Y-86475000D01*
G75*
G02*
X66325000Y-86725000I0J-250000D01*
G01*
X66325000Y-87475000D01*
G75*
G02*
X66075000Y-87725000I-250000J0D01*
G01*
G37*
%TD*%
%TO.C,Cdec3*%
G36*
G01*
X84048750Y-104775000D02*
X85298750Y-104775000D01*
G75*
G02*
X85548750Y-105025000I0J-250000D01*
G01*
X85548750Y-105775000D01*
G75*
G02*
X85298750Y-106025000I-250000J0D01*
G01*
X84048750Y-106025000D01*
G75*
G02*
X83798750Y-105775000I0J250000D01*
G01*
X83798750Y-105025000D01*
G75*
G02*
X84048750Y-104775000I250000J0D01*
G01*
G37*
G36*
G01*
X84048750Y-101975000D02*
X85298750Y-101975000D01*
G75*
G02*
X85548750Y-102225000I0J-250000D01*
G01*
X85548750Y-102975000D01*
G75*
G02*
X85298750Y-103225000I-250000J0D01*
G01*
X84048750Y-103225000D01*
G75*
G02*
X83798750Y-102975000I0J250000D01*
G01*
X83798750Y-102225000D01*
G75*
G02*
X84048750Y-101975000I250000J0D01*
G01*
G37*
%TD*%
%TO.C,Cdec4*%
G36*
G01*
X80777500Y-101975000D02*
X82027500Y-101975000D01*
G75*
G02*
X82277500Y-102225000I0J-250000D01*
G01*
X82277500Y-102975000D01*
G75*
G02*
X82027500Y-103225000I-250000J0D01*
G01*
X80777500Y-103225000D01*
G75*
G02*
X80527500Y-102975000I0J250000D01*
G01*
X80527500Y-102225000D01*
G75*
G02*
X80777500Y-101975000I250000J0D01*
G01*
G37*
G36*
G01*
X80777500Y-104775000D02*
X82027500Y-104775000D01*
G75*
G02*
X82277500Y-105025000I0J-250000D01*
G01*
X82277500Y-105775000D01*
G75*
G02*
X82027500Y-106025000I-250000J0D01*
G01*
X80777500Y-106025000D01*
G75*
G02*
X80527500Y-105775000I0J250000D01*
G01*
X80527500Y-105025000D01*
G75*
G02*
X80777500Y-104775000I250000J0D01*
G01*
G37*
%TD*%
%TO.C,Cdec5*%
G36*
G01*
X66625000Y-105125000D02*
X66625000Y-106375000D01*
G75*
G02*
X66375000Y-106625000I-250000J0D01*
G01*
X65625000Y-106625000D01*
G75*
G02*
X65375000Y-106375000I0J250000D01*
G01*
X65375000Y-105125000D01*
G75*
G02*
X65625000Y-104875000I250000J0D01*
G01*
X66375000Y-104875000D01*
G75*
G02*
X66625000Y-105125000I0J-250000D01*
G01*
G37*
G36*
G01*
X69425000Y-105125000D02*
X69425000Y-106375000D01*
G75*
G02*
X69175000Y-106625000I-250000J0D01*
G01*
X68425000Y-106625000D01*
G75*
G02*
X68175000Y-106375000I0J250000D01*
G01*
X68175000Y-105125000D01*
G75*
G02*
X68425000Y-104875000I250000J0D01*
G01*
X69175000Y-104875000D01*
G75*
G02*
X69425000Y-105125000I0J-250000D01*
G01*
G37*
%TD*%
%TO.C,Cdec6*%
G36*
G01*
X69425000Y-101945353D02*
X69425000Y-103195353D01*
G75*
G02*
X69175000Y-103445353I-250000J0D01*
G01*
X68425000Y-103445353D01*
G75*
G02*
X68175000Y-103195353I0J250000D01*
G01*
X68175000Y-101945353D01*
G75*
G02*
X68425000Y-101695353I250000J0D01*
G01*
X69175000Y-101695353D01*
G75*
G02*
X69425000Y-101945353I0J-250000D01*
G01*
G37*
G36*
G01*
X66625000Y-101945353D02*
X66625000Y-103195353D01*
G75*
G02*
X66375000Y-103445353I-250000J0D01*
G01*
X65625000Y-103445353D01*
G75*
G02*
X65375000Y-103195353I0J250000D01*
G01*
X65375000Y-101945353D01*
G75*
G02*
X65625000Y-101695353I250000J0D01*
G01*
X66375000Y-101695353D01*
G75*
G02*
X66625000Y-101945353I0J-250000D01*
G01*
G37*
%TD*%
%TO.C,Cdec7*%
G36*
G01*
X90708334Y-66480001D02*
X91958334Y-66480001D01*
G75*
G02*
X92208334Y-66730001I0J-250000D01*
G01*
X92208334Y-67480001D01*
G75*
G02*
X91958334Y-67730001I-250000J0D01*
G01*
X90708334Y-67730001D01*
G75*
G02*
X90458334Y-67480001I0J250000D01*
G01*
X90458334Y-66730001D01*
G75*
G02*
X90708334Y-66480001I250000J0D01*
G01*
G37*
G36*
G01*
X90708334Y-69280001D02*
X91958334Y-69280001D01*
G75*
G02*
X92208334Y-69530001I0J-250000D01*
G01*
X92208334Y-70280001D01*
G75*
G02*
X91958334Y-70530001I-250000J0D01*
G01*
X90708334Y-70530001D01*
G75*
G02*
X90458334Y-70280001I0J250000D01*
G01*
X90458334Y-69530001D01*
G75*
G02*
X90708334Y-69280001I250000J0D01*
G01*
G37*
%TD*%
%TO.C,Cdec8*%
G36*
G01*
X87375000Y-69275000D02*
X88625000Y-69275000D01*
G75*
G02*
X88875000Y-69525000I0J-250000D01*
G01*
X88875000Y-70275000D01*
G75*
G02*
X88625000Y-70525000I-250000J0D01*
G01*
X87375000Y-70525000D01*
G75*
G02*
X87125000Y-70275000I0J250000D01*
G01*
X87125000Y-69525000D01*
G75*
G02*
X87375000Y-69275000I250000J0D01*
G01*
G37*
G36*
G01*
X87375000Y-66475000D02*
X88625000Y-66475000D01*
G75*
G02*
X88875000Y-66725000I0J-250000D01*
G01*
X88875000Y-67475000D01*
G75*
G02*
X88625000Y-67725000I-250000J0D01*
G01*
X87375000Y-67725000D01*
G75*
G02*
X87125000Y-67475000I0J250000D01*
G01*
X87125000Y-66725000D01*
G75*
G02*
X87375000Y-66475000I250000J0D01*
G01*
G37*
%TD*%
%TO.C,C9*%
G36*
G01*
X87375000Y-72375000D02*
X88625000Y-72375000D01*
G75*
G02*
X88875000Y-72625000I0J-250000D01*
G01*
X88875000Y-73375000D01*
G75*
G02*
X88625000Y-73625000I-250000J0D01*
G01*
X87375000Y-73625000D01*
G75*
G02*
X87125000Y-73375000I0J250000D01*
G01*
X87125000Y-72625000D01*
G75*
G02*
X87375000Y-72375000I250000J0D01*
G01*
G37*
G36*
G01*
X87375000Y-75175000D02*
X88625000Y-75175000D01*
G75*
G02*
X88875000Y-75425000I0J-250000D01*
G01*
X88875000Y-76175000D01*
G75*
G02*
X88625000Y-76425000I-250000J0D01*
G01*
X87375000Y-76425000D01*
G75*
G02*
X87125000Y-76175000I0J250000D01*
G01*
X87125000Y-75425000D01*
G75*
G02*
X87375000Y-75175000I250000J0D01*
G01*
G37*
%TD*%
D18*
%TO.C,D2*%
X51400000Y-91980000D03*
D19*
X51400000Y-93700000D03*
X53600000Y-93700000D03*
X53600000Y-91800000D03*
%TD*%
D20*
%TO.C,IC2*%
X87600000Y-102495000D03*
X87600000Y-103765000D03*
X87600000Y-105035000D03*
X87600000Y-106305000D03*
%TD*%
D21*
%TO.C,LED1*%
X81271500Y-66875000D03*
X81271500Y-68125000D03*
X83121500Y-68125000D03*
X83121500Y-66875000D03*
%TD*%
%TO.C,LED2*%
X75600500Y-66875000D03*
X75600500Y-68125000D03*
X73750500Y-68125000D03*
X73750500Y-66875000D03*
%TD*%
D22*
%TO.C,LED3*%
X80534000Y-73600000D03*
X80534000Y-72500000D03*
X80534000Y-71400000D03*
X83484000Y-73600000D03*
X83484000Y-72500000D03*
X83484000Y-71400000D03*
%TD*%
%TO.C,LED4*%
X73013000Y-73600000D03*
X73013000Y-72500000D03*
X73013000Y-71400000D03*
X75963000Y-73600000D03*
X75963000Y-72500000D03*
X75963000Y-71400000D03*
%TD*%
%TO.C,LED5*%
X62367000Y-73600000D03*
X62367000Y-72500000D03*
X62367000Y-71400000D03*
X65317000Y-73600000D03*
X65317000Y-72500000D03*
X65317000Y-71400000D03*
%TD*%
%TO.C,LED6*%
X57796000Y-71400000D03*
X57796000Y-72500000D03*
X57796000Y-73600000D03*
X54846000Y-71400000D03*
X54846000Y-72500000D03*
X54846000Y-73600000D03*
%TD*%
D21*
%TO.C,LED7*%
X62729500Y-66875000D03*
X62729500Y-68125000D03*
X64579500Y-68125000D03*
X64579500Y-66875000D03*
%TD*%
%TO.C,LED8*%
X55208500Y-66875000D03*
X55208500Y-68125000D03*
X57058500Y-68125000D03*
X57058500Y-66875000D03*
%TD*%
D23*
%TO.C,LEDDRV1*%
X71150000Y-81400000D03*
X71150000Y-81000000D03*
X71150000Y-80600000D03*
X71150000Y-80200000D03*
X71150000Y-79800000D03*
X71150000Y-79400000D03*
X71150000Y-79000000D03*
X71150000Y-78600000D03*
D24*
X70400000Y-77850000D03*
X70000000Y-77850000D03*
X69600000Y-77850000D03*
X69200000Y-77850000D03*
X68800000Y-77850000D03*
X68400000Y-77850000D03*
X68000000Y-77850000D03*
X67600000Y-77850000D03*
D23*
X66850000Y-78600000D03*
X66850000Y-79000000D03*
X66850000Y-79400000D03*
X66850000Y-79800000D03*
X66850000Y-80200000D03*
X66850000Y-80600000D03*
X66850000Y-81000000D03*
X66850000Y-81400000D03*
D24*
X67600000Y-82150000D03*
X68000000Y-82150000D03*
X68400000Y-82150000D03*
X68800000Y-82150000D03*
X69200000Y-82150000D03*
X69600000Y-82150000D03*
X70000000Y-82150000D03*
X70400000Y-82150000D03*
D25*
X69000000Y-80000000D03*
%TD*%
D26*
%TO.C,P1*%
X55250000Y-99230000D03*
X55750000Y-99230000D03*
X56250000Y-99230000D03*
X56750000Y-99230000D03*
X57250000Y-99230000D03*
X57750000Y-99230000D03*
X58250000Y-99230000D03*
X60750000Y-99230000D03*
X59750000Y-99230000D03*
X59250000Y-99230000D03*
X58750000Y-99230000D03*
X60250000Y-99230000D03*
X60500000Y-100930000D03*
X60000000Y-100930000D03*
X59500000Y-100930000D03*
X59000000Y-100930000D03*
X58500000Y-100930000D03*
X58000000Y-100930000D03*
X57500000Y-100930000D03*
X57000000Y-100930000D03*
X56500000Y-100930000D03*
X56000000Y-100930000D03*
X55500000Y-100930000D03*
X55000000Y-100930000D03*
%TD*%
%TO.C,R1*%
G36*
G01*
X85050000Y-77713750D02*
X85050000Y-78626250D01*
G75*
G02*
X84806250Y-78870000I-243750J0D01*
G01*
X84318750Y-78870000D01*
G75*
G02*
X84075000Y-78626250I0J243750D01*
G01*
X84075000Y-77713750D01*
G75*
G02*
X84318750Y-77470000I243750J0D01*
G01*
X84806250Y-77470000D01*
G75*
G02*
X85050000Y-77713750I0J-243750D01*
G01*
G37*
G36*
G01*
X86925000Y-77713750D02*
X86925000Y-78626250D01*
G75*
G02*
X86681250Y-78870000I-243750J0D01*
G01*
X86193750Y-78870000D01*
G75*
G02*
X85950000Y-78626250I0J243750D01*
G01*
X85950000Y-77713750D01*
G75*
G02*
X86193750Y-77470000I243750J0D01*
G01*
X86681250Y-77470000D01*
G75*
G02*
X86925000Y-77713750I0J-243750D01*
G01*
G37*
%TD*%
%TO.C,R2*%
G36*
G01*
X88325000Y-78626250D02*
X88325000Y-77713750D01*
G75*
G02*
X88568750Y-77470000I243750J0D01*
G01*
X89056250Y-77470000D01*
G75*
G02*
X89300000Y-77713750I0J-243750D01*
G01*
X89300000Y-78626250D01*
G75*
G02*
X89056250Y-78870000I-243750J0D01*
G01*
X88568750Y-78870000D01*
G75*
G02*
X88325000Y-78626250I0J243750D01*
G01*
G37*
G36*
G01*
X90200000Y-78626250D02*
X90200000Y-77713750D01*
G75*
G02*
X90443750Y-77470000I243750J0D01*
G01*
X90931250Y-77470000D01*
G75*
G02*
X91175000Y-77713750I0J-243750D01*
G01*
X91175000Y-78626250D01*
G75*
G02*
X90931250Y-78870000I-243750J0D01*
G01*
X90443750Y-78870000D01*
G75*
G02*
X90200000Y-78626250I0J243750D01*
G01*
G37*
%TD*%
%TO.C,R3*%
G36*
G01*
X70581250Y-87725000D02*
X69668750Y-87725000D01*
G75*
G02*
X69425000Y-87481250I0J243750D01*
G01*
X69425000Y-86993750D01*
G75*
G02*
X69668750Y-86750000I243750J0D01*
G01*
X70581250Y-86750000D01*
G75*
G02*
X70825000Y-86993750I0J-243750D01*
G01*
X70825000Y-87481250D01*
G75*
G02*
X70581250Y-87725000I-243750J0D01*
G01*
G37*
G36*
G01*
X70581250Y-85850000D02*
X69668750Y-85850000D01*
G75*
G02*
X69425000Y-85606250I0J243750D01*
G01*
X69425000Y-85118750D01*
G75*
G02*
X69668750Y-84875000I243750J0D01*
G01*
X70581250Y-84875000D01*
G75*
G02*
X70825000Y-85118750I0J-243750D01*
G01*
X70825000Y-85606250D01*
G75*
G02*
X70581250Y-85850000I-243750J0D01*
G01*
G37*
%TD*%
%TO.C,R14*%
G36*
G01*
X67550000Y-99104461D02*
X67550000Y-100016961D01*
G75*
G02*
X67306250Y-100260711I-243750J0D01*
G01*
X66818750Y-100260711D01*
G75*
G02*
X66575000Y-100016961I0J243750D01*
G01*
X66575000Y-99104461D01*
G75*
G02*
X66818750Y-98860711I243750J0D01*
G01*
X67306250Y-98860711D01*
G75*
G02*
X67550000Y-99104461I0J-243750D01*
G01*
G37*
G36*
G01*
X69425000Y-99104461D02*
X69425000Y-100016961D01*
G75*
G02*
X69181250Y-100260711I-243750J0D01*
G01*
X68693750Y-100260711D01*
G75*
G02*
X68450000Y-100016961I0J243750D01*
G01*
X68450000Y-99104461D01*
G75*
G02*
X68693750Y-98860711I243750J0D01*
G01*
X69181250Y-98860711D01*
G75*
G02*
X69425000Y-99104461I0J-243750D01*
G01*
G37*
%TD*%
%TO.C,R15*%
G36*
G01*
X69425000Y-96264819D02*
X69425000Y-97177319D01*
G75*
G02*
X69181250Y-97421069I-243750J0D01*
G01*
X68693750Y-97421069D01*
G75*
G02*
X68450000Y-97177319I0J243750D01*
G01*
X68450000Y-96264819D01*
G75*
G02*
X68693750Y-96021069I243750J0D01*
G01*
X69181250Y-96021069D01*
G75*
G02*
X69425000Y-96264819I0J-243750D01*
G01*
G37*
G36*
G01*
X67550000Y-96264819D02*
X67550000Y-97177319D01*
G75*
G02*
X67306250Y-97421069I-243750J0D01*
G01*
X66818750Y-97421069D01*
G75*
G02*
X66575000Y-97177319I0J243750D01*
G01*
X66575000Y-96264819D01*
G75*
G02*
X66818750Y-96021069I243750J0D01*
G01*
X67306250Y-96021069D01*
G75*
G02*
X67550000Y-96264819I0J-243750D01*
G01*
G37*
%TD*%
%TO.C,R16*%
G36*
G01*
X67550000Y-93425177D02*
X67550000Y-94337677D01*
G75*
G02*
X67306250Y-94581427I-243750J0D01*
G01*
X66818750Y-94581427D01*
G75*
G02*
X66575000Y-94337677I0J243750D01*
G01*
X66575000Y-93425177D01*
G75*
G02*
X66818750Y-93181427I243750J0D01*
G01*
X67306250Y-93181427D01*
G75*
G02*
X67550000Y-93425177I0J-243750D01*
G01*
G37*
G36*
G01*
X69425000Y-93425177D02*
X69425000Y-94337677D01*
G75*
G02*
X69181250Y-94581427I-243750J0D01*
G01*
X68693750Y-94581427D01*
G75*
G02*
X68450000Y-94337677I0J243750D01*
G01*
X68450000Y-93425177D01*
G75*
G02*
X68693750Y-93181427I243750J0D01*
G01*
X69181250Y-93181427D01*
G75*
G02*
X69425000Y-93425177I0J-243750D01*
G01*
G37*
%TD*%
%TO.C,R17*%
G36*
G01*
X91958333Y-73625000D02*
X90708333Y-73625000D01*
G75*
G02*
X90458333Y-73375000I0J250000D01*
G01*
X90458333Y-72625000D01*
G75*
G02*
X90708333Y-72375000I250000J0D01*
G01*
X91958333Y-72375000D01*
G75*
G02*
X92208333Y-72625000I0J-250000D01*
G01*
X92208333Y-73375000D01*
G75*
G02*
X91958333Y-73625000I-250000J0D01*
G01*
G37*
G36*
G01*
X91958333Y-76425000D02*
X90708333Y-76425000D01*
G75*
G02*
X90458333Y-76175000I0J250000D01*
G01*
X90458333Y-75425000D01*
G75*
G02*
X90708333Y-75175000I250000J0D01*
G01*
X91958333Y-75175000D01*
G75*
G02*
X92208333Y-75425000I0J-250000D01*
G01*
X92208333Y-76175000D01*
G75*
G02*
X91958333Y-76425000I-250000J0D01*
G01*
G37*
%TD*%
%TO.C,R18*%
G36*
G01*
X82025000Y-77375000D02*
X82025000Y-78625000D01*
G75*
G02*
X81775000Y-78875000I-250000J0D01*
G01*
X81025000Y-78875000D01*
G75*
G02*
X80775000Y-78625000I0J250000D01*
G01*
X80775000Y-77375000D01*
G75*
G02*
X81025000Y-77125000I250000J0D01*
G01*
X81775000Y-77125000D01*
G75*
G02*
X82025000Y-77375000I0J-250000D01*
G01*
G37*
G36*
G01*
X79225000Y-77375000D02*
X79225000Y-78625000D01*
G75*
G02*
X78975000Y-78875000I-250000J0D01*
G01*
X78225000Y-78875000D01*
G75*
G02*
X77975000Y-78625000I0J250000D01*
G01*
X77975000Y-77375000D01*
G75*
G02*
X78225000Y-77125000I250000J0D01*
G01*
X78975000Y-77125000D01*
G75*
G02*
X79225000Y-77375000I0J-250000D01*
G01*
G37*
%TD*%
D27*
%TO.C,SW1*%
X98825000Y-107575000D03*
X94675000Y-107575000D03*
X98825000Y-105425000D03*
X94675000Y-105425000D03*
%TD*%
%TO.C,SW2*%
X99075000Y-72575000D03*
X94925000Y-72575000D03*
X99075000Y-70425000D03*
X94925000Y-70425000D03*
%TD*%
%TO.C,U3*%
G36*
G01*
X57150000Y-91062500D02*
X57150000Y-90937500D01*
G75*
G02*
X57212500Y-90875000I62500J0D01*
G01*
X57887500Y-90875000D01*
G75*
G02*
X57950000Y-90937500I0J-62500D01*
G01*
X57950000Y-91062500D01*
G75*
G02*
X57887500Y-91125000I-62500J0D01*
G01*
X57212500Y-91125000D01*
G75*
G02*
X57150000Y-91062500I0J62500D01*
G01*
G37*
G36*
G01*
X57150000Y-91562500D02*
X57150000Y-91437500D01*
G75*
G02*
X57212500Y-91375000I62500J0D01*
G01*
X57887500Y-91375000D01*
G75*
G02*
X57950000Y-91437500I0J-62500D01*
G01*
X57950000Y-91562500D01*
G75*
G02*
X57887500Y-91625000I-62500J0D01*
G01*
X57212500Y-91625000D01*
G75*
G02*
X57150000Y-91562500I0J62500D01*
G01*
G37*
G36*
G01*
X57150000Y-92062500D02*
X57150000Y-91937500D01*
G75*
G02*
X57212500Y-91875000I62500J0D01*
G01*
X57887500Y-91875000D01*
G75*
G02*
X57950000Y-91937500I0J-62500D01*
G01*
X57950000Y-92062500D01*
G75*
G02*
X57887500Y-92125000I-62500J0D01*
G01*
X57212500Y-92125000D01*
G75*
G02*
X57150000Y-92062500I0J62500D01*
G01*
G37*
G36*
G01*
X57150000Y-92562500D02*
X57150000Y-92437500D01*
G75*
G02*
X57212500Y-92375000I62500J0D01*
G01*
X57887500Y-92375000D01*
G75*
G02*
X57950000Y-92437500I0J-62500D01*
G01*
X57950000Y-92562500D01*
G75*
G02*
X57887500Y-92625000I-62500J0D01*
G01*
X57212500Y-92625000D01*
G75*
G02*
X57150000Y-92562500I0J62500D01*
G01*
G37*
G36*
G01*
X57150000Y-93062500D02*
X57150000Y-92937500D01*
G75*
G02*
X57212500Y-92875000I62500J0D01*
G01*
X57887500Y-92875000D01*
G75*
G02*
X57950000Y-92937500I0J-62500D01*
G01*
X57950000Y-93062500D01*
G75*
G02*
X57887500Y-93125000I-62500J0D01*
G01*
X57212500Y-93125000D01*
G75*
G02*
X57150000Y-93062500I0J62500D01*
G01*
G37*
G36*
G01*
X57150000Y-93562500D02*
X57150000Y-93437500D01*
G75*
G02*
X57212500Y-93375000I62500J0D01*
G01*
X57887500Y-93375000D01*
G75*
G02*
X57950000Y-93437500I0J-62500D01*
G01*
X57950000Y-93562500D01*
G75*
G02*
X57887500Y-93625000I-62500J0D01*
G01*
X57212500Y-93625000D01*
G75*
G02*
X57150000Y-93562500I0J62500D01*
G01*
G37*
G36*
G01*
X57150000Y-94062500D02*
X57150000Y-93937500D01*
G75*
G02*
X57212500Y-93875000I62500J0D01*
G01*
X57887500Y-93875000D01*
G75*
G02*
X57950000Y-93937500I0J-62500D01*
G01*
X57950000Y-94062500D01*
G75*
G02*
X57887500Y-94125000I-62500J0D01*
G01*
X57212500Y-94125000D01*
G75*
G02*
X57150000Y-94062500I0J62500D01*
G01*
G37*
G36*
G01*
X58375000Y-95287500D02*
X58375000Y-94612500D01*
G75*
G02*
X58437500Y-94550000I62500J0D01*
G01*
X58562500Y-94550000D01*
G75*
G02*
X58625000Y-94612500I0J-62500D01*
G01*
X58625000Y-95287500D01*
G75*
G02*
X58562500Y-95350000I-62500J0D01*
G01*
X58437500Y-95350000D01*
G75*
G02*
X58375000Y-95287500I0J62500D01*
G01*
G37*
G36*
G01*
X58875000Y-95287500D02*
X58875000Y-94612500D01*
G75*
G02*
X58937500Y-94550000I62500J0D01*
G01*
X59062500Y-94550000D01*
G75*
G02*
X59125000Y-94612500I0J-62500D01*
G01*
X59125000Y-95287500D01*
G75*
G02*
X59062500Y-95350000I-62500J0D01*
G01*
X58937500Y-95350000D01*
G75*
G02*
X58875000Y-95287500I0J62500D01*
G01*
G37*
G36*
G01*
X59375000Y-95287500D02*
X59375000Y-94612500D01*
G75*
G02*
X59437500Y-94550000I62500J0D01*
G01*
X59562500Y-94550000D01*
G75*
G02*
X59625000Y-94612500I0J-62500D01*
G01*
X59625000Y-95287500D01*
G75*
G02*
X59562500Y-95350000I-62500J0D01*
G01*
X59437500Y-95350000D01*
G75*
G02*
X59375000Y-95287500I0J62500D01*
G01*
G37*
G36*
G01*
X59875000Y-95287500D02*
X59875000Y-94612500D01*
G75*
G02*
X59937500Y-94550000I62500J0D01*
G01*
X60062500Y-94550000D01*
G75*
G02*
X60125000Y-94612500I0J-62500D01*
G01*
X60125000Y-95287500D01*
G75*
G02*
X60062500Y-95350000I-62500J0D01*
G01*
X59937500Y-95350000D01*
G75*
G02*
X59875000Y-95287500I0J62500D01*
G01*
G37*
G36*
G01*
X60375000Y-95287500D02*
X60375000Y-94612500D01*
G75*
G02*
X60437500Y-94550000I62500J0D01*
G01*
X60562500Y-94550000D01*
G75*
G02*
X60625000Y-94612500I0J-62500D01*
G01*
X60625000Y-95287500D01*
G75*
G02*
X60562500Y-95350000I-62500J0D01*
G01*
X60437500Y-95350000D01*
G75*
G02*
X60375000Y-95287500I0J62500D01*
G01*
G37*
G36*
G01*
X60875000Y-95287500D02*
X60875000Y-94612500D01*
G75*
G02*
X60937500Y-94550000I62500J0D01*
G01*
X61062500Y-94550000D01*
G75*
G02*
X61125000Y-94612500I0J-62500D01*
G01*
X61125000Y-95287500D01*
G75*
G02*
X61062500Y-95350000I-62500J0D01*
G01*
X60937500Y-95350000D01*
G75*
G02*
X60875000Y-95287500I0J62500D01*
G01*
G37*
G36*
G01*
X61375000Y-95287500D02*
X61375000Y-94612500D01*
G75*
G02*
X61437500Y-94550000I62500J0D01*
G01*
X61562500Y-94550000D01*
G75*
G02*
X61625000Y-94612500I0J-62500D01*
G01*
X61625000Y-95287500D01*
G75*
G02*
X61562500Y-95350000I-62500J0D01*
G01*
X61437500Y-95350000D01*
G75*
G02*
X61375000Y-95287500I0J62500D01*
G01*
G37*
G36*
G01*
X62050000Y-94062500D02*
X62050000Y-93937500D01*
G75*
G02*
X62112500Y-93875000I62500J0D01*
G01*
X62787500Y-93875000D01*
G75*
G02*
X62850000Y-93937500I0J-62500D01*
G01*
X62850000Y-94062500D01*
G75*
G02*
X62787500Y-94125000I-62500J0D01*
G01*
X62112500Y-94125000D01*
G75*
G02*
X62050000Y-94062500I0J62500D01*
G01*
G37*
G36*
G01*
X62050000Y-93562500D02*
X62050000Y-93437500D01*
G75*
G02*
X62112500Y-93375000I62500J0D01*
G01*
X62787500Y-93375000D01*
G75*
G02*
X62850000Y-93437500I0J-62500D01*
G01*
X62850000Y-93562500D01*
G75*
G02*
X62787500Y-93625000I-62500J0D01*
G01*
X62112500Y-93625000D01*
G75*
G02*
X62050000Y-93562500I0J62500D01*
G01*
G37*
G36*
G01*
X62050000Y-93062500D02*
X62050000Y-92937500D01*
G75*
G02*
X62112500Y-92875000I62500J0D01*
G01*
X62787500Y-92875000D01*
G75*
G02*
X62850000Y-92937500I0J-62500D01*
G01*
X62850000Y-93062500D01*
G75*
G02*
X62787500Y-93125000I-62500J0D01*
G01*
X62112500Y-93125000D01*
G75*
G02*
X62050000Y-93062500I0J62500D01*
G01*
G37*
G36*
G01*
X62050000Y-92562500D02*
X62050000Y-92437500D01*
G75*
G02*
X62112500Y-92375000I62500J0D01*
G01*
X62787500Y-92375000D01*
G75*
G02*
X62850000Y-92437500I0J-62500D01*
G01*
X62850000Y-92562500D01*
G75*
G02*
X62787500Y-92625000I-62500J0D01*
G01*
X62112500Y-92625000D01*
G75*
G02*
X62050000Y-92562500I0J62500D01*
G01*
G37*
G36*
G01*
X62050000Y-92062500D02*
X62050000Y-91937500D01*
G75*
G02*
X62112500Y-91875000I62500J0D01*
G01*
X62787500Y-91875000D01*
G75*
G02*
X62850000Y-91937500I0J-62500D01*
G01*
X62850000Y-92062500D01*
G75*
G02*
X62787500Y-92125000I-62500J0D01*
G01*
X62112500Y-92125000D01*
G75*
G02*
X62050000Y-92062500I0J62500D01*
G01*
G37*
G36*
G01*
X62050000Y-91562500D02*
X62050000Y-91437500D01*
G75*
G02*
X62112500Y-91375000I62500J0D01*
G01*
X62787500Y-91375000D01*
G75*
G02*
X62850000Y-91437500I0J-62500D01*
G01*
X62850000Y-91562500D01*
G75*
G02*
X62787500Y-91625000I-62500J0D01*
G01*
X62112500Y-91625000D01*
G75*
G02*
X62050000Y-91562500I0J62500D01*
G01*
G37*
G36*
G01*
X62050000Y-91062500D02*
X62050000Y-90937500D01*
G75*
G02*
X62112500Y-90875000I62500J0D01*
G01*
X62787500Y-90875000D01*
G75*
G02*
X62850000Y-90937500I0J-62500D01*
G01*
X62850000Y-91062500D01*
G75*
G02*
X62787500Y-91125000I-62500J0D01*
G01*
X62112500Y-91125000D01*
G75*
G02*
X62050000Y-91062500I0J62500D01*
G01*
G37*
G36*
G01*
X61375000Y-90387500D02*
X61375000Y-89712500D01*
G75*
G02*
X61437500Y-89650000I62500J0D01*
G01*
X61562500Y-89650000D01*
G75*
G02*
X61625000Y-89712500I0J-62500D01*
G01*
X61625000Y-90387500D01*
G75*
G02*
X61562500Y-90450000I-62500J0D01*
G01*
X61437500Y-90450000D01*
G75*
G02*
X61375000Y-90387500I0J62500D01*
G01*
G37*
G36*
G01*
X60875000Y-90387500D02*
X60875000Y-89712500D01*
G75*
G02*
X60937500Y-89650000I62500J0D01*
G01*
X61062500Y-89650000D01*
G75*
G02*
X61125000Y-89712500I0J-62500D01*
G01*
X61125000Y-90387500D01*
G75*
G02*
X61062500Y-90450000I-62500J0D01*
G01*
X60937500Y-90450000D01*
G75*
G02*
X60875000Y-90387500I0J62500D01*
G01*
G37*
G36*
G01*
X60375000Y-90387500D02*
X60375000Y-89712500D01*
G75*
G02*
X60437500Y-89650000I62500J0D01*
G01*
X60562500Y-89650000D01*
G75*
G02*
X60625000Y-89712500I0J-62500D01*
G01*
X60625000Y-90387500D01*
G75*
G02*
X60562500Y-90450000I-62500J0D01*
G01*
X60437500Y-90450000D01*
G75*
G02*
X60375000Y-90387500I0J62500D01*
G01*
G37*
G36*
G01*
X59875000Y-90387500D02*
X59875000Y-89712500D01*
G75*
G02*
X59937500Y-89650000I62500J0D01*
G01*
X60062500Y-89650000D01*
G75*
G02*
X60125000Y-89712500I0J-62500D01*
G01*
X60125000Y-90387500D01*
G75*
G02*
X60062500Y-90450000I-62500J0D01*
G01*
X59937500Y-90450000D01*
G75*
G02*
X59875000Y-90387500I0J62500D01*
G01*
G37*
G36*
G01*
X59375000Y-90387500D02*
X59375000Y-89712500D01*
G75*
G02*
X59437500Y-89650000I62500J0D01*
G01*
X59562500Y-89650000D01*
G75*
G02*
X59625000Y-89712500I0J-62500D01*
G01*
X59625000Y-90387500D01*
G75*
G02*
X59562500Y-90450000I-62500J0D01*
G01*
X59437500Y-90450000D01*
G75*
G02*
X59375000Y-90387500I0J62500D01*
G01*
G37*
G36*
G01*
X58875000Y-90387500D02*
X58875000Y-89712500D01*
G75*
G02*
X58937500Y-89650000I62500J0D01*
G01*
X59062500Y-89650000D01*
G75*
G02*
X59125000Y-89712500I0J-62500D01*
G01*
X59125000Y-90387500D01*
G75*
G02*
X59062500Y-90450000I-62500J0D01*
G01*
X58937500Y-90450000D01*
G75*
G02*
X58875000Y-90387500I0J62500D01*
G01*
G37*
G36*
G01*
X58375000Y-90387500D02*
X58375000Y-89712500D01*
G75*
G02*
X58437500Y-89650000I62500J0D01*
G01*
X58562500Y-89650000D01*
G75*
G02*
X58625000Y-89712500I0J-62500D01*
G01*
X58625000Y-90387500D01*
G75*
G02*
X58562500Y-90450000I-62500J0D01*
G01*
X58437500Y-90450000D01*
G75*
G02*
X58375000Y-90387500I0J62500D01*
G01*
G37*
G36*
G01*
X58430000Y-91605000D02*
X58430000Y-91155000D01*
G75*
G02*
X58655000Y-90930000I225000J0D01*
G01*
X59105000Y-90930000D01*
G75*
G02*
X59330000Y-91155000I0J-225000D01*
G01*
X59330000Y-91605000D01*
G75*
G02*
X59105000Y-91830000I-225000J0D01*
G01*
X58655000Y-91830000D01*
G75*
G02*
X58430000Y-91605000I0J225000D01*
G01*
G37*
G36*
G01*
X58430000Y-92725000D02*
X58430000Y-92275000D01*
G75*
G02*
X58655000Y-92050000I225000J0D01*
G01*
X59105000Y-92050000D01*
G75*
G02*
X59330000Y-92275000I0J-225000D01*
G01*
X59330000Y-92725000D01*
G75*
G02*
X59105000Y-92950000I-225000J0D01*
G01*
X58655000Y-92950000D01*
G75*
G02*
X58430000Y-92725000I0J225000D01*
G01*
G37*
G36*
G01*
X58430000Y-93845000D02*
X58430000Y-93395000D01*
G75*
G02*
X58655000Y-93170000I225000J0D01*
G01*
X59105000Y-93170000D01*
G75*
G02*
X59330000Y-93395000I0J-225000D01*
G01*
X59330000Y-93845000D01*
G75*
G02*
X59105000Y-94070000I-225000J0D01*
G01*
X58655000Y-94070000D01*
G75*
G02*
X58430000Y-93845000I0J225000D01*
G01*
G37*
G36*
G01*
X59550000Y-91605000D02*
X59550000Y-91155000D01*
G75*
G02*
X59775000Y-90930000I225000J0D01*
G01*
X60225000Y-90930000D01*
G75*
G02*
X60450000Y-91155000I0J-225000D01*
G01*
X60450000Y-91605000D01*
G75*
G02*
X60225000Y-91830000I-225000J0D01*
G01*
X59775000Y-91830000D01*
G75*
G02*
X59550000Y-91605000I0J225000D01*
G01*
G37*
G36*
G01*
X59550000Y-92725000D02*
X59550000Y-92275000D01*
G75*
G02*
X59775000Y-92050000I225000J0D01*
G01*
X60225000Y-92050000D01*
G75*
G02*
X60450000Y-92275000I0J-225000D01*
G01*
X60450000Y-92725000D01*
G75*
G02*
X60225000Y-92950000I-225000J0D01*
G01*
X59775000Y-92950000D01*
G75*
G02*
X59550000Y-92725000I0J225000D01*
G01*
G37*
G36*
G01*
X59550000Y-93845000D02*
X59550000Y-93395000D01*
G75*
G02*
X59775000Y-93170000I225000J0D01*
G01*
X60225000Y-93170000D01*
G75*
G02*
X60450000Y-93395000I0J-225000D01*
G01*
X60450000Y-93845000D01*
G75*
G02*
X60225000Y-94070000I-225000J0D01*
G01*
X59775000Y-94070000D01*
G75*
G02*
X59550000Y-93845000I0J225000D01*
G01*
G37*
G36*
G01*
X60670000Y-91605000D02*
X60670000Y-91155000D01*
G75*
G02*
X60895000Y-90930000I225000J0D01*
G01*
X61345000Y-90930000D01*
G75*
G02*
X61570000Y-91155000I0J-225000D01*
G01*
X61570000Y-91605000D01*
G75*
G02*
X61345000Y-91830000I-225000J0D01*
G01*
X60895000Y-91830000D01*
G75*
G02*
X60670000Y-91605000I0J225000D01*
G01*
G37*
G36*
G01*
X60670000Y-92725000D02*
X60670000Y-92275000D01*
G75*
G02*
X60895000Y-92050000I225000J0D01*
G01*
X61345000Y-92050000D01*
G75*
G02*
X61570000Y-92275000I0J-225000D01*
G01*
X61570000Y-92725000D01*
G75*
G02*
X61345000Y-92950000I-225000J0D01*
G01*
X60895000Y-92950000D01*
G75*
G02*
X60670000Y-92725000I0J225000D01*
G01*
G37*
G36*
G01*
X60670000Y-93845000D02*
X60670000Y-93395000D01*
G75*
G02*
X60895000Y-93170000I225000J0D01*
G01*
X61345000Y-93170000D01*
G75*
G02*
X61570000Y-93395000I0J-225000D01*
G01*
X61570000Y-93845000D01*
G75*
G02*
X61345000Y-94070000I-225000J0D01*
G01*
X60895000Y-94070000D01*
G75*
G02*
X60670000Y-93845000I0J225000D01*
G01*
G37*
%TD*%
D28*
%TO.C,U4*%
X93750000Y-97737500D03*
X92250000Y-97737500D03*
X90750000Y-97737500D03*
X89250000Y-97737500D03*
X87750000Y-97737500D03*
X86250000Y-97737500D03*
X84750000Y-97737500D03*
X83250000Y-97737500D03*
X81750000Y-97737500D03*
X81750000Y-80262500D03*
X83250000Y-80262500D03*
X84750000Y-80262500D03*
X86250000Y-80262500D03*
X87750000Y-80262500D03*
X89250000Y-80262500D03*
X90750000Y-80262500D03*
X92250000Y-80262500D03*
X93750000Y-80262500D03*
D29*
X87170000Y-90120000D03*
%TD*%
M02*
