M48
; DRILL file {KiCad 5.1.6} date Wed Jul  8 20:14:38 2020
; FORMAT={-:-/ absolute / inch / decimal}
; #@! TF.CreationDate,2020-07-08T20:14:38-07:00
; #@! TF.GenerationSoftware,Kicad,Pcbnew,5.1.6
; #@! TF.FileFunction,Plated,1,2,PTH
FMAT,2
INCH
T1C0.0157
T2C0.0197
T3C0.0394
%
G90
G05
T1
X1.7913Y-1.5354
X1.9193Y-1.8406
X1.9291Y-1.7323
X2.0079Y-3.0709
X2.0236Y-3.6142
X2.0236Y-3.6929
X2.0472Y-1.5256
X2.0472Y-1.565
X2.0768Y-1.8406
X2.0866Y-1.7323
X2.1102Y-3.6142
X2.1732Y-2.6339
X2.1736Y-2.6821
X2.1949Y-3.5728
X2.1949Y-3.6319
X2.1949Y-3.6811
X2.1949Y-3.7303
X2.1949Y-3.7795
X2.2244Y-1.3484
X2.2244Y-1.3878
X2.2244Y-1.437
X2.3898Y-2.7559
X2.3898Y-2.8228
X2.4685Y-2.6339
X2.4697Y-2.6821
X2.5768Y-3.435
X2.5886Y-4.0453
X2.5886Y-4.1634
X2.6378Y-2.0079
X2.6378Y-3.8091
X2.6476Y-1.4272
X2.6476Y-3.3563
X2.6575Y-1.811
X2.687Y-3.1201
X2.687Y-3.3563
X2.7165Y-3.6909
X2.7362Y-1.811
X2.7461Y-3.1791
X2.7559Y-1.5059
X2.7618Y-3.435
X2.7657Y-1.4272
X2.7953Y-2.0079
X2.8248Y-4.065
X2.8248Y-4.1339
X2.8322Y-1.5527
X2.8494Y-2.6329
X2.8563Y-3.435
X2.8937Y-1.378
X2.9331Y-2.8543
X3.0906Y-1.3484
X3.0945Y-3.0709
X3.1201Y-4.0453
X3.189Y-4.1535
X3.2047Y-3.0709
X3.2185Y-3.1594
X3.248Y-1.9193
X3.3071Y-4.1535
X3.3364Y-3.1597
X3.376Y-1.939
X3.376Y-2.8346
X3.3858Y-3.5039
X3.3957Y-1.6043
X3.3957Y-3.8484
X3.435Y-4.1339
X3.4547Y-3.1594
X3.4646Y-2.7461
X3.4646Y-2.874
X3.4843Y-3.5925
X3.4941Y-1.939
X3.4966Y-3.0776
X3.5138Y-3.1594
X3.5585Y-1.7467
X3.5726Y-3.1597
X3.5827Y-1.6929
X3.5958Y-2.9843
X3.6024Y-2.7461
X3.6122Y-1.939
X3.6516Y-1.3681
X3.6909Y-3.8484
X3.7303Y-2.7756
X3.7303Y-4.2323
X3.7697Y-1.6043
X3.8878Y-4.2323
X3.8976Y-2.7756
T3
X4.6063Y-1.4764
X4.6063Y-1.6339
X4.6063Y-1.7323
X4.6063Y-1.811
X4.6063Y-1.9685
X4.0059Y-1.3681
X4.0059Y-1.4681
X4.0059Y-1.5681
X4.0059Y-1.6681
X4.0059Y-1.7681
X4.0059Y-1.8681
X4.0059Y-1.9681
X4.0059Y-2.0681
X4.1059Y-1.3681
X4.1059Y-1.4681
X4.1059Y-1.5681
X4.1059Y-1.6681
X4.1059Y-1.7681
X4.1059Y-1.8681
X4.1059Y-1.9681
X4.1059Y-2.0681
X4.3406Y-1.6634
X4.3406Y-1.7634
X2.3524Y-1.5602
X2.3524Y-1.6602
X2.3524Y-1.7602
X2.3524Y-1.8602
X1.6437Y-1.6209
X1.6437Y-1.7209
X1.6437Y-1.8209
X1.885Y-2.0063
X1.885Y-2.1063
X1.985Y-2.0063
X1.985Y-2.1063
X2.085Y-2.0063
X2.085Y-2.1063
X2.185Y-2.0063
X2.185Y-2.1063
X1.6535Y-3.6339
X1.6535Y-3.7339
X1.6535Y-3.8339
X1.6535Y-3.9339
X1.6535Y-4.0339
X1.6535Y-4.1339
X3.061Y-1.4996
X3.061Y-1.5996
X3.061Y-1.6996
X3.061Y-1.7996
X3.061Y-1.8996
X1.6535Y-3.0858
X1.6535Y-3.1858
X1.6535Y-3.2858
X1.6535Y-3.3858
X1.8898Y-3.937
X1.8898Y-4.037
X1.8898Y-4.137
X1.8504Y-3.0858
X1.8504Y-3.1858
X1.8504Y-3.2858
X1.8504Y-3.3858
X1.6547Y-2.6559
X1.6547Y-2.7559
X1.7547Y-2.6559
X1.7547Y-2.7559
X1.8547Y-2.6559
X1.8547Y-2.7559
X1.9547Y-2.6559
X1.9547Y-2.7559
T2
G00X2.1067Y-4.2043
M15
G01X2.1067Y-4.228
M16
G05
G00X2.1209Y-3.9701
M15
G01X2.1209Y-3.9937
M16
G05
G00X2.4461Y-3.9701
M15
G01X2.4461Y-3.9937
M16
G05
G00X2.4602Y-4.2043
M15
G01X2.4602Y-4.228
M16
G05
T0
M30
